G04*
G04 #@! TF.GenerationSoftware,Altium Limited,Altium Designer,23.0.1 (38)*
G04*
G04 Layer_Color=32896*
%FSLAX24Y24*%
%MOIN*%
G70*
G04*
G04 #@! TF.SameCoordinates,9BD69B8C-B535-481D-991D-221D870DF5CB*
G04*
G04*
G04 #@! TF.FilePolarity,Positive*
G04*
G01*
G75*
%ADD12C,0.0100*%
%ADD15C,0.0030*%
%ADD16C,0.0070*%
%ADD38C,0.0157*%
%ADD39C,0.0079*%
%ADD40C,0.0138*%
D12*
X2953Y11830D02*
X3773D01*
Y11630D02*
Y11830D01*
X2133Y11630D02*
Y11830D01*
X2953D01*
X2133Y9130D02*
Y9330D01*
Y9130D02*
X2953D01*
X3773D02*
Y9330D01*
X2953Y9130D02*
X3773D01*
D15*
X1838Y3067D02*
Y3337D01*
Y3607D01*
X2158Y3337D02*
Y3607D01*
Y3067D02*
Y3337D01*
X1098Y3850D02*
X1368D01*
X828D02*
X1098D01*
X828Y4170D02*
X1098D01*
X1368D01*
X4833Y6580D02*
Y6850D01*
Y6310D02*
Y6580D01*
X5153Y6310D02*
Y6580D01*
Y6850D01*
X763Y6580D02*
Y6850D01*
Y6310D02*
Y6580D01*
X1083Y6310D02*
Y6580D01*
Y6850D01*
X763Y5250D02*
Y5500D01*
Y5000D02*
Y5250D01*
X1083Y5000D02*
Y5250D01*
Y5500D01*
X1098Y4730D02*
X1368D01*
X828D02*
X1098D01*
X828Y4410D02*
X1098D01*
X1368D01*
X4613D02*
X4863D01*
X5113D01*
X4863Y4730D02*
X5113D01*
X4613D02*
X4863D01*
X4833Y5005D02*
Y5255D01*
Y5505D01*
X5153Y5255D02*
Y5505D01*
Y5005D02*
Y5255D01*
D16*
X1739Y3535D02*
X1489D01*
Y3410D01*
X1531Y3368D01*
X1614D01*
X1656Y3410D01*
Y3535D01*
Y3452D02*
X1739Y3368D01*
X1489Y3119D02*
X1531Y3202D01*
X1614Y3285D01*
X1697D01*
X1739Y3243D01*
Y3160D01*
X1697Y3119D01*
X1656D01*
X1614Y3160D01*
Y3285D01*
X504Y4089D02*
X546Y4131D01*
X629D01*
X671Y4089D01*
Y3923D01*
X629Y3881D01*
X546D01*
X504Y3923D01*
X254Y3881D02*
X421D01*
X254Y4048D01*
Y4089D01*
X296Y4131D01*
X379D01*
X421Y4089D01*
X504Y4660D02*
X546Y4702D01*
X629D01*
X671Y4660D01*
Y4493D01*
X629Y4452D01*
X546D01*
X504Y4493D01*
X296Y4452D02*
Y4702D01*
X421Y4577D01*
X254D01*
X448Y5239D02*
X407Y5280D01*
Y5363D01*
X448Y5405D01*
X615D01*
X656Y5363D01*
Y5280D01*
X615Y5239D01*
X407Y5155D02*
Y4989D01*
X448D01*
X615Y5155D01*
X656D01*
Y6783D02*
X407D01*
Y6658D01*
X448Y6616D01*
X531D01*
X573Y6658D01*
Y6783D01*
Y6700D02*
X656Y6616D01*
X407Y6367D02*
Y6533D01*
X531D01*
X490Y6450D01*
Y6408D01*
X531Y6367D01*
X615D01*
X656Y6408D01*
Y6492D01*
X615Y6533D01*
X5509Y6793D02*
X5259D01*
Y6668D01*
X5301Y6626D01*
X5384D01*
X5426Y6668D01*
Y6793D01*
Y6710D02*
X5509Y6626D01*
X5301Y6543D02*
X5259Y6501D01*
Y6418D01*
X5301Y6376D01*
X5342D01*
X5384Y6418D01*
Y6460D01*
Y6418D01*
X5426Y6376D01*
X5467D01*
X5509Y6418D01*
Y6501D01*
X5467Y6543D01*
X3180Y4659D02*
Y4451D01*
X3138Y4410D01*
X3055D01*
X3013Y4451D01*
Y4659D01*
X2930Y4410D02*
X2847D01*
X2888D01*
Y4659D01*
X2930Y4618D01*
X5512Y5443D02*
X5262D01*
Y5318D01*
X5304Y5276D01*
X5387D01*
X5429Y5318D01*
Y5443D01*
Y5360D02*
X5512Y5276D01*
Y5068D02*
X5262D01*
X5387Y5193D01*
Y5026D01*
X3003Y12218D02*
X3086D01*
X3044D01*
Y12010D01*
X3086Y11968D01*
X3128D01*
X3169Y12010D01*
X2794Y11968D02*
Y12218D01*
X2919Y12093D01*
X2753D01*
X4863Y4263D02*
X4905Y4305D01*
X4988D01*
X5030Y4263D01*
Y4097D01*
X4988Y4055D01*
X4905D01*
X4863Y4097D01*
X4780Y4055D02*
X4696D01*
X4738D01*
Y4305D01*
X4780Y4263D01*
D38*
X1848Y4751D02*
G03*
X1848Y4751I-39J0D01*
G01*
D39*
X2281Y8630D02*
X3619D01*
Y4810D02*
Y8630D01*
X2556Y4810D02*
X3619D01*
X2281Y5085D02*
Y8630D01*
Y5085D02*
X2556Y4810D01*
D40*
X5020Y11169D02*
Y11366D01*
X4823Y11267D02*
X5020Y11169D01*
X4823Y11267D02*
X5020Y11366D01*
M02*
