G04*
G04 #@! TF.GenerationSoftware,Altium Limited,Altium Designer,23.0.1 (38)*
G04*
G04 Layer_Color=128*
%FSLAX24Y24*%
%MOIN*%
G70*
G04*
G04 #@! TF.SameCoordinates,9BD69B8C-B535-481D-991D-221D870DF5CB*
G04*
G04*
G04 #@! TF.FilePolarity,Positive*
G04*
G01*
G75*
%ADD42C,0.0020*%
D42*
X1613Y1960D02*
X2007D01*
X1810Y1763D02*
Y2157D01*
X613Y1960D02*
X1007D01*
X810Y1763D02*
Y2157D01*
X2883Y1960D02*
X3277D01*
X3080Y1763D02*
Y2157D01*
X2883Y960D02*
X3277D01*
X3080Y763D02*
Y1157D01*
X2883Y2960D02*
X3277D01*
X3080Y2763D02*
Y3157D01*
X2883Y3960D02*
X3277D01*
X3080Y3763D02*
Y4157D01*
X603Y960D02*
X997D01*
X800Y763D02*
Y1157D01*
X1603Y960D02*
X1997D01*
X1800Y763D02*
Y1157D01*
X3710Y4410D02*
X3810D01*
X3760Y4360D02*
Y4460D01*
X3867Y4754D02*
X3967D01*
X3917Y4704D02*
Y4804D01*
X2925Y6090D02*
X3025D01*
X2975Y6040D02*
Y6140D01*
X870Y7090D02*
X970D01*
X920Y7040D02*
Y7140D01*
X873Y4828D02*
X973D01*
X923Y4778D02*
Y4878D01*
X836Y4292D02*
X936D01*
X886Y4242D02*
Y4342D01*
X873Y6090D02*
X973D01*
X923Y6040D02*
Y6140D01*
X4943Y6090D02*
X5043D01*
X4993Y6040D02*
Y6140D01*
M02*
