G04*
G04 #@! TF.GenerationSoftware,Altium Limited,Altium Designer,23.0.1 (38)*
G04*
G04 Layer_Color=8388736*
%FSLAX24Y24*%
%MOIN*%
G70*
G04*
G04 #@! TF.SameCoordinates,9BD69B8C-B535-481D-991D-221D870DF5CB*
G04*
G04*
G04 #@! TF.FilePolarity,Negative*
G04*
G01*
G75*
%ADD12C,0.0100*%
%ADD19C,0.0118*%
%ADD20C,0.0089*%
%ADD21R,0.0316X0.0394*%
%ADD22R,0.0276X0.0276*%
%ADD23C,0.0650*%
%ADD24C,0.0665*%
G36*
X2668Y11583D02*
X2670Y11581D01*
X2675Y11580D01*
X2677Y11580D01*
X2682Y11578D01*
X2685Y11573D01*
X2686Y11568D01*
X2685Y11564D01*
X2681Y11557D01*
X2682Y11554D01*
X2686Y11543D01*
X2685Y11539D01*
X2681Y11534D01*
X2682Y11529D01*
X2687Y11519D01*
X2690Y11512D01*
X2692Y11510D01*
X2695Y11502D01*
X2694Y11498D01*
X2691Y11493D01*
X2690Y11491D01*
X2692Y11483D01*
X2695Y11480D01*
X2699Y11469D01*
X2698Y11465D01*
X2695Y11460D01*
X2694Y11458D01*
X2708Y11431D01*
X2708Y11426D01*
X2707Y11424D01*
X2706Y11422D01*
X2705Y11422D01*
X2703Y11417D01*
X2704Y11413D01*
X2712Y11398D01*
X2715Y11390D01*
X2721Y11379D01*
X2720Y11373D01*
X2717Y11368D01*
X2716Y11366D01*
X2718Y11359D01*
X2721Y11356D01*
X2725Y11350D01*
X2725Y11346D01*
X2725Y11344D01*
X2724Y11340D01*
X2723Y11339D01*
X2720Y11334D01*
X2721Y11330D01*
X2727Y11319D01*
X2729Y11314D01*
X2732Y11311D01*
X2735Y11303D01*
X2733Y11298D01*
X2729Y11293D01*
X2731Y11287D01*
X2736Y11278D01*
X2739Y11270D01*
X2737Y11267D01*
X2736Y11265D01*
X2734Y11261D01*
X2735Y11256D01*
X2747Y11232D01*
X2747Y11228D01*
X2746Y11224D01*
X2743Y11219D01*
X2743Y11214D01*
X2752Y11199D01*
X2757Y11187D01*
X2755Y11183D01*
X2752Y11178D01*
X2751Y11176D01*
X2769Y11141D01*
X2770Y11136D01*
X2768Y11132D01*
X2765Y11127D01*
X2766Y11122D01*
X2770Y11116D01*
X2769Y11110D01*
X2765Y11104D01*
X2764Y11102D01*
X2767Y11095D01*
X2769Y11092D01*
X2779Y11071D01*
X2777Y11067D01*
X2771Y11064D01*
X2755Y11056D01*
X2753Y11054D01*
X2747Y11053D01*
X2744Y11053D01*
X2737Y11058D01*
X2731Y11056D01*
X2729Y11054D01*
X2723Y11053D01*
X2720Y11054D01*
X2714Y11057D01*
X2712Y11058D01*
X2705Y11056D01*
X2702Y11053D01*
X2690Y11048D01*
X2687Y11049D01*
X2683Y11055D01*
X2679Y11066D01*
X2675Y11073D01*
X2674Y11076D01*
X2670Y11082D01*
X2668Y11090D01*
X2669Y11095D01*
X2672Y11099D01*
X2671Y11107D01*
X2667Y11113D01*
X2664Y11117D01*
X2664Y11120D01*
X2663Y11124D01*
X2665Y11126D01*
X2668Y11130D01*
X2668Y11133D01*
X2668Y11136D01*
X2655Y11162D01*
X2655Y11166D01*
X2656Y11168D01*
X2659Y11174D01*
X2658Y11180D01*
X2651Y11192D01*
X2650Y11197D01*
X2651Y11199D01*
X2654Y11204D01*
X2655Y11208D01*
X2642Y11234D01*
X2642Y11239D01*
X2643Y11242D01*
X2644Y11244D01*
X2646Y11248D01*
X2644Y11255D01*
X2638Y11265D01*
X2637Y11270D01*
X2638Y11273D01*
X2642Y11278D01*
X2642Y11283D01*
X2638Y11285D01*
X2636Y11285D01*
X2630Y11286D01*
X2628Y11287D01*
X2624Y11296D01*
X2620Y11298D01*
X2617Y11299D01*
X2615Y11299D01*
X2609Y11301D01*
X2607Y11303D01*
X2604Y11304D01*
X2602Y11304D01*
X2596Y11306D01*
X2594Y11307D01*
X2590Y11309D01*
X2588Y11309D01*
X2581Y11311D01*
X2579Y11312D01*
X2577Y11313D01*
X2575Y11313D01*
X2567Y11316D01*
X2565Y11317D01*
X2563Y11318D01*
X2560Y11318D01*
X2554Y11320D01*
X2552Y11322D01*
X2550Y11322D01*
X2547Y11322D01*
X2545Y11323D01*
X2543Y11323D01*
X2541Y11325D01*
X2534Y11328D01*
X2514Y11317D01*
X2512Y11312D01*
X2512Y11306D01*
X2500Y11299D01*
X2498Y11294D01*
X2498Y11288D01*
X2494Y11284D01*
X2478Y11278D01*
X2475Y11271D01*
X2474Y11265D01*
X2462Y11258D01*
X2461Y11253D01*
X2466Y11240D01*
X2465Y11237D01*
X2461Y11231D01*
X2461Y11229D01*
X2475Y11202D01*
X2475Y11198D01*
X2474Y11196D01*
X2471Y11190D01*
X2470Y11188D01*
X2471Y11184D01*
X2478Y11172D01*
X2484Y11157D01*
X2483Y11155D01*
X2479Y11148D01*
X2480Y11140D01*
X2483Y11137D01*
X2488Y11130D01*
X2487Y11122D01*
X2484Y11117D01*
X2483Y11115D01*
X2484Y11110D01*
X2490Y11099D01*
X2492Y11095D01*
X2494Y11092D01*
X2497Y11083D01*
X2496Y11081D01*
X2492Y11075D01*
X2493Y11067D01*
X2497Y11060D01*
X2501Y11050D01*
X2500Y11048D01*
X2497Y11043D01*
X2496Y11039D01*
X2505Y11022D01*
X2505Y11018D01*
X2504Y11014D01*
X2473Y11000D01*
X2470Y11001D01*
X2465Y11004D01*
X2462Y11005D01*
X2444Y10996D01*
X2440Y10996D01*
X2438Y10997D01*
X2432Y11000D01*
X2430Y11001D01*
X2417Y10996D01*
X2414Y10997D01*
X2404Y11015D01*
X2404Y11020D01*
X2404Y11022D01*
X2406Y11024D01*
X2409Y11029D01*
X2408Y11033D01*
X2399Y11048D01*
X2400Y11054D01*
X2402Y11056D01*
X2405Y11062D01*
X2402Y11068D01*
X2390Y11092D01*
X2392Y11097D01*
X2395Y11102D01*
X2394Y11107D01*
X2386Y11123D01*
X2388Y11130D01*
X2391Y11135D01*
X2390Y11141D01*
X2383Y11153D01*
X2373Y11177D01*
X2373Y11179D01*
X2378Y11185D01*
X2377Y11190D01*
X2364Y11214D01*
X2364Y11218D01*
X2366Y11222D01*
X2367Y11224D01*
X2369Y11228D01*
X2368Y11232D01*
X2359Y11248D01*
X2360Y11253D01*
X2365Y11259D01*
X2364Y11263D01*
X2363Y11267D01*
X2361Y11269D01*
X2351Y11292D01*
X2352Y11295D01*
X2354Y11297D01*
X2356Y11301D01*
X2355Y11306D01*
X2347Y11322D01*
X2347Y11326D01*
X2348Y11328D01*
X2351Y11333D01*
X2351Y11339D01*
X2343Y11354D01*
X2333Y11375D01*
X2334Y11379D01*
X2338Y11384D01*
X2339Y11386D01*
X2329Y11404D01*
X2329Y11408D01*
X2330Y11412D01*
X2334Y11417D01*
X2333Y11422D01*
X2327Y11434D01*
X2326Y11437D01*
X2323Y11440D01*
X2320Y11449D01*
X2321Y11453D01*
X2325Y11458D01*
X2325Y11460D01*
X2323Y11466D01*
X2313Y11484D01*
X2312Y11485D01*
X2312Y11488D01*
X2312Y11494D01*
X2315Y11499D01*
X2317Y11502D01*
X2317Y11505D01*
X2318Y11510D01*
X2324Y11513D01*
X2329Y11514D01*
X2333Y11513D01*
X2335Y11511D01*
X2338Y11510D01*
X2340Y11510D01*
X2347Y11508D01*
X2349Y11506D01*
X2356Y11504D01*
X2358Y11504D01*
X2362Y11503D01*
X2369Y11491D01*
X2371Y11490D01*
X2375Y11491D01*
X2386Y11495D01*
X2389Y11495D01*
X2396Y11482D01*
X2401Y11481D01*
X2403Y11481D01*
X2408Y11479D01*
X2410Y11478D01*
X2414Y11476D01*
X2416Y11476D01*
X2423Y11474D01*
X2425Y11473D01*
X2428Y11471D01*
X2431Y11471D01*
X2436Y11470D01*
X2437Y11468D01*
X2441Y11467D01*
X2443Y11467D01*
X2450Y11465D01*
X2452Y11463D01*
X2455Y11462D01*
X2458Y11462D01*
X2464Y11460D01*
X2466Y11458D01*
X2470Y11457D01*
X2472Y11457D01*
X2477Y11455D01*
X2479Y11454D01*
X2483Y11452D01*
X2485Y11452D01*
X2492Y11450D01*
X2494Y11449D01*
X2497Y11448D01*
X2500Y11448D01*
X2505Y11446D01*
X2507Y11444D01*
X2512Y11443D01*
X2527Y11451D01*
X2540Y11456D01*
X2542Y11462D01*
X2543Y11468D01*
X2544Y11470D01*
X2556Y11477D01*
X2557Y11487D01*
X2560Y11490D01*
X2577Y11497D01*
X2579Y11501D01*
X2579Y11504D01*
X2581Y11511D01*
X2587Y11515D01*
X2610Y11525D01*
X2612Y11528D01*
X2612Y11530D01*
X2613Y11537D01*
X2616Y11540D01*
X2632Y11547D01*
X2635Y11551D01*
X2636Y11553D01*
X2635Y11559D01*
X2639Y11562D01*
X2649Y11568D01*
X2650Y11576D01*
X2650Y11578D01*
X2656Y11584D01*
X2662Y11585D01*
X2668Y11583D01*
D02*
G37*
G36*
X3944Y11341D02*
X3947Y11334D01*
X3950Y11324D01*
X3952Y11321D01*
X3971Y11267D01*
X3974Y11259D01*
X3973Y11254D01*
X3968Y11248D01*
X3969Y11244D01*
X3974Y11242D01*
X3980Y11241D01*
X3982Y11238D01*
X3984Y11231D01*
X3987Y11228D01*
X3991Y11228D01*
X3998Y11231D01*
X4002Y11231D01*
X4004Y11230D01*
X4008Y11226D01*
X4010Y11226D01*
X4014Y11226D01*
X4026Y11231D01*
X4103Y11258D01*
X4106Y11257D01*
X4110Y11251D01*
X4111Y11244D01*
X4130Y11193D01*
X4128Y11187D01*
X4125Y11183D01*
X4125Y11181D01*
X4122Y11174D01*
X4057Y11152D01*
X4053Y11154D01*
X4049Y11157D01*
X4045Y11157D01*
X4028Y11149D01*
X4025Y11145D01*
X4025Y11142D01*
X4023Y11138D01*
X4022Y11136D01*
X4020Y11133D01*
X4021Y11129D01*
X4028Y11112D01*
X4052Y11043D01*
X4056Y11034D01*
X4055Y11030D01*
X4050Y11024D01*
X4051Y11019D01*
X4055Y11017D01*
X4061Y11016D01*
X4063Y11015D01*
X4068Y11000D01*
X4070Y10996D01*
X4070Y10993D01*
X4076Y10981D01*
X4074Y10975D01*
X4071Y10970D01*
X4070Y10968D01*
X4069Y10963D01*
X4063Y10959D01*
X4059Y10958D01*
X3904Y10901D01*
X3902Y10898D01*
X3901Y10892D01*
X3897Y10887D01*
X3896Y10885D01*
X3898Y10879D01*
X3926Y10802D01*
X3924Y10797D01*
X3922Y10795D01*
X3920Y10791D01*
X3920Y10788D01*
X3918Y10785D01*
X3915Y10783D01*
X3903Y10779D01*
X3855Y10762D01*
X3852Y10762D01*
X3850Y10763D01*
X3848Y10767D01*
X3846Y10773D01*
X3842Y10776D01*
X3835Y10777D01*
X3833Y10781D01*
X3835Y10785D01*
X3838Y10790D01*
X3839Y10792D01*
X3833Y10807D01*
X3816Y10856D01*
X3814Y10859D01*
X3810Y10871D01*
X3806Y10875D01*
X3801Y10875D01*
X3784Y10868D01*
X3768Y10862D01*
X3759Y10859D01*
X3753Y10861D01*
X3748Y10865D01*
X3744Y10864D01*
X3741Y10864D01*
X3739Y10862D01*
X3708Y10852D01*
X3705Y10853D01*
X3678Y10929D01*
X3679Y10931D01*
X3685Y10934D01*
X3690Y10936D01*
X3698Y10939D01*
X3704Y10937D01*
X3708Y10934D01*
X3710Y10933D01*
X3716Y10935D01*
X3759Y10951D01*
X3762Y10951D01*
X3767Y10955D01*
X3769Y10964D01*
X3773Y10969D01*
X3773Y10973D01*
X3768Y10987D01*
X3722Y11115D01*
X3720Y11117D01*
X3718Y11124D01*
X3718Y11125D01*
X3720Y11129D01*
X3722Y11131D01*
X3724Y11135D01*
X3724Y11138D01*
X3726Y11142D01*
X3864Y11191D01*
X3870Y11187D01*
X3873Y11185D01*
X3880Y11187D01*
X3883Y11189D01*
X3885Y11193D01*
X3885Y11195D01*
X3888Y11201D01*
X3889Y11203D01*
X3891Y11206D01*
X3891Y11208D01*
X3894Y11214D01*
X3895Y11215D01*
X3897Y11219D01*
X3895Y11226D01*
X3893Y11228D01*
X3864Y11312D01*
X3865Y11314D01*
X3869Y11318D01*
X3870Y11321D01*
X3870Y11323D01*
X3872Y11328D01*
X3878Y11331D01*
X3882Y11331D01*
X3886Y11329D01*
X3888Y11328D01*
X3891Y11325D01*
X3895Y11326D01*
X3936Y11341D01*
X3940Y11341D01*
X3944Y11341D01*
D02*
G37*
G36*
X3244Y11559D02*
X3249Y11555D01*
X3257Y11554D01*
X3261Y11549D01*
X3266Y11533D01*
X3272Y11530D01*
X3274Y11530D01*
X3277Y11529D01*
X3279Y11528D01*
X3286Y11524D01*
X3288Y11524D01*
X3293Y11523D01*
X3295Y11520D01*
X3301Y11503D01*
X3308Y11500D01*
X3310Y11499D01*
X3315Y11497D01*
X3317Y11496D01*
X3322Y11494D01*
X3327Y11493D01*
X3330Y11490D01*
X3335Y11480D01*
X3338Y11479D01*
X3345Y11478D01*
X3348Y11474D01*
X3354Y11458D01*
X3359Y11454D01*
X3361Y11454D01*
X3364Y11454D01*
X3366Y11452D01*
X3373Y11449D01*
X3379Y11448D01*
X3383Y11444D01*
X3385Y11437D01*
X3388Y11434D01*
X3390Y11433D01*
X3396Y11433D01*
X3398Y11432D01*
X3404Y11419D01*
X3414Y11417D01*
X3417Y11414D01*
X3428Y11385D01*
X3427Y11383D01*
X3426Y11381D01*
X3423Y11375D01*
X3422Y11373D01*
X3421Y11367D01*
X3408Y11361D01*
X3407Y11359D01*
X3406Y11352D01*
X3406Y11350D01*
X3404Y11349D01*
X3401Y11342D01*
X3401Y11340D01*
X3400Y11336D01*
X3393Y11332D01*
X3390Y11332D01*
X3372Y11324D01*
X3368Y11324D01*
X3365Y11325D01*
X3364Y11327D01*
X3358Y11330D01*
X3352Y11331D01*
X3349Y11334D01*
X3347Y11341D01*
X3344Y11344D01*
X3341Y11345D01*
X3335Y11346D01*
X3333Y11347D01*
X3329Y11353D01*
X3327Y11360D01*
X3323Y11368D01*
X3320Y11369D01*
X3313Y11370D01*
X3307Y11375D01*
X3300Y11374D01*
X3298Y11372D01*
X3283Y11365D01*
X3282Y11363D01*
X3283Y11358D01*
X3287Y11352D01*
X3285Y11344D01*
X3281Y11339D01*
X3285Y11326D01*
X3283Y11322D01*
X3280Y11317D01*
X3279Y11315D01*
X3283Y11301D01*
X3279Y11295D01*
X3277Y11291D01*
X3277Y11288D01*
X3275Y11285D01*
X3274Y11283D01*
X3272Y11281D01*
X3273Y11276D01*
X3276Y11266D01*
X3274Y11262D01*
X3271Y11257D01*
X3269Y11250D01*
X3268Y11248D01*
X3265Y11242D01*
X3269Y11229D01*
X3268Y11227D01*
X3263Y11221D01*
X3264Y11216D01*
X3267Y11206D01*
X3265Y11203D01*
X3264Y11201D01*
X3261Y11194D01*
X3261Y11192D01*
X3259Y11189D01*
X3256Y11184D01*
X3260Y11170D01*
X3259Y11167D01*
X3257Y11166D01*
X3254Y11160D01*
X3254Y11158D01*
X3254Y11155D01*
X3252Y11153D01*
X3249Y11146D01*
X3253Y11133D01*
X3252Y11131D01*
X3247Y11125D01*
X3248Y11120D01*
X3251Y11110D01*
X3249Y11106D01*
X3246Y11102D01*
X3246Y11100D01*
X3244Y11094D01*
X3240Y11089D01*
X3239Y11087D01*
X3244Y11073D01*
X3243Y11071D01*
X3239Y11066D01*
X3238Y11064D01*
X3238Y11062D01*
X3236Y11055D01*
X3234Y11053D01*
X3233Y11050D01*
X3236Y11038D01*
X3234Y11033D01*
X3228Y11029D01*
X3224Y11029D01*
X3220Y11030D01*
X3215Y11033D01*
X3213Y11034D01*
X3210Y11034D01*
X3208Y11035D01*
X3206Y11035D01*
X3201Y11039D01*
X3199Y11040D01*
X3194Y11039D01*
X3191Y11037D01*
X3185Y11036D01*
X3183Y11036D01*
X3176Y11042D01*
X3163Y11037D01*
X3159Y11039D01*
X3154Y11043D01*
X3147Y11044D01*
X3145Y11045D01*
X3137Y11067D01*
X3138Y11071D01*
X3140Y11073D01*
X3142Y11075D01*
X3142Y11078D01*
X3144Y11085D01*
X3148Y11090D01*
X3144Y11102D01*
X3145Y11106D01*
X3146Y11108D01*
X3149Y11113D01*
X3149Y11116D01*
X3152Y11122D01*
X3154Y11124D01*
X3155Y11127D01*
X3154Y11132D01*
X3152Y11135D01*
X3151Y11141D01*
X3152Y11143D01*
X3157Y11149D01*
X3156Y11153D01*
X3153Y11164D01*
X3154Y11167D01*
X3158Y11172D01*
X3160Y11180D01*
X3163Y11185D01*
X3164Y11187D01*
X3160Y11200D01*
X3161Y11202D01*
X3164Y11207D01*
X3166Y11211D01*
X3166Y11213D01*
X3168Y11218D01*
X3170Y11220D01*
X3171Y11224D01*
X3170Y11228D01*
X3168Y11230D01*
X3167Y11236D01*
X3169Y11241D01*
X3173Y11246D01*
X3169Y11259D01*
X3170Y11262D01*
X3171Y11264D01*
X3174Y11269D01*
X3174Y11272D01*
X3177Y11278D01*
X3179Y11280D01*
X3180Y11283D01*
X3176Y11297D01*
X3180Y11303D01*
X3182Y11307D01*
X3182Y11310D01*
X3183Y11313D01*
X3185Y11315D01*
X3187Y11319D01*
X3186Y11324D01*
X3184Y11327D01*
X3183Y11332D01*
X3185Y11336D01*
X3188Y11341D01*
X3190Y11348D01*
X3191Y11350D01*
X3194Y11355D01*
X3194Y11360D01*
X3191Y11366D01*
X3191Y11370D01*
X3196Y11377D01*
X3195Y11381D01*
X3192Y11392D01*
X3194Y11395D01*
X3195Y11397D01*
X3198Y11403D01*
X3198Y11406D01*
X3199Y11409D01*
X3203Y11414D01*
X3202Y11420D01*
X3200Y11423D01*
X3199Y11428D01*
X3200Y11431D01*
X3202Y11432D01*
X3205Y11439D01*
X3205Y11442D01*
X3206Y11445D01*
X3210Y11450D01*
X3210Y11452D01*
X3210Y11456D01*
X3207Y11462D01*
X3207Y11466D01*
X3207Y11467D01*
X3208Y11468D01*
X3213Y11475D01*
X3208Y11488D01*
X3210Y11492D01*
X3213Y11497D01*
X3215Y11504D01*
X3216Y11506D01*
X3219Y11511D01*
X3218Y11517D01*
X3216Y11519D01*
X3215Y11525D01*
X3216Y11527D01*
X3221Y11533D01*
X3220Y11537D01*
X3217Y11549D01*
X3218Y11551D01*
X3224Y11555D01*
X3230Y11556D01*
X3238Y11560D01*
X3244Y11559D01*
D02*
G37*
G36*
X1776Y11274D02*
X1777Y11270D01*
X1780Y11268D01*
X1786Y11267D01*
X1789Y11268D01*
X1798Y11270D01*
X1804Y11267D01*
X1805Y11265D01*
X1810Y11259D01*
X1815Y11258D01*
X1832Y11260D01*
X1837Y11256D01*
X1841Y11251D01*
X1842Y11249D01*
X1849Y11249D01*
X1852Y11250D01*
X1877Y11249D01*
X1879Y11248D01*
X1883Y11241D01*
X1887Y11240D01*
X1905Y11241D01*
X1909Y11240D01*
X1911Y11238D01*
X1914Y11233D01*
X1916Y11231D01*
X1920Y11230D01*
X1934Y11232D01*
X1960Y11232D01*
X1963Y11229D01*
X1964Y11227D01*
X1967Y11223D01*
X1972Y11222D01*
X1975Y11221D01*
X1978Y11223D01*
X1988Y11224D01*
X1993Y11221D01*
X1995Y11219D01*
X1996Y11217D01*
X1999Y11213D01*
X2004Y11213D01*
X2017Y11214D01*
X2022Y11213D01*
X2025Y11214D01*
X2034Y11214D01*
X2037Y11212D01*
X2038Y11208D01*
X2038Y11175D01*
X2036Y11173D01*
X2031Y11170D01*
X2029Y11167D01*
X2030Y11146D01*
X2027Y11142D01*
X2021Y11138D01*
X2020Y11136D01*
X2019Y11122D01*
X2018Y11121D01*
X2013Y11119D01*
X1971Y11119D01*
X1968Y11122D01*
X1965Y11127D01*
X1963Y11128D01*
X1954Y11128D01*
X1949Y11128D01*
X1944Y11136D01*
X1939Y11138D01*
X1921Y11137D01*
X1902Y11137D01*
X1898Y11135D01*
X1895Y11132D01*
X1894Y11128D01*
X1895Y11119D01*
X1898Y11116D01*
X1904Y11113D01*
X1905Y11112D01*
X1907Y11098D01*
X1909Y11096D01*
X1914Y11093D01*
X1917Y11090D01*
X1918Y11088D01*
X1922Y11085D01*
X1924Y11084D01*
X1927Y11081D01*
X1928Y11077D01*
X1927Y11073D01*
X1929Y11068D01*
X1933Y11064D01*
X1938Y11061D01*
X1940Y11047D01*
X1942Y11045D01*
X1947Y11042D01*
X1949Y11040D01*
X1950Y11036D01*
X1950Y11029D01*
X1952Y11025D01*
X1960Y11021D01*
X1962Y11007D01*
X1965Y11003D01*
X1971Y11000D01*
X1972Y10999D01*
X1974Y10985D01*
X1976Y10983D01*
X1983Y10979D01*
X1984Y10974D01*
X1983Y10971D01*
X1984Y10965D01*
X1988Y10962D01*
X1994Y10959D01*
X1995Y10945D01*
X1998Y10942D01*
X2003Y10939D01*
X2005Y10938D01*
X2006Y10934D01*
X2005Y10927D01*
X2010Y10921D01*
X2013Y10920D01*
X2017Y10916D01*
X2018Y10914D01*
X2022Y10911D01*
X2024Y10910D01*
X2027Y10908D01*
X2028Y10904D01*
X2028Y10895D01*
X2028Y10894D01*
X2027Y10891D01*
X2029Y10883D01*
X2031Y10881D01*
X2038Y10878D01*
X2040Y10873D01*
X2039Y10868D01*
X2040Y10863D01*
X2043Y10860D01*
X2045Y10859D01*
X2048Y10858D01*
X2049Y10856D01*
X2051Y10853D01*
X2053Y10851D01*
X2055Y10849D01*
X2058Y10848D01*
X2062Y10844D01*
X2061Y10832D01*
X2059Y10830D01*
X2057Y10829D01*
X2052Y10825D01*
X2051Y10823D01*
X2049Y10819D01*
X2047Y10818D01*
X2042Y10814D01*
X2039Y10808D01*
X2037Y10807D01*
X2023Y10805D01*
X2022Y10803D01*
X2018Y10796D01*
X2014Y10795D01*
X2006Y10796D01*
X2000Y10791D01*
X1998Y10786D01*
X1992Y10783D01*
X1984Y10784D01*
X1981Y10787D01*
X1980Y10789D01*
X1976Y10794D01*
X1970Y10797D01*
X1969Y10798D01*
X1967Y10812D01*
X1965Y10814D01*
X1958Y10818D01*
X1957Y10824D01*
X1958Y10827D01*
X1956Y10832D01*
X1953Y10835D01*
X1947Y10838D01*
X1945Y10852D01*
X1943Y10855D01*
X1938Y10858D01*
X1935Y10860D01*
X1935Y10871D01*
X1932Y10874D01*
X1930Y10876D01*
X1928Y10877D01*
X1924Y10881D01*
X1923Y10883D01*
X1919Y10886D01*
X1914Y10889D01*
X1913Y10893D01*
X1913Y10911D01*
X1911Y10915D01*
X1908Y10916D01*
X1902Y10920D01*
X1901Y10927D01*
X1902Y10930D01*
X1901Y10934D01*
X1898Y10937D01*
X1896Y10938D01*
X1892Y10940D01*
X1891Y10943D01*
X1887Y10947D01*
X1881Y10950D01*
X1879Y10955D01*
X1880Y10962D01*
X1878Y10966D01*
X1876Y10968D01*
X1871Y10971D01*
X1869Y10972D01*
X1867Y10986D01*
X1858Y10991D01*
X1857Y10996D01*
X1856Y11007D01*
X1853Y11009D01*
X1850Y11010D01*
X1847Y11013D01*
X1846Y11017D01*
X1846Y11022D01*
X1845Y11027D01*
X1843Y11028D01*
X1836Y11032D01*
X1835Y11036D01*
X1834Y11047D01*
X1831Y11050D01*
X1825Y11053D01*
X1823Y11058D01*
X1824Y11075D01*
X1821Y11080D01*
X1813Y11082D01*
X1809Y11081D01*
X1798Y11081D01*
X1792Y11076D01*
X1791Y11074D01*
X1787Y11069D01*
X1784Y11068D01*
X1782Y11065D01*
X1781Y11060D01*
X1783Y11021D01*
X1780Y11018D01*
X1774Y11014D01*
X1773Y11009D01*
X1774Y11002D01*
X1772Y10998D01*
X1771Y10997D01*
X1765Y10994D01*
X1764Y10989D01*
X1763Y10977D01*
X1762Y10976D01*
X1757Y10974D01*
X1735Y10975D01*
X1730Y10983D01*
X1725Y10984D01*
X1698Y10983D01*
X1694Y10984D01*
X1691Y10987D01*
X1690Y10989D01*
X1685Y10994D01*
X1683Y10995D01*
X1680Y10997D01*
X1679Y10999D01*
X1677Y11002D01*
X1675Y11003D01*
X1670Y11007D01*
X1668Y11011D01*
X1669Y11020D01*
X1673Y11024D01*
X1678Y11027D01*
X1679Y11031D01*
X1679Y11042D01*
X1682Y11045D01*
X1687Y11048D01*
X1689Y11053D01*
X1687Y11070D01*
X1692Y11077D01*
X1697Y11080D01*
X1698Y11094D01*
X1701Y11098D01*
X1706Y11101D01*
X1708Y11103D01*
X1706Y11123D01*
X1708Y11127D01*
X1710Y11129D01*
X1716Y11133D01*
X1717Y11139D01*
X1716Y11142D01*
X1717Y11148D01*
X1720Y11150D01*
X1725Y11154D01*
X1726Y11156D01*
X1725Y11184D01*
X1726Y11189D01*
X1728Y11192D01*
X1735Y11196D01*
X1736Y11200D01*
X1734Y11208D01*
X1739Y11214D01*
X1744Y11218D01*
X1746Y11224D01*
X1744Y11238D01*
X1745Y11242D01*
X1749Y11246D01*
X1754Y11249D01*
X1755Y11253D01*
X1755Y11264D01*
X1757Y11266D01*
X1759Y11267D01*
X1763Y11271D01*
X1766Y11277D01*
X1771Y11278D01*
X1776Y11274D01*
D02*
G37*
G36*
X1357Y10858D02*
X1360Y10855D01*
X1360Y10847D01*
X1358Y10840D01*
X1357Y10821D01*
X1359Y10818D01*
X1364Y10814D01*
X1365Y10812D01*
X1359Y10761D01*
X1360Y10758D01*
X1362Y10755D01*
X1367Y10751D01*
X1368Y10746D01*
X1364Y10722D01*
X1363Y10708D01*
X1362Y10705D01*
X1362Y10696D01*
X1364Y10693D01*
X1366Y10691D01*
X1371Y10687D01*
X1370Y10680D01*
X1365Y10644D01*
X1370Y10639D01*
X1372Y10637D01*
X1375Y10633D01*
X1376Y10631D01*
X1378Y10628D01*
X1380Y10627D01*
X1383Y10623D01*
X1384Y10620D01*
X1387Y10616D01*
X1389Y10615D01*
X1393Y10611D01*
X1395Y10605D01*
X1399Y10604D01*
X1406Y10603D01*
X1409Y10601D01*
X1412Y10598D01*
X1414Y10593D01*
X1427Y10590D01*
X1430Y10588D01*
X1431Y10585D01*
X1434Y10580D01*
X1436Y10579D01*
X1440Y10573D01*
X1441Y10571D01*
X1443Y10568D01*
X1447Y10566D01*
X1452Y10567D01*
X1456Y10565D01*
X1459Y10561D01*
X1460Y10559D01*
X1463Y10555D01*
X1465Y10553D01*
X1468Y10550D01*
X1468Y10548D01*
X1471Y10544D01*
X1475Y10543D01*
X1482Y10542D01*
X1485Y10540D01*
X1487Y10538D01*
X1489Y10533D01*
X1491Y10531D01*
X1495Y10528D01*
X1496Y10525D01*
X1500Y10519D01*
X1514Y10516D01*
X1515Y10514D01*
X1518Y10507D01*
X1522Y10505D01*
X1530Y10505D01*
X1534Y10501D01*
X1535Y10499D01*
X1537Y10495D01*
X1539Y10493D01*
X1543Y10489D01*
X1546Y10483D01*
X1546Y10483D01*
X1547Y10483D01*
X1551Y10481D01*
X1558Y10481D01*
X1561Y10479D01*
X1562Y10477D01*
X1565Y10471D01*
X1567Y10468D01*
X1569Y10467D01*
X1572Y10464D01*
X1572Y10460D01*
X1570Y10452D01*
X1566Y10449D01*
X1564Y10448D01*
X1558Y10444D01*
X1557Y10442D01*
X1554Y10440D01*
X1552Y10439D01*
X1548Y10436D01*
X1546Y10434D01*
X1542Y10430D01*
X1537Y10428D01*
X1535Y10424D01*
X1536Y10416D01*
X1531Y10412D01*
X1529Y10411D01*
X1525Y10409D01*
X1524Y10407D01*
X1519Y10403D01*
X1517Y10402D01*
X1513Y10400D01*
X1512Y10398D01*
X1507Y10393D01*
X1500Y10393D01*
X1496Y10395D01*
X1491Y10400D01*
X1491Y10402D01*
X1488Y10405D01*
X1486Y10407D01*
X1482Y10412D01*
X1481Y10414D01*
X1479Y10417D01*
X1477Y10419D01*
X1474Y10423D01*
X1473Y10425D01*
X1469Y10429D01*
X1456Y10432D01*
X1451Y10441D01*
X1438Y10444D01*
X1435Y10447D01*
X1433Y10453D01*
X1427Y10458D01*
X1426Y10460D01*
X1423Y10465D01*
X1419Y10467D01*
X1411Y10467D01*
X1408Y10470D01*
X1405Y10476D01*
X1403Y10479D01*
X1401Y10480D01*
X1398Y10484D01*
X1397Y10487D01*
X1396Y10489D01*
X1391Y10491D01*
X1381Y10493D01*
X1379Y10496D01*
X1378Y10499D01*
X1377Y10501D01*
X1374Y10503D01*
X1370Y10507D01*
X1369Y10509D01*
X1366Y10515D01*
X1352Y10517D01*
X1351Y10519D01*
X1349Y10525D01*
X1347Y10527D01*
X1343Y10528D01*
X1339Y10528D01*
X1334Y10529D01*
X1331Y10534D01*
X1330Y10536D01*
X1327Y10540D01*
X1325Y10541D01*
X1323Y10544D01*
X1322Y10547D01*
X1318Y10552D01*
X1316Y10553D01*
X1312Y10558D01*
X1312Y10560D01*
X1309Y10563D01*
X1305Y10564D01*
X1298Y10564D01*
X1293Y10561D01*
X1292Y10559D01*
X1290Y10556D01*
X1285Y10555D01*
X1267Y10558D01*
X1262Y10556D01*
X1261Y10554D01*
X1256Y10549D01*
X1236Y10552D01*
X1232Y10551D01*
X1229Y10548D01*
X1225Y10543D01*
X1220Y10542D01*
X1204Y10545D01*
X1201Y10545D01*
X1172Y10549D01*
X1168Y10547D01*
X1163Y10541D01*
X1161Y10540D01*
X1147Y10540D01*
X1146Y10539D01*
X1141Y10533D01*
X1137Y10532D01*
X1108Y10536D01*
X1104Y10534D01*
X1102Y10532D01*
X1099Y10528D01*
X1094Y10526D01*
X1085Y10529D01*
X1082Y10532D01*
X1082Y10537D01*
X1083Y10543D01*
X1079Y10550D01*
X1076Y10551D01*
X1074Y10554D01*
X1074Y10568D01*
X1073Y10570D01*
X1068Y10574D01*
X1066Y10577D01*
X1072Y10621D01*
X1079Y10624D01*
X1083Y10627D01*
X1086Y10631D01*
X1090Y10632D01*
X1119Y10628D01*
X1123Y10630D01*
X1124Y10632D01*
X1128Y10636D01*
X1134Y10637D01*
X1148Y10635D01*
X1174Y10633D01*
X1176Y10634D01*
X1179Y10639D01*
X1182Y10641D01*
X1185Y10642D01*
X1189Y10645D01*
X1191Y10653D01*
X1188Y10658D01*
X1186Y10661D01*
X1184Y10663D01*
X1181Y10667D01*
X1179Y10672D01*
X1175Y10674D01*
X1164Y10676D01*
X1163Y10678D01*
X1162Y10680D01*
X1159Y10685D01*
X1157Y10687D01*
X1154Y10689D01*
X1153Y10691D01*
X1149Y10697D01*
X1136Y10700D01*
X1132Y10707D01*
X1130Y10709D01*
X1128Y10711D01*
X1125Y10715D01*
X1124Y10717D01*
X1120Y10723D01*
X1118Y10724D01*
X1116Y10727D01*
X1115Y10734D01*
X1120Y10741D01*
X1126Y10743D01*
X1128Y10745D01*
X1129Y10747D01*
X1132Y10750D01*
X1138Y10753D01*
X1139Y10754D01*
X1142Y10768D01*
X1144Y10769D01*
X1150Y10772D01*
X1153Y10774D01*
X1154Y10776D01*
X1158Y10780D01*
X1163Y10782D01*
X1165Y10786D01*
X1165Y10797D01*
X1167Y10798D01*
X1171Y10799D01*
X1175Y10796D01*
X1176Y10794D01*
X1180Y10787D01*
X1193Y10784D01*
X1198Y10775D01*
X1212Y10772D01*
X1214Y10769D01*
X1216Y10763D01*
X1222Y10757D01*
X1224Y10755D01*
X1225Y10752D01*
X1226Y10751D01*
X1228Y10749D01*
X1231Y10747D01*
X1231Y10745D01*
X1236Y10739D01*
X1248Y10736D01*
X1250Y10734D01*
X1252Y10728D01*
X1255Y10725D01*
X1259Y10726D01*
X1262Y10728D01*
X1265Y10762D01*
X1269Y10791D01*
X1268Y10795D01*
X1262Y10800D01*
X1260Y10802D01*
X1260Y10810D01*
X1261Y10813D01*
X1266Y10852D01*
X1267Y10856D01*
X1271Y10859D01*
X1280Y10859D01*
X1283Y10857D01*
X1295Y10857D01*
X1298Y10859D01*
X1299Y10861D01*
X1302Y10865D01*
X1306Y10865D01*
X1357Y10858D01*
D02*
G37*
G36*
X4409Y10791D02*
X4411Y10789D01*
X4415Y10786D01*
X4417Y10786D01*
X4420Y10784D01*
X4421Y10782D01*
X4424Y10779D01*
X4429Y10779D01*
X4445Y10783D01*
X4449Y10782D01*
X4450Y10780D01*
X4454Y10776D01*
X4459Y10775D01*
X4475Y10780D01*
X4479Y10778D01*
X4481Y10776D01*
X4486Y10772D01*
X4499Y10774D01*
X4505Y10767D01*
X4510Y10767D01*
X4522Y10770D01*
X4525Y10770D01*
X4528Y10772D01*
X4537Y10772D01*
X4541Y10770D01*
X4545Y10766D01*
X4558Y10767D01*
X4560Y10766D01*
X4564Y10761D01*
X4567Y10760D01*
X4586Y10764D01*
X4590Y10762D01*
X4594Y10758D01*
X4596Y10757D01*
X4603Y10757D01*
X4610Y10759D01*
X4618Y10760D01*
X4621Y10758D01*
X4622Y10757D01*
X4625Y10754D01*
X4631Y10752D01*
X4633Y10751D01*
X4634Y10747D01*
X4637Y10731D01*
X4639Y10727D01*
X4639Y10720D01*
X4636Y10716D01*
X4632Y10712D01*
X4632Y10707D01*
X4636Y10691D01*
X4634Y10687D01*
X4629Y10683D01*
X4629Y10678D01*
X4634Y10654D01*
X4634Y10650D01*
X4632Y10647D01*
X4627Y10643D01*
X4627Y10638D01*
X4631Y10623D01*
X4630Y10618D01*
X4624Y10613D01*
X4624Y10609D01*
X4624Y10606D01*
X4625Y10603D01*
X4631Y10571D01*
X4629Y10568D01*
X4625Y10564D01*
X4624Y10560D01*
X4630Y10535D01*
X4629Y10531D01*
X4628Y10529D01*
X4624Y10525D01*
X4623Y10524D01*
X4624Y10512D01*
X4622Y10508D01*
X4621Y10507D01*
X4618Y10504D01*
X4617Y10502D01*
X4615Y10497D01*
X4611Y10495D01*
X4603Y10494D01*
X4600Y10496D01*
X4599Y10498D01*
X4594Y10502D01*
X4586Y10501D01*
X4584Y10499D01*
X4572Y10498D01*
X4565Y10505D01*
X4561Y10505D01*
X4535Y10499D01*
X4532Y10501D01*
X4530Y10502D01*
X4526Y10506D01*
X4520Y10506D01*
X4508Y10503D01*
X4494Y10501D01*
X4491Y10503D01*
X4487Y10507D01*
X4485Y10508D01*
X4458Y10502D01*
X4454Y10502D01*
X4451Y10504D01*
X4447Y10509D01*
X4442Y10509D01*
X4434Y10506D01*
X4432Y10504D01*
X4432Y10500D01*
X4433Y10490D01*
X4432Y10487D01*
X4427Y10484D01*
X4427Y10479D01*
X4430Y10464D01*
X4430Y10460D01*
X4428Y10457D01*
X4426Y10456D01*
X4423Y10453D01*
X4423Y10449D01*
X4428Y10432D01*
X4426Y10428D01*
X4420Y10424D01*
X4420Y10419D01*
X4421Y10409D01*
X4419Y10406D01*
X4415Y10403D01*
X4414Y10398D01*
X4418Y10382D01*
X4417Y10378D01*
X4415Y10376D01*
X4411Y10372D01*
X4411Y10367D01*
X4414Y10357D01*
X4417Y10340D01*
X4415Y10337D01*
X4413Y10336D01*
X4411Y10334D01*
X4410Y10332D01*
X4409Y10329D01*
X4408Y10327D01*
X4402Y10321D01*
X4402Y10319D01*
X4399Y10314D01*
X4393Y10311D01*
X4387Y10312D01*
X4384Y10314D01*
X4380Y10318D01*
X4376Y10319D01*
X4366Y10318D01*
X4364Y10319D01*
X4360Y10323D01*
X4358Y10324D01*
X4354Y10324D01*
X4339Y10320D01*
X4334Y10323D01*
X4332Y10324D01*
X4329Y10327D01*
X4324Y10329D01*
X4322Y10330D01*
X4319Y10337D01*
X4320Y10340D01*
X4317Y10349D01*
X4319Y10354D01*
X4324Y10359D01*
X4325Y10360D01*
X4325Y10365D01*
X4321Y10380D01*
X4323Y10385D01*
X4327Y10389D01*
X4328Y10391D01*
X4327Y10404D01*
X4328Y10405D01*
X4333Y10409D01*
X4334Y10414D01*
X4331Y10426D01*
X4330Y10431D01*
X4328Y10434D01*
X4328Y10442D01*
X4330Y10446D01*
X4335Y10450D01*
X4333Y10462D01*
X4335Y10466D01*
X4340Y10470D01*
X4341Y10472D01*
X4339Y10485D01*
X4340Y10486D01*
X4344Y10490D01*
X4346Y10492D01*
X4346Y10496D01*
X4343Y10503D01*
X4338Y10506D01*
X4336Y10507D01*
X4333Y10509D01*
X4331Y10510D01*
X4328Y10513D01*
X4321Y10513D01*
X4315Y10510D01*
X4297Y10508D01*
X4294Y10510D01*
X4290Y10514D01*
X4288Y10515D01*
X4262Y10509D01*
X4257Y10509D01*
X4255Y10511D01*
X4251Y10515D01*
X4249Y10516D01*
X4245Y10516D01*
X4230Y10512D01*
X4225Y10514D01*
X4221Y10519D01*
X4219Y10520D01*
X4212Y10519D01*
X4209Y10518D01*
X4179Y10512D01*
X4175Y10515D01*
X4173Y10517D01*
X4169Y10519D01*
X4167Y10520D01*
X4164Y10522D01*
X4162Y10525D01*
X4160Y10541D01*
X4158Y10544D01*
X4158Y10552D01*
X4160Y10556D01*
X4165Y10560D01*
X4165Y10564D01*
X4165Y10568D01*
X4163Y10570D01*
X4159Y10592D01*
X4161Y10595D01*
X4166Y10599D01*
X4168Y10605D01*
X4169Y10607D01*
X4175Y10609D01*
X4178Y10609D01*
X4187Y10611D01*
X4192Y10610D01*
X4198Y10604D01*
X4202Y10604D01*
X4219Y10608D01*
X4223Y10606D01*
X4227Y10601D01*
X4235Y10601D01*
X4238Y10602D01*
X4260Y10606D01*
X4264Y10603D01*
X4267Y10599D01*
X4271Y10599D01*
X4297Y10605D01*
X4301Y10603D01*
X4303Y10602D01*
X4307Y10598D01*
X4312Y10598D01*
X4325Y10601D01*
X4329Y10601D01*
X4331Y10600D01*
X4336Y10594D01*
X4340Y10594D01*
X4341Y10596D01*
X4343Y10599D01*
X4345Y10604D01*
X4348Y10606D01*
X4358Y10609D01*
X4359Y10611D01*
X4359Y10615D01*
X4355Y10631D01*
X4356Y10635D01*
X4362Y10640D01*
X4363Y10645D01*
X4358Y10662D01*
X4360Y10666D01*
X4366Y10670D01*
X4366Y10675D01*
X4365Y10685D01*
X4371Y10692D01*
X4371Y10696D01*
X4368Y10708D01*
X4368Y10713D01*
X4366Y10715D01*
X4366Y10723D01*
X4368Y10727D01*
X4373Y10731D01*
X4371Y10744D01*
X4372Y10747D01*
X4377Y10751D01*
X4379Y10754D01*
X4372Y10781D01*
X4373Y10785D01*
X4374Y10787D01*
X4378Y10789D01*
X4394Y10791D01*
X4397Y10793D01*
X4405Y10793D01*
X4409Y10791D01*
D02*
G37*
G36*
X2391Y10466D02*
X2393Y10466D01*
X2395Y10463D01*
X2396Y10461D01*
X2399Y10458D01*
X2405Y10458D01*
X2409Y10460D01*
X2410Y10461D01*
X2414Y10466D01*
X2416Y10466D01*
X2485D01*
X2518Y10466D01*
X2520Y10464D01*
X2521Y10462D01*
X2523Y10459D01*
X2525Y10458D01*
X2528Y10456D01*
X2528Y10455D01*
X2531Y10451D01*
X2534Y10450D01*
X2550Y10451D01*
X2563Y10450D01*
X2567Y10454D01*
X2570Y10458D01*
X2575Y10459D01*
X2579Y10458D01*
X2665Y10459D01*
X2667Y10458D01*
X2669Y10456D01*
X2671Y10452D01*
X2672Y10451D01*
X2676Y10450D01*
X2691Y10451D01*
X3511Y10451D01*
X3514Y10453D01*
X3516Y10457D01*
X3518Y10458D01*
X3523Y10459D01*
X3526Y10458D01*
X3622Y10459D01*
X3623Y10460D01*
X3626Y10464D01*
X3628Y10466D01*
X3716Y10466D01*
X3717Y10464D01*
X3718Y10463D01*
X3722Y10458D01*
X3725Y10456D01*
X3726Y10453D01*
X3726Y10354D01*
X3727Y10351D01*
X3729Y10349D01*
X3733Y10347D01*
X3734Y10343D01*
X3733Y10330D01*
X3737Y10325D01*
X3741Y10323D01*
X3742Y10318D01*
X3741Y10315D01*
X3742Y10292D01*
X3741Y10289D01*
X3739Y10287D01*
X3735Y10285D01*
X3734Y10283D01*
X3733Y10280D01*
X3734Y10275D01*
X3732Y10272D01*
X3728Y10269D01*
X3726Y10267D01*
X3725Y10266D01*
X3722Y10263D01*
X3721Y10262D01*
X3718Y10259D01*
X3717Y10257D01*
X3715Y10255D01*
X3713Y10255D01*
X3710Y10251D01*
X3709Y10249D01*
X3707Y10247D01*
X3705Y10246D01*
X3702Y10244D01*
X3702Y10242D01*
X3699Y10239D01*
X3697Y10238D01*
X3694Y10235D01*
X3693Y10234D01*
X3691Y10232D01*
X3688Y10231D01*
X3677Y10232D01*
X3534Y10231D01*
X3532Y10233D01*
X3530Y10235D01*
X3528Y10239D01*
X3523Y10240D01*
X3513Y10239D01*
X3415Y10240D01*
X3414Y10241D01*
X3411Y10246D01*
X3408Y10247D01*
X3223Y10247D01*
X3220Y10248D01*
X3218Y10249D01*
X3216Y10253D01*
X3214Y10255D01*
X3211Y10255D01*
X3196Y10255D01*
X3018Y10255D01*
X3011Y10255D01*
X3007Y10257D01*
X3004Y10262D01*
X3001Y10263D01*
X2993Y10263D01*
X2991Y10266D01*
X2990Y10267D01*
X2988Y10270D01*
X2981Y10272D01*
X2976Y10269D01*
X2975Y10267D01*
X2972Y10263D01*
X2971Y10263D01*
X2967Y10260D01*
X2965Y10256D01*
X2961Y10255D01*
X2949Y10255D01*
X2946Y10255D01*
X2830Y10255D01*
X2827Y10253D01*
X2826Y10252D01*
X2824Y10248D01*
X2818Y10246D01*
X2815Y10247D01*
X2640Y10246D01*
X2638Y10244D01*
X2636Y10240D01*
X2632Y10239D01*
X2572Y10239D01*
X2570Y10238D01*
X2568Y10237D01*
X2566Y10233D01*
X2565Y10232D01*
X2561Y10229D01*
X2559Y10226D01*
X2560Y10210D01*
X2560Y10142D01*
X2561Y10139D01*
X2567Y10136D01*
X2568Y10130D01*
X2567Y10124D01*
X2568Y10109D01*
X2571Y10106D01*
X2575Y10104D01*
X2576Y10101D01*
X2575Y10064D01*
X2579Y10060D01*
X2580Y10059D01*
X2583Y10057D01*
X2584Y10051D01*
X2583Y10043D01*
X2583Y9993D01*
X2581Y9990D01*
X2576Y9987D01*
X2573Y9981D01*
X2570Y9981D01*
X2564Y9981D01*
X2560Y9979D01*
X2558Y9974D01*
X2557Y9973D01*
X2551Y9973D01*
X2490Y9973D01*
X2488Y9972D01*
X2486Y9973D01*
X2484Y9974D01*
X2482Y9976D01*
X2479Y9980D01*
X2476Y9981D01*
X2464Y9981D01*
X2461Y9981D01*
X2400Y9981D01*
X2395Y9984D01*
X2395Y9986D01*
X2391Y9990D01*
X2389Y9990D01*
X2388Y9992D01*
X2387Y9993D01*
X2384Y9997D01*
X2382Y9998D01*
X2380Y10000D01*
X2379Y10001D01*
X2376Y10005D01*
X2374Y10006D01*
X2373Y10007D01*
X2372Y10009D01*
X2368Y10012D01*
X2367Y10013D01*
X2365Y10015D01*
X2364Y10017D01*
X2360Y10021D01*
X2358Y10021D01*
X2356Y10023D01*
X2356Y10027D01*
X2356Y10030D01*
X2356Y10038D01*
X2357Y10041D01*
X2359Y10043D01*
X2363Y10046D01*
X2365Y10049D01*
X2364Y10062D01*
X2365Y10064D01*
X2364Y10275D01*
X2365Y10276D01*
X2366Y10277D01*
X2371Y10280D01*
X2373Y10286D01*
X2372Y10292D01*
X2372Y10312D01*
X2371Y10315D01*
X2369Y10317D01*
X2365Y10320D01*
X2364Y10323D01*
X2365Y10341D01*
X2364Y10447D01*
X2366Y10449D01*
X2367Y10450D01*
X2372Y10454D01*
X2373Y10455D01*
X2376Y10458D01*
X2377Y10459D01*
X2380Y10462D01*
X2381Y10464D01*
X2384Y10466D01*
X2389Y10467D01*
X2391Y10466D01*
D02*
G37*
G36*
X4975Y10276D02*
X4977Y10274D01*
X4981Y10271D01*
X4986Y10269D01*
X4988Y10263D01*
X4986Y10261D01*
X4984Y10260D01*
X4980Y10255D01*
X4975Y10248D01*
X4973Y10247D01*
X4972Y10245D01*
X4971Y10243D01*
X4969Y10239D01*
X4965Y10235D01*
X4963Y10234D01*
X4963Y10230D01*
X4965Y10223D01*
X4963Y10219D01*
X4957Y10214D01*
X4957Y10210D01*
X4957Y10200D01*
X4955Y10197D01*
X4951Y10194D01*
X4951Y10192D01*
X4949Y10189D01*
X4948Y10187D01*
X4945Y10184D01*
X4943Y10182D01*
X4942Y10180D01*
X4939Y10175D01*
X4937Y10174D01*
X4935Y10172D01*
X4935Y10170D01*
X4933Y10167D01*
X4932Y10165D01*
X4927Y10160D01*
X4925Y10156D01*
X4927Y10153D01*
X4927Y10146D01*
X4926Y10144D01*
X4924Y10143D01*
X4919Y10137D01*
X4918Y10135D01*
X4915Y10131D01*
X4914Y10130D01*
X4911Y10127D01*
X4911Y10123D01*
X4913Y10119D01*
X4912Y10115D01*
X4909Y10111D01*
X4908Y10109D01*
X4904Y10104D01*
X4903Y10102D01*
X4902Y10100D01*
X4900Y10099D01*
X4896Y10094D01*
X4896Y10091D01*
X4893Y10089D01*
X4889Y10085D01*
X4890Y10073D01*
X4887Y10068D01*
X4883Y10064D01*
X4881Y10060D01*
X4877Y10055D01*
X4875Y10054D01*
X4874Y10052D01*
X4873Y10050D01*
X4872Y10047D01*
X4870Y10046D01*
X4866Y10040D01*
X4866Y10028D01*
X4865Y10027D01*
X4859Y10022D01*
X4859Y10018D01*
X4862Y10015D01*
X4867Y10012D01*
X4877Y10006D01*
X4879Y10005D01*
X4881Y10004D01*
X4884Y9999D01*
X4889Y9998D01*
X4896Y10000D01*
X4899Y9999D01*
X4901Y9998D01*
X4905Y9993D01*
X4907Y9992D01*
X4919Y9993D01*
X4923Y9990D01*
X4924Y9988D01*
X4928Y9985D01*
X4930Y9984D01*
X4933Y9982D01*
X4935Y9980D01*
X4938Y9977D01*
X4944Y9977D01*
X4947Y9979D01*
X4951Y9978D01*
X4954Y9976D01*
X4955Y9974D01*
X4958Y9971D01*
X4960Y9971D01*
X4965Y9968D01*
X4969Y9963D01*
X4974Y9963D01*
X4980Y9964D01*
X4984Y9963D01*
X4986Y9962D01*
X4990Y9956D01*
X5004Y9957D01*
X5007Y9955D01*
X5008Y9953D01*
X5010Y9951D01*
X5012Y9950D01*
X5018Y9946D01*
X5022Y9942D01*
X5027Y9941D01*
X5034Y9943D01*
X5039Y9940D01*
X5042Y9936D01*
X5044Y9935D01*
X5057Y9936D01*
X5062Y9930D01*
X5066Y9928D01*
X5068Y9927D01*
X5071Y9925D01*
X5072Y9923D01*
X5075Y9920D01*
X5088Y9921D01*
X5091Y9919D01*
X5095Y9914D01*
X5097Y9913D01*
X5110Y9914D01*
X5115Y9909D01*
X5122Y9906D01*
X5124Y9903D01*
X5123Y9899D01*
X5122Y9898D01*
X5117Y9894D01*
X5115Y9891D01*
X5115Y9889D01*
X5113Y9887D01*
X5110Y9885D01*
X5084Y9882D01*
X5081Y9880D01*
X5079Y9878D01*
X5077Y9873D01*
X5076Y9871D01*
X5072Y9869D01*
X5059Y9868D01*
X5035Y9863D01*
X5033Y9860D01*
X5031Y9855D01*
X5026Y9853D01*
X4972Y9845D01*
X4968Y9843D01*
X4967Y9841D01*
X4965Y9835D01*
X4964Y9834D01*
X4960Y9832D01*
X4948Y9831D01*
X4944Y9829D01*
X4941Y9830D01*
X4932Y9827D01*
X4930Y9826D01*
X4928Y9819D01*
X4921Y9816D01*
X4917Y9816D01*
X4875Y9808D01*
X4874Y9806D01*
X4871Y9799D01*
X4868Y9798D01*
X4841Y9794D01*
X4838Y9791D01*
X4837Y9789D01*
X4834Y9784D01*
X4829Y9781D01*
X4819Y9781D01*
X4792Y9776D01*
X4791Y9774D01*
X4790Y9772D01*
X4786Y9765D01*
X4740Y9759D01*
X4736Y9757D01*
X4734Y9755D01*
X4732Y9749D01*
X4731Y9747D01*
X4727Y9746D01*
X4708Y9744D01*
X4705Y9742D01*
X4695Y9742D01*
X4690Y9740D01*
X4688Y9737D01*
X4687Y9735D01*
X4684Y9730D01*
X4678Y9728D01*
X4644Y9723D01*
X4641Y9720D01*
X4638Y9713D01*
X4635Y9712D01*
X4620Y9710D01*
X4609Y9707D01*
X4604Y9709D01*
X4601Y9714D01*
X4601Y9722D01*
X4604Y9726D01*
X4605Y9727D01*
X4608Y9732D01*
X4609Y9734D01*
X4612Y9738D01*
X4614Y9739D01*
X4617Y9743D01*
X4617Y9745D01*
X4620Y9749D01*
X4622Y9751D01*
X4624Y9754D01*
X4625Y9756D01*
X4628Y9760D01*
X4630Y9761D01*
X4633Y9765D01*
X4633Y9767D01*
X4636Y9771D01*
X4638Y9773D01*
X4641Y9775D01*
X4641Y9779D01*
X4640Y9789D01*
X4642Y9792D01*
X4644Y9793D01*
X4647Y9795D01*
X4647Y9797D01*
X4650Y9802D01*
X4652Y9804D01*
X4656Y9808D01*
X4655Y9821D01*
X4656Y9823D01*
X4661Y9827D01*
X4662Y9828D01*
X4663Y9831D01*
X4666Y9836D01*
X4668Y9837D01*
X4670Y9840D01*
X4669Y9852D01*
X4672Y9856D01*
X4674Y9858D01*
X4677Y9862D01*
X4678Y9864D01*
X4680Y9867D01*
X4682Y9868D01*
X4685Y9872D01*
X4685Y9874D01*
X4688Y9878D01*
X4692Y9882D01*
X4693Y9886D01*
X4692Y9896D01*
X4694Y9898D01*
X4695Y9899D01*
X4699Y9903D01*
X4700Y9905D01*
X4701Y9908D01*
X4703Y9909D01*
X4705Y9912D01*
X4706Y9913D01*
X4710Y9920D01*
X4711Y9921D01*
X4715Y9925D01*
X4716Y9927D01*
X4718Y9931D01*
X4720Y9933D01*
X4724Y9937D01*
X4723Y9950D01*
X4724Y9952D01*
X4726Y9953D01*
X4731Y9958D01*
X4730Y9960D01*
X4731Y9961D01*
X4730Y9967D01*
X4726Y9972D01*
X4724Y9972D01*
X4719Y9975D01*
X4717Y9977D01*
X4716Y9979D01*
X4713Y9980D01*
X4711Y9982D01*
X4709Y9982D01*
X4704Y9988D01*
X4699Y9989D01*
X4692Y9987D01*
X4687Y9990D01*
X4683Y9995D01*
X4679Y9995D01*
X4669Y9994D01*
X4666Y9997D01*
X4665Y9998D01*
X4659Y10002D01*
X4657Y10003D01*
X4654Y10005D01*
X4651Y10009D01*
X4646Y10010D01*
X4643Y10009D01*
X4637Y10009D01*
X4634Y10011D01*
X4630Y10015D01*
X4628Y10017D01*
X4615Y10016D01*
X4610Y10021D01*
X4607Y10024D01*
X4605Y10024D01*
X4602Y10026D01*
X4600Y10028D01*
X4598Y10031D01*
X4594Y10031D01*
X4584Y10030D01*
X4581Y10032D01*
X4577Y10037D01*
X4576Y10038D01*
X4563Y10037D01*
X4558Y10043D01*
X4555Y10044D01*
X4553Y10045D01*
X4549Y10048D01*
X4548Y10050D01*
X4544Y10053D01*
X4531Y10052D01*
X4529Y10054D01*
X4527Y10056D01*
X4522Y10059D01*
X4520Y10060D01*
X4517Y10062D01*
X4513Y10067D01*
X4500Y10066D01*
X4496Y10068D01*
X4493Y10073D01*
X4491Y10074D01*
X4478Y10073D01*
X4476Y10074D01*
X4474Y10081D01*
X4474Y10087D01*
X4476Y10090D01*
X4481Y10094D01*
X4484Y10101D01*
X4488Y10103D01*
X4502Y10105D01*
X4524Y10109D01*
X4528Y10109D01*
X4535Y10111D01*
X4538Y10114D01*
X4540Y10119D01*
X4541Y10121D01*
X4548Y10123D01*
X4551Y10123D01*
X4582Y10129D01*
X4584Y10131D01*
X4585Y10134D01*
X4587Y10138D01*
X4591Y10139D01*
X4635Y10146D01*
X4638Y10148D01*
X4641Y10151D01*
X4643Y10156D01*
X4648Y10159D01*
X4661Y10160D01*
X4675Y10163D01*
X4677Y10166D01*
X4679Y10171D01*
X4681Y10173D01*
X4727Y10180D01*
X4731Y10182D01*
X4734Y10185D01*
X4736Y10190D01*
X4740Y10193D01*
X4752Y10194D01*
X4757Y10195D01*
X4760Y10195D01*
X4768Y10197D01*
X4770Y10200D01*
X4773Y10206D01*
X4774Y10207D01*
X4781Y10209D01*
X4784Y10209D01*
X4825Y10216D01*
X4826Y10218D01*
X4827Y10220D01*
X4830Y10227D01*
X4868Y10232D01*
X4871Y10234D01*
X4874Y10237D01*
X4876Y10242D01*
X4881Y10245D01*
X4897Y10246D01*
X4905Y10248D01*
X4916Y10249D01*
X4919Y10252D01*
X4922Y10258D01*
X4924Y10261D01*
X4950Y10264D01*
X4954Y10266D01*
X4956Y10267D01*
X4957Y10270D01*
X4960Y10276D01*
X4963Y10277D01*
X4972Y10278D01*
X4975Y10276D01*
D02*
G37*
G36*
X3113Y9996D02*
X3117Y9991D01*
X3119Y9989D01*
X3121Y9988D01*
X3124Y9985D01*
X3124Y9983D01*
X3126Y9981D01*
X3130Y9981D01*
X3133Y9981D01*
X3136Y9981D01*
X3139Y9978D01*
X3141Y9974D01*
X3145Y9973D01*
X3148Y9972D01*
X3150Y9973D01*
X3156Y9974D01*
X3159Y9973D01*
X3163Y9970D01*
X3163Y9968D01*
X3166Y9965D01*
X3168Y9964D01*
X3170Y9962D01*
X3171Y9961D01*
X3172Y9959D01*
X3176Y9957D01*
X3189Y9958D01*
X3193Y9956D01*
X3196Y9950D01*
X3199Y9950D01*
X3212Y9950D01*
X3215Y9949D01*
X3216Y9948D01*
X3219Y9944D01*
X3220Y9942D01*
X3223Y9941D01*
X3227Y9942D01*
X3230Y9941D01*
X3232Y9940D01*
X3235Y9935D01*
X3241Y9933D01*
X3246Y9934D01*
X3250Y9935D01*
X3253Y9934D01*
X3256Y9932D01*
X3258Y9927D01*
X3262Y9926D01*
X3267Y9926D01*
X3270Y9925D01*
X3272Y9923D01*
X3274Y9919D01*
X3279Y9918D01*
X3289Y9919D01*
X3293Y9918D01*
X3296Y9915D01*
X3298Y9911D01*
X3301Y9910D01*
X3309Y9910D01*
X3311Y9908D01*
X3313Y9904D01*
X3317Y9902D01*
X3320Y9903D01*
X3324Y9902D01*
X3326Y9901D01*
X3329Y9896D01*
X3332Y9895D01*
X3340Y9894D01*
X3342Y9892D01*
X3344Y9888D01*
X3348Y9887D01*
X3353Y9887D01*
X3356Y9886D01*
X3358Y9885D01*
X3360Y9881D01*
X3361Y9879D01*
X3363Y9879D01*
X3366Y9875D01*
X3367Y9873D01*
X3369Y9872D01*
X3370Y9871D01*
X3374Y9868D01*
X3375Y9866D01*
X3377Y9864D01*
X3380Y9863D01*
X3395Y9864D01*
X3398Y9863D01*
X3406Y9864D01*
X3410Y9863D01*
X3413Y9860D01*
X3415Y9856D01*
X3426Y9855D01*
X3428Y9854D01*
X3430Y9850D01*
X3432Y9848D01*
X3448Y9848D01*
X3451Y9846D01*
X3454Y9842D01*
X3455Y9840D01*
X3466Y9840D01*
X3467Y9838D01*
X3470Y9833D01*
X3473Y9832D01*
X3481Y9831D01*
X3483Y9829D01*
X3485Y9825D01*
X3489Y9824D01*
X3502Y9825D01*
X3507Y9821D01*
X3509Y9817D01*
X3520Y9816D01*
X3522Y9814D01*
X3525Y9810D01*
X3528Y9809D01*
X3541Y9809D01*
X3546Y9806D01*
X3548Y9802D01*
X3553Y9800D01*
X3563Y9801D01*
X3567Y9800D01*
X3569Y9798D01*
X3572Y9794D01*
X3575Y9793D01*
X3583Y9792D01*
X3584Y9791D01*
X3585Y9789D01*
X3588Y9786D01*
X3591Y9785D01*
X3604Y9786D01*
X3609Y9782D01*
X3611Y9778D01*
X3622Y9777D01*
X3623Y9776D01*
X3626Y9771D01*
X3628Y9769D01*
X3644Y9770D01*
X3647Y9768D01*
X3650Y9763D01*
X3651Y9762D01*
X3654Y9760D01*
X3655Y9758D01*
X3659Y9754D01*
X3697Y9754D01*
X3700Y9753D01*
X3702Y9752D01*
X3702Y9750D01*
X3705Y9747D01*
X3708Y9746D01*
X3712Y9747D01*
X3716Y9746D01*
X3717Y9745D01*
X3719Y9740D01*
X3722Y9738D01*
X3723Y9738D01*
X3726Y9735D01*
X3727Y9733D01*
X3730Y9730D01*
X3731Y9729D01*
X3733Y9727D01*
X3734Y9724D01*
Y9723D01*
X3733Y9710D01*
X3734Y9579D01*
X3733Y9570D01*
X3736Y9567D01*
X3741Y9565D01*
X3741Y9562D01*
X3740Y9559D01*
X3739Y9558D01*
X3734Y9555D01*
X3733Y9554D01*
X3730Y9550D01*
X3728Y9549D01*
X3726Y9547D01*
X3725Y9546D01*
X3722Y9543D01*
X3721Y9542D01*
X3718Y9539D01*
X3716Y9535D01*
X3713Y9535D01*
X3699Y9535D01*
X3696Y9534D01*
X3693Y9528D01*
X3689Y9526D01*
X3675Y9527D01*
X3671Y9524D01*
X3669Y9520D01*
X3668Y9519D01*
X3657Y9518D01*
X3653Y9512D01*
X3650Y9511D01*
X3636Y9512D01*
X3633Y9510D01*
X3630Y9504D01*
X3625Y9503D01*
X3619Y9504D01*
X3615Y9504D01*
X3612Y9503D01*
X3609Y9502D01*
X3607Y9498D01*
X3605Y9496D01*
X3589Y9496D01*
X3586Y9494D01*
X3583Y9489D01*
X3580Y9488D01*
X3572Y9487D01*
X3570Y9486D01*
X3567Y9481D01*
X3564Y9480D01*
X3556Y9479D01*
X3554Y9477D01*
X3552Y9473D01*
X3548Y9472D01*
X3535Y9473D01*
X3530Y9469D01*
X3528Y9465D01*
X3517Y9464D01*
X3515Y9462D01*
X3512Y9458D01*
X3509Y9456D01*
X3496Y9457D01*
X3491Y9454D01*
X3489Y9449D01*
X3479Y9449D01*
X3476Y9447D01*
X3473Y9442D01*
X3472Y9441D01*
X3461Y9440D01*
X3457Y9434D01*
X3454Y9433D01*
X3440Y9434D01*
X3437Y9431D01*
X3435Y9426D01*
X3431Y9425D01*
X3423Y9425D01*
X3421Y9423D01*
X3419Y9418D01*
X3415Y9417D01*
X3393Y9418D01*
X3391Y9416D01*
X3388Y9411D01*
X3386Y9410D01*
X3381Y9409D01*
X3375Y9410D01*
X3369Y9409D01*
X3366Y9407D01*
X3366Y9405D01*
X3364Y9403D01*
X3360Y9400D01*
X3358Y9399D01*
X3358Y9395D01*
X3358Y9392D01*
X3358Y9388D01*
X3355Y9386D01*
X3345Y9385D01*
X3343Y9383D01*
X3340Y9379D01*
X3337Y9378D01*
X3331Y9379D01*
X3329Y9377D01*
X3327Y9376D01*
X3325Y9372D01*
X3324Y9371D01*
X3318Y9370D01*
X3312Y9371D01*
X3306Y9370D01*
X3304Y9368D01*
X3301Y9364D01*
X3300Y9363D01*
X3289Y9362D01*
X3288Y9361D01*
X3285Y9355D01*
X3280Y9354D01*
X3278Y9355D01*
X3275Y9354D01*
X3272Y9352D01*
X3269Y9348D01*
X3259Y9347D01*
X3257Y9345D01*
X3255Y9341D01*
X3253Y9339D01*
X3245Y9339D01*
X3242Y9338D01*
X3238Y9332D01*
X3234Y9331D01*
X3223Y9332D01*
X3219Y9331D01*
X3218Y9330D01*
X3215Y9324D01*
X3212Y9323D01*
X3204Y9323D01*
X3202Y9321D01*
X3199Y9317D01*
X3196Y9315D01*
X3192Y9316D01*
X3188Y9315D01*
X3186Y9313D01*
X3184Y9309D01*
X3183Y9308D01*
X3172Y9307D01*
X3168Y9301D01*
X3165Y9300D01*
X3159Y9300D01*
X3157Y9299D01*
X3155Y9298D01*
X3153Y9294D01*
X3152Y9293D01*
X3141Y9292D01*
X3140Y9290D01*
X3137Y9285D01*
X3134Y9284D01*
X3120Y9285D01*
X3117Y9284D01*
X3116Y9282D01*
X3114Y9278D01*
X3113Y9277D01*
X3109Y9276D01*
X3094Y9277D01*
X3049Y9277D01*
X3046Y9279D01*
X3045Y9280D01*
X3044Y9281D01*
X3043Y9284D01*
X3039Y9285D01*
X3029Y9284D01*
X2985Y9285D01*
X2983Y9286D01*
X2980Y9292D01*
X2977Y9293D01*
X2969Y9293D01*
X2967Y9295D01*
X2965Y9299D01*
X2961Y9301D01*
X2958Y9300D01*
X2954Y9301D01*
X2952Y9303D01*
X2949Y9307D01*
X2948Y9308D01*
X2937Y9309D01*
X2934Y9314D01*
X2932Y9316D01*
X2930Y9317D01*
X2928Y9319D01*
X2927Y9321D01*
X2926Y9323D01*
X2922Y9324D01*
X2909Y9323D01*
X2905Y9326D01*
X2902Y9331D01*
X2899Y9332D01*
X2891Y9332D01*
X2889Y9334D01*
X2886Y9339D01*
X2883Y9340D01*
X2880Y9339D01*
X2875Y9340D01*
X2873Y9342D01*
X2871Y9346D01*
X2870Y9347D01*
X2859Y9348D01*
X2856Y9353D01*
X2853Y9355D01*
X2852Y9356D01*
X2850Y9358D01*
X2849Y9360D01*
X2848Y9362D01*
X2843Y9363D01*
X2830Y9363D01*
X2827Y9365D01*
X2824Y9370D01*
X2821Y9371D01*
X2812Y9372D01*
X2810Y9374D01*
X2810Y9375D01*
X2806Y9379D01*
X2804Y9380D01*
X2803Y9381D01*
X2802Y9383D01*
X2800Y9385D01*
X2797Y9386D01*
X2769Y9386D01*
X2765Y9387D01*
X2762Y9393D01*
X2758Y9394D01*
X2752Y9394D01*
X2748Y9397D01*
X2745Y9401D01*
X2735Y9402D01*
X2732Y9405D01*
X2730Y9409D01*
X2729Y9410D01*
X2718Y9411D01*
X2714Y9417D01*
X2710Y9418D01*
X2705Y9417D01*
X2701Y9420D01*
X2699Y9424D01*
X2698Y9425D01*
X2687Y9426D01*
X2686Y9427D01*
X2683Y9433D01*
X2680Y9434D01*
X2674Y9433D01*
X2669Y9436D01*
X2667Y9440D01*
X2662Y9442D01*
X2652Y9441D01*
X2649Y9442D01*
X2646Y9445D01*
X2644Y9448D01*
X2640Y9449D01*
X2632Y9450D01*
X2630Y9452D01*
X2628Y9456D01*
X2624Y9457D01*
X2611Y9456D01*
X2607Y9460D01*
X2604Y9464D01*
X2594Y9465D01*
X2592Y9467D01*
X2590Y9471D01*
X2588Y9472D01*
X2585Y9473D01*
X2580Y9472D01*
X2576Y9474D01*
X2574Y9479D01*
X2570Y9481D01*
X2557Y9480D01*
X2553Y9482D01*
X2550Y9487D01*
X2547Y9488D01*
X2539Y9489D01*
X2537Y9491D01*
X2534Y9495D01*
X2530Y9496D01*
X2517Y9496D01*
X2513Y9499D01*
X2511Y9503D01*
X2508Y9504D01*
X2499Y9504D01*
X2497Y9507D01*
X2495Y9511D01*
X2491Y9512D01*
X2478Y9511D01*
X2474Y9515D01*
X2471Y9519D01*
X2461Y9520D01*
X2458Y9522D01*
X2456Y9526D01*
X2455Y9527D01*
X2444Y9528D01*
X2440Y9535D01*
X2434Y9535D01*
X2426Y9535D01*
X2421Y9535D01*
X2420Y9537D01*
X2417Y9542D01*
X2414Y9543D01*
X2406Y9544D01*
X2404Y9546D01*
X2401Y9550D01*
X2398Y9551D01*
X2388Y9551D01*
X2384Y9551D01*
X2381Y9550D01*
X2375Y9551D01*
X2373Y9553D01*
X2372Y9555D01*
X2370Y9557D01*
X2368Y9558D01*
X2365Y9561D01*
X2364Y9564D01*
X2365Y9580D01*
X2364Y9734D01*
X2366Y9737D01*
X2367Y9738D01*
X2371Y9741D01*
X2372Y9751D01*
X2375Y9754D01*
X2380Y9755D01*
X2383Y9754D01*
X2440Y9755D01*
X2442Y9757D01*
X2444Y9761D01*
X2448Y9762D01*
X2462Y9762D01*
X2464Y9764D01*
X2466Y9765D01*
X2468Y9769D01*
X2472Y9770D01*
X2474Y9769D01*
X2479Y9770D01*
X2481Y9772D01*
X2484Y9776D01*
X2485Y9778D01*
X2490Y9778D01*
X2499Y9777D01*
X2501Y9778D01*
X2503Y9778D01*
X2505Y9780D01*
X2507Y9785D01*
X2511Y9786D01*
X2517Y9785D01*
X2520Y9788D01*
X2523Y9792D01*
X2524Y9793D01*
X2530Y9794D01*
X2533Y9793D01*
X2542Y9794D01*
X2544Y9796D01*
X2546Y9800D01*
X2548Y9801D01*
X2558Y9802D01*
X2561Y9808D01*
X2565Y9809D01*
X2579Y9809D01*
X2582Y9811D01*
X2583Y9812D01*
X2587Y9817D01*
X2592Y9817D01*
X2601Y9816D01*
X2603Y9817D01*
X2605Y9818D01*
X2606Y9819D01*
X2608Y9823D01*
X2609Y9824D01*
X2613Y9825D01*
X2618Y9824D01*
X2621Y9826D01*
X2624Y9830D01*
X2626Y9832D01*
X2627Y9833D01*
X2630Y9836D01*
X2632Y9840D01*
X2636Y9840D01*
X2644Y9841D01*
X2646Y9843D01*
X2648Y9847D01*
X2652Y9849D01*
X2666Y9848D01*
X2669Y9851D01*
X2670Y9853D01*
X2673Y9856D01*
X2675Y9857D01*
X2677Y9859D01*
X2678Y9860D01*
X2680Y9863D01*
X2683Y9864D01*
X2696Y9863D01*
X2700Y9867D01*
X2701Y9868D01*
X2704Y9871D01*
X2706Y9872D01*
X2709Y9875D01*
X2711Y9879D01*
X2714Y9879D01*
X2722Y9880D01*
X2724Y9882D01*
X2726Y9886D01*
X2730Y9888D01*
X2744Y9887D01*
X2748Y9890D01*
X2750Y9895D01*
X2761Y9895D01*
X2762Y9897D01*
X2765Y9901D01*
X2766Y9902D01*
X2769Y9903D01*
X2782Y9902D01*
X2786Y9905D01*
X2787Y9907D01*
X2790Y9910D01*
X2800Y9911D01*
X2801Y9913D01*
X2804Y9917D01*
X2806Y9919D01*
X2821Y9918D01*
X2824Y9919D01*
X2825Y9921D01*
X2828Y9925D01*
X2829Y9926D01*
X2830Y9927D01*
X2832Y9928D01*
X2833Y9930D01*
X2837Y9934D01*
X2842Y9935D01*
X2851Y9933D01*
X2853Y9934D01*
X2855Y9935D01*
X2857Y9937D01*
X2859Y9941D01*
X2863Y9942D01*
X2869Y9941D01*
X2872Y9944D01*
X2874Y9949D01*
X2878Y9950D01*
X2886Y9950D01*
X2888Y9952D01*
X2889Y9954D01*
X2891Y9957D01*
X2894Y9958D01*
X2907Y9957D01*
X2911Y9959D01*
X2914Y9965D01*
X2917Y9966D01*
X2918Y9966D01*
X2920Y9965D01*
X2925Y9966D01*
X2927Y9968D01*
X2929Y9972D01*
X2931Y9973D01*
X2941Y9974D01*
X2943Y9975D01*
X2945Y9981D01*
X2951Y9981D01*
X2954Y9981D01*
X2958Y9983D01*
X2959Y9984D01*
X2961Y9988D01*
X2972Y9989D01*
X2974Y9992D01*
X2977Y9996D01*
X2978Y9997D01*
X3113Y9996D01*
D02*
G37*
G36*
X917Y10162D02*
X919Y10160D01*
X920Y10157D01*
X924Y10153D01*
X926Y10151D01*
X927Y10150D01*
X928Y10148D01*
X933Y10142D01*
X935Y10141D01*
X937Y10139D01*
X938Y10137D01*
X942Y10132D01*
X944Y10131D01*
X946Y10129D01*
X949Y10123D01*
X953Y10122D01*
X960Y10122D01*
X964Y10118D01*
X965Y10114D01*
X964Y10107D01*
X964Y10098D01*
X961Y10094D01*
X954Y10090D01*
X952Y10077D01*
X949Y10075D01*
X947Y10074D01*
X943Y10071D01*
X942Y10070D01*
X939Y10066D01*
X937Y10065D01*
X935Y10064D01*
X933Y10063D01*
X932Y10061D01*
X928Y10057D01*
X926Y10056D01*
X924Y10054D01*
X923Y10054D01*
X922Y10052D01*
X918Y10048D01*
X916Y10047D01*
X912Y10045D01*
X911Y10041D01*
X911Y10032D01*
X913Y10030D01*
X919Y10027D01*
X932Y10028D01*
X1081Y10017D01*
X1082Y10017D01*
X1259Y10004D01*
X1269Y10004D01*
X1274Y10001D01*
X1275Y9996D01*
X1274Y9988D01*
X1270Y9985D01*
X1268Y9984D01*
X1264Y9981D01*
X1263Y9979D01*
X1259Y9976D01*
X1257Y9975D01*
X1253Y9971D01*
X1252Y9970D01*
X1248Y9966D01*
X1246Y9965D01*
X1243Y9962D01*
X1243Y9953D01*
X1240Y9949D01*
X1238Y9948D01*
X1236Y9947D01*
X1233Y9946D01*
X1232Y9944D01*
X1229Y9940D01*
X1226Y9939D01*
X1223Y9936D01*
X1222Y9933D01*
X1220Y9923D01*
X1218Y9921D01*
X1213Y9919D01*
X1211Y9917D01*
X1210Y9915D01*
X1209Y9913D01*
X1207Y9912D01*
X1201Y9908D01*
X1199Y9895D01*
X1193Y9891D01*
X1189Y9889D01*
X1188Y9887D01*
X1186Y9884D01*
X1183Y9883D01*
X1180Y9880D01*
X1179Y9878D01*
X1175Y9875D01*
X1170Y9873D01*
X1169Y9869D01*
X1167Y9859D01*
X1166Y9858D01*
X1164Y9857D01*
X1160Y9855D01*
X1159Y9853D01*
X1155Y9848D01*
X1150Y9846D01*
X1148Y9844D01*
X1146Y9831D01*
X1140Y9828D01*
X1138Y9826D01*
X1137Y9824D01*
X1132Y9820D01*
X1128Y9819D01*
X1127Y9815D01*
X1125Y9805D01*
X1123Y9802D01*
X1120Y9802D01*
X1117Y9799D01*
X1116Y9797D01*
X1112Y9793D01*
X1108Y9792D01*
X1101Y9794D01*
X1098Y9796D01*
X1098Y9798D01*
X1094Y9803D01*
X1089Y9804D01*
X1083Y9804D01*
X1080Y9806D01*
X1079Y9808D01*
X1075Y9814D01*
X1070Y9819D01*
X1066Y9824D01*
X1061Y9829D01*
X1060Y9831D01*
X1058Y9834D01*
X1055Y9835D01*
X1045Y9837D01*
X1042Y9840D01*
X1042Y9844D01*
X1043Y9852D01*
X1047Y9855D01*
X1052Y9857D01*
X1053Y9861D01*
X1055Y9871D01*
X1057Y9873D01*
X1059Y9874D01*
X1064Y9878D01*
X1065Y9880D01*
X1068Y9883D01*
X1070Y9883D01*
X1075Y9888D01*
X1076Y9889D01*
X1078Y9891D01*
X1080Y9892D01*
X1084Y9895D01*
X1086Y9908D01*
X1089Y9910D01*
X1094Y9913D01*
X1096Y9917D01*
X1095Y9925D01*
X1092Y9929D01*
X735Y9955D01*
X732Y9958D01*
X732Y9965D01*
X733Y9970D01*
X737Y9973D01*
X739Y9974D01*
X743Y9977D01*
X744Y9979D01*
X748Y9982D01*
X752Y9984D01*
X753Y9988D01*
X755Y9998D01*
X757Y10000D01*
X759Y10001D01*
X763Y10003D01*
X764Y10005D01*
X766Y10007D01*
X766Y10008D01*
X768Y10009D01*
X771Y10011D01*
X773Y10012D01*
X777Y10017D01*
X779Y10018D01*
X783Y10020D01*
X784Y10022D01*
X786Y10024D01*
X787Y10026D01*
X794Y10030D01*
X795Y10033D01*
X797Y10044D01*
X798Y10045D01*
X803Y10048D01*
X806Y10050D01*
X807Y10052D01*
X811Y10055D01*
X813Y10056D01*
X816Y10058D01*
X817Y10062D01*
X816Y10066D01*
X817Y10070D01*
X821Y10073D01*
X825Y10075D01*
X826Y10077D01*
X828Y10079D01*
X829Y10080D01*
X831Y10082D01*
X833Y10083D01*
X838Y10087D01*
X839Y10089D01*
X842Y10091D01*
X847Y10094D01*
X849Y10106D01*
X851Y10109D01*
X853Y10109D01*
X858Y10113D01*
X859Y10115D01*
X860Y10117D01*
X862Y10118D01*
X868Y10122D01*
X870Y10126D01*
X869Y10130D01*
X870Y10134D01*
X874Y10137D01*
X876Y10138D01*
X880Y10141D01*
X881Y10143D01*
X885Y10146D01*
X889Y10149D01*
X890Y10152D01*
X892Y10163D01*
X897Y10165D01*
X917Y10162D01*
D02*
G37*
G36*
X776Y9483D02*
X778Y9481D01*
X779Y9479D01*
X782Y9474D01*
X786Y9473D01*
X797Y9472D01*
X800Y9469D01*
X803Y9464D01*
X808Y9462D01*
X819Y9461D01*
X821Y9459D01*
X824Y9454D01*
X826Y9452D01*
X831Y9452D01*
X838Y9452D01*
X842Y9449D01*
X846Y9442D01*
X861Y9441D01*
X864Y9437D01*
X867Y9432D01*
X872Y9430D01*
X879Y9431D01*
X883Y9429D01*
X885Y9427D01*
X888Y9421D01*
X892Y9420D01*
X903Y9419D01*
X907Y9415D01*
X910Y9410D01*
X914Y9409D01*
X925Y9408D01*
X927Y9406D01*
X930Y9401D01*
X932Y9399D01*
X936Y9398D01*
X941Y9399D01*
X946Y9398D01*
X948Y9396D01*
X949Y9392D01*
Y9385D01*
Y9384D01*
X949Y9375D01*
X948Y9371D01*
X945Y9367D01*
X940Y9364D01*
X938Y9359D01*
X939Y9351D01*
X936Y9347D01*
X934Y9346D01*
X929Y9344D01*
X928Y9339D01*
X927Y9328D01*
X924Y9325D01*
X920Y9324D01*
X911Y9325D01*
X907Y9329D01*
X904Y9334D01*
X895Y9336D01*
X891Y9335D01*
X883Y9334D01*
X880Y9335D01*
X878Y9336D01*
X876Y9338D01*
X873Y9344D01*
X871Y9345D01*
X867Y9346D01*
X860Y9346D01*
X856Y9347D01*
X850Y9356D01*
X836Y9357D01*
X833Y9360D01*
X830Y9366D01*
X828Y9367D01*
X814Y9368D01*
X812Y9370D01*
X809Y9376D01*
X807Y9377D01*
X803Y9378D01*
X794Y9377D01*
X791Y9374D01*
X790Y9370D01*
X789Y9359D01*
X787Y9357D01*
X782Y9354D01*
X780Y9352D01*
X779Y9348D01*
X780Y9330D01*
X776Y9325D01*
X771Y9322D01*
X769Y9320D01*
X768Y9306D01*
X759Y9301D01*
X758Y9296D01*
X759Y9278D01*
X757Y9274D01*
X754Y9272D01*
X748Y9269D01*
X747Y9254D01*
X743Y9250D01*
X738Y9247D01*
X737Y9233D01*
X734Y9231D01*
X729Y9227D01*
X727Y9226D01*
X726Y9221D01*
X727Y9215D01*
X725Y9210D01*
X717Y9205D01*
X716Y9191D01*
X712Y9188D01*
X707Y9184D01*
X705Y9179D01*
X704Y9168D01*
X703Y9167D01*
X698Y9165D01*
X688Y9167D01*
X685Y9169D01*
X682Y9175D01*
X680Y9177D01*
X666Y9178D01*
X664Y9179D01*
X663Y9181D01*
X660Y9186D01*
X657Y9188D01*
X652Y9193D01*
X651Y9195D01*
X649Y9197D01*
X641Y9199D01*
X636Y9197D01*
X624Y9199D01*
X621Y9201D01*
X620Y9206D01*
X621Y9223D01*
X620Y9227D01*
X621Y9237D01*
X624Y9239D01*
X630Y9243D01*
X633Y9247D01*
X637Y9251D01*
X640Y9253D01*
X641Y9254D01*
X642Y9259D01*
X642Y9277D01*
X645Y9281D01*
X647Y9282D01*
X651Y9285D01*
X652Y9287D01*
X656Y9292D01*
X662Y9296D01*
X663Y9297D01*
X664Y9312D01*
X666Y9313D01*
X673Y9317D01*
X674Y9324D01*
X673Y9327D01*
X675Y9333D01*
X677Y9334D01*
X684Y9339D01*
X685Y9353D01*
X688Y9356D01*
X694Y9360D01*
X695Y9361D01*
X695Y9371D01*
X696Y9375D01*
X704Y9379D01*
X705Y9381D01*
X706Y9395D01*
X709Y9398D01*
X715Y9401D01*
X716Y9403D01*
X717Y9417D01*
X719Y9419D01*
X726Y9423D01*
X727Y9430D01*
X726Y9433D01*
X728Y9439D01*
X730Y9440D01*
X737Y9445D01*
X738Y9459D01*
X740Y9461D01*
X742Y9462D01*
X748Y9467D01*
X749Y9481D01*
X751Y9483D01*
X759Y9484D01*
X765Y9483D01*
X769Y9484D01*
X776Y9483D01*
D02*
G37*
G36*
X5162Y9398D02*
X5163Y9391D01*
X5162Y9384D01*
X5163Y9330D01*
X5162Y9326D01*
X5159Y9323D01*
X5154Y9320D01*
X5153Y9316D01*
X5154Y9313D01*
X5153Y9307D01*
X5151Y9304D01*
X5144Y9303D01*
X5136Y9304D01*
X5133Y9303D01*
X5128Y9304D01*
X5125Y9307D01*
X5122Y9312D01*
X5117Y9314D01*
X5109Y9312D01*
X5105Y9309D01*
X5105Y9302D01*
X5106Y9299D01*
X5105Y9280D01*
X5107Y9276D01*
X5109Y9275D01*
X5111Y9274D01*
X5115Y9270D01*
X5116Y9257D01*
X5118Y9256D01*
X5125Y9252D01*
X5126Y9248D01*
X5127Y9238D01*
X5130Y9236D01*
X5135Y9233D01*
X5136Y9228D01*
X5135Y9221D01*
X5139Y9216D01*
X5144Y9214D01*
X5146Y9212D01*
X5147Y9199D01*
X5153Y9195D01*
X5156Y9192D01*
X5157Y9190D01*
X5160Y9187D01*
X5162Y9186D01*
X5164Y9185D01*
X5167Y9180D01*
X5166Y9163D01*
X5169Y9159D01*
X5175Y9157D01*
X5176Y9153D01*
X5175Y9151D01*
X5173Y9148D01*
X5168Y9145D01*
X5166Y9143D01*
X5165Y9141D01*
X5163Y9139D01*
X5159Y9138D01*
X5155Y9139D01*
X5150Y9137D01*
X5147Y9134D01*
X5144Y9129D01*
X5131Y9128D01*
X5129Y9125D01*
X5128Y9123D01*
X5124Y9119D01*
X5122Y9118D01*
X5119Y9115D01*
X5118Y9113D01*
X5117Y9112D01*
X5117Y9111D01*
X5114Y9108D01*
X5110Y9107D01*
X5103Y9108D01*
X5101Y9110D01*
X5100Y9112D01*
X5095Y9117D01*
X5093Y9118D01*
X5088Y9123D01*
X5087Y9125D01*
X5086Y9126D01*
X5084Y9127D01*
X5079Y9131D01*
X5078Y9144D01*
X5076Y9145D01*
X5071Y9148D01*
X5069Y9151D01*
X5067Y9164D01*
X5059Y9169D01*
X5058Y9176D01*
X5059Y9186D01*
X5058Y9192D01*
X5056Y9194D01*
X5049Y9197D01*
X5048Y9201D01*
X5047Y9211D01*
X5045Y9214D01*
X5039Y9217D01*
X5038Y9221D01*
X5039Y9227D01*
X5036Y9232D01*
X5030Y9236D01*
X5028Y9237D01*
X5027Y9250D01*
X5024Y9253D01*
X5022Y9254D01*
X5018Y9257D01*
X5017Y9259D01*
X5014Y9262D01*
X5012Y9263D01*
X5010Y9264D01*
X5008Y9269D01*
X5008Y9287D01*
X5006Y9289D01*
X5006Y9290D01*
X5001Y9293D01*
X4998Y9296D01*
X4997Y9298D01*
X4993Y9301D01*
X4991Y9302D01*
X4988Y9306D01*
X4986Y9309D01*
X4981Y9311D01*
X4970Y9310D01*
X4965Y9311D01*
X4960Y9308D01*
X4958Y9301D01*
X4959Y9297D01*
X4959Y9287D01*
X4963Y9281D01*
X4968Y9278D01*
X4970Y9266D01*
X4972Y9263D01*
X4978Y9259D01*
X4979Y9258D01*
X4981Y9245D01*
X4987Y9241D01*
X4989Y9239D01*
X4990Y9237D01*
X4995Y9232D01*
X4997Y9231D01*
X4999Y9229D01*
X5000Y9222D01*
X4999Y9218D01*
X5001Y9206D01*
X5002Y9205D01*
X5004Y9204D01*
X5010Y9199D01*
X5011Y9186D01*
X5019Y9181D01*
X5021Y9168D01*
X5023Y9166D01*
X5028Y9163D01*
X5030Y9161D01*
X5029Y9139D01*
X5027Y9136D01*
X5023Y9135D01*
X5006Y9136D01*
X5002Y9132D01*
X5001Y9130D01*
X4998Y9127D01*
X4996Y9126D01*
X4992Y9122D01*
X4989Y9117D01*
X4984Y9115D01*
X4978Y9116D01*
X4974Y9114D01*
X4973Y9113D01*
X4970Y9107D01*
X4968Y9106D01*
X4964Y9105D01*
X4957Y9106D01*
X4955Y9107D01*
X4954Y9109D01*
X4949Y9115D01*
X4944Y9118D01*
X4942Y9122D01*
X4943Y9129D01*
X4939Y9134D01*
X4934Y9137D01*
X4933Y9138D01*
X4932Y9145D01*
X4933Y9149D01*
X4933Y9155D01*
X4932Y9160D01*
X4929Y9163D01*
X4924Y9166D01*
X4920Y9172D01*
X4917Y9173D01*
X4913Y9176D01*
X4912Y9181D01*
X4912Y9197D01*
X4911Y9199D01*
X4909Y9201D01*
X4907Y9202D01*
X4904Y9204D01*
X4903Y9206D01*
X4899Y9211D01*
X4893Y9214D01*
X4892Y9219D01*
X4893Y9235D01*
X4888Y9240D01*
X4883Y9243D01*
X4881Y9257D01*
X4878Y9260D01*
X4873Y9263D01*
X4872Y9264D01*
X4870Y9277D01*
X4869Y9279D01*
X4863Y9281D01*
X4862Y9285D01*
X4861Y9295D01*
X4858Y9298D01*
X4856Y9299D01*
X4853Y9301D01*
X4850Y9306D01*
X4848Y9308D01*
X4844Y9309D01*
X4828Y9307D01*
X4693Y9306D01*
X4682Y9305D01*
X4677Y9308D01*
X4674Y9313D01*
X4668Y9317D01*
X4666Y9322D01*
X4666Y9339D01*
X4665Y9387D01*
X4667Y9390D01*
X4668Y9392D01*
X4672Y9393D01*
X5159Y9401D01*
X5162Y9398D01*
D02*
G37*
G36*
X1054Y9461D02*
X1055Y9459D01*
X1060Y9453D01*
X1064Y9450D01*
X1065Y9448D01*
X1069Y9443D01*
X1074Y9442D01*
X1078Y9443D01*
X1083Y9442D01*
X1085Y9440D01*
X1089Y9433D01*
X1093Y9432D01*
X1104Y9431D01*
X1107Y9428D01*
X1110Y9422D01*
X1115Y9421D01*
X1126Y9420D01*
X1128Y9418D01*
X1129Y9414D01*
X1128Y9404D01*
X1125Y9401D01*
X1119Y9398D01*
X1118Y9396D01*
X1117Y9382D01*
X1115Y9380D01*
X1110Y9377D01*
X1108Y9375D01*
X1107Y9371D01*
X1108Y9364D01*
X1105Y9359D01*
X1097Y9355D01*
X1096Y9340D01*
X1093Y9337D01*
X1087Y9334D01*
X1083Y9327D01*
X1081Y9326D01*
X1076Y9322D01*
X1075Y9308D01*
X1073Y9306D01*
X1066Y9302D01*
X1065Y9298D01*
X1064Y9287D01*
X1061Y9284D01*
X1056Y9281D01*
X1054Y9276D01*
X1055Y9268D01*
X1051Y9263D01*
X1046Y9260D01*
X1044Y9258D01*
X1043Y9244D01*
X1034Y9238D01*
X1033Y9234D01*
X1032Y9223D01*
X1029Y9220D01*
X1024Y9217D01*
X1022Y9204D01*
X1020Y9200D01*
X1013Y9196D01*
X1012Y9192D01*
X1011Y9181D01*
X1008Y9178D01*
X1003Y9175D01*
X1001Y9170D01*
X1002Y9162D01*
X998Y9157D01*
X993Y9154D01*
X991Y9152D01*
X988Y9147D01*
X982Y9145D01*
X971Y9146D01*
X955Y9146D01*
X951Y9148D01*
X949Y9150D01*
X948Y9152D01*
X943Y9157D01*
X941Y9158D01*
X938Y9161D01*
X935Y9166D01*
X931Y9167D01*
X920Y9168D01*
X917Y9171D01*
X914Y9177D01*
X909Y9178D01*
X902Y9178D01*
X898Y9179D01*
X896Y9181D01*
X893Y9186D01*
X891Y9188D01*
X887Y9189D01*
X872Y9188D01*
X867Y9189D01*
X865Y9191D01*
X864Y9193D01*
X860Y9198D01*
X858Y9199D01*
X853Y9204D01*
X852Y9206D01*
X849Y9209D01*
X845Y9210D01*
X841Y9209D01*
X835Y9210D01*
X833Y9212D01*
X829Y9219D01*
X825Y9220D01*
X814Y9221D01*
X811Y9224D01*
X808Y9229D01*
X802Y9233D01*
X800Y9235D01*
X801Y9259D01*
X804Y9262D01*
X810Y9265D01*
X811Y9270D01*
X811Y9276D01*
X812Y9281D01*
X814Y9283D01*
X820Y9286D01*
X822Y9293D01*
X821Y9297D01*
X822Y9301D01*
X825Y9304D01*
X826Y9304D01*
X834Y9306D01*
X841Y9302D01*
X842Y9300D01*
X846Y9295D01*
X850Y9294D01*
X868Y9295D01*
X871Y9293D01*
X874Y9290D01*
X877Y9285D01*
X884Y9283D01*
X887Y9284D01*
X892Y9283D01*
X895Y9280D01*
X898Y9275D01*
X900Y9273D01*
X914Y9272D01*
X916Y9270D01*
X919Y9265D01*
X922Y9262D01*
X934Y9263D01*
X937Y9266D01*
X938Y9268D01*
X941Y9272D01*
X943Y9273D01*
X948Y9277D01*
X949Y9279D01*
X954Y9284D01*
X956Y9285D01*
X958Y9287D01*
X959Y9289D01*
X961Y9291D01*
X962Y9293D01*
X964Y9294D01*
X970Y9299D01*
X971Y9313D01*
X980Y9319D01*
X981Y9333D01*
X984Y9336D01*
X989Y9339D01*
X991Y9341D01*
X992Y9355D01*
X994Y9357D01*
X1001Y9361D01*
X1002Y9367D01*
X1001Y9371D01*
X1002Y9376D01*
X1011Y9382D01*
X1013Y9397D01*
X1015Y9399D01*
X1017Y9400D01*
X1023Y9405D01*
X1022Y9414D01*
X1024Y9419D01*
X1032Y9424D01*
X1034Y9429D01*
X1033Y9448D01*
X1035Y9451D01*
X1037Y9452D01*
X1039Y9454D01*
X1041Y9455D01*
X1046Y9463D01*
X1050Y9464D01*
X1054Y9461D01*
D02*
G37*
G36*
X3709Y9181D02*
X3710Y9180D01*
X3713Y9175D01*
X3717Y9173D01*
X3718Y9163D01*
X3721Y9160D01*
X3725Y9157D01*
X3726Y9156D01*
X3726Y9102D01*
X3727Y9099D01*
X3729Y9097D01*
X3733Y9094D01*
X3734Y9091D01*
X3733Y9075D01*
X3734Y9062D01*
X3733Y9054D01*
X3736Y9050D01*
X3740Y9048D01*
X3741Y9047D01*
X3742Y9041D01*
X3741Y9019D01*
X3742Y9017D01*
X3739Y9011D01*
X3734Y9008D01*
X3733Y9005D01*
X3734Y8999D01*
X3730Y8995D01*
X3726Y8992D01*
X3725Y8988D01*
X3726Y8980D01*
X3725Y8974D01*
X3722Y8971D01*
X3719Y8969D01*
X3718Y8966D01*
X3717Y8958D01*
X3716Y8957D01*
X3714Y8956D01*
X3711Y8954D01*
X3711Y8952D01*
X3709Y8950D01*
X3708Y8949D01*
X3707Y8948D01*
X3705Y8947D01*
X3704Y8946D01*
X3700Y8941D01*
X3696Y8939D01*
X3686Y8940D01*
X3621Y8940D01*
X3618Y8942D01*
X3614Y8947D01*
X3610Y8948D01*
X3597Y8948D01*
X3426Y8948D01*
X3417Y8948D01*
X3415Y8949D01*
X3414Y8950D01*
X3411Y8955D01*
X3408Y8956D01*
X3263Y8955D01*
X3259Y8956D01*
X3257Y8958D01*
X3255Y8962D01*
X3254Y8963D01*
X3250Y8964D01*
X3239Y8964D01*
X3233Y8964D01*
X3231Y8963D01*
X3228Y8964D01*
X3220Y8963D01*
X3217Y8960D01*
X3216Y8955D01*
X3217Y8951D01*
X3220Y8948D01*
X3222Y8948D01*
X3224Y8946D01*
X3225Y8945D01*
X3227Y8941D01*
X3230Y8940D01*
X3238Y8939D01*
X3241Y8937D01*
X3243Y8933D01*
X3246Y8932D01*
X3254Y8931D01*
X3256Y8930D01*
X3258Y8926D01*
X3259Y8925D01*
X3263Y8924D01*
X3265Y8925D01*
X3270Y8924D01*
X3271Y8923D01*
X3274Y8917D01*
X3277Y8917D01*
X3285Y8916D01*
X3287Y8914D01*
X3290Y8910D01*
X3293Y8909D01*
X3307Y8909D01*
X3311Y8906D01*
X3313Y8902D01*
X3324Y8901D01*
X3327Y8898D01*
X3329Y8894D01*
X3330Y8893D01*
X3345Y8893D01*
X3348Y8892D01*
X3350Y8890D01*
X3353Y8886D01*
X3357Y8885D01*
X3360Y8886D01*
X3364Y8885D01*
X3365Y8884D01*
X3368Y8878D01*
X3371Y8878D01*
X3379Y8877D01*
X3381Y8875D01*
X3384Y8871D01*
X3387Y8869D01*
X3400Y8870D01*
X3404Y8868D01*
X3407Y8862D01*
X3418Y8862D01*
X3420Y8859D01*
X3423Y8855D01*
X3426Y8854D01*
X3440Y8854D01*
X3443Y8852D01*
X3444Y8851D01*
X3446Y8847D01*
X3451Y8846D01*
X3453Y8847D01*
X3457Y8846D01*
X3459Y8844D01*
X3462Y8840D01*
X3463Y8838D01*
X3469Y8838D01*
X3471Y8838D01*
X3477Y8839D01*
X3479Y8838D01*
X3481Y8838D01*
X3483Y8836D01*
X3485Y8831D01*
X3489Y8830D01*
X3494Y8831D01*
X3498Y8829D01*
X3499Y8827D01*
X3502Y8823D01*
X3504Y8822D01*
X3507Y8819D01*
X3508Y8818D01*
X3510Y8815D01*
X3521Y8814D01*
X3522Y8813D01*
X3523Y8802D01*
X3526Y8799D01*
X3527Y8798D01*
X3530Y8796D01*
X3531Y8794D01*
X3533Y8792D01*
X3535Y8791D01*
X3538Y8787D01*
X3540Y8785D01*
X3543Y8784D01*
X3552Y8783D01*
X3556Y8776D01*
X3562Y8775D01*
X3565Y8776D01*
X3567Y8776D01*
X3569Y8778D01*
X3571Y8783D01*
X3575Y8784D01*
X3606Y8783D01*
X3609Y8780D01*
X3611Y8776D01*
X3614Y8776D01*
X3627Y8776D01*
X3631Y8774D01*
X3631Y8773D01*
X3634Y8768D01*
X3638Y8767D01*
X3641Y8768D01*
X3645Y8767D01*
X3648Y8765D01*
X3650Y8761D01*
X3661Y8760D01*
X3662Y8758D01*
X3665Y8754D01*
X3666Y8753D01*
X3669Y8752D01*
X3675Y8752D01*
X3677Y8751D01*
X3681Y8745D01*
X3685Y8744D01*
X3698Y8745D01*
X3702Y8743D01*
X3704Y8737D01*
X3708Y8736D01*
X3716Y8736D01*
X3718Y8734D01*
X3720Y8730D01*
X3725Y8728D01*
X3728Y8729D01*
X3731Y8728D01*
X3733Y8726D01*
X3734Y8723D01*
X3733Y8717D01*
X3736Y8714D01*
X3740Y8711D01*
X3741Y8710D01*
X3742Y8704D01*
X3741Y8701D01*
X3739Y8698D01*
X3737Y8697D01*
X3734Y8695D01*
X3733Y8692D01*
X3734Y8686D01*
X3730Y8682D01*
X3726Y8679D01*
X3725Y8675D01*
X3726Y8667D01*
X3725Y8661D01*
X3722Y8658D01*
X3719Y8656D01*
X3718Y8653D01*
X3717Y8645D01*
X3715Y8643D01*
X3711Y8640D01*
X3710Y8637D01*
X3711Y8624D01*
X3708Y8620D01*
X3706Y8619D01*
X3702Y8616D01*
X3702Y8606D01*
X3700Y8604D01*
X3696Y8602D01*
X3695Y8601D01*
X3694Y8597D01*
X3695Y8593D01*
X3693Y8589D01*
X3687Y8586D01*
X3686Y8575D01*
X3684Y8573D01*
X3680Y8570D01*
X3677Y8566D01*
X3676Y8565D01*
X3674Y8564D01*
X3673Y8563D01*
X3671Y8560D01*
X3669Y8558D01*
X3668Y8557D01*
X3666Y8555D01*
X3664Y8555D01*
X3661Y8550D01*
X3660Y8549D01*
X3656Y8546D01*
X3655Y8543D01*
X3656Y8538D01*
X3654Y8534D01*
X3650Y8532D01*
X3648Y8530D01*
X3647Y8528D01*
X3646Y8526D01*
X3642Y8525D01*
X3640Y8525D01*
X3619Y8526D01*
X3617Y8528D01*
X3614Y8532D01*
X3611Y8533D01*
X3605Y8533D01*
X3602Y8534D01*
X3601Y8536D01*
X3599Y8540D01*
X3598Y8541D01*
X3587Y8542D01*
X3586Y8543D01*
X3583Y8548D01*
X3580Y8549D01*
X3572Y8550D01*
X3569Y8552D01*
X3567Y8556D01*
X3563Y8557D01*
X3560Y8556D01*
X3556Y8557D01*
X3555Y8558D01*
X3552Y8562D01*
X3550Y8564D01*
X3549Y8565D01*
X3546Y8568D01*
X3545Y8570D01*
X3542Y8573D01*
X3534Y8572D01*
X3532Y8574D01*
X3530Y8575D01*
X3528Y8580D01*
X3518Y8580D01*
X3516Y8582D01*
X3515Y8584D01*
X3512Y8587D01*
X3510Y8588D01*
X3508Y8589D01*
X3508Y8591D01*
X3504Y8595D01*
X3501Y8596D01*
X3497Y8595D01*
X3493Y8596D01*
X3492Y8597D01*
X3489Y8603D01*
X3486Y8604D01*
X3478Y8604D01*
X3476Y8606D01*
X3473Y8611D01*
X3468Y8614D01*
X3468Y8615D01*
X3465Y8619D01*
X3454Y8620D01*
X3453Y8621D01*
X3450Y8625D01*
X3448Y8627D01*
X3447Y8628D01*
X3444Y8631D01*
X3443Y8633D01*
X3441Y8635D01*
X3438Y8635D01*
X3435Y8635D01*
X3431Y8635D01*
X3431Y8636D01*
X3430Y8636D01*
X3428Y8638D01*
X3426Y8642D01*
X3415Y8643D01*
X3414Y8645D01*
X3411Y8649D01*
X3410Y8650D01*
X3407Y8651D01*
X3402Y8650D01*
X3399Y8653D01*
X3397Y8654D01*
X3397Y8655D01*
X3394Y8658D01*
X3392Y8659D01*
X3389Y8662D01*
X3387Y8666D01*
X3384Y8666D01*
X3376Y8667D01*
X3375Y8668D01*
X3374Y8670D01*
X3372Y8673D01*
X3370Y8674D01*
X3366Y8677D01*
X3366Y8678D01*
X3363Y8682D01*
X3357Y8683D01*
X3355Y8682D01*
X3349Y8681D01*
X3346Y8682D01*
X3345Y8683D01*
X3343Y8685D01*
X3342Y8686D01*
X3340Y8689D01*
X3337Y8690D01*
X3324Y8689D01*
X3320Y8691D01*
X3317Y8697D01*
X3306Y8698D01*
X3304Y8700D01*
X3301Y8704D01*
X3300Y8706D01*
X3289Y8706D01*
X3286Y8711D01*
X3285Y8713D01*
X3283Y8714D01*
X3280Y8717D01*
X3279Y8718D01*
X3276Y8721D01*
X3271Y8722D01*
X3268Y8721D01*
X3263Y8720D01*
X3257Y8723D01*
X3256Y8725D01*
X3254Y8728D01*
X3252Y8729D01*
X3250Y8730D01*
X3249Y8732D01*
X3245Y8736D01*
X3235Y8737D01*
X3231Y8744D01*
X3227Y8745D01*
X3219Y8745D01*
X3217Y8748D01*
X3215Y8752D01*
X3210Y8753D01*
X3208Y8752D01*
X3204Y8753D01*
X3203Y8754D01*
X3200Y8759D01*
X3196Y8760D01*
X3188Y8761D01*
X3186Y8763D01*
X3184Y8767D01*
X3180Y8768D01*
X3175Y8768D01*
X3172Y8769D01*
X3171Y8770D01*
X3168Y8774D01*
X3167Y8776D01*
X3157Y8776D01*
X3155Y8778D01*
X3152Y8783D01*
X3149Y8784D01*
X3141Y8785D01*
X3139Y8787D01*
X3137Y8791D01*
X3133Y8792D01*
X3130Y8791D01*
X3126Y8792D01*
X3124Y8793D01*
X3122Y8797D01*
X3120Y8799D01*
X3118Y8800D01*
X3115Y8803D01*
X3115Y8805D01*
X3112Y8807D01*
X3104Y8807D01*
X3102Y8809D01*
X3098Y8814D01*
X3095Y8815D01*
X3093Y8814D01*
X3089Y8808D01*
X3086Y8807D01*
X3082Y8807D01*
X3079Y8807D01*
X3076Y8804D01*
X3074Y8800D01*
X3063Y8799D01*
X3062Y8797D01*
X3059Y8793D01*
X3057Y8791D01*
X3049Y8792D01*
X3046Y8790D01*
X3042Y8784D01*
X3032Y8783D01*
X3030Y8781D01*
X3027Y8777D01*
X3026Y8776D01*
X3011Y8776D01*
X3008Y8775D01*
X3006Y8773D01*
X3004Y8769D01*
X3000Y8767D01*
X2997Y8768D01*
X2993Y8767D01*
X2991Y8765D01*
X2988Y8761D01*
X2987Y8760D01*
X2981Y8759D01*
X2979Y8760D01*
X2973Y8761D01*
X2971Y8760D01*
X2969Y8759D01*
X2967Y8757D01*
X2965Y8753D01*
X2961Y8752D01*
X2956Y8752D01*
X2953Y8751D01*
X2952Y8750D01*
X2949Y8745D01*
X2946Y8745D01*
X2938Y8744D01*
X2936Y8742D01*
X2935Y8740D01*
X2933Y8737D01*
X2930Y8736D01*
X2917Y8737D01*
X2914Y8736D01*
X2912Y8734D01*
X2912Y8732D01*
X2910Y8729D01*
X2905Y8728D01*
X2903Y8729D01*
X2899Y8728D01*
X2897Y8726D01*
X2894Y8722D01*
X2893Y8721D01*
X2883Y8720D01*
X2881Y8719D01*
X2879Y8714D01*
X2875Y8713D01*
X2870Y8713D01*
X2867Y8712D01*
X2865Y8710D01*
X2863Y8706D01*
X2858Y8705D01*
X2848Y8706D01*
X2844Y8705D01*
X2841Y8702D01*
X2839Y8698D01*
X2836Y8697D01*
X2828Y8697D01*
X2826Y8694D01*
X2824Y8690D01*
X2820Y8689D01*
X2817Y8690D01*
X2812Y8689D01*
X2811Y8688D01*
X2808Y8683D01*
X2802Y8681D01*
X2799Y8682D01*
X2793Y8683D01*
X2788Y8680D01*
X2785Y8676D01*
X2783Y8674D01*
X2775Y8674D01*
X2772Y8672D01*
X2769Y8667D01*
X2758Y8666D01*
X2756Y8664D01*
X2753Y8659D01*
X2752Y8658D01*
X2742Y8657D01*
X2740Y8656D01*
X2737Y8651D01*
X2733Y8650D01*
X2731Y8651D01*
X2727Y8650D01*
X2724Y8647D01*
X2722Y8643D01*
X2711Y8642D01*
X2709Y8641D01*
X2707Y8637D01*
X2706Y8635D01*
X2702Y8635D01*
X2698Y8635D01*
X2694Y8633D01*
X2691Y8628D01*
X2680Y8627D01*
X2678Y8624D01*
X2675Y8620D01*
X2670Y8617D01*
X2669Y8615D01*
X2667Y8612D01*
X2663Y8611D01*
X2660Y8612D01*
X2656Y8611D01*
X2655Y8610D01*
X2652Y8604D01*
X2649Y8604D01*
X2640Y8603D01*
X2638Y8601D01*
X2636Y8597D01*
X2632Y8595D01*
X2627Y8596D01*
X2624Y8595D01*
X2623Y8593D01*
X2621Y8589D01*
X2619Y8588D01*
X2618Y8587D01*
X2616Y8586D01*
X2615Y8584D01*
X2611Y8580D01*
X2596Y8580D01*
X2593Y8579D01*
X2591Y8577D01*
X2589Y8573D01*
X2585Y8572D01*
X2583Y8573D01*
X2578Y8572D01*
X2576Y8571D01*
X2574Y8567D01*
X2572Y8564D01*
X2570Y8564D01*
X2567Y8561D01*
X2567Y8559D01*
X2565Y8557D01*
X2562Y8556D01*
X2557Y8557D01*
X2552Y8553D01*
X2550Y8549D01*
X2539Y8549D01*
X2537Y8547D01*
X2537Y8545D01*
X2533Y8541D01*
X2518Y8541D01*
X2515Y8540D01*
X2513Y8538D01*
X2510Y8534D01*
X2507Y8533D01*
X2504Y8533D01*
X2499Y8533D01*
X2498Y8531D01*
X2495Y8526D01*
X2492Y8525D01*
X2484Y8525D01*
X2482Y8522D01*
X2481Y8521D01*
X2480Y8519D01*
X2478Y8518D01*
X2474Y8514D01*
X2471Y8510D01*
X2467Y8509D01*
X2459Y8510D01*
X2440Y8509D01*
X2437Y8511D01*
X2435Y8512D01*
X2435Y8514D01*
X2432Y8517D01*
X2430Y8518D01*
X2428Y8519D01*
X2427Y8521D01*
X2426Y8522D01*
X2425Y8524D01*
X2420Y8527D01*
X2419Y8530D01*
X2418Y8539D01*
X2417Y8540D01*
X2412Y8543D01*
X2411Y8546D01*
X2410Y8554D01*
X2408Y8556D01*
X2406Y8557D01*
X2403Y8561D01*
X2402Y8562D01*
X2400Y8564D01*
X2396Y8567D01*
X2395Y8578D01*
X2393Y8580D01*
X2389Y8582D01*
X2387Y8584D01*
X2388Y8591D01*
X2387Y8594D01*
X2381Y8597D01*
X2380Y8598D01*
X2379Y8609D01*
X2377Y8611D01*
X2376Y8612D01*
X2373Y8614D01*
X2372Y8615D01*
X2370Y8618D01*
X2368Y8619D01*
X2365Y8622D01*
X2364Y8625D01*
X2365Y8638D01*
X2361Y8643D01*
X2357Y8645D01*
X2356Y8650D01*
X2356Y8653D01*
X2356Y8708D01*
X2357Y8711D01*
X2359Y8713D01*
X2361Y8714D01*
X2363Y8715D01*
X2364Y8717D01*
X2367Y8721D01*
X2378Y8722D01*
X2382Y8728D01*
X2385Y8729D01*
X2399Y8729D01*
X2402Y8730D01*
X2405Y8736D01*
X2408Y8736D01*
X2416Y8737D01*
X2418Y8739D01*
X2419Y8741D01*
X2421Y8744D01*
X2424Y8745D01*
X2438Y8744D01*
X2441Y8746D01*
X2444Y8752D01*
X2449Y8753D01*
X2451Y8752D01*
X2455Y8753D01*
X2457Y8755D01*
X2460Y8759D01*
X2461Y8760D01*
X2472Y8761D01*
X2473Y8762D01*
X2475Y8766D01*
X2477Y8768D01*
X2493Y8768D01*
X2496Y8770D01*
X2499Y8774D01*
X2500Y8776D01*
X2511Y8776D01*
X2515Y8783D01*
X2518Y8784D01*
X2532Y8783D01*
X2536Y8786D01*
X2539Y8791D01*
X2543Y8792D01*
X2546Y8791D01*
X2549Y8792D01*
X2552Y8795D01*
X2554Y8799D01*
X2565Y8800D01*
X2567Y8801D01*
X2569Y8805D01*
X2570Y8807D01*
X2574Y8807D01*
X2579Y8807D01*
X2582Y8808D01*
X2585Y8814D01*
X2589Y8816D01*
X2602Y8815D01*
X2606Y8817D01*
X2609Y8822D01*
X2612Y8823D01*
X2620Y8824D01*
X2622Y8826D01*
X2625Y8830D01*
X2629Y8831D01*
X2632Y8830D01*
X2636Y8831D01*
X2638Y8833D01*
X2640Y8837D01*
X2641Y8838D01*
X2652Y8839D01*
X2656Y8846D01*
X2659Y8847D01*
X2665Y8846D01*
X2667Y8847D01*
X2669Y8849D01*
X2671Y8853D01*
X2672Y8854D01*
X2678Y8855D01*
X2684Y8854D01*
X2690Y8855D01*
X2692Y8857D01*
X2695Y8861D01*
X2696Y8862D01*
X2707Y8863D01*
X2708Y8864D01*
X2710Y8868D01*
X2711Y8869D01*
X2715Y8870D01*
X2729Y8869D01*
X2731Y8870D01*
X2737Y8869D01*
X2739Y8867D01*
X2741Y8863D01*
X2744Y8862D01*
X2746Y8863D01*
X2748Y8864D01*
X2751Y8869D01*
X2754Y8870D01*
X2760Y8869D01*
X2763Y8873D01*
X2764Y8875D01*
X2767Y8878D01*
X2768Y8878D01*
X2771Y8881D01*
X2773Y8885D01*
X2777Y8886D01*
X2782Y8885D01*
X2786Y8888D01*
X2787Y8889D01*
X2789Y8892D01*
X2790Y8893D01*
X2794Y8896D01*
X2797Y8900D01*
X2798Y8901D01*
X2808Y8902D01*
X2810Y8903D01*
X2812Y8909D01*
X2817Y8909D01*
X2819Y8909D01*
X2823Y8909D01*
X2826Y8912D01*
X2828Y8916D01*
X2839Y8917D01*
X2841Y8919D01*
X2843Y8923D01*
X2844Y8924D01*
X2848Y8925D01*
X2861Y8924D01*
X2864Y8927D01*
X2867Y8931D01*
X2868Y8932D01*
X2879Y8933D01*
X2880Y8934D01*
X2883Y8940D01*
X2894Y8941D01*
X2896Y8943D01*
X2897Y8946D01*
X2896Y8953D01*
X2894Y8955D01*
X2891Y8956D01*
X2695Y8955D01*
X2693Y8953D01*
X2691Y8949D01*
X2687Y8948D01*
X2677Y8948D01*
X2532Y8948D01*
X2530Y8948D01*
X2523Y8948D01*
X2522Y8946D01*
X2521Y8945D01*
X2519Y8941D01*
X2515Y8939D01*
X2504Y8940D01*
X2377Y8940D01*
X2374Y8941D01*
X2373Y8942D01*
X2370Y8946D01*
X2369Y8948D01*
X2367Y8948D01*
X2365Y8950D01*
X2364Y8954D01*
X2365Y8972D01*
X2364Y9156D01*
X2366Y9158D01*
X2367Y9159D01*
X2372Y9162D01*
X2374Y9167D01*
X2379Y9168D01*
X2387Y9167D01*
X2571Y9167D01*
X2574Y9166D01*
X2575Y9165D01*
X2577Y9161D01*
X2579Y9160D01*
X2582Y9159D01*
X2595Y9160D01*
X2598Y9157D01*
X2601Y9153D01*
X2602Y9151D01*
X2613Y9151D01*
X2614Y9149D01*
X2617Y9144D01*
X2620Y9143D01*
X2625Y9144D01*
X2628Y9142D01*
X2630Y9140D01*
X2631Y9138D01*
X2633Y9136D01*
X2638Y9135D01*
X2640Y9136D01*
X2649Y9136D01*
X2652Y9137D01*
X2653Y9139D01*
X2657Y9143D01*
X2658Y9144D01*
X2661Y9147D01*
X2662Y9149D01*
X2665Y9151D01*
X2669Y9152D01*
X2713Y9151D01*
X2716Y9149D01*
X2718Y9145D01*
X2722Y9143D01*
X2732Y9144D01*
X2994Y9143D01*
X2997Y9144D01*
X3003Y9143D01*
X3005Y9141D01*
X3008Y9137D01*
X3009Y9136D01*
X3015Y9135D01*
X3017Y9136D01*
X3110Y9136D01*
X3113Y9137D01*
X3115Y9139D01*
X3118Y9143D01*
X3121Y9144D01*
X3137Y9143D01*
X3150Y9144D01*
X3158Y9143D01*
X3162Y9146D01*
X3164Y9150D01*
X3165Y9151D01*
X3226Y9151D01*
X3230Y9152D01*
X3232Y9154D01*
X3234Y9158D01*
X3236Y9159D01*
X3239Y9160D01*
X3249Y9159D01*
X3589Y9160D01*
X3592Y9159D01*
X3598Y9160D01*
X3600Y9162D01*
X3603Y9167D01*
X3607Y9168D01*
X3616Y9167D01*
X3653Y9168D01*
X3655Y9170D01*
X3658Y9174D01*
X3659Y9175D01*
X3682Y9175D01*
X3685Y9176D01*
X3686Y9177D01*
X3688Y9181D01*
X3690Y9182D01*
X3693Y9183D01*
X3700Y9183D01*
X3706Y9183D01*
X3709Y9181D01*
D02*
G37*
G36*
X1216Y8729D02*
X1218Y8726D01*
X1220Y8721D01*
X1225Y8716D01*
X1227Y8715D01*
X1225Y8702D01*
X1227Y8700D01*
X1233Y8695D01*
X1233Y8691D01*
X1233Y8690D01*
X1231Y8686D01*
X1232Y8682D01*
X1235Y8678D01*
X1239Y8675D01*
X1238Y8662D01*
X1241Y8659D01*
X1245Y8655D01*
X1246Y8654D01*
X1245Y8650D01*
X1242Y8648D01*
X1236Y8645D01*
X1234Y8643D01*
X1232Y8642D01*
X1231Y8640D01*
X1226Y8640D01*
X1211Y8643D01*
X1206Y8641D01*
X1202Y8636D01*
X1200Y8635D01*
X1187Y8636D01*
X1185Y8635D01*
X1182Y8630D01*
X1180Y8629D01*
X1178Y8628D01*
X1173Y8625D01*
X1171Y8623D01*
X1168Y8621D01*
X1156Y8622D01*
X1153Y8619D01*
X1152Y8618D01*
X1149Y8615D01*
X1145Y8614D01*
X1135Y8615D01*
X1133Y8613D01*
X1129Y8609D01*
X1128Y8608D01*
X1123Y8608D01*
X1117Y8609D01*
X1113Y8608D01*
X1109Y8603D01*
X1106Y8601D01*
X1104Y8600D01*
X1100Y8597D01*
X1097Y8593D01*
X1093Y8593D01*
X1086Y8595D01*
X1080Y8591D01*
X1078Y8589D01*
X1076Y8586D01*
X1062Y8588D01*
X1061Y8586D01*
X1056Y8580D01*
X1052Y8580D01*
X1042Y8581D01*
X1039Y8579D01*
X1035Y8574D01*
X1030Y8573D01*
X1027Y8575D01*
X1022Y8575D01*
X1019Y8573D01*
X1015Y8568D01*
X1013Y8567D01*
X1000Y8568D01*
X995Y8563D01*
X992Y8560D01*
X990Y8559D01*
X987Y8557D01*
X986Y8555D01*
X984Y8553D01*
X980Y8553D01*
X970Y8553D01*
X967Y8551D01*
X963Y8547D01*
X961Y8546D01*
X948Y8547D01*
X946Y8545D01*
X942Y8539D01*
X937Y8539D01*
X934Y8541D01*
X929Y8541D01*
X925Y8538D01*
X921Y8533D01*
X908Y8534D01*
X906Y8533D01*
X902Y8528D01*
X900Y8527D01*
X896Y8526D01*
X890Y8528D01*
X885Y8527D01*
X882Y8522D01*
X879Y8520D01*
X877Y8519D01*
X873Y8516D01*
X869Y8512D01*
X865Y8512D01*
X855Y8513D01*
X852Y8510D01*
X849Y8506D01*
X844Y8505D01*
X841Y8507D01*
X835Y8507D01*
X833Y8505D01*
X829Y8499D01*
X825Y8499D01*
X815Y8500D01*
X812Y8498D01*
X808Y8493D01*
X803Y8492D01*
X785Y8496D01*
X783Y8498D01*
X781Y8503D01*
X779Y8506D01*
X775Y8509D01*
X775Y8514D01*
X775Y8524D01*
X773Y8527D01*
X769Y8530D01*
X768Y8535D01*
X770Y8541D01*
X768Y8546D01*
X766Y8547D01*
X761Y8552D01*
X761Y8557D01*
X763Y8560D01*
X764Y8571D01*
X766Y8574D01*
X769Y8576D01*
X774Y8578D01*
X775Y8580D01*
X780Y8584D01*
X793Y8583D01*
X799Y8591D01*
X806Y8591D01*
X808Y8589D01*
X812Y8589D01*
X815Y8592D01*
X817Y8593D01*
X820Y8596D01*
X822Y8597D01*
X827Y8600D01*
X831Y8604D01*
X835Y8605D01*
X852Y8602D01*
X855Y8604D01*
X857Y8605D01*
X859Y8607D01*
X864Y8611D01*
X866Y8612D01*
X869Y8614D01*
X872Y8618D01*
X876Y8618D01*
X886Y8618D01*
X888Y8619D01*
X892Y8623D01*
X893Y8625D01*
X897Y8625D01*
X901Y8623D01*
X906Y8623D01*
X908Y8625D01*
X913Y8631D01*
X917Y8631D01*
X927Y8630D01*
X930Y8632D01*
X933Y8637D01*
X938Y8638D01*
X945Y8636D01*
X948Y8637D01*
X950Y8638D01*
X954Y8643D01*
X955Y8644D01*
X958Y8645D01*
X962Y8648D01*
X963Y8650D01*
X967Y8653D01*
X980Y8651D01*
X986Y8659D01*
X990Y8659D01*
X997Y8657D01*
X1002Y8660D01*
X1006Y8664D01*
X1008Y8665D01*
X1021Y8664D01*
X1022Y8666D01*
X1027Y8672D01*
X1031Y8672D01*
X1037Y8670D01*
X1041Y8671D01*
X1044Y8673D01*
X1047Y8677D01*
X1049Y8678D01*
X1054Y8681D01*
X1058Y8685D01*
X1063Y8686D01*
X1078Y8683D01*
X1082Y8684D01*
X1085Y8686D01*
X1086Y8688D01*
X1091Y8692D01*
X1093Y8693D01*
X1096Y8695D01*
X1100Y8699D01*
X1113Y8698D01*
X1116Y8701D01*
X1120Y8705D01*
X1125Y8706D01*
X1130Y8704D01*
X1134Y8705D01*
X1141Y8712D01*
X1154Y8711D01*
X1157Y8713D01*
X1161Y8718D01*
X1163Y8719D01*
X1176Y8718D01*
X1177Y8719D01*
X1181Y8724D01*
X1183Y8725D01*
X1185Y8726D01*
X1190Y8730D01*
X1192Y8731D01*
X1194Y8733D01*
X1216Y8729D01*
D02*
G37*
G36*
X4635Y8819D02*
X4637Y8817D01*
X4639Y8812D01*
X4641Y8809D01*
X4681Y8805D01*
X4685Y8802D01*
X4687Y8800D01*
X4689Y8794D01*
X4694Y8792D01*
X4708Y8791D01*
X4709Y8790D01*
X4712Y8791D01*
X4723Y8788D01*
X4726Y8785D01*
X4728Y8779D01*
X4730Y8778D01*
X4737Y8776D01*
X4740Y8776D01*
X4748Y8777D01*
X4751Y8775D01*
X4753Y8774D01*
X4755Y8771D01*
X4758Y8765D01*
X4762Y8763D01*
X4776Y8762D01*
X4791Y8760D01*
X4794Y8760D01*
X4801Y8758D01*
X4804Y8756D01*
X4806Y8749D01*
X4814Y8746D01*
X4821Y8746D01*
X4841Y8743D01*
X4843Y8740D01*
X4844Y8737D01*
X4846Y8733D01*
X4850Y8732D01*
X4888Y8728D01*
X4891Y8726D01*
X4893Y8724D01*
X4895Y8718D01*
X4897Y8717D01*
X4901Y8715D01*
X4918Y8714D01*
X4929Y8711D01*
X4932Y8707D01*
X4934Y8702D01*
X4938Y8701D01*
X4974Y8697D01*
X4979Y8695D01*
X4981Y8693D01*
X4983Y8687D01*
X4985Y8685D01*
X4989Y8684D01*
X4996Y8684D01*
X4999Y8681D01*
X5003Y8674D01*
X5010Y8671D01*
X5017Y8671D01*
X5048Y8666D01*
X5050Y8663D01*
X5052Y8657D01*
X5054Y8656D01*
X5072Y8654D01*
X5076Y8652D01*
X5079Y8649D01*
X5079Y8641D01*
X5078Y8637D01*
X5076Y8635D01*
X5074Y8634D01*
X5067Y8630D01*
X5066Y8628D01*
X5061Y8624D01*
X5058Y8623D01*
X5057Y8621D01*
X5055Y8620D01*
X5049Y8614D01*
X5046Y8614D01*
X5045Y8612D01*
X5043Y8610D01*
X5038Y8606D01*
X5036Y8605D01*
X5033Y8603D01*
X5032Y8601D01*
X5030Y8599D01*
X5027Y8598D01*
X5021Y8594D01*
X5018Y8580D01*
X5011Y8577D01*
X5008Y8574D01*
X5007Y8572D01*
X5004Y8570D01*
X5001Y8569D01*
X4997Y8566D01*
X4996Y8564D01*
X4992Y8560D01*
X4990Y8560D01*
X4985Y8556D01*
X4984Y8554D01*
X4981Y8552D01*
X4979Y8551D01*
X4975Y8549D01*
X4972Y8536D01*
X4969Y8533D01*
X4967Y8532D01*
X4963Y8530D01*
X4962Y8528D01*
X4959Y8525D01*
X4956Y8524D01*
X4952Y8522D01*
X4951Y8520D01*
X4949Y8518D01*
X4947Y8516D01*
X4940Y8513D01*
X4939Y8511D01*
X4936Y8507D01*
X4934Y8507D01*
X4931Y8505D01*
X4930Y8504D01*
X4929Y8502D01*
X4926Y8501D01*
X4925Y8499D01*
X4918Y8495D01*
X4917Y8493D01*
X4912Y8489D01*
X4907Y8486D01*
X4905Y8485D01*
X4902Y8471D01*
X4900Y8470D01*
X4895Y8468D01*
X4893Y8466D01*
X4892Y8464D01*
X4886Y8460D01*
X4884Y8459D01*
X4881Y8457D01*
X4880Y8455D01*
X4876Y8452D01*
X4874Y8451D01*
X4871Y8449D01*
X4869Y8447D01*
X4864Y8442D01*
X4862Y8442D01*
X4859Y8439D01*
X4857Y8437D01*
X4853Y8434D01*
X4851Y8433D01*
X4847Y8430D01*
X4846Y8428D01*
X4841Y8425D01*
X4834Y8425D01*
X4829Y8429D01*
X4827Y8431D01*
X4825Y8437D01*
X4821Y8438D01*
X4803Y8440D01*
X4800Y8442D01*
X4798Y8444D01*
X4796Y8449D01*
X4794Y8451D01*
X4790Y8453D01*
X4770Y8454D01*
X4754Y8456D01*
X4743Y8457D01*
X4738Y8462D01*
X4736Y8467D01*
X4735Y8469D01*
X4727Y8471D01*
X4724Y8470D01*
X4717Y8470D01*
X4713Y8472D01*
X4712Y8473D01*
X4709Y8476D01*
X4707Y8482D01*
X4702Y8484D01*
X4689Y8485D01*
X4674Y8487D01*
X4670Y8487D01*
X4663Y8488D01*
X4660Y8493D01*
X4658Y8498D01*
X4653Y8500D01*
X4639Y8501D01*
X4623Y8504D01*
X4621Y8507D01*
X4620Y8509D01*
X4618Y8513D01*
X4614Y8515D01*
X4587Y8518D01*
X4584Y8520D01*
X4581Y8523D01*
X4579Y8528D01*
X4574Y8530D01*
X4554Y8532D01*
X4538Y8534D01*
X4527Y8535D01*
X4522Y8539D01*
X4520Y8545D01*
X4518Y8547D01*
X4505Y8550D01*
X4503Y8551D01*
X4503Y8556D01*
X4509Y8597D01*
X4511Y8598D01*
X4516Y8601D01*
X4519Y8603D01*
X4522Y8632D01*
X4524Y8636D01*
X4526Y8638D01*
X4530Y8638D01*
X4538Y8636D01*
X4542Y8639D01*
X4547Y8645D01*
X4551Y8646D01*
X4553Y8644D01*
X4555Y8641D01*
X4558Y8636D01*
X4559Y8634D01*
X4568Y8633D01*
X4572Y8631D01*
X4573Y8630D01*
X4575Y8624D01*
X4577Y8622D01*
X4584Y8620D01*
X4587Y8621D01*
X4620Y8616D01*
X4622Y8613D01*
X4623Y8611D01*
X4625Y8607D01*
X4629Y8605D01*
X4647Y8603D01*
X4651Y8601D01*
X4654Y8593D01*
X4659Y8591D01*
X4679Y8589D01*
X4685Y8587D01*
X4688Y8588D01*
X4699Y8586D01*
X4701Y8583D01*
X4703Y8577D01*
X4705Y8575D01*
X4733Y8572D01*
X4737Y8571D01*
X4740Y8568D01*
X4742Y8563D01*
X4744Y8561D01*
X4748Y8559D01*
X4762Y8558D01*
X4775Y8556D01*
X4778Y8557D01*
X4787Y8555D01*
X4789Y8552D01*
X4790Y8549D01*
X4793Y8544D01*
X4800Y8542D01*
X4804Y8543D01*
X4823Y8540D01*
X4827Y8541D01*
X4830Y8543D01*
X4831Y8545D01*
X4833Y8548D01*
X4835Y8549D01*
X4840Y8552D01*
X4842Y8554D01*
X4848Y8559D01*
X4851Y8560D01*
X4852Y8561D01*
X4854Y8563D01*
X4859Y8567D01*
X4861Y8568D01*
X4863Y8569D01*
X4864Y8571D01*
X4871Y8576D01*
X4873Y8577D01*
X4875Y8579D01*
X4876Y8581D01*
X4878Y8583D01*
X4880Y8584D01*
X4887Y8588D01*
X4889Y8600D01*
X4892Y8603D01*
X4897Y8603D01*
X4898Y8605D01*
X4900Y8609D01*
X4899Y8611D01*
X4897Y8614D01*
X4892Y8618D01*
X4890Y8619D01*
X4890Y8622D01*
X4887Y8625D01*
X4880Y8627D01*
X4876Y8626D01*
X4844Y8631D01*
X4842Y8634D01*
X4841Y8636D01*
X4839Y8640D01*
X4835Y8642D01*
X4808Y8645D01*
X4805Y8647D01*
X4802Y8650D01*
X4800Y8655D01*
X4795Y8657D01*
X4778Y8658D01*
X4773Y8664D01*
X4770Y8669D01*
X4734Y8674D01*
X4732Y8674D01*
X4729Y8675D01*
X4724Y8678D01*
X4722Y8684D01*
X4720Y8687D01*
X4705Y8688D01*
X4699Y8690D01*
X4695Y8689D01*
X4688Y8691D01*
X4685Y8695D01*
X4684Y8697D01*
X4683Y8700D01*
X4678Y8703D01*
X4664Y8703D01*
X4638Y8708D01*
X4636Y8709D01*
X4635Y8712D01*
X4631Y8718D01*
X4592Y8722D01*
X4588Y8724D01*
X4586Y8727D01*
X4585Y8730D01*
X4584Y8732D01*
X4582Y8734D01*
X4578Y8738D01*
X4577Y8740D01*
X4575Y8744D01*
X4573Y8746D01*
X4568Y8750D01*
X4568Y8754D01*
X4570Y8763D01*
X4574Y8766D01*
X4579Y8768D01*
X4582Y8775D01*
X4582Y8779D01*
X4586Y8802D01*
X4589Y8805D01*
X4594Y8807D01*
X4596Y8812D01*
X4597Y8818D01*
X4597Y8819D01*
X4599Y8822D01*
X4602Y8824D01*
X4635Y8819D01*
D02*
G37*
G36*
X2424Y8415D02*
X2426Y8414D01*
X2426Y8412D01*
X2430Y8408D01*
X2468Y8408D01*
X2472Y8407D01*
X2476Y8401D01*
X2480Y8400D01*
X2491Y8400D01*
X2509Y8400D01*
X2512Y8401D01*
X2518Y8400D01*
X2520Y8398D01*
X2523Y8394D01*
X2524Y8392D01*
X2530Y8392D01*
X2532Y8392D01*
X2557Y8392D01*
X2559Y8390D01*
X2560Y8388D01*
X2562Y8385D01*
X2566Y8383D01*
X2567Y8381D01*
X2570Y8377D01*
X2574Y8376D01*
X2581Y8377D01*
X2583Y8376D01*
X2588Y8377D01*
X2590Y8379D01*
X2591Y8381D01*
X2593Y8383D01*
X2595Y8384D01*
X2598Y8387D01*
X2601Y8391D01*
X2602Y8392D01*
X3051Y8392D01*
X3053Y8390D01*
X3055Y8386D01*
X3056Y8384D01*
X3142Y8385D01*
X3146Y8383D01*
X3146Y8381D01*
X3150Y8377D01*
X3153Y8376D01*
X3159Y8377D01*
X3161Y8378D01*
X3163Y8382D01*
X3165Y8384D01*
X3169Y8385D01*
X3182Y8384D01*
X3185Y8387D01*
X3188Y8391D01*
X3189Y8392D01*
X3447Y8392D01*
X3450Y8393D01*
X3451Y8394D01*
X3454Y8399D01*
X3455Y8400D01*
X3458Y8401D01*
X3474Y8400D01*
X3581Y8400D01*
X3584Y8398D01*
X3585Y8397D01*
X3586Y8395D01*
X3587Y8393D01*
X3591Y8392D01*
X3598Y8392D01*
X3600Y8394D01*
X3602Y8399D01*
X3603Y8400D01*
X3607Y8401D01*
X3622Y8400D01*
X3625Y8401D01*
X3633Y8400D01*
X3638Y8401D01*
X3639Y8402D01*
X3642Y8407D01*
X3645Y8408D01*
X3647Y8409D01*
X3650Y8408D01*
X3712Y8408D01*
X3715Y8408D01*
X3718Y8405D01*
X3720Y8401D01*
X3725Y8398D01*
X3726Y8397D01*
X3725Y8183D01*
X3723Y8181D01*
X3719Y8179D01*
X3716Y8174D01*
X3713Y8173D01*
X3711Y8173D01*
X3611Y8174D01*
X3609Y8175D01*
X3607Y8179D01*
X3605Y8181D01*
X3550Y8181D01*
X3547Y8183D01*
X3544Y8187D01*
X3543Y8189D01*
X3537Y8189D01*
X3534Y8189D01*
X3337Y8189D01*
X3335Y8191D01*
X3333Y8196D01*
X3329Y8197D01*
X3149Y8196D01*
X3147Y8194D01*
X3145Y8190D01*
X3141Y8189D01*
X3071Y8189D01*
X3069Y8191D01*
X3068Y8193D01*
X3066Y8196D01*
X3060Y8198D01*
X3057Y8197D01*
X3055Y8196D01*
X3053Y8194D01*
X3051Y8190D01*
X3047Y8189D01*
X2533Y8189D01*
X2530Y8188D01*
X2529Y8187D01*
X2527Y8183D01*
X2526Y8181D01*
X2522Y8180D01*
X2509Y8181D01*
X2417D01*
X2400Y8181D01*
X2397Y8183D01*
X2395Y8184D01*
X2393Y8188D01*
X2392Y8189D01*
X2388Y8191D01*
X2387Y8193D01*
X2385Y8196D01*
X2381Y8198D01*
X2380Y8200D01*
X2379Y8205D01*
X2380Y8211D01*
X2379Y8218D01*
X2377Y8220D01*
X2373Y8222D01*
X2372Y8226D01*
X2372Y8247D01*
X2371Y8249D01*
X2370Y8251D01*
X2366Y8253D01*
X2365Y8254D01*
X2364Y8258D01*
X2365Y8273D01*
X2364Y8404D01*
X2366Y8407D01*
X2367Y8408D01*
X2371Y8410D01*
X2372Y8412D01*
X2375Y8415D01*
X2378Y8416D01*
X2387Y8416D01*
X2411Y8416D01*
X2413Y8415D01*
X2415Y8416D01*
X2424Y8415D01*
D02*
G37*
G36*
X1397Y8193D02*
X1399Y8190D01*
X1396Y8123D01*
X1394Y8120D01*
X1392Y8117D01*
X1389Y8116D01*
X1386Y8114D01*
X1385Y8112D01*
X1387Y8108D01*
X1392Y8104D01*
X1394Y8103D01*
X1394Y8101D01*
X1396Y8098D01*
X1400Y8097D01*
X1403Y8098D01*
X1408Y8105D01*
X1409Y8106D01*
X1419Y8105D01*
X1422Y8107D01*
X1424Y8111D01*
X1426Y8122D01*
X1432Y8126D01*
X1434Y8128D01*
X1435Y8130D01*
X1439Y8133D01*
X1441Y8134D01*
X1445Y8137D01*
X1446Y8139D01*
X1449Y8142D01*
X1452Y8143D01*
X1454Y8146D01*
X1455Y8148D01*
X1460Y8152D01*
X1462Y8153D01*
X1465Y8155D01*
X1466Y8157D01*
X1470Y8161D01*
X1472Y8161D01*
X1475Y8165D01*
X1476Y8167D01*
X1480Y8170D01*
X1482Y8171D01*
X1485Y8173D01*
X1486Y8175D01*
X1490Y8179D01*
X1492Y8180D01*
X1493Y8181D01*
X1497Y8186D01*
X1499Y8188D01*
X1503Y8187D01*
X1506Y8184D01*
X1508Y8179D01*
X1512Y8177D01*
X1523Y8176D01*
X1524Y8171D01*
X1524Y8160D01*
X1526Y8159D01*
X1531Y8155D01*
X1532Y8154D01*
X1533Y8152D01*
X1537Y8147D01*
X1539Y8146D01*
X1541Y8144D01*
X1542Y8142D01*
X1547Y8136D01*
X1549Y8135D01*
X1550Y8134D01*
X1551Y8132D01*
X1553Y8128D01*
X1555Y8127D01*
X1560Y8123D01*
X1560Y8119D01*
X1559Y8112D01*
X1557Y8110D01*
X1555Y8109D01*
X1550Y8105D01*
X1549Y8103D01*
X1547Y8100D01*
X1545Y8099D01*
X1540Y8096D01*
X1539Y8094D01*
X1537Y8092D01*
X1536Y8091D01*
X1534Y8090D01*
X1530Y8086D01*
X1526Y8082D01*
X1522Y8080D01*
X1512Y8080D01*
X1510Y8078D01*
X1507Y8074D01*
X1505Y8072D01*
X1503Y8071D01*
X1498Y8067D01*
X1497Y8065D01*
X1495Y8063D01*
X1493Y8062D01*
X1489Y8058D01*
X1488Y8056D01*
X1485Y8054D01*
X1483Y8053D01*
X1478Y8049D01*
X1477Y8047D01*
X1475Y8045D01*
X1472Y8044D01*
X1468Y8039D01*
X1467Y8037D01*
X1465Y8036D01*
X1463Y8035D01*
X1458Y8031D01*
X1457Y8029D01*
X1454Y8026D01*
X1452Y8026D01*
X1448Y8021D01*
X1447Y8019D01*
X1444Y8017D01*
X1442Y8016D01*
X1438Y8013D01*
X1437Y8011D01*
X1434Y8008D01*
X1432Y8008D01*
X1428Y8003D01*
X1426Y8001D01*
X1424Y7999D01*
X1422Y7998D01*
X1417Y7994D01*
X1416Y7992D01*
X1414Y7990D01*
X1412Y7989D01*
X1408Y7985D01*
X1406Y7983D01*
X1404Y7981D01*
X1402Y7980D01*
X1397Y7976D01*
X1396Y7974D01*
X1393Y7971D01*
X1391Y7970D01*
X1387Y7967D01*
X1386Y7965D01*
X1384Y7963D01*
X1382Y7962D01*
X1378Y7960D01*
X1377Y7956D01*
X1377Y7941D01*
X1368Y7794D01*
X1369Y7791D01*
X1368Y7783D01*
X1365Y7781D01*
X1363Y7780D01*
X1359Y7777D01*
X1358Y7775D01*
X1355Y7771D01*
X1350Y7770D01*
X1338Y7771D01*
X1301Y7773D01*
X1298Y7774D01*
X1294Y7773D01*
X1283Y7775D01*
X1282Y7776D01*
X1281Y7781D01*
X1281Y7792D01*
X1279Y7793D01*
X1274Y7796D01*
X1272Y7799D01*
X1274Y7810D01*
X1276Y7812D01*
X1281Y7815D01*
X1283Y7817D01*
X1284Y7823D01*
X1284Y7841D01*
X1283Y7845D01*
X1286Y7849D01*
X1293Y7853D01*
X1295Y7856D01*
X1292Y7861D01*
X1287Y7864D01*
X1285Y7867D01*
X1284Y7869D01*
X1282Y7871D01*
X1278Y7872D01*
X1270Y7871D01*
X1268Y7869D01*
X1267Y7867D01*
X1262Y7863D01*
X1260Y7862D01*
X1257Y7859D01*
X1256Y7857D01*
X1251Y7853D01*
X1249Y7852D01*
X1246Y7850D01*
X1245Y7848D01*
X1241Y7844D01*
X1239Y7843D01*
X1236Y7840D01*
X1235Y7838D01*
X1231Y7835D01*
X1229Y7834D01*
X1226Y7832D01*
X1225Y7830D01*
X1221Y7825D01*
X1219Y7825D01*
X1216Y7822D01*
X1215Y7820D01*
X1210Y7816D01*
X1208Y7815D01*
X1205Y7813D01*
X1204Y7811D01*
X1200Y7807D01*
X1194Y7807D01*
X1191Y7808D01*
X1190Y7809D01*
X1187Y7812D01*
X1186Y7814D01*
X1182Y7818D01*
X1180Y7820D01*
X1178Y7822D01*
X1177Y7824D01*
X1172Y7829D01*
X1170Y7830D01*
X1168Y7833D01*
X1167Y7835D01*
X1164Y7838D01*
X1162Y7840D01*
X1159Y7843D01*
X1158Y7845D01*
X1154Y7849D01*
X1152Y7850D01*
X1150Y7853D01*
X1149Y7855D01*
X1145Y7860D01*
X1143Y7861D01*
X1141Y7863D01*
X1140Y7870D01*
X1142Y7875D01*
X1144Y7877D01*
X1146Y7878D01*
X1149Y7880D01*
X1151Y7882D01*
X1154Y7886D01*
X1156Y7887D01*
X1162Y7892D01*
X1163Y7894D01*
X1165Y7896D01*
X1167Y7897D01*
X1173Y7902D01*
X1174Y7904D01*
X1175Y7905D01*
X1178Y7906D01*
X1182Y7910D01*
X1183Y7912D01*
X1185Y7914D01*
X1187Y7915D01*
X1193Y7920D01*
X1194Y7922D01*
X1196Y7923D01*
X1198Y7924D01*
X1202Y7929D01*
X1203Y7930D01*
X1205Y7932D01*
X1207Y7933D01*
X1213Y7938D01*
X1214Y7940D01*
X1216Y7941D01*
X1218Y7942D01*
X1223Y7948D01*
X1225Y7950D01*
X1231Y7954D01*
X1233Y7956D01*
X1234Y7958D01*
X1236Y7959D01*
X1238Y7960D01*
X1244Y7966D01*
X1245Y7968D01*
X1246Y7969D01*
X1248Y7970D01*
X1253Y7974D01*
X1254Y7976D01*
X1256Y7978D01*
X1258Y7978D01*
X1258Y7979D01*
X1259Y7979D01*
X1264Y7984D01*
X1265Y7986D01*
X1266Y7987D01*
X1268Y7988D01*
X1271Y7989D01*
X1272Y7991D01*
X1277Y7997D01*
X1281Y7997D01*
X1288Y7996D01*
X1292Y7998D01*
X1293Y8002D01*
X1293Y8007D01*
X1293Y8017D01*
X1294Y8022D01*
X1296Y8024D01*
X1302Y8026D01*
X1303Y8028D01*
X1304Y8032D01*
X1304Y8044D01*
X1312Y8184D01*
X1311Y8187D01*
X1313Y8194D01*
X1317Y8198D01*
X1397Y8193D01*
D02*
G37*
G36*
X4297Y8244D02*
X4299Y8241D01*
X4299Y8239D01*
X4303Y8234D01*
X4305Y8232D01*
X4308Y8228D01*
X4310Y8224D01*
X4314Y8222D01*
X4324Y8220D01*
X4325Y8218D01*
X4327Y8213D01*
X4329Y8211D01*
X4333Y8210D01*
X4340Y8209D01*
X4343Y8206D01*
X4345Y8201D01*
X4347Y8198D01*
X4349Y8197D01*
X4352Y8193D01*
X4354Y8188D01*
X4358Y8186D01*
X4365Y8186D01*
X4370Y8181D01*
X4372Y8176D01*
X4373Y8175D01*
X4377Y8171D01*
X4380Y8165D01*
X4384Y8163D01*
X4394Y8161D01*
X4395Y8159D01*
X4397Y8153D01*
X4402Y8151D01*
X4406Y8151D01*
X4411Y8149D01*
X4414Y8145D01*
X4414Y8143D01*
X4417Y8139D01*
X4419Y8138D01*
X4421Y8135D01*
X4422Y8133D01*
X4424Y8129D01*
X4428Y8128D01*
X4435Y8128D01*
X4439Y8124D01*
X4441Y8118D01*
X4447Y8113D01*
X4447Y8111D01*
X4451Y8105D01*
X4464Y8102D01*
X4468Y8094D01*
X4472Y8092D01*
X4479Y8092D01*
X4483Y8088D01*
X4483Y8086D01*
X4485Y8082D01*
X4487Y8081D01*
X4491Y8077D01*
X4494Y8071D01*
X4498Y8069D01*
X4505Y8069D01*
X4508Y8066D01*
X4509Y8064D01*
X4513Y8058D01*
X4514Y8056D01*
X4517Y8052D01*
X4518Y8050D01*
X4521Y8046D01*
X4534Y8044D01*
X4538Y8035D01*
X4542Y8034D01*
X4549Y8033D01*
X4553Y8029D01*
X4555Y8024D01*
X4561Y8019D01*
X4561Y8017D01*
X4564Y8012D01*
X4568Y8010D01*
X4574Y8010D01*
X4578Y8007D01*
X4581Y8002D01*
X4583Y7999D01*
X4585Y7998D01*
X4588Y7994D01*
X4589Y7989D01*
X4593Y7987D01*
X4603Y7985D01*
X4605Y7982D01*
X4607Y7977D01*
X4609Y7976D01*
X4613Y7972D01*
X4614Y7970D01*
X4617Y7965D01*
X4629Y7962D01*
X4631Y7960D01*
X4633Y7955D01*
X4634Y7953D01*
X4638Y7952D01*
X4644Y7952D01*
X4649Y7946D01*
X4650Y7944D01*
X4653Y7940D01*
X4655Y7939D01*
X4657Y7936D01*
X4658Y7934D01*
X4660Y7930D01*
X4663Y7929D01*
X4673Y7926D01*
X4675Y7925D01*
X4675Y7922D01*
X4678Y7917D01*
X4680Y7916D01*
X4682Y7914D01*
X4683Y7912D01*
X4687Y7906D01*
X4689Y7905D01*
X4691Y7903D01*
X4692Y7898D01*
X4690Y7890D01*
X4687Y7888D01*
X4685Y7887D01*
X4680Y7884D01*
X4676Y7880D01*
X4670Y7877D01*
X4669Y7876D01*
X4666Y7863D01*
X4664Y7861D01*
X4657Y7859D01*
X4656Y7855D01*
X4655Y7848D01*
X4653Y7845D01*
X4650Y7843D01*
X4646Y7841D01*
X4644Y7839D01*
X4639Y7834D01*
X4617Y7838D01*
X4616Y7840D01*
X4613Y7847D01*
X4609Y7849D01*
X4600Y7851D01*
X4597Y7854D01*
X4597Y7856D01*
X4596Y7859D01*
X4594Y7860D01*
X4590Y7864D01*
X4589Y7866D01*
X4586Y7871D01*
X4573Y7874D01*
X4572Y7876D01*
X4570Y7881D01*
X4568Y7883D01*
X4567Y7884D01*
X4563Y7889D01*
X4562Y7892D01*
X4560Y7894D01*
X4547Y7897D01*
X4543Y7906D01*
X4539Y7907D01*
X4520Y7909D01*
X4517Y7907D01*
X4516Y7905D01*
X4511Y7901D01*
X4509Y7901D01*
X4506Y7898D01*
X4502Y7894D01*
X4498Y7893D01*
X4495Y7894D01*
X4489Y7894D01*
X4486Y7892D01*
X4482Y7887D01*
X4480Y7886D01*
X4467Y7887D01*
X4461Y7880D01*
X4457Y7879D01*
X4450Y7881D01*
X4445Y7878D01*
X4442Y7874D01*
X4440Y7873D01*
X4427Y7873D01*
X4425Y7872D01*
X4421Y7866D01*
X4416Y7866D01*
X4406Y7866D01*
X4403Y7864D01*
X4402Y7862D01*
X4400Y7860D01*
X4398Y7859D01*
X4393Y7856D01*
X4392Y7854D01*
X4388Y7850D01*
X4375Y7851D01*
X4373Y7850D01*
X4369Y7845D01*
X4368Y7844D01*
X4363Y7844D01*
X4358Y7845D01*
X4353Y7844D01*
X4348Y7837D01*
X4335Y7838D01*
X4331Y7835D01*
X4328Y7831D01*
X4326Y7830D01*
X4313Y7830D01*
X4308Y7825D01*
X4306Y7823D01*
X4304Y7823D01*
X4298Y7819D01*
X4297Y7817D01*
X4294Y7815D01*
X4287Y7815D01*
X4282Y7817D01*
X4280Y7820D01*
X4280Y7827D01*
X4283Y7837D01*
X4306Y8003D01*
X4309Y8007D01*
X4310Y8008D01*
X4316Y8010D01*
X4318Y8015D01*
X4318Y8023D01*
X4326Y8078D01*
X4325Y8082D01*
X4323Y8083D01*
X4318Y8089D01*
X4317Y8091D01*
X4313Y8096D01*
X4312Y8097D01*
X4309Y8100D01*
X4307Y8105D01*
X4294Y8108D01*
X4293Y8111D01*
X4292Y8113D01*
X4289Y8118D01*
X4287Y8119D01*
X4284Y8122D01*
X4282Y8127D01*
X4280Y8129D01*
X4268Y8132D01*
X4266Y8134D01*
X4264Y8141D01*
X4260Y8142D01*
X4250Y8145D01*
X4248Y8147D01*
X4248Y8149D01*
X4247Y8149D01*
X4246Y8152D01*
X4241Y8156D01*
X4237Y8165D01*
X4224Y8166D01*
X4222Y8167D01*
X4222Y8171D01*
X4223Y8174D01*
X4226Y8176D01*
X4228Y8177D01*
X4233Y8180D01*
X4234Y8182D01*
X4236Y8183D01*
X4238Y8184D01*
X4243Y8187D01*
X4246Y8200D01*
X4249Y8202D01*
X4254Y8204D01*
X4256Y8205D01*
X4259Y8218D01*
X4265Y8221D01*
X4268Y8223D01*
X4269Y8225D01*
X4273Y8228D01*
X4275Y8229D01*
X4279Y8232D01*
X4282Y8243D01*
X4285Y8245D01*
X4289Y8246D01*
X4297Y8244D01*
D02*
G37*
G36*
X3902Y7774D02*
X3904Y7770D01*
X3905Y7768D01*
X3907Y7764D01*
X3909Y7762D01*
X3911Y7760D01*
X3911Y7758D01*
X3914Y7752D01*
X3916Y7751D01*
X3918Y7748D01*
X3918Y7746D01*
X3921Y7742D01*
X3922Y7741D01*
X3925Y7737D01*
X3922Y7728D01*
X3925Y7723D01*
X3927Y7721D01*
X3930Y7716D01*
X3930Y7714D01*
X3931Y7713D01*
X3933Y7711D01*
X3936Y7706D01*
X3937Y7704D01*
X3938Y7701D01*
X3940Y7700D01*
X3943Y7695D01*
X3944Y7693D01*
X3945Y7691D01*
X3946Y7690D01*
X3950Y7685D01*
X3950Y7683D01*
X3952Y7680D01*
X3954Y7678D01*
X3957Y7673D01*
X3957Y7671D01*
X3959Y7668D01*
X3961Y7667D01*
X3964Y7662D01*
X3964Y7660D01*
X3965Y7658D01*
X3967Y7657D01*
X3970Y7652D01*
X3971Y7650D01*
X3972Y7647D01*
X3974Y7645D01*
X3977Y7640D01*
X3978Y7638D01*
X3979Y7637D01*
X3980Y7635D01*
X3984Y7630D01*
X3984Y7628D01*
X3986Y7625D01*
X3988Y7624D01*
X3991Y7619D01*
X3991Y7617D01*
X3993Y7614D01*
X3997Y7610D01*
X3995Y7598D01*
X3997Y7595D01*
X4001Y7591D01*
X4004Y7584D01*
X4006Y7583D01*
X4016Y7580D01*
X4018Y7577D01*
X4016Y7565D01*
X4017Y7563D01*
X4019Y7561D01*
X4022Y7557D01*
X4023Y7555D01*
X4026Y7550D01*
X4027Y7549D01*
X4029Y7547D01*
X4029Y7545D01*
X4033Y7539D01*
X4035Y7537D01*
X4036Y7536D01*
X4036Y7534D01*
X4040Y7527D01*
X4042Y7526D01*
X4043Y7524D01*
X4043Y7522D01*
X4046Y7517D01*
X4048Y7516D01*
X4049Y7514D01*
X4050Y7512D01*
X4053Y7506D01*
X4055Y7505D01*
X4056Y7503D01*
X4057Y7501D01*
X4060Y7496D01*
X4061Y7494D01*
X4063Y7492D01*
X4064Y7489D01*
X4065Y7487D01*
X4066Y7486D01*
X4070Y7480D01*
X4068Y7468D01*
X4073Y7464D01*
X4075Y7461D01*
X4075Y7459D01*
X4078Y7455D01*
X4079Y7453D01*
X4082Y7449D01*
X4082Y7447D01*
X4085Y7443D01*
X4086Y7442D01*
X4089Y7438D01*
X4089Y7436D01*
X4091Y7433D01*
X4095Y7432D01*
X4101Y7431D01*
X4104Y7428D01*
X4104Y7424D01*
X4099Y7406D01*
X4097Y7405D01*
X4092Y7403D01*
X4089Y7401D01*
X4086Y7398D01*
X4082Y7398D01*
X4072Y7399D01*
X4070Y7397D01*
X4066Y7393D01*
X4061Y7393D01*
X4046Y7397D01*
X4042Y7395D01*
X4040Y7393D01*
X4039Y7392D01*
X4039Y7392D01*
X4034Y7389D01*
X4032Y7389D01*
X4030Y7388D01*
X4029Y7386D01*
X4026Y7383D01*
X4022Y7383D01*
X4008Y7387D01*
X4002Y7384D01*
X3998Y7381D01*
X3992Y7381D01*
X3983Y7384D01*
X3976Y7384D01*
X3974Y7383D01*
X3970Y7378D01*
X3966Y7378D01*
X3956Y7379D01*
X3953Y7377D01*
X3950Y7373D01*
X3938Y7375D01*
X3935Y7373D01*
X3930Y7369D01*
X3928Y7368D01*
X3922Y7369D01*
X3917Y7371D01*
X3913Y7372D01*
X3910Y7372D01*
X3908Y7372D01*
X3905Y7370D01*
X3901Y7366D01*
X3897Y7365D01*
X3892Y7368D01*
X3887Y7366D01*
X3886Y7365D01*
X3882Y7361D01*
X3878Y7361D01*
X3869Y7362D01*
X3866Y7360D01*
X3862Y7357D01*
X3858Y7356D01*
X3843Y7360D01*
X3839Y7358D01*
X3834Y7353D01*
X3828Y7355D01*
X3827Y7357D01*
X3826Y7362D01*
X3824Y7365D01*
X3822Y7366D01*
X3821Y7368D01*
X3821Y7372D01*
X3823Y7378D01*
X3822Y7381D01*
X3816Y7388D01*
X3818Y7400D01*
X3816Y7403D01*
X3812Y7406D01*
X3811Y7408D01*
X3813Y7419D01*
X3811Y7422D01*
X3808Y7424D01*
X3807Y7427D01*
X3809Y7432D01*
X3817Y7435D01*
X3819Y7436D01*
X3823Y7439D01*
X3825Y7439D01*
X3829Y7442D01*
X3832Y7446D01*
X3836Y7446D01*
X3851Y7442D01*
X3854Y7442D01*
X3861Y7449D01*
X3873Y7447D01*
X3876Y7448D01*
X3877Y7450D01*
X3880Y7453D01*
X3884Y7453D01*
X3898Y7449D01*
X3902Y7450D01*
X3905Y7452D01*
X3906Y7453D01*
X3909Y7456D01*
X3916Y7455D01*
X3927Y7452D01*
X3932Y7453D01*
X3937Y7458D01*
X3941Y7458D01*
X3950Y7457D01*
X3953Y7459D01*
X3957Y7463D01*
X3961Y7463D01*
X3971Y7462D01*
X3972Y7463D01*
X3976Y7470D01*
X3976Y7473D01*
X3975Y7475D01*
X3973Y7478D01*
X3972Y7479D01*
X3970Y7481D01*
X3969Y7483D01*
X3966Y7489D01*
X3963Y7491D01*
X3948Y7493D01*
X3944Y7495D01*
X3938Y7496D01*
X3934Y7493D01*
X3930Y7489D01*
X3918Y7491D01*
X3914Y7489D01*
X3910Y7485D01*
X3909Y7484D01*
X3897Y7486D01*
X3895Y7485D01*
X3891Y7481D01*
X3889Y7480D01*
X3885Y7480D01*
X3871Y7484D01*
X3866Y7482D01*
X3862Y7478D01*
X3860Y7477D01*
X3848Y7479D01*
X3842Y7472D01*
X3838Y7472D01*
X3824Y7477D01*
X3819Y7475D01*
X3818Y7474D01*
X3814Y7470D01*
X3807Y7470D01*
X3798Y7473D01*
X3792Y7473D01*
X3790Y7472D01*
X3789Y7471D01*
X3783Y7466D01*
X3763Y7472D01*
X3762Y7474D01*
X3762Y7478D01*
X3777Y7545D01*
X3779Y7548D01*
X3783Y7551D01*
X3785Y7551D01*
X3789Y7554D01*
X3791Y7555D01*
X3794Y7557D01*
X3805Y7556D01*
X3808Y7557D01*
X3812Y7561D01*
X3816Y7562D01*
X3830Y7558D01*
X3835Y7559D01*
X3840Y7564D01*
X3846Y7565D01*
X3849Y7563D01*
X3853Y7563D01*
X3856Y7565D01*
X3860Y7569D01*
X3862Y7570D01*
X3868Y7569D01*
X3889Y7563D01*
X3893Y7565D01*
X3897Y7569D01*
X3900Y7571D01*
X3912Y7569D01*
X3915Y7573D01*
X3916Y7582D01*
X3915Y7583D01*
X3914Y7585D01*
X3910Y7589D01*
X3910Y7591D01*
X3908Y7593D01*
X3908Y7595D01*
X3906Y7596D01*
X3905Y7598D01*
X3903Y7600D01*
X3902Y7603D01*
X3899Y7609D01*
X3897Y7610D01*
X3894Y7617D01*
X3892Y7620D01*
X3890Y7621D01*
X3887Y7628D01*
X3885Y7630D01*
X3884Y7631D01*
X3882Y7633D01*
X3882Y7635D01*
X3878Y7641D01*
X3876Y7643D01*
X3873Y7649D01*
X3871Y7653D01*
X3869Y7654D01*
X3867Y7661D01*
X3865Y7662D01*
X3862Y7666D01*
X3862Y7670D01*
X3864Y7673D01*
X3864Y7678D01*
X3863Y7680D01*
X3859Y7684D01*
X3857Y7687D01*
X3857Y7689D01*
X3854Y7693D01*
X3852Y7694D01*
X3850Y7698D01*
X3849Y7700D01*
X3848Y7703D01*
X3846Y7704D01*
X3844Y7708D01*
X3843Y7710D01*
X3841Y7714D01*
X3839Y7716D01*
X3836Y7719D01*
X3836Y7722D01*
X3833Y7726D01*
X3832Y7727D01*
X3830Y7730D01*
X3830Y7732D01*
X3827Y7736D01*
X3825Y7737D01*
X3823Y7739D01*
X3823Y7746D01*
X3825Y7749D01*
X3830Y7775D01*
X3832Y7778D01*
X3835Y7780D01*
X3841Y7782D01*
X3845Y7786D01*
X3847Y7787D01*
X3902Y7774D01*
D02*
G37*
G36*
X2623Y7545D02*
X2626Y7543D01*
X2627Y7542D01*
X2630Y7537D01*
X2634Y7537D01*
X2645Y7537D01*
X2651Y7530D01*
X2655Y7529D01*
X2672Y7532D01*
X2676Y7530D01*
X2677Y7529D01*
X2682Y7524D01*
X2684Y7523D01*
X2687Y7522D01*
X2689Y7517D01*
X2690Y7508D01*
X2691Y7505D01*
X2691Y7499D01*
X2688Y7495D01*
X2684Y7492D01*
X2682Y7487D01*
X2685Y7471D01*
X2683Y7467D01*
X2677Y7462D01*
X2677Y7458D01*
X2679Y7442D01*
X2678Y7438D01*
X2677Y7437D01*
X2672Y7433D01*
X2671Y7432D01*
X2670Y7428D01*
X2673Y7412D01*
X2670Y7407D01*
X2666Y7403D01*
X2665Y7402D01*
X2665Y7396D01*
X2668Y7371D01*
X2666Y7368D01*
X2662Y7365D01*
X2659Y7362D01*
X2662Y7343D01*
X2660Y7339D01*
X2655Y7335D01*
X2654Y7333D01*
X2654Y7326D01*
X2655Y7322D01*
X2657Y7302D01*
X2655Y7300D01*
X2654Y7299D01*
X2649Y7294D01*
X2651Y7275D01*
X2650Y7272D01*
X2648Y7269D01*
X2644Y7265D01*
X2643Y7261D01*
X2644Y7257D01*
X2644Y7252D01*
X2643Y7250D01*
X2637Y7246D01*
X2636Y7242D01*
X2635Y7239D01*
X2637Y7236D01*
X2640Y7203D01*
X2638Y7200D01*
X2633Y7197D01*
X2632Y7192D01*
X2633Y7187D01*
X2633Y7183D01*
X2631Y7181D01*
X2626Y7177D01*
X2625Y7172D01*
X2627Y7157D01*
X2628Y7145D01*
X2625Y7141D01*
X2621Y7138D01*
X2620Y7134D01*
X2623Y7117D01*
X2621Y7113D01*
X2619Y7112D01*
X2615Y7107D01*
X2614Y7103D01*
X2616Y7091D01*
X2616Y7088D01*
X2617Y7085D01*
X2617Y7076D01*
X2614Y7072D01*
X2610Y7069D01*
X2610Y7062D01*
X2610Y7061D01*
X2610Y7055D01*
X2608Y7052D01*
X2604Y7051D01*
X2596Y7051D01*
X2593Y7053D01*
X2592Y7055D01*
X2589Y7058D01*
X2587Y7059D01*
X2582Y7062D01*
X2581Y7064D01*
X2575Y7068D01*
X2573Y7069D01*
X2571Y7070D01*
X2570Y7072D01*
X2565Y7076D01*
X2563Y7077D01*
X2560Y7079D01*
X2559Y7081D01*
X2554Y7085D01*
X2551Y7086D01*
X2550Y7087D01*
X2549Y7089D01*
X2544Y7093D01*
X2542Y7093D01*
X2539Y7096D01*
X2537Y7097D01*
X2533Y7101D01*
X2530Y7102D01*
X2529Y7103D01*
X2528Y7105D01*
X2521Y7110D01*
X2519Y7111D01*
X2518Y7112D01*
X2516Y7114D01*
X2511Y7118D01*
X2509Y7119D01*
X2507Y7121D01*
X2505Y7123D01*
X2500Y7126D01*
X2498Y7127D01*
X2497Y7129D01*
X2495Y7130D01*
X2490Y7134D01*
X2488Y7135D01*
X2485Y7137D01*
X2484Y7139D01*
X2479Y7143D01*
X2477Y7144D01*
X2476Y7145D01*
X2474Y7147D01*
X2469Y7151D01*
X2467Y7151D01*
X2464Y7154D01*
X2463Y7157D01*
X2463Y7162D01*
X2462Y7165D01*
X2458Y7168D01*
X2456Y7169D01*
X2452Y7172D01*
X2451Y7174D01*
X2448Y7176D01*
X2446Y7177D01*
X2441Y7181D01*
X2440Y7183D01*
X2437Y7185D01*
X2435Y7186D01*
X2430Y7189D01*
X2429Y7191D01*
X2426Y7194D01*
X2424Y7194D01*
X2420Y7197D01*
X2419Y7199D01*
X2416Y7201D01*
X2414Y7202D01*
X2409Y7206D01*
X2408Y7208D01*
X2405Y7210D01*
X2403Y7211D01*
X2399Y7214D01*
X2398Y7216D01*
X2395Y7218D01*
X2393Y7219D01*
X2388Y7222D01*
X2387Y7224D01*
X2384Y7226D01*
X2382Y7227D01*
X2377Y7231D01*
X2376Y7233D01*
X2373Y7235D01*
X2371Y7236D01*
X2367Y7239D01*
X2366Y7241D01*
X2363Y7243D01*
X2361Y7244D01*
X2357Y7246D01*
X2355Y7250D01*
X2355Y7259D01*
X2353Y7265D01*
X2356Y7271D01*
X2361Y7273D01*
X2374Y7273D01*
X2407Y7278D01*
X2409Y7280D01*
X2411Y7287D01*
X2415Y7288D01*
X2418Y7290D01*
X2421Y7289D01*
X2430Y7289D01*
X2433Y7291D01*
X2435Y7292D01*
X2436Y7294D01*
X2439Y7299D01*
X2440Y7300D01*
X2444Y7302D01*
X2461Y7303D01*
X2463Y7304D01*
X2478Y7305D01*
X2483Y7310D01*
X2486Y7316D01*
X2489Y7317D01*
X2493Y7318D01*
X2496Y7317D01*
X2527Y7322D01*
X2531Y7330D01*
X2532Y7331D01*
X2535Y7332D01*
X2552Y7334D01*
X2555Y7336D01*
X2556Y7337D01*
X2559Y7343D01*
X2560Y7344D01*
X2562Y7346D01*
X2566Y7351D01*
X2566Y7353D01*
X2568Y7355D01*
X2573Y7358D01*
X2573Y7362D01*
X2570Y7387D01*
X2570Y7391D01*
X2573Y7394D01*
X2577Y7398D01*
X2578Y7402D01*
X2576Y7409D01*
X2579Y7414D01*
X2584Y7417D01*
X2585Y7419D01*
X2585Y7426D01*
X2584Y7430D01*
X2584Y7441D01*
X2585Y7443D01*
X2587Y7444D01*
X2592Y7449D01*
X2588Y7477D01*
X2589Y7481D01*
X2590Y7482D01*
X2595Y7486D01*
X2596Y7488D01*
X2596Y7492D01*
X2593Y7507D01*
X2596Y7512D01*
X2601Y7516D01*
X2602Y7517D01*
X2602Y7530D01*
X2607Y7535D01*
X2610Y7538D01*
X2610Y7540D01*
X2613Y7543D01*
X2616Y7545D01*
X2623Y7545D01*
D02*
G37*
G36*
X3143Y7541D02*
X3161Y7540D01*
X3165Y7537D01*
X3166Y7535D01*
X3168Y7531D01*
X3170Y7530D01*
X3174Y7526D01*
X3177Y7521D01*
X3178Y7519D01*
X3191Y7517D01*
X3192Y7515D01*
X3195Y7509D01*
X3201Y7507D01*
X3204Y7508D01*
X3208Y7507D01*
X3211Y7503D01*
X3212Y7501D01*
X3215Y7497D01*
X3217Y7496D01*
X3219Y7493D01*
X3220Y7491D01*
X3222Y7487D01*
X3226Y7486D01*
X3232Y7486D01*
X3236Y7484D01*
X3237Y7482D01*
X3240Y7477D01*
X3241Y7476D01*
X3242Y7476D01*
X3242Y7475D01*
X3244Y7473D01*
X3245Y7473D01*
X3246Y7471D01*
X3250Y7465D01*
X3263Y7463D01*
X3267Y7454D01*
X3271Y7453D01*
X3278Y7453D01*
X3282Y7450D01*
X3283Y7447D01*
X3285Y7444D01*
X3287Y7443D01*
X3291Y7439D01*
X3294Y7434D01*
X3298Y7432D01*
X3308Y7430D01*
X3311Y7423D01*
X3313Y7421D01*
X3315Y7420D01*
X3319Y7415D01*
X3320Y7413D01*
X3322Y7411D01*
X3335Y7408D01*
X3339Y7400D01*
X3343Y7399D01*
X3350Y7399D01*
X3354Y7395D01*
X3357Y7390D01*
X3363Y7386D01*
X3363Y7383D01*
X3367Y7378D01*
X3380Y7375D01*
X3385Y7367D01*
X3397Y7365D01*
X3400Y7362D01*
X3400Y7360D01*
X3403Y7357D01*
X3404Y7355D01*
X3409Y7351D01*
X3411Y7346D01*
X3415Y7344D01*
X3423Y7345D01*
X3427Y7341D01*
X3429Y7335D01*
X3433Y7334D01*
X3442Y7332D01*
X3445Y7329D01*
X3446Y7327D01*
X3447Y7325D01*
X3449Y7323D01*
X3454Y7319D01*
X3454Y7315D01*
X3453Y7305D01*
X3453Y7302D01*
X3452Y7298D01*
X3451Y7296D01*
X3449Y7294D01*
X3445Y7294D01*
X3438Y7295D01*
X3432Y7291D01*
X3429Y7287D01*
X3427Y7286D01*
X3423Y7283D01*
X3421Y7279D01*
X3422Y7273D01*
X3419Y7269D01*
X3414Y7267D01*
X3411Y7264D01*
X3410Y7262D01*
X3406Y7259D01*
X3404Y7258D01*
X3400Y7255D01*
X3399Y7253D01*
X3395Y7250D01*
X3393Y7249D01*
X3390Y7247D01*
X3389Y7245D01*
X3386Y7242D01*
X3383Y7241D01*
X3380Y7238D01*
X3379Y7236D01*
X3375Y7233D01*
X3373Y7232D01*
X3369Y7229D01*
X3368Y7227D01*
X3365Y7225D01*
X3363Y7224D01*
X3360Y7223D01*
X3359Y7219D01*
X3357Y7209D01*
X3354Y7207D01*
X3352Y7206D01*
X3350Y7205D01*
X3349Y7203D01*
X3346Y7201D01*
X3345Y7199D01*
X3342Y7197D01*
X3339Y7196D01*
X3338Y7194D01*
X3334Y7190D01*
X3332Y7189D01*
X3329Y7187D01*
X3328Y7186D01*
X3326Y7184D01*
X3325Y7182D01*
X3321Y7180D01*
X3319Y7178D01*
X3317Y7177D01*
X3315Y7175D01*
X3314Y7173D01*
X3310Y7171D01*
X3308Y7169D01*
X3307Y7167D01*
X3303Y7163D01*
X3297Y7161D01*
X3296Y7156D01*
X3294Y7147D01*
X3292Y7145D01*
X3287Y7143D01*
X3285Y7141D01*
X3284Y7139D01*
X3279Y7135D01*
X3277Y7135D01*
X3274Y7132D01*
X3273Y7130D01*
X3270Y7127D01*
X3267Y7126D01*
X3265Y7124D01*
X3264Y7122D01*
X3259Y7118D01*
X3257Y7117D01*
X3254Y7115D01*
X3253Y7113D01*
X3249Y7110D01*
X3247Y7109D01*
X3244Y7107D01*
X3243Y7105D01*
X3238Y7101D01*
X3236Y7100D01*
X3233Y7098D01*
X3233Y7094D01*
X3233Y7087D01*
X3228Y7083D01*
X3226Y7082D01*
X3222Y7079D01*
X3221Y7077D01*
X3218Y7075D01*
X3216Y7074D01*
X3211Y7070D01*
X3210Y7068D01*
X3207Y7066D01*
X3205Y7065D01*
X3200Y7061D01*
X3199Y7059D01*
X3197Y7058D01*
X3195Y7057D01*
X3193Y7054D01*
X3189Y7050D01*
X3188Y7048D01*
X3183Y7050D01*
X3181Y7053D01*
X3178Y7058D01*
X3174Y7060D01*
X3170Y7059D01*
X3165Y7060D01*
X3163Y7062D01*
X3163Y7068D01*
X3164Y7071D01*
X3164Y7076D01*
X3162Y7078D01*
X3160Y7079D01*
X3155Y7084D01*
X3153Y7089D01*
X3140Y7091D01*
X3137Y7094D01*
X3135Y7100D01*
X3133Y7101D01*
X3129Y7104D01*
X3128Y7109D01*
X3129Y7116D01*
X3134Y7120D01*
X3136Y7121D01*
X3140Y7124D01*
X3141Y7126D01*
X3145Y7129D01*
X3147Y7130D01*
X3150Y7132D01*
X3151Y7134D01*
X3154Y7137D01*
X3157Y7138D01*
X3160Y7141D01*
X3161Y7143D01*
X3165Y7146D01*
X3167Y7147D01*
X3170Y7149D01*
X3171Y7153D01*
X3171Y7159D01*
X3174Y7164D01*
X3178Y7164D01*
X3189Y7164D01*
X3190Y7166D01*
X3192Y7170D01*
X3192Y7176D01*
X3194Y7179D01*
X3196Y7182D01*
X3198Y7182D01*
X3203Y7187D01*
X3204Y7188D01*
X3206Y7190D01*
X3208Y7191D01*
X3213Y7195D01*
X3214Y7197D01*
X3217Y7199D01*
X3219Y7200D01*
X3224Y7204D01*
X3225Y7206D01*
X3227Y7207D01*
X3229Y7208D01*
X3235Y7213D01*
X3236Y7215D01*
X3237Y7216D01*
X3243Y7219D01*
X3244Y7223D01*
X3244Y7229D01*
X3246Y7233D01*
X3248Y7234D01*
X3253Y7237D01*
X3255Y7238D01*
X3256Y7240D01*
X3261Y7244D01*
X3263Y7245D01*
X3264Y7246D01*
X3266Y7248D01*
X3270Y7252D01*
X3273Y7253D01*
X3275Y7255D01*
X3276Y7257D01*
X3281Y7261D01*
X3283Y7262D01*
X3285Y7263D01*
X3286Y7265D01*
X3292Y7270D01*
X3294Y7271D01*
X3296Y7272D01*
X3297Y7274D01*
X3302Y7278D01*
X3304Y7279D01*
X3307Y7281D01*
X3308Y7283D01*
X3313Y7287D01*
X3315Y7288D01*
X3317Y7291D01*
X3318Y7312D01*
X3316Y7315D01*
X3303Y7317D01*
X3301Y7320D01*
X3298Y7325D01*
X3293Y7330D01*
X3292Y7332D01*
X3289Y7336D01*
X3276Y7339D01*
X3275Y7340D01*
X3272Y7347D01*
X3268Y7348D01*
X3258Y7350D01*
X3256Y7353D01*
X3255Y7355D01*
X3254Y7358D01*
X3252Y7359D01*
X3248Y7363D01*
X3247Y7365D01*
X3244Y7369D01*
X3231Y7372D01*
X3230Y7373D01*
X3227Y7378D01*
X3225Y7381D01*
X3216Y7381D01*
X3213Y7383D01*
X3211Y7386D01*
X3210Y7388D01*
X3206Y7393D01*
X3204Y7394D01*
X3202Y7397D01*
X3200Y7401D01*
X3196Y7403D01*
X3186Y7404D01*
X3184Y7407D01*
X3181Y7412D01*
X3177Y7414D01*
X3173Y7414D01*
X3168Y7415D01*
X3166Y7417D01*
X3164Y7422D01*
X3162Y7425D01*
X3160Y7426D01*
X3157Y7430D01*
X3156Y7432D01*
X3154Y7434D01*
X3151Y7436D01*
X3144Y7436D01*
X3141Y7437D01*
X3138Y7440D01*
X3138Y7442D01*
X3136Y7445D01*
X3134Y7446D01*
X3130Y7450D01*
X3129Y7452D01*
X3126Y7457D01*
X3114Y7459D01*
X3112Y7460D01*
X3110Y7466D01*
X3108Y7467D01*
X3106Y7468D01*
X3102Y7473D01*
X3102Y7475D01*
X3099Y7478D01*
X3097Y7479D01*
X3094Y7483D01*
X3094Y7487D01*
X3095Y7494D01*
X3098Y7496D01*
X3100Y7497D01*
X3104Y7499D01*
X3105Y7501D01*
X3109Y7505D01*
X3111Y7506D01*
X3116Y7509D01*
X3118Y7522D01*
X3119Y7523D01*
X3124Y7526D01*
X3127Y7528D01*
X3129Y7541D01*
X3131Y7542D01*
X3140Y7542D01*
X3143Y7541D01*
D02*
G37*
G36*
X1876Y7843D02*
X1882Y7836D01*
X1885Y7835D01*
X1895Y7834D01*
X1896Y7833D01*
X1897Y7831D01*
X1900Y7828D01*
X1902Y7827D01*
X1904Y7825D01*
X1906Y7825D01*
X1907Y7823D01*
X1909Y7821D01*
X1910Y7819D01*
X1917Y7816D01*
X1918Y7814D01*
X1921Y7809D01*
X1925Y7809D01*
X1931Y7810D01*
X1936Y7808D01*
X1937Y7806D01*
X1940Y7803D01*
X1947Y7800D01*
X1948Y7796D01*
X1947Y7792D01*
X1940Y7788D01*
X1939Y7786D01*
X1940Y7777D01*
X1937Y7773D01*
X1932Y7769D01*
X1931Y7767D01*
X1929Y7763D01*
X1927Y7762D01*
X1925Y7760D01*
X1923Y7759D01*
X1923Y7757D01*
X1921Y7755D01*
X1920Y7753D01*
X1914Y7749D01*
X1913Y7743D01*
X1914Y7740D01*
X1913Y7735D01*
X1912Y7733D01*
X1906Y7729D01*
X1905Y7725D01*
X1905Y7715D01*
X1902Y7712D01*
X1900Y7711D01*
X1896Y7706D01*
X1895Y7704D01*
X1893Y7702D01*
X1888Y7698D01*
X1888Y7685D01*
X1885Y7682D01*
X1881Y7679D01*
X1879Y7677D01*
X1882Y7656D01*
X1883Y7654D01*
X1889Y7652D01*
X1891Y7649D01*
X1893Y7622D01*
X1894Y7619D01*
X1897Y7616D01*
X1899Y7615D01*
X1903Y7613D01*
X1904Y7606D01*
X1904Y7596D01*
X1906Y7575D01*
X1906Y7564D01*
X1909Y7560D01*
X1916Y7559D01*
X1922Y7560D01*
X1925Y7564D01*
X1926Y7566D01*
X1927Y7568D01*
X1929Y7570D01*
X1934Y7572D01*
X1934Y7576D01*
X1935Y7586D01*
X1937Y7589D01*
X1939Y7590D01*
X1943Y7595D01*
X1944Y7597D01*
X1946Y7600D01*
X1951Y7603D01*
X1952Y7609D01*
X1951Y7611D01*
X1951Y7617D01*
X1954Y7619D01*
X1958Y7623D01*
X1961Y7626D01*
X1962Y7629D01*
X1964Y7630D01*
X1968Y7634D01*
X1969Y7638D01*
X1967Y7644D01*
X1972Y7649D01*
X1973Y7650D01*
X1977Y7654D01*
X1978Y7656D01*
X1981Y7660D01*
X1985Y7663D01*
X1986Y7667D01*
X1986Y7677D01*
X1988Y7679D01*
X1993Y7683D01*
X1994Y7687D01*
X1993Y7690D01*
X1994Y7696D01*
X1995Y7698D01*
X2000Y7701D01*
X2002Y7704D01*
X2003Y7706D01*
X2006Y7710D01*
X2008Y7711D01*
X2011Y7714D01*
X2010Y7724D01*
X2012Y7728D01*
X2014Y7729D01*
X2016Y7730D01*
X2020Y7735D01*
X2021Y7737D01*
X2022Y7739D01*
X2024Y7740D01*
X2027Y7743D01*
X2028Y7745D01*
X2031Y7749D01*
X2035Y7751D01*
X2043Y7750D01*
X2046Y7748D01*
X2049Y7743D01*
X2051Y7742D01*
X2064Y7742D01*
X2065Y7740D01*
X2069Y7735D01*
X2071Y7733D01*
X2073Y7732D01*
X2077Y7729D01*
X2078Y7727D01*
X2080Y7725D01*
X2084Y7724D01*
X2091Y7726D01*
X2097Y7721D01*
X2099Y7717D01*
X2102Y7716D01*
X2106Y7713D01*
X2107Y7709D01*
X2107Y7701D01*
X2104Y7697D01*
X2102Y7696D01*
X2099Y7693D01*
X2098Y7691D01*
X2095Y7687D01*
X2093Y7686D01*
X2089Y7682D01*
X2091Y7673D01*
X2088Y7669D01*
X2087Y7667D01*
X2085Y7666D01*
X2081Y7661D01*
X2080Y7659D01*
X2079Y7658D01*
X2077Y7657D01*
X2073Y7654D01*
X2073Y7650D01*
X2072Y7640D01*
X2071Y7638D01*
X2066Y7635D01*
X2065Y7633D01*
X2064Y7629D01*
X2065Y7625D01*
X2065Y7620D01*
X2059Y7616D01*
X2056Y7613D01*
X2056Y7611D01*
X2052Y7607D01*
X2050Y7606D01*
X2047Y7602D01*
X2046Y7600D01*
X2044Y7598D01*
X2042Y7596D01*
X2039Y7594D01*
X2039Y7581D01*
X2036Y7578D01*
X2032Y7575D01*
X2030Y7573D01*
X2030Y7560D01*
X2024Y7556D01*
X2023Y7554D01*
X2022Y7552D01*
X2019Y7548D01*
X2017Y7547D01*
X2014Y7545D01*
X2014Y7541D01*
X2013Y7531D01*
X2011Y7528D01*
X2009Y7527D01*
X2005Y7523D01*
X2004Y7520D01*
X2002Y7518D01*
X1997Y7514D01*
X1997Y7502D01*
X1995Y7499D01*
X1993Y7498D01*
X1989Y7494D01*
X1988Y7492D01*
X1987Y7490D01*
X1985Y7489D01*
X1980Y7484D01*
X1979Y7480D01*
X1980Y7477D01*
X1980Y7471D01*
X1978Y7469D01*
X1971Y7465D01*
X1971Y7452D01*
X1969Y7449D01*
X1964Y7445D01*
X1961Y7440D01*
X1955Y7435D01*
X1954Y7432D01*
X1954Y7421D01*
X1953Y7420D01*
X1948Y7416D01*
X1946Y7414D01*
X1945Y7412D01*
X1942Y7408D01*
X1940Y7407D01*
X1937Y7404D01*
X1937Y7400D01*
X1938Y7397D01*
X1937Y7392D01*
X1934Y7388D01*
X1929Y7385D01*
X1929Y7372D01*
X1927Y7370D01*
X1925Y7369D01*
X1921Y7365D01*
X1920Y7363D01*
X1916Y7358D01*
X1914Y7357D01*
X1912Y7354D01*
X1911Y7352D01*
X1907Y7348D01*
X1905Y7346D01*
X1903Y7344D01*
X1903Y7331D01*
X1897Y7327D01*
X1894Y7323D01*
X1893Y7321D01*
X1891Y7319D01*
X1887Y7316D01*
X1886Y7312D01*
X1886Y7302D01*
X1883Y7299D01*
X1881Y7298D01*
X1878Y7294D01*
X1876Y7289D01*
X1871Y7288D01*
X1868Y7291D01*
X1865Y7297D01*
X1860Y7297D01*
X1855Y7297D01*
X1851Y7298D01*
X1849Y7300D01*
X1848Y7302D01*
X1844Y7305D01*
X1842Y7306D01*
X1838Y7309D01*
X1837Y7311D01*
X1833Y7315D01*
X1831Y7315D01*
X1829Y7318D01*
X1828Y7320D01*
X1825Y7323D01*
X1819Y7323D01*
X1816Y7322D01*
X1812Y7323D01*
X1809Y7325D01*
X1808Y7327D01*
X1804Y7330D01*
X1799Y7333D01*
X1798Y7339D01*
X1800Y7340D01*
X1802Y7341D01*
X1807Y7346D01*
X1812Y7352D01*
X1814Y7353D01*
X1816Y7356D01*
X1816Y7369D01*
X1824Y7374D01*
X1824Y7379D01*
X1823Y7382D01*
X1824Y7387D01*
X1826Y7390D01*
X1828Y7391D01*
X1831Y7394D01*
X1832Y7396D01*
X1834Y7399D01*
X1836Y7401D01*
X1841Y7404D01*
X1841Y7408D01*
X1840Y7415D01*
X1842Y7418D01*
X1846Y7422D01*
X1847Y7422D01*
X1849Y7425D01*
X1850Y7427D01*
X1853Y7431D01*
X1855Y7432D01*
X1858Y7435D01*
X1856Y7456D01*
X1852Y7459D01*
X1848Y7462D01*
X1846Y7466D01*
X1846Y7482D01*
X1843Y7486D01*
X1841Y7487D01*
X1837Y7489D01*
X1834Y7494D01*
X1834Y7513D01*
X1832Y7529D01*
X1832Y7539D01*
X1827Y7544D01*
X1825Y7544D01*
X1824Y7546D01*
X1820Y7552D01*
X1816Y7553D01*
X1814Y7552D01*
X1812Y7549D01*
X1809Y7544D01*
X1807Y7541D01*
X1805Y7540D01*
X1803Y7538D01*
X1802Y7536D01*
X1801Y7534D01*
X1799Y7533D01*
X1794Y7528D01*
X1794Y7515D01*
X1789Y7511D01*
X1785Y7507D01*
X1785Y7505D01*
X1782Y7502D01*
X1780Y7501D01*
X1778Y7500D01*
X1777Y7496D01*
X1777Y7486D01*
X1775Y7483D01*
X1770Y7480D01*
X1769Y7475D01*
X1770Y7469D01*
X1768Y7465D01*
X1766Y7463D01*
X1761Y7459D01*
X1760Y7457D01*
X1757Y7453D01*
X1755Y7452D01*
X1752Y7448D01*
X1752Y7436D01*
X1749Y7433D01*
X1747Y7432D01*
X1743Y7427D01*
X1742Y7425D01*
X1741Y7424D01*
X1739Y7423D01*
X1735Y7419D01*
X1735Y7406D01*
X1733Y7404D01*
X1731Y7403D01*
X1727Y7399D01*
X1726Y7397D01*
X1722Y7393D01*
X1720Y7391D01*
X1718Y7389D01*
X1717Y7387D01*
X1716Y7384D01*
X1714Y7383D01*
X1711Y7382D01*
X1703Y7382D01*
X1699Y7385D01*
X1698Y7387D01*
X1694Y7391D01*
X1692Y7391D01*
X1689Y7395D01*
X1686Y7399D01*
X1682Y7400D01*
X1672Y7400D01*
X1669Y7402D01*
X1666Y7407D01*
X1661Y7408D01*
X1654Y7407D01*
X1650Y7410D01*
X1648Y7417D01*
X1648Y7427D01*
X1647Y7440D01*
X1650Y7444D01*
X1654Y7448D01*
X1656Y7449D01*
X1656Y7462D01*
X1657Y7464D01*
X1662Y7467D01*
X1664Y7470D01*
X1665Y7472D01*
X1669Y7476D01*
X1672Y7477D01*
X1674Y7482D01*
X1672Y7486D01*
X1673Y7491D01*
X1676Y7495D01*
X1679Y7497D01*
X1680Y7499D01*
X1684Y7505D01*
X1689Y7508D01*
X1690Y7512D01*
X1689Y7519D01*
X1692Y7524D01*
X1697Y7527D01*
X1698Y7529D01*
X1699Y7531D01*
X1703Y7536D01*
X1705Y7537D01*
X1707Y7540D01*
X1708Y7553D01*
X1715Y7558D01*
X1716Y7563D01*
X1715Y7566D01*
X1715Y7571D01*
X1717Y7574D01*
X1719Y7575D01*
X1723Y7578D01*
X1724Y7580D01*
X1726Y7583D01*
X1728Y7584D01*
X1732Y7588D01*
X1733Y7592D01*
X1732Y7599D01*
X1733Y7602D01*
X1739Y7607D01*
X1740Y7609D01*
X1741Y7611D01*
X1745Y7615D01*
X1746Y7616D01*
X1749Y7617D01*
X1750Y7621D01*
X1750Y7631D01*
X1752Y7634D01*
X1754Y7635D01*
X1756Y7637D01*
X1757Y7639D01*
X1760Y7644D01*
X1762Y7645D01*
X1767Y7648D01*
X1767Y7661D01*
X1768Y7663D01*
X1773Y7666D01*
X1774Y7668D01*
X1775Y7672D01*
X1774Y7678D01*
X1778Y7684D01*
X1780Y7685D01*
X1783Y7689D01*
X1784Y7691D01*
X1787Y7694D01*
X1789Y7695D01*
X1792Y7699D01*
X1793Y7701D01*
X1795Y7704D01*
X1797Y7705D01*
X1800Y7708D01*
X1801Y7713D01*
X1800Y7716D01*
X1800Y7721D01*
X1803Y7723D01*
X1808Y7727D01*
X1809Y7728D01*
X1809Y7741D01*
X1815Y7746D01*
X1817Y7748D01*
X1817Y7750D01*
X1822Y7755D01*
X1823Y7756D01*
X1826Y7758D01*
X1827Y7760D01*
X1830Y7764D01*
X1832Y7765D01*
X1835Y7769D01*
X1835Y7781D01*
X1837Y7784D01*
X1842Y7787D01*
X1843Y7793D01*
X1842Y7795D01*
X1843Y7800D01*
X1845Y7803D01*
X1850Y7806D01*
X1851Y7808D01*
X1851Y7821D01*
X1857Y7825D01*
X1860Y7829D01*
X1861Y7831D01*
X1863Y7833D01*
X1865Y7834D01*
X1866Y7836D01*
X1867Y7838D01*
X1871Y7844D01*
X1876Y7843D01*
D02*
G37*
G36*
X413Y5095D02*
X412D01*
X409Y5094D01*
X404Y5093D01*
X397Y5091D01*
X384Y5086D01*
X378Y5082D01*
X373Y5078D01*
X372Y5078D01*
X371Y5076D01*
X369Y5073D01*
X367Y5070D01*
X365Y5066D01*
X364Y5060D01*
X362Y5054D01*
X362Y5047D01*
Y5044D01*
X362Y5040D01*
X364Y5036D01*
X365Y5031D01*
X367Y5025D01*
X371Y5020D01*
X376Y5015D01*
X376Y5014D01*
X378Y5013D01*
X381Y5010D01*
X386Y5008D01*
X391Y5006D01*
X398Y5003D01*
X406Y5002D01*
X414Y5001D01*
X415D01*
X418D01*
X422Y5002D01*
X428Y5002D01*
X434Y5004D01*
X440Y5006D01*
X446Y5009D01*
X452Y5014D01*
X452Y5015D01*
X453Y5016D01*
X456Y5019D01*
X459Y5023D01*
X460Y5028D01*
X463Y5034D01*
X464Y5041D01*
X465Y5048D01*
Y5053D01*
X464Y5057D01*
X464Y5061D01*
X462Y5066D01*
X461Y5073D01*
X459Y5080D01*
X528Y5075D01*
Y5071D01*
X527Y5066D01*
Y5059D01*
X528Y5055D01*
X529Y5051D01*
X530Y5046D01*
X532Y5041D01*
X535Y5036D01*
X539Y5031D01*
X539Y5030D01*
X541Y5029D01*
X543Y5026D01*
X547Y5024D01*
X551Y5022D01*
X556Y5019D01*
X562Y5018D01*
X567Y5017D01*
X568D01*
X570D01*
X573Y5018D01*
X576Y5018D01*
X581Y5020D01*
X585Y5021D01*
X589Y5024D01*
X593Y5027D01*
X594Y5027D01*
X594Y5029D01*
X596Y5031D01*
X598Y5034D01*
X599Y5038D01*
X601Y5042D01*
X602Y5047D01*
X602Y5053D01*
Y5056D01*
X602Y5059D01*
X601Y5064D01*
X600Y5068D01*
X598Y5073D01*
X595Y5077D01*
X592Y5081D01*
X591Y5082D01*
X590Y5083D01*
X587Y5085D01*
X583Y5087D01*
X578Y5089D01*
X573Y5092D01*
X565Y5094D01*
X556Y5095D01*
X572Y5187D01*
X573D01*
X574Y5187D01*
X576Y5186D01*
X579Y5185D01*
X583Y5183D01*
X587Y5182D01*
X597Y5178D01*
X608Y5172D01*
X619Y5164D01*
X630Y5155D01*
X639Y5144D01*
Y5143D01*
X641Y5143D01*
X641Y5141D01*
X643Y5138D01*
X645Y5134D01*
X647Y5131D01*
X649Y5125D01*
X652Y5120D01*
X653Y5114D01*
X655Y5107D01*
X657Y5099D01*
X659Y5091D01*
X661Y5082D01*
X662Y5073D01*
X663Y5052D01*
Y5045D01*
X662Y5040D01*
Y5034D01*
X662Y5028D01*
X661Y5021D01*
X660Y5013D01*
X657Y4997D01*
X652Y4981D01*
X646Y4965D01*
X642Y4959D01*
X637Y4952D01*
Y4952D01*
X636Y4951D01*
X633Y4947D01*
X627Y4943D01*
X620Y4937D01*
X611Y4931D01*
X600Y4926D01*
X587Y4923D01*
X580Y4922D01*
X573Y4922D01*
X572D01*
X569D01*
X565Y4922D01*
X560Y4923D01*
X553Y4925D01*
X546Y4927D01*
X539Y4930D01*
X532Y4934D01*
X532Y4935D01*
X529Y4937D01*
X526Y4939D01*
X522Y4943D01*
X517Y4948D01*
X511Y4955D01*
X506Y4962D01*
X501Y4971D01*
Y4971D01*
X500Y4968D01*
X499Y4964D01*
X497Y4960D01*
X494Y4950D01*
X492Y4945D01*
X489Y4941D01*
X488Y4940D01*
X487Y4938D01*
X485Y4935D01*
X481Y4931D01*
X478Y4927D01*
X473Y4922D01*
X467Y4918D01*
X460Y4914D01*
X460Y4913D01*
X457Y4912D01*
X453Y4911D01*
X449Y4909D01*
X443Y4907D01*
X436Y4905D01*
X428Y4904D01*
X419Y4904D01*
X418D01*
X418D01*
X414D01*
X408Y4904D01*
X401Y4906D01*
X391Y4908D01*
X381Y4911D01*
X371Y4915D01*
X360Y4920D01*
X359Y4921D01*
X356Y4924D01*
X351Y4927D01*
X344Y4932D01*
X337Y4939D01*
X330Y4946D01*
X323Y4955D01*
X317Y4966D01*
Y4967D01*
X316Y4967D01*
X316Y4969D01*
X315Y4972D01*
X314Y4974D01*
X313Y4978D01*
X310Y4987D01*
X307Y4999D01*
X305Y5012D01*
X303Y5028D01*
X302Y5045D01*
Y5053D01*
X303Y5057D01*
Y5062D01*
X304Y5072D01*
X305Y5084D01*
X307Y5097D01*
X309Y5109D01*
X313Y5120D01*
X314Y5122D01*
X315Y5125D01*
X318Y5130D01*
X322Y5136D01*
X326Y5143D01*
X332Y5151D01*
X338Y5159D01*
X346Y5166D01*
X347Y5166D01*
X350Y5169D01*
X354Y5172D01*
X360Y5176D01*
X369Y5180D01*
X378Y5184D01*
X388Y5188D01*
X400Y5192D01*
X413Y5095D01*
D02*
G37*
G36*
X657Y4770D02*
X406Y4692D01*
X657Y4614D01*
Y4504D01*
X308Y4634D01*
Y4751D01*
X657Y4883D01*
Y4770D01*
D02*
G37*
G36*
X413Y4390D02*
X412D01*
X409Y4389D01*
X404Y4388D01*
X397Y4386D01*
X384Y4381D01*
X378Y4377D01*
X373Y4373D01*
X372Y4372D01*
X371Y4371D01*
X369Y4368D01*
X367Y4365D01*
X365Y4360D01*
X364Y4355D01*
X362Y4349D01*
X362Y4342D01*
Y4339D01*
X362Y4335D01*
X364Y4330D01*
X365Y4325D01*
X367Y4320D01*
X371Y4315D01*
X376Y4309D01*
X376Y4309D01*
X378Y4308D01*
X381Y4305D01*
X386Y4302D01*
X391Y4301D01*
X398Y4298D01*
X406Y4297D01*
X414Y4296D01*
X415D01*
X418D01*
X422Y4297D01*
X428Y4297D01*
X434Y4299D01*
X440Y4301D01*
X446Y4304D01*
X452Y4309D01*
X452Y4309D01*
X453Y4311D01*
X456Y4314D01*
X459Y4318D01*
X460Y4323D01*
X463Y4329D01*
X464Y4336D01*
X465Y4343D01*
Y4348D01*
X464Y4351D01*
X464Y4356D01*
X462Y4361D01*
X461Y4367D01*
X459Y4374D01*
X528Y4370D01*
Y4365D01*
X527Y4361D01*
Y4354D01*
X528Y4350D01*
X529Y4346D01*
X530Y4341D01*
X532Y4336D01*
X535Y4330D01*
X539Y4325D01*
X539Y4325D01*
X541Y4323D01*
X543Y4321D01*
X547Y4318D01*
X551Y4316D01*
X556Y4314D01*
X562Y4313D01*
X567Y4312D01*
X568D01*
X570D01*
X573Y4313D01*
X576Y4313D01*
X581Y4315D01*
X585Y4316D01*
X589Y4318D01*
X593Y4322D01*
X594Y4322D01*
X594Y4323D01*
X596Y4325D01*
X598Y4329D01*
X599Y4332D01*
X601Y4337D01*
X602Y4342D01*
X602Y4348D01*
Y4351D01*
X602Y4354D01*
X601Y4358D01*
X600Y4363D01*
X598Y4367D01*
X595Y4372D01*
X592Y4376D01*
X591Y4377D01*
X590Y4378D01*
X587Y4379D01*
X583Y4382D01*
X578Y4384D01*
X573Y4387D01*
X565Y4388D01*
X556Y4390D01*
X572Y4482D01*
X573D01*
X574Y4481D01*
X576Y4481D01*
X579Y4480D01*
X583Y4478D01*
X587Y4477D01*
X597Y4473D01*
X608Y4467D01*
X619Y4459D01*
X630Y4450D01*
X639Y4439D01*
Y4438D01*
X641Y4437D01*
X641Y4436D01*
X643Y4432D01*
X645Y4429D01*
X647Y4425D01*
X649Y4420D01*
X652Y4415D01*
X653Y4409D01*
X655Y4402D01*
X657Y4394D01*
X659Y4386D01*
X661Y4377D01*
X662Y4367D01*
X663Y4346D01*
Y4340D01*
X662Y4335D01*
Y4329D01*
X662Y4323D01*
X661Y4316D01*
X660Y4308D01*
X657Y4292D01*
X652Y4276D01*
X646Y4260D01*
X642Y4253D01*
X637Y4247D01*
Y4246D01*
X636Y4246D01*
X633Y4242D01*
X627Y4237D01*
X620Y4232D01*
X611Y4226D01*
X600Y4221D01*
X587Y4218D01*
X580Y4217D01*
X573Y4216D01*
X572D01*
X569D01*
X565Y4217D01*
X560Y4218D01*
X553Y4220D01*
X546Y4222D01*
X539Y4225D01*
X532Y4229D01*
X532Y4230D01*
X529Y4232D01*
X526Y4234D01*
X522Y4238D01*
X517Y4243D01*
X511Y4250D01*
X506Y4257D01*
X501Y4266D01*
Y4265D01*
X500Y4263D01*
X499Y4259D01*
X497Y4255D01*
X494Y4245D01*
X492Y4240D01*
X489Y4236D01*
X488Y4235D01*
X487Y4233D01*
X485Y4230D01*
X481Y4226D01*
X478Y4222D01*
X473Y4217D01*
X467Y4213D01*
X460Y4209D01*
X460Y4208D01*
X457Y4207D01*
X453Y4206D01*
X449Y4204D01*
X443Y4202D01*
X436Y4200D01*
X428Y4199D01*
X419Y4199D01*
X418D01*
X418D01*
X414D01*
X408Y4199D01*
X401Y4201D01*
X391Y4202D01*
X381Y4206D01*
X371Y4209D01*
X360Y4215D01*
X359Y4216D01*
X356Y4218D01*
X351Y4222D01*
X344Y4227D01*
X337Y4234D01*
X330Y4241D01*
X323Y4250D01*
X317Y4261D01*
Y4262D01*
X316Y4262D01*
X316Y4264D01*
X315Y4267D01*
X314Y4269D01*
X313Y4273D01*
X310Y4282D01*
X307Y4294D01*
X305Y4307D01*
X303Y4323D01*
X302Y4340D01*
Y4348D01*
X303Y4351D01*
Y4357D01*
X304Y4367D01*
X305Y4379D01*
X307Y4392D01*
X309Y4404D01*
X313Y4415D01*
X314Y4416D01*
X315Y4420D01*
X318Y4425D01*
X322Y4431D01*
X326Y4438D01*
X332Y4446D01*
X338Y4453D01*
X346Y4460D01*
X347Y4461D01*
X350Y4464D01*
X354Y4467D01*
X360Y4471D01*
X369Y4475D01*
X378Y4479D01*
X388Y4483D01*
X400Y4487D01*
X413Y4390D01*
D02*
G37*
G36*
X3197Y5501D02*
X3105D01*
X3053Y5689D01*
X3001Y5501D01*
X2910D01*
X2844Y5800D01*
X2931D01*
X2963Y5633D01*
X3009Y5800D01*
X3097D01*
X3143Y5633D01*
X3175Y5800D01*
X3263D01*
X3197Y5501D01*
D02*
G37*
G36*
X3462Y5800D02*
X3472Y5799D01*
X3483Y5799D01*
X3494Y5797D01*
X3504Y5795D01*
X3513Y5793D01*
X3514Y5792D01*
X3517Y5791D01*
X3521Y5789D01*
X3526Y5787D01*
X3532Y5783D01*
X3538Y5778D01*
X3544Y5772D01*
X3550Y5765D01*
X3550Y5764D01*
X3552Y5762D01*
X3554Y5758D01*
X3557Y5752D01*
X3560Y5744D01*
X3562Y5736D01*
X3563Y5727D01*
X3564Y5717D01*
Y5716D01*
Y5712D01*
X3563Y5708D01*
X3563Y5702D01*
X3561Y5695D01*
X3560Y5688D01*
X3557Y5681D01*
X3553Y5673D01*
X3553Y5673D01*
X3551Y5671D01*
X3549Y5667D01*
X3545Y5663D01*
X3541Y5659D01*
X3536Y5654D01*
X3530Y5649D01*
X3524Y5645D01*
X3523Y5644D01*
X3521Y5643D01*
X3519Y5642D01*
X3515Y5640D01*
X3510Y5639D01*
X3505Y5636D01*
X3498Y5635D01*
X3491Y5633D01*
X3492D01*
X3494Y5631D01*
X3497Y5630D01*
X3501Y5629D01*
X3508Y5625D01*
X3512Y5624D01*
X3515Y5622D01*
X3516Y5621D01*
X3518Y5620D01*
X3519Y5618D01*
X3521Y5616D01*
X3524Y5613D01*
X3527Y5610D01*
X3530Y5606D01*
X3531Y5605D01*
X3532Y5604D01*
X3533Y5601D01*
X3536Y5599D01*
X3540Y5593D01*
X3542Y5590D01*
X3543Y5587D01*
X3589Y5501D01*
X3484D01*
X3434Y5592D01*
X3433Y5593D01*
X3432Y5595D01*
X3431Y5598D01*
X3429Y5601D01*
X3423Y5609D01*
X3420Y5612D01*
X3417Y5615D01*
X3417Y5616D01*
X3415Y5616D01*
X3413Y5617D01*
X3411Y5619D01*
X3407Y5620D01*
X3403Y5621D01*
X3399Y5622D01*
X3394Y5622D01*
X3387D01*
Y5501D01*
X3294D01*
Y5800D01*
X3459D01*
X3462Y5800D01*
D02*
G37*
G36*
X2734D02*
X2738D01*
X2743Y5799D01*
X2754Y5797D01*
X2766Y5794D01*
X2778Y5790D01*
X2790Y5784D01*
X2796Y5781D01*
X2801Y5776D01*
X2801D01*
X2802Y5775D01*
X2803Y5773D01*
X2805Y5772D01*
X2809Y5766D01*
X2813Y5759D01*
X2818Y5749D01*
X2822Y5737D01*
X2825Y5724D01*
X2826Y5717D01*
Y5708D01*
Y5708D01*
Y5706D01*
Y5704D01*
X2825Y5701D01*
Y5697D01*
X2824Y5693D01*
X2823Y5683D01*
X2819Y5671D01*
X2814Y5659D01*
X2811Y5653D01*
X2808Y5648D01*
X2803Y5642D01*
X2799Y5637D01*
X2798D01*
X2797Y5636D01*
X2796Y5635D01*
X2794Y5634D01*
X2790Y5631D01*
X2787Y5629D01*
X2783Y5627D01*
X2778Y5625D01*
X2772Y5623D01*
X2766Y5621D01*
X2759Y5618D01*
X2752Y5616D01*
X2743Y5615D01*
X2735Y5613D01*
X2725Y5613D01*
X2715Y5612D01*
X2665D01*
Y5501D01*
X2572D01*
Y5800D01*
X2730D01*
X2734Y5800D01*
D02*
G37*
G36*
X4190Y3873D02*
X4190Y3870D01*
Y3865D01*
X4189Y3861D01*
X4187Y3849D01*
X4184Y3837D01*
X4179Y3824D01*
X4173Y3812D01*
X4165Y3800D01*
Y3800D01*
X4163Y3799D01*
X4160Y3796D01*
X4155Y3791D01*
X4148Y3786D01*
X4139Y3782D01*
X4128Y3777D01*
X4116Y3774D01*
X4110Y3773D01*
X4103D01*
X4102D01*
X4102D01*
X4098D01*
X4092Y3774D01*
X4085Y3776D01*
X4077Y3778D01*
X4068Y3781D01*
X4059Y3786D01*
X4050Y3793D01*
X4049Y3793D01*
X4048Y3795D01*
X4045Y3798D01*
X4042Y3802D01*
X4038Y3807D01*
X4034Y3814D01*
X4030Y3821D01*
X4027Y3830D01*
Y3830D01*
X4026Y3828D01*
Y3827D01*
X4025Y3824D01*
X4023Y3818D01*
X4020Y3809D01*
X4015Y3800D01*
X4009Y3791D01*
X4003Y3783D01*
X3995Y3775D01*
X3994Y3774D01*
X3992Y3772D01*
X3986Y3769D01*
X3980Y3766D01*
X3972Y3763D01*
X3963Y3760D01*
X3952Y3758D01*
X3940Y3757D01*
X3939D01*
X3935D01*
X3930Y3758D01*
X3924Y3758D01*
X3916Y3760D01*
X3908Y3762D01*
X3900Y3765D01*
X3891Y3770D01*
X3891Y3770D01*
X3888Y3772D01*
X3884Y3775D01*
X3879Y3779D01*
X3874Y3784D01*
X3868Y3790D01*
X3862Y3797D01*
X3857Y3805D01*
Y3805D01*
X3856Y3807D01*
X3855Y3811D01*
X3853Y3815D01*
X3851Y3821D01*
X3849Y3828D01*
X3848Y3836D01*
X3846Y3846D01*
Y3847D01*
X3845Y3849D01*
Y3851D01*
X3844Y3858D01*
X3844Y3865D01*
X3842Y3874D01*
X3842Y3881D01*
X3841Y3888D01*
Y4080D01*
X4190D01*
Y3873D01*
D02*
G37*
G36*
X4023Y3713D02*
X4029D01*
X4036Y3712D01*
X4044Y3711D01*
X4054Y3710D01*
X4063Y3708D01*
X4074Y3705D01*
X4085Y3702D01*
X4096Y3698D01*
X4107Y3694D01*
X4118Y3688D01*
X4129Y3682D01*
X4139Y3675D01*
X4148Y3667D01*
X4149Y3666D01*
X4150Y3664D01*
X4153Y3662D01*
X4156Y3658D01*
X4159Y3653D01*
X4163Y3647D01*
X4168Y3640D01*
X4172Y3632D01*
X4177Y3623D01*
X4181Y3613D01*
X4185Y3602D01*
X4188Y3590D01*
X4192Y3577D01*
X4194Y3563D01*
X4195Y3549D01*
X4196Y3533D01*
Y3525D01*
X4195Y3519D01*
X4195Y3512D01*
X4193Y3504D01*
X4192Y3494D01*
X4190Y3484D01*
X4188Y3474D01*
X4185Y3463D01*
X4181Y3451D01*
X4176Y3440D01*
X4171Y3430D01*
X4164Y3419D01*
X4157Y3409D01*
X4149Y3400D01*
X4148Y3399D01*
X4147Y3398D01*
X4144Y3395D01*
X4141Y3392D01*
X4135Y3389D01*
X4130Y3384D01*
X4123Y3380D01*
X4115Y3376D01*
X4106Y3371D01*
X4097Y3367D01*
X4086Y3363D01*
X4074Y3360D01*
X4062Y3356D01*
X4048Y3354D01*
X4034Y3353D01*
X4018Y3352D01*
X4018D01*
X4016D01*
X4013D01*
X4008D01*
X4003Y3353D01*
X3997Y3353D01*
X3990Y3354D01*
X3983Y3354D01*
X3967Y3357D01*
X3950Y3361D01*
X3934Y3366D01*
X3918Y3373D01*
X3917D01*
X3916Y3374D01*
X3914Y3375D01*
X3911Y3377D01*
X3904Y3381D01*
X3895Y3388D01*
X3886Y3397D01*
X3876Y3407D01*
X3866Y3418D01*
X3857Y3432D01*
Y3433D01*
X3856Y3434D01*
X3855Y3436D01*
X3854Y3439D01*
X3852Y3443D01*
X3850Y3447D01*
X3848Y3453D01*
X3846Y3459D01*
X3844Y3466D01*
X3842Y3473D01*
X3839Y3490D01*
X3836Y3509D01*
X3835Y3530D01*
Y3539D01*
X3836Y3544D01*
X3837Y3550D01*
Y3556D01*
X3838Y3564D01*
X3840Y3579D01*
X3843Y3595D01*
X3848Y3612D01*
X3854Y3627D01*
Y3628D01*
X3855Y3629D01*
X3856Y3631D01*
X3858Y3633D01*
X3862Y3641D01*
X3869Y3649D01*
X3876Y3660D01*
X3887Y3670D01*
X3899Y3681D01*
X3913Y3690D01*
X3914D01*
X3915Y3691D01*
X3918Y3692D01*
X3921Y3694D01*
X3925Y3696D01*
X3929Y3698D01*
X3935Y3700D01*
X3941Y3702D01*
X3948Y3704D01*
X3956Y3706D01*
X3964Y3708D01*
X3974Y3710D01*
X3993Y3712D01*
X4015Y3714D01*
X4016D01*
X4019D01*
X4023Y3713D01*
D02*
G37*
G36*
X5051Y3346D02*
X4965D01*
Y3456D01*
X4702D01*
Y3564D01*
X4965D01*
Y3674D01*
X5051D01*
Y3346D01*
D02*
G37*
G36*
X4455Y3629D02*
X4461D01*
X4468Y3629D01*
X4477Y3627D01*
X4486Y3626D01*
X4496Y3624D01*
X4507Y3622D01*
X4517Y3619D01*
X4528Y3615D01*
X4540Y3611D01*
X4551Y3605D01*
X4561Y3599D01*
X4571Y3592D01*
X4580Y3584D01*
X4580Y3583D01*
X4582Y3582D01*
X4584Y3579D01*
X4587Y3576D01*
X4591Y3571D01*
X4594Y3565D01*
X4599Y3559D01*
X4603Y3550D01*
X4607Y3542D01*
X4612Y3532D01*
X4615Y3521D01*
X4619Y3510D01*
X4622Y3497D01*
X4624Y3483D01*
X4626Y3469D01*
X4626Y3454D01*
Y3447D01*
X4626Y3443D01*
Y3437D01*
X4625Y3431D01*
X4624Y3424D01*
X4623Y3416D01*
X4620Y3399D01*
X4615Y3382D01*
X4609Y3365D01*
X4604Y3357D01*
X4600Y3350D01*
Y3349D01*
X4598Y3348D01*
X4597Y3346D01*
X4594Y3343D01*
X4592Y3340D01*
X4588Y3336D01*
X4584Y3333D01*
X4579Y3328D01*
X4574Y3324D01*
X4568Y3319D01*
X4561Y3314D01*
X4554Y3310D01*
X4545Y3305D01*
X4537Y3301D01*
X4528Y3297D01*
X4517Y3293D01*
X4496Y3389D01*
X4497D01*
X4499Y3389D01*
X4502Y3390D01*
X4505Y3392D01*
X4513Y3396D01*
X4516Y3397D01*
X4519Y3399D01*
X4520Y3400D01*
X4521Y3401D01*
X4524Y3403D01*
X4526Y3406D01*
X4533Y3413D01*
X4538Y3422D01*
X4539Y3422D01*
X4540Y3424D01*
X4541Y3427D01*
X4542Y3430D01*
X4544Y3434D01*
X4544Y3440D01*
X4545Y3445D01*
Y3455D01*
X4545Y3457D01*
X4544Y3464D01*
X4542Y3472D01*
X4538Y3481D01*
X4533Y3490D01*
X4526Y3499D01*
X4521Y3503D01*
X4516Y3507D01*
X4514Y3508D01*
X4512Y3510D01*
X4506Y3512D01*
X4499Y3514D01*
X4489Y3517D01*
X4478Y3519D01*
X4464Y3521D01*
X4447Y3522D01*
X4447D01*
X4445D01*
X4442D01*
X4438D01*
X4433Y3521D01*
X4428D01*
X4415Y3520D01*
X4403Y3517D01*
X4389Y3515D01*
X4377Y3510D01*
X4372Y3508D01*
X4368Y3505D01*
X4367Y3504D01*
X4365Y3501D01*
X4361Y3497D01*
X4358Y3492D01*
X4353Y3485D01*
X4350Y3476D01*
X4347Y3466D01*
X4347Y3455D01*
Y3450D01*
X4347Y3444D01*
X4349Y3437D01*
X4351Y3429D01*
X4354Y3422D01*
X4358Y3414D01*
X4364Y3408D01*
X4365Y3407D01*
X4367Y3405D01*
X4371Y3402D01*
X4377Y3399D01*
X4384Y3395D01*
X4393Y3391D01*
X4403Y3387D01*
X4415Y3384D01*
X4386Y3290D01*
X4385D01*
X4384Y3290D01*
X4382Y3291D01*
X4379Y3292D01*
X4372Y3294D01*
X4363Y3297D01*
X4352Y3301D01*
X4341Y3307D01*
X4330Y3313D01*
X4319Y3320D01*
X4318Y3321D01*
X4315Y3324D01*
X4310Y3329D01*
X4304Y3334D01*
X4298Y3342D01*
X4291Y3350D01*
X4285Y3361D01*
X4279Y3371D01*
Y3372D01*
X4279Y3373D01*
X4278Y3375D01*
X4277Y3376D01*
X4275Y3383D01*
X4273Y3392D01*
X4270Y3403D01*
X4268Y3417D01*
X4266Y3432D01*
X4266Y3448D01*
Y3458D01*
X4266Y3463D01*
Y3468D01*
X4267Y3475D01*
X4268Y3482D01*
X4270Y3496D01*
X4273Y3512D01*
X4277Y3527D01*
X4282Y3542D01*
Y3543D01*
X4282Y3543D01*
X4284Y3545D01*
X4285Y3548D01*
X4289Y3555D01*
X4295Y3563D01*
X4303Y3573D01*
X4313Y3583D01*
X4325Y3594D01*
X4340Y3604D01*
X4340D01*
X4342Y3605D01*
X4344Y3606D01*
X4347Y3608D01*
X4351Y3610D01*
X4356Y3612D01*
X4362Y3615D01*
X4369Y3617D01*
X4376Y3619D01*
X4384Y3622D01*
X4393Y3624D01*
X4403Y3626D01*
X4413Y3627D01*
X4424Y3629D01*
X4447Y3630D01*
X4448D01*
X4451D01*
X4455Y3629D01*
D02*
G37*
G36*
X4884Y3310D02*
X4890D01*
X4897Y3309D01*
X4905Y3308D01*
X4915Y3307D01*
X4924Y3305D01*
X4935Y3302D01*
X4946Y3299D01*
X4957Y3295D01*
X4968Y3291D01*
X4979Y3285D01*
X4990Y3279D01*
X4999Y3272D01*
X5009Y3263D01*
X5010Y3263D01*
X5011Y3261D01*
X5013Y3258D01*
X5017Y3254D01*
X5020Y3249D01*
X5024Y3244D01*
X5029Y3237D01*
X5033Y3229D01*
X5038Y3220D01*
X5041Y3210D01*
X5046Y3199D01*
X5049Y3187D01*
X5052Y3174D01*
X5055Y3160D01*
X5056Y3146D01*
X5057Y3130D01*
Y3122D01*
X5056Y3116D01*
X5055Y3109D01*
X5054Y3100D01*
X5053Y3091D01*
X5051Y3081D01*
X5048Y3070D01*
X5045Y3060D01*
X5041Y3048D01*
X5037Y3037D01*
X5031Y3026D01*
X5025Y3016D01*
X5018Y3006D01*
X5010Y2996D01*
X5009Y2996D01*
X5008Y2995D01*
X5004Y2992D01*
X5001Y2989D01*
X4996Y2986D01*
X4990Y2981D01*
X4983Y2977D01*
X4976Y2972D01*
X4967Y2968D01*
X4957Y2964D01*
X4946Y2960D01*
X4935Y2956D01*
X4922Y2953D01*
X4909Y2951D01*
X4894Y2949D01*
X4879Y2949D01*
X4878D01*
X4876D01*
X4873D01*
X4869D01*
X4864Y2949D01*
X4857Y2950D01*
X4851Y2951D01*
X4843Y2951D01*
X4827Y2954D01*
X4811Y2958D01*
X4794Y2963D01*
X4778Y2970D01*
X4778D01*
X4776Y2970D01*
X4775Y2972D01*
X4772Y2974D01*
X4765Y2978D01*
X4756Y2985D01*
X4746Y2993D01*
X4736Y3004D01*
X4727Y3015D01*
X4718Y3029D01*
Y3030D01*
X4717Y3031D01*
X4716Y3033D01*
X4715Y3036D01*
X4713Y3040D01*
X4711Y3044D01*
X4709Y3049D01*
X4707Y3056D01*
X4705Y3063D01*
X4703Y3070D01*
X4699Y3086D01*
X4697Y3105D01*
X4696Y3126D01*
Y3136D01*
X4697Y3141D01*
X4697Y3147D01*
Y3153D01*
X4699Y3161D01*
X4701Y3176D01*
X4704Y3192D01*
X4708Y3209D01*
X4715Y3224D01*
Y3225D01*
X4715Y3226D01*
X4717Y3228D01*
X4718Y3230D01*
X4723Y3237D01*
X4729Y3246D01*
X4737Y3256D01*
X4748Y3267D01*
X4760Y3277D01*
X4774Y3287D01*
X4775D01*
X4776Y3288D01*
X4778Y3289D01*
X4782Y3291D01*
X4785Y3293D01*
X4790Y3295D01*
X4796Y3297D01*
X4802Y3298D01*
X4809Y3301D01*
X4817Y3303D01*
X4825Y3305D01*
X4834Y3307D01*
X4854Y3309D01*
X4876Y3311D01*
X4877D01*
X4880D01*
X4884Y3310D01*
D02*
G37*
G36*
X4190Y3198D02*
Y3080D01*
X3841Y2949D01*
Y3062D01*
X3898Y3079D01*
Y3202D01*
X3841Y3219D01*
Y3329D01*
X4190Y3198D01*
D02*
G37*
G36*
X4454Y3250D02*
X4459D01*
X4466Y3250D01*
X4475Y3248D01*
X4484Y3247D01*
X4494Y3245D01*
X4505Y3243D01*
X4516Y3240D01*
X4526Y3236D01*
X4538Y3231D01*
X4549Y3225D01*
X4559Y3219D01*
X4569Y3212D01*
X4579Y3204D01*
X4579Y3203D01*
X4580Y3201D01*
X4583Y3199D01*
X4586Y3195D01*
X4589Y3190D01*
X4594Y3184D01*
X4598Y3177D01*
X4603Y3169D01*
X4607Y3161D01*
X4611Y3150D01*
X4615Y3140D01*
X4619Y3127D01*
X4622Y3115D01*
X4624Y3101D01*
X4626Y3086D01*
X4626Y3071D01*
Y3062D01*
X4626Y3057D01*
X4625Y3049D01*
X4624Y3041D01*
X4623Y3031D01*
X4621Y3022D01*
X4618Y3011D01*
X4615Y3000D01*
X4611Y2989D01*
X4607Y2978D01*
X4601Y2967D01*
X4594Y2956D01*
X4587Y2946D01*
X4579Y2937D01*
X4579Y2936D01*
X4577Y2935D01*
X4574Y2932D01*
X4571Y2929D01*
X4566Y2926D01*
X4560Y2922D01*
X4553Y2917D01*
X4545Y2913D01*
X4537Y2908D01*
X4527Y2904D01*
X4516Y2900D01*
X4505Y2897D01*
X4492Y2894D01*
X4479Y2891D01*
X4464Y2890D01*
X4449Y2889D01*
X4448D01*
X4446D01*
X4443D01*
X4438D01*
X4433Y2890D01*
X4427Y2890D01*
X4421Y2891D01*
X4413Y2892D01*
X4397Y2894D01*
X4380Y2898D01*
X4364Y2903D01*
X4348Y2910D01*
X4347D01*
X4346Y2911D01*
X4344Y2912D01*
X4342Y2914D01*
X4335Y2918D01*
X4326Y2925D01*
X4316Y2934D01*
X4306Y2944D01*
X4296Y2955D01*
X4287Y2969D01*
Y2970D01*
X4287Y2971D01*
X4286Y2973D01*
X4284Y2976D01*
X4282Y2980D01*
X4280Y2985D01*
X4279Y2990D01*
X4277Y2996D01*
X4275Y3003D01*
X4273Y3010D01*
X4269Y3027D01*
X4266Y3046D01*
X4266Y3067D01*
Y3076D01*
X4266Y3082D01*
X4267Y3087D01*
Y3094D01*
X4268Y3101D01*
X4270Y3117D01*
X4273Y3132D01*
X4278Y3149D01*
X4284Y3164D01*
Y3165D01*
X4285Y3166D01*
X4286Y3168D01*
X4288Y3171D01*
X4293Y3178D01*
X4299Y3187D01*
X4307Y3197D01*
X4317Y3207D01*
X4329Y3218D01*
X4344Y3227D01*
X4344D01*
X4345Y3229D01*
X4348Y3229D01*
X4351Y3231D01*
X4355Y3233D01*
X4359Y3235D01*
X4365Y3237D01*
X4372Y3239D01*
X4379Y3241D01*
X4386Y3243D01*
X4394Y3245D01*
X4404Y3247D01*
X4424Y3250D01*
X4445Y3251D01*
X4447D01*
X4449D01*
X4454Y3250D01*
D02*
G37*
G36*
X4190Y2721D02*
X4190Y2716D01*
X4189Y2705D01*
X4188Y2693D01*
X4186Y2680D01*
X4185Y2668D01*
X4181Y2657D01*
X4181Y2656D01*
X4179Y2653D01*
X4178Y2647D01*
X4174Y2642D01*
X4170Y2635D01*
X4164Y2628D01*
X4158Y2621D01*
X4149Y2614D01*
X4148Y2614D01*
X4146Y2612D01*
X4141Y2609D01*
X4134Y2606D01*
X4125Y2603D01*
X4116Y2600D01*
X4105Y2598D01*
X4093Y2598D01*
X4092D01*
X4088D01*
X4083Y2598D01*
X4076Y2599D01*
X4068Y2601D01*
X4060Y2603D01*
X4051Y2606D01*
X4042Y2610D01*
X4042Y2611D01*
X4039Y2612D01*
X4035Y2616D01*
X4030Y2619D01*
X4025Y2624D01*
X4020Y2630D01*
X4014Y2637D01*
X4009Y2645D01*
X4008Y2646D01*
X4007Y2647D01*
X4006Y2651D01*
X4004Y2654D01*
X4002Y2660D01*
X3999Y2667D01*
X3997Y2674D01*
X3995Y2682D01*
Y2682D01*
X3993Y2679D01*
X3992Y2676D01*
X3991Y2672D01*
X3986Y2663D01*
X3984Y2658D01*
X3982Y2654D01*
X3981Y2653D01*
X3980Y2652D01*
X3978Y2650D01*
X3976Y2647D01*
X3972Y2645D01*
X3969Y2641D01*
X3963Y2637D01*
X3963Y2637D01*
X3961Y2635D01*
X3958Y2633D01*
X3956Y2631D01*
X3948Y2626D01*
X3945Y2624D01*
X3942Y2622D01*
X3841Y2569D01*
Y2691D01*
X3948Y2749D01*
X3948Y2750D01*
X3951Y2751D01*
X3955Y2753D01*
X3958Y2756D01*
X3967Y2762D01*
X3971Y2766D01*
X3974Y2769D01*
X3975Y2770D01*
X3976Y2771D01*
X3977Y2774D01*
X3979Y2777D01*
X3980Y2781D01*
X3981Y2785D01*
X3982Y2790D01*
X3983Y2796D01*
Y2805D01*
X3841D01*
Y2913D01*
X4190D01*
Y2721D01*
D02*
G37*
G36*
X4621Y2731D02*
X4427Y2598D01*
X4621D01*
Y2496D01*
X4272D01*
Y2598D01*
X4464Y2729D01*
X4272D01*
Y2831D01*
X4621D01*
Y2731D01*
D02*
G37*
G36*
X5051Y2824D02*
X4856Y2788D01*
X5051Y2733D01*
Y2631D01*
X4855Y2577D01*
X5051Y2540D01*
Y2438D01*
X4702Y2515D01*
Y2621D01*
X4922Y2682D01*
X4702Y2744D01*
Y2849D01*
X5051Y2926D01*
Y2824D01*
D02*
G37*
G36*
X4190Y2366D02*
X4190Y2361D01*
Y2357D01*
X4188Y2346D01*
X4187Y2333D01*
X4185Y2321D01*
X4181Y2308D01*
X4177Y2296D01*
Y2296D01*
X4176Y2295D01*
X4174Y2291D01*
X4172Y2286D01*
X4167Y2279D01*
X4162Y2272D01*
X4156Y2263D01*
X4148Y2256D01*
X4140Y2248D01*
X4139Y2247D01*
X4135Y2245D01*
X4131Y2242D01*
X4124Y2237D01*
X4116Y2233D01*
X4106Y2228D01*
X4095Y2224D01*
X4084Y2221D01*
X4083D01*
X4083Y2220D01*
X4081D01*
X4078Y2219D01*
X4072Y2218D01*
X4063Y2216D01*
X4053Y2214D01*
X4042Y2213D01*
X4030Y2212D01*
X4016Y2212D01*
X4016D01*
X4014D01*
X4011D01*
X4007D01*
X4002Y2212D01*
X3997D01*
X3984Y2214D01*
X3971Y2215D01*
X3956Y2217D01*
X3942Y2221D01*
X3930Y2225D01*
X3929D01*
X3928Y2226D01*
X3925Y2228D01*
X3919Y2230D01*
X3912Y2234D01*
X3904Y2239D01*
X3895Y2245D01*
X3886Y2252D01*
X3878Y2261D01*
X3877Y2262D01*
X3875Y2265D01*
X3871Y2269D01*
X3867Y2275D01*
X3862Y2282D01*
X3858Y2290D01*
X3853Y2299D01*
X3850Y2309D01*
Y2309D01*
X3849Y2310D01*
Y2312D01*
X3849Y2314D01*
X3848Y2321D01*
X3846Y2330D01*
X3844Y2340D01*
X3842Y2351D01*
X3842Y2362D01*
X3841Y2374D01*
Y2533D01*
X4190D01*
Y2366D01*
D02*
G37*
G36*
X4621Y2122D02*
X4535D01*
Y2232D01*
X4272D01*
Y2339D01*
X4535D01*
Y2450D01*
X4621D01*
Y2122D01*
D02*
G37*
G36*
X5051Y2307D02*
Y2189D01*
X4702Y2058D01*
Y2171D01*
X4759Y2188D01*
Y2310D01*
X4702Y2328D01*
Y2438D01*
X5051Y2307D01*
D02*
G37*
G36*
X4621Y1879D02*
X4620Y1874D01*
X4619Y1863D01*
X4619Y1851D01*
X4617Y1838D01*
X4615Y1826D01*
X4612Y1815D01*
X4611Y1814D01*
X4610Y1811D01*
X4608Y1806D01*
X4605Y1800D01*
X4600Y1793D01*
X4594Y1786D01*
X4588Y1779D01*
X4580Y1772D01*
X4579Y1772D01*
X4576Y1770D01*
X4571Y1767D01*
X4564Y1764D01*
X4556Y1761D01*
X4546Y1758D01*
X4535Y1757D01*
X4523Y1756D01*
X4522D01*
X4518D01*
X4513Y1757D01*
X4506Y1757D01*
X4498Y1759D01*
X4490Y1761D01*
X4481Y1764D01*
X4473Y1769D01*
X4472Y1769D01*
X4470Y1771D01*
X4466Y1774D01*
X4461Y1778D01*
X4456Y1783D01*
X4450Y1788D01*
X4444Y1795D01*
X4439Y1803D01*
X4438Y1804D01*
X4438Y1806D01*
X4436Y1809D01*
X4434Y1813D01*
X4432Y1818D01*
X4430Y1825D01*
X4428Y1832D01*
X4425Y1841D01*
Y1840D01*
X4424Y1837D01*
X4422Y1834D01*
X4421Y1830D01*
X4417Y1821D01*
X4415Y1816D01*
X4412Y1813D01*
X4412Y1811D01*
X4410Y1810D01*
X4408Y1808D01*
X4406Y1806D01*
X4403Y1803D01*
X4399Y1799D01*
X4394Y1795D01*
X4393Y1795D01*
X4391Y1794D01*
X4389Y1792D01*
X4386Y1789D01*
X4379Y1784D01*
X4375Y1782D01*
X4372Y1780D01*
X4272Y1727D01*
Y1850D01*
X4378Y1908D01*
X4379Y1908D01*
X4381Y1909D01*
X4385Y1911D01*
X4389Y1914D01*
X4398Y1920D01*
X4401Y1924D01*
X4405Y1927D01*
X4405Y1928D01*
X4406Y1929D01*
X4407Y1932D01*
X4409Y1935D01*
X4410Y1939D01*
X4412Y1943D01*
X4412Y1948D01*
X4413Y1954D01*
Y1963D01*
X4272D01*
Y2071D01*
X4621D01*
Y1879D01*
D02*
G37*
G36*
X5051Y1830D02*
X5050Y1825D01*
X5050Y1814D01*
X5049Y1801D01*
X5047Y1789D01*
X5045Y1777D01*
X5042Y1766D01*
X5041Y1765D01*
X5040Y1761D01*
X5038Y1756D01*
X5035Y1751D01*
X5031Y1744D01*
X5025Y1737D01*
X5018Y1729D01*
X5010Y1723D01*
X5009Y1723D01*
X5006Y1721D01*
X5001Y1718D01*
X4994Y1715D01*
X4986Y1712D01*
X4976Y1709D01*
X4966Y1707D01*
X4954Y1707D01*
X4952D01*
X4948D01*
X4943Y1707D01*
X4936Y1708D01*
X4929Y1710D01*
X4920Y1712D01*
X4911Y1715D01*
X4903Y1719D01*
X4903Y1720D01*
X4900Y1721D01*
X4896Y1724D01*
X4891Y1728D01*
X4886Y1733D01*
X4880Y1739D01*
X4875Y1746D01*
X4869Y1754D01*
X4869Y1754D01*
X4868Y1756D01*
X4866Y1759D01*
X4864Y1763D01*
X4862Y1769D01*
X4860Y1775D01*
X4858Y1783D01*
X4855Y1791D01*
Y1791D01*
X4854Y1788D01*
X4853Y1785D01*
X4852Y1780D01*
X4847Y1772D01*
X4845Y1767D01*
X4843Y1763D01*
X4842Y1762D01*
X4841Y1761D01*
X4839Y1759D01*
X4836Y1756D01*
X4833Y1754D01*
X4829Y1750D01*
X4824Y1746D01*
X4824Y1745D01*
X4822Y1744D01*
X4819Y1742D01*
X4817Y1740D01*
X4809Y1735D01*
X4806Y1733D01*
X4803Y1731D01*
X4702Y1678D01*
Y1800D01*
X4808Y1858D01*
X4809Y1859D01*
X4811Y1860D01*
X4815Y1862D01*
X4819Y1865D01*
X4828Y1871D01*
X4832Y1875D01*
X4835Y1878D01*
X4836Y1879D01*
X4836Y1880D01*
X4838Y1882D01*
X4839Y1886D01*
X4841Y1889D01*
X4842Y1894D01*
X4843Y1899D01*
X4843Y1905D01*
Y1914D01*
X4702D01*
Y2022D01*
X5051D01*
Y1830D01*
D02*
G37*
G36*
X4190Y1703D02*
X4116D01*
Y1884D01*
X4060D01*
Y1717D01*
X3989D01*
Y1884D01*
X3920D01*
Y1698D01*
X3841D01*
Y1993D01*
X4190D01*
Y1703D01*
D02*
G37*
G36*
X4454Y1706D02*
X4459D01*
X4466Y1705D01*
X4475Y1704D01*
X4484Y1702D01*
X4494Y1701D01*
X4505Y1698D01*
X4516Y1695D01*
X4526Y1691D01*
X4538Y1687D01*
X4549Y1681D01*
X4559Y1674D01*
X4569Y1667D01*
X4579Y1659D01*
X4579Y1658D01*
X4580Y1657D01*
X4583Y1654D01*
X4586Y1650D01*
X4589Y1645D01*
X4594Y1639D01*
X4598Y1632D01*
X4603Y1625D01*
X4607Y1616D01*
X4611Y1606D01*
X4615Y1595D01*
X4619Y1583D01*
X4622Y1570D01*
X4624Y1556D01*
X4626Y1541D01*
X4626Y1526D01*
Y1518D01*
X4626Y1512D01*
X4625Y1504D01*
X4624Y1496D01*
X4623Y1486D01*
X4621Y1477D01*
X4618Y1466D01*
X4615Y1455D01*
X4611Y1444D01*
X4607Y1433D01*
X4601Y1422D01*
X4594Y1411D01*
X4587Y1402D01*
X4579Y1392D01*
X4579Y1392D01*
X4577Y1390D01*
X4574Y1388D01*
X4571Y1385D01*
X4566Y1381D01*
X4560Y1377D01*
X4553Y1372D01*
X4545Y1368D01*
X4537Y1364D01*
X4527Y1360D01*
X4516Y1355D01*
X4505Y1352D01*
X4492Y1349D01*
X4479Y1346D01*
X4464Y1345D01*
X4449Y1344D01*
X4448D01*
X4446D01*
X4443D01*
X4438D01*
X4433Y1345D01*
X4427Y1346D01*
X4421Y1346D01*
X4413Y1347D01*
X4397Y1350D01*
X4380Y1353D01*
X4364Y1358D01*
X4348Y1365D01*
X4347D01*
X4346Y1366D01*
X4344Y1367D01*
X4342Y1369D01*
X4335Y1374D01*
X4326Y1381D01*
X4316Y1389D01*
X4306Y1399D01*
X4296Y1411D01*
X4287Y1425D01*
Y1425D01*
X4287Y1427D01*
X4286Y1429D01*
X4284Y1432D01*
X4282Y1436D01*
X4280Y1440D01*
X4279Y1445D01*
X4277Y1451D01*
X4275Y1458D01*
X4273Y1465D01*
X4269Y1482D01*
X4266Y1501D01*
X4266Y1522D01*
Y1532D01*
X4266Y1537D01*
X4267Y1543D01*
Y1549D01*
X4268Y1557D01*
X4270Y1572D01*
X4273Y1588D01*
X4278Y1604D01*
X4284Y1620D01*
Y1620D01*
X4285Y1622D01*
X4286Y1623D01*
X4288Y1626D01*
X4293Y1633D01*
X4299Y1642D01*
X4307Y1652D01*
X4317Y1662D01*
X4329Y1673D01*
X4344Y1683D01*
X4344D01*
X4345Y1684D01*
X4348Y1685D01*
X4351Y1687D01*
X4355Y1688D01*
X4359Y1690D01*
X4365Y1692D01*
X4372Y1694D01*
X4379Y1697D01*
X4386Y1699D01*
X4394Y1701D01*
X4404Y1702D01*
X4424Y1705D01*
X4445Y1706D01*
X4447D01*
X4449D01*
X4454Y1706D01*
D02*
G37*
G36*
X5051Y1475D02*
X5050Y1470D01*
Y1466D01*
X5049Y1455D01*
X5048Y1442D01*
X5045Y1429D01*
X5042Y1417D01*
X5038Y1405D01*
Y1405D01*
X5037Y1404D01*
X5035Y1400D01*
X5032Y1395D01*
X5028Y1388D01*
X5023Y1380D01*
X5017Y1372D01*
X5009Y1364D01*
X5001Y1357D01*
X4999Y1356D01*
X4996Y1354D01*
X4992Y1350D01*
X4985Y1346D01*
X4976Y1342D01*
X4967Y1337D01*
X4956Y1333D01*
X4945Y1329D01*
X4944D01*
X4943Y1329D01*
X4941D01*
X4939Y1328D01*
X4932Y1327D01*
X4924Y1325D01*
X4914Y1323D01*
X4903Y1322D01*
X4890Y1321D01*
X4877Y1321D01*
X4876D01*
X4875D01*
X4872D01*
X4868D01*
X4863Y1321D01*
X4858D01*
X4845Y1322D01*
X4832Y1324D01*
X4817Y1326D01*
X4803Y1329D01*
X4790Y1334D01*
X4790D01*
X4789Y1335D01*
X4785Y1336D01*
X4780Y1339D01*
X4773Y1343D01*
X4764Y1348D01*
X4756Y1354D01*
X4747Y1361D01*
X4739Y1370D01*
X4738Y1371D01*
X4736Y1373D01*
X4732Y1378D01*
X4727Y1384D01*
X4723Y1391D01*
X4718Y1399D01*
X4714Y1408D01*
X4711Y1417D01*
Y1418D01*
X4710Y1419D01*
Y1421D01*
X4710Y1423D01*
X4708Y1430D01*
X4706Y1439D01*
X4704Y1449D01*
X4703Y1460D01*
X4703Y1471D01*
X4702Y1482D01*
Y1642D01*
X5051D01*
Y1475D01*
D02*
G37*
G36*
X4190Y1472D02*
X4190Y1467D01*
Y1463D01*
X4188Y1452D01*
X4187Y1439D01*
X4185Y1426D01*
X4181Y1414D01*
X4177Y1402D01*
Y1401D01*
X4176Y1401D01*
X4174Y1397D01*
X4172Y1392D01*
X4167Y1385D01*
X4162Y1377D01*
X4156Y1369D01*
X4148Y1361D01*
X4140Y1354D01*
X4139Y1353D01*
X4135Y1350D01*
X4131Y1347D01*
X4124Y1343D01*
X4116Y1338D01*
X4106Y1334D01*
X4095Y1330D01*
X4084Y1326D01*
X4083D01*
X4083Y1326D01*
X4081D01*
X4078Y1325D01*
X4072Y1324D01*
X4063Y1322D01*
X4053Y1320D01*
X4042Y1319D01*
X4030Y1318D01*
X4016Y1317D01*
X4016D01*
X4014D01*
X4011D01*
X4007D01*
X4002Y1318D01*
X3997D01*
X3984Y1319D01*
X3971Y1321D01*
X3956Y1323D01*
X3942Y1326D01*
X3930Y1331D01*
X3929D01*
X3928Y1331D01*
X3925Y1333D01*
X3919Y1336D01*
X3912Y1340D01*
X3904Y1345D01*
X3895Y1351D01*
X3886Y1358D01*
X3878Y1366D01*
X3877Y1368D01*
X3875Y1370D01*
X3871Y1375D01*
X3867Y1380D01*
X3862Y1388D01*
X3858Y1396D01*
X3853Y1405D01*
X3850Y1414D01*
Y1415D01*
X3849Y1415D01*
Y1417D01*
X3849Y1420D01*
X3848Y1427D01*
X3846Y1436D01*
X3844Y1445D01*
X3842Y1457D01*
X3842Y1468D01*
X3841Y1479D01*
Y1639D01*
X4190D01*
Y1472D01*
D02*
G37*
G36*
X4621Y1179D02*
X4358D01*
Y1010D01*
X4272D01*
Y1286D01*
X4621D01*
Y1179D01*
D02*
G37*
G36*
X4824Y1180D02*
X4823D01*
X4820Y1180D01*
X4815Y1179D01*
X4810Y1177D01*
X4797Y1173D01*
X4791Y1170D01*
X4786Y1167D01*
X4785Y1166D01*
X4783Y1164D01*
X4780Y1160D01*
X4776Y1155D01*
X4771Y1148D01*
X4768Y1140D01*
X4766Y1130D01*
X4765Y1119D01*
Y1115D01*
X4766Y1112D01*
X4766Y1106D01*
X4767Y1100D01*
X4769Y1094D01*
X4772Y1089D01*
X4775Y1084D01*
X4776Y1083D01*
X4777Y1082D01*
X4780Y1080D01*
X4782Y1077D01*
X4786Y1075D01*
X4790Y1073D01*
X4796Y1071D01*
X4801Y1071D01*
X4801D01*
X4803D01*
X4806Y1071D01*
X4809Y1072D01*
X4813Y1074D01*
X4817Y1076D01*
X4821Y1079D01*
X4825Y1083D01*
X4825Y1084D01*
X4827Y1085D01*
X4829Y1089D01*
X4831Y1094D01*
X4834Y1102D01*
X4838Y1112D01*
X4840Y1117D01*
X4841Y1124D01*
X4843Y1131D01*
X4845Y1138D01*
Y1139D01*
X4846Y1142D01*
X4847Y1145D01*
X4848Y1150D01*
X4850Y1156D01*
X4852Y1163D01*
X4853Y1170D01*
X4856Y1177D01*
X4862Y1194D01*
X4869Y1211D01*
X4878Y1226D01*
X4882Y1233D01*
X4887Y1240D01*
X4888D01*
X4889Y1241D01*
X4892Y1244D01*
X4897Y1249D01*
X4906Y1254D01*
X4915Y1260D01*
X4927Y1265D01*
X4939Y1268D01*
X4946Y1269D01*
X4954Y1270D01*
X4955D01*
X4955D01*
X4959D01*
X4964Y1269D01*
X4971Y1268D01*
X4978Y1266D01*
X4987Y1263D01*
X4996Y1259D01*
X5005Y1254D01*
X5006Y1254D01*
X5009Y1251D01*
X5013Y1247D01*
X5019Y1242D01*
X5025Y1236D01*
X5031Y1228D01*
X5037Y1218D01*
X5043Y1207D01*
Y1207D01*
X5043Y1206D01*
X5044Y1204D01*
X5045Y1201D01*
X5046Y1198D01*
X5047Y1194D01*
X5048Y1190D01*
X5050Y1185D01*
X5051Y1179D01*
X5052Y1172D01*
X5055Y1157D01*
X5056Y1140D01*
X5057Y1121D01*
Y1115D01*
X5056Y1110D01*
Y1105D01*
X5055Y1098D01*
X5055Y1091D01*
X5054Y1084D01*
X5050Y1067D01*
X5046Y1050D01*
X5039Y1034D01*
X5036Y1026D01*
X5031Y1019D01*
Y1019D01*
X5030Y1018D01*
X5027Y1014D01*
X5020Y1008D01*
X5012Y1001D01*
X5007Y997D01*
X5001Y994D01*
X4994Y990D01*
X4987Y987D01*
X4980Y984D01*
X4971Y981D01*
X4962Y979D01*
X4952Y977D01*
X4946Y1079D01*
X4948D01*
X4950Y1080D01*
X4955Y1081D01*
X4960Y1083D01*
X4965Y1085D01*
X4971Y1088D01*
X4976Y1092D01*
X4981Y1096D01*
X4982Y1097D01*
X4983Y1099D01*
X4984Y1101D01*
X4987Y1105D01*
X4989Y1110D01*
X4990Y1117D01*
X4991Y1124D01*
X4992Y1132D01*
Y1135D01*
X4991Y1138D01*
X4990Y1143D01*
X4989Y1152D01*
X4986Y1157D01*
X4983Y1161D01*
X4983Y1161D01*
X4982Y1162D01*
X4978Y1165D01*
X4972Y1168D01*
X4968Y1169D01*
X4964Y1170D01*
X4964D01*
X4963D01*
X4959Y1168D01*
X4954Y1166D01*
X4952Y1164D01*
X4949Y1162D01*
Y1161D01*
X4948Y1160D01*
X4946Y1158D01*
X4945Y1154D01*
X4943Y1150D01*
X4941Y1143D01*
X4938Y1136D01*
X4936Y1126D01*
Y1126D01*
X4936Y1123D01*
X4935Y1119D01*
X4934Y1115D01*
X4932Y1109D01*
X4931Y1102D01*
X4929Y1094D01*
X4927Y1087D01*
X4922Y1070D01*
X4917Y1053D01*
X4911Y1038D01*
X4908Y1031D01*
X4905Y1024D01*
Y1024D01*
X4904Y1023D01*
X4903Y1019D01*
X4899Y1014D01*
X4895Y1007D01*
X4889Y1000D01*
X4883Y992D01*
X4875Y985D01*
X4867Y980D01*
X4866Y979D01*
X4863Y978D01*
X4858Y975D01*
X4852Y973D01*
X4844Y970D01*
X4836Y968D01*
X4825Y966D01*
X4815Y966D01*
X4815D01*
X4814D01*
X4812D01*
X4810D01*
X4803Y967D01*
X4795Y968D01*
X4785Y970D01*
X4775Y974D01*
X4764Y978D01*
X4753Y985D01*
X4752Y985D01*
X4748Y988D01*
X4743Y992D01*
X4737Y998D01*
X4730Y1006D01*
X4723Y1015D01*
X4717Y1025D01*
X4710Y1037D01*
Y1038D01*
X4710Y1038D01*
X4709Y1040D01*
X4708Y1043D01*
X4707Y1046D01*
X4706Y1050D01*
X4704Y1055D01*
X4703Y1060D01*
X4701Y1072D01*
X4698Y1087D01*
X4697Y1103D01*
X4696Y1121D01*
Y1129D01*
X4697Y1136D01*
X4697Y1143D01*
X4698Y1151D01*
X4699Y1160D01*
X4701Y1170D01*
X4704Y1191D01*
X4710Y1211D01*
X4714Y1221D01*
X4719Y1229D01*
X4724Y1238D01*
X4730Y1245D01*
X4731Y1245D01*
X4732Y1246D01*
X4734Y1248D01*
X4736Y1250D01*
X4739Y1252D01*
X4743Y1256D01*
X4748Y1259D01*
X4753Y1262D01*
X4766Y1269D01*
X4782Y1275D01*
X4798Y1280D01*
X4808Y1282D01*
X4817Y1283D01*
X4824Y1180D01*
D02*
G37*
G36*
X4025Y1273D02*
X4030D01*
X4036Y1273D01*
X4042Y1272D01*
X4049Y1271D01*
X4065Y1268D01*
X4081Y1264D01*
X4098Y1258D01*
X4114Y1250D01*
X4115D01*
X4116Y1249D01*
X4118Y1248D01*
X4121Y1246D01*
X4129Y1241D01*
X4139Y1233D01*
X4149Y1223D01*
X4160Y1212D01*
X4170Y1198D01*
X4179Y1182D01*
Y1181D01*
X4179Y1180D01*
X4181Y1178D01*
X4181Y1175D01*
X4183Y1171D01*
X4185Y1167D01*
X4186Y1162D01*
X4188Y1156D01*
X4189Y1150D01*
X4190Y1142D01*
X4192Y1135D01*
X4193Y1126D01*
X4195Y1117D01*
X4195Y1107D01*
X4196Y1085D01*
Y1071D01*
X4195Y1066D01*
X4195Y1053D01*
X4193Y1039D01*
X4192Y1024D01*
X4189Y1011D01*
X4187Y1005D01*
X4185Y999D01*
Y998D01*
X4185Y998D01*
X4183Y994D01*
X4181Y989D01*
X4178Y982D01*
X4173Y975D01*
X4167Y966D01*
X4160Y959D01*
X4153Y951D01*
X4151Y950D01*
X4149Y948D01*
X4144Y945D01*
X4137Y940D01*
X4130Y936D01*
X4120Y931D01*
X4109Y926D01*
X4097Y922D01*
X4079Y1026D01*
X4079D01*
X4082Y1028D01*
X4086Y1029D01*
X4090Y1031D01*
X4095Y1035D01*
X4100Y1038D01*
X4104Y1043D01*
X4109Y1049D01*
X4109Y1049D01*
X4111Y1051D01*
X4112Y1055D01*
X4114Y1059D01*
X4116Y1065D01*
X4118Y1071D01*
X4119Y1079D01*
X4120Y1088D01*
Y1091D01*
X4119Y1094D01*
X4118Y1100D01*
X4116Y1108D01*
X4114Y1117D01*
X4109Y1127D01*
X4103Y1136D01*
X4095Y1145D01*
X4093Y1145D01*
X4090Y1148D01*
X4084Y1151D01*
X4076Y1155D01*
X4065Y1159D01*
X4058Y1161D01*
X4051Y1163D01*
X4044Y1164D01*
X4035Y1165D01*
X4027Y1166D01*
X4017D01*
X4016D01*
X4014D01*
X4012D01*
X4008Y1165D01*
X4003D01*
X3998Y1164D01*
X3986Y1163D01*
X3972Y1161D01*
X3959Y1157D01*
X3946Y1152D01*
X3941Y1149D01*
X3936Y1145D01*
X3935Y1143D01*
X3932Y1141D01*
X3928Y1136D01*
X3924Y1129D01*
X3920Y1121D01*
X3916Y1110D01*
X3913Y1098D01*
X3912Y1085D01*
Y1078D01*
X3913Y1074D01*
X3913Y1068D01*
X3914Y1063D01*
X3917Y1050D01*
Y1050D01*
X3918Y1047D01*
X3920Y1044D01*
X3921Y1040D01*
X3923Y1034D01*
X3927Y1028D01*
X3930Y1020D01*
X3935Y1012D01*
X3968D01*
Y1085D01*
X4041D01*
Y918D01*
X3891D01*
X3891Y919D01*
X3890Y920D01*
X3888Y922D01*
X3886Y926D01*
X3884Y930D01*
X3881Y935D01*
X3874Y947D01*
X3867Y960D01*
X3859Y975D01*
X3852Y989D01*
X3847Y1003D01*
Y1004D01*
X3846Y1005D01*
X3846Y1007D01*
X3845Y1010D01*
X3844Y1014D01*
X3843Y1017D01*
X3842Y1022D01*
X3841Y1028D01*
X3839Y1040D01*
X3837Y1056D01*
X3836Y1072D01*
X3835Y1091D01*
Y1096D01*
X3836Y1101D01*
Y1107D01*
X3837Y1112D01*
X3837Y1119D01*
X3838Y1127D01*
X3841Y1143D01*
X3844Y1160D01*
X3849Y1177D01*
X3856Y1193D01*
Y1193D01*
X3858Y1194D01*
X3859Y1196D01*
X3860Y1199D01*
X3865Y1206D01*
X3872Y1215D01*
X3881Y1224D01*
X3891Y1235D01*
X3904Y1244D01*
X3919Y1253D01*
X3920D01*
X3921Y1254D01*
X3923Y1255D01*
X3927Y1256D01*
X3930Y1258D01*
X3935Y1259D01*
X3941Y1261D01*
X3947Y1263D01*
X3953Y1266D01*
X3961Y1268D01*
X3977Y1271D01*
X3996Y1273D01*
X4016Y1274D01*
X4016D01*
X4018D01*
X4021D01*
X4025Y1273D01*
D02*
G37*
G36*
X4190Y565D02*
X4116D01*
Y746D01*
X4060D01*
Y578D01*
X3989D01*
Y746D01*
X3920D01*
Y560D01*
X3841D01*
Y854D01*
X4190D01*
Y565D01*
D02*
G37*
G36*
X4723Y5809D02*
X4728D01*
X4733Y5809D01*
X4739Y5808D01*
X4746Y5807D01*
X4760Y5805D01*
X4775Y5801D01*
X4788Y5795D01*
X4795Y5792D01*
X4801Y5788D01*
X4801D01*
X4802Y5787D01*
X4806Y5784D01*
X4811Y5779D01*
X4817Y5772D01*
X4820Y5767D01*
X4823Y5763D01*
X4826Y5756D01*
X4829Y5750D01*
X4831Y5744D01*
X4833Y5737D01*
X4835Y5729D01*
X4837Y5720D01*
X4749Y5716D01*
Y5717D01*
X4749Y5719D01*
X4748Y5723D01*
X4746Y5727D01*
X4744Y5731D01*
X4742Y5736D01*
X4738Y5741D01*
X4735Y5745D01*
X4734Y5746D01*
X4732Y5747D01*
X4730Y5748D01*
X4727Y5750D01*
X4723Y5752D01*
X4717Y5753D01*
X4711Y5754D01*
X4704Y5754D01*
X4701D01*
X4699Y5754D01*
X4695Y5753D01*
X4687Y5752D01*
X4683Y5749D01*
X4679Y5747D01*
X4679Y5747D01*
X4678Y5746D01*
X4676Y5743D01*
X4673Y5737D01*
X4672Y5734D01*
X4672Y5731D01*
Y5730D01*
Y5730D01*
X4673Y5726D01*
X4675Y5722D01*
X4676Y5720D01*
X4678Y5718D01*
X4679D01*
X4680Y5717D01*
X4682Y5716D01*
X4685Y5714D01*
X4689Y5712D01*
X4694Y5711D01*
X4701Y5708D01*
X4709Y5707D01*
X4710D01*
X4712Y5706D01*
X4715Y5706D01*
X4719Y5705D01*
X4724Y5704D01*
X4730Y5702D01*
X4736Y5700D01*
X4743Y5699D01*
X4757Y5695D01*
X4772Y5690D01*
X4785Y5685D01*
X4791Y5683D01*
X4796Y5680D01*
X4797D01*
X4797Y5680D01*
X4801Y5678D01*
X4805Y5675D01*
X4811Y5671D01*
X4817Y5666D01*
X4824Y5661D01*
X4830Y5654D01*
X4835Y5647D01*
X4835Y5646D01*
X4836Y5644D01*
X4838Y5640D01*
X4841Y5634D01*
X4843Y5628D01*
X4845Y5621D01*
X4846Y5612D01*
X4847Y5603D01*
Y5603D01*
Y5602D01*
Y5600D01*
Y5598D01*
X4845Y5593D01*
X4844Y5586D01*
X4843Y5577D01*
X4839Y5568D01*
X4836Y5559D01*
X4830Y5550D01*
X4830Y5548D01*
X4827Y5546D01*
X4824Y5541D01*
X4819Y5536D01*
X4812Y5530D01*
X4805Y5524D01*
X4796Y5518D01*
X4785Y5513D01*
X4785D01*
X4784Y5512D01*
X4783Y5512D01*
X4780Y5511D01*
X4778Y5510D01*
X4774Y5509D01*
X4770Y5508D01*
X4766Y5507D01*
X4755Y5505D01*
X4743Y5503D01*
X4729Y5502D01*
X4713Y5501D01*
X4706D01*
X4701Y5502D01*
X4695Y5502D01*
X4688Y5503D01*
X4680Y5503D01*
X4671Y5505D01*
X4654Y5508D01*
X4636Y5513D01*
X4628Y5516D01*
X4621Y5521D01*
X4613Y5525D01*
X4607Y5530D01*
X4607Y5530D01*
X4606Y5532D01*
X4605Y5533D01*
X4603Y5535D01*
X4601Y5538D01*
X4598Y5541D01*
X4595Y5546D01*
X4593Y5550D01*
X4587Y5561D01*
X4581Y5574D01*
X4577Y5588D01*
X4576Y5597D01*
X4575Y5605D01*
X4663Y5611D01*
Y5610D01*
X4663Y5607D01*
X4664Y5603D01*
X4665Y5599D01*
X4669Y5588D01*
X4671Y5582D01*
X4674Y5578D01*
X4675Y5577D01*
X4677Y5575D01*
X4680Y5572D01*
X4684Y5569D01*
X4690Y5565D01*
X4698Y5563D01*
X4706Y5560D01*
X4715Y5560D01*
X4718D01*
X4722Y5560D01*
X4726Y5561D01*
X4731Y5562D01*
X4736Y5564D01*
X4741Y5566D01*
X4746Y5569D01*
X4746Y5569D01*
X4747Y5570D01*
X4749Y5572D01*
X4751Y5575D01*
X4753Y5578D01*
X4755Y5582D01*
X4756Y5586D01*
X4756Y5591D01*
Y5591D01*
Y5593D01*
X4756Y5595D01*
X4755Y5598D01*
X4754Y5601D01*
X4752Y5604D01*
X4749Y5608D01*
X4746Y5611D01*
X4746Y5612D01*
X4744Y5613D01*
X4741Y5615D01*
X4736Y5617D01*
X4730Y5619D01*
X4722Y5623D01*
X4717Y5624D01*
X4711Y5625D01*
X4705Y5627D01*
X4699Y5629D01*
X4698D01*
X4696Y5629D01*
X4693Y5630D01*
X4689Y5631D01*
X4684Y5633D01*
X4678Y5634D01*
X4672Y5636D01*
X4665Y5638D01*
X4651Y5643D01*
X4636Y5649D01*
X4623Y5657D01*
X4617Y5660D01*
X4612Y5665D01*
Y5665D01*
X4611Y5666D01*
X4608Y5669D01*
X4604Y5673D01*
X4599Y5681D01*
X4594Y5689D01*
X4590Y5699D01*
X4587Y5710D01*
X4587Y5716D01*
X4586Y5722D01*
Y5723D01*
Y5723D01*
Y5726D01*
X4587Y5731D01*
X4588Y5736D01*
X4589Y5743D01*
X4592Y5750D01*
X4595Y5758D01*
X4599Y5766D01*
X4600Y5767D01*
X4602Y5769D01*
X4605Y5773D01*
X4610Y5778D01*
X4615Y5783D01*
X4622Y5788D01*
X4630Y5793D01*
X4640Y5798D01*
X4640D01*
X4641Y5799D01*
X4642Y5799D01*
X4645Y5800D01*
X4647Y5801D01*
X4651Y5802D01*
X4654Y5803D01*
X4659Y5804D01*
X4664Y5805D01*
X4670Y5806D01*
X4682Y5808D01*
X4697Y5809D01*
X4713Y5810D01*
X4719D01*
X4723Y5809D01*
D02*
G37*
G36*
X5180Y5627D02*
Y5626D01*
Y5625D01*
Y5622D01*
X5180Y5617D01*
X5179Y5611D01*
X5178Y5603D01*
X5176Y5594D01*
X5174Y5586D01*
X5171Y5576D01*
X5171Y5575D01*
X5170Y5572D01*
X5168Y5568D01*
X5165Y5563D01*
X5162Y5556D01*
X5157Y5549D01*
X5152Y5542D01*
X5145Y5535D01*
X5145Y5535D01*
X5142Y5533D01*
X5139Y5529D01*
X5134Y5526D01*
X5129Y5522D01*
X5122Y5518D01*
X5116Y5514D01*
X5109Y5511D01*
X5108D01*
X5108Y5510D01*
X5106Y5510D01*
X5104Y5509D01*
X5098Y5508D01*
X5090Y5506D01*
X5081Y5504D01*
X5070Y5503D01*
X5057Y5502D01*
X5044Y5501D01*
X5035D01*
X5029Y5502D01*
X5022D01*
X5014Y5503D01*
X5005Y5503D01*
X4996Y5504D01*
X4995D01*
X4991Y5505D01*
X4986Y5505D01*
X4981Y5507D01*
X4974Y5508D01*
X4967Y5510D01*
X4960Y5513D01*
X4952Y5516D01*
X4952Y5516D01*
X4950Y5517D01*
X4946Y5520D01*
X4942Y5522D01*
X4937Y5526D01*
X4932Y5530D01*
X4926Y5535D01*
X4921Y5541D01*
X4920Y5542D01*
X4919Y5544D01*
X4916Y5548D01*
X4913Y5552D01*
X4910Y5557D01*
X4907Y5563D01*
X4903Y5570D01*
X4901Y5576D01*
Y5577D01*
X4901Y5577D01*
Y5579D01*
X4900Y5581D01*
X4898Y5587D01*
X4897Y5593D01*
X4896Y5601D01*
X4894Y5610D01*
X4894Y5618D01*
X4893Y5627D01*
Y5805D01*
X4985D01*
Y5623D01*
Y5622D01*
Y5619D01*
X4986Y5614D01*
X4987Y5609D01*
X4989Y5603D01*
X4991Y5597D01*
X4994Y5590D01*
X4998Y5584D01*
X4999Y5584D01*
X5001Y5582D01*
X5004Y5580D01*
X5008Y5578D01*
X5014Y5575D01*
X5020Y5573D01*
X5028Y5571D01*
X5037Y5571D01*
X5040D01*
X5045Y5571D01*
X5050Y5572D01*
X5056Y5574D01*
X5063Y5576D01*
X5069Y5580D01*
X5074Y5584D01*
X5075Y5584D01*
X5076Y5587D01*
X5079Y5589D01*
X5081Y5594D01*
X5084Y5599D01*
X5086Y5606D01*
X5087Y5614D01*
X5088Y5623D01*
Y5805D01*
X5180D01*
Y5627D01*
D02*
G37*
G36*
X4450Y5805D02*
X4455D01*
X4459Y5804D01*
X4470Y5802D01*
X4482Y5799D01*
X4495Y5795D01*
X4507Y5789D01*
X4512Y5785D01*
X4517Y5781D01*
X4518D01*
X4518Y5780D01*
X4520Y5778D01*
X4521Y5777D01*
X4526Y5771D01*
X4530Y5764D01*
X4534Y5754D01*
X4539Y5742D01*
X4541Y5729D01*
X4542Y5722D01*
Y5713D01*
Y5713D01*
Y5711D01*
Y5709D01*
X4542Y5706D01*
Y5702D01*
X4541Y5698D01*
X4539Y5688D01*
X4536Y5676D01*
X4531Y5664D01*
X4528Y5658D01*
X4524Y5653D01*
X4520Y5647D01*
X4515Y5642D01*
X4515D01*
X4514Y5641D01*
X4512Y5640D01*
X4510Y5639D01*
X4507Y5636D01*
X4504Y5634D01*
X4499Y5632D01*
X4494Y5630D01*
X4489Y5628D01*
X4483Y5625D01*
X4476Y5623D01*
X4468Y5621D01*
X4460Y5619D01*
X4451Y5618D01*
X4442Y5618D01*
X4432Y5617D01*
X4381D01*
Y5506D01*
X4289D01*
Y5805D01*
X4447D01*
X4450Y5805D01*
D02*
G37*
G36*
X1658Y5285D02*
X1657Y5281D01*
Y5276D01*
X1656Y5265D01*
X1655Y5253D01*
X1652Y5240D01*
X1649Y5227D01*
X1645Y5216D01*
Y5215D01*
X1644Y5215D01*
X1642Y5211D01*
X1640Y5206D01*
X1635Y5199D01*
X1630Y5191D01*
X1624Y5183D01*
X1616Y5175D01*
X1608Y5167D01*
X1607Y5167D01*
X1603Y5164D01*
X1599Y5161D01*
X1592Y5157D01*
X1584Y5152D01*
X1574Y5148D01*
X1563Y5144D01*
X1552Y5140D01*
X1551D01*
X1550Y5139D01*
X1549D01*
X1546Y5139D01*
X1540Y5137D01*
X1531Y5136D01*
X1521Y5134D01*
X1510Y5132D01*
X1498Y5132D01*
X1484Y5131D01*
X1484D01*
X1482D01*
X1479D01*
X1475D01*
X1470Y5132D01*
X1465D01*
X1452Y5133D01*
X1439Y5134D01*
X1424Y5137D01*
X1410Y5140D01*
X1398Y5144D01*
X1397D01*
X1396Y5145D01*
X1392Y5147D01*
X1387Y5150D01*
X1380Y5153D01*
X1371Y5158D01*
X1363Y5165D01*
X1354Y5172D01*
X1346Y5180D01*
X1345Y5181D01*
X1343Y5184D01*
X1339Y5188D01*
X1335Y5194D01*
X1330Y5202D01*
X1326Y5209D01*
X1321Y5218D01*
X1318Y5228D01*
Y5229D01*
X1317Y5229D01*
Y5231D01*
X1317Y5234D01*
X1315Y5241D01*
X1314Y5250D01*
X1312Y5259D01*
X1310Y5271D01*
X1310Y5281D01*
X1309Y5293D01*
Y5453D01*
X1658D01*
Y5285D01*
D02*
G37*
G36*
Y4979D02*
Y4860D01*
X1309Y4729D01*
Y4843D01*
X1366Y4860D01*
Y4982D01*
X1309Y4999D01*
Y5109D01*
X1658Y4979D01*
D02*
G37*
G36*
Y4392D02*
X1572D01*
Y4502D01*
X1309D01*
Y4609D01*
X1572D01*
Y4720D01*
X1658D01*
Y4392D01*
D02*
G37*
G36*
Y4247D02*
Y4128D01*
X1309Y3997D01*
Y4111D01*
X1366Y4128D01*
Y4250D01*
X1309Y4267D01*
Y4378D01*
X1658Y4247D01*
D02*
G37*
%LPC*%
G36*
X2633Y11455D02*
X2630Y11455D01*
X2626Y11454D01*
X2623Y11452D01*
X2622Y11450D01*
X2620Y11445D01*
X2620Y11439D01*
X2616Y11436D01*
X2582Y11420D01*
X2579Y11417D01*
X2578Y11415D01*
X2578Y11408D01*
X2577Y11406D01*
X2574Y11403D01*
X2558Y11397D01*
X2555Y11391D01*
X2556Y11387D01*
X2556Y11384D01*
X2559Y11381D01*
X2563Y11378D01*
X2566Y11378D01*
X2572Y11377D01*
X2574Y11375D01*
X2578Y11373D01*
X2580Y11373D01*
X2585Y11372D01*
X2587Y11371D01*
X2589Y11370D01*
X2591Y11369D01*
X2593Y11369D01*
X2596Y11368D01*
X2598Y11368D01*
X2602Y11365D01*
X2605Y11364D01*
X2607Y11364D01*
X2612Y11363D01*
X2614Y11361D01*
X2617Y11360D01*
X2619Y11359D01*
X2622Y11359D01*
X2623Y11359D01*
X2628Y11357D01*
X2631Y11354D01*
X2633Y11348D01*
X2637Y11345D01*
X2645Y11346D01*
X2650Y11350D01*
X2652Y11355D01*
X2650Y11362D01*
X2645Y11368D01*
X2642Y11377D01*
X2644Y11380D01*
X2647Y11385D01*
X2648Y11388D01*
X2646Y11395D01*
X2643Y11397D01*
X2639Y11404D01*
X2638Y11407D01*
X2638Y11409D01*
X2640Y11413D01*
X2643Y11418D01*
X2642Y11423D01*
X2639Y11429D01*
X2639Y11433D01*
X2639Y11436D01*
X2643Y11441D01*
X2644Y11443D01*
X2643Y11447D01*
X2638Y11454D01*
X2636Y11455D01*
X2633Y11455D01*
D02*
G37*
G36*
X2396Y11408D02*
X2391Y11407D01*
X2388Y11404D01*
X2389Y11399D01*
X2395Y11389D01*
X2397Y11386D01*
X2398Y11379D01*
X2397Y11376D01*
X2393Y11371D01*
X2393Y11368D01*
X2395Y11364D01*
X2422Y11311D01*
X2426Y11310D01*
X2430Y11311D01*
X2437Y11315D01*
X2439Y11318D01*
X2439Y11326D01*
X2443Y11329D01*
X2452Y11334D01*
X2453Y11338D01*
X2454Y11344D01*
X2457Y11348D01*
X2466Y11354D01*
X2467Y11356D01*
X2468Y11362D01*
X2468Y11364D01*
X2473Y11367D01*
X2479Y11369D01*
X2481Y11373D01*
X2480Y11378D01*
X2470Y11397D01*
X2466Y11398D01*
X2453Y11393D01*
X2451Y11393D01*
X2449Y11395D01*
X2444Y11398D01*
X2441Y11398D01*
X2435Y11400D01*
X2433Y11401D01*
X2429Y11402D01*
X2427Y11403D01*
X2424Y11403D01*
X2422Y11404D01*
X2415Y11407D01*
X2407Y11403D01*
X2403Y11403D01*
X2401Y11404D01*
X2396Y11408D01*
D02*
G37*
G36*
X3914Y11108D02*
X3910Y11108D01*
X3847Y11083D01*
X3846Y11082D01*
X3847Y11077D01*
X3849Y11068D01*
X3847Y11065D01*
X3844Y11060D01*
X3844Y11055D01*
X3851Y11039D01*
X3851Y11038D01*
X3863Y11005D01*
X3866Y11002D01*
X3873Y11000D01*
X3875Y10999D01*
X3877Y10997D01*
X3879Y10995D01*
X3886Y10996D01*
X3890Y10998D01*
X3943Y11017D01*
X3947Y11021D01*
X3949Y11029D01*
X3953Y11034D01*
X3953Y11039D01*
X3947Y11052D01*
X3947Y11056D01*
X3933Y11091D01*
X3931Y11100D01*
X3925Y11102D01*
X3923Y11103D01*
X3918Y11105D01*
X3917Y11106D01*
X3914Y11108D01*
D02*
G37*
G36*
X4472Y10691D02*
X4462Y10688D01*
X4459Y10689D01*
X4454Y10686D01*
X4452Y10684D01*
X4452Y10680D01*
X4454Y10673D01*
X4453Y10670D01*
X4452Y10668D01*
X4448Y10664D01*
X4447Y10662D01*
X4447Y10655D01*
X4449Y10652D01*
X4452Y10631D01*
X4451Y10629D01*
X4450Y10628D01*
X4445Y10622D01*
X4451Y10601D01*
X4452Y10600D01*
X4458Y10598D01*
X4461Y10596D01*
X4464Y10592D01*
X4468Y10592D01*
X4484Y10596D01*
X4489Y10595D01*
X4490Y10593D01*
X4496Y10589D01*
X4500Y10588D01*
X4512Y10592D01*
X4533Y10596D01*
X4536Y10599D01*
X4537Y10601D01*
X4538Y10603D01*
X4540Y10607D01*
X4542Y10609D01*
X4545Y10613D01*
X4545Y10619D01*
X4543Y10622D01*
X4539Y10643D01*
X4542Y10647D01*
X4546Y10651D01*
X4546Y10655D01*
X4541Y10673D01*
X4538Y10675D01*
X4533Y10677D01*
X4528Y10682D01*
X4522Y10683D01*
X4513Y10680D01*
X4495Y10677D01*
X4493Y10678D01*
X4492Y10680D01*
X4492Y10680D01*
X4488Y10684D01*
X4485Y10684D01*
X4481Y10686D01*
X4478Y10690D01*
X4476Y10691D01*
X4472Y10691D01*
D02*
G37*
G36*
X4816Y10145D02*
X4784Y10139D01*
X4782Y10136D01*
X4779Y10131D01*
X4775Y10128D01*
X4739Y10123D01*
X4736Y10120D01*
X4735Y10118D01*
X4733Y10113D01*
X4728Y10111D01*
X4717Y10110D01*
X4691Y10105D01*
X4689Y10103D01*
X4689Y10101D01*
X4685Y10095D01*
X4666Y10092D01*
X4663Y10090D01*
X4662Y10088D01*
X4661Y10086D01*
X4657Y10081D01*
X4653Y10078D01*
X4653Y10074D01*
X4658Y10070D01*
X4664Y10068D01*
X4667Y10064D01*
X4669Y10062D01*
X4678Y10064D01*
X4682Y10063D01*
X4685Y10061D01*
X4686Y10059D01*
X4691Y10055D01*
X4693Y10055D01*
X4695Y10054D01*
X4696Y10052D01*
X4702Y10048D01*
X4704Y10047D01*
X4707Y10045D01*
X4708Y10043D01*
X4713Y10039D01*
X4715Y10039D01*
X4718Y10037D01*
X4722Y10032D01*
X4723Y10032D01*
X4724Y10032D01*
X4736Y10033D01*
X4738Y10031D01*
X4739Y10030D01*
X4743Y10026D01*
X4745Y10025D01*
X4750Y10021D01*
X4752Y10019D01*
X4755Y10017D01*
X4759Y10017D01*
X4769Y10019D01*
X4773Y10019D01*
X4776Y10021D01*
X4778Y10022D01*
X4779Y10024D01*
X4779Y10029D01*
X4778Y10032D01*
X4778Y10037D01*
X4780Y10040D01*
X4782Y10041D01*
X4784Y10043D01*
X4785Y10045D01*
X4786Y10047D01*
X4787Y10050D01*
X4788Y10051D01*
X4790Y10053D01*
X4794Y10058D01*
X4795Y10060D01*
X4797Y10063D01*
X4801Y10067D01*
X4802Y10071D01*
X4800Y10078D01*
X4802Y10082D01*
X4804Y10084D01*
X4808Y10088D01*
X4808Y10090D01*
X4812Y10095D01*
X4814Y10097D01*
X4816Y10099D01*
X4817Y10104D01*
X4815Y10109D01*
X4816Y10114D01*
X4822Y10119D01*
X4823Y10125D01*
X4822Y10128D01*
X4819Y10143D01*
X4816Y10145D01*
D02*
G37*
G36*
X4812Y9958D02*
X4794Y9954D01*
X4792Y9952D01*
X4792Y9950D01*
X4788Y9943D01*
X4786Y9942D01*
X4783Y9938D01*
X4782Y9936D01*
X4780Y9933D01*
X4779Y9932D01*
X4775Y9929D01*
X4775Y9924D01*
X4777Y9918D01*
X4776Y9914D01*
X4774Y9912D01*
X4770Y9909D01*
X4769Y9907D01*
X4768Y9905D01*
X4767Y9902D01*
X4765Y9901D01*
X4760Y9895D01*
X4764Y9877D01*
X4763Y9873D01*
X4761Y9870D01*
X4756Y9867D01*
X4756Y9865D01*
X4753Y9860D01*
X4751Y9858D01*
X4747Y9854D01*
X4748Y9842D01*
X4746Y9839D01*
X4741Y9835D01*
X4741Y9831D01*
X4744Y9827D01*
X4759Y9829D01*
X4761Y9828D01*
X4764Y9822D01*
X4769Y9821D01*
X4785Y9825D01*
X4805Y9827D01*
X4809Y9830D01*
X4811Y9838D01*
X4817Y9840D01*
X4833Y9842D01*
X4844Y9844D01*
X4847Y9848D01*
X4848Y9853D01*
X4856Y9857D01*
X4859Y9856D01*
X4868Y9856D01*
X4873Y9860D01*
X4873Y9862D01*
X4876Y9868D01*
X4880Y9870D01*
X4891Y9871D01*
X4897Y9872D01*
X4900Y9872D01*
X4908Y9874D01*
X4911Y9878D01*
X4913Y9884D01*
X4918Y9886D01*
X4928Y9887D01*
X4935Y9889D01*
X4938Y9893D01*
X4938Y9900D01*
X4934Y9906D01*
X4931Y9907D01*
X4926Y9909D01*
X4925Y9911D01*
X4923Y9913D01*
X4921Y9914D01*
X4919Y9916D01*
X4917Y9916D01*
X4912Y9922D01*
X4906Y9923D01*
X4899Y9921D01*
X4895Y9923D01*
X4894Y9925D01*
X4889Y9930D01*
X4887Y9930D01*
X4883Y9933D01*
X4881Y9935D01*
X4877Y9938D01*
X4864Y9937D01*
X4863Y9937D01*
X4858Y9944D01*
X4854Y9944D01*
X4847Y9942D01*
X4842Y9945D01*
X4838Y9950D01*
X4836Y9951D01*
X4823Y9950D01*
X4817Y9957D01*
X4812Y9958D01*
D02*
G37*
G36*
X3077Y9794D02*
X3071Y9793D01*
X3058Y9793D01*
X3054Y9792D01*
X3053Y9790D01*
X3050Y9786D01*
X3046Y9785D01*
X3033Y9786D01*
X3030Y9783D01*
X3028Y9778D01*
X3024Y9778D01*
X3015Y9777D01*
X3011Y9770D01*
X3008Y9769D01*
X2995Y9770D01*
X2991Y9768D01*
X2991Y9767D01*
X2989Y9763D01*
X2985Y9761D01*
X2971Y9762D01*
X2968Y9760D01*
X2967Y9758D01*
X2963Y9754D01*
X2925Y9754D01*
X2921Y9752D01*
X2918Y9748D01*
X2917Y9747D01*
X2915Y9746D01*
X2912Y9742D01*
X2911Y9740D01*
X2909Y9738D01*
X2907Y9738D01*
X2904Y9735D01*
X2903Y9733D01*
X2901Y9730D01*
X2894Y9731D01*
X2890Y9729D01*
X2886Y9723D01*
X2876Y9723D01*
X2874Y9721D01*
X2871Y9716D01*
X2870Y9715D01*
X2854Y9715D01*
X2852Y9714D01*
X2850Y9712D01*
X2849Y9710D01*
X2848Y9708D01*
X2846Y9707D01*
X2842Y9705D01*
X2841Y9703D01*
X2839Y9699D01*
X2833Y9699D01*
X2830Y9699D01*
X2824Y9700D01*
X2821Y9699D01*
X2818Y9696D01*
X2816Y9692D01*
X2812Y9691D01*
X2804Y9690D01*
X2803Y9689D01*
X2801Y9685D01*
X2799Y9684D01*
X2794Y9683D01*
X2788Y9684D01*
X2782Y9683D01*
X2779Y9681D01*
X2777Y9677D01*
X2773Y9676D01*
X2761Y9676D01*
X2758Y9675D01*
X2756Y9673D01*
X2753Y9669D01*
X2750Y9668D01*
X2744Y9668D01*
X2740Y9665D01*
X2738Y9661D01*
X2737Y9660D01*
X2731Y9659D01*
X2728Y9660D01*
X2723Y9661D01*
X2719Y9660D01*
X2717Y9657D01*
X2714Y9653D01*
X2711Y9652D01*
X2705Y9652D01*
X2702Y9651D01*
X2701Y9650D01*
X2699Y9646D01*
X2698Y9645D01*
X2694Y9644D01*
X2684Y9645D01*
X2672Y9644D01*
X2670Y9643D01*
X2669Y9637D01*
X2669Y9632D01*
X2671Y9630D01*
X2673Y9629D01*
X2676Y9627D01*
X2677Y9626D01*
X2680Y9621D01*
X2685Y9620D01*
X2688Y9621D01*
X2714Y9620D01*
X2716Y9618D01*
X2718Y9614D01*
X2722Y9613D01*
X2735Y9613D01*
X2738Y9611D01*
X2740Y9610D01*
X2740Y9608D01*
X2742Y9606D01*
X2746Y9605D01*
X2759Y9606D01*
X2762Y9604D01*
X2765Y9599D01*
X2767Y9597D01*
X2782Y9598D01*
X2785Y9597D01*
X2786Y9595D01*
X2788Y9591D01*
X2790Y9590D01*
X2793Y9589D01*
X2796Y9590D01*
X2799Y9589D01*
X2802Y9586D01*
X2803Y9585D01*
X2806Y9582D01*
X2808Y9581D01*
X2810Y9578D01*
X2812Y9575D01*
X2816Y9574D01*
X2826Y9574D01*
X2846Y9574D01*
X2848Y9575D01*
X2854Y9574D01*
X2857Y9571D01*
X2858Y9569D01*
X2859Y9567D01*
X2863Y9566D01*
X2876Y9566D01*
X2880Y9564D01*
X2883Y9559D01*
X2886Y9558D01*
X2894Y9557D01*
X2896Y9555D01*
X2898Y9551D01*
X2902Y9550D01*
X2916Y9551D01*
X2920Y9547D01*
X2922Y9543D01*
X2933Y9542D01*
X2935Y9540D01*
X2938Y9536D01*
X2941Y9535D01*
X2954Y9535D01*
X2959Y9532D01*
X2961Y9528D01*
X2972Y9527D01*
X2974Y9524D01*
X2977Y9520D01*
X2978Y9519D01*
X2989Y9518D01*
X2993Y9512D01*
X2998Y9511D01*
X3007Y9512D01*
X3011Y9511D01*
X3013Y9510D01*
X3015Y9504D01*
X3019Y9504D01*
X3027Y9503D01*
X3029Y9501D01*
X3031Y9497D01*
X3035Y9496D01*
X3048Y9496D01*
X3052Y9493D01*
X3054Y9489D01*
X3057Y9488D01*
X3060Y9489D01*
X3061Y9490D01*
X3064Y9496D01*
X3067Y9496D01*
X3077Y9496D01*
X3078Y9496D01*
X3081Y9496D01*
X3090Y9496D01*
X3091Y9498D01*
X3094Y9503D01*
X3097Y9504D01*
X3105Y9504D01*
X3107Y9507D01*
X3110Y9511D01*
X3113Y9512D01*
X3123Y9511D01*
X3127Y9512D01*
X3130Y9511D01*
X3136Y9512D01*
X3138Y9514D01*
X3141Y9518D01*
X3142Y9519D01*
X3152Y9520D01*
X3154Y9521D01*
X3157Y9526D01*
X3160Y9527D01*
X3168Y9528D01*
X3170Y9530D01*
X3172Y9534D01*
X3176Y9535D01*
X3188Y9535D01*
X3188Y9535D01*
X3191Y9535D01*
X3199Y9535D01*
X3201Y9537D01*
X3203Y9542D01*
X3208Y9545D01*
X3209Y9546D01*
X3212Y9550D01*
X3215Y9551D01*
X3225Y9551D01*
X3229Y9551D01*
X3232Y9550D01*
X3238Y9551D01*
X3240Y9553D01*
X3243Y9557D01*
X3244Y9558D01*
X3254Y9559D01*
X3258Y9566D01*
X3262Y9566D01*
X3275Y9566D01*
X3279Y9568D01*
X3282Y9574D01*
X3286Y9575D01*
X3289Y9574D01*
X3293Y9575D01*
X3296Y9577D01*
X3298Y9582D01*
X3309Y9582D01*
X3310Y9584D01*
X3313Y9588D01*
X3314Y9589D01*
X3317Y9590D01*
X3319D01*
X3327Y9590D01*
X3346Y9590D01*
X3349Y9589D01*
X3355Y9590D01*
X3358Y9592D01*
X3360Y9596D01*
X3361Y9597D01*
X3372Y9598D01*
X3375Y9603D01*
X3377Y9606D01*
X3379Y9606D01*
X3381Y9608D01*
X3382Y9610D01*
X3384Y9613D01*
X3388Y9614D01*
X3391Y9613D01*
X3395Y9614D01*
X3397Y9616D01*
X3399Y9620D01*
X3400Y9621D01*
X3406Y9622D01*
X3408Y9621D01*
X3415Y9620D01*
X3419Y9623D01*
X3420Y9624D01*
X3423Y9628D01*
X3426Y9629D01*
X3439Y9628D01*
X3444Y9632D01*
X3446Y9636D01*
X3453Y9637D01*
X3456Y9636D01*
X3459Y9638D01*
X3459Y9643D01*
X3454Y9647D01*
X3448Y9653D01*
X3446Y9654D01*
X3445Y9655D01*
X3444Y9657D01*
X3442Y9659D01*
X3439Y9660D01*
X3419Y9660D01*
X3415Y9661D01*
X3414Y9662D01*
X3413Y9664D01*
X3410Y9668D01*
X3407Y9668D01*
X3402Y9668D01*
X3398Y9670D01*
X3395Y9675D01*
X3390Y9676D01*
X3382Y9676D01*
X3376Y9676D01*
X3375Y9678D01*
X3372Y9682D01*
X3370Y9684D01*
X3355Y9683D01*
X3352Y9685D01*
X3351Y9686D01*
X3349Y9690D01*
X3347Y9691D01*
X3344Y9692D01*
X3338Y9691D01*
X3335Y9693D01*
X3333Y9699D01*
X3329Y9699D01*
X3327Y9700D01*
X3324Y9699D01*
X3317Y9699D01*
X3312Y9701D01*
X3309Y9705D01*
X3308Y9707D01*
X3305Y9707D01*
X3300Y9707D01*
X3296Y9710D01*
X3293Y9714D01*
X3289Y9716D01*
X3278Y9715D01*
X3274Y9716D01*
X3270Y9722D01*
X3267Y9723D01*
X3258Y9724D01*
X3256Y9726D01*
X3254Y9729D01*
X3253Y9730D01*
X3249Y9733D01*
X3248Y9735D01*
X3245Y9738D01*
X3207Y9738D01*
X3204Y9739D01*
X3202Y9741D01*
X3199Y9745D01*
X3196Y9747D01*
X3190Y9746D01*
X3186Y9749D01*
X3184Y9753D01*
X3183Y9754D01*
X3177Y9755D01*
X3174Y9754D01*
X3165Y9755D01*
X3163Y9757D01*
X3160Y9761D01*
X3159Y9762D01*
X3148Y9763D01*
X3145Y9769D01*
X3141Y9770D01*
X3127Y9769D01*
X3124Y9771D01*
X3121Y9777D01*
X3118Y9778D01*
X3110Y9778D01*
X3108Y9780D01*
X3106Y9785D01*
X3102Y9786D01*
X3089Y9785D01*
X3084Y9789D01*
X3084Y9790D01*
X3082Y9792D01*
X3077Y9794D01*
D02*
G37*
G36*
X4385Y8056D02*
X4380Y8053D01*
X4378Y8028D01*
X4367Y7950D01*
X4362Y7920D01*
X4362Y7916D01*
X4365Y7913D01*
X4369Y7911D01*
X4377Y7911D01*
X4379Y7912D01*
X4380Y7914D01*
X4384Y7918D01*
X4386Y7919D01*
X4391Y7922D01*
X4395Y7926D01*
X4397Y7927D01*
X4410Y7927D01*
X4411Y7928D01*
X4416Y7934D01*
X4422Y7934D01*
X4425Y7933D01*
X4429Y7933D01*
X4432Y7935D01*
X4433Y7937D01*
X4435Y7939D01*
X4437Y7940D01*
X4439Y7942D01*
X4441Y7943D01*
X4443Y7944D01*
X4444Y7946D01*
X4450Y7950D01*
X4452Y7950D01*
X4453Y7952D01*
X4455Y7953D01*
X4461Y7958D01*
X4463Y7959D01*
X4465Y7960D01*
X4466Y7962D01*
X4469Y7965D01*
X4471Y7966D01*
X4476Y7969D01*
X4478Y7973D01*
X4478Y7981D01*
X4475Y7985D01*
X4462Y7987D01*
X4461Y7989D01*
X4458Y7996D01*
X4454Y7998D01*
X4448Y7998D01*
X4444Y8000D01*
X4442Y8003D01*
X4440Y8008D01*
X4428Y8011D01*
X4426Y8013D01*
X4425Y8016D01*
X4422Y8021D01*
X4420Y8022D01*
X4416Y8027D01*
X4415Y8029D01*
X4413Y8032D01*
X4410Y8034D01*
X4405Y8033D01*
X4400Y8035D01*
X4399Y8038D01*
X4396Y8044D01*
X4391Y8050D01*
X4390Y8052D01*
X4388Y8055D01*
X4385Y8056D01*
D02*
G37*
G36*
X2572Y7260D02*
X2560Y7258D01*
X2559Y7258D01*
X2484Y7248D01*
X2482Y7245D01*
X2480Y7240D01*
X2479Y7238D01*
X2467Y7238D01*
X2464Y7236D01*
X2464Y7232D01*
X2466Y7228D01*
X2468Y7228D01*
X2474Y7224D01*
X2480Y7219D01*
X2482Y7218D01*
X2485Y7216D01*
X2486Y7212D01*
X2486Y7208D01*
X2487Y7204D01*
X2490Y7201D01*
X2503Y7202D01*
X2506Y7200D01*
X2507Y7198D01*
X2512Y7194D01*
X2514Y7193D01*
X2516Y7192D01*
X2517Y7190D01*
X2523Y7185D01*
X2525Y7185D01*
X2527Y7183D01*
X2528Y7182D01*
X2534Y7177D01*
X2536Y7176D01*
X2538Y7175D01*
X2539Y7173D01*
X2544Y7169D01*
X2546Y7168D01*
X2549Y7166D01*
X2550Y7164D01*
X2552Y7162D01*
X2557Y7161D01*
X2565Y7162D01*
X2567Y7165D01*
X2568Y7173D01*
X2567Y7177D01*
X2566Y7188D01*
X2569Y7191D01*
X2570Y7192D01*
X2574Y7195D01*
X2574Y7199D01*
X2571Y7224D01*
X2572Y7228D01*
X2574Y7231D01*
X2578Y7234D01*
X2579Y7240D01*
X2577Y7249D01*
X2578Y7252D01*
X2576Y7257D01*
X2572Y7260D01*
D02*
G37*
G36*
X3427Y5740D02*
X3387D01*
Y5679D01*
X3429D01*
X3431Y5680D01*
X3434Y5680D01*
X3438Y5681D01*
X3444Y5682D01*
X3450Y5683D01*
X3450D01*
X3452Y5683D01*
X3453Y5684D01*
X3455Y5684D01*
X3460Y5687D01*
X3463Y5689D01*
X3465Y5692D01*
X3466Y5693D01*
X3466Y5694D01*
X3467Y5695D01*
X3468Y5697D01*
X3470Y5702D01*
X3471Y5706D01*
Y5710D01*
Y5710D01*
Y5712D01*
X3471Y5714D01*
X3470Y5718D01*
X3469Y5721D01*
X3467Y5725D01*
X3465Y5728D01*
X3462Y5731D01*
X3461Y5732D01*
X3460Y5732D01*
X3458Y5734D01*
X3454Y5736D01*
X3449Y5737D01*
X3443Y5738D01*
X3436Y5739D01*
X3427Y5740D01*
D02*
G37*
G36*
X2691D02*
X2665D01*
Y5673D01*
X2691D01*
X2696Y5673D01*
X2702Y5674D01*
X2708Y5675D01*
X2714Y5677D01*
X2720Y5679D01*
X2725Y5682D01*
X2725Y5682D01*
X2726Y5683D01*
X2728Y5686D01*
X2730Y5688D01*
X2732Y5692D01*
X2734Y5696D01*
X2735Y5700D01*
X2736Y5706D01*
Y5706D01*
Y5708D01*
X2735Y5711D01*
X2735Y5714D01*
X2734Y5718D01*
X2731Y5722D01*
X2729Y5726D01*
X2726Y5730D01*
X2725Y5730D01*
X2724Y5731D01*
X2722Y5733D01*
X2718Y5735D01*
X2713Y5736D01*
X2707Y5738D01*
X2700Y5739D01*
X2691Y5740D01*
D02*
G37*
G36*
X4120Y3971D02*
X4053D01*
Y3920D01*
X4054Y3916D01*
X4055Y3910D01*
X4057Y3898D01*
X4059Y3893D01*
X4062Y3889D01*
X4062Y3888D01*
X4063Y3887D01*
X4065Y3886D01*
X4068Y3884D01*
X4072Y3882D01*
X4076Y3880D01*
X4081Y3879D01*
X4087Y3879D01*
X4088D01*
X4090D01*
X4092Y3879D01*
X4096Y3880D01*
X4100Y3881D01*
X4104Y3883D01*
X4107Y3886D01*
X4111Y3889D01*
X4111Y3890D01*
X4112Y3891D01*
X4113Y3893D01*
X4115Y3897D01*
X4117Y3902D01*
X4118Y3907D01*
X4119Y3915D01*
X4120Y3923D01*
Y3971D01*
D02*
G37*
G36*
X3987D02*
X3916D01*
Y3912D01*
X3917Y3907D01*
X3918Y3901D01*
X3919Y3894D01*
X3920Y3888D01*
X3923Y3882D01*
X3926Y3877D01*
X3927Y3876D01*
X3928Y3875D01*
X3930Y3873D01*
X3933Y3871D01*
X3937Y3869D01*
X3942Y3867D01*
X3947Y3866D01*
X3953Y3865D01*
X3953D01*
X3955D01*
X3958Y3866D01*
X3962Y3867D01*
X3965Y3868D01*
X3970Y3870D01*
X3974Y3873D01*
X3977Y3877D01*
X3978Y3877D01*
X3979Y3879D01*
X3981Y3882D01*
X3983Y3886D01*
X3984Y3891D01*
X3986Y3898D01*
X3986Y3907D01*
X3987Y3917D01*
Y3971D01*
D02*
G37*
G36*
X4025Y3606D02*
X4015D01*
X4014D01*
X4013D01*
X4010D01*
X4007Y3605D01*
X4002D01*
X3997Y3605D01*
X3986Y3604D01*
X3974Y3602D01*
X3961Y3598D01*
X3949Y3593D01*
X3944Y3590D01*
X3939Y3587D01*
X3938Y3586D01*
X3935Y3583D01*
X3932Y3579D01*
X3928Y3573D01*
X3923Y3565D01*
X3920Y3556D01*
X3918Y3545D01*
X3916Y3533D01*
Y3530D01*
X3917Y3527D01*
X3918Y3521D01*
X3919Y3513D01*
X3922Y3505D01*
X3926Y3496D01*
X3931Y3487D01*
X3939Y3479D01*
X3940Y3479D01*
X3943Y3476D01*
X3946Y3475D01*
X3949Y3473D01*
X3953Y3471D01*
X3957Y3469D01*
X3962Y3468D01*
X3968Y3466D01*
X3975Y3464D01*
X3982Y3463D01*
X3990Y3462D01*
X3999Y3460D01*
X4009Y3460D01*
X4020D01*
X4020D01*
X4021D01*
X4024D01*
X4028D01*
X4032Y3460D01*
X4036Y3461D01*
X4047Y3462D01*
X4058Y3465D01*
X4070Y3468D01*
X4082Y3473D01*
X4092Y3480D01*
X4093Y3481D01*
X4095Y3484D01*
X4099Y3488D01*
X4103Y3494D01*
X4107Y3502D01*
X4111Y3511D01*
X4113Y3522D01*
X4114Y3534D01*
Y3535D01*
X4114Y3539D01*
X4113Y3546D01*
X4111Y3553D01*
X4109Y3561D01*
X4104Y3570D01*
X4099Y3579D01*
X4091Y3586D01*
X4090Y3587D01*
X4086Y3590D01*
X4081Y3593D01*
X4073Y3596D01*
X4068Y3598D01*
X4062Y3600D01*
X4056Y3602D01*
X4049Y3603D01*
X4042Y3604D01*
X4034Y3605D01*
X4025Y3606D01*
D02*
G37*
G36*
X4885Y3203D02*
X4876D01*
X4875D01*
X4873D01*
X4871D01*
X4868Y3202D01*
X4863D01*
X4858Y3202D01*
X4846Y3200D01*
X4834Y3198D01*
X4822Y3195D01*
X4810Y3190D01*
X4804Y3187D01*
X4800Y3184D01*
X4799Y3183D01*
X4796Y3180D01*
X4793Y3175D01*
X4789Y3170D01*
X4784Y3162D01*
X4781Y3153D01*
X4778Y3142D01*
X4777Y3130D01*
Y3126D01*
X4778Y3124D01*
X4778Y3118D01*
X4780Y3110D01*
X4783Y3102D01*
X4787Y3093D01*
X4792Y3084D01*
X4799Y3076D01*
X4801Y3075D01*
X4804Y3073D01*
X4806Y3072D01*
X4810Y3070D01*
X4813Y3068D01*
X4818Y3066D01*
X4823Y3065D01*
X4829Y3063D01*
X4836Y3061D01*
X4843Y3060D01*
X4851Y3058D01*
X4860Y3057D01*
X4869Y3056D01*
X4880D01*
X4881D01*
X4882D01*
X4885D01*
X4889D01*
X4892Y3057D01*
X4897Y3058D01*
X4908Y3059D01*
X4919Y3061D01*
X4931Y3065D01*
X4943Y3070D01*
X4952Y3077D01*
X4954Y3077D01*
X4956Y3081D01*
X4959Y3085D01*
X4964Y3091D01*
X4968Y3098D01*
X4971Y3108D01*
X4974Y3119D01*
X4975Y3131D01*
Y3132D01*
X4975Y3136D01*
X4974Y3142D01*
X4972Y3149D01*
X4969Y3158D01*
X4965Y3167D01*
X4959Y3175D01*
X4952Y3183D01*
X4950Y3184D01*
X4947Y3186D01*
X4941Y3190D01*
X4934Y3193D01*
X4929Y3195D01*
X4923Y3197D01*
X4917Y3198D01*
X4910Y3200D01*
X4903Y3201D01*
X4894Y3202D01*
X4885Y3203D01*
D02*
G37*
G36*
X3974Y3179D02*
Y3102D01*
X4099Y3140D01*
X3974Y3179D01*
D02*
G37*
G36*
X4455Y3143D02*
X4445D01*
X4445D01*
X4443D01*
X4440D01*
X4437Y3143D01*
X4433D01*
X4428Y3142D01*
X4416Y3141D01*
X4404Y3139D01*
X4391Y3135D01*
X4379Y3131D01*
X4374Y3127D01*
X4370Y3124D01*
X4368Y3124D01*
X4366Y3120D01*
X4363Y3116D01*
X4358Y3110D01*
X4354Y3103D01*
X4351Y3093D01*
X4348Y3082D01*
X4347Y3070D01*
Y3067D01*
X4347Y3064D01*
X4348Y3058D01*
X4349Y3050D01*
X4352Y3042D01*
X4356Y3033D01*
X4361Y3024D01*
X4369Y3017D01*
X4370Y3016D01*
X4373Y3013D01*
X4376Y3012D01*
X4379Y3010D01*
X4383Y3008D01*
X4387Y3006D01*
X4393Y3005D01*
X4398Y3003D01*
X4405Y3001D01*
X4412Y3000D01*
X4421Y2999D01*
X4430Y2997D01*
X4439Y2997D01*
X4450D01*
X4451D01*
X4452D01*
X4454D01*
X4458D01*
X4462Y2997D01*
X4466Y2998D01*
X4477Y2999D01*
X4489Y3002D01*
X4501Y3005D01*
X4512Y3010D01*
X4522Y3017D01*
X4523Y3018D01*
X4526Y3021D01*
X4529Y3025D01*
X4533Y3031D01*
X4538Y3039D01*
X4541Y3048D01*
X4544Y3059D01*
X4545Y3071D01*
Y3073D01*
X4544Y3076D01*
X4544Y3083D01*
X4542Y3090D01*
X4539Y3098D01*
X4535Y3107D01*
X4529Y3116D01*
X4521Y3124D01*
X4520Y3124D01*
X4517Y3127D01*
X4511Y3130D01*
X4503Y3133D01*
X4498Y3135D01*
X4493Y3137D01*
X4486Y3139D01*
X4480Y3140D01*
X4472Y3141D01*
X4464Y3143D01*
X4455Y3143D01*
D02*
G37*
G36*
X4120Y2805D02*
X4049D01*
Y2756D01*
X4049Y2753D01*
X4050Y2749D01*
X4051Y2744D01*
X4052Y2738D01*
X4053Y2731D01*
Y2730D01*
X4054Y2729D01*
X4055Y2727D01*
X4055Y2725D01*
X4058Y2719D01*
X4061Y2716D01*
X4064Y2713D01*
X4065Y2712D01*
X4066Y2712D01*
X4067Y2710D01*
X4070Y2709D01*
X4076Y2707D01*
X4080Y2706D01*
X4085D01*
X4085D01*
X4087D01*
X4090Y2707D01*
X4094Y2707D01*
X4098Y2709D01*
X4102Y2710D01*
X4106Y2713D01*
X4110Y2717D01*
X4111Y2717D01*
X4111Y2719D01*
X4113Y2722D01*
X4115Y2726D01*
X4116Y2731D01*
X4118Y2739D01*
X4119Y2747D01*
X4120Y2758D01*
Y2805D01*
D02*
G37*
G36*
X4111Y2426D02*
X3921D01*
Y2394D01*
X3921Y2388D01*
Y2381D01*
X3923Y2373D01*
X3924Y2365D01*
X3925Y2358D01*
X3928Y2351D01*
X3928Y2351D01*
X3929Y2349D01*
X3931Y2346D01*
X3934Y2343D01*
X3937Y2339D01*
X3942Y2335D01*
X3948Y2331D01*
X3954Y2328D01*
X3955Y2328D01*
X3958Y2327D01*
X3962Y2326D01*
X3969Y2324D01*
X3977Y2323D01*
X3988Y2321D01*
X4000Y2321D01*
X4014Y2320D01*
X4015D01*
X4017D01*
X4020D01*
X4023D01*
X4028Y2321D01*
X4033D01*
X4045Y2323D01*
X4057Y2324D01*
X4070Y2328D01*
X4081Y2332D01*
X4086Y2335D01*
X4090Y2338D01*
X4091Y2339D01*
X4093Y2342D01*
X4097Y2347D01*
X4101Y2353D01*
X4105Y2361D01*
X4108Y2372D01*
X4111Y2384D01*
X4111Y2399D01*
Y2426D01*
D02*
G37*
G36*
X4835Y2288D02*
Y2211D01*
X4960Y2249D01*
X4835Y2288D01*
D02*
G37*
G36*
X4550Y1963D02*
X4479D01*
Y1914D01*
X4480Y1911D01*
X4480Y1908D01*
X4481Y1902D01*
X4482Y1896D01*
X4484Y1889D01*
Y1888D01*
X4484Y1887D01*
X4485Y1885D01*
X4486Y1883D01*
X4489Y1877D01*
X4491Y1874D01*
X4494Y1871D01*
X4495Y1871D01*
X4496Y1870D01*
X4498Y1869D01*
X4500Y1867D01*
X4507Y1866D01*
X4510Y1864D01*
X4515D01*
X4516D01*
X4517D01*
X4521Y1865D01*
X4524Y1866D01*
X4528Y1867D01*
X4533Y1869D01*
X4537Y1871D01*
X4540Y1875D01*
X4541Y1876D01*
X4542Y1877D01*
X4544Y1880D01*
X4545Y1884D01*
X4547Y1890D01*
X4549Y1897D01*
X4549Y1906D01*
X4550Y1916D01*
Y1963D01*
D02*
G37*
G36*
X4980Y1914D02*
X4910D01*
Y1865D01*
X4910Y1862D01*
X4911Y1858D01*
X4911Y1853D01*
X4913Y1847D01*
X4914Y1840D01*
Y1839D01*
X4915Y1838D01*
X4915Y1836D01*
X4916Y1833D01*
X4919Y1828D01*
X4922Y1824D01*
X4925Y1822D01*
X4925Y1821D01*
X4927Y1821D01*
X4928Y1819D01*
X4931Y1818D01*
X4937Y1816D01*
X4941Y1815D01*
X4945D01*
X4946D01*
X4948D01*
X4951Y1815D01*
X4955Y1816D01*
X4959Y1817D01*
X4963Y1819D01*
X4967Y1822D01*
X4971Y1826D01*
X4971Y1826D01*
X4972Y1828D01*
X4974Y1831D01*
X4976Y1835D01*
X4977Y1840D01*
X4979Y1847D01*
X4980Y1856D01*
X4980Y1866D01*
Y1914D01*
D02*
G37*
G36*
X4455Y1599D02*
X4445D01*
X4445D01*
X4443D01*
X4440D01*
X4437Y1598D01*
X4433D01*
X4428Y1597D01*
X4416Y1596D01*
X4404Y1594D01*
X4391Y1590D01*
X4379Y1586D01*
X4374Y1583D01*
X4370Y1579D01*
X4368Y1579D01*
X4366Y1576D01*
X4363Y1571D01*
X4358Y1565D01*
X4354Y1558D01*
X4351Y1548D01*
X4348Y1537D01*
X4347Y1525D01*
Y1522D01*
X4347Y1520D01*
X4348Y1513D01*
X4349Y1506D01*
X4352Y1497D01*
X4356Y1488D01*
X4361Y1479D01*
X4369Y1472D01*
X4370Y1471D01*
X4373Y1469D01*
X4376Y1467D01*
X4379Y1465D01*
X4383Y1464D01*
X4387Y1462D01*
X4393Y1460D01*
X4398Y1458D01*
X4405Y1457D01*
X4412Y1455D01*
X4421Y1454D01*
X4430Y1453D01*
X4439Y1452D01*
X4450D01*
X4451D01*
X4452D01*
X4454D01*
X4458D01*
X4462Y1453D01*
X4466Y1453D01*
X4477Y1455D01*
X4489Y1457D01*
X4501Y1460D01*
X4512Y1465D01*
X4522Y1472D01*
X4523Y1473D01*
X4526Y1476D01*
X4529Y1481D01*
X4533Y1486D01*
X4538Y1494D01*
X4541Y1504D01*
X4544Y1515D01*
X4545Y1527D01*
Y1528D01*
X4544Y1532D01*
X4544Y1538D01*
X4542Y1545D01*
X4539Y1553D01*
X4535Y1562D01*
X4529Y1571D01*
X4521Y1579D01*
X4520Y1579D01*
X4517Y1582D01*
X4511Y1585D01*
X4503Y1588D01*
X4498Y1590D01*
X4493Y1592D01*
X4486Y1594D01*
X4480Y1595D01*
X4472Y1597D01*
X4464Y1598D01*
X4455Y1599D01*
D02*
G37*
G36*
X4972Y1535D02*
X4782D01*
Y1503D01*
X4782Y1497D01*
Y1489D01*
X4783Y1482D01*
X4785Y1473D01*
X4786Y1466D01*
X4789Y1460D01*
X4789Y1459D01*
X4790Y1458D01*
X4792Y1455D01*
X4795Y1452D01*
X4798Y1448D01*
X4803Y1444D01*
X4808Y1440D01*
X4815Y1437D01*
X4815Y1436D01*
X4818Y1436D01*
X4823Y1435D01*
X4829Y1433D01*
X4838Y1431D01*
X4848Y1430D01*
X4860Y1429D01*
X4875Y1429D01*
X4876D01*
X4878D01*
X4880D01*
X4884D01*
X4889Y1429D01*
X4894D01*
X4906Y1431D01*
X4918Y1433D01*
X4931Y1436D01*
X4942Y1441D01*
X4946Y1444D01*
X4951Y1447D01*
X4952Y1448D01*
X4954Y1451D01*
X4957Y1456D01*
X4962Y1462D01*
X4966Y1470D01*
X4969Y1480D01*
X4971Y1493D01*
X4972Y1508D01*
Y1535D01*
D02*
G37*
G36*
X4111Y1531D02*
X3921D01*
Y1500D01*
X3921Y1494D01*
Y1486D01*
X3923Y1479D01*
X3924Y1470D01*
X3925Y1463D01*
X3928Y1457D01*
X3928Y1456D01*
X3929Y1454D01*
X3931Y1452D01*
X3934Y1449D01*
X3937Y1445D01*
X3942Y1441D01*
X3948Y1437D01*
X3954Y1434D01*
X3955Y1433D01*
X3958Y1433D01*
X3962Y1431D01*
X3969Y1429D01*
X3977Y1428D01*
X3988Y1427D01*
X4000Y1426D01*
X4014Y1426D01*
X4015D01*
X4017D01*
X4020D01*
X4023D01*
X4028Y1426D01*
X4033D01*
X4045Y1428D01*
X4057Y1430D01*
X4070Y1433D01*
X4081Y1438D01*
X4086Y1441D01*
X4090Y1444D01*
X4091Y1445D01*
X4093Y1448D01*
X4097Y1452D01*
X4101Y1459D01*
X4105Y1467D01*
X4108Y1477D01*
X4111Y1490D01*
X4111Y1505D01*
Y1531D01*
D02*
G37*
G36*
X4408Y5744D02*
X4381D01*
Y5678D01*
X4408D01*
X4413Y5678D01*
X4419Y5679D01*
X4425Y5680D01*
X4431Y5682D01*
X4437Y5684D01*
X4441Y5687D01*
X4442Y5687D01*
X4443Y5688D01*
X4445Y5690D01*
X4447Y5693D01*
X4449Y5696D01*
X4451Y5701D01*
X4452Y5705D01*
X4452Y5711D01*
Y5711D01*
Y5713D01*
X4452Y5716D01*
X4451Y5719D01*
X4450Y5723D01*
X4448Y5727D01*
X4446Y5731D01*
X4443Y5735D01*
X4442Y5735D01*
X4441Y5736D01*
X4438Y5738D01*
X4435Y5740D01*
X4430Y5741D01*
X4424Y5743D01*
X4416Y5744D01*
X4408Y5744D01*
D02*
G37*
G36*
X1579Y5345D02*
X1389D01*
Y5313D01*
X1389Y5308D01*
Y5300D01*
X1391Y5292D01*
X1392Y5284D01*
X1393Y5277D01*
X1396Y5271D01*
X1396Y5270D01*
X1397Y5268D01*
X1399Y5265D01*
X1402Y5262D01*
X1405Y5258D01*
X1410Y5255D01*
X1415Y5251D01*
X1422Y5248D01*
X1422Y5247D01*
X1426Y5246D01*
X1430Y5245D01*
X1436Y5243D01*
X1445Y5242D01*
X1456Y5241D01*
X1468Y5240D01*
X1482Y5239D01*
X1483D01*
X1485D01*
X1487D01*
X1491D01*
X1496Y5240D01*
X1501D01*
X1513Y5242D01*
X1525Y5244D01*
X1538Y5247D01*
X1549Y5251D01*
X1554Y5255D01*
X1558Y5258D01*
X1559Y5258D01*
X1561Y5262D01*
X1564Y5266D01*
X1569Y5272D01*
X1573Y5281D01*
X1576Y5291D01*
X1579Y5304D01*
X1579Y5318D01*
Y5345D01*
D02*
G37*
G36*
X1442Y4959D02*
Y4883D01*
X1567Y4921D01*
X1442Y4959D01*
D02*
G37*
G36*
Y4227D02*
Y4151D01*
X1567Y4189D01*
X1442Y4227D01*
D02*
G37*
%LPD*%
D12*
X5395Y9290D02*
G03*
X5395Y9290I-2450J0D01*
G01*
X4512Y9298D02*
G03*
X4512Y9298I-1620J0D01*
G01*
D19*
X5415Y1298D02*
X5554Y1391D01*
X5183Y2320D02*
X5554D01*
X5183Y3249D02*
X5554D01*
X5183Y1391D02*
X5554D01*
X5415Y1484D02*
X5554Y1391D01*
X5415Y3156D02*
X5554Y3249D01*
X5415Y2227D02*
X5554Y2320D01*
X5415Y3342D02*
X5554Y3249D01*
X5415Y2413D02*
X5554Y2320D01*
D20*
X1684Y9952D02*
X2176D01*
Y9706D01*
X2094Y9624D01*
X1930D01*
X1848Y9706D01*
Y9952D01*
X2094Y9132D02*
X2176Y9214D01*
Y9378D01*
X2094Y9460D01*
X2012D01*
X1930Y9378D01*
Y9214D01*
X1848Y9132D01*
X1766D01*
X1684Y9214D01*
Y9378D01*
X1766Y9460D01*
X2094Y8640D02*
X2176Y8722D01*
Y8886D01*
X2094Y8968D01*
X2012D01*
X1930Y8886D01*
Y8722D01*
X1848Y8640D01*
X1766D01*
X1684Y8722D01*
Y8886D01*
X1766Y8968D01*
D21*
X5030Y5200D02*
D03*
X4439D02*
D03*
X3376Y5200D02*
D03*
X2785D02*
D03*
D22*
X4946Y4730D02*
D03*
X4523D02*
D03*
X2868D02*
D03*
X3292D02*
D03*
D23*
X1810Y1960D02*
D03*
X810D02*
D03*
D24*
X3080D02*
D03*
Y960D02*
D03*
Y2960D02*
D03*
Y3960D02*
D03*
X800Y960D02*
D03*
X1800D02*
D03*
M02*
