G04*
G04 #@! TF.GenerationSoftware,Altium Limited,Altium Designer,23.0.1 (38)*
G04*
G04 Layer_Color=16711935*
%FSLAX24Y24*%
%MOIN*%
G70*
G04*
G04 #@! TF.SameCoordinates,9BD69B8C-B535-481D-991D-221D870DF5CB*
G04*
G04*
G04 #@! TF.FilePolarity,Negative*
G04*
G01*
G75*
%ADD22R,0.0276X0.0276*%
%ADD23C,0.0650*%
%ADD24C,0.0665*%
%ADD33R,0.0276X0.0276*%
G04:AMPARAMS|DCode=34|XSize=63.1mil|YSize=17.8mil|CornerRadius=5.4mil|HoleSize=0mil|Usage=FLASHONLY|Rotation=180.000|XOffset=0mil|YOffset=0mil|HoleType=Round|Shape=RoundedRectangle|*
%AMROUNDEDRECTD34*
21,1,0.0631,0.0069,0,0,180.0*
21,1,0.0522,0.0178,0,0,180.0*
1,1,0.0109,-0.0261,0.0034*
1,1,0.0109,0.0261,0.0034*
1,1,0.0109,0.0261,-0.0034*
1,1,0.0109,-0.0261,-0.0034*
%
%ADD34ROUNDEDRECTD34*%
%ADD35R,0.0276X0.0256*%
%ADD36R,0.0256X0.0276*%
%ADD37R,0.0867X0.0375*%
G36*
X4362Y892D02*
X4363Y823D01*
X4362Y822D01*
X4363Y820D01*
X4362Y814D01*
X4364Y812D01*
X4365Y811D01*
X4367Y810D01*
X4371Y810D01*
X4373Y810D01*
X4453Y810D01*
X4456Y811D01*
X4458Y813D01*
X4459Y817D01*
X4458Y818D01*
X4459Y1066D01*
X4458Y1068D01*
X4456Y1070D01*
X4454Y1070D01*
X4450Y1071D01*
X4446Y1070D01*
X3841Y1071D01*
X3838Y1070D01*
X3835Y1068D01*
X3835Y1066D01*
X3835Y968D01*
X3835Y962D01*
X3836Y960D01*
X3839Y959D01*
X3843Y958D01*
X3850Y959D01*
X3852Y958D01*
X4357Y958D01*
X4360Y958D01*
X4361Y956D01*
X4362Y956D01*
X4363Y951D01*
X4362Y949D01*
X4363Y947D01*
X4362Y943D01*
Y892D01*
Y892D01*
D02*
G37*
G36*
X5037Y709D02*
X4576Y709D01*
X4575Y708D01*
X4574Y705D01*
X4574Y698D01*
X4574Y602D01*
X4574Y601D01*
X4575Y599D01*
X4576Y598D01*
X4578Y598D01*
X4586Y597D01*
X4828Y598D01*
X4829Y597D01*
X4836Y598D01*
X4839Y596D01*
X4840Y593D01*
X4840Y586D01*
X4840Y503D01*
X4839Y501D01*
X4838Y498D01*
X4837Y498D01*
X4828Y498D01*
X4585Y498D01*
X4584Y498D01*
X4583Y498D01*
X4576Y497D01*
X4575Y496D01*
X4574Y492D01*
X4574Y389D01*
X4576Y387D01*
X4579Y386D01*
X5194Y386D01*
X5196Y387D01*
X5197Y390D01*
X5197Y392D01*
X5197Y495D01*
X5194Y498D01*
X5180Y498D01*
X4944Y498D01*
X4939Y498D01*
X4937Y500D01*
X4936Y504D01*
X4936Y595D01*
X4938Y597D01*
X4940Y598D01*
X4948Y597D01*
X5189Y598D01*
X5191Y597D01*
X5195Y598D01*
X5196Y598D01*
X5197Y603D01*
X5197Y707D01*
X5195Y709D01*
X5192Y710D01*
X5187Y709D01*
X5038D01*
X5037D01*
D02*
G37*
G36*
X5067Y1130D02*
X4668Y1129D01*
X4666Y1129D01*
X4653Y1128D01*
X4650Y1127D01*
X4648Y1126D01*
X4643Y1126D01*
X4641Y1125D01*
X4638Y1124D01*
X4634Y1124D01*
X4631Y1123D01*
X4628Y1121D01*
X4625Y1120D01*
X4619Y1118D01*
X4615Y1115D01*
X4609Y1111D01*
X4607Y1109D01*
X4606Y1109D01*
X4605Y1108D01*
X4604Y1107D01*
X4596Y1099D01*
X4596Y1098D01*
X4592Y1093D01*
X4590Y1091D01*
X4588Y1087D01*
X4588Y1086D01*
X4585Y1082D01*
X4584Y1079D01*
X4583Y1074D01*
X4581Y1071D01*
X4579Y1067D01*
X4579Y1064D01*
X4578Y1056D01*
X4576Y1048D01*
X4576Y1047D01*
X4576Y1045D01*
X4576Y1039D01*
X4574Y1037D01*
X4574Y1029D01*
X4574Y917D01*
X4576Y913D01*
X4576Y903D01*
X4576Y902D01*
X4577Y899D01*
X4578Y894D01*
X4579Y886D01*
X4580Y884D01*
X4583Y877D01*
X4585Y871D01*
X4588Y867D01*
X4589Y864D01*
X4591Y861D01*
X4593Y858D01*
X4594Y857D01*
X4597Y853D01*
X4598Y852D01*
X4599Y851D01*
X4599Y850D01*
X4603Y847D01*
X4604Y846D01*
X4608Y842D01*
X4612Y840D01*
X4614Y838D01*
X4617Y836D01*
X4621Y835D01*
X4623Y833D01*
X4624Y833D01*
X4628Y831D01*
X4632Y830D01*
X4634Y829D01*
X4638Y828D01*
X4641Y827D01*
X4646Y826D01*
X4654Y825D01*
X4668Y824D01*
X4671Y823D01*
X4675Y823D01*
X4676Y823D01*
X4783Y823D01*
X4786Y824D01*
X4787Y828D01*
X4788Y832D01*
X4787Y833D01*
X4788Y935D01*
X4785Y938D01*
X4781Y938D01*
X4674Y938D01*
X4673Y938D01*
X4671Y939D01*
X4670Y940D01*
X4669Y942D01*
X4669Y951D01*
X4669Y1004D01*
X4669Y1006D01*
X4669Y1011D01*
X4672Y1014D01*
X4675Y1016D01*
X4681Y1017D01*
X4685Y1016D01*
X4687Y1017D01*
X5095Y1016D01*
X5096Y1016D01*
X5100Y1014D01*
X5103Y1012D01*
X5104Y1009D01*
X5104Y1002D01*
X5104Y944D01*
X5103Y942D01*
X5102Y939D01*
X5101Y939D01*
X5096Y938D01*
X4989Y937D01*
X4987Y936D01*
X4986Y933D01*
X4987Y923D01*
X4986Y829D01*
X4987Y826D01*
X4988Y824D01*
X4991Y823D01*
X5101Y824D01*
X5103Y824D01*
X5105Y825D01*
X5124Y825D01*
X5126Y826D01*
X5130Y826D01*
X5132Y827D01*
X5136Y828D01*
X5138Y829D01*
X5143Y831D01*
X5147Y833D01*
X5151Y835D01*
X5155Y836D01*
X5158Y838D01*
X5161Y840D01*
X5162Y841D01*
X5165Y843D01*
X5167Y845D01*
X5168Y846D01*
X5170Y848D01*
X5171Y848D01*
X5172Y850D01*
X5176Y854D01*
X5177Y855D01*
X5181Y859D01*
X5182Y862D01*
X5182Y863D01*
X5183Y864D01*
X5184Y865D01*
X5186Y867D01*
X5187Y871D01*
X5188Y874D01*
X5189Y876D01*
X5191Y880D01*
X5192Y882D01*
X5192Y886D01*
X5193Y889D01*
X5194Y891D01*
X5195Y894D01*
X5196Y897D01*
X5196Y900D01*
X5197Y904D01*
X5197Y921D01*
X5198Y928D01*
X5198Y929D01*
X5197Y1048D01*
X5197Y1050D01*
X5196Y1056D01*
X5195Y1058D01*
X5194Y1061D01*
X5193Y1066D01*
X5192Y1068D01*
X5192Y1072D01*
X5191Y1074D01*
X5189Y1078D01*
X5186Y1084D01*
X5185Y1087D01*
X5182Y1090D01*
X5179Y1095D01*
X5177Y1098D01*
X5176Y1099D01*
X5174Y1102D01*
X5172Y1104D01*
X5171Y1104D01*
X5171Y1105D01*
X5167Y1108D01*
X5165Y1110D01*
X5162Y1113D01*
X5161Y1113D01*
X5155Y1116D01*
X5149Y1119D01*
X5145Y1121D01*
X5143Y1122D01*
X5139Y1124D01*
X5135Y1124D01*
X5130Y1125D01*
X5128Y1126D01*
X5125Y1126D01*
X5123Y1127D01*
X5119Y1128D01*
X5117Y1128D01*
X5103Y1129D01*
X5095Y1130D01*
X5068D01*
X5067D01*
D02*
G37*
G36*
X3835Y1278D02*
X3836Y1277D01*
X3838Y1275D01*
X3842Y1274D01*
X3845Y1274D01*
X3852Y1273D01*
X3855Y1272D01*
X3857Y1272D01*
X3862Y1270D01*
X3867Y1269D01*
X3872Y1269D01*
X3882Y1267D01*
X3885Y1267D01*
X3888Y1266D01*
X3892Y1265D01*
X3894Y1264D01*
X3902Y1263D01*
X3908Y1262D01*
X3911Y1262D01*
X3917Y1260D01*
X3922Y1259D01*
X3925Y1258D01*
X3933Y1257D01*
X3936Y1257D01*
X3941Y1256D01*
X3944Y1255D01*
X3947Y1254D01*
X3951Y1253D01*
X3954Y1253D01*
X3962Y1252D01*
X3964Y1251D01*
X3968Y1251D01*
X3974Y1249D01*
X3977Y1248D01*
X3979Y1248D01*
X3987Y1247D01*
X3996Y1246D01*
X3999Y1245D01*
X4003Y1244D01*
X4007Y1242D01*
X4013Y1242D01*
X4017Y1241D01*
X4022Y1241D01*
X4028Y1239D01*
X4032Y1238D01*
X4034Y1237D01*
X4038Y1237D01*
X4040Y1236D01*
X4047Y1236D01*
X4048Y1235D01*
X4054Y1234D01*
X4056Y1234D01*
X4059Y1233D01*
X4064Y1232D01*
X4070Y1231D01*
X4082Y1229D01*
X4088Y1227D01*
X4090Y1227D01*
X4093Y1226D01*
X4098Y1226D01*
X4104Y1225D01*
X4109Y1224D01*
X4113Y1222D01*
X4117Y1222D01*
X4120Y1221D01*
X4127Y1220D01*
X4136Y1219D01*
X4140Y1218D01*
X4145Y1216D01*
X4149Y1216D01*
X4151Y1215D01*
X4158Y1214D01*
X4161Y1214D01*
X4167Y1213D01*
X4170Y1212D01*
X4177Y1210D01*
X4181Y1210D01*
X4186Y1209D01*
X4189Y1209D01*
X4194Y1208D01*
X4196Y1208D01*
X4199Y1206D01*
X4203Y1205D01*
X4205Y1205D01*
X4219Y1204D01*
X4221Y1203D01*
X4229Y1200D01*
X4233Y1199D01*
X4241Y1199D01*
X4244Y1198D01*
X4247Y1198D01*
X4251Y1197D01*
X4256Y1195D01*
X4263Y1194D01*
X4266Y1194D01*
X4273Y1193D01*
X4276Y1192D01*
X4278Y1192D01*
X4283Y1190D01*
X4287Y1189D01*
X4290Y1189D01*
X4293Y1188D01*
X4300Y1188D01*
X4303Y1187D01*
X4306Y1187D01*
X4308Y1186D01*
X4312Y1184D01*
X4315Y1184D01*
X4318Y1183D01*
X4325Y1183D01*
X4330Y1182D01*
X4332Y1182D01*
X4335Y1181D01*
X4340Y1179D01*
X4346Y1178D01*
X4355Y1177D01*
X4360Y1176D01*
X4362Y1176D01*
X4367Y1174D01*
X4375Y1173D01*
X4377Y1173D01*
X4383Y1172D01*
X4386Y1171D01*
X4391Y1170D01*
X4395Y1169D01*
X4399Y1168D01*
X4407Y1167D01*
X4414Y1166D01*
X4417Y1166D01*
X4419Y1165D01*
X4427Y1163D01*
X4433Y1162D01*
X4443Y1161D01*
X4446Y1160D01*
X4450Y1158D01*
X4453Y1157D01*
X4456Y1158D01*
X4457Y1159D01*
X4458Y1162D01*
X4459Y1265D01*
X4458Y1267D01*
X4456Y1271D01*
X4455Y1272D01*
X4453Y1272D01*
X4449Y1273D01*
X4440Y1274D01*
X4434Y1275D01*
X4427Y1276D01*
X4421Y1278D01*
X4417Y1279D01*
X4408Y1279D01*
X4406Y1280D01*
X4402Y1280D01*
X4396Y1282D01*
X4393Y1282D01*
X4391Y1283D01*
X4387Y1284D01*
X4385Y1284D01*
X4375Y1285D01*
X4373Y1285D01*
X4370Y1286D01*
X4361Y1288D01*
X4357Y1289D01*
X4353Y1289D01*
X4341Y1291D01*
X4339Y1291D01*
X4335Y1292D01*
X4333Y1293D01*
X4326Y1294D01*
X4324Y1294D01*
X4321Y1296D01*
X4320Y1297D01*
X4320Y1299D01*
X4320Y1307D01*
X4320Y1392D01*
X4320Y1395D01*
X4322Y1397D01*
X4323Y1397D01*
X4324Y1398D01*
X4328Y1400D01*
X4331Y1400D01*
X4334Y1401D01*
X4342Y1402D01*
X4350Y1402D01*
X4353Y1403D01*
X4356Y1404D01*
X4359Y1405D01*
X4363Y1405D01*
X4368Y1406D01*
X4371Y1407D01*
X4380Y1407D01*
X4383Y1408D01*
X4386Y1408D01*
X4388Y1409D01*
X4394Y1410D01*
X4398Y1411D01*
X4403Y1412D01*
X4410Y1412D01*
X4417Y1413D01*
X4427Y1415D01*
X4432Y1416D01*
X4444Y1418D01*
X4454Y1419D01*
X4455Y1420D01*
X4456Y1420D01*
X4457Y1421D01*
X4458Y1425D01*
X4459Y1427D01*
X4458Y1436D01*
X4459Y1526D01*
X4458Y1529D01*
X4456Y1531D01*
X4453Y1532D01*
X4449Y1531D01*
X4444Y1530D01*
X4433Y1529D01*
X4431Y1529D01*
X4428Y1528D01*
X4426Y1527D01*
X4423Y1526D01*
X4420Y1526D01*
X4415Y1525D01*
X4412Y1524D01*
X4405Y1524D01*
X4402Y1523D01*
X4399Y1523D01*
X4395Y1522D01*
X4391Y1521D01*
X4389Y1520D01*
X4383Y1519D01*
X4375Y1519D01*
X4374Y1518D01*
X4368Y1517D01*
X4363Y1516D01*
X4358Y1515D01*
X4354Y1514D01*
X4352Y1514D01*
X4342Y1513D01*
X4340Y1512D01*
X4333Y1510D01*
X4328Y1510D01*
X4325Y1509D01*
X4321Y1509D01*
X4319Y1508D01*
X4314Y1507D01*
X4314D01*
X4307Y1507D01*
X4303Y1505D01*
X4298Y1504D01*
X4294Y1504D01*
X4292Y1503D01*
X4284Y1502D01*
X4282Y1502D01*
X4278Y1501D01*
X4271Y1499D01*
X4268Y1499D01*
X4266Y1498D01*
X4261Y1498D01*
X4256Y1497D01*
X4251Y1497D01*
X4248Y1496D01*
X4244Y1495D01*
X4241Y1494D01*
X4237Y1493D01*
X4233Y1493D01*
X4229Y1492D01*
X4224Y1492D01*
X4220Y1491D01*
X4216Y1491D01*
X4210Y1488D01*
X4207Y1488D01*
X4201Y1487D01*
X4192Y1486D01*
X4190Y1486D01*
X4187Y1485D01*
X4179Y1483D01*
X4175Y1482D01*
X4171Y1482D01*
X4163Y1481D01*
X4159Y1481D01*
X4155Y1479D01*
X4151Y1478D01*
X4149Y1477D01*
X4142Y1477D01*
X4137Y1476D01*
X4123Y1474D01*
X4119Y1472D01*
X4116Y1472D01*
X4110Y1471D01*
X4105Y1471D01*
X4098Y1469D01*
X4096Y1469D01*
X4092Y1467D01*
X4088Y1467D01*
X4081Y1466D01*
X4077Y1465D01*
X4070Y1465D01*
X4068Y1464D01*
X4066Y1464D01*
X4060Y1462D01*
X4058Y1461D01*
X4051Y1461D01*
X4046Y1460D01*
X4040Y1459D01*
X4035Y1458D01*
X4032Y1458D01*
X4030Y1457D01*
X4026Y1456D01*
X4023Y1455D01*
X4014Y1455D01*
X4012Y1454D01*
X4008Y1453D01*
X4004Y1452D01*
X4002Y1451D01*
X3995Y1451D01*
X3992Y1450D01*
X3984Y1449D01*
X3982Y1449D01*
X3977Y1448D01*
X3975Y1447D01*
X3971Y1446D01*
X3967Y1445D01*
X3963Y1445D01*
X3955Y1444D01*
X3952Y1443D01*
X3945Y1442D01*
X3942Y1441D01*
X3935Y1440D01*
X3930Y1439D01*
X3923Y1439D01*
X3920Y1438D01*
X3917Y1437D01*
X3913Y1436D01*
X3909Y1435D01*
X3907Y1435D01*
X3903Y1434D01*
X3900Y1434D01*
X3891Y1433D01*
X3887Y1432D01*
X3885Y1432D01*
X3882Y1431D01*
X3877Y1429D01*
X3863Y1428D01*
X3858Y1427D01*
X3850Y1425D01*
X3846Y1424D01*
X3838Y1423D01*
X3837Y1422D01*
X3835Y1421D01*
X3835Y1419D01*
X3835Y1411D01*
X3835Y1280D01*
X3835Y1278D01*
D02*
G37*
G36*
X4230Y1789D02*
X3936Y1788D01*
X3934Y1789D01*
X3933Y1790D01*
X3932Y1790D01*
X3932Y1791D01*
X3931Y1794D01*
X3931Y1884D01*
X3930Y1885D01*
X3929Y1887D01*
X3925Y1888D01*
X3838Y1887D01*
X3836Y1886D01*
X3835Y1885D01*
X3835Y1883D01*
X3835Y1877D01*
X3835Y1580D01*
X3836Y1579D01*
X3836Y1578D01*
X3837Y1577D01*
X3840Y1576D01*
X3928Y1577D01*
X3931Y1579D01*
X3931Y1583D01*
X3931Y1586D01*
X3931Y1673D01*
X3934Y1675D01*
X3936Y1676D01*
X3939Y1676D01*
X3941Y1676D01*
X4455Y1676D01*
X4458Y1679D01*
X4459Y1683D01*
X4458Y1690D01*
X4459Y1782D01*
X4458Y1785D01*
X4457Y1787D01*
X4456Y1787D01*
X4452Y1789D01*
X4443Y1788D01*
X4441Y1789D01*
X4429Y1788D01*
X4422Y1789D01*
X4420Y1788D01*
X4413Y1789D01*
X4230D01*
X4230D01*
D02*
G37*
G36*
X4670Y1351D02*
X4671Y1391D01*
X4672Y1392D01*
X4676Y1394D01*
X4825Y1393D01*
X4827Y1392D01*
X4828Y1388D01*
X4828Y1261D01*
X4829Y1258D01*
X4833Y1256D01*
X4845Y1257D01*
X4916Y1257D01*
X4922Y1257D01*
X4924Y1259D01*
X4924Y1262D01*
X4924Y1269D01*
X4924Y1383D01*
X4924Y1384D01*
X4924Y1390D01*
X4926Y1393D01*
X4929Y1394D01*
X4930Y1394D01*
X4932Y1394D01*
X5098Y1394D01*
X5100Y1392D01*
X5101Y1389D01*
X5102Y1223D01*
X5103Y1221D01*
X5105Y1221D01*
X5114Y1221D01*
X5194Y1221D01*
X5196Y1222D01*
X5197Y1224D01*
X5197Y1227D01*
X5197Y1505D01*
X5195Y1507D01*
X5193Y1507D01*
X4577Y1507D01*
X4575Y1506D01*
X4574Y1501D01*
X4574Y1232D01*
X4576Y1229D01*
X4581Y1228D01*
X4661Y1228D01*
X4666Y1228D01*
X4669Y1231D01*
X4670Y1234D01*
Y1351D01*
Y1351D01*
D02*
G37*
G36*
X5034Y1691D02*
X5194Y1690D01*
X5196Y1692D01*
X5197Y1693D01*
X5197Y1700D01*
X5197Y1800D01*
X5195Y1802D01*
X5193Y1803D01*
X4673Y1804D01*
X4671Y1805D01*
X4670Y1811D01*
X4670Y1900D01*
X4669Y1902D01*
X4666Y1903D01*
X4576Y1902D01*
X4574Y1901D01*
X4574Y1899D01*
X4574Y1594D01*
X4576Y1592D01*
X4579Y1591D01*
X4666Y1591D01*
X4668Y1592D01*
X4669Y1593D01*
X4670Y1596D01*
X4671Y1688D01*
X4673Y1690D01*
X4678Y1691D01*
X5034D01*
X5034D01*
D02*
G37*
G36*
X5195Y3772D02*
X5197Y3769D01*
X5197Y3665D01*
X5196Y3661D01*
X5195Y3660D01*
X5191Y3659D01*
X5189Y3660D01*
X4979Y3660D01*
X4971Y3660D01*
X4969Y3659D01*
X4967Y3655D01*
X4967Y3556D01*
X4967Y3552D01*
X4966Y3550D01*
X4965Y3545D01*
X4965Y3540D01*
X4963Y3532D01*
X4962Y3522D01*
X4961Y3519D01*
X4958Y3513D01*
X4957Y3510D01*
X4956Y3506D01*
X4954Y3505D01*
X4952Y3501D01*
X4951Y3499D01*
X4950Y3498D01*
X4948Y3496D01*
X4946Y3491D01*
X4941Y3487D01*
X4940Y3486D01*
X4937Y3484D01*
X4934Y3481D01*
X4933Y3481D01*
X4930Y3477D01*
X4927Y3476D01*
X4922Y3473D01*
X4920Y3472D01*
X4916Y3471D01*
X4910Y3468D01*
X4907Y3467D01*
X4903Y3466D01*
X4896Y3465D01*
X4885Y3464D01*
X4883Y3463D01*
X4881Y3463D01*
X4661Y3462D01*
X4659Y3463D01*
X4655Y3464D01*
X4647Y3465D01*
X4639Y3466D01*
X4631Y3468D01*
X4628Y3469D01*
X4621Y3472D01*
X4620Y3473D01*
X4618Y3474D01*
X4615Y3476D01*
X4612Y3477D01*
X4611Y3477D01*
X4611Y3478D01*
X4609Y3479D01*
X4606Y3482D01*
X4605Y3482D01*
X4603Y3484D01*
X4602Y3485D01*
X4599Y3488D01*
X4598Y3489D01*
X4597Y3491D01*
X4594Y3495D01*
X4593Y3496D01*
X4592Y3497D01*
X4591Y3498D01*
X4588Y3504D01*
X4585Y3508D01*
X4584Y3511D01*
X4584Y3513D01*
X4583Y3516D01*
X4580Y3520D01*
X4579Y3525D01*
X4578Y3532D01*
X4577Y3537D01*
X4576Y3540D01*
X4576Y3545D01*
X4576Y3547D01*
X4576Y3549D01*
X4575Y3552D01*
X4574Y3554D01*
X4574Y3766D01*
X4575Y3770D01*
X4577Y3771D01*
X4859Y3772D01*
X5185D01*
X5192Y3772D01*
X5195Y3772D01*
D02*
G37*
G36*
X4456Y3346D02*
X4458Y3344D01*
X4458Y3247D01*
X4459Y3241D01*
X4458Y3238D01*
X4456Y3236D01*
X4439Y3235D01*
X4233D01*
X4229Y3234D01*
X4228Y3232D01*
X4227Y3224D01*
X4228Y3223D01*
X4228Y3151D01*
X4228Y3143D01*
X4227Y3141D01*
X4227Y3118D01*
X4226Y3111D01*
X4225Y3109D01*
X4224Y3106D01*
X4224Y3104D01*
X4223Y3101D01*
X4222Y3099D01*
X4221Y3094D01*
X4221Y3091D01*
X4220Y3089D01*
X4218Y3086D01*
X4216Y3083D01*
X4215Y3078D01*
X4214Y3077D01*
X4210Y3071D01*
X4210Y3070D01*
X4208Y3069D01*
X4205Y3065D01*
X4205Y3064D01*
X4203Y3063D01*
X4200Y3060D01*
X4199Y3059D01*
X4196Y3056D01*
X4192Y3054D01*
X4189Y3051D01*
X4187Y3050D01*
X4184Y3049D01*
X4181Y3048D01*
X4180Y3047D01*
X4177Y3045D01*
X4171Y3043D01*
X4169Y3043D01*
X4165Y3042D01*
X4160Y3040D01*
X4155Y3039D01*
X4153Y3038D01*
X3933Y3038D01*
X3911Y3038D01*
X3907Y3039D01*
X3902Y3040D01*
X3896Y3043D01*
X3890Y3044D01*
X3888Y3045D01*
X3885Y3046D01*
X3882Y3048D01*
X3879Y3049D01*
X3877Y3050D01*
X3875Y3051D01*
X3875Y3051D01*
X3872Y3054D01*
X3870Y3054D01*
X3867Y3058D01*
X3862Y3061D01*
X3861Y3062D01*
X3858Y3066D01*
X3855Y3069D01*
X3852Y3074D01*
X3849Y3078D01*
X3848Y3080D01*
X3847Y3083D01*
X3846Y3085D01*
X3844Y3088D01*
X3843Y3091D01*
X3842Y3094D01*
X3842Y3096D01*
X3840Y3101D01*
X3839Y3105D01*
X3838Y3108D01*
X3837Y3117D01*
X3837Y3119D01*
X3836Y3125D01*
X3837Y3126D01*
X3836Y3138D01*
X3835Y3140D01*
X3835Y3340D01*
X3836Y3345D01*
X3838Y3346D01*
X3840Y3347D01*
X4441Y3347D01*
X4452Y3347D01*
X4456Y3346D01*
D02*
G37*
G36*
X5195Y3356D02*
X5197Y3354D01*
X5197Y3100D01*
X5196Y3098D01*
X5194Y3096D01*
X5109Y3097D01*
X5107Y3096D01*
X5103Y3097D01*
X5102Y3098D01*
X5101Y3239D01*
X5100Y3243D01*
X5099Y3243D01*
X5097Y3244D01*
X4967Y3244D01*
X4579D01*
X4576Y3245D01*
X4574Y3247D01*
X4574Y3348D01*
X4574Y3353D01*
X4577Y3356D01*
X5187Y3356D01*
X5192Y3357D01*
X5195Y3356D01*
D02*
G37*
G36*
X4457Y2922D02*
X4458Y2814D01*
X4457Y2812D01*
X4456Y2811D01*
X4185Y2811D01*
X3841D01*
X3837Y2811D01*
X3836Y2812D01*
X3836Y2921D01*
X3837Y2922D01*
X4455Y2923D01*
X4457Y2922D01*
D02*
G37*
G36*
X5195Y3015D02*
X5197Y3012D01*
X5197Y2733D01*
X5197Y2730D01*
X5195Y2729D01*
X5193Y2728D01*
X5109Y2728D01*
X5107Y2728D01*
X5103Y2728D01*
X5102Y2730D01*
X5101Y2861D01*
Y2861D01*
Y2897D01*
X5100Y2900D01*
X5098Y2901D01*
X4937Y2901D01*
X4930Y2901D01*
X4926Y2900D01*
X4924Y2898D01*
X4924Y2894D01*
X4924Y2892D01*
X4924Y2778D01*
X4924Y2770D01*
X4923Y2766D01*
X4921Y2765D01*
X4838Y2764D01*
X4834Y2763D01*
X4830Y2765D01*
X4829Y2766D01*
X4828Y2896D01*
X4828Y2899D01*
X4826Y2900D01*
X4674Y2901D01*
X4672Y2900D01*
X4671Y2899D01*
X4670Y2746D01*
X4671Y2739D01*
X4669Y2736D01*
X4668Y2735D01*
X4579Y2735D01*
X4575Y2736D01*
X4574Y2738D01*
X4574Y2743D01*
X4574Y3009D01*
X4575Y3013D01*
X4577Y3014D01*
X5185Y3015D01*
X5192Y3015D01*
X5195Y3015D01*
D02*
G37*
G36*
X3841Y2720D02*
X3843Y2720D01*
X3854Y2718D01*
X3862Y2717D01*
X3864Y2717D01*
X3868Y2716D01*
X3869Y2715D01*
X3873Y2715D01*
X3875Y2714D01*
X3879Y2713D01*
X3886Y2713D01*
X3888Y2712D01*
X3892Y2712D01*
X3894Y2711D01*
X3897Y2710D01*
X3902Y2709D01*
X3905Y2709D01*
X3912Y2708D01*
X3920Y2707D01*
X3927Y2705D01*
X3930Y2704D01*
X3936Y2703D01*
X3945Y2702D01*
X3947Y2702D01*
X3951Y2701D01*
X3956Y2700D01*
X3958Y2699D01*
X3961Y2699D01*
X3967Y2698D01*
X3973Y2697D01*
X3977Y2696D01*
X3980Y2696D01*
X3980Y2696D01*
X3981D01*
X3985Y2695D01*
X3988Y2694D01*
X3991Y2693D01*
X3995Y2693D01*
X4003Y2692D01*
X4005Y2691D01*
X4009Y2691D01*
X4014Y2690D01*
X4017Y2689D01*
X4019Y2688D01*
X4022Y2688D01*
X4028Y2687D01*
X4038Y2686D01*
X4042Y2685D01*
X4045Y2684D01*
X4047Y2683D01*
X4053Y2682D01*
X4060Y2681D01*
X4068Y2680D01*
X4073Y2679D01*
X4076Y2678D01*
X4078Y2678D01*
X4083Y2677D01*
X4085Y2676D01*
X4092Y2676D01*
X4099Y2675D01*
X4101Y2674D01*
X4104Y2673D01*
X4108Y2672D01*
X4114Y2671D01*
X4116Y2671D01*
X4123Y2670D01*
X4127Y2670D01*
X4131Y2668D01*
X4135Y2668D01*
X4137Y2667D01*
X4142Y2666D01*
X4151Y2665D01*
X4154Y2665D01*
X4158Y2664D01*
X4160Y2663D01*
X4163Y2663D01*
X4167Y2661D01*
X4172Y2661D01*
X4174Y2660D01*
X4181Y2660D01*
X4188Y2658D01*
X4191Y2658D01*
X4196Y2656D01*
X4200Y2656D01*
X4202Y2655D01*
X4208Y2655D01*
X4215Y2654D01*
X4219Y2653D01*
X4222Y2652D01*
X4226Y2651D01*
X4232Y2650D01*
X4241Y2649D01*
X4243Y2648D01*
X4247Y2648D01*
X4251Y2647D01*
X4254Y2646D01*
X4257Y2645D01*
X4265Y2644D01*
X4271Y2643D01*
X4278Y2642D01*
X4281Y2641D01*
X4287Y2640D01*
X4291Y2639D01*
X4296Y2639D01*
X4301Y2638D01*
X4305Y2638D01*
X4308Y2637D01*
X4313Y2635D01*
X4316Y2635D01*
X4318Y2634D01*
X4322Y2634D01*
X4330Y2633D01*
X4333Y2632D01*
X4336Y2632D01*
X4340Y2631D01*
X4346Y2629D01*
X4350Y2629D01*
X4356Y2628D01*
X4364Y2627D01*
X4369Y2626D01*
X4372Y2625D01*
X4375Y2624D01*
X4377Y2624D01*
X4383Y2623D01*
X4387Y2622D01*
X4393Y2622D01*
X4399Y2620D01*
X4402Y2619D01*
X4405Y2619D01*
X4414Y2617D01*
X4419Y2617D01*
X4423Y2616D01*
X4428Y2615D01*
X4431Y2614D01*
X4434Y2613D01*
X4436Y2613D01*
X4443Y2612D01*
X4445Y2612D01*
X4452Y2611D01*
X4456Y2610D01*
X4458Y2606D01*
X4459Y2603D01*
X4458Y2478D01*
X4459Y2474D01*
X4458Y2470D01*
X4457Y2467D01*
X4457Y2466D01*
X4455Y2465D01*
X4454Y2464D01*
X4451Y2463D01*
X4448Y2463D01*
X4436Y2462D01*
X4432Y2461D01*
X4429Y2460D01*
X4427Y2459D01*
X4424Y2459D01*
X4422Y2458D01*
X4415Y2457D01*
X4410Y2457D01*
X4406Y2456D01*
X4404Y2456D01*
X4401Y2455D01*
X4396Y2454D01*
X4391Y2453D01*
X4381Y2452D01*
X4379Y2451D01*
X4375Y2451D01*
X4373Y2450D01*
X4370Y2449D01*
X4368Y2449D01*
X4364Y2448D01*
X4363Y2447D01*
X4355Y2447D01*
X4353Y2446D01*
X4347Y2446D01*
X4343Y2445D01*
X4340Y2444D01*
X4335Y2443D01*
X4332Y2442D01*
X4327Y2442D01*
X4322Y2441D01*
X4318Y2440D01*
X4314Y2440D01*
X4311Y2439D01*
X4305Y2437D01*
X4301Y2437D01*
X4296Y2436D01*
X4291Y2435D01*
X4287Y2435D01*
X4276Y2432D01*
X4273Y2432D01*
X4266Y2431D01*
X4262Y2430D01*
X4255Y2429D01*
X4252Y2428D01*
X4246Y2427D01*
X4242Y2426D01*
X4237Y2425D01*
X4232Y2425D01*
X4228Y2424D01*
X4222Y2423D01*
X4219Y2422D01*
X4216Y2421D01*
X4215Y2421D01*
X4207Y2420D01*
X4205Y2420D01*
X4199Y2419D01*
X4193Y2417D01*
X4190Y2417D01*
X4187Y2416D01*
X4184Y2415D01*
X4175Y2415D01*
X4173Y2414D01*
X4169Y2413D01*
X4164Y2412D01*
X4161Y2412D01*
X4159Y2411D01*
X4154Y2410D01*
X4152Y2410D01*
X4145Y2409D01*
X4138Y2408D01*
X4136Y2407D01*
X4133Y2407D01*
X4128Y2405D01*
X4119Y2404D01*
X4114Y2403D01*
X4110Y2403D01*
X4108Y2402D01*
X4105Y2402D01*
X4098Y2400D01*
X4095Y2399D01*
X4085Y2398D01*
X4083Y2398D01*
X4079Y2397D01*
X4077Y2397D01*
X4074Y2396D01*
X4070Y2395D01*
X4061Y2393D01*
X4055Y2393D01*
X4049Y2392D01*
X4046Y2391D01*
X4039Y2389D01*
X4036Y2389D01*
X4031Y2388D01*
X4026Y2388D01*
X4020Y2387D01*
X4017Y2386D01*
X4014Y2385D01*
X4011Y2384D01*
X4005Y2383D01*
X3996Y2382D01*
X3994Y2382D01*
X3990Y2381D01*
X3987Y2380D01*
X3980Y2379D01*
X3977Y2378D01*
X3970Y2377D01*
X3962Y2376D01*
X3958Y2375D01*
X3955Y2374D01*
X3952Y2374D01*
X3950Y2373D01*
X3946Y2373D01*
X3938Y2372D01*
X3935Y2371D01*
X3932Y2371D01*
X3929Y2370D01*
X3926Y2369D01*
X3922Y2368D01*
X3919Y2368D01*
X3913Y2367D01*
X3903Y2366D01*
X3899Y2365D01*
X3896Y2364D01*
X3893Y2363D01*
X3891Y2363D01*
X3880Y2361D01*
X3873Y2360D01*
X3870Y2360D01*
X3867Y2359D01*
X3863Y2358D01*
X3860Y2357D01*
X3857Y2357D01*
X3852Y2356D01*
X3846Y2355D01*
X3843Y2355D01*
X3841Y2354D01*
X3837Y2355D01*
X3836Y2355D01*
X3835Y2358D01*
X3835Y2457D01*
X3835Y2465D01*
X3837Y2468D01*
X3841Y2469D01*
X3844Y2470D01*
X3847Y2470D01*
X3851Y2472D01*
X3854Y2472D01*
X3857Y2473D01*
X3872Y2474D01*
X3874Y2475D01*
X3878Y2475D01*
X3881Y2476D01*
X3884Y2477D01*
X3886Y2477D01*
X3890Y2478D01*
X3896Y2478D01*
X3902Y2479D01*
X3909Y2480D01*
X3915Y2481D01*
X3919Y2482D01*
X3922Y2483D01*
X3927Y2483D01*
X3930Y2484D01*
X3939Y2485D01*
X3942Y2485D01*
X3948Y2486D01*
X3951Y2487D01*
X3954Y2488D01*
X3959Y2488D01*
X3962Y2489D01*
X3969Y2490D01*
X3976Y2490D01*
X3980Y2491D01*
X3982Y2492D01*
X3987Y2493D01*
X3992Y2494D01*
X4000Y2495D01*
X4004Y2495D01*
X4012Y2496D01*
X4017Y2497D01*
X4022Y2498D01*
X4028Y2499D01*
X4033Y2500D01*
X4040Y2500D01*
X4044Y2501D01*
X4047Y2502D01*
X4050Y2502D01*
X4057Y2504D01*
X4060Y2504D01*
X4067Y2505D01*
X4072Y2506D01*
X4080Y2507D01*
X4085Y2508D01*
X4087Y2508D01*
X4091Y2509D01*
X4093Y2510D01*
X4101Y2511D01*
X4110Y2511D01*
X4112Y2512D01*
X4119Y2513D01*
X4122Y2514D01*
X4125Y2514D01*
X4130Y2515D01*
X4132Y2516D01*
X4139Y2516D01*
X4147Y2517D01*
X4150Y2518D01*
X4152Y2518D01*
X4155Y2519D01*
X4160Y2520D01*
X4163Y2520D01*
X4167Y2521D01*
X4173Y2522D01*
X4179Y2522D01*
X4182Y2523D01*
X4188Y2524D01*
X4190Y2524D01*
X4196Y2526D01*
X4200Y2526D01*
X4206Y2527D01*
X4213Y2527D01*
X4215Y2528D01*
X4219Y2528D01*
X4222Y2529D01*
X4225Y2530D01*
X4227Y2530D01*
X4236Y2532D01*
X4241Y2532D01*
X4249Y2533D01*
X4252Y2534D01*
X4258Y2535D01*
X4261Y2536D01*
X4267Y2538D01*
X4267Y2540D01*
X4265Y2541D01*
X4262Y2542D01*
X4258Y2542D01*
X4252Y2543D01*
X4244Y2543D01*
X4240Y2544D01*
X4234Y2545D01*
X4230Y2546D01*
X4227Y2546D01*
X4223Y2547D01*
X4215Y2548D01*
X4211Y2548D01*
X4203Y2549D01*
X4201Y2550D01*
X4198Y2550D01*
X4196Y2551D01*
X4193Y2551D01*
X4187Y2553D01*
X4182Y2553D01*
X4175Y2554D01*
X4171Y2554D01*
X4167Y2555D01*
X4165Y2555D01*
X4160Y2557D01*
X4157Y2557D01*
X4150Y2558D01*
X4138Y2559D01*
X4131Y2560D01*
X4127Y2562D01*
X4124Y2562D01*
X4119Y2563D01*
X4118Y2563D01*
X4108Y2564D01*
X4105Y2565D01*
X4098Y2565D01*
X4095Y2566D01*
X4091Y2567D01*
X4088Y2568D01*
X4081Y2569D01*
X4075Y2569D01*
X4070Y2570D01*
X4065Y2570D01*
X4062Y2571D01*
X4058Y2572D01*
X4055Y2573D01*
X4052Y2573D01*
X4049Y2574D01*
X4045Y2574D01*
X4037Y2575D01*
X4032Y2575D01*
X4026Y2576D01*
X4019Y2578D01*
X4012Y2579D01*
X4004Y2580D01*
X3992Y2582D01*
X3989Y2582D01*
X3986Y2583D01*
X3982Y2584D01*
X3980Y2584D01*
X3973Y2585D01*
X3967Y2586D01*
X3960Y2587D01*
X3956Y2587D01*
X3952Y2588D01*
X3949Y2589D01*
X3943Y2590D01*
X3938Y2590D01*
X3932Y2591D01*
X3927Y2591D01*
X3923Y2592D01*
X3918Y2593D01*
X3913Y2594D01*
X3908Y2595D01*
X3905Y2596D01*
X3898Y2596D01*
X3887Y2598D01*
X3880Y2599D01*
X3877Y2600D01*
X3874Y2600D01*
X3860Y2602D01*
X3857Y2602D01*
X3850Y2603D01*
X3846Y2605D01*
X3842Y2605D01*
X3840Y2606D01*
X3837Y2607D01*
X3836Y2607D01*
X3835Y2609D01*
X3835Y2616D01*
X3835Y2716D01*
X3836Y2719D01*
X3837Y2720D01*
X3838Y2720D01*
X3839Y2721D01*
X3841Y2720D01*
D02*
G37*
G36*
X5191Y2621D02*
X5192Y2619D01*
X5193Y2616D01*
X5193Y2615D01*
X5193Y2610D01*
X5193Y2512D01*
X5193Y2498D01*
X5194Y2495D01*
X5195Y2495D01*
X5196Y2494D01*
X5247Y2493D01*
X5249Y2494D01*
X5253Y2493D01*
X5255Y2492D01*
X5256Y2347D01*
X5256Y2345D01*
X5255Y2341D01*
X5254Y2340D01*
X5197Y2340D01*
X5194Y2338D01*
X5193Y2338D01*
X5193Y2326D01*
X5192Y2320D01*
X5191Y2304D01*
X5191Y2298D01*
X5190Y2292D01*
X5189Y2287D01*
X5187Y2281D01*
X5187Y2279D01*
X5186Y2273D01*
X5185Y2269D01*
X5183Y2266D01*
X5182Y2264D01*
X5181Y2258D01*
X5179Y2254D01*
X5178Y2250D01*
X5177Y2247D01*
X5176Y2245D01*
X5176Y2242D01*
X5173Y2237D01*
X5168Y2227D01*
X5166Y2224D01*
X5165Y2220D01*
X5164Y2218D01*
X5162Y2214D01*
X5159Y2209D01*
X5158Y2208D01*
X5157Y2207D01*
X5156Y2207D01*
X5154Y2203D01*
X5150Y2197D01*
X5149Y2196D01*
X5148Y2195D01*
X5148Y2194D01*
X5146Y2192D01*
X5143Y2189D01*
X5143Y2188D01*
X5135Y2181D01*
X5134Y2180D01*
X5129Y2175D01*
X5127Y2174D01*
X5126Y2173D01*
X5123Y2170D01*
X5119Y2168D01*
X5114Y2164D01*
X5113Y2163D01*
X5111Y2161D01*
X5106Y2158D01*
X5101Y2156D01*
X5100Y2155D01*
X5091Y2152D01*
X5090Y2151D01*
X5089Y2150D01*
X5088Y2149D01*
X5085Y2148D01*
X5081Y2147D01*
X5079Y2147D01*
X5074Y2145D01*
X5068Y2144D01*
X5066Y2143D01*
X5060Y2142D01*
X5053Y2142D01*
X5047Y2140D01*
X5042Y2140D01*
X5040Y2139D01*
X5017Y2139D01*
X5012Y2139D01*
X5004Y2140D01*
X5001Y2140D01*
X4998Y2141D01*
X4990Y2142D01*
X4982Y2143D01*
X4979Y2144D01*
X4976Y2144D01*
X4974Y2145D01*
X4968Y2147D01*
X4964Y2148D01*
X4960Y2150D01*
X4959Y2150D01*
X4957Y2152D01*
X4953Y2153D01*
X4951Y2154D01*
X4941Y2158D01*
X4939Y2160D01*
X4936Y2162D01*
X4931Y2165D01*
X4930Y2166D01*
X4928Y2167D01*
X4923Y2170D01*
X4921Y2172D01*
X4918Y2175D01*
X4917Y2175D01*
X4911Y2181D01*
X4910Y2181D01*
X4910Y2182D01*
X4907Y2185D01*
X4906Y2185D01*
X4904Y2187D01*
X4903Y2189D01*
X4901Y2191D01*
X4899Y2194D01*
X4898Y2195D01*
X4895Y2198D01*
X4893Y2202D01*
X4889Y2208D01*
X4888Y2209D01*
X4887Y2212D01*
X4886Y2215D01*
X4884Y2218D01*
X4882Y2222D01*
X4877Y2233D01*
X4876Y2233D01*
X4874Y2234D01*
X4873Y2233D01*
X4872Y2232D01*
X4871Y2228D01*
X4870Y2227D01*
X4868Y2225D01*
X4864Y2218D01*
X4863Y2216D01*
X4860Y2211D01*
X4859Y2210D01*
X4856Y2207D01*
X4856Y2205D01*
X4852Y2202D01*
X4852Y2201D01*
X4851Y2200D01*
X4850Y2199D01*
X4847Y2196D01*
X4847Y2195D01*
X4844Y2192D01*
X4843Y2192D01*
X4836Y2186D01*
X4835Y2185D01*
X4834Y2184D01*
X4833Y2183D01*
X4832Y2182D01*
X4826Y2179D01*
X4824Y2177D01*
X4813Y2171D01*
X4810Y2170D01*
X4806Y2168D01*
X4804Y2168D01*
X4801Y2167D01*
X4796Y2165D01*
X4793Y2164D01*
X4788Y2163D01*
X4784Y2162D01*
X4782Y2162D01*
X4776Y2160D01*
X4774Y2160D01*
X4739Y2159D01*
X4735Y2160D01*
X4729Y2160D01*
X4725Y2161D01*
X4719Y2163D01*
X4717Y2163D01*
X4713Y2164D01*
X4706Y2165D01*
X4703Y2167D01*
X4698Y2168D01*
X4692Y2170D01*
X4689Y2171D01*
X4685Y2173D01*
X4684Y2174D01*
X4680Y2176D01*
X4679Y2176D01*
X4677Y2178D01*
X4671Y2181D01*
X4670Y2182D01*
X4669Y2183D01*
X4665Y2185D01*
X4659Y2191D01*
X4658Y2191D01*
X4654Y2196D01*
X4653Y2196D01*
X4652Y2197D01*
X4648Y2202D01*
X4647Y2203D01*
X4646Y2205D01*
X4642Y2210D01*
X4641Y2211D01*
X4639Y2213D01*
X4637Y2216D01*
X4636Y2220D01*
X4635Y2221D01*
X4634Y2222D01*
X4632Y2226D01*
X4631Y2230D01*
X4629Y2232D01*
X4627Y2235D01*
X4626Y2240D01*
X4624Y2243D01*
X4623Y2248D01*
X4622Y2250D01*
X4621Y2253D01*
X4621Y2258D01*
X4618Y2263D01*
X4617Y2266D01*
X4616Y2268D01*
X4616Y2272D01*
X4615Y2276D01*
X4615Y2280D01*
X4614Y2285D01*
X4613Y2287D01*
X4612Y2292D01*
X4612Y2294D01*
X4611Y2307D01*
X4611Y2308D01*
X4610Y2335D01*
X4609Y2338D01*
X4608Y2339D01*
X4549Y2340D01*
X4544Y2340D01*
X4542Y2342D01*
X4542Y2488D01*
X4543Y2492D01*
X4544Y2493D01*
X4605Y2493D01*
X4608Y2495D01*
X4610Y2498D01*
X4610Y2503D01*
X4610Y2618D01*
X4611Y2620D01*
X4612Y2621D01*
X5189Y2622D01*
X5191Y2621D01*
D02*
G37*
G36*
X4383Y2276D02*
X4387Y2276D01*
X4389Y2275D01*
X4394Y2274D01*
X4399Y2272D01*
X4408Y2270D01*
X4409Y2269D01*
X4412Y2267D01*
X4415Y2266D01*
X4418Y2265D01*
X4420Y2262D01*
X4425Y2260D01*
X4429Y2256D01*
X4432Y2254D01*
X4435Y2250D01*
X4436Y2249D01*
X4438Y2246D01*
X4441Y2242D01*
X4443Y2240D01*
X4444Y2238D01*
X4446Y2234D01*
X4448Y2229D01*
X4450Y2226D01*
X4450Y2224D01*
X4451Y2220D01*
X4452Y2216D01*
X4454Y2211D01*
X4455Y2209D01*
X4455Y2206D01*
X4456Y2199D01*
X4457Y2192D01*
X4457Y2183D01*
X4457Y2177D01*
X4458Y2174D01*
X4459Y2172D01*
X4458Y2082D01*
X4459Y2073D01*
X4457Y2066D01*
X4456Y2049D01*
X4456Y2042D01*
X4455Y2038D01*
X4454Y2033D01*
X4452Y2029D01*
X4450Y2020D01*
X4448Y2017D01*
X4447Y2015D01*
X4446Y2015D01*
X4446Y2012D01*
X4444Y2008D01*
X4443Y2007D01*
X4440Y2002D01*
X4439Y2000D01*
X4436Y1998D01*
X4436Y1997D01*
X4429Y1990D01*
X4426Y1988D01*
X4423Y1985D01*
X4423Y1984D01*
X4419Y1982D01*
X4414Y1979D01*
X4412Y1978D01*
X4411Y1977D01*
X4410D01*
X4408Y1977D01*
X4405Y1975D01*
X4400Y1973D01*
X4394Y1972D01*
X4385Y1970D01*
X4382Y1969D01*
X4380Y1968D01*
X4375Y1968D01*
X4369Y1968D01*
X4368Y1967D01*
X3940Y1967D01*
X3927Y1967D01*
X3925Y1968D01*
X3920Y1968D01*
X3915Y1968D01*
X3913Y1969D01*
X3908Y1970D01*
X3901Y1972D01*
X3894Y1972D01*
X3891Y1974D01*
X3886Y1977D01*
X3884Y1977D01*
X3880Y1978D01*
X3877Y1981D01*
X3872Y1984D01*
X3868Y1987D01*
X3867Y1988D01*
X3862Y1993D01*
X3860Y1994D01*
X3860Y1994D01*
X3859Y1995D01*
X3858Y1997D01*
X3857Y1998D01*
X3855Y2000D01*
X3853Y2004D01*
X3852Y2005D01*
X3851Y2006D01*
X3849Y2008D01*
X3848Y2012D01*
X3846Y2017D01*
X3844Y2019D01*
X3843Y2022D01*
X3842Y2027D01*
X3840Y2033D01*
X3839Y2036D01*
X3838Y2038D01*
X3838Y2042D01*
X3837Y2047D01*
X3837Y2056D01*
X3837Y2063D01*
X3836Y2067D01*
X3836Y2069D01*
X3835Y2072D01*
X3835Y2074D01*
X3835Y2165D01*
X3835Y2172D01*
X3836Y2175D01*
X3837Y2182D01*
X3836Y2183D01*
X3837Y2187D01*
X3836Y2189D01*
X3837Y2193D01*
X3837Y2196D01*
X3838Y2204D01*
X3838Y2208D01*
X3840Y2213D01*
X3842Y2217D01*
X3843Y2224D01*
X3845Y2229D01*
X3846Y2230D01*
X3847Y2231D01*
X3848Y2234D01*
X3849Y2238D01*
X3852Y2241D01*
X3854Y2245D01*
X3855Y2246D01*
X3856Y2247D01*
X3857Y2247D01*
X3859Y2251D01*
X3860Y2252D01*
X3863Y2255D01*
X3864Y2255D01*
X3867Y2258D01*
X3871Y2261D01*
X3873Y2263D01*
X3878Y2266D01*
X3883Y2268D01*
X3887Y2270D01*
X3894Y2272D01*
X3897Y2273D01*
X3903Y2275D01*
X3907Y2276D01*
X3908Y2276D01*
X4353Y2277D01*
X4383Y2276D01*
D02*
G37*
G36*
X5587Y10440D02*
X5535D01*
Y10539D01*
X5530Y10533D01*
X5525Y10528D01*
X5524Y10527D01*
X5523Y10525D01*
X5522Y10524D01*
X5522Y10524D01*
X5519Y10521D01*
X5516Y10517D01*
X5514Y10513D01*
X5511Y10509D01*
X5508Y10504D01*
X5505Y10501D01*
X5504Y10499D01*
X5503Y10498D01*
X5499Y10492D01*
X5495Y10487D01*
X5491Y10482D01*
X5487Y10477D01*
X5483Y10474D01*
X5480Y10470D01*
X5474Y10464D01*
X5469Y10459D01*
X5465Y10456D01*
X5462Y10454D01*
X5462Y10454D01*
X5455Y10450D01*
X5447Y10447D01*
X5440Y10444D01*
X5435Y10443D01*
X5429Y10442D01*
X5425Y10441D01*
X5424D01*
X5422D01*
X5422D01*
X5422D01*
X5415Y10442D01*
X5408Y10443D01*
X5402Y10445D01*
X5397Y10447D01*
X5392Y10449D01*
X5389Y10450D01*
X5387Y10452D01*
X5386Y10452D01*
X5381Y10456D01*
X5376Y10461D01*
X5372Y10466D01*
X5369Y10471D01*
X5366Y10475D01*
X5364Y10479D01*
X5363Y10481D01*
X5363Y10481D01*
Y10482D01*
X5361Y10489D01*
X5358Y10497D01*
X5357Y10506D01*
X5356Y10514D01*
X5356Y10522D01*
Y10525D01*
X5355Y10528D01*
Y10534D01*
X5356Y10545D01*
X5356Y10555D01*
X5358Y10564D01*
X5359Y10571D01*
X5361Y10576D01*
X5362Y10581D01*
X5363Y10583D01*
X5363Y10584D01*
Y10584D01*
X5367Y10591D01*
X5370Y10596D01*
X5374Y10601D01*
X5378Y10605D01*
X5381Y10608D01*
X5384Y10611D01*
X5385Y10612D01*
X5386Y10612D01*
X5393Y10616D01*
X5399Y10618D01*
X5406Y10621D01*
X5412Y10623D01*
X5419Y10624D01*
X5423Y10625D01*
X5425Y10625D01*
X5427Y10626D01*
X5427D01*
X5428D01*
X5433Y10562D01*
X5426Y10561D01*
X5421Y10559D01*
X5416Y10558D01*
X5412Y10556D01*
X5410Y10554D01*
X5408Y10553D01*
X5407Y10552D01*
X5406Y10552D01*
X5404Y10549D01*
X5402Y10545D01*
X5400Y10542D01*
X5399Y10539D01*
X5399Y10536D01*
X5398Y10534D01*
Y10532D01*
X5399Y10528D01*
X5400Y10524D01*
X5401Y10521D01*
X5402Y10518D01*
X5403Y10515D01*
X5405Y10514D01*
X5405Y10513D01*
X5406Y10512D01*
X5409Y10510D01*
X5412Y10508D01*
X5415Y10507D01*
X5418Y10505D01*
X5420Y10505D01*
X5422Y10504D01*
X5423D01*
X5424D01*
X5427Y10505D01*
X5431Y10506D01*
X5435Y10507D01*
X5437Y10508D01*
X5440Y10510D01*
X5442Y10511D01*
X5444Y10512D01*
X5444Y10512D01*
X5446Y10514D01*
X5449Y10516D01*
X5454Y10521D01*
X5459Y10527D01*
X5464Y10533D01*
X5469Y10539D01*
X5472Y10544D01*
X5474Y10546D01*
X5475Y10547D01*
X5475Y10548D01*
X5476Y10548D01*
X5482Y10556D01*
X5488Y10564D01*
X5494Y10571D01*
X5499Y10577D01*
X5504Y10583D01*
X5509Y10588D01*
X5514Y10593D01*
X5518Y10596D01*
X5521Y10600D01*
X5525Y10603D01*
X5528Y10605D01*
X5530Y10607D01*
X5532Y10609D01*
X5533Y10610D01*
X5534Y10610D01*
X5534Y10611D01*
X5544Y10616D01*
X5553Y10621D01*
X5562Y10624D01*
X5570Y10626D01*
X5577Y10628D01*
X5580Y10629D01*
X5582Y10629D01*
X5584Y10630D01*
X5586Y10630D01*
X5586D01*
X5587D01*
Y10440D01*
D02*
G37*
G36*
X5482Y10413D02*
X5491Y10412D01*
X5499Y10411D01*
X5506Y10410D01*
X5512Y10410D01*
X5517Y10409D01*
X5519Y10409D01*
X5520Y10408D01*
X5520D01*
X5521D01*
X5528Y10407D01*
X5535Y10405D01*
X5541Y10403D01*
X5546Y10400D01*
X5550Y10399D01*
X5552Y10397D01*
X5554Y10396D01*
X5555Y10396D01*
X5561Y10391D01*
X5566Y10386D01*
X5571Y10382D01*
X5575Y10377D01*
X5578Y10373D01*
X5580Y10370D01*
X5581Y10368D01*
X5581Y10367D01*
X5584Y10360D01*
X5587Y10352D01*
X5588Y10344D01*
X5589Y10336D01*
X5590Y10330D01*
Y10327D01*
X5591Y10325D01*
Y10320D01*
X5590Y10311D01*
X5589Y10302D01*
X5588Y10294D01*
X5586Y10287D01*
X5584Y10280D01*
X5581Y10274D01*
X5579Y10269D01*
X5576Y10264D01*
X5573Y10260D01*
X5571Y10257D01*
X5569Y10254D01*
X5566Y10252D01*
X5564Y10249D01*
X5563Y10248D01*
X5562Y10248D01*
X5562Y10247D01*
X5556Y10244D01*
X5550Y10240D01*
X5543Y10237D01*
X5536Y10235D01*
X5521Y10231D01*
X5506Y10229D01*
X5499Y10228D01*
X5492Y10227D01*
X5487Y10227D01*
X5481Y10227D01*
X5477Y10226D01*
X5474D01*
X5472D01*
X5471D01*
X5461Y10227D01*
X5451Y10227D01*
X5442Y10228D01*
X5435Y10230D01*
X5428Y10231D01*
X5425Y10231D01*
X5423Y10232D01*
X5421Y10232D01*
X5420Y10232D01*
X5419Y10233D01*
X5418D01*
X5413Y10234D01*
X5409Y10236D01*
X5405Y10237D01*
X5402Y10238D01*
X5399Y10239D01*
X5397Y10241D01*
X5395Y10241D01*
X5395Y10242D01*
X5388Y10246D01*
X5384Y10249D01*
X5382Y10251D01*
X5379Y10253D01*
X5378Y10255D01*
X5376Y10256D01*
X5376Y10257D01*
X5373Y10260D01*
X5370Y10264D01*
X5367Y10268D01*
X5365Y10272D01*
X5363Y10275D01*
X5362Y10278D01*
X5361Y10280D01*
X5361Y10281D01*
X5359Y10287D01*
X5358Y10293D01*
X5356Y10299D01*
X5356Y10305D01*
X5356Y10310D01*
X5355Y10314D01*
Y10318D01*
X5356Y10327D01*
X5356Y10335D01*
X5358Y10343D01*
X5359Y10350D01*
X5361Y10356D01*
X5363Y10362D01*
X5366Y10367D01*
X5368Y10372D01*
X5370Y10376D01*
X5373Y10380D01*
X5375Y10383D01*
X5377Y10385D01*
X5379Y10387D01*
X5380Y10388D01*
X5381Y10389D01*
X5381Y10390D01*
X5387Y10394D01*
X5393Y10397D01*
X5399Y10400D01*
X5406Y10403D01*
X5421Y10407D01*
X5436Y10410D01*
X5443Y10411D01*
X5450Y10412D01*
X5456Y10412D01*
X5462Y10413D01*
X5466Y10413D01*
X5469D01*
X5471D01*
X5472D01*
X5482Y10413D01*
D02*
G37*
G36*
X5587Y10014D02*
X5535D01*
Y10114D01*
X5530Y10108D01*
X5525Y10103D01*
X5524Y10101D01*
X5523Y10100D01*
X5522Y10099D01*
X5522Y10099D01*
X5519Y10096D01*
X5516Y10092D01*
X5514Y10088D01*
X5511Y10084D01*
X5508Y10079D01*
X5505Y10076D01*
X5504Y10074D01*
X5503Y10073D01*
X5499Y10067D01*
X5495Y10062D01*
X5491Y10057D01*
X5487Y10052D01*
X5483Y10049D01*
X5480Y10045D01*
X5474Y10039D01*
X5469Y10034D01*
X5465Y10031D01*
X5462Y10029D01*
X5462Y10029D01*
X5455Y10024D01*
X5447Y10022D01*
X5440Y10019D01*
X5435Y10018D01*
X5429Y10017D01*
X5425Y10016D01*
X5424D01*
X5422D01*
X5422D01*
X5422D01*
X5415Y10017D01*
X5408Y10018D01*
X5402Y10019D01*
X5397Y10022D01*
X5392Y10024D01*
X5389Y10025D01*
X5387Y10027D01*
X5386Y10027D01*
X5381Y10031D01*
X5376Y10036D01*
X5372Y10041D01*
X5369Y10046D01*
X5366Y10050D01*
X5364Y10054D01*
X5363Y10056D01*
X5363Y10056D01*
Y10056D01*
X5361Y10064D01*
X5358Y10072D01*
X5357Y10081D01*
X5356Y10089D01*
X5356Y10097D01*
Y10100D01*
X5355Y10103D01*
Y10108D01*
X5356Y10120D01*
X5356Y10130D01*
X5358Y10138D01*
X5359Y10145D01*
X5361Y10151D01*
X5362Y10155D01*
X5363Y10158D01*
X5363Y10158D01*
Y10159D01*
X5367Y10165D01*
X5370Y10171D01*
X5374Y10176D01*
X5378Y10180D01*
X5381Y10183D01*
X5384Y10185D01*
X5385Y10187D01*
X5386Y10187D01*
X5393Y10190D01*
X5399Y10193D01*
X5406Y10195D01*
X5412Y10197D01*
X5419Y10199D01*
X5423Y10200D01*
X5425Y10200D01*
X5427Y10200D01*
X5427D01*
X5428D01*
X5433Y10137D01*
X5426Y10135D01*
X5421Y10134D01*
X5416Y10133D01*
X5412Y10131D01*
X5410Y10129D01*
X5408Y10128D01*
X5407Y10127D01*
X5406Y10127D01*
X5404Y10123D01*
X5402Y10120D01*
X5400Y10117D01*
X5399Y10114D01*
X5399Y10111D01*
X5398Y10109D01*
Y10107D01*
X5399Y10103D01*
X5400Y10099D01*
X5401Y10096D01*
X5402Y10093D01*
X5403Y10090D01*
X5405Y10088D01*
X5405Y10088D01*
X5406Y10087D01*
X5409Y10085D01*
X5412Y10083D01*
X5415Y10081D01*
X5418Y10080D01*
X5420Y10080D01*
X5422Y10079D01*
X5423D01*
X5424D01*
X5427Y10080D01*
X5431Y10081D01*
X5435Y10082D01*
X5437Y10083D01*
X5440Y10085D01*
X5442Y10086D01*
X5444Y10087D01*
X5444Y10087D01*
X5446Y10089D01*
X5449Y10091D01*
X5454Y10096D01*
X5459Y10102D01*
X5464Y10108D01*
X5469Y10114D01*
X5472Y10118D01*
X5474Y10121D01*
X5475Y10122D01*
X5475Y10123D01*
X5476Y10123D01*
X5482Y10131D01*
X5488Y10139D01*
X5494Y10146D01*
X5499Y10152D01*
X5504Y10158D01*
X5509Y10163D01*
X5514Y10168D01*
X5518Y10171D01*
X5521Y10175D01*
X5525Y10178D01*
X5528Y10180D01*
X5530Y10182D01*
X5532Y10184D01*
X5533Y10185D01*
X5534Y10185D01*
X5534Y10185D01*
X5544Y10191D01*
X5553Y10195D01*
X5562Y10199D01*
X5570Y10201D01*
X5577Y10203D01*
X5580Y10204D01*
X5582Y10204D01*
X5584Y10205D01*
X5586Y10205D01*
X5586D01*
X5587D01*
Y10014D01*
D02*
G37*
G36*
X5534Y9987D02*
X5541Y9984D01*
X5547Y9982D01*
X5553Y9979D01*
X5557Y9976D01*
X5560Y9974D01*
X5561Y9972D01*
X5562Y9972D01*
X5567Y9967D01*
X5571Y9962D01*
X5575Y9957D01*
X5578Y9953D01*
X5581Y9949D01*
X5582Y9945D01*
X5583Y9943D01*
X5583Y9942D01*
X5586Y9935D01*
X5588Y9927D01*
X5589Y9919D01*
X5590Y9911D01*
X5590Y9904D01*
Y9901D01*
X5591Y9898D01*
Y9893D01*
X5590Y9882D01*
X5589Y9872D01*
X5588Y9863D01*
X5586Y9856D01*
X5584Y9850D01*
X5583Y9847D01*
X5583Y9846D01*
X5582Y9844D01*
X5581Y9843D01*
X5581Y9842D01*
Y9842D01*
X5577Y9835D01*
X5572Y9829D01*
X5568Y9824D01*
X5563Y9819D01*
X5559Y9816D01*
X5556Y9814D01*
X5554Y9812D01*
X5553Y9812D01*
X5546Y9808D01*
X5539Y9806D01*
X5533Y9804D01*
X5526Y9802D01*
X5521Y9801D01*
X5518Y9801D01*
X5515D01*
X5515D01*
X5514D01*
X5509Y9801D01*
X5504Y9802D01*
X5499Y9803D01*
X5495Y9804D01*
X5492Y9806D01*
X5489Y9806D01*
X5488Y9807D01*
X5487Y9808D01*
X5483Y9810D01*
X5479Y9813D01*
X5476Y9816D01*
X5474Y9819D01*
X5472Y9821D01*
X5470Y9823D01*
X5469Y9825D01*
X5469Y9825D01*
X5467Y9828D01*
X5466Y9831D01*
X5463Y9838D01*
X5462Y9841D01*
X5462Y9843D01*
X5461Y9845D01*
Y9845D01*
X5458Y9839D01*
X5454Y9834D01*
X5450Y9830D01*
X5447Y9827D01*
X5445Y9824D01*
X5442Y9823D01*
X5441Y9821D01*
X5440Y9821D01*
X5436Y9818D01*
X5431Y9816D01*
X5427Y9815D01*
X5422Y9814D01*
X5419Y9813D01*
X5416Y9813D01*
X5415D01*
X5414D01*
X5409Y9813D01*
X5405Y9814D01*
X5396Y9816D01*
X5389Y9819D01*
X5383Y9823D01*
X5378Y9826D01*
X5375Y9829D01*
X5373Y9832D01*
X5372Y9832D01*
Y9833D01*
X5369Y9837D01*
X5366Y9841D01*
X5362Y9851D01*
X5359Y9862D01*
X5357Y9873D01*
X5356Y9878D01*
X5356Y9882D01*
X5356Y9886D01*
Y9890D01*
X5355Y9893D01*
Y9898D01*
X5356Y9911D01*
X5356Y9918D01*
X5358Y9923D01*
X5359Y9929D01*
X5360Y9934D01*
X5361Y9938D01*
X5363Y9942D01*
X5364Y9946D01*
X5365Y9949D01*
X5367Y9952D01*
X5368Y9954D01*
X5369Y9956D01*
X5370Y9957D01*
X5370Y9957D01*
Y9958D01*
X5377Y9965D01*
X5384Y9971D01*
X5391Y9976D01*
X5398Y9980D01*
X5405Y9983D01*
X5408Y9984D01*
X5410Y9985D01*
X5412Y9985D01*
X5413Y9986D01*
X5414Y9986D01*
X5415D01*
X5425Y9926D01*
X5419Y9925D01*
X5414Y9924D01*
X5410Y9922D01*
X5407Y9921D01*
X5405Y9919D01*
X5403Y9918D01*
X5402Y9918D01*
X5402Y9917D01*
X5399Y9914D01*
X5398Y9911D01*
X5396Y9908D01*
X5395Y9905D01*
X5395Y9903D01*
X5395Y9900D01*
Y9899D01*
X5395Y9895D01*
X5395Y9891D01*
X5397Y9888D01*
X5398Y9886D01*
X5399Y9884D01*
X5400Y9883D01*
X5400Y9882D01*
X5401Y9881D01*
X5403Y9879D01*
X5406Y9878D01*
X5409Y9877D01*
X5412Y9876D01*
X5414Y9875D01*
X5416Y9875D01*
X5417D01*
X5418D01*
X5421Y9875D01*
X5425Y9876D01*
X5428Y9878D01*
X5431Y9879D01*
X5433Y9881D01*
X5435Y9883D01*
X5436Y9883D01*
X5436Y9884D01*
X5439Y9887D01*
X5440Y9890D01*
X5442Y9894D01*
X5443Y9897D01*
X5443Y9900D01*
X5444Y9903D01*
Y9907D01*
X5443Y9910D01*
Y9913D01*
X5488Y9916D01*
X5487Y9911D01*
X5486Y9907D01*
X5485Y9904D01*
X5485Y9901D01*
X5484Y9898D01*
Y9895D01*
X5485Y9890D01*
X5486Y9886D01*
X5487Y9882D01*
X5489Y9879D01*
X5490Y9876D01*
X5492Y9875D01*
X5493Y9873D01*
X5493Y9873D01*
X5497Y9870D01*
X5501Y9868D01*
X5505Y9867D01*
X5509Y9866D01*
X5512Y9865D01*
X5515Y9865D01*
X5517D01*
X5518D01*
X5523Y9865D01*
X5528Y9866D01*
X5533Y9868D01*
X5536Y9869D01*
X5539Y9870D01*
X5541Y9872D01*
X5542Y9873D01*
X5543Y9873D01*
X5546Y9877D01*
X5548Y9880D01*
X5550Y9884D01*
X5551Y9887D01*
X5551Y9890D01*
X5552Y9893D01*
Y9895D01*
X5551Y9899D01*
X5551Y9903D01*
X5550Y9907D01*
X5548Y9910D01*
X5547Y9912D01*
X5546Y9914D01*
X5545Y9915D01*
X5545Y9915D01*
X5541Y9918D01*
X5537Y9920D01*
X5529Y9923D01*
X5524Y9925D01*
X5521Y9925D01*
X5519Y9926D01*
X5518D01*
X5527Y9989D01*
X5534Y9987D01*
D02*
G37*
G36*
X5528Y9689D02*
X5479D01*
Y9781D01*
X5528D01*
Y9689D01*
D02*
G37*
G36*
X5482Y9669D02*
X5491Y9668D01*
X5499Y9668D01*
X5506Y9667D01*
X5512Y9666D01*
X5517Y9665D01*
X5519Y9665D01*
X5520Y9665D01*
X5520D01*
X5521D01*
X5528Y9663D01*
X5535Y9661D01*
X5541Y9659D01*
X5546Y9657D01*
X5550Y9655D01*
X5552Y9653D01*
X5554Y9653D01*
X5555Y9652D01*
X5561Y9648D01*
X5566Y9643D01*
X5571Y9638D01*
X5575Y9633D01*
X5578Y9629D01*
X5580Y9626D01*
X5581Y9624D01*
X5581Y9623D01*
X5584Y9616D01*
X5587Y9608D01*
X5588Y9600D01*
X5589Y9593D01*
X5590Y9586D01*
Y9583D01*
X5591Y9581D01*
Y9576D01*
X5590Y9567D01*
X5589Y9558D01*
X5588Y9550D01*
X5586Y9543D01*
X5584Y9536D01*
X5581Y9531D01*
X5579Y9525D01*
X5576Y9521D01*
X5573Y9516D01*
X5571Y9513D01*
X5569Y9510D01*
X5566Y9508D01*
X5564Y9506D01*
X5563Y9504D01*
X5562Y9504D01*
X5562Y9504D01*
X5556Y9500D01*
X5550Y9497D01*
X5543Y9494D01*
X5536Y9491D01*
X5521Y9487D01*
X5506Y9485D01*
X5499Y9484D01*
X5492Y9484D01*
X5487Y9483D01*
X5481Y9483D01*
X5477Y9482D01*
X5474D01*
X5472D01*
X5471D01*
X5461Y9483D01*
X5451Y9483D01*
X5442Y9484D01*
X5435Y9486D01*
X5428Y9487D01*
X5425Y9487D01*
X5423Y9488D01*
X5421Y9488D01*
X5420Y9489D01*
X5419Y9489D01*
X5418D01*
X5413Y9490D01*
X5409Y9492D01*
X5405Y9493D01*
X5402Y9494D01*
X5399Y9496D01*
X5397Y9497D01*
X5395Y9497D01*
X5395Y9498D01*
X5388Y9502D01*
X5384Y9505D01*
X5382Y9507D01*
X5379Y9509D01*
X5378Y9511D01*
X5376Y9512D01*
X5376Y9513D01*
X5373Y9516D01*
X5370Y9520D01*
X5367Y9524D01*
X5365Y9528D01*
X5363Y9531D01*
X5362Y9534D01*
X5361Y9536D01*
X5361Y9537D01*
X5359Y9543D01*
X5358Y9549D01*
X5356Y9555D01*
X5356Y9561D01*
X5356Y9566D01*
X5355Y9571D01*
Y9574D01*
X5356Y9583D01*
X5356Y9591D01*
X5358Y9599D01*
X5359Y9606D01*
X5361Y9612D01*
X5363Y9618D01*
X5366Y9623D01*
X5368Y9628D01*
X5370Y9632D01*
X5373Y9636D01*
X5375Y9639D01*
X5377Y9641D01*
X5379Y9643D01*
X5380Y9645D01*
X5381Y9645D01*
X5381Y9646D01*
X5387Y9650D01*
X5393Y9653D01*
X5399Y9657D01*
X5406Y9659D01*
X5421Y9663D01*
X5436Y9666D01*
X5443Y9667D01*
X5450Y9668D01*
X5456Y9668D01*
X5462Y9669D01*
X5466Y9669D01*
X5469D01*
X5471D01*
X5472D01*
X5482Y9669D01*
D02*
G37*
G36*
X5534Y9457D02*
X5539Y9455D01*
X5544Y9454D01*
X5547Y9452D01*
X5551Y9450D01*
X5553Y9449D01*
X5554Y9448D01*
X5555Y9448D01*
X5562Y9442D01*
X5566Y9439D01*
X5568Y9436D01*
X5571Y9433D01*
X5572Y9431D01*
X5573Y9430D01*
X5574Y9430D01*
X5579Y9420D01*
X5581Y9416D01*
X5583Y9411D01*
X5585Y9408D01*
X5586Y9405D01*
X5586Y9403D01*
X5586Y9402D01*
X5588Y9396D01*
X5589Y9389D01*
X5590Y9383D01*
X5590Y9377D01*
Y9371D01*
X5591Y9367D01*
Y9363D01*
X5590Y9352D01*
X5589Y9342D01*
X5587Y9333D01*
X5585Y9326D01*
X5583Y9320D01*
X5583Y9317D01*
X5582Y9316D01*
X5581Y9314D01*
X5581Y9313D01*
X5580Y9312D01*
Y9312D01*
X5576Y9305D01*
X5571Y9298D01*
X5566Y9293D01*
X5561Y9289D01*
X5556Y9285D01*
X5552Y9283D01*
X5550Y9281D01*
X5549Y9281D01*
X5549D01*
X5541Y9277D01*
X5534Y9274D01*
X5526Y9272D01*
X5520Y9271D01*
X5514Y9270D01*
X5510Y9269D01*
X5509D01*
X5507D01*
X5507D01*
X5507D01*
X5501Y9270D01*
X5495Y9270D01*
X5485Y9273D01*
X5476Y9276D01*
X5469Y9280D01*
X5463Y9284D01*
X5460Y9286D01*
X5458Y9288D01*
X5457Y9289D01*
X5455Y9290D01*
X5455Y9291D01*
X5455Y9291D01*
X5451Y9295D01*
X5447Y9299D01*
X5445Y9304D01*
X5442Y9308D01*
X5439Y9318D01*
X5436Y9327D01*
X5435Y9334D01*
X5434Y9338D01*
Y9341D01*
X5434Y9343D01*
Y9346D01*
X5434Y9354D01*
X5435Y9357D01*
X5435Y9360D01*
X5435Y9363D01*
X5436Y9365D01*
X5436Y9366D01*
Y9367D01*
X5438Y9374D01*
X5440Y9378D01*
X5441Y9381D01*
X5442Y9384D01*
X5443Y9386D01*
X5443Y9388D01*
X5444Y9388D01*
X5410Y9383D01*
Y9280D01*
X5359D01*
Y9431D01*
X5482Y9451D01*
X5489Y9397D01*
X5487Y9394D01*
X5484Y9392D01*
X5482Y9389D01*
X5480Y9387D01*
X5479Y9385D01*
X5478Y9384D01*
X5477Y9383D01*
Y9383D01*
X5476Y9380D01*
X5475Y9376D01*
X5473Y9371D01*
Y9368D01*
X5473Y9367D01*
Y9365D01*
X5473Y9360D01*
X5474Y9355D01*
X5476Y9351D01*
X5477Y9348D01*
X5479Y9345D01*
X5481Y9343D01*
X5482Y9342D01*
X5482Y9342D01*
X5487Y9339D01*
X5491Y9337D01*
X5496Y9335D01*
X5501Y9334D01*
X5505Y9333D01*
X5509Y9333D01*
X5512D01*
X5512D01*
X5512D01*
X5519Y9333D01*
X5525Y9334D01*
X5530Y9336D01*
X5534Y9337D01*
X5538Y9339D01*
X5540Y9341D01*
X5541Y9341D01*
X5542Y9342D01*
X5545Y9345D01*
X5548Y9349D01*
X5549Y9353D01*
X5551Y9356D01*
X5551Y9359D01*
X5552Y9362D01*
Y9364D01*
X5551Y9368D01*
X5551Y9372D01*
X5549Y9376D01*
X5548Y9379D01*
X5546Y9381D01*
X5545Y9383D01*
X5544Y9384D01*
X5544Y9385D01*
X5541Y9388D01*
X5537Y9390D01*
X5533Y9392D01*
X5529Y9393D01*
X5526Y9394D01*
X5523Y9395D01*
X5521Y9395D01*
X5521D01*
X5528Y9459D01*
X5534Y9457D01*
D02*
G37*
G36*
X5528Y9158D02*
X5479D01*
Y9250D01*
X5528D01*
Y9158D01*
D02*
G37*
G36*
X5466Y9117D02*
X5464Y9110D01*
X5461Y9104D01*
X5459Y9098D01*
X5457Y9094D01*
X5456Y9091D01*
X5455Y9089D01*
X5455Y9088D01*
X5452Y9083D01*
X5449Y9078D01*
X5445Y9072D01*
X5442Y9068D01*
X5440Y9064D01*
X5437Y9061D01*
X5436Y9059D01*
X5435Y9058D01*
X5587D01*
Y8994D01*
X5355D01*
Y9046D01*
X5363Y9051D01*
X5370Y9055D01*
X5376Y9060D01*
X5381Y9064D01*
X5386Y9068D01*
X5389Y9072D01*
X5391Y9074D01*
X5392Y9074D01*
Y9075D01*
X5397Y9082D01*
X5402Y9090D01*
X5406Y9098D01*
X5410Y9106D01*
X5412Y9113D01*
X5414Y9117D01*
X5415Y9119D01*
X5415Y9122D01*
X5416Y9123D01*
X5417Y9124D01*
Y9125D01*
X5468D01*
X5466Y9117D01*
D02*
G37*
G36*
X5482Y8925D02*
X5491Y8925D01*
X5499Y8924D01*
X5506Y8923D01*
X5512Y8922D01*
X5517Y8922D01*
X5519Y8921D01*
X5520Y8921D01*
X5520D01*
X5521D01*
X5528Y8919D01*
X5535Y8917D01*
X5541Y8915D01*
X5546Y8913D01*
X5550Y8911D01*
X5552Y8910D01*
X5554Y8909D01*
X5555Y8908D01*
X5561Y8904D01*
X5566Y8899D01*
X5571Y8894D01*
X5575Y8889D01*
X5578Y8885D01*
X5580Y8882D01*
X5581Y8880D01*
X5581Y8879D01*
X5584Y8872D01*
X5587Y8864D01*
X5588Y8856D01*
X5589Y8849D01*
X5590Y8842D01*
Y8840D01*
X5591Y8837D01*
Y8832D01*
X5590Y8823D01*
X5589Y8814D01*
X5588Y8806D01*
X5586Y8799D01*
X5584Y8793D01*
X5581Y8787D01*
X5579Y8781D01*
X5576Y8777D01*
X5573Y8773D01*
X5571Y8769D01*
X5569Y8766D01*
X5566Y8764D01*
X5564Y8762D01*
X5563Y8761D01*
X5562Y8760D01*
X5562Y8760D01*
X5556Y8756D01*
X5550Y8753D01*
X5543Y8750D01*
X5536Y8747D01*
X5521Y8744D01*
X5506Y8741D01*
X5499Y8740D01*
X5492Y8740D01*
X5487Y8739D01*
X5481Y8739D01*
X5477Y8739D01*
X5474D01*
X5472D01*
X5471D01*
X5461Y8739D01*
X5451Y8739D01*
X5442Y8741D01*
X5435Y8742D01*
X5428Y8743D01*
X5425Y8744D01*
X5423Y8744D01*
X5421Y8744D01*
X5420Y8745D01*
X5419Y8745D01*
X5418D01*
X5413Y8746D01*
X5409Y8748D01*
X5405Y8749D01*
X5402Y8751D01*
X5399Y8752D01*
X5397Y8753D01*
X5395Y8754D01*
X5395Y8754D01*
X5388Y8759D01*
X5384Y8761D01*
X5382Y8764D01*
X5379Y8766D01*
X5378Y8767D01*
X5376Y8769D01*
X5376Y8769D01*
X5373Y8773D01*
X5370Y8776D01*
X5367Y8781D01*
X5365Y8784D01*
X5363Y8788D01*
X5362Y8791D01*
X5361Y8792D01*
X5361Y8793D01*
X5359Y8799D01*
X5358Y8805D01*
X5356Y8811D01*
X5356Y8817D01*
X5356Y8823D01*
X5355Y8827D01*
Y8831D01*
X5356Y8839D01*
X5356Y8848D01*
X5358Y8855D01*
X5359Y8862D01*
X5361Y8868D01*
X5363Y8874D01*
X5366Y8880D01*
X5368Y8884D01*
X5370Y8888D01*
X5373Y8892D01*
X5375Y8895D01*
X5377Y8897D01*
X5379Y8900D01*
X5380Y8901D01*
X5381Y8902D01*
X5381Y8902D01*
X5387Y8906D01*
X5393Y8910D01*
X5399Y8913D01*
X5406Y8915D01*
X5421Y8920D01*
X5436Y8922D01*
X5443Y8923D01*
X5450Y8924D01*
X5456Y8925D01*
X5462Y8925D01*
X5466Y8925D01*
X5469D01*
X5471D01*
X5472D01*
X5482Y8925D01*
D02*
G37*
G36*
X5272Y10776D02*
X5223D01*
Y10908D01*
X5090Y10780D01*
X5044D01*
Y10979D01*
X5093D01*
Y10865D01*
X5225Y10992D01*
X5272D01*
Y10776D01*
D02*
G37*
G36*
Y10695D02*
X5234Y10684D01*
Y10604D01*
X5272Y10592D01*
Y10518D01*
X5044Y10604D01*
Y10681D01*
X5272Y10767D01*
Y10695D01*
D02*
G37*
G36*
X5172Y10503D02*
X5179Y10503D01*
X5186Y10502D01*
X5192Y10500D01*
X5198Y10499D01*
X5204Y10497D01*
X5208Y10496D01*
X5213Y10494D01*
X5217Y10493D01*
X5220Y10491D01*
X5222Y10490D01*
X5224Y10489D01*
X5226Y10488D01*
X5227Y10487D01*
X5227D01*
X5237Y10481D01*
X5245Y10474D01*
X5251Y10467D01*
X5256Y10461D01*
X5260Y10455D01*
X5263Y10451D01*
X5264Y10449D01*
X5265Y10448D01*
X5265Y10447D01*
Y10447D01*
X5269Y10437D01*
X5271Y10427D01*
X5273Y10417D01*
X5274Y10407D01*
X5275Y10403D01*
X5275Y10399D01*
Y10395D01*
X5276Y10392D01*
Y10386D01*
X5275Y10375D01*
X5274Y10365D01*
X5273Y10356D01*
X5271Y10349D01*
X5270Y10343D01*
X5268Y10339D01*
X5268Y10337D01*
X5267Y10336D01*
X5267Y10336D01*
Y10335D01*
X5263Y10328D01*
X5259Y10322D01*
X5255Y10316D01*
X5251Y10311D01*
X5246Y10308D01*
X5244Y10305D01*
X5241Y10303D01*
X5241Y10302D01*
X5234Y10297D01*
X5227Y10293D01*
X5219Y10290D01*
X5212Y10287D01*
X5207Y10285D01*
X5202Y10283D01*
X5200Y10283D01*
X5199Y10283D01*
X5198Y10282D01*
X5197D01*
X5178Y10344D01*
X5186Y10346D01*
X5193Y10348D01*
X5199Y10351D01*
X5203Y10353D01*
X5207Y10355D01*
X5209Y10357D01*
X5211Y10359D01*
X5212Y10359D01*
X5215Y10363D01*
X5218Y10368D01*
X5220Y10373D01*
X5222Y10378D01*
X5222Y10383D01*
X5223Y10387D01*
Y10390D01*
X5222Y10397D01*
X5221Y10404D01*
X5219Y10409D01*
X5216Y10414D01*
X5213Y10417D01*
X5211Y10420D01*
X5209Y10422D01*
X5209Y10422D01*
X5206Y10424D01*
X5203Y10426D01*
X5195Y10429D01*
X5186Y10431D01*
X5178Y10432D01*
X5170Y10433D01*
X5166D01*
X5163Y10434D01*
X5161D01*
X5159D01*
X5157D01*
X5157D01*
X5146Y10433D01*
X5137Y10432D01*
X5130Y10431D01*
X5123Y10429D01*
X5119Y10427D01*
X5115Y10426D01*
X5113Y10424D01*
X5113Y10424D01*
X5109Y10421D01*
X5106Y10419D01*
X5101Y10413D01*
X5098Y10407D01*
X5095Y10401D01*
X5094Y10396D01*
X5093Y10391D01*
X5093Y10390D01*
Y10384D01*
X5094Y10380D01*
X5094Y10377D01*
X5095Y10374D01*
X5096Y10372D01*
X5097Y10369D01*
X5097Y10369D01*
X5098Y10368D01*
X5101Y10362D01*
X5105Y10358D01*
X5107Y10356D01*
X5109Y10355D01*
X5110Y10354D01*
X5110Y10354D01*
X5112Y10352D01*
X5114Y10351D01*
X5119Y10349D01*
X5121Y10348D01*
X5123Y10347D01*
X5125Y10347D01*
X5125D01*
X5111Y10284D01*
X5105Y10287D01*
X5098Y10289D01*
X5093Y10292D01*
X5088Y10295D01*
X5083Y10298D01*
X5078Y10301D01*
X5074Y10304D01*
X5071Y10307D01*
X5068Y10310D01*
X5065Y10312D01*
X5063Y10315D01*
X5061Y10317D01*
X5059Y10319D01*
X5058Y10320D01*
X5058Y10321D01*
Y10321D01*
X5055Y10326D01*
X5052Y10331D01*
X5048Y10342D01*
X5044Y10353D01*
X5042Y10365D01*
X5041Y10369D01*
X5041Y10374D01*
X5041Y10378D01*
Y10382D01*
X5040Y10385D01*
Y10389D01*
X5041Y10399D01*
X5041Y10409D01*
X5043Y10417D01*
X5045Y10426D01*
X5047Y10433D01*
X5050Y10440D01*
X5053Y10447D01*
X5055Y10452D01*
X5058Y10458D01*
X5061Y10462D01*
X5063Y10466D01*
X5066Y10469D01*
X5068Y10471D01*
X5069Y10473D01*
X5070Y10474D01*
X5070Y10474D01*
X5076Y10480D01*
X5083Y10484D01*
X5090Y10488D01*
X5097Y10492D01*
X5104Y10495D01*
X5111Y10497D01*
X5118Y10499D01*
X5125Y10501D01*
X5132Y10502D01*
X5138Y10503D01*
X5143Y10503D01*
X5148Y10504D01*
X5152D01*
X5155Y10504D01*
X5157D01*
X5157D01*
X5172Y10503D01*
D02*
G37*
G36*
X5272Y10177D02*
X5217D01*
X5179Y10141D01*
X5272Y10093D01*
Y10006D01*
X5130Y10093D01*
X5044Y10010D01*
Y10104D01*
X5130Y10177D01*
X5044D01*
Y10248D01*
X5272D01*
Y10177D01*
D02*
G37*
G36*
Y9751D02*
X5271Y9747D01*
X5271Y9742D01*
X5270Y9736D01*
X5270Y9731D01*
X5269Y9727D01*
Y9726D01*
X5269Y9724D01*
Y9723D01*
X5268Y9717D01*
X5267Y9712D01*
X5266Y9707D01*
X5264Y9703D01*
X5263Y9701D01*
X5262Y9698D01*
X5261Y9697D01*
Y9697D01*
X5258Y9692D01*
X5254Y9687D01*
X5251Y9683D01*
X5247Y9680D01*
X5244Y9677D01*
X5241Y9676D01*
X5239Y9674D01*
X5239Y9674D01*
X5234Y9671D01*
X5228Y9669D01*
X5223Y9668D01*
X5218Y9666D01*
X5214Y9666D01*
X5210Y9666D01*
X5208D01*
X5207D01*
X5199Y9666D01*
X5192Y9667D01*
X5186Y9669D01*
X5181Y9671D01*
X5177Y9674D01*
X5174Y9676D01*
X5172Y9677D01*
X5171Y9677D01*
X5166Y9682D01*
X5162Y9688D01*
X5158Y9694D01*
X5155Y9700D01*
X5153Y9705D01*
X5152Y9709D01*
X5151Y9711D01*
Y9712D01*
X5151Y9713D01*
Y9713D01*
X5148Y9708D01*
X5146Y9703D01*
X5143Y9698D01*
X5141Y9695D01*
X5139Y9692D01*
X5137Y9691D01*
X5136Y9689D01*
X5135Y9689D01*
X5130Y9685D01*
X5124Y9681D01*
X5118Y9679D01*
X5113Y9678D01*
X5108Y9677D01*
X5104Y9676D01*
X5102D01*
X5101D01*
X5101D01*
X5096D01*
X5092Y9677D01*
X5084Y9679D01*
X5078Y9682D01*
X5072Y9685D01*
X5067Y9688D01*
X5063Y9691D01*
X5061Y9693D01*
X5061Y9693D01*
Y9694D01*
X5055Y9701D01*
X5051Y9709D01*
X5048Y9718D01*
X5046Y9726D01*
X5045Y9733D01*
X5044Y9736D01*
Y9739D01*
X5044Y9741D01*
Y9877D01*
X5272D01*
Y9751D01*
D02*
G37*
G36*
X5172Y9636D02*
X5185Y9635D01*
X5192Y9634D01*
X5197Y9632D01*
X5202Y9631D01*
X5207Y9629D01*
X5211Y9628D01*
X5214Y9627D01*
X5217Y9626D01*
X5220Y9624D01*
X5222Y9623D01*
X5224Y9623D01*
X5224Y9622D01*
X5225D01*
X5234Y9616D01*
X5242Y9609D01*
X5249Y9602D01*
X5254Y9595D01*
X5258Y9589D01*
X5261Y9585D01*
X5262Y9583D01*
X5263Y9582D01*
X5264Y9581D01*
Y9581D01*
X5268Y9571D01*
X5271Y9560D01*
X5273Y9550D01*
X5274Y9540D01*
X5275Y9535D01*
Y9530D01*
X5275Y9527D01*
X5276Y9523D01*
Y9517D01*
X5275Y9503D01*
X5274Y9491D01*
X5271Y9480D01*
X5270Y9476D01*
X5269Y9471D01*
X5267Y9467D01*
X5266Y9463D01*
X5265Y9461D01*
X5264Y9458D01*
X5263Y9456D01*
X5262Y9455D01*
X5261Y9454D01*
Y9453D01*
X5256Y9444D01*
X5249Y9437D01*
X5243Y9430D01*
X5236Y9425D01*
X5231Y9420D01*
X5226Y9417D01*
X5224Y9416D01*
X5223Y9415D01*
X5222Y9415D01*
X5222D01*
X5212Y9410D01*
X5201Y9407D01*
X5190Y9404D01*
X5179Y9403D01*
X5174Y9402D01*
X5170Y9402D01*
X5166Y9401D01*
X5163Y9401D01*
X5160D01*
X5158D01*
X5157D01*
X5156D01*
X5146Y9401D01*
X5137Y9402D01*
X5128Y9404D01*
X5120Y9406D01*
X5112Y9408D01*
X5105Y9411D01*
X5099Y9414D01*
X5093Y9416D01*
X5088Y9419D01*
X5083Y9422D01*
X5080Y9425D01*
X5076Y9427D01*
X5074Y9429D01*
X5072Y9431D01*
X5071Y9432D01*
X5071Y9432D01*
X5066Y9438D01*
X5061Y9445D01*
X5057Y9452D01*
X5053Y9459D01*
X5050Y9466D01*
X5048Y9473D01*
X5046Y9481D01*
X5044Y9488D01*
X5043Y9494D01*
X5042Y9500D01*
X5041Y9505D01*
X5041Y9510D01*
X5040Y9514D01*
Y9520D01*
X5041Y9530D01*
X5041Y9539D01*
X5043Y9548D01*
X5045Y9557D01*
X5047Y9565D01*
X5050Y9572D01*
X5053Y9578D01*
X5056Y9584D01*
X5058Y9589D01*
X5061Y9594D01*
X5064Y9597D01*
X5066Y9601D01*
X5068Y9603D01*
X5070Y9605D01*
X5071Y9606D01*
X5071Y9607D01*
X5078Y9612D01*
X5084Y9617D01*
X5091Y9621D01*
X5098Y9624D01*
X5105Y9627D01*
X5113Y9630D01*
X5120Y9632D01*
X5127Y9634D01*
X5133Y9635D01*
X5139Y9636D01*
X5145Y9636D01*
X5149Y9637D01*
X5153D01*
X5156Y9637D01*
X5157D01*
X5158D01*
X5172Y9636D01*
D02*
G37*
G36*
X5272Y9306D02*
X5098D01*
X5272Y9262D01*
Y9210D01*
X5098Y9165D01*
X5272D01*
Y9107D01*
X5044D01*
Y9200D01*
X5183Y9236D01*
X5044Y9271D01*
Y9364D01*
X5272D01*
Y9306D01*
D02*
G37*
G36*
X5203Y9074D02*
X5209Y9073D01*
X5220Y9070D01*
X5230Y9066D01*
X5238Y9061D01*
X5241Y9059D01*
X5245Y9057D01*
X5247Y9055D01*
X5249Y9053D01*
X5251Y9052D01*
X5252Y9051D01*
X5253Y9050D01*
X5254Y9050D01*
X5257Y9045D01*
X5261Y9040D01*
X5264Y9034D01*
X5266Y9028D01*
X5270Y9015D01*
X5273Y9001D01*
X5274Y8995D01*
X5274Y8989D01*
X5275Y8983D01*
X5275Y8979D01*
X5276Y8975D01*
Y8969D01*
X5275Y8957D01*
X5274Y8947D01*
X5273Y8937D01*
X5271Y8929D01*
X5270Y8926D01*
X5269Y8923D01*
X5269Y8920D01*
X5268Y8918D01*
X5267Y8916D01*
X5267Y8915D01*
X5266Y8915D01*
Y8914D01*
X5262Y8906D01*
X5258Y8900D01*
X5254Y8894D01*
X5249Y8889D01*
X5245Y8885D01*
X5241Y8882D01*
X5239Y8881D01*
X5239Y8880D01*
X5231Y8876D01*
X5224Y8873D01*
X5217Y8871D01*
X5211Y8869D01*
X5206Y8869D01*
X5202Y8868D01*
X5200D01*
X5199D01*
X5198D01*
X5198D01*
X5191Y8868D01*
X5184Y8869D01*
X5179Y8871D01*
X5174Y8872D01*
X5170Y8874D01*
X5167Y8876D01*
X5165Y8876D01*
X5164Y8877D01*
X5159Y8881D01*
X5154Y8885D01*
X5150Y8890D01*
X5146Y8895D01*
X5143Y8899D01*
X5141Y8903D01*
X5140Y8905D01*
X5139Y8906D01*
Y8906D01*
X5137Y8910D01*
X5135Y8915D01*
X5132Y8925D01*
X5128Y8936D01*
X5125Y8947D01*
X5124Y8952D01*
X5123Y8957D01*
X5121Y8961D01*
X5120Y8965D01*
X5120Y8968D01*
X5119Y8970D01*
X5119Y8972D01*
Y8973D01*
X5118Y8979D01*
X5116Y8984D01*
X5115Y8988D01*
X5113Y8991D01*
X5112Y8993D01*
X5111Y8995D01*
X5110Y8995D01*
Y8996D01*
X5109Y8998D01*
X5107Y8999D01*
X5104Y9000D01*
X5101Y9001D01*
X5101D01*
X5100D01*
X5098Y9000D01*
X5095Y9000D01*
X5091Y8998D01*
X5089Y8996D01*
X5088Y8995D01*
X5088Y8995D01*
X5086Y8993D01*
X5085Y8990D01*
X5083Y8983D01*
X5083Y8980D01*
X5083Y8978D01*
Y8976D01*
X5083Y8971D01*
X5084Y8966D01*
X5085Y8962D01*
X5086Y8959D01*
X5088Y8956D01*
X5088Y8955D01*
X5089Y8953D01*
X5090Y8953D01*
X5093Y8950D01*
X5096Y8948D01*
X5100Y8946D01*
X5103Y8944D01*
X5107Y8943D01*
X5110Y8942D01*
X5111Y8942D01*
X5112D01*
X5108Y8875D01*
X5102Y8876D01*
X5096Y8878D01*
X5090Y8879D01*
X5085Y8881D01*
X5081Y8884D01*
X5076Y8886D01*
X5073Y8888D01*
X5069Y8891D01*
X5064Y8895D01*
X5060Y8899D01*
X5058Y8902D01*
X5057Y8902D01*
Y8903D01*
X5054Y8907D01*
X5051Y8912D01*
X5047Y8923D01*
X5044Y8934D01*
X5042Y8945D01*
X5041Y8950D01*
X5041Y8954D01*
X5041Y8958D01*
Y8962D01*
X5040Y8965D01*
Y8969D01*
X5041Y8982D01*
X5041Y8993D01*
X5043Y9003D01*
X5044Y9007D01*
X5045Y9011D01*
X5046Y9014D01*
X5046Y9017D01*
X5047Y9020D01*
X5048Y9022D01*
X5048Y9023D01*
X5049Y9025D01*
X5049Y9025D01*
Y9025D01*
X5053Y9032D01*
X5057Y9039D01*
X5061Y9044D01*
X5065Y9048D01*
X5068Y9052D01*
X5071Y9054D01*
X5073Y9056D01*
X5074Y9056D01*
X5080Y9060D01*
X5085Y9062D01*
X5091Y9064D01*
X5096Y9065D01*
X5100Y9066D01*
X5104Y9066D01*
X5106D01*
X5107D01*
X5107D01*
X5112Y9066D01*
X5117Y9065D01*
X5125Y9063D01*
X5132Y9060D01*
X5139Y9056D01*
X5144Y9053D01*
X5148Y9050D01*
X5150Y9047D01*
X5150Y9047D01*
X5151D01*
X5154Y9042D01*
X5157Y9038D01*
X5162Y9028D01*
X5167Y9017D01*
X5171Y9006D01*
X5173Y9001D01*
X5174Y8996D01*
X5175Y8992D01*
X5177Y8988D01*
X5177Y8985D01*
X5178Y8983D01*
X5178Y8981D01*
Y8980D01*
X5179Y8975D01*
X5181Y8971D01*
X5182Y8967D01*
X5183Y8963D01*
X5185Y8957D01*
X5187Y8952D01*
X5189Y8948D01*
X5190Y8946D01*
X5191Y8945D01*
X5192Y8944D01*
X5194Y8942D01*
X5197Y8940D01*
X5199Y8938D01*
X5202Y8937D01*
X5204Y8937D01*
X5206Y8936D01*
X5207D01*
X5207D01*
X5211Y8937D01*
X5214Y8938D01*
X5217Y8939D01*
X5219Y8941D01*
X5221Y8942D01*
X5223Y8943D01*
X5224Y8944D01*
X5224Y8945D01*
X5226Y8948D01*
X5228Y8952D01*
X5229Y8956D01*
X5230Y8959D01*
X5230Y8963D01*
X5231Y8965D01*
Y8968D01*
X5230Y8975D01*
X5229Y8981D01*
X5227Y8987D01*
X5224Y8991D01*
X5221Y8995D01*
X5219Y8997D01*
X5217Y8999D01*
X5217Y8999D01*
X5214Y9001D01*
X5209Y9003D01*
X5201Y9006D01*
X5198Y9007D01*
X5195Y9008D01*
X5193Y9008D01*
X5192D01*
X5197Y9075D01*
X5203Y9074D01*
D02*
G37*
G36*
X5100Y8777D02*
X5272D01*
Y8706D01*
X5100D01*
Y8634D01*
X5044D01*
Y8849D01*
X5100D01*
Y8777D01*
D02*
G37*
G36*
X5272Y8553D02*
X5234Y8542D01*
Y8462D01*
X5272Y8451D01*
Y8377D01*
X5044Y8463D01*
Y8540D01*
X5272Y8625D01*
Y8553D01*
D02*
G37*
G36*
X763Y11639D02*
X688D01*
Y11786D01*
X459D01*
Y11880D01*
X763D01*
Y11639D01*
D02*
G37*
G36*
X630Y11607D02*
X647Y11605D01*
X656Y11603D01*
X663Y11601D01*
X669Y11600D01*
X676Y11597D01*
X681Y11596D01*
X686Y11594D01*
X690Y11592D01*
X693Y11591D01*
X696Y11589D01*
X698Y11589D01*
X699Y11587D01*
X700D01*
X712Y11579D01*
X723Y11570D01*
X732Y11561D01*
X739Y11552D01*
X744Y11544D01*
X748Y11538D01*
X750Y11536D01*
X751Y11534D01*
X752Y11533D01*
Y11532D01*
X757Y11519D01*
X761Y11505D01*
X764Y11491D01*
X765Y11478D01*
X767Y11471D01*
Y11465D01*
X767Y11460D01*
X768Y11456D01*
Y11448D01*
X767Y11429D01*
X765Y11413D01*
X762Y11398D01*
X760Y11392D01*
X758Y11386D01*
X757Y11380D01*
X755Y11376D01*
X753Y11372D01*
X752Y11369D01*
X751Y11366D01*
X749Y11364D01*
X749Y11363D01*
Y11363D01*
X741Y11350D01*
X733Y11340D01*
X724Y11332D01*
X716Y11324D01*
X708Y11318D01*
X702Y11314D01*
X699Y11313D01*
X698Y11312D01*
X697Y11311D01*
X696D01*
X682Y11305D01*
X668Y11300D01*
X653Y11297D01*
X640Y11295D01*
X633Y11294D01*
X627Y11294D01*
X622Y11293D01*
X617Y11293D01*
X613D01*
X611D01*
X609D01*
X608D01*
X595Y11293D01*
X582Y11294D01*
X571Y11297D01*
X560Y11299D01*
X550Y11302D01*
X540Y11306D01*
X532Y11309D01*
X524Y11313D01*
X517Y11317D01*
X511Y11321D01*
X506Y11325D01*
X502Y11328D01*
X499Y11330D01*
X496Y11333D01*
X495Y11334D01*
X495Y11334D01*
X487Y11343D01*
X481Y11351D01*
X476Y11360D01*
X471Y11370D01*
X467Y11379D01*
X464Y11389D01*
X461Y11399D01*
X459Y11408D01*
X457Y11416D01*
X456Y11425D01*
X455Y11432D01*
X454Y11439D01*
X454Y11444D01*
Y11451D01*
X454Y11464D01*
X455Y11477D01*
X457Y11489D01*
X460Y11500D01*
X463Y11511D01*
X467Y11520D01*
X470Y11529D01*
X474Y11537D01*
X478Y11544D01*
X482Y11550D01*
X486Y11555D01*
X489Y11559D01*
X491Y11562D01*
X494Y11565D01*
X495Y11566D01*
X495Y11567D01*
X504Y11574D01*
X512Y11580D01*
X521Y11586D01*
X531Y11591D01*
X541Y11595D01*
X550Y11598D01*
X560Y11601D01*
X569Y11603D01*
X577Y11605D01*
X586Y11606D01*
X593Y11607D01*
X599Y11607D01*
X604D01*
X608Y11608D01*
X610D01*
X611D01*
X630Y11607D01*
D02*
G37*
G36*
X763Y11148D02*
X689D01*
X638Y11100D01*
X763Y11035D01*
Y10919D01*
X573Y11036D01*
X459Y10924D01*
Y11050D01*
X574Y11148D01*
X459D01*
Y11242D01*
X763D01*
Y11148D01*
D02*
G37*
G36*
Y10790D02*
X459D01*
Y10884D01*
X763D01*
Y10790D01*
D02*
G37*
G36*
X684Y10622D02*
X619D01*
Y10744D01*
X684D01*
Y10622D01*
D02*
G37*
G36*
X763Y10487D02*
X649D01*
Y10436D01*
X649Y10426D01*
X648Y10416D01*
X647Y10408D01*
X646Y10399D01*
X643Y10391D01*
X641Y10384D01*
X639Y10378D01*
X637Y10373D01*
X635Y10368D01*
X632Y10363D01*
X630Y10360D01*
X628Y10356D01*
X626Y10354D01*
X625Y10353D01*
X624Y10352D01*
Y10351D01*
X619Y10346D01*
X613Y10342D01*
X608Y10339D01*
X602Y10335D01*
X590Y10330D01*
X578Y10327D01*
X568Y10325D01*
X563Y10324D01*
X560D01*
X556Y10324D01*
X554D01*
X552D01*
X552D01*
X543D01*
X536Y10325D01*
X522Y10328D01*
X511Y10332D01*
X501Y10336D01*
X493Y10341D01*
X487Y10345D01*
X486Y10347D01*
X484Y10348D01*
X483Y10349D01*
Y10349D01*
X479Y10354D01*
X475Y10360D01*
X469Y10372D01*
X465Y10385D01*
X461Y10397D01*
X460Y10408D01*
X459Y10413D01*
Y10417D01*
X459Y10421D01*
Y10582D01*
X763D01*
Y10487D01*
D02*
G37*
G36*
X671Y10290D02*
X679Y10288D01*
X693Y10284D01*
X707Y10279D01*
X718Y10273D01*
X722Y10270D01*
X727Y10267D01*
X730Y10264D01*
X733Y10262D01*
X735Y10260D01*
X737Y10259D01*
X738Y10258D01*
X738Y10258D01*
X743Y10252D01*
X748Y10244D01*
X752Y10237D01*
X756Y10228D01*
X760Y10210D01*
X764Y10193D01*
X765Y10184D01*
X766Y10176D01*
X767Y10169D01*
X767Y10163D01*
X768Y10157D01*
Y10150D01*
X767Y10134D01*
X766Y10120D01*
X764Y10107D01*
X762Y10097D01*
X760Y10092D01*
X759Y10088D01*
X758Y10085D01*
X757Y10082D01*
X757Y10079D01*
X756Y10078D01*
X756Y10077D01*
Y10077D01*
X750Y10066D01*
X744Y10057D01*
X738Y10050D01*
X732Y10043D01*
X727Y10038D01*
X722Y10034D01*
X719Y10032D01*
X718Y10031D01*
X709Y10026D01*
X699Y10022D01*
X690Y10018D01*
X682Y10017D01*
X674Y10016D01*
X669Y10015D01*
X667D01*
X665D01*
X664D01*
X664D01*
X655Y10015D01*
X646Y10016D01*
X639Y10018D01*
X632Y10021D01*
X627Y10023D01*
X622Y10025D01*
X620Y10026D01*
X619Y10027D01*
X612Y10032D01*
X605Y10038D01*
X600Y10045D01*
X595Y10051D01*
X591Y10057D01*
X588Y10061D01*
X586Y10065D01*
X586Y10065D01*
Y10066D01*
X583Y10071D01*
X581Y10077D01*
X576Y10091D01*
X571Y10106D01*
X567Y10120D01*
X565Y10127D01*
X563Y10133D01*
X562Y10139D01*
X561Y10144D01*
X560Y10148D01*
X559Y10152D01*
X558Y10154D01*
Y10154D01*
X557Y10163D01*
X555Y10169D01*
X553Y10175D01*
X551Y10179D01*
X550Y10182D01*
X548Y10184D01*
X547Y10185D01*
Y10186D01*
X545Y10188D01*
X543Y10189D01*
X538Y10191D01*
X535Y10192D01*
X535D01*
X534D01*
X531Y10192D01*
X527Y10191D01*
X522Y10188D01*
X519Y10186D01*
X518Y10185D01*
X517Y10184D01*
X515Y10181D01*
X513Y10177D01*
X511Y10169D01*
X511Y10165D01*
X510Y10162D01*
Y10159D01*
X511Y10152D01*
X512Y10146D01*
X513Y10141D01*
X515Y10136D01*
X517Y10133D01*
X518Y10131D01*
X519Y10129D01*
X520Y10128D01*
X524Y10124D01*
X529Y10121D01*
X534Y10119D01*
X538Y10117D01*
X542Y10115D01*
X546Y10114D01*
X548Y10113D01*
X550D01*
X545Y10025D01*
X536Y10026D01*
X528Y10028D01*
X521Y10030D01*
X514Y10033D01*
X508Y10036D01*
X502Y10039D01*
X497Y10042D01*
X492Y10045D01*
X485Y10051D01*
X480Y10056D01*
X477Y10060D01*
X476Y10061D01*
Y10061D01*
X472Y10067D01*
X469Y10074D01*
X463Y10088D01*
X459Y10103D01*
X456Y10117D01*
X455Y10124D01*
X455Y10130D01*
X454Y10136D01*
Y10141D01*
X454Y10144D01*
Y10150D01*
X454Y10167D01*
X455Y10182D01*
X457Y10194D01*
X459Y10200D01*
X460Y10205D01*
X461Y10210D01*
X462Y10214D01*
X463Y10217D01*
X464Y10220D01*
X465Y10222D01*
X465Y10224D01*
X466Y10224D01*
Y10225D01*
X471Y10234D01*
X476Y10243D01*
X481Y10250D01*
X486Y10255D01*
X491Y10260D01*
X495Y10263D01*
X497Y10265D01*
X499Y10266D01*
X506Y10270D01*
X514Y10274D01*
X522Y10276D01*
X529Y10278D01*
X534Y10279D01*
X539Y10279D01*
X542D01*
X542D01*
X543D01*
X550Y10279D01*
X556Y10278D01*
X567Y10275D01*
X577Y10271D01*
X585Y10266D01*
X592Y10262D01*
X597Y10257D01*
X600Y10254D01*
X601Y10253D01*
X601D01*
X606Y10248D01*
X610Y10242D01*
X617Y10228D01*
X623Y10214D01*
X628Y10199D01*
X631Y10192D01*
X632Y10186D01*
X634Y10180D01*
X636Y10175D01*
X636Y10171D01*
X637Y10168D01*
X638Y10166D01*
Y10165D01*
X640Y10158D01*
X641Y10152D01*
X642Y10147D01*
X644Y10142D01*
X647Y10133D01*
X650Y10127D01*
X652Y10122D01*
X654Y10119D01*
X655Y10117D01*
X656Y10117D01*
X659Y10113D01*
X663Y10111D01*
X666Y10109D01*
X669Y10107D01*
X672Y10107D01*
X674Y10106D01*
X676D01*
X677D01*
X681Y10107D01*
X686Y10108D01*
X689Y10109D01*
X693Y10112D01*
X695Y10114D01*
X697Y10116D01*
X698Y10117D01*
X699Y10117D01*
X702Y10122D01*
X704Y10127D01*
X706Y10132D01*
X707Y10137D01*
X707Y10142D01*
X708Y10145D01*
Y10148D01*
X707Y10158D01*
X705Y10166D01*
X702Y10173D01*
X698Y10179D01*
X695Y10184D01*
X692Y10187D01*
X690Y10189D01*
X689Y10190D01*
X685Y10193D01*
X679Y10195D01*
X668Y10199D01*
X664Y10200D01*
X660Y10201D01*
X657Y10202D01*
X656D01*
X662Y10291D01*
X671Y10290D01*
D02*
G37*
G36*
Y9983D02*
X679Y9981D01*
X693Y9977D01*
X707Y9972D01*
X718Y9966D01*
X722Y9963D01*
X727Y9960D01*
X730Y9957D01*
X733Y9955D01*
X735Y9954D01*
X737Y9952D01*
X738Y9951D01*
X738Y9951D01*
X743Y9945D01*
X748Y9937D01*
X752Y9930D01*
X756Y9921D01*
X760Y9904D01*
X764Y9886D01*
X765Y9877D01*
X766Y9869D01*
X767Y9862D01*
X767Y9856D01*
X768Y9850D01*
Y9843D01*
X767Y9827D01*
X766Y9813D01*
X764Y9800D01*
X762Y9790D01*
X760Y9785D01*
X759Y9781D01*
X758Y9778D01*
X757Y9775D01*
X757Y9773D01*
X756Y9771D01*
X756Y9770D01*
Y9770D01*
X750Y9759D01*
X744Y9750D01*
X738Y9743D01*
X732Y9736D01*
X727Y9731D01*
X722Y9727D01*
X719Y9725D01*
X718Y9724D01*
X709Y9719D01*
X699Y9715D01*
X690Y9712D01*
X682Y9710D01*
X674Y9709D01*
X669Y9708D01*
X667D01*
X665D01*
X664D01*
X664D01*
X655Y9708D01*
X646Y9709D01*
X639Y9712D01*
X632Y9714D01*
X627Y9716D01*
X622Y9718D01*
X620Y9719D01*
X619Y9720D01*
X612Y9725D01*
X605Y9731D01*
X600Y9738D01*
X595Y9744D01*
X591Y9750D01*
X588Y9754D01*
X586Y9758D01*
X586Y9758D01*
Y9759D01*
X583Y9764D01*
X581Y9770D01*
X576Y9784D01*
X571Y9799D01*
X567Y9813D01*
X565Y9820D01*
X563Y9826D01*
X562Y9833D01*
X561Y9838D01*
X560Y9841D01*
X559Y9845D01*
X558Y9847D01*
Y9848D01*
X557Y9856D01*
X555Y9862D01*
X553Y9868D01*
X551Y9872D01*
X550Y9875D01*
X548Y9877D01*
X547Y9878D01*
Y9879D01*
X545Y9881D01*
X543Y9882D01*
X538Y9884D01*
X535Y9885D01*
X535D01*
X534D01*
X531Y9885D01*
X527Y9884D01*
X522Y9881D01*
X519Y9879D01*
X518Y9878D01*
X517Y9877D01*
X515Y9874D01*
X513Y9870D01*
X511Y9862D01*
X511Y9858D01*
X510Y9855D01*
Y9853D01*
X511Y9845D01*
X512Y9839D01*
X513Y9834D01*
X515Y9829D01*
X517Y9826D01*
X518Y9824D01*
X519Y9822D01*
X520Y9821D01*
X524Y9818D01*
X529Y9814D01*
X534Y9812D01*
X538Y9810D01*
X542Y9808D01*
X546Y9807D01*
X548Y9806D01*
X550D01*
X545Y9718D01*
X536Y9719D01*
X528Y9721D01*
X521Y9723D01*
X514Y9726D01*
X508Y9729D01*
X502Y9732D01*
X497Y9735D01*
X492Y9738D01*
X485Y9744D01*
X480Y9749D01*
X477Y9753D01*
X476Y9754D01*
Y9754D01*
X472Y9760D01*
X469Y9767D01*
X463Y9781D01*
X459Y9796D01*
X456Y9810D01*
X455Y9817D01*
X455Y9823D01*
X454Y9829D01*
Y9834D01*
X454Y9838D01*
Y9843D01*
X454Y9860D01*
X455Y9875D01*
X457Y9887D01*
X459Y9894D01*
X460Y9899D01*
X461Y9903D01*
X462Y9907D01*
X463Y9910D01*
X464Y9913D01*
X465Y9915D01*
X465Y9917D01*
X466Y9917D01*
Y9918D01*
X471Y9927D01*
X476Y9936D01*
X481Y9943D01*
X486Y9949D01*
X491Y9953D01*
X495Y9956D01*
X497Y9959D01*
X499Y9959D01*
X506Y9964D01*
X514Y9967D01*
X522Y9969D01*
X529Y9971D01*
X534Y9972D01*
X539Y9972D01*
X542D01*
X542D01*
X543D01*
X550Y9972D01*
X556Y9971D01*
X567Y9969D01*
X577Y9964D01*
X585Y9959D01*
X592Y9955D01*
X597Y9950D01*
X600Y9947D01*
X601Y9946D01*
X601D01*
X606Y9941D01*
X610Y9935D01*
X617Y9921D01*
X623Y9907D01*
X628Y9892D01*
X631Y9885D01*
X632Y9879D01*
X634Y9873D01*
X636Y9868D01*
X636Y9864D01*
X637Y9861D01*
X638Y9859D01*
Y9858D01*
X640Y9851D01*
X641Y9845D01*
X642Y9840D01*
X644Y9835D01*
X647Y9826D01*
X650Y9820D01*
X652Y9815D01*
X654Y9812D01*
X655Y9810D01*
X656Y9810D01*
X659Y9806D01*
X663Y9804D01*
X666Y9802D01*
X669Y9800D01*
X672Y9800D01*
X674Y9799D01*
X676D01*
X677D01*
X681Y9800D01*
X686Y9801D01*
X689Y9803D01*
X693Y9805D01*
X695Y9807D01*
X697Y9809D01*
X698Y9810D01*
X699Y9810D01*
X702Y9815D01*
X704Y9820D01*
X706Y9825D01*
X707Y9830D01*
X707Y9835D01*
X708Y9838D01*
Y9841D01*
X707Y9851D01*
X705Y9859D01*
X702Y9866D01*
X698Y9872D01*
X695Y9877D01*
X692Y9880D01*
X690Y9882D01*
X689Y9883D01*
X685Y9886D01*
X679Y9889D01*
X668Y9892D01*
X664Y9894D01*
X660Y9894D01*
X657Y9895D01*
X656D01*
X662Y9984D01*
X671Y9983D01*
D02*
G37*
G36*
X684Y9559D02*
X619D01*
Y9682D01*
X684D01*
Y9559D01*
D02*
G37*
G36*
X763Y9434D02*
Y9332D01*
X459Y9219D01*
Y9315D01*
X678Y9382D01*
X459Y9451D01*
Y9549D01*
X763Y9434D01*
D02*
G37*
G36*
X601Y9174D02*
X598Y9164D01*
X595Y9157D01*
X592Y9149D01*
X590Y9144D01*
X588Y9139D01*
X587Y9137D01*
X587Y9136D01*
X583Y9129D01*
X578Y9122D01*
X574Y9114D01*
X570Y9108D01*
X566Y9103D01*
X563Y9099D01*
X561Y9097D01*
X561Y9095D01*
X763D01*
Y9010D01*
X454D01*
Y9080D01*
X464Y9086D01*
X474Y9092D01*
X482Y9098D01*
X489Y9104D01*
X495Y9109D01*
X499Y9114D01*
X501Y9117D01*
X502Y9117D01*
Y9118D01*
X510Y9127D01*
X516Y9138D01*
X521Y9149D01*
X526Y9160D01*
X530Y9169D01*
X532Y9174D01*
X534Y9177D01*
X534Y9180D01*
X535Y9183D01*
X536Y9184D01*
Y9184D01*
X605D01*
X601Y9174D01*
D02*
G37*
G36*
X684Y8804D02*
X619D01*
Y8926D01*
X684D01*
Y8804D01*
D02*
G37*
G36*
X763Y8683D02*
X689D01*
X679D01*
X671Y8682D01*
X663Y8681D01*
X656Y8680D01*
X649Y8680D01*
X643Y8679D01*
X638Y8678D01*
X633Y8676D01*
X629Y8675D01*
X626Y8674D01*
X623Y8673D01*
X621Y8672D01*
X618Y8670D01*
X617Y8670D01*
X612Y8666D01*
X609Y8661D01*
X606Y8658D01*
X605Y8653D01*
X603Y8649D01*
X603Y8646D01*
Y8640D01*
X604Y8637D01*
X606Y8629D01*
X607Y8625D01*
X608Y8623D01*
X609Y8621D01*
X610Y8620D01*
X549Y8594D01*
X545Y8602D01*
X542Y8610D01*
X540Y8617D01*
X539Y8623D01*
X538Y8628D01*
X537Y8632D01*
Y8635D01*
X538Y8641D01*
X538Y8647D01*
X540Y8653D01*
X542Y8657D01*
X543Y8660D01*
X545Y8663D01*
X546Y8665D01*
X546Y8665D01*
X550Y8670D01*
X555Y8674D01*
X566Y8681D01*
X571Y8684D01*
X575Y8686D01*
X577Y8688D01*
X578Y8689D01*
X542D01*
Y8767D01*
X763D01*
Y8683D01*
D02*
G37*
G36*
X693Y8587D02*
X702Y8583D01*
X710Y8580D01*
X717Y8576D01*
X723Y8573D01*
X727Y8570D01*
X729Y8568D01*
X730Y8567D01*
X737Y8561D01*
X742Y8554D01*
X747Y8548D01*
X751Y8542D01*
X754Y8536D01*
X757Y8532D01*
X758Y8529D01*
X758Y8528D01*
X762Y8518D01*
X764Y8507D01*
X765Y8496D01*
X767Y8486D01*
X767Y8477D01*
Y8472D01*
X768Y8469D01*
Y8462D01*
X767Y8447D01*
X765Y8433D01*
X764Y8422D01*
X761Y8412D01*
X759Y8404D01*
X758Y8401D01*
X757Y8398D01*
X756Y8396D01*
X756Y8395D01*
X755Y8394D01*
Y8393D01*
X749Y8384D01*
X743Y8376D01*
X737Y8370D01*
X731Y8363D01*
X726Y8359D01*
X721Y8356D01*
X718Y8354D01*
X717Y8353D01*
X708Y8348D01*
X699Y8345D01*
X691Y8342D01*
X682Y8341D01*
X676Y8340D01*
X671Y8339D01*
X667D01*
X667D01*
X666D01*
X658Y8340D01*
X652Y8340D01*
X646Y8342D01*
X640Y8343D01*
X636Y8345D01*
X633Y8346D01*
X631Y8347D01*
X630Y8348D01*
X625Y8351D01*
X620Y8355D01*
X615Y8359D01*
X612Y8363D01*
X609Y8366D01*
X607Y8369D01*
X606Y8371D01*
X605Y8371D01*
X603Y8375D01*
X601Y8380D01*
X598Y8388D01*
X597Y8392D01*
X596Y8395D01*
X595Y8397D01*
Y8398D01*
X591Y8390D01*
X586Y8383D01*
X581Y8378D01*
X577Y8373D01*
X573Y8370D01*
X570Y8368D01*
X568Y8366D01*
X567Y8366D01*
X561Y8362D01*
X555Y8359D01*
X549Y8357D01*
X543Y8356D01*
X539Y8355D01*
X535Y8355D01*
X533D01*
X532D01*
X526Y8355D01*
X520Y8356D01*
X509Y8358D01*
X499Y8363D01*
X491Y8368D01*
X485Y8373D01*
X480Y8377D01*
X477Y8380D01*
X476Y8381D01*
Y8381D01*
X472Y8387D01*
X469Y8392D01*
X463Y8406D01*
X459Y8420D01*
X456Y8434D01*
X455Y8441D01*
X455Y8447D01*
X454Y8453D01*
Y8458D01*
X454Y8462D01*
Y8468D01*
X455Y8486D01*
X455Y8494D01*
X457Y8502D01*
X459Y8509D01*
X460Y8516D01*
X462Y8522D01*
X464Y8527D01*
X466Y8532D01*
X467Y8537D01*
X469Y8540D01*
X471Y8543D01*
X472Y8545D01*
X473Y8547D01*
X474Y8548D01*
Y8548D01*
X482Y8558D01*
X492Y8566D01*
X502Y8573D01*
X511Y8578D01*
X520Y8582D01*
X524Y8583D01*
X527Y8584D01*
X529Y8585D01*
X531Y8585D01*
X532Y8586D01*
X533D01*
X547Y8506D01*
X539Y8504D01*
X532Y8503D01*
X527Y8501D01*
X523Y8499D01*
X520Y8497D01*
X517Y8496D01*
X516Y8494D01*
X516Y8494D01*
X512Y8490D01*
X510Y8486D01*
X509Y8482D01*
X507Y8478D01*
X507Y8474D01*
X506Y8472D01*
Y8469D01*
X507Y8464D01*
X507Y8459D01*
X509Y8456D01*
X510Y8452D01*
X512Y8449D01*
X514Y8448D01*
X514Y8447D01*
X515Y8446D01*
X518Y8443D01*
X522Y8441D01*
X525Y8440D01*
X529Y8439D01*
X532Y8438D01*
X535Y8438D01*
X536D01*
X537D01*
X542Y8438D01*
X547Y8439D01*
X551Y8442D01*
X555Y8443D01*
X558Y8446D01*
X560Y8448D01*
X561Y8449D01*
X562Y8449D01*
X565Y8454D01*
X567Y8458D01*
X570Y8463D01*
X571Y8467D01*
X571Y8471D01*
X572Y8474D01*
Y8481D01*
X571Y8484D01*
Y8488D01*
X631Y8492D01*
X630Y8486D01*
X628Y8481D01*
X627Y8476D01*
X627Y8472D01*
X626Y8469D01*
Y8465D01*
X627Y8458D01*
X628Y8452D01*
X630Y8447D01*
X632Y8443D01*
X634Y8439D01*
X636Y8437D01*
X637Y8436D01*
X638Y8435D01*
X643Y8431D01*
X648Y8428D01*
X653Y8427D01*
X658Y8425D01*
X663Y8424D01*
X667Y8424D01*
X669D01*
X671D01*
X678Y8424D01*
X684Y8426D01*
X691Y8428D01*
X695Y8429D01*
X699Y8432D01*
X702Y8434D01*
X703Y8435D01*
X704Y8436D01*
X708Y8440D01*
X711Y8444D01*
X713Y8449D01*
X714Y8454D01*
X716Y8458D01*
X716Y8461D01*
Y8464D01*
X716Y8470D01*
X714Y8475D01*
X713Y8480D01*
X711Y8484D01*
X709Y8487D01*
X708Y8489D01*
X707Y8491D01*
X707Y8491D01*
X702Y8494D01*
X697Y8498D01*
X685Y8502D01*
X679Y8504D01*
X675Y8505D01*
X672Y8506D01*
X671D01*
X683Y8590D01*
X693Y8587D01*
D02*
G37*
G36*
X763Y8206D02*
X678D01*
Y8296D01*
X763D01*
Y8206D01*
D02*
G37*
G36*
X622Y8163D02*
X635Y8162D01*
X646Y8161D01*
X655Y8160D01*
X663Y8159D01*
X669Y8158D01*
X672Y8158D01*
X673Y8157D01*
X674D01*
X674D01*
X684Y8155D01*
X694Y8152D01*
X702Y8149D01*
X708Y8146D01*
X713Y8144D01*
X717Y8142D01*
X719Y8141D01*
X720Y8140D01*
X728Y8134D01*
X736Y8128D01*
X742Y8121D01*
X747Y8115D01*
X751Y8110D01*
X753Y8105D01*
X755Y8103D01*
X756Y8101D01*
X759Y8092D01*
X763Y8081D01*
X765Y8071D01*
X766Y8061D01*
X767Y8052D01*
Y8049D01*
X768Y8045D01*
Y8039D01*
X767Y8027D01*
X766Y8015D01*
X764Y8004D01*
X762Y7995D01*
X759Y7986D01*
X756Y7978D01*
X752Y7971D01*
X748Y7965D01*
X745Y7959D01*
X742Y7955D01*
X738Y7951D01*
X736Y7948D01*
X733Y7945D01*
X731Y7943D01*
X730Y7943D01*
X729Y7942D01*
X722Y7937D01*
X713Y7933D01*
X704Y7929D01*
X694Y7926D01*
X674Y7921D01*
X654Y7917D01*
X645Y7916D01*
X637Y7916D01*
X629Y7915D01*
X622Y7914D01*
X616Y7914D01*
X612D01*
X610D01*
X608D01*
X595Y7914D01*
X582Y7915D01*
X570Y7917D01*
X560Y7918D01*
X551Y7920D01*
X547Y7921D01*
X544Y7921D01*
X541Y7922D01*
X540Y7922D01*
X538Y7923D01*
X538D01*
X531Y7924D01*
X526Y7927D01*
X520Y7928D01*
X516Y7930D01*
X512Y7932D01*
X509Y7933D01*
X507Y7934D01*
X507Y7934D01*
X497Y7941D01*
X492Y7944D01*
X489Y7947D01*
X486Y7950D01*
X484Y7952D01*
X482Y7954D01*
X481Y7954D01*
X477Y7959D01*
X473Y7964D01*
X470Y7970D01*
X467Y7975D01*
X465Y7979D01*
X462Y7983D01*
X462Y7985D01*
X461Y7987D01*
X459Y7994D01*
X457Y8003D01*
X455Y8011D01*
X455Y8019D01*
X454Y8026D01*
X454Y8032D01*
Y8037D01*
X454Y8048D01*
X455Y8059D01*
X457Y8069D01*
X459Y8079D01*
X462Y8087D01*
X465Y8095D01*
X468Y8102D01*
X471Y8108D01*
X474Y8114D01*
X477Y8119D01*
X480Y8123D01*
X483Y8126D01*
X485Y8129D01*
X487Y8130D01*
X488Y8131D01*
X489Y8132D01*
X496Y8138D01*
X504Y8142D01*
X512Y8146D01*
X522Y8150D01*
X542Y8155D01*
X562Y8159D01*
X571Y8160D01*
X580Y8161D01*
X588Y8162D01*
X596Y8163D01*
X601Y8163D01*
X606D01*
X608D01*
X610D01*
X622Y8163D01*
D02*
G37*
G36*
X763Y7781D02*
X678D01*
Y7871D01*
X763D01*
Y7781D01*
D02*
G37*
G36*
X622Y7737D02*
X635Y7737D01*
X646Y7736D01*
X655Y7735D01*
X663Y7734D01*
X669Y7733D01*
X672Y7732D01*
X673Y7732D01*
X674D01*
X674D01*
X684Y7730D01*
X694Y7727D01*
X702Y7724D01*
X708Y7721D01*
X713Y7719D01*
X717Y7717D01*
X719Y7716D01*
X720Y7715D01*
X728Y7709D01*
X736Y7702D01*
X742Y7696D01*
X747Y7690D01*
X751Y7685D01*
X753Y7680D01*
X755Y7677D01*
X756Y7676D01*
X759Y7667D01*
X763Y7656D01*
X765Y7646D01*
X766Y7636D01*
X767Y7627D01*
Y7624D01*
X768Y7620D01*
Y7614D01*
X767Y7601D01*
X766Y7590D01*
X764Y7579D01*
X762Y7570D01*
X759Y7561D01*
X756Y7553D01*
X752Y7546D01*
X748Y7540D01*
X745Y7534D01*
X742Y7530D01*
X738Y7526D01*
X736Y7523D01*
X733Y7520D01*
X731Y7518D01*
X730Y7518D01*
X729Y7517D01*
X722Y7512D01*
X713Y7508D01*
X704Y7504D01*
X694Y7500D01*
X674Y7495D01*
X654Y7492D01*
X645Y7491D01*
X637Y7490D01*
X629Y7490D01*
X622Y7489D01*
X616Y7489D01*
X612D01*
X610D01*
X608D01*
X595Y7489D01*
X582Y7490D01*
X570Y7492D01*
X560Y7493D01*
X551Y7495D01*
X547Y7495D01*
X544Y7496D01*
X541Y7497D01*
X540Y7497D01*
X538Y7498D01*
X538D01*
X531Y7499D01*
X526Y7502D01*
X520Y7503D01*
X516Y7505D01*
X512Y7507D01*
X509Y7508D01*
X507Y7509D01*
X507Y7509D01*
X497Y7515D01*
X492Y7519D01*
X489Y7522D01*
X486Y7525D01*
X484Y7527D01*
X482Y7529D01*
X481Y7529D01*
X477Y7534D01*
X473Y7539D01*
X470Y7545D01*
X467Y7550D01*
X465Y7554D01*
X462Y7558D01*
X462Y7560D01*
X461Y7561D01*
X459Y7569D01*
X457Y7578D01*
X455Y7586D01*
X455Y7594D01*
X454Y7601D01*
X454Y7606D01*
Y7611D01*
X454Y7623D01*
X455Y7634D01*
X457Y7644D01*
X459Y7654D01*
X462Y7662D01*
X465Y7670D01*
X468Y7677D01*
X471Y7683D01*
X474Y7689D01*
X477Y7694D01*
X480Y7697D01*
X483Y7701D01*
X485Y7704D01*
X487Y7705D01*
X488Y7706D01*
X489Y7707D01*
X496Y7712D01*
X504Y7717D01*
X512Y7721D01*
X522Y7725D01*
X542Y7730D01*
X562Y7734D01*
X571Y7735D01*
X580Y7736D01*
X588Y7737D01*
X596Y7737D01*
X601Y7738D01*
X606D01*
X608D01*
X610D01*
X622Y7737D01*
D02*
G37*
%LPC*%
G36*
X4016Y1349D02*
X4016Y1351D01*
X4019Y1352D01*
X4031Y1353D01*
X4040Y1354D01*
X4043Y1354D01*
X4047Y1356D01*
X4053Y1356D01*
X4059Y1358D01*
X4065Y1359D01*
X4072Y1359D01*
X4074Y1360D01*
X4081Y1360D01*
X4084Y1361D01*
X4089Y1362D01*
X4091Y1363D01*
X4098Y1364D01*
X4103Y1364D01*
X4111Y1365D01*
X4113Y1366D01*
X4120Y1367D01*
X4124Y1368D01*
X4137Y1370D01*
X4144Y1370D01*
X4145Y1371D01*
X4149Y1372D01*
X4155Y1372D01*
X4161Y1374D01*
X4168Y1375D01*
X4175Y1376D01*
X4180Y1376D01*
X4185Y1377D01*
X4188Y1378D01*
X4192Y1379D01*
X4200Y1380D01*
X4202Y1380D01*
X4213Y1381D01*
X4219Y1383D01*
X4222Y1381D01*
X4223Y1380D01*
X4224Y1376D01*
X4224Y1314D01*
X4223Y1312D01*
X4219Y1311D01*
X4213Y1312D01*
X4209Y1313D01*
X4204Y1315D01*
X4200Y1315D01*
X4195Y1316D01*
X4193Y1316D01*
X4185Y1317D01*
X4184Y1317D01*
X4180Y1318D01*
X4178Y1319D01*
X4175Y1319D01*
X4171Y1321D01*
X4160Y1321D01*
X4158Y1322D01*
X4153Y1323D01*
X4149Y1323D01*
X4147Y1324D01*
X4144Y1325D01*
X4140Y1326D01*
X4132Y1327D01*
X4124Y1327D01*
X4122Y1328D01*
X4118Y1329D01*
X4116Y1329D01*
X4111Y1331D01*
X4105Y1332D01*
X4102Y1332D01*
X4095Y1333D01*
X4090Y1333D01*
X4084Y1335D01*
X4081Y1336D01*
X4079Y1336D01*
X4078D01*
X4074Y1337D01*
X4072Y1337D01*
X4063Y1338D01*
X4059Y1339D01*
X4056Y1339D01*
X4051Y1341D01*
X4048Y1342D01*
X4040Y1343D01*
X4033Y1344D01*
X4025Y1345D01*
X4022Y1346D01*
X4020Y1346D01*
X4016Y1349D01*
D02*
G37*
G36*
X4868Y3660D02*
X4861Y3659D01*
X4859Y3660D01*
X4684Y3660D01*
X4679Y3660D01*
X4675Y3659D01*
X4673Y3659D01*
X4671Y3657D01*
X4670Y3583D01*
X4671Y3579D01*
X4674Y3577D01*
X4675Y3576D01*
X4676Y3575D01*
X4864Y3574D01*
X4866Y3576D01*
X4867D01*
X4869Y3577D01*
X4871Y3579D01*
X4872Y3656D01*
X4871Y3659D01*
X4868Y3660D01*
D02*
G37*
G36*
X3938Y3235D02*
X3934Y3234D01*
X3931Y3232D01*
X3931Y3170D01*
X3931Y3166D01*
X3932Y3165D01*
X3932Y3155D01*
X3933Y3152D01*
X3934Y3151D01*
X3935Y3150D01*
X4125Y3149D01*
X4129Y3151D01*
X4131Y3153D01*
X4132Y3159D01*
Y3227D01*
X4131Y3233D01*
X4129Y3234D01*
X3938Y3235D01*
D02*
G37*
G36*
X4842Y2494D02*
X4714Y2493D01*
X4712Y2493D01*
X4710Y2490D01*
X4709Y2469D01*
Y2367D01*
X4710Y2365D01*
X4711Y2354D01*
X4711Y2349D01*
X4712Y2342D01*
X4712Y2338D01*
X4713Y2332D01*
X4715Y2326D01*
X4717Y2321D01*
X4718Y2319D01*
X4720Y2315D01*
X4723Y2309D01*
X4724Y2308D01*
X4725Y2307D01*
X4726Y2306D01*
X4727Y2305D01*
X4727Y2304D01*
X4733Y2298D01*
X4734Y2298D01*
X4735Y2296D01*
X4736Y2296D01*
X4738Y2295D01*
X4739Y2294D01*
X4739Y2293D01*
X4745Y2291D01*
X4746Y2290D01*
X4747Y2290D01*
X4748Y2288D01*
X4751Y2287D01*
X4757Y2286D01*
X4760Y2285D01*
X4765Y2285D01*
X4766Y2284D01*
X4779Y2283D01*
X4783Y2284D01*
X4790Y2285D01*
X4795Y2286D01*
X4798Y2286D01*
X4801Y2287D01*
X4804Y2287D01*
X4806Y2288D01*
X4808Y2290D01*
X4809Y2291D01*
X4815Y2293D01*
X4818Y2295D01*
X4821Y2297D01*
X4824Y2300D01*
X4825Y2302D01*
X4826Y2302D01*
X4827Y2303D01*
X4827Y2304D01*
X4828Y2305D01*
X4829Y2306D01*
X4830Y2307D01*
X4831Y2308D01*
X4831Y2308D01*
X4832Y2309D01*
X4834Y2313D01*
X4837Y2319D01*
X4838Y2320D01*
X4839Y2324D01*
X4840Y2327D01*
X4841Y2330D01*
X4843Y2335D01*
X4844Y2339D01*
X4845Y2342D01*
X4845Y2348D01*
X4846Y2367D01*
X4846Y2480D01*
X4846Y2482D01*
X4846Y2490D01*
X4844Y2493D01*
X4842Y2494D01*
D02*
G37*
G36*
X5092D02*
X4955Y2493D01*
X4953Y2493D01*
X4952Y2491D01*
X4951Y2353D01*
X4952Y2339D01*
Y2338D01*
X4952Y2333D01*
X4953Y2325D01*
X4954Y2321D01*
X4956Y2315D01*
X4957Y2310D01*
X4959Y2305D01*
X4960Y2304D01*
X4961Y2303D01*
X4963Y2299D01*
X4963Y2296D01*
X4964Y2295D01*
X4965Y2294D01*
X4966Y2293D01*
X4969Y2288D01*
X4972Y2285D01*
X4973Y2284D01*
X4975Y2282D01*
X4976Y2281D01*
X4980Y2278D01*
X4984Y2276D01*
X4987Y2273D01*
X4989Y2272D01*
X4992Y2271D01*
X4994Y2270D01*
X4997Y2270D01*
X4999Y2269D01*
X5002Y2268D01*
X5005Y2267D01*
X5010Y2267D01*
X5012Y2266D01*
X5032Y2267D01*
X5037Y2267D01*
X5039Y2268D01*
X5042Y2268D01*
X5045Y2269D01*
X5049Y2270D01*
X5053Y2271D01*
X5055Y2271D01*
X5058Y2272D01*
X5060Y2274D01*
X5065Y2277D01*
X5066Y2277D01*
X5067Y2279D01*
X5070Y2281D01*
X5071Y2282D01*
X5074Y2285D01*
X5075Y2286D01*
X5077Y2288D01*
X5080Y2293D01*
X5081Y2294D01*
X5082Y2295D01*
X5083Y2296D01*
X5086Y2301D01*
X5087Y2304D01*
X5088Y2306D01*
X5089Y2310D01*
X5091Y2314D01*
X5091Y2318D01*
X5092Y2321D01*
X5092Y2323D01*
X5094Y2326D01*
X5094Y2329D01*
X5095Y2331D01*
X5096Y2488D01*
X5095Y2492D01*
X5094Y2493D01*
X5092Y2494D01*
D02*
G37*
G36*
X3937Y2164D02*
X3934Y2163D01*
X3933Y2162D01*
X3932Y2155D01*
X3932Y2151D01*
X3931Y2149D01*
X3931Y2098D01*
X3931Y2096D01*
X3932Y2094D01*
X3932Y2087D01*
X3933Y2083D01*
X3935Y2080D01*
X3954Y2080D01*
X4356D01*
X4359Y2081D01*
X4361Y2084D01*
X4361Y2092D01*
X4362Y2096D01*
X4363Y2098D01*
X4363Y2104D01*
X4363Y2137D01*
X4362Y2138D01*
X4363Y2139D01*
X4363Y2146D01*
X4362Y2149D01*
X4361Y2154D01*
X4361Y2155D01*
X4361Y2158D01*
X4360Y2163D01*
X4359Y2163D01*
X3937Y2164D01*
D02*
G37*
G36*
X5479Y10350D02*
X5476D01*
X5474D01*
X5472D01*
X5472D01*
X5464D01*
X5457Y10350D01*
X5451Y10349D01*
X5445Y10349D01*
X5440Y10348D01*
X5435Y10348D01*
X5430Y10347D01*
X5427Y10346D01*
X5423Y10346D01*
X5420Y10345D01*
X5418Y10345D01*
X5417Y10344D01*
X5415Y10344D01*
X5414Y10344D01*
X5413Y10343D01*
X5408Y10340D01*
X5404Y10336D01*
X5401Y10333D01*
X5399Y10329D01*
X5398Y10326D01*
X5398Y10323D01*
X5397Y10321D01*
Y10320D01*
X5398Y10315D01*
X5400Y10310D01*
X5402Y10306D01*
X5405Y10303D01*
X5408Y10300D01*
X5410Y10299D01*
X5412Y10297D01*
X5413Y10297D01*
X5416Y10296D01*
X5420Y10294D01*
X5425Y10293D01*
X5429Y10292D01*
X5439Y10291D01*
X5450Y10290D01*
X5459Y10289D01*
X5463D01*
X5467Y10289D01*
X5470D01*
X5472D01*
X5474D01*
X5474D01*
X5485D01*
X5494Y10289D01*
X5502Y10290D01*
X5508Y10291D01*
X5513Y10291D01*
X5516Y10292D01*
X5519Y10293D01*
X5519D01*
X5524Y10294D01*
X5529Y10296D01*
X5532Y10297D01*
X5536Y10299D01*
X5538Y10301D01*
X5539Y10302D01*
X5540Y10303D01*
X5541Y10303D01*
X5543Y10306D01*
X5544Y10309D01*
X5546Y10311D01*
X5546Y10314D01*
X5547Y10316D01*
X5547Y10319D01*
Y10320D01*
X5546Y10325D01*
X5545Y10330D01*
X5542Y10334D01*
X5539Y10337D01*
X5536Y10339D01*
X5534Y10341D01*
X5532Y10342D01*
X5531Y10343D01*
X5528Y10344D01*
X5524Y10345D01*
X5520Y10346D01*
X5516Y10347D01*
X5506Y10348D01*
X5496Y10349D01*
X5487Y10350D01*
X5482D01*
X5479Y10350D01*
D02*
G37*
G36*
Y9606D02*
X5476D01*
X5474D01*
X5472D01*
X5472D01*
X5464D01*
X5457Y9606D01*
X5451Y9606D01*
X5445Y9605D01*
X5440Y9605D01*
X5435Y9604D01*
X5430Y9603D01*
X5427Y9603D01*
X5423Y9602D01*
X5420Y9601D01*
X5418Y9601D01*
X5417Y9601D01*
X5415Y9600D01*
X5414Y9600D01*
X5413Y9599D01*
X5408Y9596D01*
X5404Y9593D01*
X5401Y9589D01*
X5399Y9585D01*
X5398Y9582D01*
X5398Y9579D01*
X5397Y9577D01*
Y9576D01*
X5398Y9571D01*
X5400Y9566D01*
X5402Y9562D01*
X5405Y9559D01*
X5408Y9556D01*
X5410Y9555D01*
X5412Y9554D01*
X5413Y9553D01*
X5416Y9552D01*
X5420Y9551D01*
X5425Y9549D01*
X5429Y9549D01*
X5439Y9547D01*
X5450Y9546D01*
X5459Y9546D01*
X5463D01*
X5467Y9545D01*
X5470D01*
X5472D01*
X5474D01*
X5474D01*
X5485D01*
X5494Y9546D01*
X5502Y9546D01*
X5508Y9547D01*
X5513Y9548D01*
X5516Y9549D01*
X5519Y9549D01*
X5519D01*
X5524Y9550D01*
X5529Y9552D01*
X5532Y9554D01*
X5536Y9555D01*
X5538Y9557D01*
X5539Y9558D01*
X5540Y9559D01*
X5541Y9559D01*
X5543Y9562D01*
X5544Y9565D01*
X5546Y9568D01*
X5546Y9571D01*
X5547Y9573D01*
X5547Y9575D01*
Y9576D01*
X5546Y9581D01*
X5545Y9586D01*
X5542Y9590D01*
X5539Y9593D01*
X5536Y9596D01*
X5534Y9597D01*
X5532Y9598D01*
X5531Y9599D01*
X5528Y9600D01*
X5524Y9601D01*
X5520Y9602D01*
X5516Y9603D01*
X5506Y9605D01*
X5496Y9606D01*
X5487Y9606D01*
X5482D01*
X5479Y9606D01*
D02*
G37*
G36*
Y8863D02*
X5476D01*
X5474D01*
X5472D01*
X5472D01*
X5464D01*
X5457Y8862D01*
X5451Y8862D01*
X5445Y8861D01*
X5440Y8861D01*
X5435Y8860D01*
X5430Y8860D01*
X5427Y8859D01*
X5423Y8858D01*
X5420Y8858D01*
X5418Y8857D01*
X5417Y8857D01*
X5415Y8856D01*
X5414Y8856D01*
X5413Y8855D01*
X5408Y8853D01*
X5404Y8849D01*
X5401Y8845D01*
X5399Y8841D01*
X5398Y8838D01*
X5398Y8835D01*
X5397Y8833D01*
Y8833D01*
X5398Y8827D01*
X5400Y8823D01*
X5402Y8818D01*
X5405Y8815D01*
X5408Y8813D01*
X5410Y8811D01*
X5412Y8810D01*
X5413Y8809D01*
X5416Y8808D01*
X5420Y8807D01*
X5425Y8806D01*
X5429Y8805D01*
X5439Y8803D01*
X5450Y8802D01*
X5459Y8802D01*
X5463D01*
X5467Y8801D01*
X5470D01*
X5472D01*
X5474D01*
X5474D01*
X5485D01*
X5494Y8802D01*
X5502Y8803D01*
X5508Y8803D01*
X5513Y8804D01*
X5516Y8805D01*
X5519Y8805D01*
X5519D01*
X5524Y8806D01*
X5529Y8808D01*
X5532Y8810D01*
X5536Y8811D01*
X5538Y8813D01*
X5539Y8814D01*
X5540Y8815D01*
X5541Y8816D01*
X5543Y8818D01*
X5544Y8821D01*
X5546Y8824D01*
X5546Y8827D01*
X5547Y8829D01*
X5547Y8831D01*
Y8833D01*
X5546Y8838D01*
X5545Y8842D01*
X5542Y8846D01*
X5539Y8849D01*
X5536Y8852D01*
X5534Y8853D01*
X5532Y8855D01*
X5531Y8855D01*
X5528Y8856D01*
X5524Y8858D01*
X5520Y8858D01*
X5516Y8859D01*
X5506Y8861D01*
X5496Y8862D01*
X5487Y8862D01*
X5482D01*
X5479Y8863D01*
D02*
G37*
G36*
X5185Y10669D02*
X5103Y10644D01*
X5185Y10619D01*
Y10669D01*
D02*
G37*
G36*
X5133Y9805D02*
X5090D01*
Y9774D01*
X5090Y9769D01*
X5091Y9764D01*
X5092Y9760D01*
X5093Y9757D01*
X5094Y9755D01*
X5095Y9753D01*
X5095Y9752D01*
X5096Y9752D01*
X5098Y9750D01*
X5100Y9748D01*
X5103Y9747D01*
X5105Y9746D01*
X5108Y9745D01*
X5110Y9745D01*
X5111D01*
X5111D01*
X5115Y9745D01*
X5118Y9746D01*
X5121Y9747D01*
X5124Y9748D01*
X5125Y9750D01*
X5127Y9750D01*
X5127Y9751D01*
X5128Y9752D01*
X5130Y9755D01*
X5131Y9758D01*
X5132Y9765D01*
X5133Y9769D01*
X5133Y9772D01*
Y9805D01*
D02*
G37*
G36*
X5223D02*
X5177D01*
Y9770D01*
X5177Y9763D01*
X5177Y9758D01*
X5179Y9753D01*
X5179Y9750D01*
X5181Y9747D01*
X5182Y9745D01*
X5182Y9744D01*
X5183Y9744D01*
X5185Y9741D01*
X5188Y9740D01*
X5191Y9738D01*
X5193Y9737D01*
X5196Y9737D01*
X5197Y9736D01*
X5199D01*
X5199D01*
X5203Y9737D01*
X5206Y9738D01*
X5209Y9739D01*
X5212Y9740D01*
X5214Y9741D01*
X5215Y9743D01*
X5216Y9743D01*
X5217Y9744D01*
X5219Y9747D01*
X5220Y9751D01*
X5221Y9755D01*
X5222Y9760D01*
X5222Y9763D01*
X5223Y9767D01*
Y9805D01*
D02*
G37*
G36*
X5162Y9567D02*
X5160D01*
X5159D01*
X5158D01*
X5152D01*
X5146Y9567D01*
X5141Y9566D01*
X5136Y9565D01*
X5132Y9564D01*
X5127Y9563D01*
X5124Y9562D01*
X5120Y9560D01*
X5115Y9558D01*
X5112Y9556D01*
X5110Y9555D01*
X5109Y9554D01*
X5104Y9549D01*
X5100Y9543D01*
X5097Y9537D01*
X5095Y9532D01*
X5094Y9528D01*
X5094Y9523D01*
X5093Y9521D01*
Y9520D01*
X5094Y9512D01*
X5096Y9505D01*
X5098Y9499D01*
X5101Y9494D01*
X5104Y9490D01*
X5106Y9487D01*
X5108Y9485D01*
X5108Y9485D01*
X5115Y9480D01*
X5122Y9477D01*
X5130Y9475D01*
X5137Y9473D01*
X5145Y9472D01*
X5147Y9472D01*
X5150Y9471D01*
X5152D01*
X5154D01*
X5155D01*
X5155D01*
X5162D01*
X5169Y9472D01*
X5174Y9473D01*
X5180Y9473D01*
X5184Y9474D01*
X5189Y9476D01*
X5193Y9477D01*
X5196Y9478D01*
X5199Y9479D01*
X5202Y9480D01*
X5204Y9481D01*
X5205Y9482D01*
X5207Y9484D01*
X5208Y9484D01*
X5213Y9489D01*
X5217Y9495D01*
X5219Y9501D01*
X5221Y9506D01*
X5222Y9511D01*
X5222Y9515D01*
X5223Y9517D01*
Y9519D01*
X5222Y9527D01*
X5220Y9534D01*
X5218Y9540D01*
X5215Y9545D01*
X5212Y9549D01*
X5210Y9552D01*
X5209Y9554D01*
X5208Y9555D01*
X5205Y9557D01*
X5202Y9559D01*
X5194Y9562D01*
X5185Y9564D01*
X5177Y9565D01*
X5170Y9566D01*
X5167Y9567D01*
X5164D01*
X5162Y9567D01*
D02*
G37*
G36*
X5185Y8527D02*
X5103Y8502D01*
X5185Y8477D01*
Y8527D01*
D02*
G37*
G36*
X616Y11514D02*
X613D01*
X612D01*
X611D01*
X603D01*
X595Y11514D01*
X588Y11513D01*
X581Y11511D01*
X576Y11510D01*
X570Y11509D01*
X565Y11507D01*
X561Y11505D01*
X554Y11503D01*
X549Y11500D01*
X546Y11498D01*
X545Y11497D01*
X538Y11490D01*
X534Y11483D01*
X530Y11475D01*
X527Y11468D01*
X526Y11461D01*
X525Y11456D01*
X525Y11453D01*
Y11451D01*
X526Y11441D01*
X528Y11431D01*
X531Y11423D01*
X535Y11416D01*
X538Y11411D01*
X541Y11408D01*
X543Y11405D01*
X545Y11404D01*
X553Y11398D01*
X563Y11394D01*
X573Y11391D01*
X583Y11389D01*
X593Y11388D01*
X597Y11387D01*
X600Y11387D01*
X603D01*
X606D01*
X607D01*
X607D01*
X617D01*
X625Y11387D01*
X633Y11388D01*
X640Y11389D01*
X646Y11390D01*
X652Y11392D01*
X657Y11394D01*
X662Y11395D01*
X666Y11397D01*
X669Y11398D01*
X672Y11400D01*
X674Y11401D01*
X677Y11403D01*
X678Y11404D01*
X684Y11410D01*
X689Y11418D01*
X692Y11426D01*
X695Y11433D01*
X696Y11440D01*
X697Y11445D01*
X697Y11448D01*
Y11450D01*
X696Y11461D01*
X694Y11470D01*
X691Y11479D01*
X687Y11485D01*
X683Y11490D01*
X681Y11494D01*
X678Y11497D01*
X677Y11498D01*
X673Y11500D01*
X669Y11503D01*
X658Y11507D01*
X647Y11510D01*
X637Y11512D01*
X627Y11513D01*
X622Y11514D01*
X618D01*
X616Y11514D01*
D02*
G37*
G36*
X588Y10487D02*
X520D01*
Y10461D01*
X521Y10452D01*
X522Y10444D01*
X524Y10438D01*
X525Y10433D01*
X527Y10430D01*
X529Y10427D01*
X530Y10426D01*
X530Y10425D01*
X534Y10422D01*
X538Y10420D01*
X542Y10417D01*
X546Y10416D01*
X550Y10416D01*
X552Y10415D01*
X554D01*
X555D01*
X560Y10416D01*
X565Y10417D01*
X569Y10419D01*
X572Y10421D01*
X575Y10423D01*
X577Y10425D01*
X578Y10426D01*
X579Y10426D01*
X582Y10431D01*
X584Y10437D01*
X586Y10444D01*
X587Y10450D01*
X587Y10455D01*
X588Y10460D01*
Y10487D01*
D02*
G37*
G36*
X619Y8079D02*
X615D01*
X612D01*
X610D01*
X610D01*
X599D01*
X590Y8079D01*
X581Y8078D01*
X573Y8078D01*
X566Y8077D01*
X560Y8077D01*
X554Y8075D01*
X549Y8074D01*
X545Y8074D01*
X541Y8073D01*
X538Y8072D01*
X536Y8072D01*
X534Y8071D01*
X532Y8070D01*
X531Y8070D01*
X524Y8066D01*
X519Y8061D01*
X515Y8056D01*
X512Y8051D01*
X511Y8047D01*
X510Y8043D01*
X510Y8040D01*
Y8039D01*
X511Y8032D01*
X513Y8026D01*
X516Y8020D01*
X520Y8016D01*
X524Y8013D01*
X527Y8010D01*
X530Y8009D01*
X531Y8008D01*
X535Y8007D01*
X540Y8005D01*
X546Y8003D01*
X552Y8002D01*
X566Y8000D01*
X580Y7999D01*
X592Y7998D01*
X598D01*
X602Y7998D01*
X607D01*
X610D01*
X612D01*
X612D01*
X627D01*
X639Y7998D01*
X649Y7999D01*
X658Y8000D01*
X664Y8001D01*
X669Y8002D01*
X672Y8003D01*
X673D01*
X679Y8004D01*
X686Y8007D01*
X690Y8009D01*
X694Y8011D01*
X697Y8013D01*
X699Y8015D01*
X701Y8016D01*
X701Y8017D01*
X704Y8020D01*
X706Y8024D01*
X708Y8028D01*
X709Y8032D01*
X709Y8034D01*
X710Y8037D01*
Y8039D01*
X709Y8046D01*
X707Y8052D01*
X703Y8057D01*
X699Y8062D01*
X696Y8065D01*
X692Y8067D01*
X690Y8069D01*
X689Y8069D01*
X684Y8071D01*
X679Y8073D01*
X674Y8074D01*
X668Y8075D01*
X654Y8077D01*
X641Y8078D01*
X629Y8079D01*
X623D01*
X619Y8079D01*
D02*
G37*
G36*
Y7654D02*
X615D01*
X612D01*
X610D01*
X610D01*
X599D01*
X590Y7654D01*
X581Y7653D01*
X573Y7652D01*
X566Y7652D01*
X560Y7651D01*
X554Y7650D01*
X549Y7649D01*
X545Y7649D01*
X541Y7647D01*
X538Y7647D01*
X536Y7646D01*
X534Y7646D01*
X532Y7645D01*
X531Y7645D01*
X524Y7641D01*
X519Y7636D01*
X515Y7631D01*
X512Y7626D01*
X511Y7621D01*
X510Y7618D01*
X510Y7615D01*
Y7614D01*
X511Y7607D01*
X513Y7601D01*
X516Y7595D01*
X520Y7591D01*
X524Y7588D01*
X527Y7585D01*
X530Y7584D01*
X531Y7583D01*
X535Y7581D01*
X540Y7580D01*
X546Y7578D01*
X552Y7577D01*
X566Y7575D01*
X580Y7574D01*
X592Y7573D01*
X598D01*
X602Y7573D01*
X607D01*
X610D01*
X612D01*
X612D01*
X627D01*
X639Y7573D01*
X649Y7574D01*
X658Y7575D01*
X664Y7576D01*
X669Y7577D01*
X672Y7578D01*
X673D01*
X679Y7579D01*
X686Y7581D01*
X690Y7584D01*
X694Y7586D01*
X697Y7588D01*
X699Y7590D01*
X701Y7591D01*
X701Y7591D01*
X704Y7595D01*
X706Y7599D01*
X708Y7603D01*
X709Y7606D01*
X709Y7609D01*
X710Y7612D01*
Y7614D01*
X709Y7621D01*
X707Y7627D01*
X703Y7632D01*
X699Y7636D01*
X696Y7640D01*
X692Y7642D01*
X690Y7644D01*
X689Y7644D01*
X684Y7646D01*
X679Y7647D01*
X674Y7649D01*
X668Y7650D01*
X654Y7652D01*
X641Y7653D01*
X629Y7654D01*
X623D01*
X619Y7654D01*
D02*
G37*
%LPD*%
D22*
X886Y4010D02*
D03*
X1310D02*
D03*
Y4570D02*
D03*
X886D02*
D03*
D23*
X1810Y1960D02*
D03*
X810D02*
D03*
D24*
X3080D02*
D03*
Y960D02*
D03*
Y2960D02*
D03*
Y3960D02*
D03*
X800Y960D02*
D03*
X1800D02*
D03*
D33*
X1998Y3548D02*
D03*
X1998Y3125D02*
D03*
X4993Y6792D02*
D03*
Y6368D02*
D03*
X923Y6792D02*
D03*
Y6368D02*
D03*
D34*
X4092Y5313D02*
D03*
Y5057D02*
D03*
Y5824D02*
D03*
Y5568D02*
D03*
Y6336D02*
D03*
Y6080D02*
D03*
Y6848D02*
D03*
Y6592D02*
D03*
Y7360D02*
D03*
Y7104D02*
D03*
X1808Y8383D02*
D03*
Y8127D02*
D03*
Y7872D02*
D03*
Y7616D02*
D03*
X4092Y8383D02*
D03*
Y8127D02*
D03*
Y7872D02*
D03*
Y7616D02*
D03*
X1808Y7360D02*
D03*
Y7104D02*
D03*
Y6848D02*
D03*
Y6592D02*
D03*
Y6336D02*
D03*
Y6080D02*
D03*
Y5824D02*
D03*
Y5568D02*
D03*
Y5313D02*
D03*
Y5057D02*
D03*
D35*
X923Y5427D02*
D03*
Y5073D02*
D03*
X4993Y5432D02*
D03*
Y5078D02*
D03*
D36*
X4686Y4570D02*
D03*
X5040D02*
D03*
D37*
X1791Y11267D02*
D03*
Y10480D02*
D03*
Y9693D02*
D03*
X4114Y11267D02*
D03*
Y10480D02*
D03*
Y9693D02*
D03*
M02*
