G04*
G04 #@! TF.GenerationSoftware,Altium Limited,Altium Designer,23.0.1 (38)*
G04*
G04 Layer_Physical_Order=1*
G04 Layer_Color=255*
%FSLAX24Y24*%
%MOIN*%
G70*
G04*
G04 #@! TF.SameCoordinates,212204B1-6FDB-4007-BCD0-930B6937FDD8*
G04*
G04*
G04 #@! TF.FilePolarity,Positive*
G04*
G01*
G75*
%ADD10C,0.0080*%
%ADD13C,0.0060*%
%ADD19R,0.0276X0.0354*%
%ADD20R,0.0236X0.0236*%
%ADD21R,0.0236X0.0236*%
G04:AMPARAMS|DCode=22|XSize=59.1mil|YSize=13.8mil|CornerRadius=3.4mil|HoleSize=0mil|Usage=FLASHONLY|Rotation=180.000|XOffset=0mil|YOffset=0mil|HoleType=Round|Shape=RoundedRectangle|*
%AMROUNDEDRECTD22*
21,1,0.0591,0.0069,0,0,180.0*
21,1,0.0522,0.0138,0,0,180.0*
1,1,0.0069,-0.0261,0.0034*
1,1,0.0069,0.0261,0.0034*
1,1,0.0069,0.0261,-0.0034*
1,1,0.0069,-0.0261,-0.0034*
%
%ADD22ROUNDEDRECTD22*%
%ADD23R,0.0217X0.0157*%
%ADD33C,0.0130*%
%ADD34C,0.0120*%
%ADD35C,0.0680*%
%ADD36C,0.0500*%
%ADD37C,0.1772*%
%ADD38C,0.0260*%
G36*
X7107Y14197D02*
X7188Y14163D01*
X7261Y14114D01*
X7323Y14052D01*
X7372Y13979D01*
X7405Y13898D01*
X7422Y13812D01*
Y13769D01*
Y11981D01*
X7374Y11968D01*
X7366Y11983D01*
X7284Y12065D01*
X7183Y12123D01*
X7071Y12153D01*
X7064D01*
Y11713D01*
Y11273D01*
X7071D01*
X7183Y11303D01*
X7284Y11361D01*
X7366Y11442D01*
X7374Y11457D01*
X7422Y11444D01*
X7422Y700D01*
X7422Y656D01*
X7405Y570D01*
X7372Y489D01*
X7323Y416D01*
X7261Y354D01*
X7188Y306D01*
X7107Y272D01*
X7021Y255D01*
X656D01*
X570Y272D01*
X489Y306D01*
X416Y354D01*
X354Y416D01*
X306Y489D01*
X272Y570D01*
X255Y656D01*
Y700D01*
Y3776D01*
X305Y3784D01*
X357Y3692D01*
X432Y3618D01*
X523Y3565D01*
X625Y3538D01*
X730D01*
X832Y3565D01*
X923Y3618D01*
X998Y3692D01*
X1050Y3784D01*
X1077Y3885D01*
Y3991D01*
X1050Y4092D01*
X998Y4184D01*
X923Y4258D01*
X832Y4311D01*
X730Y4338D01*
X625D01*
X523Y4311D01*
X432Y4258D01*
X357Y4184D01*
X305Y4092D01*
X255Y4100D01*
Y11520D01*
X305Y11534D01*
X344Y11467D01*
X418Y11393D01*
X509Y11340D01*
X611Y11313D01*
X716D01*
X818Y11340D01*
X909Y11393D01*
X984Y11467D01*
X1036Y11558D01*
X1064Y11660D01*
Y11765D01*
X1036Y11867D01*
X984Y11958D01*
X909Y12033D01*
X818Y12085D01*
X716Y12113D01*
X611D01*
X509Y12085D01*
X418Y12033D01*
X344Y11958D01*
X305Y11891D01*
X255Y11905D01*
Y13769D01*
Y13812D01*
X272Y13898D01*
X306Y13979D01*
X354Y14052D01*
X416Y14114D01*
X489Y14163D01*
X570Y14197D01*
X656Y14214D01*
X7021D01*
X7107Y14197D01*
D02*
G37*
%LPC*%
G36*
X7029Y13893D02*
X6947D01*
X6869Y13872D01*
X6798Y13831D01*
X6740Y13773D01*
X6699Y13702D01*
X6678Y13623D01*
Y13542D01*
X6699Y13463D01*
X6740Y13392D01*
X6798Y13335D01*
X6869Y13294D01*
X6947Y13273D01*
X7029D01*
X7108Y13294D01*
X7179Y13335D01*
X7236Y13392D01*
X7277Y13463D01*
X7298Y13542D01*
Y13623D01*
X7277Y13702D01*
X7236Y13773D01*
X7179Y13831D01*
X7108Y13872D01*
X7029Y13893D01*
D02*
G37*
G36*
X6242D02*
X6160D01*
X6081Y13872D01*
X6010Y13831D01*
X5953Y13773D01*
X5912Y13702D01*
X5891Y13623D01*
Y13542D01*
X5912Y13463D01*
X5926Y13438D01*
X5725Y13237D01*
X5705Y13207D01*
X5698Y13172D01*
Y13018D01*
X5648Y12999D01*
X5604Y13043D01*
X5533Y13084D01*
X5454Y13105D01*
X5373D01*
X5294Y13084D01*
X5223Y13043D01*
X5165Y12986D01*
X5125Y12915D01*
X5103Y12836D01*
Y12754D01*
X5125Y12676D01*
X5165Y12605D01*
X5223Y12547D01*
X5294Y12506D01*
X5373Y12485D01*
X5454D01*
X5533Y12506D01*
X5604Y12547D01*
X5625Y12568D01*
X5678Y12551D01*
X5682Y12526D01*
X5385Y12230D01*
X5365Y12200D01*
X5358Y12165D01*
Y12004D01*
X5308Y11984D01*
X5259Y12033D01*
X5168Y12085D01*
X5066Y12113D01*
X4961D01*
X4859Y12085D01*
X4768Y12033D01*
X4693Y11958D01*
X4641Y11867D01*
X4614Y11765D01*
Y11660D01*
X4641Y11558D01*
X4673Y11502D01*
X4288Y11116D01*
X4170D01*
X4155Y11114D01*
X4105Y11145D01*
Y11323D01*
X4168Y11340D01*
X4259Y11393D01*
X4334Y11467D01*
X4386Y11558D01*
X4414Y11660D01*
Y11765D01*
X4386Y11867D01*
X4334Y11958D01*
X4259Y12033D01*
X4168Y12085D01*
X4066Y12113D01*
X3961D01*
X3859Y12085D01*
X3768Y12033D01*
X3693Y11958D01*
X3641Y11867D01*
X3614Y11765D01*
Y11660D01*
X3641Y11558D01*
X3693Y11467D01*
X3768Y11393D01*
X3859Y11340D01*
X3922Y11323D01*
Y11076D01*
X3731Y10886D01*
X3684Y10879D01*
X3684Y10879D01*
X3348D01*
Y10832D01*
X3248D01*
Y10874D01*
X3022D01*
X2906Y10990D01*
X2876Y11010D01*
X2841Y11016D01*
X2698D01*
X2691Y11032D01*
X2638Y11086D01*
X2568Y11115D01*
X2492D01*
X2422Y11086D01*
X2369Y11032D01*
X2340Y10963D01*
Y10887D01*
X2369Y10817D01*
X2422Y10764D01*
X2492Y10735D01*
X2568D01*
X2638Y10764D01*
X2691Y10817D01*
X2698Y10833D01*
X2803D01*
X2892Y10744D01*
Y10518D01*
X3248D01*
Y10648D01*
X3348D01*
Y10320D01*
X3248D01*
Y10451D01*
X2892D01*
Y10094D01*
X3248D01*
Y10137D01*
X3348D01*
Y10090D01*
X3424D01*
Y9631D01*
X3374Y9616D01*
X3365Y9629D01*
X3125Y9870D01*
X3095Y9890D01*
X3060Y9896D01*
X2658D01*
X2452Y10102D01*
Y10172D01*
X2468Y10179D01*
X2521Y10232D01*
X2550Y10302D01*
Y10378D01*
X2521Y10448D01*
X2468Y10501D01*
X2398Y10530D01*
X2322D01*
X2252Y10501D01*
X2202Y10450D01*
X2188Y10452D01*
X2152Y10464D01*
Y10592D01*
X2168Y10599D01*
X2221Y10652D01*
X2250Y10722D01*
Y10798D01*
X2221Y10868D01*
X2168Y10921D01*
X2098Y10950D01*
X2022D01*
X1952Y10921D01*
X1899Y10868D01*
X1870Y10798D01*
Y10722D01*
X1899Y10652D01*
X1952Y10599D01*
X1968Y10592D01*
Y10195D01*
X1975Y10160D01*
X1995Y10130D01*
X2435Y9690D01*
X2418Y9636D01*
X2415Y9635D01*
X1790Y10260D01*
X1398D01*
Y10348D01*
X962D01*
Y10185D01*
X958D01*
Y10017D01*
X1176D01*
X1394D01*
Y10090D01*
X1610D01*
X2299Y9401D01*
Y9394D01*
X2309Y9341D01*
X2339Y9297D01*
X2347Y9244D01*
X2340Y9207D01*
Y9138D01*
X2347Y9101D01*
X2368Y9070D01*
Y9055D01*
X2322Y9008D01*
X1436D01*
X1401Y9001D01*
X1371Y8981D01*
X915Y8525D01*
X895Y8495D01*
X888Y8460D01*
Y5957D01*
X839Y5908D01*
X810Y5838D01*
Y5762D01*
X839Y5692D01*
X892Y5639D01*
X962Y5610D01*
X1038D01*
X1108Y5639D01*
X1161Y5692D01*
X1190Y5762D01*
Y5838D01*
X1161Y5908D01*
X1108Y5961D01*
X1072Y5976D01*
Y8422D01*
X1474Y8825D01*
X2361D01*
X2368Y8814D01*
Y8763D01*
X2347Y8732D01*
X2340Y8695D01*
Y8626D01*
X2347Y8589D01*
X2368Y8558D01*
Y8507D01*
X2347Y8476D01*
X2340Y8439D01*
Y8370D01*
X2347Y8333D01*
X2368Y8302D01*
Y8251D01*
X2347Y8220D01*
X2340Y8183D01*
Y8114D01*
X2347Y8077D01*
X2368Y8046D01*
Y7995D01*
X2347Y7964D01*
X2340Y7927D01*
Y7858D01*
X2347Y7821D01*
X2368Y7790D01*
Y7739D01*
X2347Y7708D01*
X2340Y7671D01*
Y7602D01*
X2347Y7565D01*
X2368Y7534D01*
Y7483D01*
X2347Y7452D01*
X2340Y7415D01*
Y7346D01*
X2347Y7310D01*
X2368Y7278D01*
Y7228D01*
X2347Y7196D01*
X2340Y7159D01*
Y7091D01*
X2347Y7054D01*
X2368Y7022D01*
Y6972D01*
X2347Y6940D01*
X2340Y6903D01*
Y6835D01*
X2347Y6798D01*
X2368Y6767D01*
Y6716D01*
X2347Y6684D01*
X2340Y6648D01*
Y6579D01*
X2347Y6542D01*
X2368Y6511D01*
Y6460D01*
X2347Y6429D01*
X2340Y6392D01*
Y6323D01*
X2347Y6286D01*
X2368Y6255D01*
Y6204D01*
X2347Y6173D01*
X2340Y6136D01*
Y6067D01*
X2347Y6030D01*
X2368Y5999D01*
X2399Y5978D01*
X2436Y5971D01*
X2958D01*
X2995Y5978D01*
X3026Y5999D01*
X3047Y6030D01*
X3054Y6067D01*
Y6136D01*
X3047Y6173D01*
X3026Y6204D01*
Y6255D01*
X3047Y6286D01*
X3054Y6323D01*
Y6392D01*
X3047Y6429D01*
X3026Y6460D01*
Y6511D01*
X3047Y6542D01*
X3054Y6579D01*
Y6648D01*
X3047Y6684D01*
X3026Y6716D01*
Y6767D01*
X3047Y6798D01*
X3054Y6835D01*
Y6903D01*
X3047Y6940D01*
X3026Y6972D01*
Y7022D01*
X3047Y7054D01*
X3054Y7091D01*
Y7159D01*
X3047Y7196D01*
X3026Y7228D01*
Y7278D01*
X3047Y7310D01*
X3054Y7346D01*
Y7415D01*
X3047Y7452D01*
X3026Y7483D01*
Y7534D01*
X3047Y7565D01*
X3054Y7602D01*
Y7632D01*
X3080Y7644D01*
X3104Y7647D01*
X3152Y7599D01*
X3222Y7570D01*
X3298D01*
X3368Y7599D01*
X3421Y7652D01*
X3450Y7722D01*
Y7798D01*
X3421Y7868D01*
X3368Y7921D01*
X3298Y7950D01*
X3222D01*
X3206Y7943D01*
X3192Y7958D01*
X3162Y7977D01*
X3127Y7984D01*
X3071D01*
X3050Y8034D01*
X3071Y8057D01*
X3345D01*
X3359Y8022D01*
X3412Y7969D01*
X3482Y7940D01*
X3558D01*
X3628Y7969D01*
X3681Y8022D01*
X3710Y8092D01*
Y8168D01*
X3681Y8238D01*
X3628Y8291D01*
X3599Y8303D01*
Y8357D01*
X3628Y8369D01*
X3681Y8422D01*
X3710Y8492D01*
Y8568D01*
X3681Y8638D01*
X3628Y8691D01*
X3558Y8720D01*
X3482D01*
X3412Y8691D01*
X3359Y8638D01*
X3352Y8622D01*
X3268D01*
X3247Y8672D01*
X3365Y8790D01*
X3385Y8820D01*
X3392Y8855D01*
Y9178D01*
X3442Y9193D01*
X3451Y9179D01*
X4549Y8081D01*
X4579Y8061D01*
X4605Y8056D01*
X4619Y8031D01*
X4625Y8004D01*
X4606Y7984D01*
X4433D01*
X4398Y7977D01*
X4368Y7958D01*
X4075Y7665D01*
X4055Y7635D01*
X4048Y7600D01*
Y6578D01*
X3002Y5532D01*
X2602D01*
X2591Y5558D01*
X2537Y5611D01*
X2468Y5640D01*
X2392D01*
X2322Y5611D01*
X2269Y5558D01*
X2240Y5488D01*
Y5412D01*
X2269Y5342D01*
X2322Y5289D01*
X2392Y5260D01*
X2468D01*
X2537Y5289D01*
X2591Y5342D01*
X2593Y5348D01*
X3040D01*
X3075Y5355D01*
X3105Y5375D01*
X4205Y6475D01*
X4225Y6505D01*
X4232Y6540D01*
Y7562D01*
X4471Y7801D01*
X4644D01*
X4651Y7790D01*
Y7739D01*
X4631Y7708D01*
X4623Y7671D01*
Y7602D01*
X4631Y7565D01*
X4651Y7534D01*
Y7508D01*
X4617Y7464D01*
X4582Y7457D01*
X4552Y7437D01*
X4425Y7310D01*
X4405Y7280D01*
X4398Y7245D01*
Y6740D01*
X4405Y6705D01*
X4425Y6676D01*
X4552Y6548D01*
X4582Y6528D01*
X4617Y6521D01*
X4644D01*
X4651Y6511D01*
Y6460D01*
X4631Y6429D01*
X4623Y6392D01*
Y6323D01*
X4631Y6286D01*
X4651Y6255D01*
Y6204D01*
X4631Y6173D01*
X4623Y6136D01*
Y6067D01*
X4631Y6030D01*
X4651Y5999D01*
X4683Y5978D01*
X4719Y5971D01*
X5241D01*
X5278Y5978D01*
X5309Y5999D01*
X5330Y6030D01*
X5337Y6067D01*
Y6136D01*
X5330Y6173D01*
X5309Y6204D01*
Y6255D01*
X5330Y6286D01*
X5337Y6323D01*
Y6344D01*
X5387Y6354D01*
X5409Y6302D01*
X5462Y6249D01*
X5532Y6220D01*
X5608D01*
X5678Y6249D01*
X5731Y6302D01*
X5760Y6372D01*
Y6448D01*
X5731Y6518D01*
X5678Y6571D01*
X5608Y6600D01*
X5532D01*
X5516Y6593D01*
X5432Y6678D01*
X5402Y6698D01*
X5367Y6705D01*
X5351D01*
X5322Y6755D01*
X5334Y6777D01*
X5369Y6784D01*
X5399Y6804D01*
X5475Y6880D01*
X5495Y6910D01*
X5502Y6945D01*
Y7640D01*
Y8065D01*
X5495Y8100D01*
X5475Y8130D01*
X5419Y8186D01*
X5404Y8201D01*
X5432Y8239D01*
X5502Y8210D01*
X5578D01*
X5594Y8217D01*
X5653Y8157D01*
X5683Y8137D01*
X5718Y8130D01*
X5822D01*
Y8044D01*
X6178D01*
Y8130D01*
X6287D01*
X6322Y8095D01*
X6322Y8038D01*
X6283Y8011D01*
X6282D01*
Y7843D01*
X6718D01*
Y8011D01*
X6717D01*
X6678Y8038D01*
X6678Y8061D01*
Y8338D01*
X6822D01*
Y8066D01*
X6822Y8044D01*
X6783Y8016D01*
X6782D01*
Y7848D01*
X7218D01*
Y8016D01*
X7217D01*
X7178Y8044D01*
X7178Y8066D01*
Y8400D01*
X7052D01*
X6957Y8495D01*
X6927Y8515D01*
X6892Y8522D01*
X5908D01*
X5766Y8664D01*
X5787Y8714D01*
X5848Y8739D01*
X5901Y8792D01*
X5930Y8862D01*
Y8934D01*
X5958Y8960D01*
X5968Y8968D01*
X6007Y8953D01*
Y8953D01*
X6403D01*
X6403Y9427D01*
X6451Y9432D01*
X6506D01*
Y9433D01*
X6534Y9472D01*
X6585Y9472D01*
X6597Y9427D01*
X6597D01*
Y8953D01*
X6993D01*
Y9427D01*
X6903D01*
X6890Y9472D01*
X6890D01*
Y9828D01*
X6556D01*
X6534Y9828D01*
X6506Y9867D01*
Y9868D01*
X6338D01*
Y9650D01*
X6288D01*
Y9600D01*
X6070D01*
X6070Y9432D01*
X6022Y9427D01*
X6007D01*
Y9202D01*
X5940D01*
X5901Y9194D01*
X5868Y9172D01*
X5783Y9088D01*
X5778Y9090D01*
X5702D01*
X5632Y9061D01*
X5579Y9008D01*
X5554Y8947D01*
X5504Y8926D01*
X5468Y8962D01*
X5438Y8982D01*
X5403Y8989D01*
X5329D01*
X5309Y9019D01*
Y9043D01*
X5325Y9088D01*
X5360Y9095D01*
X5390Y9115D01*
X5445Y9170D01*
X5465Y9200D01*
X5472Y9235D01*
Y10162D01*
X5723Y10413D01*
X6007D01*
Y10373D01*
X6070D01*
Y10210D01*
X6288D01*
Y10160D01*
X6338D01*
Y9942D01*
X6506D01*
Y9943D01*
X6534Y9982D01*
X6556Y9982D01*
X6890D01*
Y10338D01*
X6926Y10373D01*
X6993D01*
Y10731D01*
X6995Y10740D01*
X6993Y10749D01*
Y10847D01*
X6597D01*
Y10395D01*
X6555Y10355D01*
X6520Y10358D01*
X6506Y10377D01*
Y10378D01*
X6403D01*
Y10847D01*
X6007D01*
Y10596D01*
X5685D01*
X5650Y10589D01*
X5620Y10570D01*
X5315Y10265D01*
X5295Y10235D01*
X5288Y10200D01*
Y9600D01*
X5241Y9559D01*
X5072D01*
Y9647D01*
X5088Y9654D01*
X5141Y9707D01*
X5170Y9777D01*
Y9853D01*
X5141Y9922D01*
X5088Y9976D01*
X5018Y10005D01*
X4942D01*
X4926Y9998D01*
X4879Y10046D01*
X4868Y10094D01*
X4868D01*
X4868Y10094D01*
Y10428D01*
X4868Y10451D01*
X4907Y10478D01*
X4908D01*
Y10646D01*
X4690D01*
Y10696D01*
X4640D01*
Y10914D01*
X4472D01*
Y10734D01*
X4427Y10692D01*
X4416Y10695D01*
X4412Y10698D01*
Y10879D01*
X4275D01*
X4248Y10929D01*
X4251Y10933D01*
X4326D01*
X4361Y10940D01*
X4391Y10960D01*
X4803Y11372D01*
X4859Y11340D01*
X4961Y11313D01*
X5066D01*
X5168Y11340D01*
X5259Y11393D01*
X5264Y11397D01*
X5310Y11372D01*
X5308Y11365D01*
Y11078D01*
X5292Y11071D01*
X5239Y11018D01*
X5210Y10948D01*
Y10872D01*
X5239Y10802D01*
X5292Y10749D01*
X5362Y10720D01*
X5438D01*
X5508Y10749D01*
X5561Y10802D01*
X5590Y10872D01*
Y10948D01*
X5561Y11018D01*
X5508Y11071D01*
X5492Y11078D01*
Y11327D01*
X5515Y11350D01*
X5535Y11380D01*
X5542Y11415D01*
Y12127D01*
X5855Y12440D01*
X5875Y12470D01*
X5882Y12505D01*
Y12554D01*
X5932Y12569D01*
X5986Y12515D01*
X6066Y12469D01*
X6151Y12446D01*
Y12795D01*
Y13144D01*
X6066Y13121D01*
X5986Y13075D01*
X5932Y13021D01*
X5882Y13037D01*
Y13134D01*
X6056Y13308D01*
X6081Y13294D01*
X6160Y13273D01*
X6242D01*
X6320Y13294D01*
X6391Y13335D01*
X6449Y13392D01*
X6490Y13463D01*
X6511Y13542D01*
Y13623D01*
X6490Y13702D01*
X6449Y13773D01*
X6391Y13831D01*
X6320Y13872D01*
X6242Y13893D01*
D02*
G37*
G36*
X5454D02*
X5373D01*
X5294Y13872D01*
X5223Y13831D01*
X5165Y13773D01*
X5125Y13702D01*
X5103Y13623D01*
Y13542D01*
X5125Y13463D01*
X5165Y13392D01*
X5223Y13335D01*
X5294Y13294D01*
X5373Y13273D01*
X5454D01*
X5533Y13294D01*
X5604Y13335D01*
X5661Y13392D01*
X5702Y13463D01*
X5723Y13542D01*
Y13623D01*
X5702Y13702D01*
X5661Y13773D01*
X5604Y13831D01*
X5533Y13872D01*
X5454Y13893D01*
D02*
G37*
G36*
X4667D02*
X4585D01*
X4506Y13872D01*
X4436Y13831D01*
X4378Y13773D01*
X4337Y13702D01*
X4316Y13623D01*
Y13542D01*
X4337Y13463D01*
X4378Y13392D01*
X4436Y13335D01*
X4506Y13294D01*
X4585Y13273D01*
X4667D01*
X4746Y13294D01*
X4816Y13335D01*
X4874Y13392D01*
X4915Y13463D01*
X4936Y13542D01*
Y13623D01*
X4915Y13702D01*
X4874Y13773D01*
X4816Y13831D01*
X4746Y13872D01*
X4667Y13893D01*
D02*
G37*
G36*
X3879D02*
X3798D01*
X3719Y13872D01*
X3648Y13831D01*
X3591Y13773D01*
X3550Y13702D01*
X3529Y13623D01*
Y13542D01*
X3550Y13463D01*
X3591Y13392D01*
X3648Y13335D01*
X3719Y13294D01*
X3798Y13273D01*
X3879D01*
X3958Y13294D01*
X4029Y13335D01*
X4087Y13392D01*
X4127Y13463D01*
X4149Y13542D01*
Y13623D01*
X4127Y13702D01*
X4087Y13773D01*
X4029Y13831D01*
X3958Y13872D01*
X3879Y13893D01*
D02*
G37*
G36*
X3092D02*
X3010D01*
X2932Y13872D01*
X2861Y13831D01*
X2803Y13773D01*
X2762Y13702D01*
X2741Y13623D01*
Y13542D01*
X2762Y13463D01*
X2803Y13392D01*
X2861Y13335D01*
X2932Y13294D01*
X3010Y13273D01*
X3092D01*
X3171Y13294D01*
X3242Y13335D01*
X3299Y13392D01*
X3340Y13463D01*
X3361Y13542D01*
Y13623D01*
X3340Y13702D01*
X3299Y13773D01*
X3242Y13831D01*
X3171Y13872D01*
X3092Y13893D01*
D02*
G37*
G36*
X2305D02*
X2223D01*
X2144Y13872D01*
X2073Y13831D01*
X2016Y13773D01*
X1975Y13702D01*
X1954Y13623D01*
Y13542D01*
X1975Y13463D01*
X2016Y13392D01*
X2073Y13335D01*
X2144Y13294D01*
X2223Y13273D01*
X2305D01*
X2383Y13294D01*
X2454Y13335D01*
X2512Y13392D01*
X2553Y13463D01*
X2574Y13542D01*
Y13623D01*
X2553Y13702D01*
X2512Y13773D01*
X2454Y13831D01*
X2383Y13872D01*
X2305Y13893D01*
D02*
G37*
G36*
X1517D02*
X1436D01*
X1357Y13872D01*
X1286Y13831D01*
X1228Y13773D01*
X1188Y13702D01*
X1166Y13623D01*
Y13542D01*
X1188Y13463D01*
X1228Y13392D01*
X1286Y13335D01*
X1357Y13294D01*
X1436Y13273D01*
X1517D01*
X1596Y13294D01*
X1667Y13335D01*
X1724Y13392D01*
X1765Y13463D01*
X1786Y13542D01*
Y13623D01*
X1765Y13702D01*
X1724Y13773D01*
X1667Y13831D01*
X1596Y13872D01*
X1517Y13893D01*
D02*
G37*
G36*
X730D02*
X648D01*
X569Y13872D01*
X499Y13831D01*
X441Y13773D01*
X400Y13702D01*
X379Y13623D01*
Y13542D01*
X400Y13463D01*
X441Y13392D01*
X499Y13335D01*
X569Y13294D01*
X648Y13273D01*
X730D01*
X809Y13294D01*
X879Y13335D01*
X937Y13392D01*
X978Y13463D01*
X999Y13542D01*
Y13623D01*
X978Y13702D01*
X937Y13773D01*
X879Y13831D01*
X809Y13872D01*
X730Y13893D01*
D02*
G37*
G36*
X6251Y13144D02*
Y12845D01*
X6550D01*
X6527Y12930D01*
X6481Y13010D01*
X6416Y13075D01*
X6336Y13121D01*
X6251Y13144D01*
D02*
G37*
G36*
X7029Y13105D02*
X6947D01*
X6869Y13084D01*
X6798Y13043D01*
X6740Y12986D01*
X6699Y12915D01*
X6678Y12836D01*
Y12754D01*
X6699Y12676D01*
X6740Y12605D01*
X6798Y12547D01*
X6869Y12506D01*
X6947Y12485D01*
X7029D01*
X7108Y12506D01*
X7179Y12547D01*
X7236Y12605D01*
X7277Y12676D01*
X7298Y12754D01*
Y12836D01*
X7277Y12915D01*
X7236Y12986D01*
X7179Y13043D01*
X7108Y13084D01*
X7029Y13105D01*
D02*
G37*
G36*
X4667D02*
X4585D01*
X4506Y13084D01*
X4436Y13043D01*
X4378Y12986D01*
X4337Y12915D01*
X4316Y12836D01*
Y12754D01*
X4337Y12676D01*
X4378Y12605D01*
X4436Y12547D01*
X4506Y12506D01*
X4585Y12485D01*
X4667D01*
X4746Y12506D01*
X4816Y12547D01*
X4874Y12605D01*
X4915Y12676D01*
X4936Y12754D01*
Y12836D01*
X4915Y12915D01*
X4874Y12986D01*
X4816Y13043D01*
X4746Y13084D01*
X4667Y13105D01*
D02*
G37*
G36*
X3879D02*
X3798D01*
X3719Y13084D01*
X3648Y13043D01*
X3591Y12986D01*
X3550Y12915D01*
X3529Y12836D01*
Y12754D01*
X3550Y12676D01*
X3591Y12605D01*
X3648Y12547D01*
X3719Y12506D01*
X3798Y12485D01*
X3879D01*
X3958Y12506D01*
X4029Y12547D01*
X4087Y12605D01*
X4127Y12676D01*
X4149Y12754D01*
Y12836D01*
X4127Y12915D01*
X4087Y12986D01*
X4029Y13043D01*
X3958Y13084D01*
X3879Y13105D01*
D02*
G37*
G36*
X3092D02*
X3010D01*
X2932Y13084D01*
X2861Y13043D01*
X2803Y12986D01*
X2762Y12915D01*
X2741Y12836D01*
Y12754D01*
X2762Y12676D01*
X2803Y12605D01*
X2861Y12547D01*
X2932Y12506D01*
X3010Y12485D01*
X3092D01*
X3171Y12506D01*
X3242Y12547D01*
X3299Y12605D01*
X3340Y12676D01*
X3361Y12754D01*
Y12836D01*
X3340Y12915D01*
X3299Y12986D01*
X3242Y13043D01*
X3171Y13084D01*
X3092Y13105D01*
D02*
G37*
G36*
X2305D02*
X2223D01*
X2144Y13084D01*
X2073Y13043D01*
X2016Y12986D01*
X1975Y12915D01*
X1954Y12836D01*
Y12754D01*
X1975Y12676D01*
X2016Y12605D01*
X2073Y12547D01*
X2144Y12506D01*
X2223Y12485D01*
X2305D01*
X2383Y12506D01*
X2454Y12547D01*
X2512Y12605D01*
X2553Y12676D01*
X2574Y12754D01*
Y12836D01*
X2553Y12915D01*
X2512Y12986D01*
X2454Y13043D01*
X2383Y13084D01*
X2305Y13105D01*
D02*
G37*
G36*
X1517D02*
X1436D01*
X1357Y13084D01*
X1286Y13043D01*
X1228Y12986D01*
X1188Y12915D01*
X1166Y12836D01*
Y12754D01*
X1188Y12676D01*
X1228Y12605D01*
X1286Y12547D01*
X1357Y12506D01*
X1436Y12485D01*
X1517D01*
X1596Y12506D01*
X1667Y12547D01*
X1724Y12605D01*
X1765Y12676D01*
X1786Y12754D01*
Y12836D01*
X1765Y12915D01*
X1724Y12986D01*
X1667Y13043D01*
X1596Y13084D01*
X1517Y13105D01*
D02*
G37*
G36*
X730D02*
X648D01*
X569Y13084D01*
X499Y13043D01*
X441Y12986D01*
X400Y12915D01*
X379Y12836D01*
Y12754D01*
X400Y12676D01*
X441Y12605D01*
X499Y12547D01*
X569Y12506D01*
X648Y12485D01*
X730D01*
X809Y12506D01*
X879Y12547D01*
X937Y12605D01*
X978Y12676D01*
X999Y12754D01*
Y12836D01*
X978Y12915D01*
X937Y12986D01*
X879Y13043D01*
X809Y13084D01*
X730Y13105D01*
D02*
G37*
G36*
X6550Y12745D02*
X6251D01*
Y12446D01*
X6336Y12469D01*
X6416Y12515D01*
X6481Y12580D01*
X6527Y12660D01*
X6550Y12745D01*
D02*
G37*
G36*
X6964Y12153D02*
X6956D01*
X6844Y12123D01*
X6743Y12065D01*
X6661Y11983D01*
X6604Y11882D01*
X6574Y11771D01*
Y11763D01*
X6964D01*
Y12153D01*
D02*
G37*
G36*
X6066Y12113D02*
X5961D01*
X5859Y12085D01*
X5768Y12033D01*
X5693Y11958D01*
X5641Y11867D01*
X5614Y11765D01*
Y11660D01*
X5641Y11558D01*
X5693Y11467D01*
X5768Y11393D01*
X5859Y11340D01*
X5961Y11313D01*
X6066D01*
X6168Y11340D01*
X6259Y11393D01*
X6334Y11467D01*
X6386Y11558D01*
X6414Y11660D01*
Y11765D01*
X6386Y11867D01*
X6334Y11958D01*
X6259Y12033D01*
X6168Y12085D01*
X6066Y12113D01*
D02*
G37*
G36*
X1716D02*
X1611D01*
X1509Y12085D01*
X1418Y12033D01*
X1344Y11958D01*
X1291Y11867D01*
X1264Y11765D01*
Y11660D01*
X1291Y11558D01*
X1344Y11467D01*
X1418Y11393D01*
X1509Y11340D01*
X1611Y11313D01*
X1716D01*
X1818Y11340D01*
X1909Y11393D01*
X1984Y11467D01*
X2036Y11558D01*
X2064Y11660D01*
Y11765D01*
X2036Y11867D01*
X1984Y11958D01*
X1909Y12033D01*
X1818Y12085D01*
X1716Y12113D01*
D02*
G37*
G36*
X6964Y11663D02*
X6574D01*
Y11655D01*
X6604Y11543D01*
X6661Y11442D01*
X6743Y11361D01*
X6844Y11303D01*
X6956Y11273D01*
X6964D01*
Y11663D01*
D02*
G37*
G36*
X4908Y10914D02*
X4740D01*
Y10746D01*
X4908D01*
Y10914D01*
D02*
G37*
G36*
X888Y11020D02*
X812D01*
X742Y10991D01*
X689Y10938D01*
X660Y10868D01*
Y10792D01*
X689Y10722D01*
X742Y10669D01*
X812Y10640D01*
X888D01*
X918Y10652D01*
X933Y10643D01*
X962Y10617D01*
X962Y10616D01*
X962D01*
Y10448D01*
X1398D01*
Y10616D01*
X1397D01*
X1358Y10644D01*
X1358Y10666D01*
Y11000D01*
X1002D01*
X1002Y11000D01*
X952Y10993D01*
X888Y11020D01*
D02*
G37*
G36*
X6238Y10110D02*
X6070D01*
Y9942D01*
X6238D01*
Y10110D01*
D02*
G37*
G36*
Y9868D02*
X6070D01*
Y9700D01*
X6238D01*
Y9868D01*
D02*
G37*
G36*
X1394Y9917D02*
X1176D01*
X958D01*
Y9748D01*
X959D01*
X998Y9721D01*
X998Y9698D01*
Y9365D01*
X998Y9365D01*
X1014Y9315D01*
X990Y9258D01*
Y9182D01*
X1019Y9112D01*
X1072Y9059D01*
X1142Y9030D01*
X1218D01*
X1288Y9059D01*
X1341Y9112D01*
X1370Y9182D01*
Y9258D01*
X1346Y9315D01*
X1354Y9365D01*
X1354D01*
X1354Y9365D01*
Y9698D01*
X1354Y9721D01*
X1393Y9748D01*
X1394D01*
Y9917D01*
D02*
G37*
G36*
X7218Y7748D02*
X7050D01*
Y7580D01*
X7218D01*
Y7748D01*
D02*
G37*
G36*
X6950D02*
X6782D01*
Y7580D01*
X6950D01*
Y7748D01*
D02*
G37*
G36*
X6718Y7743D02*
X6550D01*
Y7575D01*
X6718D01*
Y7743D01*
D02*
G37*
G36*
X6178Y7976D02*
X5822D01*
Y7620D01*
X6034D01*
X6140Y7514D01*
X6162Y7471D01*
X6109Y7418D01*
X6080Y7348D01*
Y7272D01*
X6109Y7202D01*
X6162Y7149D01*
X6232Y7120D01*
X6308D01*
X6378Y7149D01*
X6431Y7202D01*
X6460Y7272D01*
Y7348D01*
X6431Y7418D01*
X6378Y7471D01*
X6372Y7473D01*
Y7528D01*
X6414Y7575D01*
X6450D01*
Y7743D01*
X6282D01*
Y7726D01*
X6236Y7707D01*
X6178Y7764D01*
Y7976D01*
D02*
G37*
G36*
X1735Y4378D02*
X1727D01*
Y3988D01*
X2117D01*
Y3996D01*
X2087Y4108D01*
X2030Y4208D01*
X1948Y4290D01*
X1847Y4348D01*
X1735Y4378D01*
D02*
G37*
G36*
X1627D02*
X1620D01*
X1508Y4348D01*
X1407Y4290D01*
X1325Y4208D01*
X1267Y4108D01*
X1237Y3996D01*
Y3988D01*
X1627D01*
Y4378D01*
D02*
G37*
G36*
X2117Y3888D02*
X1727D01*
Y3498D01*
X1735D01*
X1847Y3528D01*
X1948Y3586D01*
X2030Y3668D01*
X2087Y3768D01*
X2117Y3880D01*
Y3888D01*
D02*
G37*
G36*
X1627D02*
X1237D01*
Y3880D01*
X1267Y3768D01*
X1325Y3668D01*
X1407Y3586D01*
X1508Y3528D01*
X1620Y3498D01*
X1627D01*
Y3888D01*
D02*
G37*
G36*
X3932Y5351D02*
X3745D01*
X3563Y5314D01*
X3391Y5243D01*
X3236Y5139D01*
X3104Y5008D01*
X3000Y4853D01*
X2929Y4681D01*
X2893Y4498D01*
Y4312D01*
X2929Y4129D01*
X3000Y3957D01*
X3104Y3802D01*
X3236Y3670D01*
X3391Y3567D01*
X3563Y3495D01*
X3745Y3459D01*
X3932D01*
X4114Y3495D01*
X4287Y3567D01*
X4442Y3670D01*
X4573Y3802D01*
X4677Y3957D01*
X4748Y4129D01*
X4784Y4312D01*
Y4498D01*
X4748Y4681D01*
X4677Y4853D01*
X4573Y5008D01*
X4442Y5139D01*
X4287Y5243D01*
X4114Y5314D01*
X3932Y5351D01*
D02*
G37*
G36*
X7029Y1983D02*
X6947D01*
X6869Y1962D01*
X6798Y1921D01*
X6740Y1864D01*
X6699Y1793D01*
X6678Y1714D01*
Y1632D01*
X6699Y1554D01*
X6740Y1483D01*
X6798Y1425D01*
X6869Y1384D01*
X6947Y1363D01*
X7029D01*
X7108Y1384D01*
X7179Y1425D01*
X7236Y1483D01*
X7277Y1554D01*
X7298Y1632D01*
Y1714D01*
X7277Y1793D01*
X7236Y1864D01*
X7179Y1921D01*
X7108Y1962D01*
X7029Y1983D01*
D02*
G37*
G36*
X6242D02*
X6160D01*
X6081Y1962D01*
X6010Y1921D01*
X5953Y1864D01*
X5912Y1793D01*
X5891Y1714D01*
Y1632D01*
X5912Y1554D01*
X5953Y1483D01*
X6010Y1425D01*
X6081Y1384D01*
X6160Y1363D01*
X6242D01*
X6320Y1384D01*
X6391Y1425D01*
X6449Y1483D01*
X6490Y1554D01*
X6511Y1632D01*
Y1714D01*
X6490Y1793D01*
X6449Y1864D01*
X6391Y1921D01*
X6320Y1962D01*
X6242Y1983D01*
D02*
G37*
G36*
X5454D02*
X5373D01*
X5294Y1962D01*
X5223Y1921D01*
X5165Y1864D01*
X5125Y1793D01*
X5103Y1714D01*
Y1632D01*
X5125Y1554D01*
X5165Y1483D01*
X5223Y1425D01*
X5294Y1384D01*
X5373Y1363D01*
X5454D01*
X5533Y1384D01*
X5604Y1425D01*
X5661Y1483D01*
X5702Y1554D01*
X5723Y1632D01*
Y1714D01*
X5702Y1793D01*
X5661Y1864D01*
X5604Y1921D01*
X5533Y1962D01*
X5454Y1983D01*
D02*
G37*
G36*
X4667D02*
X4585D01*
X4506Y1962D01*
X4436Y1921D01*
X4378Y1864D01*
X4337Y1793D01*
X4316Y1714D01*
Y1632D01*
X4337Y1554D01*
X4378Y1483D01*
X4436Y1425D01*
X4506Y1384D01*
X4585Y1363D01*
X4667D01*
X4746Y1384D01*
X4816Y1425D01*
X4874Y1483D01*
X4915Y1554D01*
X4936Y1632D01*
Y1714D01*
X4915Y1793D01*
X4874Y1864D01*
X4816Y1921D01*
X4746Y1962D01*
X4667Y1983D01*
D02*
G37*
G36*
X3879D02*
X3798D01*
X3719Y1962D01*
X3648Y1921D01*
X3591Y1864D01*
X3550Y1793D01*
X3529Y1714D01*
Y1632D01*
X3550Y1554D01*
X3591Y1483D01*
X3648Y1425D01*
X3719Y1384D01*
X3798Y1363D01*
X3879D01*
X3958Y1384D01*
X4029Y1425D01*
X4087Y1483D01*
X4127Y1554D01*
X4149Y1632D01*
Y1714D01*
X4127Y1793D01*
X4087Y1864D01*
X4029Y1921D01*
X3958Y1962D01*
X3879Y1983D01*
D02*
G37*
G36*
X3092D02*
X3010D01*
X2932Y1962D01*
X2861Y1921D01*
X2803Y1864D01*
X2762Y1793D01*
X2741Y1714D01*
Y1632D01*
X2762Y1554D01*
X2803Y1483D01*
X2861Y1425D01*
X2932Y1384D01*
X3010Y1363D01*
X3092D01*
X3171Y1384D01*
X3242Y1425D01*
X3299Y1483D01*
X3340Y1554D01*
X3361Y1632D01*
Y1714D01*
X3340Y1793D01*
X3299Y1864D01*
X3242Y1921D01*
X3171Y1962D01*
X3092Y1983D01*
D02*
G37*
G36*
X2305D02*
X2223D01*
X2144Y1962D01*
X2073Y1921D01*
X2016Y1864D01*
X1975Y1793D01*
X1954Y1714D01*
Y1632D01*
X1975Y1554D01*
X2016Y1483D01*
X2073Y1425D01*
X2144Y1384D01*
X2223Y1363D01*
X2305D01*
X2383Y1384D01*
X2454Y1425D01*
X2512Y1483D01*
X2553Y1554D01*
X2574Y1632D01*
Y1714D01*
X2553Y1793D01*
X2512Y1864D01*
X2454Y1921D01*
X2383Y1962D01*
X2305Y1983D01*
D02*
G37*
G36*
X1517D02*
X1436D01*
X1357Y1962D01*
X1286Y1921D01*
X1228Y1864D01*
X1188Y1793D01*
X1166Y1714D01*
Y1632D01*
X1188Y1554D01*
X1228Y1483D01*
X1286Y1425D01*
X1357Y1384D01*
X1436Y1363D01*
X1517D01*
X1596Y1384D01*
X1667Y1425D01*
X1724Y1483D01*
X1765Y1554D01*
X1786Y1632D01*
Y1714D01*
X1765Y1793D01*
X1724Y1864D01*
X1667Y1921D01*
X1596Y1962D01*
X1517Y1983D01*
D02*
G37*
G36*
X730D02*
X648D01*
X569Y1962D01*
X499Y1921D01*
X441Y1864D01*
X400Y1793D01*
X379Y1714D01*
Y1632D01*
X400Y1554D01*
X441Y1483D01*
X499Y1425D01*
X569Y1384D01*
X648Y1363D01*
X730D01*
X809Y1384D01*
X879Y1425D01*
X937Y1483D01*
X978Y1554D01*
X999Y1632D01*
Y1714D01*
X978Y1793D01*
X937Y1864D01*
X879Y1921D01*
X809Y1962D01*
X730Y1983D01*
D02*
G37*
G36*
X6251Y1235D02*
Y936D01*
X6550D01*
X6527Y1021D01*
X6481Y1101D01*
X6416Y1166D01*
X6336Y1212D01*
X6251Y1235D01*
D02*
G37*
G36*
X6151D02*
X6066Y1212D01*
X5986Y1166D01*
X5921Y1101D01*
X5875Y1021D01*
X5852Y936D01*
X6151D01*
Y1235D01*
D02*
G37*
G36*
X7029Y1196D02*
X6947D01*
X6869Y1175D01*
X6798Y1134D01*
X6740Y1076D01*
X6699Y1005D01*
X6678Y927D01*
Y845D01*
X6699Y766D01*
X6740Y695D01*
X6798Y638D01*
X6869Y597D01*
X6947Y576D01*
X7029D01*
X7108Y597D01*
X7179Y638D01*
X7236Y695D01*
X7277Y766D01*
X7298Y845D01*
Y927D01*
X7277Y1005D01*
X7236Y1076D01*
X7179Y1134D01*
X7108Y1175D01*
X7029Y1196D01*
D02*
G37*
G36*
X5454D02*
X5373D01*
X5294Y1175D01*
X5223Y1134D01*
X5165Y1076D01*
X5125Y1005D01*
X5103Y927D01*
Y845D01*
X5125Y766D01*
X5165Y695D01*
X5223Y638D01*
X5294Y597D01*
X5373Y576D01*
X5454D01*
X5533Y597D01*
X5604Y638D01*
X5661Y695D01*
X5702Y766D01*
X5723Y845D01*
Y927D01*
X5702Y1005D01*
X5661Y1076D01*
X5604Y1134D01*
X5533Y1175D01*
X5454Y1196D01*
D02*
G37*
G36*
X4667D02*
X4585D01*
X4506Y1175D01*
X4436Y1134D01*
X4378Y1076D01*
X4337Y1005D01*
X4316Y927D01*
Y845D01*
X4337Y766D01*
X4378Y695D01*
X4436Y638D01*
X4506Y597D01*
X4585Y576D01*
X4667D01*
X4746Y597D01*
X4816Y638D01*
X4874Y695D01*
X4915Y766D01*
X4936Y845D01*
Y927D01*
X4915Y1005D01*
X4874Y1076D01*
X4816Y1134D01*
X4746Y1175D01*
X4667Y1196D01*
D02*
G37*
G36*
X3879D02*
X3798D01*
X3719Y1175D01*
X3648Y1134D01*
X3591Y1076D01*
X3550Y1005D01*
X3529Y927D01*
Y845D01*
X3550Y766D01*
X3591Y695D01*
X3648Y638D01*
X3719Y597D01*
X3798Y576D01*
X3879D01*
X3958Y597D01*
X4029Y638D01*
X4087Y695D01*
X4127Y766D01*
X4149Y845D01*
Y927D01*
X4127Y1005D01*
X4087Y1076D01*
X4029Y1134D01*
X3958Y1175D01*
X3879Y1196D01*
D02*
G37*
G36*
X3092D02*
X3010D01*
X2932Y1175D01*
X2861Y1134D01*
X2803Y1076D01*
X2762Y1005D01*
X2741Y927D01*
Y845D01*
X2762Y766D01*
X2803Y695D01*
X2861Y638D01*
X2932Y597D01*
X3010Y576D01*
X3092D01*
X3171Y597D01*
X3242Y638D01*
X3299Y695D01*
X3340Y766D01*
X3361Y845D01*
Y927D01*
X3340Y1005D01*
X3299Y1076D01*
X3242Y1134D01*
X3171Y1175D01*
X3092Y1196D01*
D02*
G37*
G36*
X2305D02*
X2223D01*
X2144Y1175D01*
X2073Y1134D01*
X2016Y1076D01*
X1975Y1005D01*
X1954Y927D01*
Y845D01*
X1975Y766D01*
X2016Y695D01*
X2073Y638D01*
X2144Y597D01*
X2223Y576D01*
X2305D01*
X2383Y597D01*
X2454Y638D01*
X2512Y695D01*
X2553Y766D01*
X2574Y845D01*
Y927D01*
X2553Y1005D01*
X2512Y1076D01*
X2454Y1134D01*
X2383Y1175D01*
X2305Y1196D01*
D02*
G37*
G36*
X1517D02*
X1436D01*
X1357Y1175D01*
X1286Y1134D01*
X1228Y1076D01*
X1188Y1005D01*
X1166Y927D01*
Y845D01*
X1188Y766D01*
X1228Y695D01*
X1286Y638D01*
X1357Y597D01*
X1436Y576D01*
X1517D01*
X1596Y597D01*
X1667Y638D01*
X1724Y695D01*
X1765Y766D01*
X1786Y845D01*
Y927D01*
X1765Y1005D01*
X1724Y1076D01*
X1667Y1134D01*
X1596Y1175D01*
X1517Y1196D01*
D02*
G37*
G36*
X730D02*
X648D01*
X569Y1175D01*
X499Y1134D01*
X441Y1076D01*
X400Y1005D01*
X379Y927D01*
Y845D01*
X400Y766D01*
X441Y695D01*
X499Y638D01*
X569Y597D01*
X648Y576D01*
X730D01*
X809Y597D01*
X879Y638D01*
X937Y695D01*
X978Y766D01*
X999Y845D01*
Y927D01*
X978Y1005D01*
X937Y1076D01*
X879Y1134D01*
X809Y1175D01*
X730Y1196D01*
D02*
G37*
G36*
X6550Y836D02*
X6251D01*
Y537D01*
X6336Y560D01*
X6416Y606D01*
X6481Y671D01*
X6527Y751D01*
X6550Y836D01*
D02*
G37*
G36*
X6151D02*
X5852D01*
X5875Y751D01*
X5921Y671D01*
X5986Y606D01*
X6066Y560D01*
X6151Y537D01*
Y836D01*
D02*
G37*
%LPD*%
D10*
X5940Y9100D02*
X6127D01*
X5740Y8900D02*
X5940Y9100D01*
X6000Y7798D02*
X6270Y7528D01*
Y7310D02*
Y7528D01*
X6288Y9925D02*
Y10160D01*
Y9650D02*
Y9885D01*
X7035Y9905D02*
X7050Y9890D01*
X6995Y7893D02*
X7000Y7898D01*
X1176Y9967D02*
Y10414D01*
X1180Y10418D01*
Y10180D02*
X1710D01*
X2433Y9457D01*
X2668D02*
X2697Y9428D01*
X2433Y9457D02*
X2668D01*
D13*
X3040Y5440D02*
X4140Y6540D01*
X2440Y5440D02*
X3040D01*
X4140Y6540D02*
Y7600D01*
X2430Y5450D02*
X2440Y5440D01*
X5400Y10910D02*
Y11365D01*
X6892Y8430D02*
X7000Y8322D01*
X5870Y8430D02*
X6892D01*
X5403Y8897D02*
X5870Y8430D01*
X6712Y9283D02*
Y9650D01*
Y9283D02*
X6795Y9200D01*
X6712Y10160D02*
Y10527D01*
X6795Y10610D01*
Y10632D02*
X6903Y10740D01*
X6097Y10502D02*
X6205Y10610D01*
X6097Y10515D02*
X6205D01*
X6795Y10610D02*
Y10632D01*
X4999Y8897D02*
X5403D01*
X5536Y8404D02*
X5718Y8222D01*
X6495D01*
X4980Y8916D02*
X4999Y8897D01*
X6495Y8222D02*
X6500Y8217D01*
X4617Y6613D02*
X5367D01*
X5570Y6410D01*
X4307Y8907D02*
X4980D01*
X4090Y9440D02*
Y9470D01*
X4290Y9670D01*
Y10183D01*
X4244Y10228D02*
X4290Y10183D01*
X4020Y10655D02*
X4090Y10725D01*
X3870Y9345D02*
Y10305D01*
Y9345D02*
X4307Y8907D01*
X3870Y10305D02*
X4020Y10455D01*
Y10655D01*
X3750Y9205D02*
Y10355D01*
Y9205D02*
X4303Y8652D01*
X3900Y10755D02*
X4170Y11025D01*
X3900Y10505D02*
Y10755D01*
X3750Y10355D02*
X3900Y10505D01*
X3516Y9244D02*
X4614Y8146D01*
X3516Y9244D02*
Y10228D01*
X3114D02*
X3516D01*
X4980Y8404D02*
X5536D01*
X5685Y10505D02*
X6097D01*
X5380Y9235D02*
Y10200D01*
X5685Y10505D01*
X1172Y9547D02*
X1176Y9543D01*
X2697Y8907D02*
X3083D01*
X4490Y6740D02*
X4617Y6613D01*
X4490Y6740D02*
Y7245D01*
X4617Y7372D02*
X4980D01*
X4490Y7245D02*
X4617Y7372D01*
X2360Y10064D02*
Y10340D01*
X2060Y10195D02*
Y10760D01*
X2360Y10064D02*
X2620Y9805D01*
X2697Y8652D02*
X3097D01*
X980Y5820D02*
X1000Y5800D01*
X980Y5820D02*
Y8460D01*
X1436Y8916D01*
X2697D01*
Y8149D02*
X3501D01*
X3520Y8130D01*
X3127Y7893D02*
X3260Y7760D01*
X2697Y7893D02*
X3127D01*
X4140Y7600D02*
X4433Y7893D01*
X4980D01*
X2697Y8404D02*
X3084D01*
X3210Y8530D02*
X3520D01*
X3084Y8404D02*
X3210Y8530D01*
X4614Y8146D02*
X4983D01*
X5410Y7640D02*
Y8065D01*
Y6945D02*
Y7640D01*
X4984D02*
X5410D01*
X4980Y7637D02*
X4984Y7640D01*
X5329Y8146D02*
X5410Y8065D01*
X4983Y8146D02*
X5329D01*
X4980Y8149D02*
X4983Y8146D01*
X5334Y6869D02*
X5410Y6945D01*
X4980Y6869D02*
X5334D01*
X4997Y9180D02*
X5325D01*
X4992Y9175D02*
X4997Y9180D01*
X5325D02*
X5380Y9235D01*
X3097Y8652D02*
X3300Y8855D01*
Y9564D01*
X3060Y9805D02*
X3300Y9564D01*
X2620Y9805D02*
X3060D01*
X2060Y10195D02*
X2570Y9685D01*
X3010D02*
X3180Y9515D01*
X2570Y9685D02*
X3010D01*
X3180Y9005D02*
Y9515D01*
X4303Y8652D02*
X4980D01*
X5790Y13172D02*
X6201Y13583D01*
X5790Y12505D02*
Y13172D01*
X5450Y12165D02*
X5790Y12505D01*
X5450Y11415D02*
Y12165D01*
X5400Y11365D02*
X5450Y11415D01*
X2530Y10925D02*
X2841D01*
X3070Y10696D01*
X4710Y10683D02*
Y10695D01*
Y10683D02*
X4778Y10615D01*
X3083Y8907D02*
X3180Y9005D01*
X3780Y10804D02*
X4014Y11038D01*
Y11713D01*
X3780Y10555D02*
Y10804D01*
X3710Y10484D02*
X3780Y10555D01*
X3516Y10484D02*
X3710D01*
X4326Y11025D02*
X5014Y11713D01*
X4170Y11025D02*
X4326D01*
X4090Y10725D02*
X4229D01*
X4244Y10740D01*
X4478Y10484D02*
X4690Y10696D01*
X4244Y10484D02*
X4478D01*
X3070Y10272D02*
X3114Y10228D01*
X3114Y10740D02*
X3516D01*
X3070Y10696D02*
X3114Y10740D01*
X4695Y10099D02*
Y10267D01*
Y10099D02*
X4980Y9815D01*
X4690Y10272D02*
X4695Y10267D01*
X4980Y9419D02*
Y9814D01*
X4980Y9815D02*
X4980Y9814D01*
D19*
X6205Y9190D02*
D03*
X6795D02*
D03*
Y10610D02*
D03*
X6205D02*
D03*
D20*
X6288Y10160D02*
D03*
X6712D02*
D03*
X6288Y9650D02*
D03*
X6712D02*
D03*
D21*
X1176Y9967D02*
D03*
Y9543D02*
D03*
X7000Y7798D02*
D03*
Y8222D02*
D03*
X4690Y10272D02*
D03*
Y10696D02*
D03*
X3070Y10272D02*
D03*
Y10696D02*
D03*
X1180Y10822D02*
D03*
Y10398D02*
D03*
X6000Y7798D02*
D03*
Y8222D02*
D03*
X6500Y8217D02*
D03*
Y7793D02*
D03*
D22*
X4980Y9172D02*
D03*
Y9428D02*
D03*
Y8660D02*
D03*
Y8916D02*
D03*
Y8149D02*
D03*
Y8404D02*
D03*
Y7637D02*
D03*
Y7893D02*
D03*
Y7125D02*
D03*
Y7381D02*
D03*
X2697Y6101D02*
D03*
Y6357D02*
D03*
Y6613D02*
D03*
Y6869D02*
D03*
X4980Y6101D02*
D03*
Y6357D02*
D03*
Y6613D02*
D03*
Y6869D02*
D03*
X2697Y7125D02*
D03*
Y7381D02*
D03*
Y7637D02*
D03*
Y7893D02*
D03*
Y8149D02*
D03*
Y8404D02*
D03*
Y8660D02*
D03*
Y8916D02*
D03*
Y9172D02*
D03*
Y9428D02*
D03*
D23*
X3516Y10740D02*
D03*
Y10484D02*
D03*
Y10228D02*
D03*
X4244D02*
D03*
Y10484D02*
D03*
Y10740D02*
D03*
D33*
X5940Y9910D02*
X6680D01*
D34*
X5920Y9890D02*
X5940Y9910D01*
X6127Y9100D02*
X6205Y9178D01*
Y9190D01*
X850Y10830D02*
X1172D01*
X1180Y10822D01*
X1162Y9536D02*
X1172Y9547D01*
X1180Y9220D02*
Y9250D01*
X1176Y9254D02*
Y9543D01*
Y9254D02*
X1180Y9250D01*
X1211Y10829D02*
X1220Y10820D01*
D35*
X1677Y3938D02*
D03*
X677D02*
D03*
X664Y11713D02*
D03*
X1664D02*
D03*
X7014D02*
D03*
X6014D02*
D03*
X5014D02*
D03*
X4014D02*
D03*
D36*
X6988Y886D02*
D03*
X6201D02*
D03*
X5413D02*
D03*
X4626D02*
D03*
X3839D02*
D03*
X3051D02*
D03*
X2264D02*
D03*
X1476D02*
D03*
X689D02*
D03*
X6988Y1673D02*
D03*
X6201D02*
D03*
X5413D02*
D03*
X4626D02*
D03*
X3839D02*
D03*
X3051D02*
D03*
X2264D02*
D03*
X1476D02*
D03*
X689D02*
D03*
Y12795D02*
D03*
X1476D02*
D03*
X2264D02*
D03*
X3051D02*
D03*
X3839D02*
D03*
X4626D02*
D03*
X5413D02*
D03*
X6201D02*
D03*
X6988D02*
D03*
X689Y13583D02*
D03*
X1476D02*
D03*
X2264D02*
D03*
X3051D02*
D03*
X3839D02*
D03*
X4626D02*
D03*
X5413D02*
D03*
X6201D02*
D03*
X6988D02*
D03*
D37*
X3839Y4405D02*
D03*
D38*
X2430Y5450D02*
D03*
X5400Y10910D02*
D03*
X5740Y8900D02*
D03*
X5570Y6410D02*
D03*
X6270Y7310D02*
D03*
X4090Y9440D02*
D03*
X5540Y8400D02*
D03*
X850Y10830D02*
D03*
X1180Y9220D02*
D03*
X2360Y10340D02*
D03*
X2060Y10760D02*
D03*
X1000Y5800D02*
D03*
X3260Y7760D02*
D03*
X3520Y8530D02*
D03*
Y8130D02*
D03*
X2530Y10925D02*
D03*
X4980Y9815D02*
D03*
M02*
