G04*
G04 #@! TF.GenerationSoftware,Altium Limited,Altium Designer,23.0.1 (38)*
G04*
G04 Layer_Color=65535*
%FSLAX24Y24*%
%MOIN*%
G70*
G04*
G04 #@! TF.SameCoordinates,212204B1-6FDB-4007-BCD0-930B6937FDD8*
G04*
G04*
G04 #@! TF.FilePolarity,Positive*
G04*
G01*
G75*
%ADD10C,0.0080*%
%ADD11C,0.0157*%
%ADD12C,0.0050*%
%ADD13C,0.0060*%
%ADD14C,0.0030*%
%ADD15C,0.0059*%
%ADD16C,0.0100*%
%ADD17C,0.0079*%
%ADD18C,0.0040*%
G36*
X7296Y10500D02*
X7214D01*
X7201Y10542D01*
X7112D01*
X7100Y10500D01*
X7020D01*
X7115Y10753D01*
X7201D01*
X7296Y10500D01*
D02*
G37*
G36*
Y9060D02*
X7214D01*
X7201Y9102D01*
X7112D01*
X7100Y9060D01*
X7020D01*
X7115Y9313D01*
X7201D01*
X7296Y9060D01*
D02*
G37*
G36*
X5974Y10118D02*
X6012D01*
Y10052D01*
X5974D01*
Y9995D01*
X5900D01*
Y10052D01*
X5746D01*
Y10121D01*
X5900Y10305D01*
X5974D01*
Y10118D01*
D02*
G37*
G36*
X5610Y10299D02*
X5620Y10298D01*
X5630Y10298D01*
X5641Y10296D01*
X5652Y10295D01*
X5661Y10292D01*
X5662Y10291D01*
X5665Y10290D01*
X5669Y10288D01*
X5674Y10286D01*
X5681Y10282D01*
X5687Y10277D01*
X5693Y10271D01*
X5698Y10264D01*
X5699Y10263D01*
X5701Y10261D01*
X5703Y10256D01*
X5706Y10250D01*
X5708Y10243D01*
X5711Y10235D01*
X5712Y10225D01*
X5713Y10215D01*
Y10214D01*
Y10210D01*
X5712Y10206D01*
X5712Y10200D01*
X5710Y10193D01*
X5708Y10186D01*
X5706Y10178D01*
X5702Y10171D01*
X5701Y10170D01*
X5700Y10168D01*
X5697Y10165D01*
X5694Y10160D01*
X5689Y10156D01*
X5684Y10151D01*
X5678Y10146D01*
X5672Y10141D01*
X5671Y10141D01*
X5669Y10140D01*
X5667Y10139D01*
X5663Y10137D01*
X5658Y10135D01*
X5653Y10133D01*
X5646Y10131D01*
X5639Y10129D01*
X5640D01*
X5642Y10128D01*
X5645Y10127D01*
X5648Y10126D01*
X5656Y10122D01*
X5660Y10120D01*
X5663Y10118D01*
X5664Y10118D01*
X5666Y10116D01*
X5667Y10115D01*
X5669Y10113D01*
X5672Y10110D01*
X5675Y10106D01*
X5678Y10102D01*
X5679Y10101D01*
X5680Y10100D01*
X5682Y10098D01*
X5684Y10095D01*
X5688Y10089D01*
X5690Y10086D01*
X5692Y10083D01*
X5738Y9995D01*
X5631D01*
X5581Y10088D01*
X5580Y10089D01*
X5579Y10091D01*
X5577Y10094D01*
X5575Y10098D01*
X5570Y10105D01*
X5566Y10109D01*
X5563Y10111D01*
X5563Y10112D01*
X5562Y10113D01*
X5560Y10114D01*
X5557Y10115D01*
X5554Y10116D01*
X5550Y10118D01*
X5545Y10118D01*
X5540Y10119D01*
X5532D01*
Y9995D01*
X5438D01*
Y10300D01*
X5606D01*
X5610Y10299D01*
D02*
G37*
G36*
X5944Y9505D02*
X5858D01*
Y9707D01*
X5857Y9707D01*
X5855Y9705D01*
X5851Y9702D01*
X5846Y9698D01*
X5840Y9694D01*
X5832Y9690D01*
X5825Y9685D01*
X5818Y9681D01*
X5817Y9681D01*
X5815Y9680D01*
X5810Y9678D01*
X5805Y9676D01*
X5797Y9673D01*
X5790Y9670D01*
X5780Y9667D01*
X5770Y9664D01*
Y9732D01*
X5770D01*
X5771Y9733D01*
X5774Y9734D01*
X5777Y9735D01*
X5780Y9736D01*
X5785Y9738D01*
X5794Y9742D01*
X5805Y9747D01*
X5816Y9752D01*
X5827Y9759D01*
X5836Y9766D01*
X5837D01*
X5837Y9767D01*
X5840Y9769D01*
X5845Y9773D01*
X5850Y9780D01*
X5856Y9786D01*
X5862Y9795D01*
X5868Y9804D01*
X5874Y9815D01*
X5944D01*
Y9505D01*
D02*
G37*
G36*
X5608Y9809D02*
X5618Y9808D01*
X5628Y9808D01*
X5639Y9806D01*
X5650Y9805D01*
X5659Y9802D01*
X5660Y9801D01*
X5663Y9800D01*
X5668Y9798D01*
X5673Y9796D01*
X5679Y9792D01*
X5685Y9787D01*
X5691Y9781D01*
X5696Y9774D01*
X5697Y9773D01*
X5699Y9771D01*
X5701Y9766D01*
X5704Y9760D01*
X5706Y9753D01*
X5709Y9745D01*
X5710Y9735D01*
X5711Y9725D01*
Y9724D01*
Y9720D01*
X5710Y9716D01*
X5710Y9710D01*
X5708Y9703D01*
X5706Y9696D01*
X5704Y9688D01*
X5700Y9681D01*
X5699Y9680D01*
X5698Y9678D01*
X5695Y9675D01*
X5692Y9670D01*
X5688Y9666D01*
X5683Y9661D01*
X5676Y9656D01*
X5670Y9651D01*
X5669Y9651D01*
X5668Y9650D01*
X5665Y9649D01*
X5661Y9647D01*
X5656Y9645D01*
X5651Y9643D01*
X5644Y9641D01*
X5637Y9639D01*
X5638D01*
X5640Y9638D01*
X5643Y9637D01*
X5646Y9636D01*
X5654Y9632D01*
X5658Y9630D01*
X5661Y9628D01*
X5663Y9628D01*
X5664Y9626D01*
X5665Y9625D01*
X5668Y9623D01*
X5670Y9620D01*
X5673Y9616D01*
X5676Y9612D01*
X5677Y9611D01*
X5678Y9610D01*
X5680Y9608D01*
X5682Y9605D01*
X5686Y9599D01*
X5688Y9596D01*
X5690Y9593D01*
X5736Y9505D01*
X5629D01*
X5579Y9598D01*
X5578Y9599D01*
X5577Y9601D01*
X5575Y9604D01*
X5573Y9608D01*
X5568Y9615D01*
X5564Y9619D01*
X5562Y9621D01*
X5561Y9622D01*
X5560Y9623D01*
X5558Y9624D01*
X5555Y9625D01*
X5552Y9626D01*
X5548Y9628D01*
X5543Y9628D01*
X5538Y9629D01*
X5530D01*
Y9505D01*
X5436D01*
Y9810D01*
X5604D01*
X5608Y9809D01*
D02*
G37*
G36*
X5944Y9035D02*
X5858D01*
Y9237D01*
X5857Y9237D01*
X5855Y9235D01*
X5851Y9232D01*
X5846Y9228D01*
X5840Y9224D01*
X5832Y9220D01*
X5825Y9215D01*
X5818Y9211D01*
X5817Y9211D01*
X5815Y9210D01*
X5810Y9208D01*
X5805Y9206D01*
X5797Y9203D01*
X5790Y9200D01*
X5780Y9197D01*
X5770Y9194D01*
Y9262D01*
X5770D01*
X5771Y9263D01*
X5774Y9264D01*
X5777Y9265D01*
X5780Y9266D01*
X5785Y9268D01*
X5794Y9272D01*
X5805Y9277D01*
X5816Y9282D01*
X5827Y9289D01*
X5836Y9296D01*
X5837D01*
X5837Y9297D01*
X5840Y9299D01*
X5845Y9304D01*
X5850Y9310D01*
X5856Y9316D01*
X5862Y9325D01*
X5868Y9334D01*
X5874Y9345D01*
X5944D01*
Y9035D01*
D02*
G37*
G36*
X5586Y9339D02*
X5590D01*
X5599Y9338D01*
X5610Y9337D01*
X5621Y9335D01*
X5633Y9332D01*
X5643Y9328D01*
X5643D01*
X5644Y9327D01*
X5647Y9326D01*
X5651Y9323D01*
X5658Y9320D01*
X5664Y9315D01*
X5671Y9310D01*
X5678Y9303D01*
X5685Y9296D01*
X5685Y9295D01*
X5688Y9292D01*
X5690Y9288D01*
X5694Y9282D01*
X5698Y9275D01*
X5702Y9266D01*
X5705Y9257D01*
X5709Y9247D01*
Y9246D01*
X5709Y9246D01*
Y9244D01*
X5710Y9242D01*
X5711Y9236D01*
X5712Y9229D01*
X5714Y9220D01*
X5715Y9210D01*
X5716Y9200D01*
X5716Y9188D01*
Y9187D01*
Y9186D01*
Y9184D01*
Y9180D01*
X5716Y9176D01*
Y9171D01*
X5715Y9160D01*
X5714Y9149D01*
X5711Y9136D01*
X5709Y9124D01*
X5705Y9113D01*
Y9112D01*
X5704Y9111D01*
X5702Y9108D01*
X5700Y9103D01*
X5697Y9097D01*
X5692Y9090D01*
X5687Y9083D01*
X5681Y9075D01*
X5674Y9068D01*
X5673Y9067D01*
X5670Y9065D01*
X5666Y9062D01*
X5661Y9058D01*
X5655Y9054D01*
X5648Y9050D01*
X5640Y9046D01*
X5632Y9043D01*
X5631D01*
X5631Y9043D01*
X5629D01*
X5627Y9042D01*
X5621Y9041D01*
X5613Y9039D01*
X5605Y9038D01*
X5595Y9037D01*
X5585Y9036D01*
X5575Y9035D01*
X5436D01*
Y9340D01*
X5582D01*
X5586Y9339D01*
D02*
G37*
G36*
X5868Y10774D02*
X5872D01*
X5882Y10773D01*
X5893Y10772D01*
X5905Y10770D01*
X5916Y10767D01*
X5926Y10764D01*
X5926D01*
X5927Y10763D01*
X5930Y10762D01*
X5935Y10760D01*
X5940Y10756D01*
X5946Y10752D01*
X5953Y10747D01*
X5960Y10740D01*
X5965Y10733D01*
X5966Y10732D01*
X5968Y10729D01*
X5970Y10725D01*
X5972Y10719D01*
X5975Y10712D01*
X5978Y10704D01*
X5979Y10695D01*
X5980Y10686D01*
Y10685D01*
Y10685D01*
Y10683D01*
Y10681D01*
X5979Y10676D01*
X5978Y10669D01*
X5976Y10661D01*
X5972Y10651D01*
X5969Y10642D01*
X5963Y10632D01*
X5963Y10631D01*
X5960Y10628D01*
X5956Y10623D01*
X5950Y10616D01*
X5941Y10608D01*
X5936Y10604D01*
X5931Y10599D01*
X5925Y10594D01*
X5919Y10588D01*
X5911Y10583D01*
X5904Y10577D01*
X5903Y10576D01*
X5900Y10574D01*
X5895Y10571D01*
X5890Y10567D01*
X5884Y10563D01*
X5878Y10559D01*
X5873Y10555D01*
X5869Y10552D01*
X5869Y10551D01*
X5868Y10551D01*
X5866Y10549D01*
X5864Y10548D01*
X5858Y10541D01*
X5849Y10534D01*
X5982D01*
Y10465D01*
X5728D01*
Y10466D01*
Y10467D01*
X5728Y10469D01*
X5729Y10472D01*
X5729Y10475D01*
X5730Y10479D01*
X5733Y10488D01*
X5736Y10499D01*
X5741Y10510D01*
X5747Y10523D01*
X5754Y10535D01*
X5754Y10536D01*
X5755Y10537D01*
X5756Y10539D01*
X5758Y10541D01*
X5761Y10544D01*
X5764Y10548D01*
X5768Y10553D01*
X5773Y10558D01*
X5778Y10563D01*
X5784Y10569D01*
X5790Y10575D01*
X5798Y10583D01*
X5807Y10590D01*
X5816Y10598D01*
X5826Y10605D01*
X5837Y10614D01*
X5838Y10614D01*
X5839Y10615D01*
X5840Y10616D01*
X5843Y10618D01*
X5849Y10623D01*
X5857Y10629D01*
X5865Y10636D01*
X5873Y10643D01*
X5880Y10650D01*
X5883Y10653D01*
X5885Y10656D01*
X5885Y10656D01*
X5886Y10658D01*
X5888Y10661D01*
X5890Y10665D01*
X5892Y10669D01*
X5894Y10674D01*
X5895Y10678D01*
X5895Y10683D01*
Y10684D01*
Y10685D01*
X5895Y10688D01*
X5894Y10691D01*
X5893Y10695D01*
X5891Y10699D01*
X5888Y10703D01*
X5885Y10707D01*
X5884Y10707D01*
X5883Y10709D01*
X5881Y10710D01*
X5878Y10712D01*
X5874Y10714D01*
X5869Y10715D01*
X5864Y10716D01*
X5859Y10717D01*
X5856D01*
X5853Y10716D01*
X5849Y10716D01*
X5845Y10714D01*
X5841Y10712D01*
X5837Y10710D01*
X5832Y10706D01*
X5832Y10706D01*
X5830Y10705D01*
X5829Y10702D01*
X5827Y10698D01*
X5824Y10693D01*
X5822Y10687D01*
X5820Y10680D01*
X5819Y10671D01*
X5734Y10677D01*
Y10678D01*
Y10679D01*
X5734Y10681D01*
X5735Y10684D01*
X5736Y10690D01*
X5738Y10698D01*
X5741Y10707D01*
X5743Y10716D01*
X5747Y10725D01*
X5752Y10733D01*
X5752Y10734D01*
X5754Y10736D01*
X5757Y10740D01*
X5762Y10744D01*
X5767Y10749D01*
X5773Y10754D01*
X5780Y10759D01*
X5789Y10763D01*
X5790D01*
X5790Y10764D01*
X5794Y10765D01*
X5799Y10767D01*
X5807Y10769D01*
X5817Y10771D01*
X5828Y10773D01*
X5842Y10774D01*
X5857Y10775D01*
X5864D01*
X5868Y10774D01*
D02*
G37*
G36*
X5568Y10769D02*
X5572D01*
X5581Y10768D01*
X5592Y10767D01*
X5603Y10765D01*
X5615Y10762D01*
X5625Y10758D01*
X5625D01*
X5626Y10757D01*
X5629Y10756D01*
X5633Y10753D01*
X5640Y10750D01*
X5646Y10745D01*
X5653Y10740D01*
X5660Y10733D01*
X5667Y10726D01*
X5667Y10725D01*
X5669Y10722D01*
X5672Y10718D01*
X5676Y10712D01*
X5680Y10705D01*
X5684Y10696D01*
X5687Y10687D01*
X5691Y10677D01*
Y10676D01*
X5691Y10676D01*
Y10674D01*
X5692Y10672D01*
X5693Y10666D01*
X5694Y10659D01*
X5696Y10650D01*
X5697Y10640D01*
X5698Y10630D01*
X5698Y10618D01*
Y10618D01*
Y10616D01*
Y10614D01*
Y10610D01*
X5698Y10606D01*
Y10601D01*
X5697Y10590D01*
X5696Y10579D01*
X5693Y10566D01*
X5691Y10554D01*
X5687Y10543D01*
Y10542D01*
X5686Y10541D01*
X5684Y10538D01*
X5682Y10533D01*
X5679Y10527D01*
X5674Y10520D01*
X5669Y10513D01*
X5663Y10505D01*
X5656Y10498D01*
X5654Y10497D01*
X5652Y10495D01*
X5648Y10492D01*
X5643Y10488D01*
X5637Y10484D01*
X5630Y10480D01*
X5622Y10476D01*
X5614Y10473D01*
X5613D01*
X5613Y10473D01*
X5611D01*
X5609Y10472D01*
X5603Y10471D01*
X5595Y10469D01*
X5587Y10468D01*
X5577Y10467D01*
X5567Y10466D01*
X5557Y10465D01*
X5418D01*
Y10770D01*
X5564D01*
X5568Y10769D01*
D02*
G37*
G36*
X1712Y9925D02*
X1510D01*
X1511Y9923D01*
X1513Y9921D01*
X1516Y9917D01*
X1519Y9912D01*
X1523Y9906D01*
X1528Y9898D01*
X1532Y9891D01*
X1536Y9884D01*
X1537Y9883D01*
X1538Y9881D01*
X1539Y9876D01*
X1542Y9871D01*
X1544Y9863D01*
X1548Y9856D01*
X1551Y9846D01*
X1554Y9836D01*
X1485D01*
Y9836D01*
X1485Y9837D01*
X1483Y9840D01*
X1483Y9843D01*
X1481Y9846D01*
X1480Y9851D01*
X1476Y9860D01*
X1471Y9871D01*
X1465Y9882D01*
X1459Y9893D01*
X1452Y9902D01*
Y9903D01*
X1451Y9903D01*
X1448Y9906D01*
X1444Y9911D01*
X1438Y9916D01*
X1431Y9922D01*
X1423Y9928D01*
X1413Y9935D01*
X1403Y9940D01*
Y10010D01*
X1712D01*
Y9925D01*
D02*
G37*
G36*
X1614Y9786D02*
X1616Y9785D01*
X1618Y9785D01*
X1625Y9783D01*
X1633Y9780D01*
X1642Y9776D01*
X1652Y9771D01*
X1661Y9766D01*
X1670Y9760D01*
X1672Y9759D01*
X1674Y9756D01*
X1678Y9753D01*
X1684Y9747D01*
X1689Y9741D01*
X1695Y9734D01*
X1700Y9725D01*
X1705Y9715D01*
Y9715D01*
X1706Y9714D01*
X1707Y9713D01*
X1707Y9711D01*
X1709Y9705D01*
X1711Y9697D01*
X1713Y9688D01*
X1715Y9676D01*
X1717Y9663D01*
X1717Y9648D01*
Y9640D01*
X1717Y9635D01*
Y9631D01*
X1716Y9625D01*
X1715Y9619D01*
X1714Y9607D01*
X1711Y9593D01*
X1708Y9579D01*
X1703Y9567D01*
Y9566D01*
X1703Y9565D01*
X1702Y9564D01*
X1700Y9562D01*
X1697Y9555D01*
X1692Y9548D01*
X1684Y9540D01*
X1676Y9531D01*
X1665Y9522D01*
X1653Y9513D01*
X1652D01*
X1651Y9512D01*
X1649Y9511D01*
X1646Y9509D01*
X1643Y9508D01*
X1638Y9506D01*
X1633Y9503D01*
X1627Y9502D01*
X1621Y9499D01*
X1614Y9497D01*
X1606Y9496D01*
X1598Y9493D01*
X1589Y9492D01*
X1579Y9491D01*
X1559Y9490D01*
X1558D01*
X1556D01*
X1552Y9491D01*
X1547D01*
X1541Y9491D01*
X1533Y9492D01*
X1526Y9493D01*
X1517Y9495D01*
X1507Y9497D01*
X1498Y9500D01*
X1488Y9503D01*
X1478Y9507D01*
X1469Y9512D01*
X1460Y9517D01*
X1451Y9523D01*
X1443Y9530D01*
X1443Y9531D01*
X1442Y9532D01*
X1440Y9534D01*
X1437Y9537D01*
X1434Y9542D01*
X1431Y9547D01*
X1427Y9552D01*
X1423Y9559D01*
X1420Y9567D01*
X1416Y9575D01*
X1412Y9585D01*
X1409Y9595D01*
X1407Y9606D01*
X1405Y9618D01*
X1403Y9630D01*
X1403Y9644D01*
Y9649D01*
X1403Y9653D01*
Y9658D01*
X1404Y9664D01*
X1405Y9670D01*
X1406Y9676D01*
X1408Y9691D01*
X1413Y9706D01*
X1418Y9721D01*
X1422Y9728D01*
X1426Y9734D01*
Y9735D01*
X1427Y9736D01*
X1428Y9738D01*
X1431Y9740D01*
X1433Y9743D01*
X1436Y9746D01*
X1440Y9749D01*
X1444Y9753D01*
X1448Y9757D01*
X1454Y9761D01*
X1460Y9765D01*
X1466Y9769D01*
X1473Y9773D01*
X1481Y9777D01*
X1489Y9780D01*
X1498Y9784D01*
X1516Y9700D01*
X1516D01*
X1514Y9700D01*
X1511Y9699D01*
X1508Y9698D01*
X1502Y9694D01*
X1499Y9693D01*
X1496Y9691D01*
X1496Y9690D01*
X1495Y9690D01*
X1492Y9688D01*
X1490Y9685D01*
X1485Y9679D01*
X1480Y9671D01*
X1479Y9671D01*
X1478Y9670D01*
X1477Y9667D01*
X1476Y9664D01*
X1475Y9660D01*
X1475Y9656D01*
X1473Y9651D01*
Y9643D01*
X1474Y9641D01*
X1475Y9635D01*
X1477Y9628D01*
X1480Y9620D01*
X1485Y9612D01*
X1491Y9604D01*
X1495Y9600D01*
X1500Y9597D01*
X1501Y9597D01*
X1503Y9595D01*
X1508Y9593D01*
X1514Y9591D01*
X1522Y9588D01*
X1532Y9587D01*
X1544Y9585D01*
X1559Y9584D01*
X1559D01*
X1561D01*
X1564D01*
X1567D01*
X1571Y9585D01*
X1576D01*
X1587Y9586D01*
X1598Y9588D01*
X1609Y9590D01*
X1620Y9594D01*
X1624Y9597D01*
X1628Y9599D01*
X1629Y9600D01*
X1631Y9602D01*
X1634Y9606D01*
X1637Y9610D01*
X1641Y9617D01*
X1644Y9624D01*
X1646Y9633D01*
X1647Y9643D01*
Y9647D01*
X1646Y9652D01*
X1645Y9658D01*
X1643Y9665D01*
X1640Y9671D01*
X1637Y9678D01*
X1632Y9684D01*
X1631Y9684D01*
X1629Y9686D01*
X1625Y9689D01*
X1620Y9691D01*
X1614Y9695D01*
X1607Y9698D01*
X1598Y9701D01*
X1587Y9704D01*
X1613Y9786D01*
X1613D01*
X1614Y9786D01*
D02*
G37*
G36*
X2395Y4382D02*
Y4381D01*
Y4380D01*
Y4377D01*
Y4374D01*
Y4369D01*
X2395Y4364D01*
X2394Y4353D01*
X2393Y4340D01*
X2391Y4326D01*
X2389Y4314D01*
X2388Y4308D01*
X2386Y4303D01*
Y4302D01*
X2385Y4301D01*
X2384Y4298D01*
X2381Y4293D01*
X2378Y4286D01*
X2373Y4279D01*
X2366Y4272D01*
X2358Y4264D01*
X2349Y4257D01*
X2348D01*
X2348Y4256D01*
X2346Y4255D01*
X2344Y4254D01*
X2341Y4252D01*
X2338Y4251D01*
X2329Y4248D01*
X2319Y4244D01*
X2307Y4241D01*
X2293Y4239D01*
X2277Y4238D01*
X2269D01*
X2265Y4239D01*
X2261D01*
X2251Y4240D01*
X2239Y4241D01*
X2228Y4243D01*
X2216Y4247D01*
X2206Y4250D01*
X2204Y4251D01*
X2202Y4253D01*
X2197Y4255D01*
X2191Y4259D01*
X2185Y4265D01*
X2179Y4271D01*
X2172Y4278D01*
X2167Y4286D01*
Y4287D01*
X2166Y4288D01*
X2164Y4291D01*
X2162Y4296D01*
X2159Y4303D01*
X2157Y4312D01*
X2154Y4322D01*
X2152Y4334D01*
X2151Y4346D01*
X2240Y4359D01*
Y4358D01*
Y4355D01*
Y4351D01*
X2241Y4347D01*
X2242Y4337D01*
X2243Y4333D01*
X2244Y4328D01*
Y4328D01*
X2244Y4326D01*
X2245Y4325D01*
X2247Y4323D01*
X2250Y4318D01*
X2255Y4313D01*
X2256Y4313D01*
X2259Y4311D01*
X2264Y4310D01*
X2270Y4309D01*
X2273D01*
X2276Y4310D01*
X2279Y4311D01*
X2283Y4312D01*
X2287Y4314D01*
X2290Y4317D01*
X2293Y4321D01*
X2294Y4321D01*
X2294Y4323D01*
X2295Y4326D01*
X2297Y4330D01*
X2299Y4336D01*
X2300Y4343D01*
X2300Y4351D01*
X2301Y4360D01*
Y4547D01*
X2395D01*
Y4382D01*
D02*
G37*
G36*
X2578Y4552D02*
X2582D01*
X2592Y4551D01*
X2603Y4550D01*
X2615Y4548D01*
X2626Y4545D01*
X2636Y4542D01*
X2637D01*
X2637Y4541D01*
X2640Y4540D01*
X2645Y4537D01*
X2651Y4534D01*
X2657Y4530D01*
X2663Y4525D01*
X2670Y4518D01*
X2676Y4511D01*
X2676Y4510D01*
X2678Y4507D01*
X2680Y4503D01*
X2683Y4497D01*
X2686Y4490D01*
X2688Y4482D01*
X2689Y4473D01*
X2690Y4464D01*
Y4463D01*
Y4462D01*
Y4461D01*
Y4459D01*
X2689Y4454D01*
X2688Y4446D01*
X2686Y4439D01*
X2683Y4429D01*
X2679Y4420D01*
X2673Y4410D01*
X2673Y4409D01*
X2670Y4406D01*
X2666Y4401D01*
X2660Y4394D01*
X2652Y4386D01*
X2647Y4381D01*
X2642Y4376D01*
X2636Y4371D01*
X2629Y4366D01*
X2622Y4360D01*
X2614Y4355D01*
X2613Y4354D01*
X2610Y4352D01*
X2606Y4349D01*
X2600Y4345D01*
X2595Y4341D01*
X2588Y4337D01*
X2583Y4333D01*
X2580Y4330D01*
X2579Y4329D01*
X2578Y4329D01*
X2576Y4327D01*
X2574Y4325D01*
X2568Y4319D01*
X2560Y4312D01*
X2692D01*
Y4243D01*
X2438D01*
Y4244D01*
Y4245D01*
X2439Y4247D01*
X2439Y4249D01*
X2440Y4253D01*
X2440Y4257D01*
X2443Y4266D01*
X2446Y4277D01*
X2451Y4288D01*
X2457Y4301D01*
X2464Y4313D01*
X2465Y4314D01*
X2465Y4315D01*
X2466Y4316D01*
X2469Y4319D01*
X2471Y4322D01*
X2474Y4326D01*
X2479Y4330D01*
X2483Y4335D01*
X2488Y4341D01*
X2494Y4347D01*
X2501Y4353D01*
X2509Y4360D01*
X2517Y4368D01*
X2526Y4375D01*
X2536Y4383D01*
X2547Y4391D01*
X2548Y4392D01*
X2549Y4392D01*
X2551Y4394D01*
X2554Y4396D01*
X2560Y4401D01*
X2567Y4407D01*
X2575Y4414D01*
X2583Y4421D01*
X2590Y4427D01*
X2593Y4431D01*
X2595Y4434D01*
X2596Y4434D01*
X2597Y4436D01*
X2598Y4439D01*
X2601Y4442D01*
X2602Y4446D01*
X2604Y4451D01*
X2605Y4456D01*
X2606Y4461D01*
Y4461D01*
Y4463D01*
X2605Y4466D01*
X2605Y4469D01*
X2603Y4473D01*
X2601Y4477D01*
X2598Y4481D01*
X2595Y4485D01*
X2595Y4485D01*
X2593Y4486D01*
X2591Y4488D01*
X2588Y4490D01*
X2584Y4491D01*
X2580Y4493D01*
X2575Y4494D01*
X2569Y4495D01*
X2566D01*
X2564Y4494D01*
X2560Y4494D01*
X2556Y4492D01*
X2551Y4490D01*
X2547Y4487D01*
X2542Y4484D01*
X2542Y4484D01*
X2541Y4482D01*
X2539Y4480D01*
X2537Y4476D01*
X2535Y4471D01*
X2532Y4465D01*
X2531Y4457D01*
X2529Y4449D01*
X2444Y4455D01*
Y4456D01*
Y4457D01*
X2445Y4459D01*
X2445Y4461D01*
X2446Y4467D01*
X2448Y4476D01*
X2451Y4485D01*
X2454Y4494D01*
X2457Y4502D01*
X2462Y4511D01*
X2462Y4512D01*
X2464Y4514D01*
X2467Y4517D01*
X2472Y4522D01*
X2477Y4527D01*
X2484Y4532D01*
X2491Y4537D01*
X2500Y4541D01*
X2500D01*
X2501Y4542D01*
X2504Y4543D01*
X2510Y4545D01*
X2517Y4547D01*
X2527Y4549D01*
X2539Y4551D01*
X2552Y4552D01*
X2567Y4552D01*
X2574D01*
X2578Y4552D01*
D02*
G37*
G36*
X6782Y2377D02*
Y2376D01*
Y2374D01*
Y2372D01*
Y2368D01*
Y2364D01*
X6781Y2359D01*
X6781Y2347D01*
X6780Y2334D01*
X6778Y2321D01*
X6776Y2308D01*
X6774Y2303D01*
X6773Y2297D01*
Y2297D01*
X6772Y2296D01*
X6771Y2293D01*
X6768Y2288D01*
X6764Y2281D01*
X6759Y2274D01*
X6753Y2266D01*
X6745Y2258D01*
X6735Y2251D01*
X6735D01*
X6734Y2251D01*
X6733Y2250D01*
X6730Y2248D01*
X6728Y2247D01*
X6724Y2246D01*
X6716Y2242D01*
X6706Y2238D01*
X6694Y2236D01*
X6679Y2233D01*
X6664Y2233D01*
X6656D01*
X6652Y2233D01*
X6648D01*
X6638Y2235D01*
X6626Y2236D01*
X6614Y2238D01*
X6603Y2241D01*
X6592Y2245D01*
X6591Y2246D01*
X6588Y2247D01*
X6583Y2250D01*
X6578Y2254D01*
X6572Y2260D01*
X6565Y2266D01*
X6559Y2273D01*
X6553Y2281D01*
Y2282D01*
X6553Y2282D01*
X6551Y2286D01*
X6549Y2291D01*
X6546Y2298D01*
X6543Y2307D01*
X6541Y2317D01*
X6538Y2328D01*
X6537Y2341D01*
X6627Y2353D01*
Y2352D01*
Y2350D01*
Y2346D01*
X6628Y2342D01*
X6629Y2332D01*
X6629Y2327D01*
X6630Y2323D01*
Y2322D01*
X6631Y2321D01*
X6632Y2320D01*
X6633Y2317D01*
X6637Y2312D01*
X6642Y2308D01*
X6643Y2307D01*
X6645Y2306D01*
X6650Y2305D01*
X6657Y2304D01*
X6660D01*
X6663Y2305D01*
X6666Y2306D01*
X6669Y2307D01*
X6673Y2309D01*
X6677Y2312D01*
X6680Y2316D01*
X6680Y2316D01*
X6681Y2318D01*
X6682Y2321D01*
X6684Y2325D01*
X6685Y2331D01*
X6686Y2337D01*
X6687Y2346D01*
X6688Y2355D01*
Y2542D01*
X6782D01*
Y2377D01*
D02*
G37*
G36*
X7023Y2238D02*
X6937D01*
Y2440D01*
X6936Y2439D01*
X6934Y2437D01*
X6930Y2434D01*
X6925Y2431D01*
X6918Y2427D01*
X6911Y2422D01*
X6904Y2418D01*
X6897Y2414D01*
X6896Y2413D01*
X6894Y2412D01*
X6889Y2411D01*
X6884Y2408D01*
X6876Y2406D01*
X6869Y2402D01*
X6859Y2399D01*
X6849Y2396D01*
Y2465D01*
X6849D01*
X6850Y2465D01*
X6852Y2467D01*
X6856Y2467D01*
X6859Y2469D01*
X6864Y2470D01*
X6873Y2474D01*
X6884Y2479D01*
X6895Y2485D01*
X6906Y2491D01*
X6915Y2498D01*
X6916D01*
X6916Y2499D01*
X6919Y2502D01*
X6923Y2506D01*
X6929Y2512D01*
X6935Y2519D01*
X6941Y2527D01*
X6947Y2537D01*
X6953Y2547D01*
X7023D01*
Y2238D01*
D02*
G37*
G36*
X3844Y5575D02*
Y5575D01*
Y5574D01*
Y5571D01*
X3844Y5566D01*
X3843Y5559D01*
X3842Y5551D01*
X3841Y5543D01*
X3838Y5534D01*
X3836Y5524D01*
X3835Y5523D01*
X3834Y5520D01*
X3832Y5516D01*
X3829Y5510D01*
X3826Y5504D01*
X3821Y5497D01*
X3816Y5489D01*
X3809Y5483D01*
X3808Y5482D01*
X3806Y5480D01*
X3802Y5477D01*
X3798Y5473D01*
X3792Y5469D01*
X3786Y5465D01*
X3779Y5461D01*
X3772Y5458D01*
X3771D01*
X3771Y5457D01*
X3769Y5457D01*
X3767Y5456D01*
X3761Y5454D01*
X3753Y5453D01*
X3743Y5451D01*
X3732Y5449D01*
X3720Y5448D01*
X3706Y5448D01*
X3697D01*
X3691Y5448D01*
X3684D01*
X3676Y5449D01*
X3667Y5450D01*
X3657Y5451D01*
X3656D01*
X3652Y5452D01*
X3647Y5452D01*
X3642Y5454D01*
X3635Y5455D01*
X3627Y5457D01*
X3620Y5460D01*
X3613Y5463D01*
X3612Y5463D01*
X3610Y5464D01*
X3607Y5467D01*
X3602Y5469D01*
X3597Y5473D01*
X3592Y5478D01*
X3586Y5483D01*
X3581Y5489D01*
X3580Y5489D01*
X3579Y5491D01*
X3576Y5495D01*
X3573Y5500D01*
X3570Y5505D01*
X3566Y5511D01*
X3563Y5518D01*
X3561Y5524D01*
Y5525D01*
X3560Y5525D01*
Y5527D01*
X3560Y5529D01*
X3558Y5535D01*
X3557Y5541D01*
X3555Y5549D01*
X3554Y5558D01*
X3553Y5567D01*
X3552Y5575D01*
Y5757D01*
X3646D01*
Y5571D01*
Y5570D01*
Y5568D01*
X3647Y5563D01*
X3648Y5557D01*
X3650Y5551D01*
X3652Y5545D01*
X3655Y5538D01*
X3660Y5533D01*
X3660Y5532D01*
X3662Y5530D01*
X3665Y5528D01*
X3670Y5526D01*
X3675Y5523D01*
X3682Y5521D01*
X3690Y5519D01*
X3698Y5519D01*
X3702D01*
X3707Y5519D01*
X3712Y5520D01*
X3718Y5522D01*
X3725Y5524D01*
X3731Y5528D01*
X3737Y5532D01*
X3737Y5533D01*
X3739Y5535D01*
X3741Y5538D01*
X3744Y5542D01*
X3746Y5548D01*
X3748Y5555D01*
X3750Y5563D01*
X3751Y5571D01*
Y5757D01*
X3844D01*
Y5575D01*
D02*
G37*
G36*
X4085Y5453D02*
X3999D01*
Y5655D01*
X3998Y5654D01*
X3996Y5652D01*
X3991Y5649D01*
X3986Y5645D01*
X3980Y5641D01*
X3973Y5637D01*
X3966Y5632D01*
X3959Y5629D01*
X3958Y5628D01*
X3955Y5627D01*
X3951Y5625D01*
X3945Y5623D01*
X3938Y5620D01*
X3930Y5617D01*
X3921Y5614D01*
X3910Y5611D01*
Y5680D01*
X3911D01*
X3912Y5680D01*
X3914Y5681D01*
X3918Y5682D01*
X3921Y5684D01*
X3925Y5685D01*
X3935Y5689D01*
X3945Y5694D01*
X3956Y5700D01*
X3968Y5706D01*
X3977Y5713D01*
X3978D01*
X3978Y5714D01*
X3981Y5716D01*
X3985Y5721D01*
X3991Y5727D01*
X3997Y5733D01*
X4003Y5742D01*
X4009Y5751D01*
X4015Y5762D01*
X4085D01*
Y5453D01*
D02*
G37*
G36*
X3868Y11015D02*
Y11015D01*
Y11014D01*
Y11011D01*
X3867Y11006D01*
X3867Y10999D01*
X3866Y10991D01*
X3864Y10983D01*
X3862Y10974D01*
X3859Y10964D01*
X3858Y10963D01*
X3857Y10960D01*
X3856Y10956D01*
X3852Y10950D01*
X3849Y10944D01*
X3844Y10936D01*
X3839Y10929D01*
X3832Y10923D01*
X3832Y10922D01*
X3829Y10920D01*
X3826Y10917D01*
X3821Y10913D01*
X3816Y10909D01*
X3809Y10905D01*
X3802Y10901D01*
X3795Y10898D01*
X3795D01*
X3794Y10897D01*
X3792Y10897D01*
X3790Y10896D01*
X3785Y10894D01*
X3776Y10893D01*
X3767Y10891D01*
X3756Y10889D01*
X3743Y10888D01*
X3729Y10888D01*
X3721D01*
X3715Y10888D01*
X3707D01*
X3699Y10889D01*
X3690Y10890D01*
X3680Y10891D01*
X3679D01*
X3676Y10892D01*
X3671Y10892D01*
X3665Y10894D01*
X3658Y10895D01*
X3651Y10897D01*
X3644Y10900D01*
X3636Y10903D01*
X3636Y10903D01*
X3634Y10904D01*
X3630Y10907D01*
X3626Y10909D01*
X3621Y10913D01*
X3615Y10918D01*
X3610Y10923D01*
X3604Y10929D01*
X3604Y10929D01*
X3602Y10932D01*
X3599Y10935D01*
X3596Y10940D01*
X3593Y10945D01*
X3590Y10951D01*
X3586Y10958D01*
X3584Y10964D01*
Y10965D01*
X3584Y10965D01*
Y10967D01*
X3583Y10969D01*
X3581Y10975D01*
X3580Y10981D01*
X3579Y10989D01*
X3577Y10998D01*
X3576Y11007D01*
X3576Y11015D01*
Y11197D01*
X3670D01*
Y11011D01*
Y11010D01*
Y11008D01*
X3670Y11003D01*
X3671Y10997D01*
X3673Y10991D01*
X3675Y10985D01*
X3679Y10978D01*
X3683Y10973D01*
X3684Y10972D01*
X3686Y10970D01*
X3689Y10968D01*
X3693Y10966D01*
X3699Y10963D01*
X3705Y10961D01*
X3713Y10959D01*
X3722Y10959D01*
X3726D01*
X3730Y10959D01*
X3736Y10960D01*
X3742Y10962D01*
X3748Y10964D01*
X3755Y10968D01*
X3760Y10972D01*
X3761Y10973D01*
X3762Y10975D01*
X3765Y10978D01*
X3767Y10982D01*
X3770Y10988D01*
X3772Y10995D01*
X3773Y11003D01*
X3774Y11011D01*
Y11197D01*
X3868D01*
Y11015D01*
D02*
G37*
G36*
X4050Y11201D02*
X4054D01*
X4064Y11201D01*
X4075Y11199D01*
X4087Y11197D01*
X4098Y11195D01*
X4108Y11191D01*
X4109D01*
X4109Y11191D01*
X4112Y11190D01*
X4117Y11187D01*
X4123Y11183D01*
X4129Y11179D01*
X4135Y11174D01*
X4142Y11167D01*
X4148Y11160D01*
X4148Y11159D01*
X4150Y11156D01*
X4152Y11152D01*
X4155Y11146D01*
X4157Y11140D01*
X4160Y11131D01*
X4161Y11122D01*
X4162Y11113D01*
Y11112D01*
Y11112D01*
Y11110D01*
Y11109D01*
X4161Y11103D01*
X4160Y11096D01*
X4158Y11088D01*
X4155Y11079D01*
X4151Y11069D01*
X4145Y11060D01*
X4145Y11059D01*
X4142Y11055D01*
X4138Y11050D01*
X4132Y11044D01*
X4124Y11035D01*
X4119Y11031D01*
X4114Y11026D01*
X4108Y11021D01*
X4101Y11015D01*
X4094Y11010D01*
X4086Y11004D01*
X4085Y11004D01*
X4082Y11001D01*
X4078Y10998D01*
X4072Y10994D01*
X4066Y10990D01*
X4060Y10986D01*
X4055Y10983D01*
X4051Y10979D01*
X4051Y10979D01*
X4050Y10978D01*
X4048Y10976D01*
X4046Y10975D01*
X4040Y10969D01*
X4032Y10961D01*
X4164D01*
Y10893D01*
X3910D01*
Y10893D01*
Y10894D01*
X3911Y10897D01*
X3911Y10899D01*
X3912Y10902D01*
X3912Y10906D01*
X3915Y10915D01*
X3918Y10926D01*
X3923Y10938D01*
X3929Y10950D01*
X3936Y10963D01*
X3937Y10963D01*
X3937Y10964D01*
X3938Y10966D01*
X3940Y10969D01*
X3943Y10971D01*
X3946Y10975D01*
X3950Y10980D01*
X3955Y10985D01*
X3960Y10990D01*
X3966Y10996D01*
X3973Y11003D01*
X3980Y11010D01*
X3989Y11017D01*
X3998Y11025D01*
X4008Y11033D01*
X4019Y11041D01*
X4020Y11041D01*
X4021Y11042D01*
X4023Y11044D01*
X4025Y11045D01*
X4032Y11050D01*
X4039Y11056D01*
X4047Y11064D01*
X4055Y11070D01*
X4062Y11077D01*
X4065Y11080D01*
X4067Y11083D01*
X4068Y11084D01*
X4069Y11085D01*
X4070Y11088D01*
X4073Y11092D01*
X4074Y11096D01*
X4076Y11101D01*
X4077Y11105D01*
X4078Y11110D01*
Y11111D01*
Y11112D01*
X4077Y11115D01*
X4076Y11119D01*
X4075Y11122D01*
X4073Y11126D01*
X4070Y11130D01*
X4067Y11134D01*
X4066Y11135D01*
X4065Y11136D01*
X4063Y11137D01*
X4060Y11139D01*
X4056Y11141D01*
X4051Y11142D01*
X4046Y11144D01*
X4041Y11144D01*
X4038D01*
X4035Y11144D01*
X4032Y11143D01*
X4028Y11141D01*
X4023Y11140D01*
X4019Y11137D01*
X4014Y11134D01*
X4014Y11133D01*
X4013Y11132D01*
X4011Y11129D01*
X4009Y11125D01*
X4007Y11120D01*
X4004Y11114D01*
X4003Y11107D01*
X4001Y11098D01*
X3916Y11105D01*
Y11105D01*
Y11106D01*
X3917Y11108D01*
X3917Y11111D01*
X3918Y11117D01*
X3920Y11125D01*
X3923Y11134D01*
X3925Y11143D01*
X3929Y11152D01*
X3934Y11160D01*
X3934Y11161D01*
X3936Y11163D01*
X3939Y11167D01*
X3944Y11171D01*
X3949Y11176D01*
X3955Y11181D01*
X3963Y11186D01*
X3972Y11191D01*
X3972D01*
X3973Y11191D01*
X3976Y11192D01*
X3982Y11194D01*
X3989Y11196D01*
X3999Y11198D01*
X4010Y11200D01*
X4024Y11201D01*
X4039Y11202D01*
X4046D01*
X4050Y11201D01*
D02*
G37*
G36*
X3405Y11912D02*
X3462D01*
Y11838D01*
X3405D01*
Y11684D01*
X3336D01*
X3153Y11838D01*
Y11912D01*
X3340D01*
Y11951D01*
X3405D01*
Y11912D01*
D02*
G37*
G36*
X3341Y11643D02*
X3353Y11643D01*
X3365Y11641D01*
X3379Y11640D01*
X3392Y11638D01*
X3397Y11636D01*
X3403Y11634D01*
X3403D01*
X3404Y11634D01*
X3407Y11633D01*
X3412Y11630D01*
X3419Y11626D01*
X3426Y11621D01*
X3434Y11615D01*
X3442Y11606D01*
X3449Y11597D01*
Y11596D01*
X3449Y11596D01*
X3450Y11594D01*
X3452Y11592D01*
X3453Y11589D01*
X3454Y11586D01*
X3458Y11578D01*
X3462Y11568D01*
X3464Y11555D01*
X3467Y11541D01*
X3467Y11525D01*
Y11518D01*
X3467Y11514D01*
Y11509D01*
X3465Y11499D01*
X3464Y11488D01*
X3462Y11476D01*
X3459Y11464D01*
X3455Y11454D01*
X3454Y11453D01*
X3453Y11450D01*
X3450Y11445D01*
X3446Y11439D01*
X3440Y11433D01*
X3434Y11427D01*
X3427Y11421D01*
X3419Y11415D01*
X3418D01*
X3418Y11414D01*
X3414Y11413D01*
X3409Y11411D01*
X3402Y11408D01*
X3393Y11405D01*
X3383Y11402D01*
X3372Y11400D01*
X3359Y11399D01*
X3347Y11489D01*
X3348D01*
X3350D01*
X3354D01*
X3358Y11489D01*
X3368Y11490D01*
X3373Y11491D01*
X3377Y11492D01*
X3378D01*
X3379Y11493D01*
X3380Y11494D01*
X3383Y11495D01*
X3388Y11498D01*
X3392Y11503D01*
X3393Y11504D01*
X3394Y11507D01*
X3395Y11512D01*
X3396Y11519D01*
Y11522D01*
X3395Y11524D01*
X3394Y11528D01*
X3393Y11531D01*
X3391Y11535D01*
X3388Y11539D01*
X3384Y11542D01*
X3384Y11542D01*
X3382Y11543D01*
X3379Y11544D01*
X3375Y11545D01*
X3369Y11547D01*
X3363Y11548D01*
X3354Y11549D01*
X3345Y11549D01*
X3158D01*
Y11644D01*
X3323D01*
X3324D01*
X3326D01*
X3328D01*
X3332D01*
X3336D01*
X3341Y11643D01*
D02*
G37*
G36*
X2845Y10492D02*
X2844D01*
X2843D01*
X2841Y10493D01*
X2838Y10494D01*
X2835Y10494D01*
X2831Y10495D01*
X2822Y10497D01*
X2811Y10501D01*
X2800Y10505D01*
X2787Y10511D01*
X2775Y10519D01*
X2774Y10519D01*
X2773Y10520D01*
X2771Y10521D01*
X2769Y10523D01*
X2766Y10526D01*
X2762Y10529D01*
X2757Y10533D01*
X2752Y10537D01*
X2747Y10542D01*
X2741Y10549D01*
X2735Y10555D01*
X2727Y10563D01*
X2720Y10571D01*
X2712Y10581D01*
X2705Y10591D01*
X2696Y10602D01*
X2696Y10602D01*
X2695Y10603D01*
X2694Y10605D01*
X2692Y10608D01*
X2687Y10614D01*
X2681Y10622D01*
X2674Y10630D01*
X2667Y10638D01*
X2660Y10645D01*
X2657Y10647D01*
X2654Y10650D01*
X2654Y10650D01*
X2652Y10651D01*
X2649Y10653D01*
X2645Y10655D01*
X2641Y10657D01*
X2636Y10658D01*
X2632Y10660D01*
X2627Y10660D01*
X2626D01*
X2625D01*
X2622Y10660D01*
X2619Y10659D01*
X2615Y10657D01*
X2611Y10656D01*
X2607Y10653D01*
X2603Y10650D01*
X2603Y10649D01*
X2601Y10648D01*
X2600Y10646D01*
X2598Y10642D01*
X2596Y10638D01*
X2595Y10634D01*
X2594Y10629D01*
X2593Y10623D01*
Y10621D01*
X2594Y10618D01*
X2594Y10614D01*
X2596Y10610D01*
X2598Y10606D01*
X2600Y10601D01*
X2604Y10597D01*
X2604Y10596D01*
X2605Y10595D01*
X2608Y10593D01*
X2612Y10591D01*
X2617Y10589D01*
X2623Y10587D01*
X2630Y10585D01*
X2639Y10583D01*
X2633Y10499D01*
X2632D01*
X2631D01*
X2629Y10499D01*
X2626Y10500D01*
X2620Y10501D01*
X2612Y10502D01*
X2603Y10505D01*
X2594Y10508D01*
X2585Y10512D01*
X2577Y10516D01*
X2576Y10517D01*
X2574Y10519D01*
X2570Y10522D01*
X2566Y10526D01*
X2561Y10531D01*
X2556Y10538D01*
X2551Y10545D01*
X2547Y10554D01*
Y10555D01*
X2546Y10555D01*
X2545Y10559D01*
X2543Y10564D01*
X2541Y10572D01*
X2539Y10581D01*
X2537Y10593D01*
X2536Y10606D01*
X2535Y10621D01*
Y10628D01*
X2536Y10632D01*
Y10637D01*
X2537Y10647D01*
X2538Y10658D01*
X2540Y10670D01*
X2543Y10681D01*
X2546Y10691D01*
Y10691D01*
X2547Y10692D01*
X2548Y10694D01*
X2550Y10699D01*
X2554Y10705D01*
X2558Y10711D01*
X2563Y10718D01*
X2570Y10724D01*
X2577Y10730D01*
X2578Y10731D01*
X2581Y10732D01*
X2585Y10734D01*
X2591Y10737D01*
X2598Y10740D01*
X2606Y10742D01*
X2615Y10744D01*
X2624Y10744D01*
X2625D01*
X2625D01*
X2627D01*
X2629D01*
X2634Y10743D01*
X2641Y10742D01*
X2649Y10741D01*
X2659Y10737D01*
X2668Y10733D01*
X2678Y10728D01*
X2679Y10727D01*
X2682Y10724D01*
X2687Y10721D01*
X2694Y10714D01*
X2702Y10706D01*
X2706Y10701D01*
X2711Y10696D01*
X2716Y10690D01*
X2722Y10683D01*
X2727Y10676D01*
X2733Y10668D01*
X2734Y10667D01*
X2736Y10665D01*
X2739Y10660D01*
X2743Y10655D01*
X2747Y10649D01*
X2751Y10643D01*
X2755Y10638D01*
X2758Y10634D01*
X2759Y10633D01*
X2759Y10632D01*
X2761Y10631D01*
X2762Y10628D01*
X2769Y10622D01*
X2776Y10614D01*
Y10747D01*
X2845D01*
Y10492D01*
D02*
G37*
G36*
Y10376D02*
X2752Y10325D01*
X2751Y10325D01*
X2749Y10324D01*
X2746Y10322D01*
X2742Y10320D01*
X2735Y10314D01*
X2731Y10311D01*
X2729Y10308D01*
X2728Y10308D01*
X2727Y10307D01*
X2726Y10304D01*
X2725Y10302D01*
X2724Y10298D01*
X2722Y10294D01*
X2722Y10290D01*
X2721Y10285D01*
Y10277D01*
X2845D01*
Y10183D01*
X2540D01*
Y10350D01*
X2541Y10354D01*
X2542Y10364D01*
X2542Y10375D01*
X2544Y10386D01*
X2545Y10396D01*
X2548Y10406D01*
X2549Y10407D01*
X2550Y10410D01*
X2552Y10414D01*
X2554Y10419D01*
X2558Y10425D01*
X2563Y10431D01*
X2569Y10438D01*
X2576Y10443D01*
X2577Y10444D01*
X2579Y10445D01*
X2584Y10448D01*
X2590Y10450D01*
X2597Y10453D01*
X2605Y10455D01*
X2615Y10457D01*
X2625Y10458D01*
X2626D01*
X2630D01*
X2634Y10457D01*
X2640Y10456D01*
X2647Y10455D01*
X2654Y10453D01*
X2662Y10450D01*
X2669Y10446D01*
X2670Y10446D01*
X2672Y10445D01*
X2675Y10442D01*
X2680Y10439D01*
X2684Y10434D01*
X2689Y10429D01*
X2694Y10423D01*
X2699Y10416D01*
X2699Y10416D01*
X2700Y10414D01*
X2701Y10411D01*
X2703Y10408D01*
X2705Y10403D01*
X2707Y10398D01*
X2709Y10391D01*
X2711Y10384D01*
Y10384D01*
X2712Y10386D01*
X2713Y10389D01*
X2714Y10393D01*
X2718Y10401D01*
X2720Y10405D01*
X2722Y10408D01*
X2722Y10409D01*
X2724Y10410D01*
X2725Y10412D01*
X2727Y10414D01*
X2730Y10416D01*
X2734Y10420D01*
X2738Y10423D01*
X2739Y10424D01*
X2740Y10425D01*
X2742Y10426D01*
X2745Y10429D01*
X2751Y10433D01*
X2754Y10435D01*
X2757Y10436D01*
X2845Y10482D01*
Y10376D01*
D02*
G37*
G36*
X2435Y11941D02*
X2442Y11940D01*
X2450Y11938D01*
X2458Y11936D01*
X2467Y11932D01*
X2477Y11927D01*
X2478Y11927D01*
X2480Y11924D01*
X2485Y11922D01*
X2490Y11917D01*
X2497Y11911D01*
X2503Y11904D01*
X2509Y11897D01*
X2514Y11887D01*
Y11887D01*
X2515Y11886D01*
X2515Y11885D01*
X2517Y11882D01*
X2517Y11880D01*
X2518Y11877D01*
X2520Y11869D01*
X2523Y11859D01*
X2525Y11847D01*
X2527Y11833D01*
X2527Y11818D01*
Y11812D01*
X2527Y11808D01*
Y11804D01*
X2526Y11795D01*
X2525Y11785D01*
X2523Y11774D01*
X2521Y11763D01*
X2518Y11753D01*
X2517Y11752D01*
X2516Y11749D01*
X2514Y11745D01*
X2510Y11739D01*
X2507Y11733D01*
X2502Y11726D01*
X2496Y11720D01*
X2489Y11714D01*
X2488Y11713D01*
X2486Y11711D01*
X2482Y11708D01*
X2477Y11705D01*
X2469Y11701D01*
X2462Y11697D01*
X2452Y11694D01*
X2442Y11690D01*
X2430Y11775D01*
X2432D01*
X2434Y11776D01*
X2439Y11777D01*
X2444Y11779D01*
X2456Y11783D01*
X2462Y11786D01*
X2466Y11790D01*
X2467Y11790D01*
X2468Y11791D01*
X2469Y11794D01*
X2470Y11797D01*
X2473Y11801D01*
X2474Y11806D01*
X2475Y11811D01*
X2475Y11817D01*
Y11820D01*
X2475Y11823D01*
X2474Y11827D01*
X2473Y11831D01*
X2470Y11836D01*
X2467Y11841D01*
X2463Y11845D01*
X2463Y11846D01*
X2461Y11847D01*
X2458Y11849D01*
X2454Y11851D01*
X2450Y11853D01*
X2444Y11855D01*
X2437Y11856D01*
X2430Y11857D01*
X2429D01*
X2427D01*
X2423Y11856D01*
X2418Y11856D01*
X2413Y11854D01*
X2407Y11852D01*
X2402Y11850D01*
X2397Y11846D01*
X2397Y11845D01*
X2396Y11843D01*
X2393Y11841D01*
X2391Y11838D01*
X2389Y11833D01*
X2387Y11828D01*
X2386Y11822D01*
X2386Y11816D01*
Y11812D01*
X2386Y11808D01*
X2387Y11805D01*
X2388Y11800D01*
X2389Y11795D01*
X2391Y11789D01*
X2331Y11792D01*
Y11796D01*
X2331Y11800D01*
Y11806D01*
X2331Y11810D01*
X2330Y11813D01*
X2329Y11817D01*
X2327Y11822D01*
X2324Y11827D01*
X2321Y11831D01*
X2321Y11832D01*
X2319Y11833D01*
X2317Y11835D01*
X2314Y11837D01*
X2311Y11839D01*
X2306Y11841D01*
X2301Y11842D01*
X2296Y11843D01*
X2296D01*
X2294D01*
X2291Y11842D01*
X2288Y11842D01*
X2285Y11841D01*
X2281Y11840D01*
X2277Y11837D01*
X2274Y11835D01*
X2273Y11834D01*
X2273Y11833D01*
X2271Y11831D01*
X2270Y11828D01*
X2268Y11825D01*
X2267Y11821D01*
X2266Y11817D01*
X2266Y11811D01*
Y11809D01*
X2266Y11806D01*
X2267Y11802D01*
X2268Y11798D01*
X2270Y11795D01*
X2272Y11791D01*
X2275Y11787D01*
X2276Y11786D01*
X2277Y11785D01*
X2279Y11784D01*
X2282Y11782D01*
X2287Y11780D01*
X2292Y11778D01*
X2298Y11776D01*
X2306Y11775D01*
X2292Y11695D01*
X2292D01*
X2291Y11695D01*
X2288Y11696D01*
X2286Y11696D01*
X2283Y11698D01*
X2279Y11699D01*
X2271Y11703D01*
X2261Y11708D01*
X2251Y11715D01*
X2242Y11722D01*
X2233Y11732D01*
Y11733D01*
X2232Y11734D01*
X2232Y11735D01*
X2230Y11738D01*
X2228Y11741D01*
X2227Y11744D01*
X2225Y11749D01*
X2223Y11754D01*
X2221Y11759D01*
X2220Y11765D01*
X2218Y11771D01*
X2216Y11779D01*
X2215Y11786D01*
X2214Y11795D01*
X2213Y11813D01*
Y11818D01*
X2213Y11823D01*
Y11828D01*
X2214Y11833D01*
X2215Y11840D01*
X2216Y11846D01*
X2218Y11861D01*
X2222Y11875D01*
X2228Y11888D01*
X2231Y11894D01*
X2235Y11899D01*
Y11900D01*
X2236Y11901D01*
X2239Y11904D01*
X2244Y11908D01*
X2251Y11913D01*
X2258Y11918D01*
X2268Y11922D01*
X2279Y11925D01*
X2285Y11926D01*
X2291Y11926D01*
X2292D01*
X2295D01*
X2298Y11926D01*
X2303Y11925D01*
X2308Y11923D01*
X2315Y11922D01*
X2321Y11919D01*
X2327Y11915D01*
X2327Y11914D01*
X2329Y11913D01*
X2332Y11911D01*
X2336Y11907D01*
X2340Y11903D01*
X2345Y11897D01*
X2350Y11891D01*
X2354Y11883D01*
Y11883D01*
X2355Y11886D01*
X2356Y11889D01*
X2357Y11893D01*
X2361Y11901D01*
X2362Y11906D01*
X2364Y11909D01*
X2365Y11910D01*
X2366Y11912D01*
X2368Y11914D01*
X2371Y11918D01*
X2374Y11922D01*
X2379Y11926D01*
X2384Y11929D01*
X2389Y11933D01*
X2390Y11933D01*
X2392Y11934D01*
X2396Y11936D01*
X2399Y11937D01*
X2405Y11939D01*
X2411Y11941D01*
X2418Y11941D01*
X2426Y11942D01*
X2426D01*
X2427D01*
X2430D01*
X2435Y11941D01*
D02*
G37*
G36*
X2401Y11643D02*
X2413Y11643D01*
X2426Y11641D01*
X2439Y11640D01*
X2452Y11638D01*
X2457Y11636D01*
X2463Y11634D01*
X2463D01*
X2464Y11634D01*
X2467Y11633D01*
X2472Y11630D01*
X2479Y11626D01*
X2486Y11621D01*
X2494Y11615D01*
X2502Y11606D01*
X2509Y11597D01*
Y11596D01*
X2509Y11596D01*
X2510Y11594D01*
X2512Y11592D01*
X2513Y11589D01*
X2514Y11586D01*
X2518Y11578D01*
X2522Y11568D01*
X2524Y11555D01*
X2527Y11541D01*
X2527Y11525D01*
Y11518D01*
X2527Y11514D01*
Y11509D01*
X2525Y11499D01*
X2524Y11488D01*
X2522Y11476D01*
X2519Y11464D01*
X2515Y11454D01*
X2514Y11453D01*
X2513Y11450D01*
X2510Y11445D01*
X2506Y11439D01*
X2500Y11433D01*
X2494Y11427D01*
X2487Y11421D01*
X2479Y11415D01*
X2478D01*
X2478Y11414D01*
X2474Y11413D01*
X2469Y11411D01*
X2462Y11408D01*
X2453Y11405D01*
X2443Y11402D01*
X2432Y11400D01*
X2419Y11399D01*
X2407Y11489D01*
X2408D01*
X2410D01*
X2414D01*
X2418Y11489D01*
X2428Y11490D01*
X2433Y11491D01*
X2437Y11492D01*
X2438D01*
X2439Y11493D01*
X2440Y11494D01*
X2443Y11495D01*
X2448Y11498D01*
X2452Y11503D01*
X2453Y11504D01*
X2454Y11507D01*
X2455Y11512D01*
X2456Y11519D01*
Y11522D01*
X2455Y11524D01*
X2454Y11528D01*
X2453Y11531D01*
X2451Y11535D01*
X2448Y11539D01*
X2444Y11542D01*
X2444Y11542D01*
X2442Y11543D01*
X2439Y11544D01*
X2435Y11545D01*
X2429Y11547D01*
X2423Y11548D01*
X2414Y11549D01*
X2405Y11549D01*
X2218D01*
Y11644D01*
X2383D01*
X2384D01*
X2386D01*
X2388D01*
X2392D01*
X2396D01*
X2401Y11643D01*
D02*
G37*
G36*
X5146Y4265D02*
X5051D01*
Y4389D01*
X4948D01*
Y4265D01*
X4854D01*
Y4570D01*
X4948D01*
Y4464D01*
X5051D01*
Y4570D01*
X5146D01*
Y4265D01*
D02*
G37*
G36*
X5386D02*
X5300D01*
Y4467D01*
X5299Y4467D01*
X5297Y4465D01*
X5293Y4462D01*
X5288Y4458D01*
X5282Y4454D01*
X5274Y4450D01*
X5267Y4445D01*
X5260Y4441D01*
X5259Y4441D01*
X5257Y4440D01*
X5252Y4438D01*
X5247Y4436D01*
X5239Y4433D01*
X5232Y4430D01*
X5222Y4427D01*
X5212Y4424D01*
Y4492D01*
X5212D01*
X5213Y4493D01*
X5215Y4494D01*
X5219Y4495D01*
X5222Y4496D01*
X5227Y4498D01*
X5236Y4502D01*
X5247Y4507D01*
X5258Y4512D01*
X5269Y4519D01*
X5278Y4526D01*
X5279D01*
X5279Y4527D01*
X5282Y4529D01*
X5286Y4534D01*
X5292Y4540D01*
X5298Y4546D01*
X5304Y4555D01*
X5310Y4564D01*
X5316Y4575D01*
X5386D01*
Y4265D01*
D02*
G37*
G36*
X1722Y10654D02*
X1722D01*
X1720D01*
X1718Y10654D01*
X1716Y10655D01*
X1713Y10656D01*
X1709Y10656D01*
X1699Y10659D01*
X1689Y10662D01*
X1677Y10667D01*
X1664Y10673D01*
X1652Y10680D01*
X1652Y10681D01*
X1650Y10681D01*
X1649Y10682D01*
X1646Y10684D01*
X1643Y10687D01*
X1639Y10690D01*
X1635Y10694D01*
X1630Y10699D01*
X1624Y10704D01*
X1618Y10710D01*
X1612Y10717D01*
X1605Y10724D01*
X1598Y10733D01*
X1590Y10742D01*
X1582Y10752D01*
X1574Y10763D01*
X1573Y10764D01*
X1573Y10765D01*
X1571Y10767D01*
X1569Y10769D01*
X1564Y10775D01*
X1558Y10783D01*
X1551Y10791D01*
X1544Y10799D01*
X1538Y10806D01*
X1534Y10809D01*
X1532Y10811D01*
X1531Y10811D01*
X1529Y10813D01*
X1527Y10814D01*
X1523Y10816D01*
X1519Y10818D01*
X1514Y10820D01*
X1510Y10821D01*
X1505Y10821D01*
X1504D01*
X1502D01*
X1500Y10821D01*
X1496Y10820D01*
X1492Y10819D01*
X1488Y10817D01*
X1485Y10814D01*
X1481Y10811D01*
X1480Y10810D01*
X1479Y10809D01*
X1477Y10807D01*
X1476Y10804D01*
X1474Y10800D01*
X1472Y10795D01*
X1471Y10790D01*
X1471Y10785D01*
Y10782D01*
X1471Y10779D01*
X1472Y10775D01*
X1473Y10772D01*
X1475Y10767D01*
X1478Y10763D01*
X1481Y10758D01*
X1482Y10758D01*
X1483Y10757D01*
X1486Y10755D01*
X1490Y10753D01*
X1495Y10750D01*
X1501Y10748D01*
X1508Y10747D01*
X1517Y10745D01*
X1510Y10660D01*
X1510D01*
X1508D01*
X1507Y10661D01*
X1504Y10661D01*
X1498Y10662D01*
X1490Y10664D01*
X1481Y10667D01*
X1472Y10669D01*
X1463Y10673D01*
X1455Y10678D01*
X1453Y10678D01*
X1451Y10680D01*
X1448Y10683D01*
X1443Y10688D01*
X1438Y10693D01*
X1433Y10699D01*
X1428Y10707D01*
X1424Y10715D01*
Y10716D01*
X1423Y10717D01*
X1422Y10720D01*
X1421Y10725D01*
X1418Y10733D01*
X1416Y10743D01*
X1415Y10754D01*
X1413Y10768D01*
X1413Y10783D01*
Y10790D01*
X1413Y10794D01*
Y10798D01*
X1414Y10808D01*
X1416Y10819D01*
X1417Y10831D01*
X1420Y10842D01*
X1423Y10852D01*
Y10853D01*
X1424Y10853D01*
X1425Y10856D01*
X1428Y10861D01*
X1431Y10866D01*
X1436Y10873D01*
X1441Y10879D01*
X1447Y10886D01*
X1455Y10891D01*
X1456Y10892D01*
X1458Y10894D01*
X1462Y10896D01*
X1468Y10899D01*
X1475Y10901D01*
X1483Y10904D01*
X1492Y10905D01*
X1502Y10906D01*
X1502D01*
X1503D01*
X1505D01*
X1506D01*
X1512Y10905D01*
X1519Y10904D01*
X1527Y10902D01*
X1536Y10899D01*
X1546Y10895D01*
X1555Y10889D01*
X1556Y10889D01*
X1559Y10886D01*
X1564Y10882D01*
X1571Y10876D01*
X1579Y10868D01*
X1584Y10863D01*
X1589Y10858D01*
X1594Y10851D01*
X1599Y10845D01*
X1605Y10838D01*
X1611Y10830D01*
X1611Y10829D01*
X1613Y10826D01*
X1617Y10821D01*
X1620Y10816D01*
X1624Y10810D01*
X1628Y10804D01*
X1632Y10799D01*
X1635Y10795D01*
X1636Y10795D01*
X1637Y10794D01*
X1638Y10792D01*
X1640Y10790D01*
X1646Y10784D01*
X1653Y10775D01*
Y10908D01*
X1722D01*
Y10654D01*
D02*
G37*
G36*
X1624Y10628D02*
X1626Y10627D01*
X1628Y10627D01*
X1635Y10625D01*
X1643Y10622D01*
X1652Y10618D01*
X1662Y10613D01*
X1671Y10608D01*
X1680Y10602D01*
X1682Y10601D01*
X1684Y10598D01*
X1688Y10594D01*
X1694Y10589D01*
X1699Y10583D01*
X1705Y10576D01*
X1710Y10567D01*
X1715Y10557D01*
Y10557D01*
X1716Y10556D01*
X1717Y10555D01*
X1717Y10553D01*
X1719Y10547D01*
X1721Y10539D01*
X1723Y10530D01*
X1725Y10518D01*
X1727Y10505D01*
X1727Y10490D01*
Y10482D01*
X1727Y10477D01*
Y10473D01*
X1726Y10467D01*
X1725Y10461D01*
X1724Y10449D01*
X1721Y10435D01*
X1718Y10421D01*
X1713Y10409D01*
Y10408D01*
X1713Y10407D01*
X1712Y10406D01*
X1710Y10404D01*
X1707Y10397D01*
X1702Y10390D01*
X1694Y10382D01*
X1686Y10372D01*
X1675Y10364D01*
X1663Y10355D01*
X1662D01*
X1661Y10354D01*
X1659Y10352D01*
X1656Y10351D01*
X1653Y10350D01*
X1648Y10347D01*
X1643Y10345D01*
X1637Y10344D01*
X1631Y10341D01*
X1624Y10339D01*
X1616Y10338D01*
X1608Y10335D01*
X1599Y10334D01*
X1589Y10333D01*
X1569Y10332D01*
X1568D01*
X1566D01*
X1562Y10333D01*
X1557D01*
X1551Y10333D01*
X1543Y10334D01*
X1536Y10335D01*
X1527Y10337D01*
X1517Y10339D01*
X1508Y10342D01*
X1498Y10345D01*
X1488Y10349D01*
X1479Y10354D01*
X1470Y10359D01*
X1461Y10365D01*
X1453Y10372D01*
X1453Y10372D01*
X1452Y10374D01*
X1450Y10376D01*
X1447Y10379D01*
X1444Y10384D01*
X1441Y10389D01*
X1437Y10394D01*
X1433Y10401D01*
X1430Y10409D01*
X1426Y10417D01*
X1422Y10427D01*
X1419Y10437D01*
X1417Y10448D01*
X1415Y10460D01*
X1413Y10472D01*
X1413Y10486D01*
Y10491D01*
X1413Y10495D01*
Y10500D01*
X1414Y10506D01*
X1415Y10512D01*
X1416Y10518D01*
X1418Y10533D01*
X1423Y10548D01*
X1428Y10563D01*
X1432Y10569D01*
X1436Y10576D01*
Y10577D01*
X1437Y10578D01*
X1438Y10579D01*
X1441Y10582D01*
X1443Y10584D01*
X1446Y10588D01*
X1450Y10591D01*
X1454Y10595D01*
X1458Y10599D01*
X1464Y10603D01*
X1470Y10607D01*
X1476Y10611D01*
X1483Y10615D01*
X1491Y10619D01*
X1499Y10622D01*
X1508Y10626D01*
X1526Y10542D01*
X1526D01*
X1524Y10542D01*
X1521Y10541D01*
X1518Y10540D01*
X1512Y10536D01*
X1509Y10535D01*
X1506Y10533D01*
X1506Y10532D01*
X1505Y10532D01*
X1502Y10530D01*
X1500Y10527D01*
X1495Y10521D01*
X1490Y10513D01*
X1489Y10513D01*
X1488Y10512D01*
X1487Y10509D01*
X1486Y10506D01*
X1485Y10502D01*
X1485Y10498D01*
X1483Y10493D01*
Y10485D01*
X1484Y10483D01*
X1485Y10477D01*
X1487Y10470D01*
X1490Y10462D01*
X1495Y10453D01*
X1501Y10446D01*
X1505Y10442D01*
X1510Y10439D01*
X1511Y10439D01*
X1513Y10437D01*
X1518Y10435D01*
X1524Y10433D01*
X1532Y10430D01*
X1542Y10429D01*
X1554Y10427D01*
X1569Y10426D01*
X1569D01*
X1571D01*
X1574D01*
X1577D01*
X1581Y10427D01*
X1586D01*
X1597Y10428D01*
X1608Y10430D01*
X1619Y10432D01*
X1630Y10436D01*
X1634Y10439D01*
X1638Y10441D01*
X1639Y10442D01*
X1641Y10444D01*
X1644Y10448D01*
X1647Y10452D01*
X1651Y10459D01*
X1654Y10466D01*
X1656Y10475D01*
X1657Y10485D01*
Y10489D01*
X1656Y10494D01*
X1655Y10500D01*
X1653Y10507D01*
X1650Y10513D01*
X1647Y10520D01*
X1642Y10526D01*
X1641Y10526D01*
X1639Y10528D01*
X1635Y10531D01*
X1630Y10533D01*
X1624Y10537D01*
X1617Y10540D01*
X1608Y10543D01*
X1597Y10546D01*
X1623Y10628D01*
X1623D01*
X1624Y10628D01*
D02*
G37*
G36*
X5145Y10868D02*
X5152Y10867D01*
X5160Y10865D01*
X5168Y10862D01*
X5177Y10859D01*
X5187Y10854D01*
X5188Y10854D01*
X5190Y10851D01*
X5195Y10849D01*
X5200Y10844D01*
X5207Y10838D01*
X5213Y10831D01*
X5219Y10824D01*
X5224Y10814D01*
Y10814D01*
X5225Y10813D01*
X5225Y10811D01*
X5227Y10809D01*
X5227Y10807D01*
X5228Y10804D01*
X5230Y10796D01*
X5233Y10786D01*
X5235Y10774D01*
X5237Y10760D01*
X5237Y10745D01*
Y10739D01*
X5237Y10735D01*
Y10731D01*
X5236Y10722D01*
X5235Y10712D01*
X5233Y10700D01*
X5231Y10690D01*
X5228Y10680D01*
X5227Y10679D01*
X5226Y10676D01*
X5224Y10672D01*
X5220Y10666D01*
X5217Y10660D01*
X5212Y10653D01*
X5206Y10647D01*
X5199Y10640D01*
X5198Y10640D01*
X5196Y10638D01*
X5192Y10635D01*
X5187Y10632D01*
X5179Y10628D01*
X5172Y10624D01*
X5162Y10621D01*
X5152Y10617D01*
X5140Y10702D01*
X5142D01*
X5144Y10703D01*
X5149Y10704D01*
X5154Y10705D01*
X5166Y10710D01*
X5172Y10713D01*
X5176Y10717D01*
X5177Y10717D01*
X5178Y10718D01*
X5179Y10721D01*
X5180Y10724D01*
X5183Y10728D01*
X5184Y10733D01*
X5185Y10738D01*
X5185Y10744D01*
Y10747D01*
X5185Y10750D01*
X5184Y10754D01*
X5183Y10758D01*
X5180Y10763D01*
X5177Y10768D01*
X5173Y10772D01*
X5173Y10773D01*
X5171Y10774D01*
X5168Y10776D01*
X5164Y10778D01*
X5160Y10780D01*
X5154Y10782D01*
X5147Y10783D01*
X5140Y10784D01*
X5139D01*
X5137D01*
X5133Y10783D01*
X5128Y10783D01*
X5123Y10781D01*
X5117Y10779D01*
X5112Y10776D01*
X5107Y10773D01*
X5107Y10772D01*
X5106Y10770D01*
X5103Y10768D01*
X5101Y10765D01*
X5099Y10760D01*
X5097Y10755D01*
X5096Y10749D01*
X5096Y10743D01*
Y10739D01*
X5096Y10735D01*
X5097Y10732D01*
X5098Y10727D01*
X5099Y10722D01*
X5101Y10715D01*
X5041Y10719D01*
Y10723D01*
X5041Y10727D01*
Y10733D01*
X5041Y10737D01*
X5040Y10740D01*
X5039Y10744D01*
X5037Y10749D01*
X5034Y10754D01*
X5031Y10758D01*
X5031Y10759D01*
X5029Y10760D01*
X5027Y10762D01*
X5024Y10764D01*
X5021Y10766D01*
X5016Y10768D01*
X5011Y10769D01*
X5006Y10770D01*
X5006D01*
X5004D01*
X5001Y10769D01*
X4998Y10769D01*
X4995Y10768D01*
X4991Y10766D01*
X4987Y10764D01*
X4984Y10761D01*
X4983Y10761D01*
X4983Y10760D01*
X4981Y10758D01*
X4980Y10755D01*
X4978Y10752D01*
X4977Y10748D01*
X4976Y10744D01*
X4976Y10738D01*
Y10736D01*
X4976Y10733D01*
X4977Y10729D01*
X4978Y10725D01*
X4980Y10722D01*
X4982Y10718D01*
X4985Y10714D01*
X4986Y10713D01*
X4987Y10712D01*
X4989Y10711D01*
X4992Y10709D01*
X4997Y10707D01*
X5002Y10705D01*
X5008Y10703D01*
X5016Y10702D01*
X5002Y10622D01*
X5002D01*
X5001Y10622D01*
X4998Y10623D01*
X4996Y10623D01*
X4993Y10625D01*
X4989Y10626D01*
X4981Y10630D01*
X4971Y10635D01*
X4961Y10642D01*
X4952Y10649D01*
X4943Y10659D01*
Y10660D01*
X4942Y10660D01*
X4942Y10662D01*
X4940Y10665D01*
X4938Y10668D01*
X4937Y10671D01*
X4935Y10675D01*
X4933Y10680D01*
X4931Y10685D01*
X4930Y10692D01*
X4928Y10698D01*
X4926Y10705D01*
X4925Y10713D01*
X4924Y10722D01*
X4923Y10740D01*
Y10745D01*
X4923Y10750D01*
Y10755D01*
X4924Y10760D01*
X4925Y10766D01*
X4926Y10773D01*
X4928Y10788D01*
X4932Y10801D01*
X4938Y10815D01*
X4941Y10821D01*
X4945Y10826D01*
Y10827D01*
X4946Y10828D01*
X4949Y10831D01*
X4954Y10835D01*
X4961Y10840D01*
X4968Y10845D01*
X4978Y10849D01*
X4989Y10852D01*
X4995Y10853D01*
X5001Y10853D01*
X5002D01*
X5005D01*
X5008Y10853D01*
X5013Y10852D01*
X5018Y10850D01*
X5024Y10849D01*
X5031Y10846D01*
X5037Y10842D01*
X5037Y10841D01*
X5039Y10840D01*
X5042Y10838D01*
X5046Y10834D01*
X5050Y10830D01*
X5055Y10824D01*
X5060Y10818D01*
X5064Y10810D01*
Y10810D01*
X5065Y10813D01*
X5066Y10816D01*
X5067Y10820D01*
X5071Y10828D01*
X5072Y10833D01*
X5074Y10836D01*
X5075Y10837D01*
X5076Y10839D01*
X5078Y10841D01*
X5081Y10845D01*
X5084Y10849D01*
X5089Y10853D01*
X5094Y10856D01*
X5099Y10860D01*
X5100Y10860D01*
X5102Y10861D01*
X5106Y10862D01*
X5109Y10864D01*
X5115Y10866D01*
X5121Y10867D01*
X5128Y10868D01*
X5135Y10869D01*
X5136D01*
X5137D01*
X5140D01*
X5145Y10868D01*
D02*
G37*
G36*
X5134Y10587D02*
X5136Y10587D01*
X5138Y10586D01*
X5145Y10584D01*
X5153Y10581D01*
X5162Y10578D01*
X5172Y10573D01*
X5181Y10568D01*
X5190Y10561D01*
X5192Y10561D01*
X5194Y10558D01*
X5198Y10554D01*
X5204Y10549D01*
X5209Y10542D01*
X5215Y10535D01*
X5220Y10526D01*
X5225Y10517D01*
Y10516D01*
X5226Y10516D01*
X5227Y10514D01*
X5227Y10512D01*
X5229Y10506D01*
X5231Y10498D01*
X5233Y10489D01*
X5235Y10477D01*
X5237Y10464D01*
X5237Y10450D01*
Y10441D01*
X5237Y10437D01*
Y10432D01*
X5236Y10427D01*
X5235Y10421D01*
X5234Y10408D01*
X5231Y10394D01*
X5228Y10381D01*
X5223Y10368D01*
Y10367D01*
X5223Y10367D01*
X5222Y10365D01*
X5220Y10363D01*
X5217Y10357D01*
X5212Y10350D01*
X5204Y10341D01*
X5196Y10332D01*
X5185Y10323D01*
X5173Y10314D01*
X5172D01*
X5171Y10313D01*
X5169Y10312D01*
X5166Y10311D01*
X5163Y10309D01*
X5158Y10307D01*
X5153Y10305D01*
X5147Y10303D01*
X5141Y10301D01*
X5134Y10299D01*
X5126Y10297D01*
X5118Y10295D01*
X5109Y10294D01*
X5099Y10293D01*
X5079Y10291D01*
X5078D01*
X5076D01*
X5072Y10292D01*
X5067D01*
X5061Y10293D01*
X5053Y10294D01*
X5046Y10295D01*
X5037Y10296D01*
X5027Y10299D01*
X5018Y10301D01*
X5008Y10304D01*
X4998Y10308D01*
X4989Y10313D01*
X4980Y10318D01*
X4971Y10324D01*
X4963Y10331D01*
X4963Y10332D01*
X4962Y10333D01*
X4960Y10336D01*
X4957Y10339D01*
X4954Y10343D01*
X4951Y10348D01*
X4947Y10354D01*
X4943Y10361D01*
X4940Y10368D01*
X4936Y10377D01*
X4932Y10386D01*
X4929Y10396D01*
X4927Y10407D01*
X4925Y10419D01*
X4923Y10432D01*
X4923Y10445D01*
Y10451D01*
X4923Y10455D01*
Y10460D01*
X4924Y10465D01*
X4925Y10471D01*
X4926Y10478D01*
X4928Y10493D01*
X4933Y10508D01*
X4938Y10522D01*
X4942Y10529D01*
X4946Y10536D01*
Y10536D01*
X4947Y10537D01*
X4948Y10539D01*
X4951Y10541D01*
X4953Y10544D01*
X4956Y10547D01*
X4960Y10551D01*
X4964Y10554D01*
X4968Y10558D01*
X4974Y10562D01*
X4980Y10567D01*
X4986Y10571D01*
X4993Y10574D01*
X5001Y10578D01*
X5009Y10582D01*
X5018Y10585D01*
X5036Y10502D01*
X5036D01*
X5034Y10501D01*
X5031Y10500D01*
X5028Y10499D01*
X5022Y10496D01*
X5019Y10494D01*
X5016Y10492D01*
X5016Y10492D01*
X5015Y10491D01*
X5012Y10489D01*
X5010Y10487D01*
X5005Y10481D01*
X5000Y10473D01*
X4999Y10472D01*
X4998Y10471D01*
X4997Y10468D01*
X4996Y10466D01*
X4995Y10462D01*
X4995Y10457D01*
X4993Y10452D01*
Y10444D01*
X4994Y10442D01*
X4995Y10436D01*
X4997Y10429D01*
X5000Y10421D01*
X5005Y10413D01*
X5011Y10405D01*
X5015Y10402D01*
X5020Y10399D01*
X5021Y10398D01*
X5023Y10396D01*
X5028Y10395D01*
X5034Y10392D01*
X5042Y10390D01*
X5052Y10388D01*
X5064Y10386D01*
X5079Y10386D01*
X5079D01*
X5081D01*
X5084D01*
X5087D01*
X5091Y10386D01*
X5096D01*
X5107Y10387D01*
X5118Y10390D01*
X5129Y10392D01*
X5140Y10396D01*
X5144Y10398D01*
X5148Y10401D01*
X5149Y10401D01*
X5151Y10404D01*
X5154Y10407D01*
X5157Y10412D01*
X5161Y10418D01*
X5164Y10426D01*
X5166Y10434D01*
X5167Y10444D01*
Y10448D01*
X5166Y10453D01*
X5165Y10460D01*
X5163Y10466D01*
X5160Y10473D01*
X5157Y10480D01*
X5152Y10485D01*
X5151Y10486D01*
X5149Y10487D01*
X5145Y10490D01*
X5140Y10493D01*
X5134Y10496D01*
X5127Y10500D01*
X5118Y10503D01*
X5107Y10506D01*
X5133Y10588D01*
X5133D01*
X5134Y10587D01*
D02*
G37*
%LPC*%
G36*
X7157Y10687D02*
X7129Y10597D01*
X7184D01*
X7157Y10687D01*
D02*
G37*
G36*
Y9247D02*
X7129Y9157D01*
X7184D01*
X7157Y9247D01*
D02*
G37*
G36*
X5900Y10214D02*
X5818Y10118D01*
X5900D01*
Y10214D01*
D02*
G37*
G36*
X5573Y10238D02*
X5532D01*
Y10176D01*
X5575D01*
X5577Y10177D01*
X5581Y10177D01*
X5585Y10178D01*
X5591Y10179D01*
X5597Y10180D01*
X5597D01*
X5598Y10181D01*
X5600Y10181D01*
X5602Y10182D01*
X5607Y10185D01*
X5610Y10187D01*
X5612Y10190D01*
X5613Y10190D01*
X5613Y10191D01*
X5615Y10192D01*
X5616Y10195D01*
X5617Y10200D01*
X5618Y10204D01*
Y10207D01*
Y10208D01*
Y10210D01*
X5618Y10212D01*
X5617Y10216D01*
X5616Y10219D01*
X5615Y10223D01*
X5612Y10226D01*
X5609Y10230D01*
X5608Y10230D01*
X5607Y10231D01*
X5605Y10232D01*
X5601Y10234D01*
X5596Y10235D01*
X5590Y10237D01*
X5582Y10237D01*
X5573Y10238D01*
D02*
G37*
G36*
X5572Y9748D02*
X5530D01*
Y9686D01*
X5573D01*
X5575Y9687D01*
X5579Y9687D01*
X5583Y9688D01*
X5589Y9689D01*
X5595Y9690D01*
X5595D01*
X5596Y9691D01*
X5598Y9691D01*
X5600Y9692D01*
X5605Y9695D01*
X5608Y9697D01*
X5610Y9700D01*
X5611Y9700D01*
X5611Y9701D01*
X5613Y9702D01*
X5614Y9705D01*
X5615Y9710D01*
X5616Y9714D01*
Y9717D01*
Y9718D01*
Y9720D01*
X5616Y9722D01*
X5615Y9726D01*
X5614Y9729D01*
X5613Y9733D01*
X5610Y9736D01*
X5607Y9740D01*
X5606Y9740D01*
X5605Y9741D01*
X5603Y9742D01*
X5599Y9744D01*
X5594Y9745D01*
X5588Y9747D01*
X5580Y9747D01*
X5572Y9748D01*
D02*
G37*
G36*
X5553Y9271D02*
X5530D01*
Y9105D01*
X5558D01*
X5563Y9105D01*
X5569D01*
X5576Y9106D01*
X5583Y9108D01*
X5589Y9109D01*
X5595Y9111D01*
X5595Y9111D01*
X5597Y9112D01*
X5599Y9114D01*
X5602Y9116D01*
X5605Y9119D01*
X5609Y9123D01*
X5612Y9128D01*
X5615Y9134D01*
X5615Y9134D01*
X5616Y9137D01*
X5617Y9141D01*
X5619Y9146D01*
X5620Y9154D01*
X5621Y9163D01*
X5621Y9174D01*
X5622Y9186D01*
Y9187D01*
Y9189D01*
Y9191D01*
Y9194D01*
X5621Y9198D01*
Y9202D01*
X5620Y9213D01*
X5618Y9224D01*
X5615Y9235D01*
X5611Y9245D01*
X5609Y9249D01*
X5606Y9252D01*
X5605Y9253D01*
X5603Y9255D01*
X5599Y9258D01*
X5593Y9262D01*
X5586Y9265D01*
X5577Y9268D01*
X5566Y9270D01*
X5553Y9271D01*
D02*
G37*
G36*
X5535Y10701D02*
X5512D01*
Y10535D01*
X5540D01*
X5545Y10535D01*
X5551D01*
X5558Y10536D01*
X5565Y10538D01*
X5571Y10539D01*
X5577Y10541D01*
X5577Y10541D01*
X5579Y10542D01*
X5581Y10544D01*
X5584Y10546D01*
X5587Y10549D01*
X5591Y10553D01*
X5594Y10558D01*
X5597Y10564D01*
X5597Y10564D01*
X5598Y10567D01*
X5599Y10571D01*
X5601Y10576D01*
X5602Y10584D01*
X5603Y10593D01*
X5603Y10604D01*
X5604Y10616D01*
Y10617D01*
Y10619D01*
Y10621D01*
Y10624D01*
X5603Y10628D01*
Y10632D01*
X5602Y10643D01*
X5600Y10654D01*
X5597Y10665D01*
X5593Y10675D01*
X5591Y10679D01*
X5588Y10682D01*
X5587Y10683D01*
X5585Y10685D01*
X5581Y10688D01*
X5575Y10692D01*
X5568Y10695D01*
X5559Y10698D01*
X5548Y10700D01*
X5535Y10701D01*
D02*
G37*
G36*
X3340Y11838D02*
X3244D01*
X3340Y11756D01*
Y11838D01*
D02*
G37*
G36*
X2636Y10363D02*
X2633D01*
X2632D01*
X2630D01*
X2628Y10363D01*
X2624Y10362D01*
X2621Y10361D01*
X2617Y10359D01*
X2614Y10357D01*
X2610Y10354D01*
X2610Y10353D01*
X2609Y10352D01*
X2608Y10349D01*
X2606Y10346D01*
X2605Y10341D01*
X2603Y10335D01*
X2603Y10327D01*
X2602Y10318D01*
Y10277D01*
X2664D01*
Y10320D01*
X2663Y10322D01*
X2663Y10325D01*
X2662Y10330D01*
X2661Y10335D01*
X2660Y10342D01*
Y10342D01*
X2659Y10343D01*
X2659Y10345D01*
X2658Y10347D01*
X2655Y10352D01*
X2653Y10355D01*
X2650Y10357D01*
X2650Y10358D01*
X2649Y10358D01*
X2648Y10359D01*
X2645Y10360D01*
X2640Y10362D01*
X2636Y10363D01*
D02*
G37*
%LPD*%
D10*
X6977Y0D02*
G03*
X7677Y700I0J700D01*
G01*
Y13769D02*
G03*
X6977Y14468I-700J0D01*
G01*
X700D02*
G03*
X0Y13769I0J-700D01*
G01*
Y700D02*
G03*
X700Y0I700J0D01*
G01*
X0Y11500D02*
Y13769D01*
X700Y0D02*
X6977D01*
X0Y700D02*
Y11500D01*
X7677Y700D02*
X7677Y13769D01*
X700Y14468D02*
X6977Y14468D01*
X2114Y11713D02*
Y12163D01*
Y11263D02*
Y11713D01*
X214Y11263D02*
X2114D01*
X214D02*
Y11713D01*
Y12163D02*
X2114D01*
X214Y11713D02*
Y12163D01*
X5514D02*
X7464D01*
X5514Y11263D02*
X7464D01*
Y11713D01*
Y12163D01*
X3564D02*
X5514D01*
X3564Y11263D02*
X5514D01*
X3564D02*
Y11713D01*
Y12163D01*
D11*
X2736Y9733D02*
G03*
X2736Y9733I-39J0D01*
G01*
D12*
X3510Y10904D02*
G03*
X3510Y10904I-10J0D01*
G01*
D13*
X6421Y9328D02*
X6579D01*
X6421Y9052D02*
X6579D01*
X6421Y10472D02*
X6579D01*
X6421Y10748D02*
X6579D01*
X561Y5480D02*
Y5860D01*
X557Y7495D02*
Y7766D01*
X1557Y7275D02*
Y7766D01*
X1561Y5480D02*
Y6095D01*
X1693Y2441D02*
X5984D01*
X1476Y2657D02*
X1693Y2441D01*
X1496Y2283D02*
X1693Y2441D01*
X5984D02*
X6181Y2283D01*
X5984Y2441D02*
X6201Y2657D01*
D14*
X6500Y10320D02*
X6770D01*
X6230D02*
X6500D01*
X6230Y10000D02*
X6500D01*
X6770D01*
X6500Y9810D02*
X6770D01*
X6230D02*
X6500D01*
X6230Y9490D02*
X6500D01*
X6770D01*
X1336Y9485D02*
Y9755D01*
Y10025D01*
X1016Y9755D02*
Y10025D01*
Y9485D02*
Y9755D01*
X6840Y8010D02*
Y8280D01*
Y7740D02*
Y8010D01*
X7160Y7740D02*
Y8010D01*
Y8280D01*
X4530Y10214D02*
Y10484D01*
Y10754D01*
X4850Y10484D02*
Y10754D01*
Y10214D02*
Y10484D01*
X2910Y10214D02*
Y10484D01*
Y10754D01*
X3230Y10484D02*
Y10754D01*
Y10214D02*
Y10484D01*
X1340Y10610D02*
Y10880D01*
Y10340D02*
Y10610D01*
X1020Y10340D02*
Y10610D01*
Y10880D01*
X5840Y7740D02*
Y8010D01*
Y8280D01*
X6160Y8010D02*
Y8280D01*
Y7740D02*
Y8010D01*
X6660Y8005D02*
Y8275D01*
Y7735D02*
Y8005D01*
X6340Y7735D02*
Y8005D01*
Y8275D01*
D15*
X527Y4368D02*
Y4478D01*
X827Y4368D02*
Y4478D01*
X627Y7866D02*
X727D01*
X1577Y7716D02*
X1777Y7716D01*
X577D02*
X777D01*
X1177Y4478D02*
Y5478D01*
X1627Y7866D02*
X1727Y7866D01*
X797Y5478D02*
X797Y7766D01*
X1827Y4368D02*
Y4478D01*
X1527Y4368D02*
Y4478D01*
X557Y7766D02*
X627Y7866D01*
X727D02*
X797Y7766D01*
X1557Y7766D02*
X1627Y7866D01*
X1727Y7866D02*
X1797Y7766D01*
Y5478D02*
Y7766D01*
D16*
X177Y4498D02*
Y5478D01*
Y4498D02*
X2177D01*
Y5478D01*
X177D02*
X2177D01*
X1476Y2067D02*
Y2657D01*
X6201D01*
Y2067D02*
Y2657D01*
X214Y2070D02*
X7454D01*
X214Y1280D02*
Y2070D01*
X7454Y490D02*
Y2070D01*
X214Y490D02*
X7454D01*
X214D02*
Y1280D01*
D17*
X3169Y5855D02*
X4508D01*
Y9675D01*
X3445D02*
X4508D01*
X3169Y5855D02*
Y9400D01*
X3445Y9675D01*
D18*
X3585Y10074D02*
X3880D01*
X3870D02*
X4180D01*
X3870Y10894D02*
X4180D01*
X3585D02*
X3880D01*
M02*
