G04*
G04 #@! TF.GenerationSoftware,Altium Limited,Altium Designer,23.0.1 (38)*
G04*
G04 Layer_Color=16711935*
%FSLAX24Y24*%
%MOIN*%
G70*
G04*
G04 #@! TF.SameCoordinates,212204B1-6FDB-4007-BCD0-930B6937FDD8*
G04*
G04*
G04 #@! TF.FilePolarity,Negative*
G04*
G01*
G75*
%ADD29C,0.0720*%
%ADD30C,0.0540*%
%ADD31C,0.0735*%
%ADD32C,0.1812*%
G36*
X6506Y9161D02*
X6509Y9159D01*
X6511Y9157D01*
X6511Y9040D01*
X6510Y9035D01*
X6509Y9034D01*
X6502Y9033D01*
X6500Y9033D01*
X6499Y9033D01*
X6222Y9033D01*
X6212Y9033D01*
X6211Y9032D01*
X6209Y9029D01*
X6208Y9027D01*
X6209Y8933D01*
X6208Y8924D01*
X6209Y8921D01*
X6212Y8919D01*
X6221Y8920D01*
X6222Y8919D01*
X6498Y8920D01*
X6507Y8919D01*
X6509Y8919D01*
X6510Y8918D01*
X6511Y8916D01*
X6511Y8914D01*
X6511Y8805D01*
X6511Y8797D01*
X6510Y8794D01*
X6509Y8793D01*
X5983Y8792D01*
X5813D01*
X5806Y8791D01*
X5804Y8792D01*
X5802Y8794D01*
X5801Y8913D01*
X5802Y8918D01*
X5803Y8919D01*
X5808Y8920D01*
X5810Y8919D01*
X6085Y8920D01*
X6095Y8919D01*
X6097Y8920D01*
X6099Y8922D01*
X6099Y9026D01*
X6098Y9031D01*
X6096Y9033D01*
X6090Y9033D01*
X5820Y9033D01*
X5805Y9033D01*
X5802Y9036D01*
X5801Y9154D01*
X5802Y9156D01*
X5803Y9159D01*
X5805Y9161D01*
X6506Y9161D01*
D02*
G37*
G36*
X6747Y8677D02*
X6750Y8676D01*
X6751Y8675D01*
X6753Y8672D01*
X6752Y8666D01*
X6753Y8664D01*
X6752Y8662D01*
X6753Y8584D01*
Y8583D01*
Y8525D01*
X6752Y8521D01*
X6753Y8518D01*
X6752Y8516D01*
X6753Y8511D01*
X6754Y8510D01*
X6756Y8509D01*
X6758Y8508D01*
X7335Y8508D01*
X7337Y8508D01*
X7345Y8508D01*
X7349Y8508D01*
X7353Y8506D01*
X7354Y8504D01*
X7354Y8497D01*
X7354Y8386D01*
X7354Y8383D01*
X7350Y8381D01*
X7347Y8380D01*
X6657Y8380D01*
X6652Y8380D01*
X6648Y8380D01*
X6645Y8381D01*
X6643Y8383D01*
X6643Y8386D01*
X6643Y8668D01*
X6643Y8669D01*
X6643Y8674D01*
X6646Y8676D01*
X6650Y8677D01*
X6740Y8677D01*
X6743Y8677D01*
X6747Y8677D01*
D02*
G37*
G36*
X6401Y8662D02*
X6404Y8661D01*
X6420Y8660D01*
X6429Y8659D01*
X6435Y8658D01*
X6438Y8657D01*
X6443Y8655D01*
X6446Y8654D01*
X6450Y8653D01*
X6454Y8651D01*
X6455Y8651D01*
X6458Y8649D01*
X6462Y8647D01*
X6466Y8646D01*
X6468Y8643D01*
X6473Y8641D01*
X6478Y8636D01*
X6479Y8635D01*
X6482Y8631D01*
X6483Y8630D01*
X6484Y8629D01*
X6485Y8629D01*
X6489Y8623D01*
X6489Y8622D01*
X6492Y8619D01*
X6494Y8616D01*
X6496Y8612D01*
X6499Y8607D01*
X6501Y8601D01*
X6505Y8593D01*
X6505Y8590D01*
X6506Y8581D01*
X6508Y8576D01*
X6509Y8573D01*
X6510Y8571D01*
X6509Y8560D01*
X6511Y8556D01*
X6511Y8427D01*
X6511Y8419D01*
X6510Y8416D01*
X6509Y8409D01*
X6510Y8407D01*
X6509Y8406D01*
X6507Y8397D01*
X6506Y8387D01*
X6505Y8385D01*
X6504Y8380D01*
X6502Y8376D01*
X6500Y8371D01*
X6499Y8367D01*
X6496Y8362D01*
X6495Y8361D01*
X6493Y8357D01*
X6491Y8354D01*
X6487Y8348D01*
X6486Y8347D01*
X6478Y8339D01*
X6476Y8338D01*
X6475Y8337D01*
X6474Y8336D01*
X6471Y8334D01*
X6464Y8330D01*
X6460Y8326D01*
X6454Y8324D01*
X6450Y8322D01*
X6447Y8320D01*
X6443Y8319D01*
X6438Y8319D01*
X6435Y8318D01*
X6432Y8317D01*
X6428Y8317D01*
X6425Y8316D01*
X6422Y8315D01*
X6406Y8314D01*
X6404Y8313D01*
X5949Y8313D01*
X5917D01*
X5909Y8314D01*
X5893Y8314D01*
X5890Y8315D01*
X5886Y8316D01*
X5883Y8317D01*
X5880Y8317D01*
X5878Y8318D01*
X5872Y8319D01*
X5867Y8320D01*
X5863Y8322D01*
X5861Y8323D01*
X5856Y8325D01*
X5850Y8328D01*
X5843Y8332D01*
X5841Y8332D01*
X5838Y8335D01*
X5835Y8337D01*
X5831Y8341D01*
X5831Y8342D01*
X5830Y8342D01*
X5828Y8344D01*
X5825Y8348D01*
X5825Y8349D01*
X5822Y8352D01*
X5818Y8358D01*
X5815Y8362D01*
X5814Y8365D01*
X5811Y8372D01*
X5808Y8376D01*
X5807Y8379D01*
X5807Y8383D01*
X5806Y8386D01*
X5805Y8391D01*
X5803Y8394D01*
X5803Y8397D01*
X5802Y8404D01*
X5801Y8405D01*
X5800Y8541D01*
X5800Y8543D01*
X5801Y8550D01*
X5801Y8570D01*
X5802Y8574D01*
X5803Y8578D01*
X5804Y8582D01*
X5805Y8584D01*
X5806Y8587D01*
X5806Y8590D01*
X5807Y8595D01*
X5808Y8597D01*
X5810Y8602D01*
X5812Y8604D01*
X5813Y8608D01*
X5814Y8612D01*
X5816Y8614D01*
X5817Y8616D01*
X5818Y8617D01*
X5819Y8618D01*
X5820Y8621D01*
X5825Y8626D01*
X5825Y8627D01*
X5830Y8631D01*
X5831Y8634D01*
X5832Y8634D01*
X5834Y8636D01*
X5836Y8637D01*
X5838Y8639D01*
X5841Y8642D01*
X5843Y8643D01*
X5846Y8646D01*
X5849Y8647D01*
X5853Y8648D01*
X5858Y8651D01*
X5863Y8653D01*
X5868Y8655D01*
X5871Y8656D01*
X5875Y8658D01*
X5877Y8658D01*
X5882Y8659D01*
X5884Y8660D01*
X5906Y8660D01*
X5908Y8661D01*
X5910Y8662D01*
X6036Y8662D01*
X6039Y8661D01*
X6041Y8658D01*
X6041Y8656D01*
X6041Y8549D01*
X6042Y8537D01*
X6041Y8534D01*
X6039Y8532D01*
X5916Y8532D01*
X5911Y8531D01*
X5910Y8530D01*
X5908Y8526D01*
X5907Y8524D01*
X5908Y8458D01*
X5907Y8450D01*
X5909Y8447D01*
X5912Y8445D01*
X5916Y8443D01*
X5918Y8442D01*
X6383Y8441D01*
X6385Y8442D01*
X6390Y8441D01*
X6396Y8442D01*
X6400Y8444D01*
X6403Y8448D01*
X6403Y8454D01*
X6403Y8455D01*
X6403Y8517D01*
X6403Y8527D01*
X6402Y8529D01*
X6401Y8530D01*
X6399Y8531D01*
X6397Y8532D01*
X6276Y8531D01*
X6271Y8532D01*
X6268Y8535D01*
X6268Y8650D01*
X6268Y8652D01*
X6268Y8657D01*
X6270Y8661D01*
X6273Y8663D01*
X6395Y8662D01*
X6397Y8663D01*
X6401Y8662D01*
D02*
G37*
G36*
X1144Y8713D02*
X1143Y8698D01*
X1142Y8689D01*
X1142Y8686D01*
Y8686D01*
X1141Y8678D01*
X1140Y8675D01*
X1139Y8672D01*
X1139Y8669D01*
X1137Y8663D01*
X1137Y8661D01*
X1135Y8656D01*
X1134Y8652D01*
X1131Y8642D01*
X1129Y8637D01*
X1128Y8634D01*
X1126Y8628D01*
X1121Y8619D01*
X1121Y8617D01*
X1119Y8616D01*
X1115Y8620D01*
X1113Y8622D01*
X1112Y8624D01*
X1113Y8625D01*
X1112Y8627D01*
X1110Y8628D01*
X1109Y8629D01*
X1104Y8635D01*
X1103Y8635D01*
X1102Y8636D01*
X1084Y8655D01*
X1083Y8655D01*
X1082Y8660D01*
X1081Y8661D01*
X1080Y8661D01*
X1079Y8663D01*
X1078Y8664D01*
X1077Y8664D01*
X1076Y8665D01*
X1075Y8667D01*
X1074Y8668D01*
X1073Y8668D01*
X1072Y8670D01*
X1070Y8672D01*
X1070Y8673D01*
X1071Y8677D01*
X1073Y8682D01*
X1073Y8685D01*
X1074Y8690D01*
X1075Y8693D01*
X1077Y8714D01*
X1144Y8713D01*
D02*
G37*
G36*
X956D02*
X955Y8711D01*
X954Y8709D01*
X953Y8708D01*
X952Y8706D01*
X951Y8705D01*
X950Y8704D01*
X949Y8702D01*
X925Y8668D01*
X924Y8667D01*
X921Y8662D01*
X920Y8661D01*
X917Y8656D01*
X916Y8654D01*
X914Y8650D01*
X912Y8648D01*
X911Y8645D01*
X909Y8641D01*
X908Y8638D01*
X907Y8637D01*
X905Y8634D01*
X903Y8627D01*
X900Y8621D01*
X899Y8617D01*
X898Y8614D01*
X896Y8606D01*
X895Y8600D01*
X893Y8593D01*
X893Y8589D01*
X892Y8580D01*
X892Y8558D01*
X892Y8556D01*
X893Y8544D01*
X894Y8542D01*
X895Y8536D01*
X896Y8531D01*
X896Y8529D01*
X900Y8518D01*
X901Y8517D01*
X901Y8515D01*
X899Y8513D01*
X898Y8511D01*
X897Y8510D01*
X896Y8510D01*
X895Y8508D01*
X890Y8503D01*
X889Y8503D01*
X888Y8502D01*
X887Y8500D01*
X886Y8500D01*
X885Y8499D01*
X884Y8497D01*
X883Y8497D01*
X882Y8495D01*
X880Y8494D01*
X879Y8493D01*
X878Y8492D01*
X877Y8490D01*
X876Y8490D01*
X875Y8488D01*
X873Y8487D01*
X872Y8486D01*
X872Y8485D01*
X871Y8485D01*
X870Y8484D01*
X869Y8483D01*
X869Y8482D01*
X867Y8480D01*
X866Y8480D01*
X865Y8479D01*
X863Y8477D01*
X862Y8476D01*
X861Y8474D01*
X859Y8473D01*
X858Y8471D01*
X855Y8469D01*
X855Y8466D01*
X855Y8465D01*
X854Y8464D01*
X852Y8463D01*
X850Y8462D01*
X849Y8463D01*
X848Y8467D01*
X847Y8468D01*
X846Y8472D01*
X843Y8478D01*
X841Y8482D01*
X839Y8486D01*
X838Y8491D01*
X836Y8496D01*
X833Y8507D01*
X832Y8511D01*
X830Y8515D01*
X830Y8517D01*
X829Y8523D01*
X827Y8530D01*
X827Y8535D01*
X826Y8541D01*
X825Y8550D01*
X825Y8565D01*
X824Y8572D01*
X825Y8574D01*
X826Y8597D01*
X826Y8599D01*
X828Y8611D01*
X828Y8613D01*
X829Y8615D01*
X830Y8621D01*
X831Y8624D01*
X833Y8630D01*
X833Y8633D01*
X834Y8636D01*
X835Y8640D01*
X836Y8643D01*
X839Y8652D01*
X842Y8658D01*
X849Y8673D01*
X854Y8682D01*
X858Y8690D01*
X861Y8695D01*
X864Y8699D01*
X867Y8704D01*
X872Y8711D01*
X873Y8714D01*
X956Y8713D01*
D02*
G37*
G36*
X980Y8694D02*
X980Y8693D01*
X985Y8688D01*
X985Y8687D01*
X988Y8685D01*
X989Y8684D01*
X990Y8683D01*
X996Y8677D01*
X996Y8675D01*
X1003Y8669D01*
X1003Y8668D01*
X1013Y8658D01*
X1014Y8656D01*
X1022Y8648D01*
X1023Y8647D01*
X1038Y8631D01*
X1039Y8630D01*
X1046Y8623D01*
X1046Y8622D01*
X1049Y8620D01*
X1049Y8619D01*
X1052Y8615D01*
X1060Y8608D01*
X1060Y8606D01*
X1065Y8602D01*
X1065Y8601D01*
X1069Y8597D01*
X1069Y8596D01*
X1071Y8594D01*
X1072Y8593D01*
X1076Y8589D01*
X1076Y8588D01*
X1078Y8586D01*
X1079Y8584D01*
X1081Y8583D01*
X1081Y8581D01*
X1085Y8578D01*
X1085Y8577D01*
X1089Y8573D01*
X1102Y8554D01*
X1104Y8550D01*
X1107Y8545D01*
X1108Y8544D01*
X1114Y8534D01*
X1126Y8510D01*
X1127Y8506D01*
X1129Y8502D01*
X1130Y8499D01*
X1132Y8494D01*
X1133Y8489D01*
X1134Y8486D01*
X1135Y8482D01*
X1136Y8479D01*
X1138Y8472D01*
X1139Y8466D01*
X1140Y8462D01*
X1141Y8456D01*
X1142Y8450D01*
X1143Y8441D01*
X1143Y8433D01*
X1144Y8412D01*
X1143Y8410D01*
X1142Y8392D01*
X1142Y8390D01*
X1141Y8382D01*
X1139Y8376D01*
X1138Y8368D01*
X1137Y8365D01*
X1135Y8359D01*
X1134Y8355D01*
X1132Y8349D01*
X1131Y8345D01*
X1126Y8334D01*
X1126Y8331D01*
X1121Y8322D01*
X1117Y8314D01*
X1115D01*
X1115Y8314D01*
X1112Y8315D01*
X1112Y8320D01*
X1109Y8322D01*
X1109Y8323D01*
X1107Y8324D01*
X1106Y8326D01*
X1105Y8327D01*
X1104Y8328D01*
X1102Y8329D01*
X1102Y8330D01*
X1100Y8331D01*
X1099Y8332D01*
X1099Y8333D01*
X1096Y8335D01*
X1095Y8340D01*
X1094Y8341D01*
X1083Y8352D01*
X1082Y8357D01*
X1081Y8357D01*
X1069Y8369D01*
X1069Y8372D01*
X1070Y8376D01*
X1071Y8380D01*
X1072Y8382D01*
X1073Y8389D01*
X1074Y8392D01*
X1075Y8396D01*
X1076Y8400D01*
X1076Y8428D01*
X1075Y8441D01*
X1074Y8450D01*
X1073Y8453D01*
X1072Y8459D01*
X1070Y8464D01*
X1069Y8469D01*
X1068Y8472D01*
X1064Y8482D01*
X1063Y8483D01*
X1061Y8487D01*
X1058Y8494D01*
X1050Y8508D01*
X1049Y8509D01*
X1046Y8514D01*
X1045Y8515D01*
X1042Y8520D01*
X1041Y8522D01*
X1040Y8523D01*
X1037Y8528D01*
X1032Y8534D01*
X1031Y8536D01*
X1030Y8537D01*
X1027Y8541D01*
X1026Y8542D01*
X1025Y8543D01*
X1022Y8546D01*
X1021Y8547D01*
X1019Y8550D01*
X1018Y8552D01*
X1015Y8555D01*
X1014Y8556D01*
X1009Y8561D01*
X1008Y8563D01*
X1002Y8569D01*
X1001Y8570D01*
X995Y8577D01*
X995Y8578D01*
X993Y8578D01*
X992Y8581D01*
X983Y8589D01*
X983Y8590D01*
X972Y8601D01*
X971Y8602D01*
X968Y8606D01*
X968Y8607D01*
X966Y8607D01*
X962Y8611D01*
X962Y8613D01*
X953Y8622D01*
X952Y8623D01*
X951Y8624D01*
X950Y8625D01*
X946Y8629D01*
X942Y8633D01*
X942Y8634D01*
X939Y8637D01*
X938Y8639D01*
X944Y8651D01*
X947Y8656D01*
X949Y8657D01*
X950Y8662D01*
X953Y8664D01*
X955Y8668D01*
X960Y8674D01*
X960Y8676D01*
X962Y8677D01*
X964Y8681D01*
X965Y8682D01*
X967Y8686D01*
X969Y8688D01*
X971Y8691D01*
X973Y8693D01*
X975Y8696D01*
X977Y8696D01*
X980Y8694D01*
D02*
G37*
G36*
X5908Y8208D02*
X5910Y8207D01*
X5911Y8017D01*
X5912Y8013D01*
X5914Y8012D01*
X6103Y8012D01*
X6105Y8011D01*
X6107Y8012D01*
X6110Y8013D01*
X6112Y8016D01*
X6113Y8022D01*
X6112Y8024D01*
X6112Y8154D01*
X6112Y8162D01*
X6113Y8166D01*
X6115Y8167D01*
X6122Y8168D01*
X6202Y8168D01*
X6216Y8168D01*
X6221Y8166D01*
X6222Y8163D01*
X6222Y8019D01*
X6223Y8014D01*
X6225Y8013D01*
X6395Y8012D01*
X6400Y8013D01*
X6401Y8015D01*
X6402Y8060D01*
Y8061D01*
Y8193D01*
X6403Y8198D01*
X6406Y8201D01*
X6413Y8200D01*
X6504Y8201D01*
X6509Y8199D01*
X6511Y8197D01*
X6511Y7889D01*
X6510Y7884D01*
X6508Y7883D01*
X5806Y7882D01*
X5803Y7883D01*
X5802Y7885D01*
X5801Y8202D01*
X5802Y8205D01*
X5803Y8208D01*
X5805Y8209D01*
X5896Y8208D01*
X5906Y8209D01*
X5908Y8208D01*
D02*
G37*
G36*
X974Y8533D02*
X977Y8530D01*
X978Y8529D01*
X979Y8528D01*
X987Y8520D01*
X988Y8520D01*
X990Y8514D01*
X991Y8513D01*
X992Y8513D01*
X992Y8511D01*
X993Y8510D01*
X995Y8510D01*
X996Y8507D01*
X999Y8506D01*
X999Y8504D01*
X1004Y8500D01*
X1005Y8499D01*
X1007Y8497D01*
X1008Y8496D01*
X1009Y8494D01*
X1008Y8492D01*
X1011Y8489D01*
X1012Y8489D01*
X1012Y8488D01*
X1015Y8486D01*
X1016Y8485D01*
Y8484D01*
X1015Y8482D01*
X1013Y8481D01*
X1012Y8479D01*
X1011Y8478D01*
X1002Y8469D01*
X1001Y8467D01*
X996Y8462D01*
X995Y8461D01*
X992Y8457D01*
X991Y8456D01*
X989Y8454D01*
X988Y8453D01*
X982Y8447D01*
X981Y8445D01*
X975Y8439D01*
X974Y8438D01*
X972Y8436D01*
X971Y8434D01*
X969Y8432D01*
X967Y8429D01*
X965Y8427D01*
X965Y8426D01*
X961Y8422D01*
X960Y8421D01*
X959Y8420D01*
X958Y8418D01*
X956Y8416D01*
X954Y8413D01*
X932Y8381D01*
X931Y8380D01*
X929Y8378D01*
X928Y8376D01*
X921Y8367D01*
X921Y8365D01*
X919Y8364D01*
X918Y8360D01*
X917Y8359D01*
X911Y8349D01*
X905Y8335D01*
X902Y8329D01*
X901Y8325D01*
X900Y8322D01*
X897Y8314D01*
X895Y8306D01*
X894Y8300D01*
X893Y8297D01*
X892Y8288D01*
X892Y8272D01*
X893Y8253D01*
X895Y8241D01*
X896Y8234D01*
X897Y8231D01*
X898Y8229D01*
X897Y8228D01*
X895Y8226D01*
X894Y8221D01*
X892Y8219D01*
X892Y8218D01*
X891Y8217D01*
X889Y8216D01*
X888Y8214D01*
X886Y8214D01*
X885Y8213D01*
X885Y8211D01*
X884Y8210D01*
X882Y8209D01*
X881Y8204D01*
X879Y8202D01*
X878Y8201D01*
X877Y8200D01*
X875Y8199D01*
X875Y8198D01*
X873Y8197D01*
X871Y8195D01*
X871Y8194D01*
X870Y8193D01*
X869Y8192D01*
X868Y8188D01*
X867Y8187D01*
X856Y8177D01*
X855Y8176D01*
X855Y8172D01*
X852Y8169D01*
X852Y8168D01*
X849Y8168D01*
X847Y8172D01*
X842Y8183D01*
X840Y8188D01*
X839Y8191D01*
X837Y8197D01*
X835Y8201D01*
X835Y8204D01*
X833Y8208D01*
X831Y8216D01*
X830Y8222D01*
X829Y8224D01*
X828Y8231D01*
X827Y8235D01*
X827Y8238D01*
X826Y8245D01*
X825Y8255D01*
X825Y8290D01*
X826Y8292D01*
X826Y8307D01*
X827Y8309D01*
X828Y8312D01*
X829Y8320D01*
X830Y8326D01*
X832Y8332D01*
X833Y8335D01*
X834Y8340D01*
X835Y8343D01*
X836Y8346D01*
X839Y8355D01*
X842Y8360D01*
X845Y8367D01*
X846Y8370D01*
X849Y8376D01*
X850Y8379D01*
X853Y8383D01*
X858Y8392D01*
X861Y8398D01*
X862Y8399D01*
X864Y8403D01*
X865Y8404D01*
X871Y8414D01*
X872Y8415D01*
X874Y8419D01*
X876Y8420D01*
X876Y8423D01*
X878Y8425D01*
X879Y8426D01*
X883Y8431D01*
X883Y8433D01*
X886Y8437D01*
X887Y8438D01*
X889Y8440D01*
X891Y8444D01*
X892Y8445D01*
X893Y8447D01*
X898Y8453D01*
X899Y8454D01*
X900Y8456D01*
X903Y8458D01*
X903Y8460D01*
X905Y8462D01*
X906Y8463D01*
X910Y8467D01*
X910Y8468D01*
X912Y8470D01*
X913Y8472D01*
X918Y8477D01*
X919Y8478D01*
X922Y8481D01*
X923Y8484D01*
X925Y8485D01*
X926Y8487D01*
X929Y8490D01*
X930Y8491D01*
X936Y8497D01*
X937Y8499D01*
X942Y8504D01*
X943Y8506D01*
X945Y8507D01*
X947Y8510D01*
X948Y8511D01*
X950Y8513D01*
X950Y8514D01*
X952Y8514D01*
X953Y8517D01*
X960Y8523D01*
X960Y8524D01*
X969Y8533D01*
X969Y8534D01*
X970Y8535D01*
X974Y8533D01*
D02*
G37*
G36*
X2486Y8121D02*
X2489Y8120D01*
X2491Y8116D01*
X2495Y8114D01*
X2497Y8112D01*
X2497Y7927D01*
X2496Y7926D01*
X2492Y7923D01*
X2490Y7920D01*
X2488Y7918D01*
X2485Y7917D01*
X2431Y7917D01*
X2429Y7917D01*
X2427Y7917D01*
X2424Y7918D01*
X2422Y7923D01*
X2421Y7924D01*
X2417Y7924D01*
X2409Y7924D01*
X2407Y7924D01*
X2394Y7924D01*
X2391Y7924D01*
X2390Y7925D01*
X2388Y7929D01*
X2386Y7931D01*
X2381Y7931D01*
X2377Y7930D01*
X2376Y7928D01*
X2375Y7927D01*
X2374Y7926D01*
X2372Y7924D01*
X2279Y7924D01*
X2265Y7924D01*
X2263Y7924D01*
X2262Y7925D01*
X2259Y7929D01*
X2258Y7930D01*
X2256Y7931D01*
X2032Y7931D01*
X2031Y7932D01*
X2029Y7935D01*
X2026Y7938D01*
X2015Y7937D01*
X2012Y7938D01*
X2010Y7939D01*
X2008Y7943D01*
X2006Y7944D01*
X2001Y7945D01*
X1998Y7944D01*
X1995Y7940D01*
X1995Y7939D01*
X1992Y7937D01*
X1917Y7938D01*
X1916Y7937D01*
X1914Y7933D01*
X1912Y7931D01*
X1524Y7931D01*
X1523Y7932D01*
X1521Y7935D01*
X1517Y7938D01*
X1516Y7938D01*
X1514Y7941D01*
X1514Y7942D01*
X1512Y7944D01*
X1508Y7945D01*
X1505Y7944D01*
X1499Y7945D01*
X1496Y7944D01*
X1494Y7940D01*
X1493Y7939D01*
X1489Y7937D01*
X1487Y7935D01*
X1487Y7933D01*
X1485Y7931D01*
X1463Y7931D01*
X1461Y7931D01*
X1456Y7931D01*
X1455Y7930D01*
X1453Y7926D01*
X1451Y7924D01*
X1445Y7924D01*
X1443Y7924D01*
X1427Y7924D01*
X1418Y7924D01*
X1415Y7923D01*
X1411Y7918D01*
X1408Y7917D01*
X1375Y7917D01*
X1372Y7913D01*
X1371Y7912D01*
X1370Y7911D01*
X1362Y7910D01*
X1360Y7911D01*
X1359Y7910D01*
X1337Y7911D01*
X1330Y7910D01*
X1327Y7911D01*
X1324Y7914D01*
X1324Y7915D01*
X1320Y7917D01*
X1319Y7918D01*
X1318Y7921D01*
X1318Y8034D01*
X1317Y8048D01*
X1318Y8050D01*
X1319Y8051D01*
X1323Y8054D01*
X1324Y8055D01*
X1325Y8057D01*
X1324Y8075D01*
X1325Y8078D01*
X1329Y8080D01*
X1331Y8082D01*
X1331Y8088D01*
X1331Y8093D01*
X1331Y8098D01*
X1332Y8099D01*
X1336Y8101D01*
X1338Y8103D01*
X1338Y8105D01*
X1342Y8107D01*
X1343Y8108D01*
X1345Y8111D01*
X1346Y8112D01*
X1348Y8114D01*
X1363Y8114D01*
X1443D01*
X1455Y8114D01*
X1457Y8114D01*
X1458Y8113D01*
X1461Y8109D01*
X1462Y8108D01*
X1464Y8107D01*
X1909Y8107D01*
X1913Y8106D01*
X1915Y8103D01*
X1917Y8101D01*
X1918Y8100D01*
X1921Y8099D01*
X1926Y8101D01*
X1927Y8103D01*
X1928Y8105D01*
X1930Y8107D01*
X1991Y8107D01*
X1994Y8106D01*
X1996Y8103D01*
X1998Y8101D01*
X2154Y8100D01*
X2157Y8101D01*
X2159Y8105D01*
X2160Y8107D01*
X2331Y8107D01*
X2334Y8107D01*
X2339Y8107D01*
X2340Y8108D01*
X2342Y8112D01*
X2345Y8114D01*
X2393Y8114D01*
X2394Y8115D01*
X2396Y8119D01*
X2398Y8120D01*
X2484Y8121D01*
X2486Y8121D01*
D02*
G37*
G36*
X993Y8382D02*
X998Y8378D01*
X999Y8376D01*
X1003Y8372D01*
X1004Y8371D01*
X1005Y8370D01*
X1006Y8369D01*
X1007Y8367D01*
X1015Y8359D01*
X1016Y8358D01*
X1025Y8349D01*
X1026Y8347D01*
X1028Y8346D01*
X1032Y8342D01*
X1033Y8340D01*
X1040Y8333D01*
X1040Y8332D01*
X1049Y8324D01*
X1049Y8322D01*
X1056Y8316D01*
X1056Y8315D01*
X1057Y8314D01*
X1058Y8313D01*
X1059Y8312D01*
X1060Y8310D01*
X1061Y8309D01*
X1065Y8305D01*
X1066Y8304D01*
X1067Y8302D01*
X1068Y8302D01*
X1069Y8301D01*
X1070Y8299D01*
X1071Y8298D01*
X1074Y8294D01*
X1076Y8292D01*
X1077Y8291D01*
X1078Y8290D01*
X1079Y8289D01*
X1081Y8285D01*
X1083Y8284D01*
X1083Y8283D01*
X1085Y8281D01*
X1086Y8279D01*
X1088Y8277D01*
X1090Y8274D01*
X1092Y8272D01*
X1094Y8268D01*
X1098Y8263D01*
X1107Y8249D01*
X1108Y8248D01*
X1113Y8239D01*
X1115Y8238D01*
X1116Y8234D01*
X1119Y8229D01*
X1123Y8219D01*
X1126Y8213D01*
X1126Y8210D01*
X1128Y8209D01*
X1128Y8206D01*
X1132Y8197D01*
X1133Y8194D01*
X1134Y8190D01*
X1135Y8187D01*
X1136Y8184D01*
X1137Y8181D01*
X1138Y8177D01*
X1139Y8173D01*
X1140Y8165D01*
X1141Y8161D01*
X1142Y8151D01*
X1143Y8133D01*
X1144Y8115D01*
X1143Y8112D01*
X1142Y8096D01*
X1142Y8094D01*
X1141Y8086D01*
X1140Y8084D01*
X1140Y8081D01*
X1138Y8073D01*
X1136Y8066D01*
X1135Y8063D01*
X1134Y8059D01*
X1133Y8056D01*
X1132Y8052D01*
X1130Y8047D01*
X1129Y8043D01*
X1128Y8041D01*
X1125Y8033D01*
X1122Y8027D01*
X1116Y8015D01*
X1113Y8010D01*
X1111Y8010D01*
X1109Y8012D01*
X1110Y8015D01*
X1104Y8021D01*
X1103Y8021D01*
X1102Y8023D01*
X1101Y8024D01*
X1100Y8025D01*
X1098Y8027D01*
X1096Y8028D01*
X1096Y8029D01*
X1094Y8031D01*
X1093Y8031D01*
X1092Y8033D01*
X1091Y8034D01*
X1090Y8035D01*
X1089Y8040D01*
X1088Y8041D01*
X1086Y8041D01*
X1085Y8043D01*
X1084Y8044D01*
X1082Y8046D01*
X1081Y8047D01*
X1079Y8049D01*
X1078Y8050D01*
X1076Y8052D01*
X1075Y8054D01*
X1073Y8054D01*
X1071Y8057D01*
X1069Y8058D01*
X1069Y8060D01*
X1068Y8061D01*
X1066Y8061D01*
X1066Y8069D01*
X1069Y8076D01*
X1070Y8081D01*
X1071Y8083D01*
X1072Y8087D01*
X1073Y8093D01*
X1074Y8096D01*
X1075Y8100D01*
X1076Y8118D01*
X1076Y8145D01*
X1075Y8147D01*
X1074Y8151D01*
X1074Y8153D01*
X1073Y8159D01*
X1072Y8164D01*
X1070Y8167D01*
X1069Y8172D01*
X1068Y8175D01*
X1066Y8181D01*
X1065Y8183D01*
X1053Y8206D01*
X1051Y8211D01*
X1047Y8216D01*
X1044Y8221D01*
X1043Y8222D01*
X1041Y8226D01*
X1040Y8227D01*
X1037Y8232D01*
X1035Y8234D01*
X1034Y8235D01*
X1033Y8237D01*
X1033Y8237D01*
X1029Y8241D01*
X1028Y8242D01*
X1028Y8243D01*
X1026Y8244D01*
X1026Y8246D01*
X1023Y8249D01*
X1022Y8250D01*
X1019Y8253D01*
X1019Y8254D01*
X1016Y8257D01*
X1015Y8258D01*
X1012Y8261D01*
X1012Y8263D01*
X1003Y8272D01*
X1002Y8273D01*
X1001Y8274D01*
X1000Y8274D01*
X999Y8276D01*
X998Y8277D01*
X997Y8278D01*
X996Y8279D01*
X995Y8281D01*
X990Y8286D01*
X989Y8288D01*
X983Y8294D01*
X982Y8295D01*
X980Y8297D01*
X979Y8297D01*
X978Y8299D01*
X968Y8309D01*
X968Y8310D01*
X966Y8311D01*
X965Y8313D01*
X963Y8314D01*
X962Y8315D01*
X955Y8322D01*
X955Y8324D01*
X953Y8325D01*
X952Y8328D01*
X953Y8330D01*
X954Y8330D01*
X958Y8334D01*
X959Y8334D01*
X960Y8340D01*
X962Y8341D01*
X963Y8342D01*
X964Y8343D01*
X966Y8344D01*
X967Y8349D01*
X969Y8351D01*
X970Y8353D01*
X972Y8354D01*
X973Y8355D01*
X974Y8360D01*
X976Y8362D01*
X977Y8363D01*
X978Y8364D01*
X979Y8365D01*
X980Y8370D01*
X982Y8371D01*
X986Y8375D01*
X987Y8379D01*
X990Y8382D01*
X990Y8383D01*
X993Y8382D01*
D02*
G37*
G36*
X972Y8238D02*
X976Y8235D01*
X985Y8225D01*
X986Y8221D01*
X987Y8220D01*
X991Y8216D01*
X992Y8216D01*
X994Y8213D01*
X995Y8213D01*
X996Y8211D01*
X997Y8209D01*
X999Y8209D01*
X999Y8204D01*
X1000Y8203D01*
X1002Y8202D01*
X1003Y8200D01*
X1005Y8199D01*
X1005Y8198D01*
X1007Y8196D01*
X1008Y8196D01*
X1009Y8194D01*
X1010Y8193D01*
X1011Y8193D01*
X1012Y8188D01*
X1013Y8186D01*
X1015Y8186D01*
X1014Y8184D01*
X1012Y8183D01*
X1011Y8181D01*
X999Y8169D01*
X998Y8167D01*
X997Y8166D01*
X996Y8166D01*
X995Y8165D01*
X992Y8161D01*
X991Y8160D01*
X989Y8158D01*
X988Y8157D01*
X983Y8152D01*
X983Y8151D01*
X981Y8149D01*
X980Y8148D01*
X979Y8147D01*
X978Y8146D01*
X976Y8143D01*
X975Y8142D01*
X969Y8136D01*
X968Y8134D01*
X967Y8133D01*
X965Y8131D01*
X965Y8130D01*
X962Y8128D01*
X962Y8126D01*
X960Y8124D01*
X958Y8121D01*
X956Y8119D01*
X954Y8116D01*
X953Y8115D01*
X951Y8111D01*
X949Y8110D01*
X947Y8106D01*
X946Y8105D01*
X945Y8103D01*
X944Y8102D01*
X943Y8101D01*
X933Y8087D01*
X929Y8082D01*
X928Y8081D01*
X926Y8077D01*
X925Y8076D01*
X924Y8074D01*
X923Y8073D01*
X914Y8058D01*
X912Y8054D01*
X911Y8051D01*
X909Y8049D01*
X908Y8045D01*
X907Y8044D01*
X904Y8037D01*
X902Y8033D01*
X900Y8028D01*
X896Y8013D01*
X895Y8008D01*
X894Y8004D01*
X893Y8001D01*
X893Y7998D01*
X892Y7986D01*
X892Y7965D01*
X892Y7963D01*
X893Y7953D01*
X894Y7951D01*
X894Y7944D01*
X896Y7940D01*
X896Y7936D01*
X898Y7933D01*
X899Y7929D01*
X900Y7926D01*
X901Y7923D01*
X901Y7921D01*
X899Y7919D01*
X898Y7915D01*
X893Y7910D01*
X892Y7910D01*
X892Y7908D01*
X890Y7907D01*
X889Y7906D01*
X888Y7905D01*
X885Y7902D01*
X885Y7902D01*
X873Y7890D01*
X872Y7890D01*
X871Y7885D01*
X870Y7884D01*
X869Y7883D01*
X868Y7881D01*
X866Y7880D01*
X864Y7878D01*
X863Y7877D01*
X862Y7876D01*
X862Y7875D01*
X860Y7873D01*
X859Y7873D01*
X858Y7871D01*
X854Y7867D01*
X852Y7868D01*
X851Y7869D01*
X849Y7873D01*
X846Y7878D01*
X845Y7882D01*
X842Y7887D01*
X842Y7890D01*
X840Y7891D01*
X839Y7896D01*
X836Y7903D01*
X835Y7907D01*
X833Y7911D01*
X833Y7914D01*
X832Y7918D01*
X831Y7920D01*
X829Y7928D01*
X828Y7935D01*
X827Y7938D01*
X826Y7947D01*
X826Y7950D01*
X825Y7970D01*
X824Y7981D01*
X825Y7983D01*
X826Y8003D01*
X826Y8006D01*
X827Y8014D01*
X828Y8016D01*
X828Y8019D01*
X829Y8026D01*
X830Y8029D01*
X831Y8033D01*
X832Y8036D01*
X833Y8039D01*
X835Y8045D01*
X836Y8049D01*
X837Y8052D01*
X839Y8056D01*
X839Y8059D01*
X842Y8065D01*
X844Y8070D01*
X845Y8071D01*
X847Y8076D01*
X851Y8083D01*
X858Y8096D01*
X859Y8097D01*
X861Y8102D01*
X862Y8103D01*
X865Y8108D01*
X875Y8123D01*
X879Y8130D01*
X881Y8133D01*
X886Y8140D01*
X887Y8142D01*
X889Y8144D01*
X891Y8147D01*
X892Y8149D01*
X894Y8152D01*
X896Y8153D01*
X896Y8155D01*
X899Y8158D01*
X900Y8159D01*
X902Y8161D01*
X903Y8163D01*
X906Y8166D01*
X908Y8169D01*
X909Y8170D01*
X912Y8174D01*
X913Y8175D01*
X916Y8178D01*
X917Y8179D01*
X919Y8182D01*
X920Y8183D01*
X926Y8189D01*
X926Y8190D01*
X928Y8192D01*
X928Y8193D01*
X933Y8198D01*
X934Y8199D01*
X939Y8205D01*
X940Y8206D01*
X949Y8215D01*
X949Y8216D01*
X950Y8217D01*
X951Y8217D01*
X952Y8219D01*
X956Y8223D01*
X957Y8224D01*
X963Y8231D01*
X964Y8232D01*
X966Y8234D01*
X968Y8236D01*
X970Y8239D01*
X972Y8238D01*
D02*
G37*
G36*
X6652Y8280D02*
X6658Y8278D01*
X6660Y8278D01*
X6673Y8276D01*
X6679Y8275D01*
X6688Y8272D01*
X6691Y8272D01*
X6694Y8271D01*
X6702Y8270D01*
X6711Y8269D01*
X6716Y8268D01*
X6720Y8266D01*
X6725Y8265D01*
X6730Y8265D01*
X6736Y8264D01*
X6738Y8263D01*
X6747Y8262D01*
X6753Y8260D01*
X6755Y8260D01*
X6762Y8259D01*
X6771Y8258D01*
X6778Y8256D01*
X6784Y8255D01*
X6787Y8253D01*
X6790Y8253D01*
X6795Y8252D01*
X6803Y8252D01*
X6807Y8251D01*
X6810Y8250D01*
X6815Y8248D01*
X6817Y8248D01*
X6820Y8247D01*
X6824Y8247D01*
X6832Y8246D01*
X6836Y8245D01*
X6839Y8245D01*
X6843Y8244D01*
X6848Y8242D01*
X6851Y8241D01*
X6854Y8241D01*
X6862Y8240D01*
X6866Y8239D01*
X6874Y8238D01*
X6879Y8236D01*
X6884Y8235D01*
X6888Y8235D01*
X6891Y8234D01*
X6900Y8233D01*
X6905Y8232D01*
X6913Y8230D01*
X6916Y8228D01*
X6932Y8227D01*
X6935Y8227D01*
X6939Y8225D01*
X6942Y8224D01*
X6944Y8223D01*
X6951Y8223D01*
X6953Y8222D01*
X6959Y8222D01*
X6964Y8221D01*
X6971Y8219D01*
X6975Y8218D01*
X6983Y8217D01*
X6986Y8216D01*
X6994Y8215D01*
X6996Y8215D01*
X7001Y8214D01*
X7006Y8212D01*
X7011Y8211D01*
X7021Y8209D01*
X7029Y8209D01*
X7033Y8208D01*
X7037Y8207D01*
X7041Y8205D01*
X7047Y8204D01*
X7053Y8203D01*
X7059Y8203D01*
X7063Y8202D01*
X7066Y8202D01*
X7072Y8199D01*
X7085Y8197D01*
X7093Y8196D01*
X7098Y8195D01*
X7102Y8194D01*
X7104Y8193D01*
X7111Y8192D01*
X7113Y8192D01*
X7120Y8191D01*
X7122Y8191D01*
X7127Y8190D01*
X7129Y8189D01*
X7134Y8189D01*
X7141Y8186D01*
X7147Y8185D01*
X7151Y8185D01*
X7158Y8184D01*
X7163Y8183D01*
X7167Y8182D01*
X7171Y8181D01*
X7181Y8179D01*
X7190Y8178D01*
X7192Y8178D01*
X7195Y8176D01*
X7202Y8175D01*
X7207Y8174D01*
X7210Y8173D01*
X7218Y8172D01*
X7221Y8172D01*
X7226Y8171D01*
X7229Y8170D01*
X7233Y8169D01*
X7238Y8168D01*
X7242Y8167D01*
X7252Y8166D01*
X7254Y8165D01*
X7260Y8165D01*
X7267Y8162D01*
X7270Y8162D01*
X7278Y8161D01*
X7287Y8159D01*
X7289Y8159D01*
X7294Y8158D01*
X7297Y8157D01*
X7300Y8156D01*
X7311Y8154D01*
X7318Y8154D01*
X7323Y8153D01*
X7328Y8151D01*
X7331Y8150D01*
X7334Y8150D01*
X7342Y8149D01*
X7346Y8148D01*
X7351Y8147D01*
X7353Y8145D01*
X7354Y8143D01*
X7354Y8141D01*
X7354Y7992D01*
X7354Y7983D01*
X7354Y7981D01*
X7352Y7980D01*
X7350Y7979D01*
X7342Y7977D01*
X7336Y7976D01*
X7327Y7974D01*
X7322Y7973D01*
X7306Y7971D01*
X7300Y7970D01*
X7297Y7969D01*
X7295Y7968D01*
X7290Y7967D01*
X7279Y7966D01*
X7277Y7966D01*
X7272Y7965D01*
X7270Y7964D01*
X7265Y7964D01*
X7260Y7962D01*
X7256Y7961D01*
X7254Y7961D01*
X7246Y7960D01*
X7239Y7959D01*
X7232Y7958D01*
X7229Y7957D01*
X7221Y7955D01*
X7217Y7955D01*
X7208Y7954D01*
X7204Y7953D01*
X7199Y7952D01*
X7194Y7951D01*
X7192Y7950D01*
X7186Y7949D01*
X7184Y7949D01*
X7175Y7948D01*
X7172Y7947D01*
X7164Y7946D01*
X7161Y7945D01*
X7156Y7944D01*
X7153Y7943D01*
X7150Y7942D01*
X7140Y7942D01*
X7135Y7941D01*
X7132Y7940D01*
X7129Y7939D01*
X7126Y7938D01*
X7121Y7938D01*
X7113Y7936D01*
X7108Y7936D01*
X7099Y7935D01*
X7097Y7934D01*
X7091Y7932D01*
X7088Y7932D01*
X7086Y7931D01*
X7078Y7930D01*
X7073Y7930D01*
X7066Y7928D01*
X7061Y7928D01*
X7056Y7926D01*
X7053Y7926D01*
X7046Y7924D01*
X7041Y7924D01*
X7034Y7923D01*
X7030Y7922D01*
X7025Y7920D01*
X7010Y7918D01*
X7003Y7917D01*
X6996Y7916D01*
X6993Y7916D01*
X6990Y7915D01*
X6984Y7913D01*
X6979Y7912D01*
X6971Y7912D01*
X6967Y7911D01*
X6962Y7910D01*
X6952Y7908D01*
X6950Y7907D01*
X6946Y7907D01*
X6936Y7905D01*
X6929Y7905D01*
X6926Y7904D01*
X6919Y7901D01*
X6915Y7901D01*
X6910Y7900D01*
X6905Y7900D01*
X6900Y7899D01*
X6896Y7898D01*
X6890Y7897D01*
X6888Y7897D01*
X6883Y7895D01*
X6880Y7894D01*
X6874Y7894D01*
X6868Y7893D01*
X6863Y7893D01*
X6860Y7892D01*
X6857Y7891D01*
X6849Y7890D01*
X6844Y7888D01*
X6842Y7888D01*
X6833Y7887D01*
X6830Y7887D01*
X6826Y7886D01*
X6821Y7885D01*
X6815Y7883D01*
X6808Y7882D01*
X6807D01*
X6802Y7882D01*
X6799Y7881D01*
X6795Y7880D01*
X6792Y7880D01*
X6786Y7879D01*
X6778Y7876D01*
X6776Y7876D01*
X6764Y7875D01*
X6762Y7875D01*
X6757Y7874D01*
X6752Y7873D01*
X6746Y7871D01*
X6740Y7870D01*
X6738Y7869D01*
X6730Y7869D01*
X6722Y7868D01*
X6719Y7867D01*
X6716Y7866D01*
X6711Y7865D01*
X6708Y7864D01*
X6704Y7863D01*
X6696Y7863D01*
X6693Y7862D01*
X6687Y7861D01*
X6684Y7861D01*
X6681Y7860D01*
X6678Y7859D01*
X6674Y7858D01*
X6672Y7857D01*
X6659Y7857D01*
X6654Y7856D01*
X6650Y7854D01*
X6645Y7855D01*
X6643Y7858D01*
X6643Y7861D01*
X6643Y7964D01*
X6643Y7974D01*
X6643Y7976D01*
X6645Y7981D01*
X6646Y7982D01*
X6647Y7982D01*
X6648Y7983D01*
X6660Y7984D01*
X6673Y7986D01*
X6679Y7988D01*
X6691Y7989D01*
X6698Y7991D01*
X6707Y7991D01*
X6712Y7992D01*
X6717Y7993D01*
X6723Y7995D01*
X6726Y7995D01*
X6729Y7996D01*
X6732Y7996D01*
X6743Y7997D01*
X6746Y7998D01*
X6752Y7999D01*
X6756Y7999D01*
X6760Y8000D01*
X6763Y8001D01*
X6767Y8002D01*
X6776Y8003D01*
X6785Y8004D01*
X6788Y8004D01*
X6792Y8005D01*
X6797Y8007D01*
X6798Y8008D01*
X6799Y8008D01*
X6801Y8011D01*
X6801Y8013D01*
X6801Y8111D01*
X6801Y8119D01*
X6801Y8122D01*
X6800Y8123D01*
X6796Y8125D01*
X6794Y8126D01*
X6786Y8127D01*
X6783Y8127D01*
X6779Y8129D01*
X6777Y8129D01*
X6763Y8131D01*
X6759Y8131D01*
X6754Y8133D01*
X6744Y8134D01*
X6740Y8135D01*
X6738Y8136D01*
X6727Y8137D01*
X6725Y8137D01*
X6720Y8138D01*
X6718Y8139D01*
X6714Y8140D01*
X6707Y8141D01*
X6703Y8142D01*
X6701Y8142D01*
X6690Y8143D01*
X6686Y8144D01*
X6679Y8146D01*
X6671Y8147D01*
X6664Y8148D01*
X6654Y8149D01*
X6650Y8150D01*
X6647Y8151D01*
X6646Y8152D01*
X6643Y8156D01*
X6643Y8158D01*
X6643Y8276D01*
X6644Y8279D01*
X6646Y8280D01*
X6650Y8281D01*
X6652Y8280D01*
D02*
G37*
G36*
X1410Y7829D02*
X1413Y7825D01*
X1416Y7822D01*
X1418Y7821D01*
X1419Y7819D01*
X1420Y7818D01*
X1421Y7816D01*
X1428Y7816D01*
X1431Y7815D01*
X1434Y7810D01*
X1435Y7809D01*
X1439Y7808D01*
X1441Y7809D01*
X1444Y7808D01*
X1446Y7805D01*
X1448Y7803D01*
X1451Y7802D01*
X1464Y7802D01*
X1467Y7798D01*
X1468Y7797D01*
X1469Y7795D01*
X1478Y7795D01*
X1480Y7791D01*
X1484Y7788D01*
X1489Y7789D01*
X1492Y7788D01*
X1493Y7786D01*
X1494Y7785D01*
X1496Y7782D01*
X1498Y7782D01*
X1499Y7780D01*
X1502Y7776D01*
X1503Y7775D01*
X1507Y7775D01*
X1509Y7775D01*
X1512Y7774D01*
X1514Y7771D01*
X1516Y7769D01*
X1519Y7768D01*
X1532Y7768D01*
X1535Y7764D01*
X1535Y7763D01*
X1537Y7762D01*
X1539Y7761D01*
X1540Y7760D01*
X1542Y7757D01*
X1543Y7756D01*
X1545Y7754D01*
X1550Y7755D01*
X1553Y7754D01*
X1555Y7750D01*
X1557Y7748D01*
X1564Y7748D01*
X1567Y7747D01*
X1569Y7742D01*
X1570Y7741D01*
X1574Y7741D01*
X1577Y7741D01*
X1580Y7741D01*
X1582Y7738D01*
X1583Y7736D01*
X1587Y7733D01*
X1589Y7730D01*
X1591Y7728D01*
X1600Y7727D01*
X1603Y7722D01*
X1606Y7720D01*
X1611Y7721D01*
X1614Y7720D01*
X1615Y7719D01*
X1617Y7716D01*
X1618Y7714D01*
X1627Y7713D01*
X1629Y7710D01*
X1632Y7707D01*
X1635Y7707D01*
X1638Y7707D01*
X1641Y7707D01*
X1644Y7702D01*
X1645Y7701D01*
X1654Y7700D01*
X1655Y7699D01*
X1657Y7696D01*
X1659Y7694D01*
X1668Y7693D01*
X1671Y7688D01*
X1674Y7687D01*
X1681Y7687D01*
X1682Y7685D01*
X1684Y7682D01*
X1689Y7679D01*
X1694Y7680D01*
X1697Y7681D01*
X1702Y7679D01*
X1705Y7675D01*
X1706Y7674D01*
X1710Y7673D01*
X1712Y7674D01*
X1716Y7673D01*
X1718Y7669D01*
X1719Y7667D01*
X1727Y7667D01*
X1729Y7666D01*
X1731Y7663D01*
X1734Y7660D01*
X1736Y7659D01*
X1746Y7660D01*
X1749Y7659D01*
X1752Y7656D01*
X1753Y7654D01*
X1756Y7653D01*
X1760Y7653D01*
X1763Y7652D01*
X1766Y7648D01*
X1767Y7647D01*
X1776Y7646D01*
X1777Y7645D01*
X1779Y7641D01*
X1781Y7640D01*
X1784Y7639D01*
X1787Y7640D01*
X1790Y7639D01*
X1792Y7637D01*
X1793Y7635D01*
X1794Y7633D01*
X1797Y7632D01*
X1808Y7633D01*
X1811Y7632D01*
X1812Y7629D01*
X1813Y7628D01*
X1815Y7626D01*
X1822Y7626D01*
X1825Y7625D01*
X1826Y7621D01*
X1828Y7620D01*
X1830Y7619D01*
X1835Y7619D01*
X1838Y7618D01*
X1840Y7615D01*
X1842Y7613D01*
X1843Y7612D01*
X1845Y7611D01*
X1850Y7612D01*
X1852Y7613D01*
X1857Y7612D01*
X1858Y7611D01*
X1860Y7608D01*
X1862Y7606D01*
X1866Y7605D01*
X1868Y7606D01*
X1872Y7605D01*
X1874Y7601D01*
X1876Y7599D01*
X1878Y7598D01*
X1891Y7599D01*
X1892Y7598D01*
X1894Y7594D01*
X1896Y7592D01*
X1905Y7592D01*
X1909Y7586D01*
X1911Y7585D01*
X1918Y7585D01*
X1920Y7584D01*
X1922Y7580D01*
X1923Y7579D01*
X1932Y7578D01*
X1935Y7574D01*
X1937Y7572D01*
X1940Y7571D01*
X1943Y7572D01*
X1946Y7571D01*
X1949Y7566D01*
X1950Y7565D01*
X1954Y7565D01*
X1956Y7570D01*
X1959Y7572D01*
X1965Y7571D01*
X1968Y7574D01*
X1968Y7575D01*
X1971Y7578D01*
X1972Y7578D01*
X1974Y7580D01*
X1976Y7584D01*
X1977Y7585D01*
X1981Y7585D01*
X1984Y7585D01*
X1987Y7586D01*
X1989Y7589D01*
X1991Y7591D01*
X1998Y7592D01*
X2001Y7592D01*
X2003Y7597D01*
X2004Y7598D01*
X2013Y7599D01*
X2014Y7600D01*
X2016Y7603D01*
X2017Y7604D01*
X2020Y7605D01*
X2025Y7605D01*
X2028Y7606D01*
X2030Y7610D01*
X2032Y7611D01*
X2039Y7612D01*
X2042Y7613D01*
X2044Y7617D01*
X2045Y7618D01*
X2049Y7619D01*
X2051Y7618D01*
X2055Y7620D01*
X2057Y7623D01*
X2058Y7625D01*
X2066Y7626D01*
X2068Y7626D01*
X2072Y7632D01*
X2081Y7633D01*
X2084Y7637D01*
X2085Y7638D01*
X2087Y7639D01*
X2088Y7640D01*
X2091Y7643D01*
X2091Y7644D01*
X2096Y7647D01*
X2101Y7646D01*
X2103Y7645D01*
X2108Y7646D01*
X2110Y7649D01*
X2111Y7650D01*
X2114Y7652D01*
X2115Y7653D01*
X2116Y7655D01*
X2119Y7659D01*
X2128Y7659D01*
X2129Y7661D01*
X2132Y7664D01*
X2134Y7666D01*
X2143Y7667D01*
X2146Y7672D01*
X2149Y7674D01*
X2160Y7673D01*
X2163Y7674D01*
X2165Y7676D01*
X2165Y7677D01*
X2167Y7679D01*
X2169Y7680D01*
X2171Y7681D01*
X2176Y7680D01*
X2178Y7679D01*
X2183Y7680D01*
X2185Y7683D01*
X2186Y7685D01*
X2189Y7687D01*
X2191Y7688D01*
X2192Y7690D01*
X2193Y7692D01*
X2194Y7693D01*
X2201Y7693D01*
X2204Y7694D01*
X2206Y7697D01*
X2208Y7700D01*
X2210Y7700D01*
X2212Y7703D01*
X2213Y7704D01*
X2214Y7705D01*
X2216Y7707D01*
X2221Y7707D01*
X2224Y7707D01*
X2225Y7709D01*
X2227Y7712D01*
X2228Y7713D01*
X2238Y7714D01*
X2240Y7718D01*
X2241Y7719D01*
X2242Y7720D01*
X2242Y7720D01*
X2245Y7721D01*
X2248Y7720D01*
X2251Y7721D01*
X2252Y7723D01*
X2253Y7724D01*
X2256Y7727D01*
X2257Y7727D01*
X2259Y7729D01*
X2261Y7733D01*
X2262Y7734D01*
X2271Y7734D01*
X2274Y7738D01*
X2274Y7739D01*
X2278Y7742D01*
X2281Y7745D01*
X2282Y7747D01*
X2289Y7748D01*
X2292Y7748D01*
X2295Y7753D01*
X2296Y7754D01*
X2299Y7755D01*
X2302Y7754D01*
X2305Y7755D01*
X2308Y7759D01*
X2309Y7760D01*
X2311Y7761D01*
X2312Y7762D01*
X2315Y7765D01*
X2315Y7766D01*
X2317Y7768D01*
X2326Y7769D01*
X2328Y7772D01*
X2329Y7773D01*
X2331Y7775D01*
X2338Y7775D01*
X2341Y7777D01*
X2341Y7778D01*
X2344Y7781D01*
X2345Y7782D01*
X2347Y7783D01*
X2349Y7787D01*
X2350Y7788D01*
X2354Y7789D01*
X2357Y7788D01*
X2360Y7789D01*
X2362Y7793D01*
X2364Y7794D01*
X2371Y7795D01*
X2373Y7796D01*
X2376Y7800D01*
X2377Y7801D01*
X2386Y7802D01*
X2387Y7803D01*
X2389Y7807D01*
X2390Y7808D01*
X2393Y7809D01*
X2397Y7808D01*
X2401Y7810D01*
X2403Y7813D01*
X2405Y7815D01*
X2423Y7816D01*
X2425Y7816D01*
X2428Y7815D01*
X2429Y7813D01*
X2430Y7812D01*
X2431Y7810D01*
X2435Y7808D01*
X2437Y7805D01*
X2436Y7800D01*
X2437Y7798D01*
X2440Y7795D01*
X2441Y7794D01*
X2444Y7790D01*
X2446Y7789D01*
X2447Y7788D01*
X2448Y7787D01*
X2449Y7786D01*
X2451Y7783D01*
X2453Y7782D01*
X2454Y7781D01*
X2455Y7780D01*
X2458Y7777D01*
X2461Y7775D01*
X2463Y7772D01*
X2464Y7763D01*
X2469Y7760D01*
X2471Y7757D01*
X2470Y7753D01*
X2471Y7750D01*
X2472Y7749D01*
X2475Y7747D01*
X2476Y7746D01*
X2477Y7737D01*
X2480Y7734D01*
X2482Y7734D01*
X2484Y7730D01*
X2483Y7719D01*
X2484Y7716D01*
X2488Y7714D01*
X2490Y7712D01*
X2490Y7705D01*
X2491Y7702D01*
X2494Y7700D01*
X2497Y7698D01*
X2497Y7693D01*
X2497Y7686D01*
X2498Y7682D01*
X2501Y7680D01*
X2504Y7676D01*
X2504Y7671D01*
X2504Y7668D01*
X2507Y7667D01*
X2508Y7666D01*
X2511Y7663D01*
X2512Y7661D01*
X2511Y7656D01*
X2510Y7655D01*
X2506Y7652D01*
X2504Y7649D01*
X2504Y7645D01*
X2504Y7641D01*
X2502Y7640D01*
X2499Y7639D01*
X2496Y7640D01*
X2492Y7639D01*
X2490Y7635D01*
X2489Y7633D01*
X2482Y7633D01*
X2479Y7632D01*
X2476Y7627D01*
X2473Y7626D01*
X2462Y7626D01*
X2458Y7625D01*
X2455Y7620D01*
X2453Y7619D01*
X2448Y7619D01*
X2446Y7618D01*
X2444Y7617D01*
X2442Y7614D01*
X2441Y7612D01*
X2432Y7612D01*
X2430Y7608D01*
X2427Y7606D01*
X2424Y7605D01*
X2421Y7606D01*
X2418Y7605D01*
X2415Y7601D01*
X2415Y7600D01*
X2412Y7598D01*
X2400Y7599D01*
X2397Y7598D01*
X2396Y7595D01*
X2393Y7592D01*
X2366Y7592D01*
X2363Y7593D01*
X2361Y7596D01*
X2359Y7598D01*
X2358Y7599D01*
X2355Y7599D01*
X2350Y7598D01*
X2347Y7592D01*
X2339Y7592D01*
X2336Y7591D01*
X2335Y7588D01*
X2332Y7585D01*
X2330Y7585D01*
X2329Y7583D01*
X2328Y7581D01*
X2325Y7579D01*
X2324Y7578D01*
X2322Y7576D01*
X2321Y7567D01*
X2320Y7566D01*
X2311Y7565D01*
X2308Y7562D01*
X2307Y7561D01*
X2305Y7558D01*
X2304Y7558D01*
X2300Y7554D01*
X2300Y7552D01*
X2296Y7551D01*
X2292Y7551D01*
X2289Y7550D01*
X2287Y7547D01*
X2285Y7545D01*
X2284Y7544D01*
X2282Y7544D01*
X2277Y7544D01*
X2275Y7545D01*
X2270Y7544D01*
X2269Y7543D01*
X2266Y7540D01*
X2265Y7538D01*
X2261Y7537D01*
X2259Y7538D01*
X2255Y7537D01*
X2253Y7533D01*
X2252Y7532D01*
X2250Y7531D01*
X2238Y7531D01*
X2235Y7530D01*
X2233Y7526D01*
X2230Y7524D01*
X2221Y7523D01*
X2218Y7519D01*
X2215Y7517D01*
X2204Y7517D01*
X2201Y7516D01*
X2199Y7513D01*
X2197Y7511D01*
X2190Y7510D01*
X2187Y7510D01*
X2185Y7505D01*
X2183Y7504D01*
X2180Y7503D01*
X2178Y7504D01*
X2174Y7503D01*
X2172Y7499D01*
X2170Y7498D01*
X2168Y7497D01*
X2155Y7497D01*
X2153Y7496D01*
X2151Y7492D01*
X2149Y7490D01*
X2140Y7490D01*
X2138Y7486D01*
X2134Y7483D01*
X2123Y7484D01*
X2120Y7483D01*
X2117Y7479D01*
X2116Y7477D01*
X2109Y7477D01*
X2106Y7476D01*
X2103Y7471D01*
X2102Y7470D01*
X2098Y7469D01*
X2096Y7470D01*
X2093Y7469D01*
X2092Y7468D01*
X2090Y7465D01*
X2089Y7464D01*
X2082Y7463D01*
X2079Y7462D01*
X2077Y7459D01*
X2075Y7457D01*
X2068Y7456D01*
X2065Y7455D01*
X2063Y7452D01*
X2062Y7451D01*
X2061Y7450D01*
X2059Y7449D01*
X2057Y7447D01*
X2056Y7444D01*
X2057Y7439D01*
X2059Y7436D01*
X2066Y7436D01*
X2068Y7436D01*
X2070Y7436D01*
X2076Y7436D01*
X2085Y7436D01*
X2088Y7436D01*
X2089Y7437D01*
X2091Y7441D01*
X2093Y7442D01*
X2096Y7443D01*
X2222Y7443D01*
X2224Y7443D01*
X2227Y7448D01*
X2228Y7448D01*
X2229Y7450D01*
X2238Y7449D01*
X2385Y7450D01*
X2397Y7449D01*
X2401Y7450D01*
X2403Y7455D01*
X2406Y7456D01*
X2462Y7456D01*
X2472Y7457D01*
X2475Y7455D01*
X2478Y7451D01*
X2479Y7450D01*
X2481Y7449D01*
X2482Y7448D01*
X2483Y7447D01*
X2484Y7446D01*
X2485Y7444D01*
X2487Y7443D01*
X2489Y7442D01*
X2490Y7441D01*
X2490Y7434D01*
X2491Y7431D01*
X2494Y7429D01*
X2497Y7427D01*
X2497Y7422D01*
X2497Y7415D01*
X2498Y7411D01*
X2501Y7409D01*
X2504Y7405D01*
X2504Y7400D01*
X2504Y7397D01*
X2509Y7395D01*
X2512Y7390D01*
X2511Y7388D01*
X2511Y7368D01*
X2511Y7364D01*
X2510Y7363D01*
X2506Y7361D01*
X2504Y7358D01*
X2504Y7351D01*
X2504Y7339D01*
X2504Y7326D01*
X2503Y7323D01*
X2500Y7320D01*
X2498Y7319D01*
X2497Y7316D01*
X2497Y7269D01*
X2496Y7268D01*
X2493Y7266D01*
X2491Y7263D01*
X2490Y7255D01*
X2486Y7253D01*
X2483Y7249D01*
X2483Y7247D01*
X2480Y7246D01*
X2475Y7246D01*
X2469Y7246D01*
X2466Y7246D01*
X2465Y7247D01*
X2463Y7251D01*
X2462Y7252D01*
X2459Y7253D01*
X2439Y7253D01*
X2438Y7254D01*
X2436Y7257D01*
X2434Y7259D01*
X2402Y7260D01*
X2395Y7259D01*
X2391Y7260D01*
X2389Y7264D01*
X2386Y7266D01*
X2381Y7267D01*
X2379Y7266D01*
X2084Y7266D01*
X2075Y7266D01*
X2073Y7267D01*
X2072Y7268D01*
X2069Y7271D01*
X2068Y7273D01*
X2064Y7273D01*
X2012Y7273D01*
X2011Y7274D01*
X2009Y7278D01*
X2006Y7280D01*
X1998Y7280D01*
X1987Y7280D01*
X1974Y7279D01*
X1971Y7281D01*
X1968Y7284D01*
X1967Y7286D01*
X1964Y7287D01*
X1883Y7287D01*
X1881Y7287D01*
X1876Y7287D01*
X1875Y7285D01*
X1873Y7282D01*
X1871Y7280D01*
X1866Y7279D01*
X1864Y7280D01*
X1636Y7280D01*
X1628Y7280D01*
X1624Y7279D01*
X1622Y7276D01*
X1620Y7273D01*
X1582Y7273D01*
X1578Y7273D01*
X1576Y7276D01*
X1575Y7277D01*
X1573Y7279D01*
X1571Y7280D01*
X1568Y7284D01*
X1567Y7285D01*
X1564Y7287D01*
X1557Y7287D01*
X1555Y7287D01*
X1551Y7287D01*
X1549Y7285D01*
X1548Y7283D01*
X1546Y7281D01*
X1544Y7280D01*
X1539Y7280D01*
X1537Y7279D01*
X1534Y7275D01*
X1533Y7274D01*
X1524Y7273D01*
X1523Y7272D01*
X1521Y7269D01*
X1517Y7266D01*
X1506Y7267D01*
X1503Y7266D01*
X1502Y7265D01*
X1500Y7261D01*
X1499Y7260D01*
X1497Y7259D01*
X1337Y7260D01*
X1330Y7259D01*
X1326Y7260D01*
X1324Y7264D01*
X1320Y7267D01*
X1319Y7267D01*
X1318Y7270D01*
X1318Y7429D01*
X1317Y7444D01*
X1318Y7447D01*
X1320Y7449D01*
X1322Y7450D01*
X1323Y7451D01*
X1325Y7454D01*
X1326Y7455D01*
X1329Y7456D01*
X1439Y7456D01*
X1448Y7457D01*
X1452Y7455D01*
X1454Y7452D01*
X1454Y7451D01*
X1455Y7450D01*
X1461Y7449D01*
X1463Y7450D01*
X1588Y7449D01*
X1597Y7450D01*
X1600Y7449D01*
X1603Y7445D01*
X1604Y7443D01*
X1774Y7443D01*
X1777Y7443D01*
X1778Y7445D01*
X1779Y7451D01*
X1778Y7454D01*
X1776Y7456D01*
X1767Y7456D01*
X1764Y7461D01*
X1763Y7462D01*
X1754Y7463D01*
X1753Y7464D01*
X1751Y7468D01*
X1748Y7470D01*
X1736Y7469D01*
X1734Y7470D01*
X1733Y7471D01*
X1730Y7475D01*
X1729Y7476D01*
X1720Y7477D01*
X1718Y7480D01*
X1715Y7483D01*
X1712Y7484D01*
X1710Y7483D01*
X1706Y7484D01*
X1704Y7488D01*
X1702Y7489D01*
X1693Y7490D01*
X1692Y7491D01*
X1690Y7495D01*
X1687Y7497D01*
X1686Y7498D01*
X1684Y7500D01*
X1683Y7502D01*
X1680Y7504D01*
X1675Y7503D01*
X1672Y7504D01*
X1670Y7507D01*
X1668Y7510D01*
X1666Y7510D01*
X1664Y7513D01*
X1663Y7514D01*
X1660Y7517D01*
X1655Y7517D01*
X1652Y7517D01*
X1650Y7522D01*
X1649Y7523D01*
X1647Y7524D01*
X1644Y7523D01*
X1642Y7519D01*
X1640Y7517D01*
X1635Y7517D01*
X1633Y7517D01*
X1621Y7517D01*
X1618Y7517D01*
X1617Y7519D01*
X1615Y7522D01*
X1614Y7523D01*
X1605Y7524D01*
X1604Y7525D01*
X1602Y7528D01*
X1600Y7530D01*
X1594Y7531D01*
X1590Y7530D01*
X1585Y7531D01*
X1583Y7532D01*
X1581Y7535D01*
X1580Y7537D01*
X1578Y7538D01*
X1573Y7537D01*
X1570Y7538D01*
X1567Y7544D01*
X1558Y7544D01*
X1557Y7545D01*
X1555Y7549D01*
X1553Y7551D01*
X1549Y7551D01*
X1547Y7551D01*
X1543Y7552D01*
X1541Y7555D01*
X1539Y7557D01*
X1532Y7558D01*
X1529Y7558D01*
X1527Y7563D01*
X1524Y7565D01*
X1513Y7564D01*
X1509Y7566D01*
X1506Y7570D01*
X1504Y7572D01*
X1499Y7571D01*
X1496Y7572D01*
X1495Y7573D01*
X1493Y7576D01*
X1492Y7578D01*
X1482Y7579D01*
X1480Y7582D01*
X1478Y7585D01*
X1475Y7585D01*
X1473Y7585D01*
X1469Y7585D01*
X1466Y7590D01*
X1463Y7592D01*
X1451Y7592D01*
X1448Y7592D01*
X1445Y7598D01*
X1436Y7599D01*
X1434Y7600D01*
X1432Y7604D01*
X1430Y7605D01*
X1416Y7605D01*
X1414Y7607D01*
X1412Y7610D01*
X1411Y7611D01*
X1402Y7612D01*
X1401Y7613D01*
X1398Y7617D01*
X1397Y7618D01*
X1393Y7619D01*
X1391Y7618D01*
X1387Y7620D01*
X1384Y7624D01*
X1381Y7626D01*
X1370Y7626D01*
X1367Y7626D01*
X1365Y7629D01*
X1365Y7630D01*
X1363Y7632D01*
X1356Y7633D01*
X1353Y7633D01*
X1350Y7638D01*
X1348Y7639D01*
X1336Y7639D01*
X1333Y7640D01*
X1330Y7645D01*
X1320Y7646D01*
X1317Y7650D01*
X1317Y7651D01*
X1315Y7652D01*
X1313Y7653D01*
X1312Y7655D01*
X1311Y7657D01*
X1311Y7705D01*
X1310Y7707D01*
X1312Y7712D01*
X1315Y7714D01*
X1318Y7718D01*
X1317Y7729D01*
X1318Y7732D01*
X1321Y7734D01*
X1323Y7735D01*
X1324Y7738D01*
X1325Y7739D01*
X1327Y7741D01*
X1329Y7741D01*
X1331Y7743D01*
X1331Y7752D01*
X1332Y7753D01*
X1337Y7756D01*
X1338Y7759D01*
X1338Y7765D01*
X1339Y7766D01*
X1342Y7768D01*
X1344Y7770D01*
X1345Y7780D01*
X1349Y7782D01*
X1350Y7783D01*
X1351Y7785D01*
X1354Y7788D01*
X1356Y7789D01*
X1357Y7790D01*
X1358Y7798D01*
X1359Y7800D01*
X1363Y7803D01*
X1365Y7804D01*
X1365Y7812D01*
X1366Y7814D01*
X1370Y7817D01*
X1371Y7818D01*
X1372Y7819D01*
X1373Y7821D01*
X1375Y7822D01*
X1376Y7823D01*
X1379Y7826D01*
X1379Y7827D01*
X1380Y7828D01*
X1383Y7829D01*
X1400Y7829D01*
X1407Y7830D01*
X1410Y7829D01*
D02*
G37*
G36*
X993Y8086D02*
X996Y8083D01*
X997Y8081D01*
X998Y8080D01*
X1000Y8080D01*
X1001Y8078D01*
X1002Y8076D01*
X1008Y8070D01*
X1009Y8069D01*
X1017Y8061D01*
X1017Y8060D01*
X1018Y8059D01*
X1019Y8058D01*
X1020Y8057D01*
X1026Y8051D01*
X1026Y8050D01*
X1027Y8050D01*
X1031Y8046D01*
X1032Y8044D01*
X1034Y8043D01*
X1035Y8042D01*
X1037Y8040D01*
X1043Y8033D01*
X1044Y8032D01*
X1049Y8026D01*
X1050Y8025D01*
X1052Y8023D01*
X1054Y8021D01*
X1058Y8017D01*
X1059Y8015D01*
X1062Y8012D01*
X1062Y8012D01*
X1063Y8010D01*
X1068Y8006D01*
X1069Y8004D01*
X1071Y8001D01*
X1072Y8000D01*
X1076Y7996D01*
X1076Y7995D01*
X1078Y7993D01*
X1079Y7992D01*
X1088Y7981D01*
X1095Y7972D01*
X1097Y7968D01*
X1104Y7958D01*
X1107Y7953D01*
X1108Y7951D01*
X1111Y7946D01*
X1117Y7936D01*
X1126Y7917D01*
X1127Y7913D01*
X1129Y7909D01*
X1131Y7904D01*
X1132Y7901D01*
X1134Y7894D01*
X1136Y7888D01*
X1136Y7884D01*
X1138Y7881D01*
X1139Y7877D01*
X1139Y7873D01*
X1140Y7870D01*
X1141Y7866D01*
X1142Y7862D01*
X1143Y7848D01*
X1143Y7840D01*
X1144Y7818D01*
X1143Y7816D01*
X1142Y7800D01*
X1141Y7793D01*
X1139Y7783D01*
X1138Y7775D01*
X1136Y7769D01*
X1135Y7765D01*
X1134Y7761D01*
X1133Y7759D01*
X1127Y7743D01*
X1126Y7739D01*
X1122Y7731D01*
X1116Y7718D01*
X1114Y7717D01*
X1110Y7721D01*
X1109Y7723D01*
X1108Y7724D01*
X1107Y7725D01*
X1106Y7730D01*
X1103Y7731D01*
X1086Y7748D01*
X1085Y7753D01*
X1081Y7757D01*
X1070Y7768D01*
X1069Y7768D01*
X1069Y7773D01*
X1067Y7775D01*
X1068Y7778D01*
X1069Y7781D01*
X1070Y7785D01*
X1071Y7788D01*
X1073Y7793D01*
X1074Y7801D01*
X1075Y7805D01*
X1076Y7823D01*
X1076Y7849D01*
X1075Y7851D01*
X1074Y7855D01*
X1074Y7858D01*
X1073Y7860D01*
X1072Y7867D01*
X1070Y7870D01*
X1069Y7874D01*
X1069Y7877D01*
X1067Y7882D01*
X1064Y7888D01*
X1062Y7893D01*
X1062Y7894D01*
X1060Y7898D01*
X1058Y7901D01*
X1056Y7905D01*
X1055Y7908D01*
X1053Y7910D01*
X1051Y7915D01*
X1050Y7916D01*
X1049Y7917D01*
X1048Y7919D01*
X1045Y7924D01*
X1044Y7925D01*
X1043Y7926D01*
X1040Y7931D01*
X1039Y7933D01*
X1036Y7935D01*
X1034Y7939D01*
X1033Y7940D01*
X1032Y7942D01*
X1031Y7943D01*
X1030Y7944D01*
X1028Y7946D01*
X1028Y7947D01*
X1025Y7950D01*
X1024Y7951D01*
X1022Y7953D01*
X1021Y7955D01*
X1018Y7958D01*
X1017Y7960D01*
X1013Y7964D01*
X1012Y7965D01*
X1009Y7969D01*
X1008Y7970D01*
X1003Y7976D01*
X1002Y7977D01*
X1001Y7977D01*
X999Y7979D01*
X999Y7981D01*
X992Y7987D01*
X991Y7989D01*
X988Y7992D01*
X988Y7993D01*
X986Y7993D01*
X985Y7994D01*
X985Y7996D01*
X981Y8000D01*
X979Y8000D01*
X978Y8001D01*
X978Y8003D01*
X969Y8011D01*
X969Y8012D01*
X956Y8025D01*
X955Y8026D01*
X954Y8027D01*
X953Y8028D01*
X952Y8031D01*
X954Y8034D01*
X956Y8034D01*
X956Y8037D01*
X955Y8038D01*
X957Y8040D01*
X959Y8041D01*
X960Y8042D01*
X960Y8043D01*
X962Y8044D01*
X963Y8046D01*
X964Y8047D01*
X966Y8048D01*
X967Y8053D01*
X969Y8054D01*
X970Y8057D01*
X972Y8057D01*
X973Y8058D01*
X973Y8063D01*
X975Y8064D01*
X976Y8065D01*
X977Y8066D01*
X978Y8067D01*
X979Y8068D01*
X980Y8072D01*
X984Y8077D01*
X986Y8077D01*
X987Y8083D01*
X990Y8085D01*
X990Y8086D01*
X993Y8086D01*
D02*
G37*
G36*
X7351Y7802D02*
X7353Y7802D01*
X7353Y7801D01*
X7354Y7800D01*
X7354Y7461D01*
X7354Y7454D01*
X7354Y7452D01*
X7353Y7451D01*
X7350Y7449D01*
X7251Y7448D01*
X7247Y7450D01*
X7245Y7451D01*
X7244Y7454D01*
X7245Y7556D01*
X7243Y7559D01*
X7243Y7560D01*
X7242Y7561D01*
X7241Y7561D01*
X7238Y7562D01*
X6904Y7562D01*
X6695D01*
X6687Y7562D01*
X6685Y7562D01*
X6676Y7562D01*
X6662Y7562D01*
X6661Y7562D01*
X6650Y7562D01*
X6646Y7563D01*
X6645Y7564D01*
X6643Y7566D01*
X6643Y7569D01*
X6643Y7674D01*
X6643Y7682D01*
X6644Y7687D01*
X6647Y7690D01*
X7233Y7690D01*
X7235Y7690D01*
X7239Y7690D01*
X7241Y7691D01*
X7244Y7694D01*
X7245Y7793D01*
X7244Y7796D01*
X7245Y7800D01*
X7248Y7803D01*
X7348Y7804D01*
X7351Y7802D01*
D02*
G37*
G36*
X6506Y7787D02*
X6509Y7786D01*
X6511Y7783D01*
X6511Y7436D01*
X6511Y7434D01*
X6509Y7432D01*
X6406Y7431D01*
X6404Y7432D01*
X6402Y7435D01*
X6402Y7536D01*
X6401Y7542D01*
X6399Y7545D01*
X5806Y7545D01*
X5803Y7546D01*
X5802Y7548D01*
X5801Y7663D01*
X5802Y7671D01*
X5803Y7672D01*
X5805Y7674D01*
X5987Y7673D01*
X6393D01*
X6399Y7674D01*
X6401Y7676D01*
X6402Y7782D01*
X6403Y7785D01*
X6404Y7786D01*
X6406Y7787D01*
X6506Y7787D01*
D02*
G37*
G36*
X975Y7943D02*
X976Y7942D01*
X976Y7940D01*
X978Y7939D01*
X979Y7937D01*
X982Y7936D01*
X983Y7930D01*
X985Y7929D01*
X994Y7920D01*
X995Y7919D01*
X996Y7917D01*
X995Y7915D01*
X996Y7914D01*
X998Y7912D01*
X1012Y7899D01*
X1012Y7894D01*
X1013Y7893D01*
X1015Y7893D01*
X1015Y7890D01*
X1013Y7888D01*
X1012Y7887D01*
X1012Y7886D01*
X1008Y7883D01*
X1008Y7881D01*
X1005Y7880D01*
X1005Y7878D01*
X999Y7873D01*
X999Y7871D01*
X997Y7870D01*
X996Y7870D01*
X994Y7867D01*
X989Y7862D01*
X988Y7860D01*
X987Y7860D01*
X986Y7858D01*
X984Y7856D01*
X983Y7855D01*
X981Y7854D01*
X980Y7853D01*
X979Y7851D01*
X977Y7848D01*
X973Y7844D01*
X972Y7842D01*
X970Y7841D01*
X969Y7840D01*
X967Y7838D01*
X965Y7833D01*
X961Y7830D01*
X960Y7828D01*
X957Y7824D01*
X956Y7824D01*
X953Y7819D01*
X947Y7810D01*
X944Y7806D01*
X943Y7805D01*
X942Y7803D01*
X939Y7801D01*
X938Y7797D01*
X936Y7795D01*
X935Y7794D01*
X930Y7787D01*
X929Y7786D01*
X928Y7786D01*
X928Y7783D01*
X927Y7781D01*
X925Y7779D01*
X924Y7778D01*
X923Y7776D01*
X920Y7771D01*
X919Y7770D01*
X914Y7761D01*
X910Y7755D01*
X908Y7750D01*
X905Y7744D01*
X901Y7735D01*
X899Y7730D01*
X899Y7727D01*
X898Y7723D01*
X896Y7718D01*
X895Y7711D01*
X894Y7709D01*
X893Y7705D01*
X892Y7696D01*
X892Y7682D01*
X892Y7660D01*
X893Y7658D01*
X894Y7653D01*
X895Y7649D01*
X895Y7645D01*
X897Y7639D01*
X898Y7636D01*
X899Y7630D01*
X901Y7626D01*
X903Y7621D01*
X902Y7618D01*
X900Y7617D01*
X893Y7610D01*
X892Y7610D01*
X892Y7607D01*
X892Y7606D01*
X891Y7604D01*
X889Y7603D01*
X887Y7601D01*
X885Y7599D01*
X885Y7598D01*
X882Y7596D01*
X880Y7594D01*
X879Y7593D01*
X878Y7591D01*
X877Y7590D01*
X876Y7589D01*
X875Y7588D01*
X874Y7587D01*
X872Y7586D01*
X872Y7582D01*
X871Y7581D01*
X870Y7580D01*
X869Y7579D01*
X868Y7578D01*
X867Y7577D01*
X866Y7576D01*
X864Y7574D01*
X863Y7573D01*
X861Y7571D01*
X859Y7569D01*
X858Y7568D01*
X857Y7567D01*
X854Y7566D01*
X839Y7596D01*
X838Y7601D01*
X836Y7607D01*
X835Y7610D01*
X834Y7613D01*
X832Y7621D01*
X830Y7625D01*
X829Y7631D01*
X829Y7635D01*
X828Y7638D01*
X827Y7641D01*
X827Y7645D01*
X826Y7651D01*
X825Y7662D01*
X824Y7683D01*
X825Y7685D01*
X826Y7706D01*
Y7707D01*
X826Y7709D01*
X827Y7718D01*
X829Y7724D01*
X829Y7729D01*
X831Y7735D01*
X832Y7739D01*
X833Y7742D01*
X834Y7746D01*
X835Y7750D01*
X836Y7753D01*
X837Y7757D01*
X838Y7758D01*
X840Y7765D01*
X842Y7769D01*
X843Y7771D01*
X854Y7793D01*
X858Y7799D01*
X860Y7804D01*
X863Y7808D01*
X864Y7810D01*
X869Y7817D01*
X871Y7821D01*
X875Y7827D01*
X877Y7831D01*
X879Y7833D01*
X880Y7836D01*
X883Y7839D01*
X883Y7840D01*
X885Y7842D01*
X887Y7845D01*
X888Y7846D01*
X891Y7851D01*
X893Y7853D01*
X894Y7855D01*
X895Y7856D01*
X896Y7858D01*
X897Y7859D01*
X898Y7860D01*
X901Y7864D01*
X903Y7866D01*
X903Y7867D01*
X906Y7870D01*
X907Y7871D01*
X910Y7874D01*
X910Y7876D01*
X912Y7878D01*
X913Y7879D01*
X918Y7884D01*
X919Y7885D01*
X922Y7889D01*
X923Y7890D01*
X928Y7895D01*
X928Y7896D01*
X933Y7901D01*
X933Y7902D01*
X936Y7905D01*
X937Y7906D01*
X938Y7907D01*
X939Y7908D01*
X940Y7909D01*
X941Y7910D01*
X948Y7917D01*
X949Y7919D01*
X953Y7923D01*
X953Y7924D01*
X955Y7926D01*
X956Y7927D01*
X967Y7937D01*
X967Y7939D01*
X969Y7941D01*
X970Y7941D01*
X971Y7942D01*
X972Y7943D01*
X975Y7943D01*
D02*
G37*
G36*
X994Y7789D02*
X994Y7788D01*
X1001Y7782D01*
X1002Y7779D01*
X1004Y7778D01*
X1012Y7769D01*
X1013Y7768D01*
X1024Y7757D01*
X1025Y7757D01*
X1026Y7755D01*
X1027Y7754D01*
X1028Y7753D01*
X1032Y7749D01*
X1033Y7748D01*
X1036Y7744D01*
X1037Y7743D01*
X1046Y7734D01*
X1046Y7733D01*
X1048Y7732D01*
X1049Y7731D01*
X1049Y7730D01*
X1051Y7727D01*
X1052Y7727D01*
X1053Y7726D01*
X1054Y7724D01*
X1060Y7719D01*
X1060Y7717D01*
X1062Y7716D01*
X1063Y7714D01*
X1066Y7712D01*
X1067Y7710D01*
X1069Y7708D01*
X1069Y7707D01*
X1073Y7703D01*
X1074Y7702D01*
X1076Y7699D01*
X1077Y7698D01*
X1079Y7696D01*
X1080Y7694D01*
X1082Y7692D01*
X1083Y7691D01*
X1085Y7688D01*
X1086Y7687D01*
X1091Y7680D01*
X1093Y7677D01*
X1095Y7676D01*
X1097Y7672D01*
X1099Y7670D01*
X1101Y7667D01*
X1106Y7659D01*
X1106Y7657D01*
X1109Y7653D01*
X1110Y7652D01*
X1111Y7651D01*
X1113Y7646D01*
X1115Y7644D01*
X1116Y7641D01*
X1117Y7639D01*
X1119Y7636D01*
X1123Y7627D01*
X1124Y7624D01*
X1125Y7623D01*
X1126Y7619D01*
X1127Y7618D01*
X1128Y7614D01*
X1129Y7611D01*
X1131Y7607D01*
X1132Y7604D01*
X1135Y7595D01*
X1136Y7589D01*
X1137Y7585D01*
X1138Y7582D01*
X1139Y7578D01*
X1140Y7575D01*
X1141Y7570D01*
X1141Y7568D01*
X1142Y7559D01*
X1143Y7552D01*
X1143Y7543D01*
X1144Y7518D01*
X1143Y7516D01*
X1142Y7503D01*
X1141Y7492D01*
X1140Y7488D01*
X1139Y7483D01*
X1138Y7480D01*
X1136Y7473D01*
X1135Y7467D01*
X1133Y7463D01*
X1132Y7460D01*
X1131Y7456D01*
X1129Y7452D01*
X1127Y7445D01*
X1125Y7441D01*
X1122Y7434D01*
X1114Y7419D01*
X1112Y7417D01*
X1109Y7417D01*
X1109Y7420D01*
X1110Y7422D01*
X1108Y7424D01*
X1107Y7424D01*
X1106Y7425D01*
X1105Y7426D01*
X1104Y7427D01*
X1102Y7429D01*
X1101Y7430D01*
X1099Y7432D01*
X1099Y7433D01*
X1096Y7435D01*
X1095Y7437D01*
X1093Y7438D01*
X1092Y7439D01*
X1092Y7440D01*
X1091Y7440D01*
X1089Y7442D01*
X1089Y7443D01*
X1087Y7444D01*
X1086Y7445D01*
X1085Y7450D01*
X1083Y7452D01*
X1066Y7469D01*
X1067Y7478D01*
X1069Y7482D01*
X1069Y7485D01*
X1070Y7489D01*
X1071Y7491D01*
X1072Y7496D01*
X1073Y7498D01*
X1076Y7514D01*
X1076Y7529D01*
X1076Y7552D01*
X1075Y7554D01*
X1074Y7560D01*
X1073Y7563D01*
X1073Y7567D01*
X1072Y7570D01*
X1070Y7575D01*
X1069Y7580D01*
X1066Y7587D01*
X1065Y7591D01*
X1064Y7592D01*
X1062Y7598D01*
X1059Y7604D01*
X1058Y7605D01*
X1056Y7610D01*
X1051Y7619D01*
X1049Y7620D01*
X1049Y7622D01*
X1046Y7624D01*
X1044Y7629D01*
X1039Y7636D01*
X1038Y7637D01*
X1035Y7640D01*
X1033Y7644D01*
X1030Y7647D01*
X1029Y7648D01*
X1028Y7650D01*
X1026Y7652D01*
X1026Y7653D01*
X1023Y7656D01*
X1022Y7657D01*
X1019Y7661D01*
X1018Y7662D01*
X1016Y7664D01*
X1015Y7666D01*
X1010Y7671D01*
X1009Y7673D01*
X1005Y7677D01*
X1004Y7678D01*
X999Y7684D01*
X998Y7685D01*
X997Y7686D01*
X994Y7688D01*
X994Y7689D01*
X985Y7698D01*
X985Y7699D01*
X982Y7702D01*
X980Y7703D01*
X979Y7704D01*
X978Y7705D01*
X972Y7712D01*
X972Y7713D01*
X970Y7713D01*
X969Y7715D01*
X968Y7717D01*
X963Y7721D01*
X962Y7723D01*
X961Y7725D01*
X959Y7726D01*
X958Y7728D01*
X957Y7729D01*
X956Y7730D01*
X954Y7731D01*
X953Y7732D01*
X953Y7739D01*
X956Y7742D01*
X957Y7743D01*
X959Y7744D01*
X959Y7746D01*
X959Y7748D01*
X960Y7750D01*
X961Y7750D01*
X964Y7753D01*
X966Y7754D01*
X967Y7756D01*
X969Y7758D01*
X970Y7762D01*
X978Y7770D01*
X979Y7771D01*
Y7771D01*
X980Y7776D01*
X981Y7777D01*
X982Y7777D01*
X985Y7780D01*
X986Y7780D01*
X987Y7786D01*
X988Y7787D01*
X989Y7787D01*
X990Y7789D01*
X991Y7790D01*
X994Y7789D01*
D02*
G37*
G36*
X7249Y7358D02*
X7251Y7357D01*
X7257Y7358D01*
X7263Y7357D01*
X7265Y7357D01*
X7271Y7355D01*
X7278Y7353D01*
X7286Y7352D01*
X7290Y7351D01*
X7295Y7347D01*
X7298Y7347D01*
X7302Y7346D01*
X7306Y7343D01*
X7312Y7340D01*
X7317Y7335D01*
X7318Y7334D01*
X7324Y7329D01*
X7325Y7328D01*
X7326Y7327D01*
X7326Y7326D01*
X7328Y7325D01*
X7328Y7323D01*
X7331Y7321D01*
X7333Y7316D01*
X7335Y7315D01*
X7335Y7314D01*
X7337Y7312D01*
X7339Y7308D01*
X7342Y7302D01*
X7343Y7300D01*
X7345Y7296D01*
X7346Y7290D01*
X7348Y7283D01*
X7349Y7280D01*
X7350Y7277D01*
X7351Y7272D01*
X7351Y7267D01*
X7352Y7257D01*
X7352Y7249D01*
X7352Y7244D01*
X7353Y7242D01*
X7354Y7239D01*
X7354Y7237D01*
X7354Y7133D01*
X7354Y7125D01*
X7352Y7121D01*
X7352Y7114D01*
X7352Y7112D01*
X7352Y7107D01*
X7352Y7106D01*
X7352Y7100D01*
X7351Y7097D01*
X7350Y7088D01*
X7350Y7083D01*
X7348Y7078D01*
X7346Y7073D01*
X7345Y7066D01*
X7342Y7060D01*
X7342Y7059D01*
X7341Y7058D01*
X7339Y7054D01*
X7338Y7049D01*
X7335Y7046D01*
X7332Y7042D01*
X7331Y7040D01*
X7330Y7039D01*
X7329Y7039D01*
X7326Y7035D01*
X7326Y7033D01*
X7322Y7031D01*
X7321Y7030D01*
X7317Y7026D01*
X7313Y7024D01*
X7310Y7021D01*
X7305Y7018D01*
X7299Y7015D01*
X7294Y7013D01*
X7287Y7011D01*
X7283Y7010D01*
X7276Y7007D01*
X7272Y7006D01*
X7270Y7006D01*
X6764Y7005D01*
X6729Y7006D01*
X6725Y7006D01*
X6722Y7007D01*
X6717Y7009D01*
X6711Y7011D01*
X6700Y7013D01*
X6700Y7014D01*
X6696Y7017D01*
X6692Y7018D01*
X6689Y7019D01*
X6687Y7022D01*
X6681Y7025D01*
X6677Y7029D01*
X6673Y7031D01*
X6670Y7036D01*
X6669Y7037D01*
X6666Y7040D01*
X6663Y7045D01*
X6661Y7047D01*
X6659Y7050D01*
X6658Y7054D01*
X6655Y7059D01*
X6653Y7063D01*
X6652Y7065D01*
X6651Y7069D01*
X6650Y7075D01*
X6648Y7080D01*
X6647Y7082D01*
X6647Y7086D01*
X6646Y7094D01*
X6645Y7102D01*
X6645Y7113D01*
X6644Y7119D01*
X6643Y7122D01*
X6643Y7125D01*
X6643Y7228D01*
X6643Y7238D01*
X6645Y7245D01*
X6645Y7265D01*
X6646Y7273D01*
X6647Y7278D01*
X6649Y7283D01*
X6650Y7288D01*
X6653Y7298D01*
X6655Y7302D01*
X6656Y7303D01*
X6657Y7304D01*
X6658Y7308D01*
X6660Y7312D01*
X6661Y7313D01*
X6665Y7319D01*
X6665Y7320D01*
X6669Y7323D01*
X6669Y7325D01*
X6677Y7333D01*
X6680Y7334D01*
X6683Y7337D01*
X6684Y7339D01*
X6688Y7341D01*
X6694Y7345D01*
X6696Y7346D01*
X6697Y7347D01*
X6698D01*
X6700Y7347D01*
X6705Y7349D01*
X6710Y7352D01*
X6717Y7353D01*
X6727Y7355D01*
X6731Y7356D01*
X6733Y7357D01*
X6738Y7358D01*
X6745Y7357D01*
X6747Y7358D01*
X7234Y7359D01*
X7249Y7358D01*
D02*
G37*
G36*
X975Y7645D02*
X976Y7644D01*
X976Y7643D01*
X977Y7643D01*
X978Y7642D01*
X979Y7640D01*
X982Y7638D01*
X984Y7636D01*
X985Y7636D01*
X987Y7633D01*
X988Y7632D01*
X990Y7627D01*
X994Y7622D01*
X995Y7622D01*
X996Y7621D01*
X999Y7618D01*
X1000Y7617D01*
X1001Y7616D01*
X1002Y7615D01*
X1003Y7610D01*
X1007Y7607D01*
X1009Y7605D01*
X1009Y7604D01*
X1011Y7603D01*
X1012Y7601D01*
X1013Y7600D01*
X1014Y7599D01*
X1015Y7598D01*
X1016Y7596D01*
X1015Y7594D01*
X1015Y7593D01*
X1012Y7590D01*
X1011Y7589D01*
X1005Y7582D01*
X1004Y7581D01*
X1003Y7580D01*
X1002Y7579D01*
X998Y7575D01*
X997Y7573D01*
X993Y7571D01*
X992Y7569D01*
X989Y7564D01*
X988Y7563D01*
X986Y7563D01*
X985Y7560D01*
X977Y7553D01*
X976Y7551D01*
X971Y7545D01*
X970Y7544D01*
X969Y7543D01*
X966Y7539D01*
X965Y7538D01*
X965Y7537D01*
X961Y7533D01*
X960Y7532D01*
X959Y7530D01*
X958Y7529D01*
X955Y7525D01*
X954Y7524D01*
X950Y7517D01*
X947Y7513D01*
X944Y7509D01*
X939Y7505D01*
X938Y7500D01*
X935Y7498D01*
X933Y7494D01*
X932Y7493D01*
X931Y7491D01*
X929Y7489D01*
X926Y7485D01*
X923Y7481D01*
X922Y7480D01*
X917Y7469D01*
X912Y7463D01*
X909Y7455D01*
X905Y7446D01*
X902Y7440D01*
X900Y7436D01*
X899Y7432D01*
X899Y7429D01*
X896Y7420D01*
X895Y7417D01*
X894Y7412D01*
X893Y7407D01*
X892Y7385D01*
X892Y7364D01*
X893Y7362D01*
X894Y7355D01*
X894Y7353D01*
X896Y7345D01*
X899Y7337D01*
X899Y7334D01*
X900Y7332D01*
X899Y7329D01*
X897Y7326D01*
X895Y7326D01*
X894Y7324D01*
X893Y7323D01*
X891Y7320D01*
X889Y7320D01*
X888Y7318D01*
X889Y7316D01*
X888Y7314D01*
X885Y7312D01*
X885Y7311D01*
X882Y7309D01*
X881Y7307D01*
X878Y7305D01*
X878Y7304D01*
X875Y7302D01*
X875Y7299D01*
X875Y7297D01*
X873Y7297D01*
X871Y7295D01*
X871Y7294D01*
X870Y7293D01*
X869Y7292D01*
X868Y7291D01*
X866Y7289D01*
X864Y7287D01*
X863Y7286D01*
X862Y7285D01*
X861Y7281D01*
X855Y7275D01*
X855Y7274D01*
X852Y7274D01*
X850Y7277D01*
X848Y7281D01*
X848Y7282D01*
X842Y7294D01*
X840Y7299D01*
X837Y7308D01*
X835Y7314D01*
X833Y7318D01*
X832Y7324D01*
X831Y7329D01*
X830Y7332D01*
X828Y7342D01*
X827Y7349D01*
X826Y7356D01*
X825Y7365D01*
X825Y7378D01*
X824Y7389D01*
X825Y7391D01*
X826Y7411D01*
X827Y7417D01*
X829Y7428D01*
X829Y7433D01*
X830Y7437D01*
X831Y7440D01*
X832Y7443D01*
X833Y7447D01*
X834Y7451D01*
X835Y7454D01*
X837Y7459D01*
X839Y7466D01*
X842Y7471D01*
X843Y7475D01*
X848Y7485D01*
X849Y7488D01*
X850Y7489D01*
X851Y7491D01*
X853Y7494D01*
X855Y7498D01*
X856Y7501D01*
X858Y7503D01*
X858Y7504D01*
X861Y7509D01*
X864Y7513D01*
X867Y7518D01*
X869Y7522D01*
X871Y7525D01*
X876Y7532D01*
X876Y7532D01*
X879Y7538D01*
X884Y7545D01*
X885Y7546D01*
X888Y7551D01*
X889Y7553D01*
X890Y7554D01*
X892Y7556D01*
X893Y7557D01*
X895Y7560D01*
X896Y7561D01*
X899Y7565D01*
X901Y7567D01*
X902Y7569D01*
X903Y7570D01*
X905Y7573D01*
X906Y7574D01*
X908Y7576D01*
X908Y7577D01*
X912Y7581D01*
X913Y7582D01*
X917Y7586D01*
X917Y7587D01*
X920Y7590D01*
X921Y7591D01*
X925Y7596D01*
X925Y7597D01*
X926Y7597D01*
X927Y7598D01*
X930Y7602D01*
X931Y7603D01*
X935Y7607D01*
X936Y7609D01*
X943Y7616D01*
X944Y7617D01*
X949Y7623D01*
X950Y7624D01*
X957Y7631D01*
X959Y7632D01*
X962Y7637D01*
X967Y7642D01*
X967Y7643D01*
X971Y7645D01*
X973Y7646D01*
X975Y7645D01*
D02*
G37*
G36*
X1966Y7164D02*
X1967Y7163D01*
X1969Y7160D01*
X1970Y7159D01*
X1973Y7158D01*
X1984Y7158D01*
X1987Y7157D01*
X1990Y7153D01*
X1991Y7152D01*
X2000Y7151D01*
X2001Y7150D01*
X2003Y7146D01*
X2004Y7145D01*
X2007Y7144D01*
X2011Y7145D01*
X2014Y7144D01*
X2017Y7138D01*
X2027Y7138D01*
X2028Y7136D01*
X2030Y7133D01*
X2032Y7131D01*
X2035Y7130D01*
X2038Y7131D01*
X2041Y7130D01*
X2043Y7127D01*
X2045Y7125D01*
X2052Y7124D01*
X2055Y7123D01*
X2057Y7119D01*
X2058Y7118D01*
X2062Y7117D01*
X2071Y7118D01*
X2075Y7117D01*
X2078Y7112D01*
X2081Y7110D01*
X2087Y7111D01*
X2089Y7109D01*
X2091Y7105D01*
X2093Y7104D01*
X2102Y7103D01*
X2104Y7100D01*
X2106Y7097D01*
X2109Y7097D01*
X2111Y7097D01*
X2116Y7097D01*
X2118Y7092D01*
X2119Y7091D01*
X2128Y7090D01*
X2129Y7089D01*
X2132Y7086D01*
X2133Y7084D01*
X2139Y7083D01*
X2144Y7084D01*
X2149Y7083D01*
X2150Y7082D01*
X2152Y7079D01*
X2153Y7077D01*
X2156Y7076D01*
X2160Y7077D01*
X2163Y7076D01*
X2165Y7072D01*
X2167Y7070D01*
X2176Y7070D01*
X2178Y7068D01*
X2179Y7064D01*
X2178Y7062D01*
X2179Y7059D01*
X2180Y7058D01*
X2183Y7056D01*
X2185Y7053D01*
X2186Y7052D01*
X2188Y7050D01*
X2193Y7049D01*
X2198Y7050D01*
X2203Y7049D01*
X2204Y7048D01*
X2207Y7044D01*
X2209Y7043D01*
X2228Y7043D01*
X2231Y7042D01*
X2233Y7038D01*
X2235Y7037D01*
X2242Y7036D01*
X2245Y7035D01*
X2247Y7031D01*
X2250Y7029D01*
X2262Y7029D01*
X2265Y7029D01*
X2268Y7023D01*
X2277Y7022D01*
X2278Y7021D01*
X2281Y7017D01*
X2283Y7016D01*
X2292Y7015D01*
X2294Y7011D01*
X2298Y7008D01*
X2309Y7009D01*
X2312Y7008D01*
X2315Y7004D01*
X2317Y7002D01*
X2326Y7002D01*
X2328Y6998D01*
X2332Y6995D01*
X2343Y6996D01*
X2346Y6994D01*
X2348Y6991D01*
X2350Y6989D01*
X2357Y6988D01*
X2360Y6988D01*
X2363Y6983D01*
X2364Y6982D01*
X2371Y6981D01*
X2373Y6981D01*
X2376Y6976D01*
X2379Y6975D01*
X2393Y6975D01*
X2394Y6973D01*
X2396Y6970D01*
X2399Y6968D01*
X2401Y6968D01*
X2405Y6968D01*
X2409Y6969D01*
X2414Y6967D01*
X2417Y6963D01*
X2419Y6961D01*
X2431Y6962D01*
X2434Y6961D01*
X2438Y6955D01*
X2447Y6955D01*
X2448Y6954D01*
X2450Y6950D01*
X2453Y6948D01*
X2465Y6948D01*
X2469Y6947D01*
X2472Y6942D01*
X2474Y6941D01*
X2486Y6941D01*
X2489Y6940D01*
X2490Y6937D01*
X2493Y6935D01*
X2494Y6934D01*
X2497Y6932D01*
X2497Y6930D01*
X2499Y6928D01*
X2501Y6928D01*
X2504Y6925D01*
X2504Y6923D01*
X2508Y6921D01*
X2510Y6920D01*
X2511Y6917D01*
X2510Y6915D01*
X2506Y6913D01*
X2504Y6910D01*
X2504Y6903D01*
X2504Y6789D01*
X2504Y6778D01*
Y6777D01*
X2504Y6774D01*
X2502Y6772D01*
X2501Y6772D01*
X2498Y6769D01*
X2497Y6768D01*
X2495Y6765D01*
X2494Y6765D01*
X2492Y6763D01*
X2490Y6759D01*
X2489Y6758D01*
X2485Y6758D01*
X2482Y6758D01*
X2479Y6758D01*
X2477Y6754D01*
X2476Y6753D01*
X2475Y6752D01*
X2473Y6751D01*
X2439Y6751D01*
X2436Y6747D01*
X2435Y6746D01*
X2433Y6744D01*
X2431Y6743D01*
X2429Y6739D01*
X2426Y6737D01*
X2412Y6738D01*
X2411Y6736D01*
X2408Y6732D01*
X2407Y6731D01*
X2398Y6730D01*
X2396Y6727D01*
X2392Y6724D01*
X2381Y6724D01*
X2378Y6724D01*
X2375Y6720D01*
X2375Y6719D01*
X2373Y6718D01*
X2366Y6717D01*
X2364Y6717D01*
X2362Y6713D01*
X2359Y6711D01*
X2357Y6710D01*
X2347Y6711D01*
X2343Y6710D01*
X2341Y6706D01*
X2337Y6703D01*
X2326Y6704D01*
X2323Y6703D01*
X2321Y6699D01*
X2319Y6697D01*
X2310Y6696D01*
X2307Y6693D01*
X2304Y6690D01*
X2292Y6690D01*
X2289Y6689D01*
X2287Y6686D01*
X2285Y6684D01*
X2278Y6683D01*
X2275Y6683D01*
X2273Y6678D01*
X2272Y6677D01*
X2263Y6676D01*
X2262Y6675D01*
X2259Y6671D01*
X2257Y6670D01*
X2243Y6670D01*
X2241Y6668D01*
X2239Y6665D01*
X2238Y6663D01*
X2228Y6663D01*
X2226Y6659D01*
X2224Y6657D01*
X2220Y6656D01*
X2213Y6657D01*
X2211Y6656D01*
X2198Y6657D01*
X2195Y6656D01*
X2193Y6654D01*
X2192Y6653D01*
X2189Y6649D01*
X2188Y6649D01*
X2187Y6648D01*
X2186Y6646D01*
X2183Y6643D01*
X2181Y6642D01*
X2180Y6641D01*
X2178Y6638D01*
X2177Y6637D01*
X2175Y6636D01*
X2170Y6636D01*
X2167Y6635D01*
X2165Y6631D01*
X2163Y6630D01*
X2156Y6629D01*
X2153Y6628D01*
X2151Y6624D01*
X2150Y6623D01*
X2146Y6622D01*
X2143Y6623D01*
X2140Y6622D01*
X2138Y6618D01*
X2136Y6616D01*
X2129Y6616D01*
X2126Y6615D01*
X2125Y6612D01*
X2122Y6609D01*
X2119Y6608D01*
X2110Y6609D01*
X2106Y6608D01*
X2104Y6605D01*
X2102Y6603D01*
X2100Y6602D01*
X2095Y6602D01*
X2092Y6601D01*
X2090Y6597D01*
X2088Y6595D01*
X2085Y6595D01*
X2082Y6595D01*
X2077Y6596D01*
X2072Y6594D01*
X2069Y6590D01*
X2068Y6589D01*
X2065Y6588D01*
X2062Y6589D01*
X2059Y6588D01*
X2058Y6587D01*
X2056Y6583D01*
X2055Y6582D01*
X2052Y6581D01*
X2041Y6582D01*
X2038Y6581D01*
X2036Y6576D01*
X2032Y6575D01*
X2021Y6575D01*
X2017Y6574D01*
X2016Y6572D01*
X2016Y6571D01*
X2014Y6569D01*
X2013Y6568D01*
X2010Y6566D01*
X2009Y6564D01*
X2007Y6562D01*
X2004Y6561D01*
X1998Y6561D01*
X1996Y6562D01*
X1994Y6562D01*
X1991Y6561D01*
X1989Y6557D01*
X1986Y6555D01*
X1984Y6554D01*
X1981Y6555D01*
X1977Y6554D01*
X1976Y6552D01*
X1975Y6551D01*
X1973Y6548D01*
X1972Y6548D01*
X1969Y6546D01*
X1967Y6541D01*
X1849Y6541D01*
X1848Y6542D01*
X1846Y6545D01*
X1844Y6547D01*
X1835Y6548D01*
X1833Y6552D01*
X1832Y6553D01*
X1828Y6555D01*
X1826Y6554D01*
X1821Y6555D01*
X1819Y6559D01*
X1818Y6560D01*
X1808Y6561D01*
X1807Y6562D01*
X1805Y6566D01*
X1804Y6568D01*
X1799Y6568D01*
X1797Y6568D01*
X1797Y6568D01*
X1794Y6569D01*
X1791Y6574D01*
X1788Y6575D01*
X1777Y6575D01*
X1774Y6575D01*
X1772Y6578D01*
X1771Y6579D01*
X1770Y6581D01*
X1763Y6582D01*
X1760Y6582D01*
X1758Y6586D01*
X1755Y6589D01*
X1750Y6588D01*
X1747Y6589D01*
X1745Y6593D01*
X1743Y6594D01*
X1741Y6595D01*
X1739Y6596D01*
X1732Y6595D01*
X1727Y6595D01*
X1724Y6599D01*
X1723Y6600D01*
X1722Y6601D01*
X1720Y6602D01*
X1719Y6603D01*
X1717Y6607D01*
X1716Y6608D01*
X1713Y6609D01*
X1700Y6608D01*
X1699Y6610D01*
X1697Y6614D01*
X1695Y6615D01*
X1686Y6616D01*
X1684Y6619D01*
X1683Y6620D01*
X1680Y6623D01*
X1669Y6622D01*
X1666Y6623D01*
X1665Y6624D01*
X1663Y6627D01*
X1661Y6629D01*
X1652Y6629D01*
X1650Y6633D01*
X1647Y6636D01*
X1635Y6635D01*
X1632Y6636D01*
X1629Y6640D01*
X1628Y6642D01*
X1621Y6642D01*
X1618Y6643D01*
X1616Y6646D01*
X1614Y6649D01*
X1612Y6649D01*
X1610Y6652D01*
X1609Y6653D01*
X1605Y6657D01*
X1594Y6656D01*
X1591Y6657D01*
X1589Y6659D01*
X1588Y6660D01*
X1587Y6662D01*
X1585Y6663D01*
X1583Y6665D01*
X1582Y6667D01*
X1579Y6670D01*
X1567Y6669D01*
X1564Y6670D01*
X1562Y6674D01*
X1560Y6676D01*
X1553Y6676D01*
X1550Y6677D01*
X1548Y6680D01*
X1546Y6683D01*
X1544Y6683D01*
X1543Y6685D01*
X1540Y6689D01*
X1537Y6690D01*
X1533Y6690D01*
X1530Y6690D01*
X1529Y6691D01*
X1527Y6695D01*
X1526Y6696D01*
X1525Y6697D01*
X1522Y6697D01*
X1515Y6696D01*
X1510Y6697D01*
X1507Y6701D01*
X1507Y6702D01*
X1504Y6704D01*
X1492Y6703D01*
X1488Y6705D01*
X1486Y6709D01*
X1476Y6710D01*
X1475Y6711D01*
X1473Y6715D01*
X1472Y6717D01*
X1464Y6717D01*
X1461Y6717D01*
X1456Y6717D01*
X1455Y6718D01*
X1453Y6722D01*
X1450Y6724D01*
X1445Y6724D01*
X1442Y6725D01*
X1439Y6728D01*
X1438Y6730D01*
X1436Y6731D01*
X1434Y6731D01*
X1427Y6730D01*
X1422Y6731D01*
X1421Y6732D01*
X1419Y6735D01*
X1417Y6737D01*
X1413Y6738D01*
X1411Y6737D01*
X1408Y6738D01*
X1406Y6742D01*
X1404Y6743D01*
X1402Y6744D01*
X1390Y6744D01*
X1387Y6745D01*
X1385Y6749D01*
X1383Y6750D01*
X1334Y6751D01*
X1332Y6750D01*
X1327Y6751D01*
X1325Y6753D01*
X1324Y6762D01*
X1320Y6765D01*
X1319Y6766D01*
X1318Y6768D01*
X1318Y6902D01*
X1317Y6915D01*
X1318Y6918D01*
X1321Y6921D01*
X1323Y6921D01*
X1324Y6924D01*
X1325Y6925D01*
X1327Y6927D01*
X1332Y6928D01*
X1335Y6927D01*
X1338Y6927D01*
X1347Y6927D01*
X1350Y6928D01*
X1352Y6932D01*
X1354Y6933D01*
X1361Y6934D01*
X1363Y6935D01*
X1366Y6939D01*
X1367Y6940D01*
X1371Y6941D01*
X1378Y6940D01*
X1383Y6941D01*
X1387Y6947D01*
X1396Y6948D01*
X1397Y6949D01*
X1399Y6952D01*
X1401Y6954D01*
X1410Y6955D01*
X1413Y6958D01*
X1416Y6962D01*
X1428Y6961D01*
X1431Y6962D01*
X1433Y6966D01*
X1435Y6967D01*
X1442Y6968D01*
X1445Y6969D01*
X1446Y6972D01*
X1450Y6975D01*
X1462Y6974D01*
X1465Y6975D01*
X1467Y6979D01*
X1469Y6981D01*
X1476Y6981D01*
X1479Y6982D01*
X1481Y6987D01*
X1484Y6988D01*
X1496Y6988D01*
X1499Y6989D01*
X1502Y6994D01*
X1505Y6996D01*
X1509Y6995D01*
X1512Y6996D01*
X1513Y6997D01*
X1515Y7000D01*
X1516Y7002D01*
X1526Y7002D01*
X1528Y7006D01*
X1532Y7009D01*
X1543Y7008D01*
X1546Y7009D01*
X1548Y7013D01*
X1550Y7015D01*
X1557Y7015D01*
X1560Y7016D01*
X1562Y7019D01*
X1564Y7022D01*
X1567Y7022D01*
X1576Y7022D01*
X1580Y7023D01*
X1582Y7026D01*
X1586Y7029D01*
X1591Y7029D01*
X1594Y7029D01*
X1596Y7034D01*
X1597Y7035D01*
X1606Y7036D01*
X1608Y7037D01*
X1610Y7040D01*
X1613Y7043D01*
X1617Y7043D01*
X1621Y7043D01*
X1624Y7049D01*
X1633Y7049D01*
X1634Y7050D01*
X1636Y7054D01*
X1639Y7056D01*
X1648Y7057D01*
X1650Y7060D01*
X1654Y7063D01*
X1659Y7063D01*
X1662Y7064D01*
X1665Y7069D01*
X1668Y7070D01*
X1693Y7070D01*
X1695Y7070D01*
X1697Y7073D01*
X1698Y7074D01*
X1699Y7075D01*
X1700Y7076D01*
X1704Y7079D01*
X1704Y7081D01*
X1706Y7082D01*
X1713Y7083D01*
X1716Y7084D01*
X1718Y7088D01*
X1722Y7090D01*
X1733Y7089D01*
X1736Y7091D01*
X1737Y7093D01*
X1738Y7094D01*
X1740Y7096D01*
X1741Y7097D01*
X1743Y7099D01*
X1746Y7103D01*
X1755Y7104D01*
X1757Y7105D01*
X1759Y7108D01*
X1760Y7110D01*
X1765Y7111D01*
X1767Y7110D01*
X1770Y7111D01*
X1772Y7115D01*
X1774Y7116D01*
X1781Y7117D01*
X1784Y7118D01*
X1786Y7122D01*
X1789Y7124D01*
X1801Y7123D01*
X1804Y7125D01*
X1805Y7127D01*
X1806Y7128D01*
X1808Y7130D01*
X1809Y7130D01*
X1811Y7133D01*
X1814Y7137D01*
X1823Y7138D01*
X1824Y7139D01*
X1826Y7142D01*
X1828Y7144D01*
X1832Y7145D01*
X1835Y7144D01*
X1838Y7145D01*
X1840Y7148D01*
X1842Y7150D01*
X1849Y7151D01*
X1852Y7152D01*
X1854Y7156D01*
X1855Y7157D01*
X1893Y7158D01*
X1902Y7157D01*
X1906Y7159D01*
X1907Y7160D01*
X1908Y7162D01*
X1909Y7163D01*
X1911Y7165D01*
X1950Y7164D01*
X1963Y7165D01*
X1966Y7164D01*
D02*
G37*
G36*
X994Y7492D02*
X996Y7490D01*
X1009Y7477D01*
X1010Y7475D01*
X1016Y7469D01*
X1017Y7468D01*
X1018Y7467D01*
X1019Y7466D01*
X1021Y7464D01*
X1035Y7450D01*
X1035Y7448D01*
X1043Y7441D01*
X1044Y7439D01*
X1052Y7431D01*
X1053Y7430D01*
X1058Y7424D01*
X1059Y7423D01*
X1062Y7419D01*
X1063Y7418D01*
X1066Y7415D01*
X1067Y7414D01*
X1068Y7413D01*
X1069Y7412D01*
X1071Y7409D01*
X1072Y7407D01*
X1074Y7406D01*
X1075Y7405D01*
X1077Y7402D01*
X1078Y7400D01*
X1079Y7399D01*
X1081Y7398D01*
X1081Y7396D01*
X1083Y7395D01*
X1083Y7394D01*
X1085Y7391D01*
X1086Y7390D01*
X1087Y7389D01*
X1088Y7387D01*
X1091Y7384D01*
X1094Y7380D01*
X1095Y7378D01*
X1096Y7377D01*
X1099Y7372D01*
X1100Y7371D01*
X1102Y7368D01*
X1103Y7366D01*
X1105Y7364D01*
X1108Y7359D01*
X1111Y7353D01*
X1117Y7343D01*
X1121Y7335D01*
X1122Y7332D01*
X1126Y7324D01*
X1128Y7319D01*
X1131Y7310D01*
X1133Y7306D01*
X1133Y7303D01*
X1135Y7300D01*
X1136Y7295D01*
X1137Y7291D01*
X1138Y7286D01*
X1139Y7283D01*
X1140Y7277D01*
X1141Y7273D01*
X1143Y7249D01*
X1144Y7224D01*
X1143Y7222D01*
X1142Y7208D01*
X1142Y7206D01*
X1141Y7197D01*
X1140Y7195D01*
X1140Y7192D01*
X1139Y7186D01*
X1138Y7182D01*
X1136Y7179D01*
X1135Y7175D01*
X1135Y7169D01*
X1132Y7163D01*
X1131Y7159D01*
X1129Y7155D01*
X1128Y7152D01*
X1123Y7140D01*
X1121Y7135D01*
X1120Y7134D01*
X1119Y7131D01*
X1118Y7130D01*
X1116Y7126D01*
X1113Y7121D01*
X1112Y7120D01*
X1110Y7121D01*
X1109Y7122D01*
X1108Y7123D01*
X1106Y7125D01*
X1106Y7130D01*
X1103Y7131D01*
X1099Y7135D01*
X1099Y7136D01*
X1098Y7137D01*
X1095Y7139D01*
X1094Y7141D01*
X1083Y7152D01*
X1083Y7157D01*
X1078Y7160D01*
X1076Y7163D01*
X1075Y7164D01*
X1074Y7165D01*
X1071Y7167D01*
X1070Y7168D01*
X1068Y7171D01*
X1067Y7171D01*
X1065Y7175D01*
X1066Y7181D01*
X1068Y7184D01*
X1069Y7185D01*
X1070Y7190D01*
X1072Y7198D01*
X1075Y7214D01*
X1076Y7216D01*
X1076Y7236D01*
X1076Y7256D01*
X1075Y7258D01*
X1072Y7273D01*
X1069Y7280D01*
X1069Y7285D01*
X1066Y7291D01*
X1065Y7296D01*
Y7296D01*
X1063Y7298D01*
X1061Y7302D01*
X1055Y7315D01*
X1053Y7316D01*
X1050Y7323D01*
X1047Y7328D01*
X1044Y7331D01*
X1041Y7337D01*
X1038Y7341D01*
X1036Y7343D01*
X1035Y7344D01*
X1031Y7350D01*
X1029Y7352D01*
X1028Y7353D01*
X1027Y7355D01*
X1026Y7356D01*
X1024Y7358D01*
X1024Y7359D01*
X1020Y7363D01*
X1019Y7364D01*
X1016Y7368D01*
X1015Y7369D01*
X1012Y7372D01*
X1012Y7373D01*
X1007Y7378D01*
X1006Y7380D01*
X1001Y7384D01*
X1001Y7386D01*
X997Y7390D01*
X994Y7393D01*
X991Y7396D01*
X990Y7397D01*
X987Y7400D01*
X986Y7401D01*
X983Y7405D01*
X974Y7414D01*
X972Y7415D01*
X971Y7416D01*
X971Y7417D01*
X967Y7421D01*
X967Y7422D01*
X966Y7423D01*
X964Y7424D01*
X963Y7425D01*
X961Y7428D01*
X960Y7429D01*
X959Y7430D01*
X958Y7431D01*
X957Y7432D01*
X956Y7433D01*
X954Y7434D01*
X955Y7437D01*
X960Y7441D01*
X959Y7445D01*
X960Y7446D01*
X961Y7447D01*
X962Y7448D01*
X963Y7449D01*
X966Y7451D01*
X966Y7455D01*
X968Y7456D01*
X969Y7457D01*
X970Y7458D01*
X969Y7461D01*
X970Y7462D01*
X975Y7467D01*
X976Y7467D01*
X977Y7473D01*
X981Y7476D01*
X983Y7478D01*
X983Y7482D01*
X984Y7483D01*
X985Y7484D01*
X986Y7485D01*
X988Y7487D01*
X989Y7488D01*
X990Y7490D01*
X989Y7491D01*
X990Y7493D01*
X994Y7492D01*
D02*
G37*
G36*
X977Y7353D02*
X978Y7352D01*
X979Y7347D01*
X983Y7343D01*
X987Y7340D01*
X988Y7339D01*
X989Y7337D01*
X988Y7335D01*
X989Y7333D01*
X992Y7332D01*
X992Y7331D01*
X997Y7326D01*
X998Y7326D01*
X1000Y7323D01*
X1002Y7322D01*
X1003Y7317D01*
X1004Y7316D01*
X1005Y7315D01*
X1007Y7313D01*
X1008Y7313D01*
X1009Y7312D01*
X1010Y7310D01*
X1012Y7309D01*
X1012Y7304D01*
X1013Y7303D01*
X1015Y7302D01*
X1017Y7298D01*
X1008Y7290D01*
X1008Y7289D01*
X1003Y7284D01*
X1002Y7283D01*
X997Y7279D01*
X996Y7277D01*
X994Y7275D01*
X993Y7272D01*
X991Y7272D01*
X990Y7269D01*
X988Y7267D01*
X985Y7266D01*
X983Y7262D01*
X979Y7258D01*
X978Y7257D01*
X976Y7254D01*
X975Y7252D01*
X968Y7246D01*
X967Y7245D01*
X966Y7244D01*
X965Y7241D01*
X963Y7239D01*
X962Y7238D01*
X960Y7235D01*
X959Y7234D01*
X956Y7230D01*
X952Y7227D01*
X952Y7223D01*
X950Y7221D01*
X947Y7218D01*
X946Y7216D01*
X945Y7215D01*
X944Y7214D01*
X938Y7205D01*
X938Y7204D01*
X935Y7202D01*
X934Y7198D01*
X932Y7196D01*
X931Y7195D01*
X930Y7193D01*
X929Y7192D01*
X927Y7189D01*
X926Y7189D01*
X926Y7187D01*
X924Y7186D01*
X924Y7184D01*
X921Y7180D01*
X919Y7178D01*
X917Y7173D01*
X913Y7167D01*
X903Y7146D01*
X900Y7139D01*
X899Y7135D01*
X899Y7132D01*
X897Y7128D01*
X896Y7124D01*
X895Y7119D01*
X894Y7115D01*
X893Y7107D01*
X892Y7099D01*
X892Y7076D01*
X892Y7074D01*
X893Y7063D01*
X894Y7061D01*
X895Y7056D01*
X897Y7046D01*
X899Y7041D01*
X900Y7037D01*
X902Y7031D01*
X902Y7028D01*
X900Y7026D01*
X899Y7026D01*
X896Y7023D01*
X895Y7021D01*
X894Y7020D01*
X893Y7019D01*
X892Y7018D01*
X891Y7014D01*
X890Y7013D01*
X889Y7012D01*
X888Y7011D01*
X886Y7009D01*
X878Y7002D01*
X878Y7000D01*
X875Y6999D01*
X875Y6997D01*
X873Y6996D01*
X872Y6995D01*
X871Y6994D01*
X869Y6992D01*
X868Y6990D01*
X866Y6990D01*
X865Y6988D01*
X865Y6984D01*
X863Y6983D01*
X854Y6974D01*
X853Y6975D01*
X852Y6978D01*
X848Y6984D01*
X846Y6988D01*
X842Y6998D01*
X839Y7007D01*
X836Y7013D01*
X835Y7018D01*
X833Y7023D01*
X833Y7025D01*
X831Y7030D01*
X830Y7034D01*
X829Y7039D01*
X828Y7045D01*
X828Y7048D01*
X827Y7050D01*
X826Y7064D01*
X825Y7082D01*
X824Y7086D01*
X825Y7093D01*
Y7094D01*
X826Y7116D01*
X827Y7122D01*
X827Y7126D01*
X828Y7128D01*
X829Y7132D01*
X829Y7136D01*
X830Y7140D01*
X831Y7142D01*
X832Y7146D01*
X833Y7152D01*
X835Y7156D01*
X836Y7162D01*
X839Y7168D01*
X839Y7171D01*
X842Y7177D01*
X858Y7207D01*
X860Y7211D01*
X862Y7213D01*
X865Y7219D01*
X871Y7228D01*
X875Y7235D01*
X882Y7246D01*
X883Y7248D01*
X885Y7250D01*
X886Y7252D01*
X893Y7262D01*
X893Y7263D01*
X895Y7263D01*
X896Y7264D01*
X896Y7266D01*
X900Y7269D01*
X901Y7272D01*
X904Y7275D01*
X905Y7276D01*
X908Y7279D01*
X908Y7280D01*
X910Y7282D01*
X910Y7283D01*
X915Y7288D01*
X916Y7289D01*
X919Y7292D01*
X919Y7293D01*
X921Y7296D01*
X922Y7297D01*
X925Y7299D01*
X926Y7300D01*
X927Y7301D01*
X929Y7305D01*
X933Y7308D01*
X933Y7309D01*
X936Y7313D01*
X938Y7313D01*
X939Y7315D01*
X942Y7318D01*
X949Y7325D01*
X949Y7327D01*
X955Y7332D01*
X955Y7333D01*
X957Y7334D01*
X959Y7337D01*
X960Y7338D01*
X966Y7344D01*
X967Y7346D01*
X968Y7347D01*
X969Y7347D01*
X971Y7350D01*
X975Y7354D01*
X977Y7353D01*
D02*
G37*
G36*
X995Y7195D02*
X996Y7194D01*
X997Y7193D01*
X1000Y7189D01*
X1008Y7181D01*
X1009Y7180D01*
X1021Y7167D01*
X1022Y7166D01*
X1025Y7162D01*
X1030Y7157D01*
X1032Y7156D01*
X1035Y7152D01*
X1036Y7151D01*
X1038Y7149D01*
X1039Y7148D01*
X1042Y7144D01*
X1043Y7144D01*
X1049Y7138D01*
X1050Y7136D01*
X1055Y7132D01*
X1056Y7130D01*
X1059Y7127D01*
X1060Y7125D01*
X1065Y7119D01*
X1067Y7117D01*
X1068Y7116D01*
X1070Y7114D01*
X1071Y7112D01*
X1072Y7111D01*
X1077Y7105D01*
X1082Y7100D01*
X1083Y7098D01*
X1085Y7096D01*
X1087Y7093D01*
X1089Y7091D01*
X1090Y7089D01*
X1092Y7087D01*
X1092Y7085D01*
X1095Y7082D01*
X1097Y7079D01*
X1102Y7072D01*
X1105Y7067D01*
X1108Y7063D01*
X1110Y7058D01*
X1112Y7057D01*
X1112Y7054D01*
X1114Y7052D01*
X1115Y7051D01*
X1117Y7046D01*
X1119Y7041D01*
X1120Y7040D01*
X1126Y7028D01*
X1131Y7015D01*
X1133Y7009D01*
X1134Y7004D01*
X1135Y7000D01*
X1136Y6998D01*
X1137Y6994D01*
X1138Y6991D01*
X1139Y6986D01*
X1140Y6981D01*
X1141Y6976D01*
X1141Y6974D01*
X1142Y6967D01*
X1143Y6959D01*
X1143Y6950D01*
X1144Y6927D01*
X1143Y6925D01*
X1142Y6911D01*
X1142Y6909D01*
X1141Y6902D01*
X1140Y6900D01*
X1139Y6894D01*
X1138Y6886D01*
X1136Y6883D01*
X1136Y6878D01*
X1134Y6873D01*
X1133Y6868D01*
X1132Y6865D01*
X1130Y6861D01*
X1127Y6854D01*
X1126Y6850D01*
X1122Y6842D01*
X1115Y6827D01*
X1115Y6826D01*
X1114Y6826D01*
X1113Y6827D01*
X1112Y6829D01*
X1107Y6834D01*
X1106Y6834D01*
X1106Y6836D01*
X1101Y6840D01*
X1100Y6841D01*
X1099Y6846D01*
X1098Y6847D01*
X1096Y6847D01*
X1096Y6849D01*
X1095Y6850D01*
X1093Y6851D01*
X1092Y6853D01*
X1090Y6854D01*
X1089Y6856D01*
X1088Y6857D01*
X1086Y6858D01*
X1085Y6860D01*
X1083Y6861D01*
X1082Y6866D01*
X1079Y6868D01*
X1078Y6870D01*
X1076Y6872D01*
X1075Y6873D01*
X1072Y6875D01*
X1071Y6877D01*
X1069Y6878D01*
X1069Y6883D01*
X1067Y6885D01*
X1067Y6887D01*
X1069Y6891D01*
X1069Y6893D01*
X1071Y6898D01*
X1073Y6903D01*
X1074Y6911D01*
X1075Y6915D01*
X1076Y6933D01*
X1076Y6960D01*
X1075Y6962D01*
X1074Y6967D01*
X1073Y6969D01*
X1072Y6977D01*
X1071Y6980D01*
X1070Y6983D01*
X1069Y6987D01*
X1068Y6990D01*
X1067Y6991D01*
X1067Y6993D01*
X1066Y6994D01*
X1064Y6999D01*
X1061Y7007D01*
X1059Y7010D01*
X1053Y7020D01*
X1051Y7025D01*
X1046Y7033D01*
X1044Y7036D01*
X1040Y7041D01*
X1037Y7045D01*
X1034Y7049D01*
X1033Y7051D01*
X1032Y7052D01*
X1029Y7055D01*
X1028Y7057D01*
X1027Y7058D01*
X1026Y7059D01*
X1024Y7062D01*
X1023Y7064D01*
X1021Y7066D01*
X1020Y7067D01*
X1017Y7070D01*
X1016Y7072D01*
X1013Y7076D01*
X1012Y7077D01*
X1011Y7078D01*
X999Y7090D01*
X999Y7091D01*
X992Y7098D01*
X992Y7099D01*
X991Y7099D01*
X989Y7101D01*
X988Y7102D01*
X985Y7105D01*
X985Y7107D01*
X984Y7108D01*
X983Y7108D01*
X982Y7109D01*
X969Y7122D01*
X969Y7123D01*
X968Y7124D01*
X966Y7125D01*
X963Y7129D01*
X957Y7135D01*
X956Y7136D01*
X953Y7141D01*
X953Y7143D01*
X956Y7144D01*
X957Y7148D01*
X960Y7151D01*
X960Y7152D01*
X965Y7157D01*
X966Y7157D01*
X967Y7162D01*
X975Y7170D01*
X976Y7171D01*
X976Y7175D01*
X977Y7176D01*
X979Y7177D01*
X983Y7182D01*
X984Y7183D01*
X985Y7183D01*
X986Y7184D01*
X987Y7189D01*
X989Y7191D01*
X991Y7193D01*
X992Y7194D01*
X993Y7196D01*
X995Y7195D01*
D02*
G37*
G36*
X977Y7053D02*
X978Y7052D01*
X979Y7051D01*
X979Y7050D01*
X981Y7049D01*
X982Y7048D01*
X983Y7047D01*
X985Y7045D01*
X986Y7040D01*
X988Y7039D01*
X989Y7038D01*
X991Y7036D01*
X992Y7036D01*
X992Y7034D01*
X998Y7029D01*
X999Y7027D01*
X1000Y7026D01*
X1001Y7025D01*
X1002Y7020D01*
X1005Y7018D01*
X1007Y7016D01*
X1008Y7016D01*
X1009Y7014D01*
X1017Y7006D01*
X1018Y7006D01*
X1019Y7004D01*
X1016Y7001D01*
X1015Y7001D01*
X1015Y7000D01*
X1003Y6988D01*
X1002Y6986D01*
X994Y6978D01*
X993Y6977D01*
X989Y6973D01*
X988Y6971D01*
X987Y6970D01*
X986Y6970D01*
X985Y6968D01*
X984Y6966D01*
X982Y6965D01*
X981Y6964D01*
X980Y6963D01*
X973Y6955D01*
X972Y6954D01*
X967Y6948D01*
X966Y6946D01*
X965Y6945D01*
X964Y6944D01*
X963Y6943D01*
X959Y6939D01*
X957Y6935D01*
X954Y6931D01*
X952Y6929D01*
X951Y6927D01*
X949Y6925D01*
X947Y6922D01*
X946Y6920D01*
X944Y6917D01*
X941Y6912D01*
X939Y6910D01*
X937Y6907D01*
X934Y6903D01*
X932Y6900D01*
X929Y6898D01*
X928Y6895D01*
X927Y6893D01*
X926Y6892D01*
X921Y6884D01*
X921Y6883D01*
X919Y6882D01*
X917Y6877D01*
X913Y6870D01*
X910Y6866D01*
X905Y6854D01*
X904Y6851D01*
X903Y6850D01*
X902Y6846D01*
X901Y6843D01*
X899Y6840D01*
X898Y6834D01*
X896Y6830D01*
X895Y6826D01*
X895Y6824D01*
X894Y6820D01*
X893Y6814D01*
X893Y6810D01*
X892Y6802D01*
X892Y6781D01*
X892Y6779D01*
X893Y6766D01*
X894Y6764D01*
X894Y6761D01*
X895Y6756D01*
X896Y6754D01*
X898Y6746D01*
X899Y6743D01*
X898Y6740D01*
X896Y6739D01*
X895Y6738D01*
X894Y6737D01*
X893Y6736D01*
X892Y6735D01*
X891Y6734D01*
X890Y6733D01*
X889Y6732D01*
X888Y6727D01*
X886Y6726D01*
X884Y6723D01*
X883Y6723D01*
X875Y6715D01*
X875Y6714D01*
X873Y6713D01*
X872Y6712D01*
X871Y6708D01*
X856Y6693D01*
X855Y6693D01*
X855Y6688D01*
X854Y6687D01*
X852Y6686D01*
X851Y6685D01*
X849Y6685D01*
X848Y6689D01*
X846Y6691D01*
X845Y6695D01*
X843Y6700D01*
X839Y6709D01*
X839Y6711D01*
X838Y6712D01*
X836Y6718D01*
X835Y6723D01*
X833Y6727D01*
X831Y6735D01*
X830Y6738D01*
X829Y6744D01*
X828Y6746D01*
X828Y6752D01*
X827Y6754D01*
X826Y6759D01*
X825Y6778D01*
X824Y6796D01*
X825Y6798D01*
X826Y6818D01*
X826Y6820D01*
X827Y6829D01*
X828Y6832D01*
X829Y6835D01*
X830Y6843D01*
X831Y6849D01*
X833Y6852D01*
X833Y6857D01*
X835Y6861D01*
X836Y6864D01*
X838Y6869D01*
X839Y6872D01*
X840Y6876D01*
X842Y6877D01*
X844Y6883D01*
X846Y6888D01*
X854Y6904D01*
X855Y6905D01*
X856Y6908D01*
X859Y6912D01*
X863Y6920D01*
X866Y6924D01*
X869Y6929D01*
X875Y6938D01*
X876Y6939D01*
X879Y6944D01*
X882Y6949D01*
X885Y6954D01*
X887Y6957D01*
X891Y6961D01*
X892Y6962D01*
X894Y6966D01*
X896Y6968D01*
X896Y6969D01*
X898Y6970D01*
X899Y6972D01*
X902Y6976D01*
X904Y6979D01*
X905Y6980D01*
X906Y6981D01*
X907Y6983D01*
X908Y6984D01*
X909Y6985D01*
X910Y6986D01*
X911Y6987D01*
X913Y6988D01*
X914Y6990D01*
X915Y6991D01*
X916Y6993D01*
X919Y6996D01*
X920Y6998D01*
X921Y6999D01*
X929Y7007D01*
X931Y7011D01*
X938Y7018D01*
X939Y7019D01*
X943Y7023D01*
X944Y7025D01*
X952Y7033D01*
X953Y7033D01*
X957Y7037D01*
X959Y7041D01*
X962Y7044D01*
X963Y7045D01*
X968Y7050D01*
X969Y7051D01*
X971Y7053D01*
X972Y7054D01*
X975Y7055D01*
X977Y7053D01*
D02*
G37*
G36*
X6012Y7162D02*
X6021Y7161D01*
X6025Y7161D01*
X6028Y7160D01*
X6038Y7158D01*
X6046Y7157D01*
X6050Y7157D01*
X6053Y7156D01*
X6056Y7156D01*
X6063Y7153D01*
X6067Y7152D01*
X6072Y7150D01*
X6073Y7150D01*
X6075Y7147D01*
X6079Y7146D01*
X6082Y7145D01*
X6093Y7140D01*
X6096Y7139D01*
X6099Y7136D01*
X6105Y7132D01*
X6106Y7132D01*
X6108Y7130D01*
X6114Y7127D01*
X6116Y7125D01*
X6119Y7122D01*
X6121Y7121D01*
X6127Y7115D01*
X6128Y7114D01*
X6128Y7113D01*
X6132Y7110D01*
X6133Y7110D01*
X6135Y7108D01*
X6137Y7105D01*
X6138Y7103D01*
X6141Y7100D01*
X6142Y7099D01*
X6146Y7095D01*
X6148Y7090D01*
X6152Y7084D01*
X6153Y7083D01*
X6154Y7080D01*
X6156Y7075D01*
X6158Y7072D01*
X6160Y7068D01*
X6166Y7056D01*
X6167Y7055D01*
X6169Y7054D01*
X6171Y7056D01*
X6171Y7057D01*
X6173Y7061D01*
X6174Y7063D01*
X6176Y7064D01*
X6180Y7073D01*
X6182Y7075D01*
X6185Y7080D01*
X6186Y7082D01*
X6190Y7085D01*
X6190Y7087D01*
X6194Y7090D01*
X6195Y7092D01*
X6196Y7093D01*
X6197Y7094D01*
X6200Y7098D01*
X6201Y7098D01*
X6204Y7101D01*
X6205Y7102D01*
X6212Y7109D01*
X6214Y7110D01*
X6215Y7111D01*
X6216Y7112D01*
X6217Y7113D01*
X6224Y7117D01*
X6227Y7119D01*
X6239Y7126D01*
X6243Y7127D01*
X6247Y7129D01*
X6250Y7129D01*
X6253Y7131D01*
X6258Y7133D01*
X6261Y7133D01*
X6267Y7134D01*
X6272Y7136D01*
X6275Y7137D01*
X6281Y7138D01*
X6283Y7139D01*
X6324Y7139D01*
X6328Y7139D01*
X6335Y7138D01*
X6340Y7137D01*
X6346Y7135D01*
X6348Y7134D01*
X6353Y7134D01*
X6360Y7132D01*
X6365Y7131D01*
X6370Y7129D01*
X6377Y7127D01*
X6381Y7126D01*
X6385Y7123D01*
X6386Y7122D01*
X6391Y7120D01*
X6392Y7120D01*
X6394Y7118D01*
X6401Y7114D01*
X6402Y7114D01*
X6404Y7112D01*
X6408Y7110D01*
X6414Y7103D01*
X6416Y7103D01*
X6421Y7098D01*
X6422Y7097D01*
X6423Y7096D01*
X6427Y7090D01*
X6428Y7089D01*
X6430Y7087D01*
X6434Y7082D01*
X6435Y7080D01*
X6437Y7078D01*
X6439Y7075D01*
X6441Y7070D01*
X6442Y7069D01*
X6443Y7067D01*
X6445Y7063D01*
X6447Y7059D01*
X6449Y7057D01*
X6451Y7052D01*
X6453Y7047D01*
X6454Y7043D01*
X6456Y7038D01*
X6457Y7036D01*
X6457Y7032D01*
X6458Y7027D01*
X6461Y7020D01*
X6462Y7017D01*
X6463Y7015D01*
X6464Y7011D01*
X6464Y7006D01*
X6465Y7002D01*
X6466Y6996D01*
X6467Y6993D01*
X6468Y6988D01*
X6468Y6986D01*
X6469Y6971D01*
X6470Y6969D01*
X6470Y6938D01*
X6471Y6936D01*
X6473Y6934D01*
X6540Y6934D01*
X6546Y6933D01*
X6548Y6931D01*
X6548Y6765D01*
X6547Y6760D01*
X6546Y6759D01*
X6476Y6758D01*
X6472Y6757D01*
X6470Y6754D01*
X6471Y6747D01*
X6470Y6617D01*
X6469Y6614D01*
X6468Y6613D01*
X5811Y6612D01*
X5808Y6613D01*
X5807Y6615D01*
X5806Y6618D01*
X5806Y6620D01*
X5806Y6626D01*
X5806Y6737D01*
X5806Y6753D01*
X5805Y6756D01*
X5804Y6756D01*
X5803Y6758D01*
X5744Y6758D01*
X5742Y6758D01*
X5737Y6758D01*
X5735Y6761D01*
X5735Y6925D01*
X5734Y6927D01*
X5735Y6932D01*
X5737Y6933D01*
X5801Y6934D01*
X5805Y6935D01*
X5806Y6936D01*
X5806Y6949D01*
X5807Y6956D01*
X5808Y6974D01*
X5808Y6981D01*
X5810Y6988D01*
X5811Y6993D01*
X5812Y7000D01*
X5813Y7003D01*
X5814Y7009D01*
X5815Y7014D01*
X5818Y7018D01*
X5818Y7020D01*
X5820Y7027D01*
X5821Y7031D01*
X5823Y7036D01*
X5824Y7039D01*
X5825Y7041D01*
X5826Y7045D01*
X5828Y7051D01*
X5834Y7062D01*
X5836Y7065D01*
X5838Y7069D01*
X5839Y7073D01*
X5842Y7076D01*
X5845Y7082D01*
X5845Y7083D01*
X5846Y7084D01*
X5848Y7085D01*
X5850Y7090D01*
X5855Y7096D01*
X5856Y7097D01*
X5857Y7099D01*
X5857Y7100D01*
X5860Y7101D01*
X5863Y7105D01*
X5863Y7106D01*
X5872Y7115D01*
X5873Y7115D01*
X5879Y7122D01*
X5881Y7122D01*
X5882Y7124D01*
X5886Y7127D01*
X5890Y7129D01*
X5896Y7134D01*
X5897Y7134D01*
X5900Y7137D01*
X5905Y7140D01*
X5911Y7143D01*
X5912Y7144D01*
X5922Y7147D01*
X5924Y7149D01*
X5925Y7150D01*
X5926Y7151D01*
X5929Y7152D01*
X5933Y7153D01*
X5936Y7153D01*
X5941Y7156D01*
X5948Y7157D01*
X5951Y7158D01*
X5957Y7158D01*
X5966Y7159D01*
X5972Y7161D01*
X5978Y7162D01*
X5980Y7162D01*
X6006Y7163D01*
X6012Y7162D01*
D02*
G37*
G36*
X1427Y6561D02*
X1480Y6562D01*
X1484Y6561D01*
X1485Y6560D01*
X1487Y6557D01*
X1491Y6554D01*
X1496Y6555D01*
X1498Y6554D01*
X1502Y6550D01*
X1506Y6547D01*
X1508Y6544D01*
X1507Y6501D01*
X1508Y6494D01*
X1507Y6489D01*
X1505Y6487D01*
X1503Y6486D01*
X1500Y6483D01*
X1501Y6451D01*
X1500Y6448D01*
X1497Y6446D01*
X1495Y6444D01*
X1494Y6430D01*
X1495Y6425D01*
X1493Y6420D01*
X1488Y6417D01*
X1487Y6415D01*
X1487Y6356D01*
X1487Y6343D01*
X1488Y6339D01*
X1491Y6337D01*
X1492Y6336D01*
X1495Y6333D01*
X1496Y6332D01*
X1498Y6331D01*
X1550Y6331D01*
X1553Y6330D01*
X1555Y6326D01*
X1557Y6325D01*
X1708Y6324D01*
X1711Y6325D01*
X1716Y6323D01*
X1718Y6320D01*
X1719Y6319D01*
X1721Y6317D01*
X1822Y6318D01*
X1824Y6317D01*
X1835Y6318D01*
X1838Y6316D01*
X1840Y6313D01*
X1843Y6310D01*
X1844Y6310D01*
X1847Y6307D01*
X1848Y6305D01*
X1852Y6303D01*
X1858Y6304D01*
X1860Y6307D01*
X1860Y6308D01*
X1862Y6310D01*
X1869Y6310D01*
X1872Y6311D01*
X1874Y6316D01*
X1878Y6318D01*
X1884Y6317D01*
X2038Y6318D01*
X2051Y6317D01*
X2054Y6318D01*
X2055Y6319D01*
X2057Y6322D01*
X2059Y6324D01*
X2062Y6324D01*
X2222Y6324D01*
X2224Y6325D01*
X2227Y6329D01*
X2228Y6330D01*
X2313Y6331D01*
X2322Y6330D01*
X2326Y6331D01*
X2328Y6335D01*
X2329Y6336D01*
X2331Y6338D01*
X2455Y6337D01*
X2465Y6338D01*
X2467Y6337D01*
X2469Y6336D01*
X2470Y6334D01*
X2472Y6332D01*
X2474Y6331D01*
X2476Y6328D01*
X2477Y6327D01*
X2479Y6325D01*
X2481Y6324D01*
X2483Y6322D01*
X2483Y6321D01*
X2486Y6318D01*
X2488Y6317D01*
X2490Y6315D01*
X2490Y6314D01*
X2493Y6311D01*
X2494Y6310D01*
X2497Y6308D01*
X2497Y6307D01*
X2499Y6305D01*
X2503Y6303D01*
X2504Y6299D01*
X2504Y6295D01*
X2504Y6292D01*
X2506Y6291D01*
X2509Y6289D01*
X2510Y6288D01*
X2511Y6285D01*
X2511Y6265D01*
X2512Y6263D01*
X2510Y6258D01*
X2507Y6256D01*
X2504Y6252D01*
X2504Y6241D01*
X2503Y6238D01*
X2500Y6236D01*
X2498Y6234D01*
X2497Y6231D01*
X2497Y6146D01*
X2497Y6143D01*
X2494Y6141D01*
X2490Y6137D01*
X2490Y6136D01*
X2489Y6135D01*
X2412Y6134D01*
X2411Y6136D01*
X2408Y6139D01*
X2407Y6140D01*
X2324Y6141D01*
X2322Y6140D01*
X2317Y6141D01*
X2316Y6142D01*
X2313Y6146D01*
X2311Y6148D01*
X1601Y6147D01*
X1587Y6148D01*
X1585Y6147D01*
X1583Y6146D01*
X1581Y6143D01*
X1580Y6142D01*
X1578Y6141D01*
X1503Y6141D01*
X1500Y6140D01*
X1496Y6142D01*
X1494Y6145D01*
X1490Y6148D01*
X1479Y6147D01*
X1465Y6148D01*
X1462Y6147D01*
X1460Y6144D01*
X1459Y6143D01*
X1457Y6141D01*
X1455Y6140D01*
X1454Y6138D01*
X1453Y6136D01*
X1451Y6135D01*
X1422Y6134D01*
X1363D01*
X1361Y6135D01*
X1357Y6138D01*
X1357Y6140D01*
X1353Y6142D01*
X1348Y6141D01*
X1345Y6138D01*
X1345Y6137D01*
X1342Y6135D01*
X1341Y6134D01*
X1339Y6133D01*
X1335Y6134D01*
X1332Y6136D01*
X1331Y6138D01*
X1329Y6140D01*
X1327Y6141D01*
X1325Y6143D01*
X1324Y6145D01*
X1320Y6148D01*
X1319Y6149D01*
X1318Y6151D01*
X1318Y6242D01*
X1317Y6258D01*
X1318Y6261D01*
X1322Y6263D01*
X1324Y6265D01*
X1325Y6267D01*
X1324Y6285D01*
X1325Y6290D01*
X1324Y6295D01*
X1319Y6298D01*
X1319Y6299D01*
X1318Y6300D01*
X1318Y6482D01*
X1317Y6485D01*
X1318Y6495D01*
X1317Y6498D01*
X1313Y6500D01*
X1311Y6503D01*
X1311Y6505D01*
X1311Y6512D01*
X1310Y6514D01*
X1311Y6518D01*
X1313Y6520D01*
X1314Y6520D01*
X1317Y6523D01*
X1318Y6525D01*
X1320Y6527D01*
X1321Y6527D01*
X1324Y6530D01*
X1325Y6532D01*
X1326Y6533D01*
X1327Y6534D01*
X1331Y6537D01*
X1331Y6538D01*
X1333Y6540D01*
X1335Y6541D01*
X1338Y6544D01*
X1338Y6545D01*
X1339Y6546D01*
X1341Y6547D01*
X1344Y6550D01*
X1345Y6552D01*
X1348Y6554D01*
X1402Y6554D01*
X1404Y6555D01*
X1414Y6554D01*
X1418Y6555D01*
X1420Y6559D01*
X1421Y6560D01*
X1423Y6561D01*
X1425Y6562D01*
X1427Y6561D01*
D02*
G37*
G36*
X994Y6899D02*
X996Y6898D01*
X996Y6896D01*
X999Y6895D01*
X1000Y6893D01*
X1005Y6888D01*
X1006Y6886D01*
X1007Y6885D01*
X1008Y6885D01*
X1009Y6884D01*
X1015Y6877D01*
X1016Y6876D01*
X1017Y6875D01*
X1018Y6875D01*
X1019Y6873D01*
X1020Y6872D01*
X1021Y6871D01*
X1023Y6869D01*
X1029Y6863D01*
X1030Y6861D01*
X1036Y6855D01*
X1037Y6854D01*
X1038Y6853D01*
X1039Y6852D01*
X1041Y6850D01*
X1042Y6850D01*
X1042Y6848D01*
X1049Y6842D01*
X1049Y6841D01*
X1055Y6835D01*
X1056Y6834D01*
X1062Y6827D01*
X1062Y6826D01*
X1065Y6823D01*
X1066Y6822D01*
X1071Y6816D01*
X1074Y6813D01*
X1076Y6810D01*
X1077Y6809D01*
X1078Y6807D01*
X1079Y6806D01*
X1082Y6803D01*
X1083Y6802D01*
X1085Y6800D01*
X1085Y6798D01*
X1087Y6796D01*
X1088Y6795D01*
X1090Y6792D01*
X1092Y6791D01*
X1094Y6787D01*
X1101Y6777D01*
X1101Y6776D01*
X1105Y6771D01*
X1110Y6761D01*
X1112Y6760D01*
X1121Y6743D01*
X1122Y6739D01*
X1126Y6731D01*
X1128Y6727D01*
X1129Y6722D01*
X1131Y6719D01*
X1133Y6713D01*
X1133Y6710D01*
X1135Y6706D01*
X1136Y6701D01*
X1138Y6693D01*
X1139Y6687D01*
X1140Y6683D01*
X1141Y6679D01*
X1142Y6675D01*
X1142Y6665D01*
X1143Y6663D01*
X1144Y6636D01*
X1143Y6634D01*
X1142Y6614D01*
X1142Y6612D01*
X1141Y6604D01*
X1140Y6601D01*
X1139Y6594D01*
X1138Y6590D01*
X1137Y6586D01*
X1135Y6581D01*
X1134Y6577D01*
X1133Y6572D01*
X1132Y6569D01*
X1130Y6565D01*
X1128Y6561D01*
X1128Y6558D01*
X1126Y6554D01*
X1125Y6551D01*
X1124Y6549D01*
X1121Y6543D01*
X1118Y6538D01*
X1117Y6536D01*
X1116Y6534D01*
X1115Y6531D01*
X1114Y6530D01*
X1110Y6530D01*
X1109Y6531D01*
X1109Y6535D01*
X1107Y6537D01*
X1106Y6538D01*
X1106Y6539D01*
X1104Y6540D01*
X1103Y6541D01*
X1101Y6543D01*
X1099Y6545D01*
X1099Y6546D01*
X1098Y6547D01*
X1096Y6548D01*
X1095Y6550D01*
X1093Y6551D01*
X1092Y6553D01*
X1093Y6555D01*
X1091Y6557D01*
X1090Y6557D01*
X1089Y6558D01*
X1088Y6560D01*
X1086Y6561D01*
X1085Y6563D01*
X1083Y6565D01*
X1082Y6566D01*
X1079Y6568D01*
Y6569D01*
X1078Y6570D01*
X1077Y6571D01*
X1076Y6573D01*
X1076Y6575D01*
X1075Y6576D01*
X1074Y6577D01*
X1066Y6585D01*
X1067Y6588D01*
X1069Y6593D01*
X1069Y6596D01*
X1070Y6601D01*
X1072Y6604D01*
X1073Y6611D01*
X1074Y6614D01*
X1075Y6617D01*
X1075Y6621D01*
X1076Y6629D01*
X1076Y6654D01*
X1076Y6656D01*
X1075Y6668D01*
X1074Y6670D01*
X1073Y6675D01*
X1072Y6681D01*
X1070Y6687D01*
X1069Y6690D01*
X1068Y6694D01*
X1066Y6698D01*
X1065Y6702D01*
X1061Y6710D01*
X1059Y6714D01*
X1054Y6723D01*
X1051Y6729D01*
X1049Y6731D01*
X1046Y6737D01*
X1042Y6742D01*
X1042Y6743D01*
X1040Y6745D01*
X1039Y6747D01*
X1034Y6753D01*
X1027Y6762D01*
X1026Y6763D01*
X1024Y6767D01*
X1020Y6770D01*
X1019Y6772D01*
X1015Y6776D01*
X1015Y6777D01*
X1012Y6780D01*
X1011Y6781D01*
X1010Y6782D01*
X1008Y6784D01*
X1005Y6788D01*
X1004Y6789D01*
X994Y6799D01*
X994Y6800D01*
X986Y6808D01*
X985Y6809D01*
X984Y6810D01*
X983Y6811D01*
X981Y6813D01*
X978Y6816D01*
X978Y6818D01*
X975Y6821D01*
X974Y6821D01*
X973Y6822D01*
X966Y6829D01*
X965Y6831D01*
X963Y6833D01*
X962Y6834D01*
X961Y6835D01*
X952Y6844D01*
X952Y6845D01*
X950Y6846D01*
X949Y6847D01*
X950Y6849D01*
X951Y6850D01*
X952Y6851D01*
X954Y6853D01*
X955Y6853D01*
X956Y6854D01*
X957Y6859D01*
X959Y6861D01*
X960Y6862D01*
X961Y6863D01*
X962Y6864D01*
X963Y6866D01*
X965Y6867D01*
X966Y6868D01*
X967Y6872D01*
X969Y6874D01*
X970Y6876D01*
X972Y6877D01*
X973Y6878D01*
X973Y6879D01*
X975Y6880D01*
X976Y6882D01*
X977Y6886D01*
X979Y6887D01*
X980Y6889D01*
X982Y6890D01*
X983Y6891D01*
X983Y6892D01*
X984Y6893D01*
X986Y6894D01*
X987Y6899D01*
X989Y6901D01*
X990Y6902D01*
X992Y6903D01*
X994Y6899D01*
D02*
G37*
G36*
X7351Y6917D02*
X7352Y6916D01*
X7354Y6912D01*
X7354Y6799D01*
X7354Y6790D01*
X7351Y6787D01*
X7347Y6786D01*
X7343Y6785D01*
X7340Y6785D01*
X7335Y6783D01*
X7332Y6783D01*
X7328Y6782D01*
X7311Y6780D01*
X7309Y6780D01*
X7305Y6779D01*
X7301Y6778D01*
X7298Y6778D01*
X7295Y6777D01*
X7292Y6776D01*
X7284Y6775D01*
X7278Y6775D01*
X7269Y6774D01*
X7263Y6773D01*
X7258Y6771D01*
X7255Y6771D01*
X7249Y6770D01*
X7245Y6769D01*
X7235Y6768D01*
X7232Y6768D01*
X7225Y6767D01*
X7221Y6766D01*
X7218Y6765D01*
X7212Y6764D01*
X7210Y6763D01*
X7201Y6763D01*
X7193Y6762D01*
X7189Y6761D01*
X7186Y6761D01*
X7181Y6759D01*
X7174Y6758D01*
X7165Y6757D01*
X7161Y6756D01*
X7152Y6755D01*
X7146Y6754D01*
X7141Y6753D01*
X7133Y6752D01*
X7128Y6751D01*
X7121Y6750D01*
X7116Y6750D01*
X7112Y6749D01*
X7109Y6748D01*
X7101Y6747D01*
X7097Y6746D01*
X7090Y6745D01*
X7084Y6744D01*
X7075Y6743D01*
X7069Y6742D01*
X7066Y6742D01*
X7062Y6741D01*
X7059Y6740D01*
X7051Y6739D01*
X7040Y6738D01*
X7038Y6737D01*
X7030Y6736D01*
X7027Y6735D01*
X7024Y6735D01*
X7018Y6734D01*
X7015Y6733D01*
X7007Y6732D01*
X6998Y6731D01*
X6995Y6731D01*
X6992Y6730D01*
X6989Y6729D01*
X6984Y6728D01*
X6980Y6728D01*
X6975Y6727D01*
X6968Y6726D01*
X6962Y6726D01*
X6958Y6725D01*
X6952Y6724D01*
X6949Y6723D01*
X6942Y6722D01*
X6937Y6721D01*
X6931Y6720D01*
X6923Y6720D01*
X6920Y6719D01*
X6916Y6718D01*
X6912Y6717D01*
X6909Y6717D01*
X6907Y6716D01*
X6897Y6715D01*
X6890Y6714D01*
X6882Y6713D01*
X6878Y6712D01*
X6872Y6711D01*
X6868Y6710D01*
X6862Y6707D01*
X6861Y6705D01*
X6864Y6704D01*
X6867Y6704D01*
X6872Y6703D01*
X6879Y6702D01*
X6888Y6702D01*
X6893Y6701D01*
X6899Y6700D01*
X6904Y6698D01*
X6907Y6698D01*
X6911Y6697D01*
X6921Y6696D01*
X6925Y6696D01*
X6934Y6695D01*
X6937Y6694D01*
X6939Y6693D01*
X6943Y6693D01*
X6945Y6692D01*
X6953Y6691D01*
X6958Y6690D01*
X6966Y6690D01*
X6971Y6689D01*
X6975Y6688D01*
X6978Y6688D01*
X6983Y6686D01*
X6986Y6686D01*
X6995Y6685D01*
X7009Y6683D01*
X7016Y6682D01*
X7021Y6681D01*
X7024Y6680D01*
X7030Y6679D01*
X7032Y6679D01*
X7043Y6678D01*
X7046Y6677D01*
X7054Y6676D01*
X7057Y6676D01*
X7062Y6674D01*
X7066Y6674D01*
X7073Y6673D01*
X7080Y6672D01*
X7086Y6671D01*
X7091Y6671D01*
X7095Y6670D01*
X7099Y6669D01*
X7103Y6668D01*
X7107Y6667D01*
X7110Y6667D01*
X7115Y6666D01*
X7123Y6666D01*
X7129Y6665D01*
X7136Y6664D01*
X7144Y6662D01*
X7152Y6660D01*
X7161Y6660D01*
X7174Y6658D01*
X7179Y6657D01*
X7182Y6656D01*
X7186Y6655D01*
X7189Y6655D01*
X7197Y6654D01*
X7203Y6653D01*
X7212Y6652D01*
X7216Y6652D01*
X7221Y6650D01*
X7224Y6650D01*
X7231Y6648D01*
X7236Y6648D01*
X7243Y6647D01*
X7249Y6647D01*
X7253Y6646D01*
X7259Y6645D01*
X7264Y6643D01*
X7271Y6642D01*
X7273Y6642D01*
X7282Y6641D01*
X7295Y6640D01*
X7302Y6638D01*
X7305Y6637D01*
X7309Y6636D01*
X7325Y6635D01*
X7329Y6634D01*
X7337Y6633D01*
X7341Y6632D01*
X7346Y6631D01*
X7348Y6630D01*
X7351Y6629D01*
X7353Y6629D01*
X7354Y6626D01*
X7354Y6619D01*
X7354Y6505D01*
X7353Y6502D01*
X7352Y6501D01*
X7351Y6500D01*
X7349Y6499D01*
X7347Y6500D01*
X7344Y6500D01*
X7332Y6502D01*
X7324Y6503D01*
X7321Y6504D01*
X7317Y6505D01*
X7315Y6506D01*
X7311Y6506D01*
X7308Y6507D01*
X7304Y6508D01*
X7296Y6508D01*
X7293Y6509D01*
X7289Y6509D01*
X7286Y6510D01*
X7283Y6511D01*
X7278Y6512D01*
X7274Y6513D01*
X7266Y6514D01*
X7257Y6515D01*
X7249Y6517D01*
X7246Y6518D01*
X7238Y6519D01*
X7229Y6520D01*
X7226Y6521D01*
X7222Y6521D01*
X7216Y6523D01*
X7213Y6524D01*
X7210Y6524D01*
X7203Y6526D01*
X7197Y6526D01*
X7192Y6527D01*
X7188Y6528D01*
X7188Y6528D01*
X7187D01*
X7182Y6529D01*
X7179Y6530D01*
X7176Y6531D01*
X7172Y6531D01*
X7162Y6532D01*
X7160Y6533D01*
X7155Y6534D01*
X7150Y6535D01*
X7147Y6536D01*
X7144Y6536D01*
X7140Y6537D01*
X7134Y6538D01*
X7123Y6539D01*
X7118Y6540D01*
X7114Y6541D01*
X7112Y6542D01*
X7105Y6543D01*
X7097Y6544D01*
X7088Y6546D01*
X7083Y6547D01*
X7079Y6548D01*
X7077Y6548D01*
X7072Y6549D01*
X7069Y6550D01*
X7061Y6551D01*
X7053Y6552D01*
X7051Y6553D01*
X7047Y6553D01*
X7042Y6555D01*
X7036Y6556D01*
X7034Y6556D01*
X7025Y6557D01*
X7021Y6558D01*
X7016Y6559D01*
X7012Y6560D01*
X7010Y6560D01*
X7003Y6562D01*
X6993Y6563D01*
X6990Y6563D01*
X6986Y6564D01*
X6984Y6565D01*
X6980Y6565D01*
X6975Y6567D01*
X6970Y6568D01*
X6967Y6568D01*
X6959Y6569D01*
X6951Y6570D01*
X6948Y6571D01*
X6943Y6572D01*
X6938Y6573D01*
X6935Y6574D01*
X6929Y6575D01*
X6921Y6576D01*
X6916Y6577D01*
X6913Y6578D01*
X6908Y6579D01*
X6901Y6580D01*
X6891Y6581D01*
X6889Y6582D01*
X6884Y6582D01*
X6880Y6584D01*
X6876Y6585D01*
X6873Y6585D01*
X6863Y6587D01*
X6857Y6587D01*
X6849Y6589D01*
X6846Y6590D01*
X6838Y6591D01*
X6834Y6592D01*
X6829Y6593D01*
X6822Y6593D01*
X6819Y6594D01*
X6814Y6595D01*
X6809Y6597D01*
X6806Y6597D01*
X6803Y6598D01*
X6798Y6598D01*
X6789Y6599D01*
X6787Y6600D01*
X6782Y6601D01*
X6779Y6602D01*
X6771Y6603D01*
X6767Y6604D01*
X6759Y6605D01*
X6751Y6606D01*
X6745Y6608D01*
X6742Y6609D01*
X6739Y6609D01*
X6736Y6610D01*
X6729Y6611D01*
X6725Y6611D01*
X6718Y6612D01*
X6711Y6614D01*
X6707Y6615D01*
X6705Y6616D01*
X6694Y6617D01*
X6688Y6618D01*
X6683Y6618D01*
X6678Y6620D01*
X6675Y6621D01*
X6671Y6622D01*
X6669Y6622D01*
X6661Y6623D01*
X6659Y6623D01*
X6650Y6624D01*
X6646Y6626D01*
X6643Y6630D01*
X6643Y6633D01*
X6643Y6776D01*
X6643Y6781D01*
X6643Y6785D01*
X6644Y6788D01*
X6645Y6790D01*
X6647Y6791D01*
X6649Y6792D01*
X6651Y6792D01*
X6656Y6793D01*
X6668Y6794D01*
X6673Y6796D01*
X6677Y6797D01*
X6679Y6797D01*
X6682Y6798D01*
X6685Y6799D01*
X6692Y6799D01*
X6699Y6800D01*
X6703Y6801D01*
X6706Y6801D01*
X6709Y6802D01*
X6714Y6804D01*
X6720Y6805D01*
X6731Y6806D01*
X6733Y6806D01*
X6738Y6807D01*
X6740Y6808D01*
X6744Y6809D01*
X6746Y6809D01*
X6751Y6810D01*
X6752Y6811D01*
X6761Y6811D01*
X6764Y6812D01*
X6770Y6813D01*
X6775Y6814D01*
X6779Y6815D01*
X6784Y6816D01*
X6788Y6817D01*
X6793Y6817D01*
X6798Y6818D01*
X6803Y6819D01*
X6807Y6820D01*
X6811Y6821D01*
X6819Y6823D01*
X6822Y6823D01*
X6829Y6824D01*
X6834Y6824D01*
X6838Y6825D01*
X6851Y6828D01*
X6854Y6829D01*
X6863Y6830D01*
X6867Y6830D01*
X6875Y6832D01*
X6878Y6833D01*
X6886Y6835D01*
X6889Y6835D01*
X6895Y6836D01*
X6902Y6836D01*
X6905Y6837D01*
X6913Y6839D01*
X6916Y6840D01*
X6919Y6841D01*
X6921Y6841D01*
X6930Y6842D01*
X6932Y6843D01*
X6939Y6843D01*
X6946Y6845D01*
X6950Y6846D01*
X6952Y6847D01*
X6956Y6847D01*
X6966Y6848D01*
X6969Y6849D01*
X6973Y6849D01*
X6978Y6851D01*
X6982Y6852D01*
X6984Y6852D01*
X6990Y6853D01*
X6992Y6854D01*
X7001Y6855D01*
X7008Y6856D01*
X7011Y6856D01*
X7014Y6857D01*
X7019Y6859D01*
X7030Y6860D01*
X7036Y6861D01*
X7040Y6862D01*
X7043Y6862D01*
X7047Y6863D01*
X7054Y6865D01*
X7058Y6866D01*
X7068Y6867D01*
X7071Y6867D01*
X7075Y6868D01*
X7078Y6868D01*
X7081Y6869D01*
X7086Y6871D01*
X7096Y6872D01*
X7103Y6873D01*
X7110Y6874D01*
X7114Y6875D01*
X7121Y6877D01*
X7124Y6878D01*
X7130Y6878D01*
X7136Y6879D01*
X7142Y6880D01*
X7147Y6881D01*
X7149Y6882D01*
X7153Y6883D01*
X7160Y6884D01*
X7170Y6885D01*
X7173Y6886D01*
X7177Y6886D01*
X7181Y6887D01*
X7188Y6889D01*
X7192Y6890D01*
X7200Y6891D01*
X7209Y6892D01*
X7214Y6893D01*
X7217Y6894D01*
X7220Y6895D01*
X7223Y6895D01*
X7227Y6896D01*
X7237Y6897D01*
X7239Y6898D01*
X7244Y6898D01*
X7246Y6899D01*
X7250Y6900D01*
X7255Y6901D01*
X7258Y6902D01*
X7265Y6903D01*
X7276Y6904D01*
X7281Y6905D01*
X7285Y6906D01*
X7287Y6907D01*
X7290Y6907D01*
X7302Y6909D01*
X7311Y6910D01*
X7313Y6911D01*
X7317Y6912D01*
X7322Y6913D01*
X7325Y6914D01*
X7329Y6914D01*
X7335Y6915D01*
X7341Y6916D01*
X7345Y6917D01*
X7347Y6917D01*
X7351Y6917D01*
D02*
G37*
G36*
X5908Y6490D02*
X5910Y6489D01*
X5911Y6339D01*
Y6339D01*
Y6298D01*
X5912Y6295D01*
X5914Y6294D01*
X6098Y6294D01*
X6106Y6294D01*
X6110Y6295D01*
X6112Y6297D01*
X6113Y6302D01*
X6112Y6304D01*
X6112Y6434D01*
X6112Y6443D01*
X6113Y6447D01*
X6115Y6449D01*
X6210Y6450D01*
X6215Y6451D01*
X6219Y6449D01*
X6221Y6447D01*
X6222Y6299D01*
X6222Y6296D01*
X6224Y6295D01*
X6397Y6294D01*
X6400Y6295D01*
X6401Y6296D01*
X6402Y6471D01*
X6401Y6479D01*
X6403Y6482D01*
X6404Y6483D01*
X6505Y6484D01*
X6510Y6482D01*
X6511Y6480D01*
X6511Y6473D01*
X6511Y6171D01*
X6510Y6167D01*
X6508Y6165D01*
X5815Y6164D01*
X5806Y6164D01*
X5804Y6164D01*
X5802Y6167D01*
X5801Y6486D01*
X5802Y6488D01*
X5803Y6490D01*
X5806Y6491D01*
X5902Y6490D01*
X5904Y6491D01*
X5908Y6490D01*
D02*
G37*
G36*
X976Y6754D02*
X976Y6753D01*
X977Y6753D01*
X978Y6752D01*
X979Y6747D01*
X980Y6746D01*
X982Y6746D01*
X985Y6742D01*
X991Y6736D01*
X992Y6736D01*
X992Y6734D01*
X997Y6729D01*
X999Y6729D01*
X999Y6724D01*
X1000Y6723D01*
X1002Y6722D01*
X1003Y6720D01*
X1005Y6718D01*
X1006Y6717D01*
X1010Y6713D01*
X1011Y6712D01*
X1013Y6710D01*
X1015Y6709D01*
X1016Y6706D01*
X1012Y6702D01*
X1009Y6698D01*
X1002Y6690D01*
X1001Y6689D01*
X992Y6680D01*
X992Y6679D01*
X988Y6675D01*
X987Y6674D01*
X985Y6672D01*
X983Y6670D01*
X980Y6667D01*
X980Y6665D01*
X976Y6661D01*
X975Y6660D01*
X974Y6659D01*
X973Y6659D01*
X972Y6657D01*
X971Y6656D01*
X970Y6654D01*
X966Y6650D01*
X964Y6647D01*
X962Y6645D01*
X961Y6643D01*
X958Y6640D01*
X956Y6637D01*
X955Y6636D01*
X954Y6634D01*
X953Y6633D01*
X952Y6631D01*
X951Y6630D01*
X950Y6629D01*
X946Y6624D01*
X942Y6617D01*
X941Y6615D01*
X939Y6613D01*
X937Y6610D01*
X935Y6609D01*
X935Y6607D01*
X933Y6606D01*
X931Y6601D01*
X930Y6601D01*
X929Y6599D01*
X925Y6593D01*
X922Y6590D01*
X921Y6588D01*
X917Y6582D01*
X916Y6578D01*
X914Y6577D01*
X910Y6568D01*
X909Y6567D01*
X907Y6562D01*
X905Y6557D01*
X904Y6556D01*
X902Y6551D01*
X901Y6547D01*
X899Y6543D01*
X899Y6540D01*
X897Y6537D01*
X896Y6532D01*
X895Y6527D01*
X894Y6524D01*
X893Y6519D01*
X892Y6509D01*
X892Y6494D01*
X892Y6475D01*
X893Y6473D01*
X894Y6467D01*
X894Y6465D01*
X895Y6459D01*
X897Y6450D01*
X899Y6447D01*
X901Y6443D01*
X901Y6442D01*
X899Y6440D01*
X898Y6437D01*
X897Y6437D01*
X895Y6435D01*
X895Y6434D01*
X893Y6433D01*
X889Y6429D01*
X888Y6424D01*
X867Y6403D01*
X866Y6403D01*
X864Y6397D01*
X862Y6395D01*
X861Y6394D01*
X860Y6393D01*
X854Y6387D01*
X851Y6387D01*
X849Y6390D01*
X846Y6395D01*
X845Y6399D01*
X844Y6402D01*
X842Y6405D01*
X839Y6414D01*
X837Y6419D01*
X836Y6422D01*
X833Y6433D01*
X831Y6437D01*
X830Y6442D01*
X829Y6445D01*
X828Y6452D01*
X828Y6454D01*
X827Y6460D01*
X826Y6466D01*
X825Y6475D01*
X825Y6498D01*
X824Y6501D01*
X825Y6503D01*
X826Y6522D01*
X827Y6529D01*
X827Y6532D01*
X828Y6536D01*
X829Y6539D01*
X829Y6544D01*
X830Y6547D01*
X832Y6553D01*
X833Y6557D01*
X834Y6560D01*
X835Y6565D01*
X836Y6568D01*
X838Y6572D01*
X843Y6586D01*
X845Y6590D01*
X858Y6614D01*
X859Y6615D01*
X863Y6623D01*
X864Y6624D01*
X868Y6631D01*
X873Y6638D01*
X874Y6640D01*
X875Y6641D01*
X878Y6647D01*
X883Y6654D01*
X885Y6657D01*
X886Y6658D01*
X887Y6661D01*
X889Y6663D01*
X890Y6665D01*
X892Y6667D01*
X894Y6670D01*
X896Y6672D01*
X896Y6673D01*
X899Y6675D01*
X899Y6677D01*
X903Y6680D01*
X903Y6681D01*
X905Y6684D01*
X906Y6685D01*
X909Y6688D01*
X910Y6689D01*
X913Y6693D01*
X913Y6694D01*
X914Y6694D01*
X915Y6695D01*
X918Y6699D01*
X922Y6703D01*
X924Y6706D01*
X929Y6711D01*
X930Y6713D01*
X935Y6718D01*
X936Y6720D01*
X937Y6721D01*
X938Y6721D01*
X940Y6724D01*
X942Y6726D01*
X943Y6727D01*
X949Y6734D01*
X950Y6735D01*
X956Y6741D01*
X957Y6743D01*
X960Y6746D01*
X961Y6746D01*
X965Y6751D01*
X966Y6752D01*
X966Y6753D01*
X968Y6753D01*
X969Y6755D01*
X970Y6756D01*
X973Y6757D01*
X976Y6754D01*
D02*
G37*
G36*
X7351Y6396D02*
X7352Y6395D01*
X7353Y6270D01*
X7352Y6270D01*
X6647Y6269D01*
X6644Y6270D01*
X6644Y6393D01*
X6644Y6395D01*
X6645Y6396D01*
X6955Y6397D01*
X7347D01*
X7351Y6396D01*
D02*
G37*
G36*
X989Y6609D02*
X990Y6608D01*
X991Y6606D01*
X996Y6602D01*
X996Y6601D01*
X997Y6600D01*
X999Y6599D01*
X999Y6597D01*
X1009Y6588D01*
X1009Y6587D01*
X1011Y6586D01*
X1012Y6585D01*
X1012Y6584D01*
X1013Y6582D01*
X1015Y6582D01*
X1017Y6579D01*
X1021Y6574D01*
X1022Y6573D01*
X1031Y6564D01*
X1032Y6563D01*
X1034Y6561D01*
X1036Y6558D01*
X1043Y6552D01*
X1044Y6550D01*
X1049Y6545D01*
X1050Y6543D01*
X1051Y6543D01*
X1052Y6541D01*
X1058Y6536D01*
X1058Y6534D01*
X1065Y6528D01*
X1066Y6525D01*
X1068Y6524D01*
X1069Y6522D01*
X1071Y6520D01*
X1072Y6518D01*
X1075Y6514D01*
X1076Y6513D01*
X1077Y6512D01*
X1081Y6508D01*
X1081Y6507D01*
X1083Y6506D01*
X1083Y6504D01*
X1085Y6502D01*
X1086Y6501D01*
X1088Y6499D01*
X1090Y6495D01*
X1092Y6493D01*
X1093Y6492D01*
X1099Y6483D01*
X1100Y6481D01*
X1101Y6480D01*
X1102Y6478D01*
X1102Y6478D01*
X1105Y6475D01*
X1113Y6461D01*
X1115Y6457D01*
X1123Y6441D01*
X1126Y6435D01*
X1127Y6430D01*
X1129Y6427D01*
X1132Y6420D01*
X1133Y6415D01*
X1135Y6411D01*
X1135Y6408D01*
X1136Y6403D01*
X1137Y6400D01*
X1138Y6397D01*
X1139Y6392D01*
X1140Y6388D01*
X1141Y6385D01*
X1141Y6381D01*
X1142Y6375D01*
X1143Y6368D01*
X1143Y6355D01*
X1144Y6334D01*
X1143Y6332D01*
X1142Y6317D01*
X1141Y6311D01*
X1140Y6305D01*
X1138Y6293D01*
X1136Y6287D01*
X1135Y6284D01*
X1133Y6277D01*
X1132Y6272D01*
X1131Y6270D01*
X1129Y6266D01*
X1128Y6263D01*
X1123Y6251D01*
X1116Y6237D01*
X1114Y6237D01*
X1110Y6241D01*
X1109Y6242D01*
X1107Y6244D01*
X1102Y6249D01*
X1102Y6250D01*
X1100Y6250D01*
X1099Y6251D01*
X1099Y6252D01*
X1098Y6253D01*
X1076Y6275D01*
X1075Y6276D01*
X1074Y6277D01*
X1073Y6278D01*
X1072Y6283D01*
X1070Y6284D01*
X1067Y6287D01*
X1066Y6288D01*
X1067Y6292D01*
X1069Y6297D01*
X1070Y6303D01*
X1072Y6307D01*
X1073Y6310D01*
X1073Y6316D01*
X1074Y6319D01*
X1075Y6325D01*
X1076Y6334D01*
X1076Y6357D01*
X1076Y6359D01*
X1075Y6370D01*
X1074Y6372D01*
X1071Y6387D01*
X1069Y6392D01*
X1069Y6395D01*
X1067Y6400D01*
X1066Y6403D01*
X1062Y6411D01*
X1053Y6428D01*
X1051Y6433D01*
X1049Y6434D01*
X1049Y6437D01*
X1047Y6438D01*
X1046Y6440D01*
X1045Y6441D01*
X1042Y6446D01*
X1040Y6448D01*
X1040Y6449D01*
X1038Y6453D01*
X1037Y6453D01*
X1036Y6454D01*
X1033Y6458D01*
X1027Y6465D01*
X1026Y6467D01*
X1024Y6470D01*
X1022Y6472D01*
X1022Y6473D01*
X1020Y6473D01*
X1019Y6474D01*
X1019Y6476D01*
X1016Y6479D01*
X1015Y6480D01*
X1012Y6483D01*
X1011Y6485D01*
X1008Y6488D01*
X1007Y6490D01*
X1001Y6495D01*
X1001Y6496D01*
X1000Y6497D01*
X999Y6498D01*
X993Y6504D01*
X992Y6506D01*
X991Y6507D01*
X990Y6508D01*
X989Y6509D01*
X976Y6522D01*
X975Y6523D01*
X974Y6524D01*
X973Y6525D01*
X972Y6527D01*
X967Y6532D01*
X966Y6533D01*
X963Y6535D01*
X962Y6536D01*
X962Y6538D01*
X955Y6544D01*
X955Y6545D01*
X949Y6551D01*
X950Y6552D01*
X951Y6553D01*
X952Y6554D01*
X953Y6559D01*
X956Y6561D01*
X957Y6562D01*
X958Y6563D01*
X960Y6565D01*
X959Y6568D01*
X960Y6569D01*
X961Y6570D01*
X965Y6573D01*
X966Y6574D01*
X967Y6579D01*
X971Y6583D01*
X972Y6584D01*
X974Y6589D01*
X976Y6590D01*
X976Y6592D01*
X977Y6593D01*
X979Y6594D01*
X980Y6595D01*
X979Y6597D01*
X980Y6599D01*
X981Y6600D01*
X982Y6601D01*
X984Y6603D01*
X986Y6604D01*
X986Y6608D01*
X986Y6610D01*
X989Y6609D01*
D02*
G37*
G36*
X975Y6462D02*
X976Y6460D01*
X975Y6458D01*
X976Y6457D01*
X977Y6456D01*
X979Y6454D01*
X980Y6453D01*
X982Y6452D01*
X983Y6450D01*
X985Y6448D01*
X986Y6446D01*
X988Y6446D01*
X989Y6445D01*
X990Y6440D01*
X992Y6438D01*
X1002Y6428D01*
X1002Y6423D01*
X1005Y6422D01*
X1006Y6420D01*
X1014Y6412D01*
X1015Y6412D01*
X1015Y6407D01*
X1011Y6404D01*
X1010Y6402D01*
X1009Y6401D01*
X1008Y6400D01*
X1006Y6399D01*
X1005Y6397D01*
X996Y6388D01*
X996Y6387D01*
X990Y6381D01*
X990Y6380D01*
X985Y6376D01*
X985Y6374D01*
X983Y6373D01*
X982Y6372D01*
X979Y6368D01*
X976Y6366D01*
X976Y6365D01*
X974Y6362D01*
X973Y6362D01*
X972Y6361D01*
X969Y6358D01*
X969Y6356D01*
X966Y6354D01*
X965Y6352D01*
X962Y6349D01*
X961Y6347D01*
X959Y6345D01*
X957Y6342D01*
X953Y6337D01*
X943Y6323D01*
X941Y6320D01*
X936Y6313D01*
X933Y6309D01*
X933Y6308D01*
X931Y6306D01*
X930Y6305D01*
X926Y6298D01*
X924Y6295D01*
X921Y6292D01*
X921Y6290D01*
X919Y6289D01*
X917Y6285D01*
X910Y6273D01*
X905Y6263D01*
X904Y6258D01*
X903Y6257D01*
X902Y6253D01*
X900Y6248D01*
X896Y6238D01*
X895Y6233D01*
X894Y6226D01*
X893Y6223D01*
X892Y6213D01*
X892Y6200D01*
X892Y6179D01*
X893Y6176D01*
X894Y6171D01*
X895Y6164D01*
X897Y6156D01*
X898Y6155D01*
X899Y6152D01*
X898Y6151D01*
X887Y6140D01*
X886Y6139D01*
X885Y6134D01*
X884Y6133D01*
X883Y6133D01*
X882Y6131D01*
X880Y6130D01*
X879Y6129D01*
X878Y6128D01*
X877Y6126D01*
X876Y6126D01*
X875Y6124D01*
X874Y6123D01*
X872Y6123D01*
X871Y6117D01*
X870Y6116D01*
X869Y6116D01*
X867Y6113D01*
X865Y6112D01*
X864Y6110D01*
X862Y6109D01*
X861Y6107D01*
X859Y6106D01*
X858Y6103D01*
X855Y6102D01*
X855Y6100D01*
X855Y6099D01*
X854Y6097D01*
X853Y6096D01*
X851Y6094D01*
X850Y6093D01*
X848Y6094D01*
X848Y6097D01*
X846Y6099D01*
X844Y6105D01*
X842Y6109D01*
X839Y6115D01*
X838Y6120D01*
X836Y6124D01*
X835Y6129D01*
X834Y6130D01*
X833Y6135D01*
X830Y6144D01*
X830Y6147D01*
X829Y6152D01*
X828Y6155D01*
X827Y6160D01*
X826Y6170D01*
X825Y6182D01*
X825Y6194D01*
X824Y6201D01*
X825Y6204D01*
X826Y6225D01*
X826Y6227D01*
X827Y6236D01*
X828Y6238D01*
X829Y6243D01*
X830Y6251D01*
X833Y6259D01*
X833Y6263D01*
X835Y6267D01*
X838Y6275D01*
X839Y6279D01*
X839Y6281D01*
X840Y6283D01*
X843Y6289D01*
X844Y6291D01*
X854Y6311D01*
X858Y6317D01*
X859Y6319D01*
X860Y6322D01*
X861Y6323D01*
X867Y6333D01*
X869Y6335D01*
X870Y6338D01*
X871Y6340D01*
X874Y6343D01*
X875Y6345D01*
X877Y6348D01*
X880Y6353D01*
X883Y6357D01*
X883Y6358D01*
X885Y6360D01*
X887Y6365D01*
X889Y6366D01*
X891Y6370D01*
X894Y6372D01*
X894Y6374D01*
X896Y6375D01*
X896Y6376D01*
X899Y6379D01*
X900Y6381D01*
X901Y6382D01*
X902Y6383D01*
X905Y6387D01*
X906Y6388D01*
X907Y6390D01*
X908Y6391D01*
X909Y6391D01*
X910Y6392D01*
X910Y6394D01*
X914Y6397D01*
X914Y6399D01*
X919Y6403D01*
X919Y6404D01*
X924Y6409D01*
X925Y6411D01*
X929Y6415D01*
X930Y6416D01*
X935Y6422D01*
X936Y6423D01*
X939Y6426D01*
X939Y6427D01*
X943Y6431D01*
X944Y6432D01*
X946Y6433D01*
X946Y6435D01*
X952Y6440D01*
X953Y6442D01*
X954Y6443D01*
X955Y6444D01*
X957Y6446D01*
X961Y6450D01*
X962Y6450D01*
X964Y6453D01*
X969Y6458D01*
X969Y6459D01*
X972Y6462D01*
X975Y6462D01*
D02*
G37*
G36*
X5908Y6071D02*
X5910Y6069D01*
X5911Y5909D01*
X5912Y5904D01*
X5913Y5904D01*
X5915Y5903D01*
X6063Y5903D01*
X6506D01*
X6509Y5902D01*
X6511Y5899D01*
X6511Y5785D01*
X6511Y5778D01*
X6508Y5776D01*
X5813Y5775D01*
X5806Y5774D01*
X5804Y5775D01*
X5802Y5778D01*
X5801Y6067D01*
X5802Y6070D01*
X5805Y6071D01*
X5901Y6071D01*
X5904Y6071D01*
X5908Y6071D01*
D02*
G37*
G36*
X1258Y8713D02*
Y7263D01*
Y7262D01*
X1258Y6050D01*
X1190Y6050D01*
X1191Y8714D01*
X1258Y8713D01*
D02*
G37*
G36*
X992Y6310D02*
X992Y6309D01*
X996Y6306D01*
X996Y6304D01*
X1002Y6299D01*
X1003Y6297D01*
X1006Y6294D01*
X1007Y6292D01*
X1010Y6289D01*
X1011Y6289D01*
X1013Y6286D01*
X1025Y6274D01*
X1026Y6273D01*
X1038Y6260D01*
X1039Y6259D01*
X1042Y6256D01*
X1043Y6254D01*
X1045Y6252D01*
X1046Y6251D01*
X1047Y6250D01*
X1052Y6245D01*
X1053Y6244D01*
X1055Y6242D01*
X1057Y6240D01*
X1059Y6238D01*
X1060Y6236D01*
X1065Y6231D01*
X1065Y6230D01*
X1069Y6226D01*
X1069Y6225D01*
X1073Y6222D01*
X1074Y6220D01*
X1076Y6218D01*
X1076Y6217D01*
X1079Y6214D01*
X1080Y6213D01*
X1083Y6210D01*
X1083Y6208D01*
X1085Y6207D01*
X1085Y6206D01*
X1088Y6203D01*
X1091Y6198D01*
X1092Y6197D01*
X1093Y6195D01*
X1096Y6190D01*
X1097Y6189D01*
X1099Y6187D01*
X1101Y6183D01*
X1103Y6182D01*
X1107Y6174D01*
X1108Y6173D01*
X1112Y6167D01*
X1115Y6162D01*
X1126Y6139D01*
X1126Y6136D01*
X1128Y6135D01*
X1128Y6132D01*
X1131Y6127D01*
X1131Y6124D01*
X1133Y6119D01*
X1134Y6116D01*
X1135Y6110D01*
X1138Y6101D01*
X1139Y6095D01*
X1140Y6091D01*
X1141Y6089D01*
X1141Y6084D01*
X1142Y6078D01*
X1143Y6068D01*
X1143Y6059D01*
X1144Y6050D01*
X1093Y6050D01*
X1092D01*
X1076Y6050D01*
X1076Y6070D01*
X1075Y6072D01*
X1074Y6077D01*
X1074Y6079D01*
X1073Y6085D01*
X1072Y6087D01*
X1071Y6090D01*
X1069Y6097D01*
X1069Y6099D01*
X1066Y6106D01*
X1065Y6108D01*
X1060Y6119D01*
X1059Y6122D01*
X1058Y6124D01*
X1054Y6131D01*
X1049Y6138D01*
X1047Y6142D01*
X1040Y6152D01*
X1034Y6161D01*
X1033Y6162D01*
X1032Y6163D01*
X1030Y6165D01*
X1028Y6169D01*
X1025Y6172D01*
X1024Y6173D01*
X1022Y6175D01*
X1021Y6176D01*
X1018Y6180D01*
X1017Y6181D01*
X1014Y6185D01*
X1013Y6185D01*
X1012Y6187D01*
X1009Y6190D01*
X1008Y6192D01*
X1005Y6195D01*
X1004Y6196D01*
X1003Y6197D01*
X1002Y6198D01*
X1001Y6199D01*
X992Y6208D01*
X992Y6209D01*
X991Y6210D01*
X989Y6212D01*
X988Y6213D01*
X983Y6218D01*
X983Y6219D01*
X974Y6229D01*
X973Y6230D01*
X970Y6232D01*
X969Y6234D01*
X963Y6240D01*
X962Y6241D01*
X961Y6243D01*
X959Y6243D01*
X956Y6248D01*
X952Y6251D01*
X952Y6252D01*
X950Y6253D01*
X949Y6254D01*
X950Y6256D01*
X951Y6257D01*
X952Y6257D01*
X953Y6259D01*
X954Y6259D01*
X956Y6261D01*
X957Y6266D01*
X958Y6266D01*
X960Y6268D01*
X960Y6269D01*
X961Y6270D01*
X962Y6271D01*
X963Y6275D01*
X968Y6280D01*
X969Y6280D01*
X970Y6285D01*
X971Y6287D01*
X972Y6287D01*
X973Y6288D01*
X974Y6289D01*
X975Y6290D01*
X976Y6291D01*
X977Y6296D01*
X978Y6296D01*
X979Y6297D01*
X980Y6299D01*
X981Y6300D01*
X982Y6300D01*
X984Y6303D01*
X985Y6303D01*
X986Y6304D01*
X987Y6309D01*
X991Y6311D01*
X992Y6310D01*
D02*
G37*
G36*
X972Y6162D02*
X973Y6159D01*
X975Y6159D01*
X975Y6155D01*
X976Y6153D01*
X977Y6152D01*
X989Y6141D01*
X989Y6136D01*
X991Y6136D01*
X994Y6132D01*
X995Y6132D01*
X996Y6131D01*
X1002Y6124D01*
X1003Y6120D01*
X1004Y6119D01*
X1005Y6119D01*
X1005Y6117D01*
X1007Y6116D01*
X1008Y6115D01*
X1009Y6114D01*
X1010Y6113D01*
X1011Y6112D01*
X1012Y6111D01*
X1012Y6108D01*
X1010Y6106D01*
X1009Y6105D01*
X1003Y6099D01*
X1002Y6097D01*
X995Y6090D01*
X994Y6089D01*
X988Y6083D01*
X987Y6081D01*
X980Y6074D01*
X980Y6073D01*
X978Y6072D01*
X978Y6070D01*
X976Y6069D01*
X975Y6067D01*
X972Y6065D01*
X971Y6063D01*
X969Y6060D01*
X968Y6059D01*
X965Y6056D01*
X965Y6055D01*
X962Y6052D01*
X961Y6050D01*
X876Y6050D01*
X878Y6053D01*
X879Y6055D01*
X882Y6060D01*
X888Y6068D01*
X889Y6069D01*
X889Y6071D01*
X896Y6080D01*
X898Y6081D01*
X899Y6083D01*
X901Y6085D01*
X902Y6087D01*
X904Y6089D01*
X905Y6090D01*
X907Y6093D01*
X909Y6095D01*
X910Y6097D01*
X913Y6100D01*
X914Y6101D01*
X919Y6106D01*
X920Y6109D01*
X922Y6110D01*
X924Y6113D01*
X926Y6115D01*
X926Y6116D01*
X927Y6117D01*
X927Y6117D01*
X929Y6119D01*
X930Y6120D01*
X936Y6126D01*
X937Y6129D01*
X938Y6130D01*
X940Y6131D01*
X941Y6132D01*
X942Y6133D01*
X945Y6137D01*
X953Y6144D01*
X953Y6146D01*
X955Y6147D01*
X956Y6149D01*
X957Y6150D01*
X958Y6150D01*
X959Y6151D01*
X965Y6158D01*
X966Y6159D01*
X970Y6163D01*
X972Y6162D01*
D02*
G37*
G36*
X778Y8713D02*
X777Y6050D01*
X710Y6050D01*
Y6487D01*
Y6488D01*
X711Y8714D01*
X778Y8713D01*
D02*
G37*
G36*
X7267Y6137D02*
X7272Y6137D01*
X7277Y6135D01*
X7284Y6132D01*
X7291Y6131D01*
X7294Y6130D01*
X7297Y6129D01*
X7301Y6126D01*
X7303Y6125D01*
X7306Y6124D01*
X7308Y6123D01*
X7309Y6122D01*
X7312Y6119D01*
X7313Y6119D01*
X7317Y6115D01*
X7323Y6111D01*
X7324Y6111D01*
X7327Y6106D01*
X7331Y6102D01*
X7334Y6096D01*
X7338Y6093D01*
X7339Y6089D01*
X7340Y6087D01*
X7341Y6084D01*
X7343Y6081D01*
X7344Y6078D01*
X7345Y6074D01*
X7346Y6072D01*
X7348Y6066D01*
X7349Y6061D01*
X7350Y6058D01*
X7351Y6048D01*
X7352Y6046D01*
X7352Y6039D01*
X7352Y6037D01*
X7352Y6024D01*
X7354Y6021D01*
X7354Y5793D01*
X7353Y5788D01*
X7350Y5786D01*
X7348Y5785D01*
X6662Y5786D01*
X6650Y5785D01*
X6645Y5786D01*
X6644Y5789D01*
X6643Y5899D01*
X6643Y5906D01*
X6643Y5910D01*
X6646Y5912D01*
X6665Y5913D01*
X6900D01*
X6904Y5914D01*
X6906Y5916D01*
X6907Y5925D01*
X6906Y5927D01*
X6906Y6009D01*
X6906Y6018D01*
X6907Y6020D01*
X6907Y6046D01*
X6908Y6054D01*
X6909Y6056D01*
X6910Y6060D01*
X6911Y6062D01*
X6912Y6066D01*
X6913Y6068D01*
X6914Y6074D01*
X6914Y6077D01*
X6915Y6080D01*
X6918Y6083D01*
X6919Y6087D01*
X6921Y6092D01*
X6922Y6093D01*
X6926Y6100D01*
X6927Y6101D01*
X6929Y6103D01*
X6932Y6107D01*
X6933Y6108D01*
X6934Y6110D01*
X6937Y6112D01*
X6939Y6113D01*
X6942Y6117D01*
X6947Y6119D01*
X6950Y6123D01*
X6952Y6124D01*
X6956Y6125D01*
X6959Y6126D01*
X6960Y6128D01*
X6964Y6130D01*
X6970Y6131D01*
X6973Y6132D01*
X6977Y6133D01*
X6984Y6136D01*
X6989Y6137D01*
X6991Y6137D01*
X7242Y6138D01*
X7267Y6137D01*
D02*
G37*
G36*
X6415Y5653D02*
X6419Y5652D01*
X6428Y5651D01*
X6437Y5650D01*
X6446Y5648D01*
X6449Y5646D01*
X6457Y5643D01*
X6459Y5642D01*
X6461Y5640D01*
X6465Y5639D01*
X6468Y5638D01*
X6469Y5637D01*
X6470Y5636D01*
X6471Y5635D01*
X6474Y5632D01*
X6476Y5631D01*
X6478Y5629D01*
X6480Y5628D01*
X6483Y5625D01*
X6484Y5623D01*
X6486Y5621D01*
X6489Y5617D01*
X6489Y5616D01*
X6491Y5614D01*
X6492Y5614D01*
X6496Y5606D01*
X6499Y5602D01*
X6500Y5599D01*
X6500Y5596D01*
X6501Y5593D01*
X6505Y5588D01*
X6506Y5583D01*
X6507Y5574D01*
X6508Y5568D01*
X6509Y5565D01*
X6510Y5559D01*
X6509Y5558D01*
X6510Y5556D01*
X6510Y5551D01*
X6511Y5549D01*
X6511Y5308D01*
X6510Y5304D01*
X6508Y5302D01*
X6187Y5301D01*
X5815D01*
X5806Y5301D01*
X5804Y5301D01*
X5802Y5304D01*
X5801Y5423D01*
X5802Y5427D01*
X5804Y5429D01*
X5808Y5429D01*
X5810Y5429D01*
X6049Y5429D01*
X6058Y5429D01*
X6062Y5430D01*
X6064Y5435D01*
X6064Y5547D01*
X6064Y5552D01*
X6064Y5554D01*
X6065Y5560D01*
X6066Y5565D01*
X6068Y5575D01*
X6070Y5586D01*
X6070Y5589D01*
X6074Y5596D01*
X6075Y5599D01*
X6077Y5604D01*
X6078Y5605D01*
X6080Y5609D01*
X6082Y5613D01*
X6083Y5614D01*
X6085Y5615D01*
X6088Y5621D01*
X6093Y5626D01*
X6095Y5627D01*
X6097Y5630D01*
X6101Y5633D01*
X6102Y5633D01*
X6106Y5637D01*
X6109Y5639D01*
X6115Y5641D01*
X6117Y5643D01*
X6121Y5645D01*
X6128Y5647D01*
X6132Y5649D01*
X6137Y5650D01*
X6145Y5651D01*
X6157Y5652D01*
X6159Y5653D01*
X6161Y5653D01*
X6412Y5654D01*
X6415Y5653D01*
D02*
G37*
G36*
X4114Y8414D02*
X4121Y8414D01*
X4132Y8411D01*
X4143Y8407D01*
X4152Y8403D01*
X4155Y8401D01*
X4159Y8398D01*
X4162Y8397D01*
X4164Y8395D01*
X4166Y8393D01*
X4167Y8392D01*
X4168Y8391D01*
X4168Y8391D01*
X4172Y8386D01*
X4177Y8382D01*
X4180Y8377D01*
X4183Y8372D01*
X4187Y8362D01*
X4190Y8353D01*
X4191Y8345D01*
X4192Y8342D01*
X4192Y8339D01*
X4193Y8336D01*
Y8333D01*
X4192Y8327D01*
X4192Y8321D01*
X4191Y8316D01*
X4190Y8312D01*
X4188Y8308D01*
X4187Y8305D01*
X4187Y8303D01*
X4186Y8303D01*
X4184Y8298D01*
X4181Y8293D01*
X4178Y8289D01*
X4175Y8285D01*
X4172Y8282D01*
X4170Y8279D01*
X4168Y8277D01*
X4167Y8277D01*
X4175Y8277D01*
X4181Y8278D01*
X4187Y8279D01*
X4193Y8280D01*
X4198Y8281D01*
X4202Y8282D01*
X4206Y8282D01*
X4209Y8283D01*
X4212Y8284D01*
X4214Y8285D01*
X4218Y8286D01*
X4220Y8287D01*
X4221Y8287D01*
X4227Y8291D01*
X4231Y8295D01*
X4234Y8300D01*
X4236Y8304D01*
X4237Y8308D01*
X4238Y8311D01*
X4238Y8313D01*
Y8314D01*
X4238Y8317D01*
X4237Y8320D01*
X4235Y8325D01*
X4233Y8327D01*
X4233Y8329D01*
X4232Y8329D01*
X4232Y8330D01*
X4229Y8332D01*
X4226Y8334D01*
X4219Y8337D01*
X4216Y8338D01*
X4214Y8339D01*
X4212Y8339D01*
X4211D01*
X4220Y8409D01*
X4227Y8406D01*
X4234Y8403D01*
X4239Y8401D01*
X4245Y8397D01*
X4248Y8395D01*
X4251Y8393D01*
X4253Y8391D01*
X4254Y8391D01*
X4258Y8386D01*
X4263Y8382D01*
X4266Y8377D01*
X4269Y8372D01*
X4271Y8368D01*
X4273Y8365D01*
X4274Y8363D01*
X4274Y8362D01*
X4276Y8355D01*
X4278Y8347D01*
X4280Y8339D01*
X4281Y8331D01*
X4281Y8325D01*
X4281Y8319D01*
Y8314D01*
X4281Y8305D01*
X4280Y8296D01*
X4279Y8288D01*
X4276Y8280D01*
X4274Y8273D01*
X4271Y8267D01*
X4269Y8261D01*
X4266Y8255D01*
X4263Y8251D01*
X4260Y8246D01*
X4257Y8243D01*
X4255Y8239D01*
X4252Y8237D01*
X4251Y8236D01*
X4250Y8235D01*
X4250Y8234D01*
X4243Y8229D01*
X4236Y8225D01*
X4228Y8221D01*
X4221Y8218D01*
X4212Y8215D01*
X4204Y8213D01*
X4188Y8209D01*
X4180Y8208D01*
X4172Y8207D01*
X4166Y8207D01*
X4160Y8206D01*
X4156Y8206D01*
X4153D01*
X4150D01*
X4149D01*
X4141D01*
X4133Y8206D01*
X4125Y8207D01*
X4118Y8208D01*
X4111Y8209D01*
X4105Y8210D01*
X4099Y8211D01*
X4094Y8213D01*
X4089Y8214D01*
X4086Y8215D01*
X4082Y8216D01*
X4079Y8217D01*
X4077Y8218D01*
X4075Y8219D01*
X4075Y8219D01*
X4074D01*
X4064Y8225D01*
X4056Y8231D01*
X4049Y8237D01*
X4043Y8243D01*
X4038Y8248D01*
X4035Y8252D01*
X4033Y8255D01*
X4033Y8256D01*
Y8256D01*
X4029Y8265D01*
X4026Y8276D01*
X4023Y8286D01*
X4022Y8295D01*
X4021Y8304D01*
X4020Y8307D01*
X4020Y8311D01*
Y8317D01*
X4020Y8328D01*
X4021Y8338D01*
X4023Y8348D01*
X4025Y8355D01*
X4027Y8361D01*
X4029Y8366D01*
X4030Y8368D01*
X4030Y8369D01*
X4035Y8377D01*
X4039Y8384D01*
X4045Y8389D01*
X4050Y8394D01*
X4055Y8397D01*
X4058Y8400D01*
X4061Y8402D01*
X4062Y8403D01*
X4069Y8407D01*
X4077Y8409D01*
X4085Y8412D01*
X4092Y8413D01*
X4099Y8414D01*
X4103Y8415D01*
X4105D01*
X4106D01*
X4107D01*
X4107D01*
X4114Y8414D01*
D02*
G37*
G36*
X4164Y8176D02*
X4175Y8176D01*
X4184Y8174D01*
X4193Y8173D01*
X4201Y8172D01*
X4204Y8171D01*
X4206Y8171D01*
X4209Y8170D01*
X4210Y8170D01*
X4211Y8169D01*
X4211D01*
X4217Y8168D01*
X4221Y8166D01*
X4226Y8165D01*
X4230Y8163D01*
X4233Y8162D01*
X4235Y8160D01*
X4237Y8160D01*
X4237Y8160D01*
X4245Y8154D01*
X4249Y8152D01*
X4252Y8149D01*
X4255Y8147D01*
X4257Y8145D01*
X4258Y8143D01*
X4258Y8143D01*
X4262Y8139D01*
X4265Y8135D01*
X4268Y8130D01*
X4270Y8126D01*
X4272Y8122D01*
X4274Y8119D01*
X4275Y8117D01*
X4275Y8116D01*
X4277Y8110D01*
X4279Y8103D01*
X4280Y8096D01*
X4281Y8089D01*
X4281Y8083D01*
X4281Y8079D01*
Y8075D01*
X4281Y8065D01*
X4280Y8056D01*
X4279Y8047D01*
X4277Y8039D01*
X4275Y8033D01*
X4272Y8026D01*
X4269Y8020D01*
X4267Y8015D01*
X4264Y8010D01*
X4262Y8006D01*
X4259Y8003D01*
X4257Y8000D01*
X4255Y7998D01*
X4254Y7996D01*
X4253Y7996D01*
X4252Y7995D01*
X4246Y7990D01*
X4240Y7987D01*
X4233Y7983D01*
X4225Y7980D01*
X4208Y7976D01*
X4191Y7972D01*
X4184Y7972D01*
X4176Y7971D01*
X4169Y7970D01*
X4163Y7970D01*
X4159Y7969D01*
X4155D01*
X4153D01*
X4152D01*
X4141Y7970D01*
X4131Y7970D01*
X4122Y7971D01*
X4114Y7972D01*
X4107Y7973D01*
X4102Y7973D01*
X4100Y7974D01*
X4099Y7974D01*
X4098D01*
X4098D01*
X4089Y7976D01*
X4081Y7978D01*
X4075Y7981D01*
X4070Y7983D01*
X4065Y7985D01*
X4062Y7987D01*
X4060Y7988D01*
X4060Y7988D01*
X4053Y7993D01*
X4047Y7999D01*
X4042Y8004D01*
X4038Y8009D01*
X4034Y8014D01*
X4032Y8017D01*
X4031Y8020D01*
X4030Y8020D01*
X4027Y8028D01*
X4024Y8037D01*
X4022Y8046D01*
X4021Y8054D01*
X4020Y8062D01*
Y8064D01*
X4020Y8067D01*
Y8073D01*
X4020Y8083D01*
X4021Y8093D01*
X4023Y8101D01*
X4025Y8109D01*
X4027Y8117D01*
X4030Y8123D01*
X4033Y8129D01*
X4036Y8134D01*
X4039Y8139D01*
X4042Y8142D01*
X4044Y8146D01*
X4047Y8148D01*
X4049Y8151D01*
X4050Y8152D01*
X4051Y8153D01*
X4052Y8153D01*
X4058Y8157D01*
X4065Y8161D01*
X4073Y8164D01*
X4081Y8167D01*
X4098Y8171D01*
X4114Y8174D01*
X4122Y8175D01*
X4129Y8175D01*
X4135Y8176D01*
X4142Y8176D01*
X4146Y8177D01*
X4149D01*
X4152D01*
X4153D01*
X4164Y8176D01*
D02*
G37*
G36*
X4144Y7845D02*
X4089D01*
Y7947D01*
X4144D01*
Y7845D01*
D02*
G37*
G36*
X4277Y7617D02*
X4218D01*
Y7741D01*
X4209Y7735D01*
X4200Y7728D01*
X4191Y7722D01*
X4184Y7716D01*
X4176Y7711D01*
X4168Y7707D01*
X4161Y7703D01*
X4155Y7699D01*
X4149Y7696D01*
X4143Y7693D01*
X4139Y7691D01*
X4135Y7688D01*
X4132Y7687D01*
X4129Y7686D01*
X4128Y7685D01*
X4128D01*
X4120Y7682D01*
X4111Y7679D01*
X4094Y7674D01*
X4077Y7669D01*
X4069Y7667D01*
X4060Y7665D01*
X4053Y7664D01*
X4046Y7662D01*
X4040Y7662D01*
X4034Y7661D01*
X4030Y7660D01*
X4027Y7660D01*
X4025Y7659D01*
X4024D01*
Y7729D01*
X4040Y7731D01*
X4055Y7733D01*
X4068Y7735D01*
X4074Y7736D01*
X4079Y7737D01*
X4084Y7738D01*
X4088Y7740D01*
X4092Y7741D01*
X4095Y7741D01*
X4098Y7742D01*
X4099Y7742D01*
X4100Y7743D01*
X4101D01*
X4116Y7748D01*
X4130Y7753D01*
X4143Y7759D01*
X4149Y7762D01*
X4155Y7765D01*
X4160Y7767D01*
X4164Y7770D01*
X4168Y7771D01*
X4171Y7773D01*
X4174Y7775D01*
X4176Y7776D01*
X4177Y7777D01*
X4177Y7777D01*
X4187Y7784D01*
X4197Y7792D01*
X4206Y7799D01*
X4214Y7807D01*
X4220Y7813D01*
X4225Y7818D01*
X4227Y7820D01*
X4228Y7821D01*
X4229Y7822D01*
X4229Y7822D01*
X4277D01*
Y7617D01*
D02*
G37*
G36*
X4164Y7586D02*
X4175Y7586D01*
X4184Y7584D01*
X4193Y7583D01*
X4201Y7582D01*
X4204Y7581D01*
X4206Y7581D01*
X4209Y7580D01*
X4210Y7580D01*
X4211Y7579D01*
X4211D01*
X4217Y7578D01*
X4221Y7576D01*
X4226Y7575D01*
X4230Y7573D01*
X4233Y7572D01*
X4235Y7570D01*
X4237Y7570D01*
X4237Y7570D01*
X4245Y7564D01*
X4249Y7562D01*
X4252Y7559D01*
X4255Y7557D01*
X4257Y7555D01*
X4258Y7553D01*
X4258Y7553D01*
X4262Y7549D01*
X4265Y7545D01*
X4268Y7540D01*
X4270Y7536D01*
X4272Y7532D01*
X4274Y7529D01*
X4275Y7527D01*
X4275Y7526D01*
X4277Y7520D01*
X4279Y7513D01*
X4280Y7506D01*
X4281Y7499D01*
X4281Y7493D01*
X4281Y7489D01*
Y7485D01*
X4281Y7475D01*
X4280Y7466D01*
X4279Y7457D01*
X4277Y7449D01*
X4275Y7443D01*
X4272Y7436D01*
X4269Y7430D01*
X4267Y7425D01*
X4264Y7420D01*
X4262Y7416D01*
X4259Y7413D01*
X4257Y7410D01*
X4255Y7408D01*
X4254Y7406D01*
X4253Y7406D01*
X4252Y7405D01*
X4246Y7400D01*
X4240Y7397D01*
X4233Y7393D01*
X4225Y7390D01*
X4208Y7386D01*
X4191Y7382D01*
X4184Y7382D01*
X4176Y7381D01*
X4169Y7380D01*
X4163Y7380D01*
X4159Y7379D01*
X4155D01*
X4153D01*
X4152D01*
X4141Y7380D01*
X4131Y7380D01*
X4122Y7381D01*
X4114Y7382D01*
X4107Y7383D01*
X4102Y7383D01*
X4100Y7384D01*
X4099Y7384D01*
X4098D01*
X4098D01*
X4089Y7386D01*
X4081Y7388D01*
X4075Y7391D01*
X4070Y7393D01*
X4065Y7395D01*
X4062Y7397D01*
X4060Y7398D01*
X4060Y7398D01*
X4053Y7403D01*
X4047Y7409D01*
X4042Y7414D01*
X4038Y7419D01*
X4034Y7424D01*
X4032Y7427D01*
X4031Y7430D01*
X4030Y7431D01*
X4027Y7438D01*
X4024Y7447D01*
X4022Y7456D01*
X4021Y7464D01*
X4020Y7472D01*
Y7474D01*
X4020Y7477D01*
Y7483D01*
X4020Y7493D01*
X4021Y7503D01*
X4023Y7511D01*
X4025Y7519D01*
X4027Y7527D01*
X4030Y7533D01*
X4033Y7539D01*
X4036Y7544D01*
X4039Y7549D01*
X4042Y7552D01*
X4044Y7556D01*
X4047Y7558D01*
X4049Y7561D01*
X4050Y7562D01*
X4051Y7563D01*
X4052Y7563D01*
X4058Y7567D01*
X4065Y7571D01*
X4073Y7574D01*
X4081Y7577D01*
X4098Y7581D01*
X4114Y7584D01*
X4122Y7585D01*
X4129Y7585D01*
X4135Y7586D01*
X4142Y7586D01*
X4146Y7587D01*
X4149D01*
X4152D01*
X4153D01*
X4164Y7586D01*
D02*
G37*
G36*
X4144Y7255D02*
X4089D01*
Y7357D01*
X4144D01*
Y7255D01*
D02*
G37*
G36*
X4111Y7232D02*
X4117Y7232D01*
X4122Y7230D01*
X4126Y7229D01*
X4129Y7228D01*
X4132Y7227D01*
X4134Y7226D01*
X4135Y7225D01*
X4139Y7223D01*
X4143Y7219D01*
X4147Y7216D01*
X4150Y7213D01*
X4152Y7210D01*
X4154Y7208D01*
X4155Y7206D01*
X4155Y7206D01*
X4157Y7203D01*
X4159Y7199D01*
X4161Y7192D01*
X4162Y7189D01*
X4163Y7186D01*
X4164Y7184D01*
Y7184D01*
X4167Y7190D01*
X4172Y7196D01*
X4176Y7200D01*
X4179Y7204D01*
X4182Y7207D01*
X4184Y7209D01*
X4186Y7210D01*
X4187Y7211D01*
X4192Y7214D01*
X4197Y7216D01*
X4202Y7218D01*
X4207Y7219D01*
X4210Y7219D01*
X4214Y7220D01*
X4215D01*
X4216D01*
X4221Y7219D01*
X4227Y7219D01*
X4236Y7217D01*
X4244Y7213D01*
X4250Y7209D01*
X4256Y7205D01*
X4260Y7201D01*
X4262Y7199D01*
X4263Y7198D01*
Y7198D01*
X4266Y7193D01*
X4269Y7188D01*
X4274Y7177D01*
X4277Y7165D01*
X4279Y7153D01*
X4280Y7148D01*
X4281Y7143D01*
X4281Y7138D01*
Y7134D01*
X4281Y7130D01*
Y7126D01*
X4281Y7110D01*
X4280Y7103D01*
X4279Y7097D01*
X4277Y7091D01*
X4276Y7085D01*
X4275Y7080D01*
X4273Y7076D01*
X4271Y7072D01*
X4270Y7068D01*
X4269Y7066D01*
X4267Y7063D01*
X4266Y7061D01*
X4265Y7060D01*
X4264Y7059D01*
Y7059D01*
X4257Y7050D01*
X4250Y7044D01*
X4241Y7038D01*
X4233Y7034D01*
X4227Y7031D01*
X4223Y7030D01*
X4221Y7029D01*
X4219Y7028D01*
X4217Y7028D01*
X4216Y7027D01*
X4215D01*
X4204Y7094D01*
X4210Y7095D01*
X4216Y7096D01*
X4220Y7098D01*
X4224Y7100D01*
X4227Y7102D01*
X4228Y7103D01*
X4229Y7103D01*
X4230Y7104D01*
X4233Y7107D01*
X4234Y7110D01*
X4236Y7114D01*
X4237Y7117D01*
X4237Y7120D01*
X4238Y7122D01*
Y7124D01*
X4237Y7129D01*
X4237Y7133D01*
X4235Y7136D01*
X4234Y7139D01*
X4233Y7141D01*
X4232Y7142D01*
X4231Y7143D01*
X4231Y7144D01*
X4228Y7146D01*
X4225Y7148D01*
X4222Y7149D01*
X4219Y7150D01*
X4216Y7150D01*
X4214Y7151D01*
X4213D01*
X4212D01*
X4208Y7150D01*
X4204Y7149D01*
X4200Y7147D01*
X4197Y7146D01*
X4195Y7144D01*
X4193Y7142D01*
X4192Y7141D01*
X4191Y7141D01*
X4189Y7137D01*
X4187Y7133D01*
X4185Y7129D01*
X4184Y7126D01*
X4184Y7123D01*
X4183Y7120D01*
Y7115D01*
X4184Y7112D01*
Y7109D01*
X4134Y7105D01*
X4135Y7110D01*
X4136Y7115D01*
X4137Y7119D01*
X4137Y7122D01*
X4138Y7125D01*
Y7128D01*
X4137Y7133D01*
X4136Y7139D01*
X4135Y7143D01*
X4133Y7146D01*
X4131Y7149D01*
X4129Y7151D01*
X4129Y7152D01*
X4128Y7153D01*
X4124Y7156D01*
X4120Y7158D01*
X4115Y7160D01*
X4111Y7161D01*
X4107Y7162D01*
X4104Y7162D01*
X4102D01*
X4101D01*
X4095Y7162D01*
X4089Y7161D01*
X4084Y7159D01*
X4081Y7157D01*
X4077Y7156D01*
X4075Y7154D01*
X4074Y7153D01*
X4073Y7152D01*
X4070Y7149D01*
X4067Y7145D01*
X4065Y7141D01*
X4064Y7137D01*
X4063Y7134D01*
X4063Y7131D01*
Y7129D01*
X4063Y7124D01*
X4064Y7120D01*
X4065Y7115D01*
X4067Y7112D01*
X4069Y7110D01*
X4069Y7108D01*
X4070Y7107D01*
X4071Y7106D01*
X4075Y7103D01*
X4079Y7101D01*
X4089Y7097D01*
X4093Y7096D01*
X4097Y7095D01*
X4099Y7094D01*
X4100D01*
X4091Y7023D01*
X4082Y7026D01*
X4075Y7030D01*
X4068Y7032D01*
X4062Y7036D01*
X4057Y7038D01*
X4054Y7041D01*
X4052Y7042D01*
X4051Y7043D01*
X4046Y7048D01*
X4041Y7054D01*
X4037Y7059D01*
X4034Y7064D01*
X4031Y7069D01*
X4029Y7072D01*
X4028Y7075D01*
X4028Y7076D01*
X4025Y7084D01*
X4023Y7093D01*
X4022Y7102D01*
X4021Y7111D01*
X4020Y7118D01*
Y7122D01*
X4020Y7125D01*
Y7130D01*
X4020Y7143D01*
X4022Y7154D01*
X4023Y7164D01*
X4026Y7172D01*
X4027Y7179D01*
X4028Y7182D01*
X4029Y7183D01*
X4030Y7185D01*
X4030Y7187D01*
X4031Y7187D01*
Y7188D01*
X4035Y7195D01*
X4040Y7202D01*
X4045Y7207D01*
X4050Y7212D01*
X4055Y7216D01*
X4059Y7218D01*
X4061Y7220D01*
X4062Y7221D01*
X4070Y7225D01*
X4077Y7228D01*
X4084Y7230D01*
X4091Y7231D01*
X4097Y7232D01*
X4101Y7233D01*
X4104D01*
X4104D01*
X4105D01*
X4111Y7232D01*
D02*
G37*
G36*
X4081Y6885D02*
X4087Y6892D01*
X4093Y6897D01*
X4094Y6899D01*
X4095Y6901D01*
X4096Y6902D01*
X4096Y6902D01*
X4099Y6905D01*
X4102Y6909D01*
X4105Y6914D01*
X4109Y6919D01*
X4112Y6924D01*
X4115Y6927D01*
X4117Y6930D01*
X4117Y6931D01*
X4122Y6937D01*
X4126Y6943D01*
X4131Y6949D01*
X4135Y6954D01*
X4139Y6958D01*
X4143Y6962D01*
X4150Y6969D01*
X4155Y6974D01*
X4160Y6977D01*
X4162Y6980D01*
X4163Y6980D01*
X4171Y6985D01*
X4179Y6988D01*
X4187Y6991D01*
X4193Y6992D01*
X4199Y6993D01*
X4204Y6994D01*
X4205D01*
X4207D01*
X4207D01*
X4208D01*
X4215Y6993D01*
X4223Y6992D01*
X4230Y6990D01*
X4235Y6988D01*
X4240Y6986D01*
X4244Y6984D01*
X4246Y6982D01*
X4247Y6982D01*
X4253Y6977D01*
X4258Y6972D01*
X4263Y6966D01*
X4266Y6961D01*
X4269Y6956D01*
X4271Y6952D01*
X4272Y6950D01*
X4273Y6950D01*
Y6949D01*
X4275Y6941D01*
X4278Y6932D01*
X4279Y6922D01*
X4281Y6913D01*
X4281Y6904D01*
Y6901D01*
X4281Y6897D01*
Y6891D01*
X4281Y6879D01*
X4280Y6868D01*
X4279Y6858D01*
X4277Y6850D01*
X4275Y6844D01*
X4274Y6839D01*
X4273Y6836D01*
X4272Y6836D01*
Y6835D01*
X4269Y6828D01*
X4264Y6822D01*
X4260Y6817D01*
X4256Y6812D01*
X4252Y6809D01*
X4250Y6806D01*
X4248Y6805D01*
X4247Y6804D01*
X4240Y6800D01*
X4233Y6797D01*
X4225Y6795D01*
X4218Y6792D01*
X4211Y6791D01*
X4206Y6790D01*
X4203Y6790D01*
X4202Y6789D01*
X4201D01*
X4201D01*
X4195Y6860D01*
X4202Y6861D01*
X4209Y6863D01*
X4214Y6865D01*
X4218Y6866D01*
X4221Y6868D01*
X4223Y6870D01*
X4224Y6871D01*
X4225Y6871D01*
X4227Y6875D01*
X4230Y6878D01*
X4231Y6882D01*
X4233Y6885D01*
X4233Y6889D01*
X4233Y6891D01*
Y6893D01*
X4233Y6898D01*
X4232Y6902D01*
X4231Y6906D01*
X4229Y6909D01*
X4228Y6912D01*
X4227Y6914D01*
X4226Y6914D01*
X4225Y6915D01*
X4222Y6918D01*
X4219Y6920D01*
X4215Y6921D01*
X4212Y6923D01*
X4209Y6923D01*
X4207Y6924D01*
X4206D01*
X4205D01*
X4201Y6923D01*
X4197Y6922D01*
X4193Y6921D01*
X4190Y6920D01*
X4187Y6918D01*
X4184Y6916D01*
X4183Y6915D01*
X4183Y6915D01*
X4180Y6913D01*
X4178Y6911D01*
X4172Y6905D01*
X4166Y6898D01*
X4160Y6892D01*
X4155Y6885D01*
X4151Y6880D01*
X4150Y6878D01*
X4148Y6877D01*
X4148Y6876D01*
X4148Y6875D01*
X4141Y6866D01*
X4134Y6858D01*
X4128Y6850D01*
X4122Y6843D01*
X4116Y6836D01*
X4111Y6831D01*
X4105Y6826D01*
X4101Y6822D01*
X4097Y6818D01*
X4093Y6814D01*
X4090Y6812D01*
X4087Y6810D01*
X4085Y6808D01*
X4084Y6807D01*
X4083Y6806D01*
X4082Y6806D01*
X4072Y6800D01*
X4062Y6795D01*
X4052Y6791D01*
X4043Y6788D01*
X4035Y6786D01*
X4032Y6786D01*
X4029Y6785D01*
X4027Y6785D01*
X4026Y6784D01*
X4025D01*
X4024D01*
Y6996D01*
X4081D01*
Y6885D01*
D02*
G37*
G36*
X4164Y6760D02*
X4175Y6760D01*
X4184Y6758D01*
X4193Y6757D01*
X4201Y6756D01*
X4204Y6755D01*
X4206Y6755D01*
X4209Y6754D01*
X4210Y6754D01*
X4211Y6753D01*
X4211D01*
X4217Y6752D01*
X4221Y6750D01*
X4226Y6749D01*
X4230Y6747D01*
X4233Y6746D01*
X4235Y6744D01*
X4237Y6744D01*
X4237Y6744D01*
X4245Y6738D01*
X4249Y6736D01*
X4252Y6733D01*
X4255Y6731D01*
X4257Y6729D01*
X4258Y6727D01*
X4258Y6727D01*
X4262Y6723D01*
X4265Y6719D01*
X4268Y6714D01*
X4270Y6710D01*
X4272Y6706D01*
X4274Y6703D01*
X4275Y6701D01*
X4275Y6700D01*
X4277Y6694D01*
X4279Y6687D01*
X4280Y6680D01*
X4281Y6673D01*
X4281Y6667D01*
X4281Y6663D01*
Y6659D01*
X4281Y6649D01*
X4280Y6640D01*
X4279Y6631D01*
X4277Y6623D01*
X4275Y6616D01*
X4272Y6610D01*
X4269Y6604D01*
X4267Y6599D01*
X4264Y6594D01*
X4262Y6590D01*
X4259Y6587D01*
X4257Y6584D01*
X4255Y6582D01*
X4254Y6580D01*
X4253Y6580D01*
X4252Y6579D01*
X4246Y6574D01*
X4240Y6571D01*
X4233Y6567D01*
X4225Y6564D01*
X4208Y6560D01*
X4191Y6556D01*
X4184Y6555D01*
X4176Y6555D01*
X4169Y6554D01*
X4163Y6554D01*
X4159Y6553D01*
X4155D01*
X4153D01*
X4152D01*
X4141Y6554D01*
X4131Y6554D01*
X4122Y6555D01*
X4114Y6556D01*
X4107Y6557D01*
X4102Y6557D01*
X4100Y6558D01*
X4099Y6558D01*
X4098D01*
X4098D01*
X4089Y6560D01*
X4081Y6562D01*
X4075Y6565D01*
X4070Y6567D01*
X4065Y6569D01*
X4062Y6571D01*
X4060Y6572D01*
X4060Y6572D01*
X4053Y6577D01*
X4047Y6583D01*
X4042Y6588D01*
X4038Y6593D01*
X4034Y6598D01*
X4032Y6601D01*
X4031Y6604D01*
X4030Y6604D01*
X4027Y6612D01*
X4024Y6621D01*
X4022Y6630D01*
X4021Y6638D01*
X4020Y6646D01*
Y6648D01*
X4020Y6651D01*
Y6657D01*
X4020Y6667D01*
X4021Y6677D01*
X4023Y6685D01*
X4025Y6693D01*
X4027Y6701D01*
X4030Y6707D01*
X4033Y6713D01*
X4036Y6718D01*
X4039Y6723D01*
X4042Y6726D01*
X4044Y6730D01*
X4047Y6732D01*
X4049Y6735D01*
X4050Y6736D01*
X4051Y6737D01*
X4052Y6737D01*
X4058Y6741D01*
X4065Y6745D01*
X4073Y6748D01*
X4081Y6751D01*
X4098Y6755D01*
X4114Y6758D01*
X4122Y6759D01*
X4129Y6759D01*
X4135Y6760D01*
X4142Y6760D01*
X4146Y6761D01*
X4149D01*
X4152D01*
X4153D01*
X4164Y6760D01*
D02*
G37*
G36*
X4081Y6413D02*
X4087Y6420D01*
X4093Y6425D01*
X4094Y6427D01*
X4095Y6428D01*
X4096Y6429D01*
X4096Y6430D01*
X4099Y6433D01*
X4102Y6437D01*
X4105Y6442D01*
X4109Y6447D01*
X4112Y6452D01*
X4115Y6455D01*
X4117Y6458D01*
X4117Y6458D01*
X4122Y6465D01*
X4126Y6471D01*
X4131Y6476D01*
X4135Y6482D01*
X4139Y6486D01*
X4143Y6490D01*
X4150Y6497D01*
X4155Y6502D01*
X4160Y6505D01*
X4162Y6507D01*
X4163Y6508D01*
X4171Y6513D01*
X4179Y6516D01*
X4187Y6519D01*
X4193Y6520D01*
X4199Y6521D01*
X4204Y6522D01*
X4205D01*
X4207D01*
X4207D01*
X4208D01*
X4215Y6521D01*
X4223Y6520D01*
X4230Y6518D01*
X4235Y6516D01*
X4240Y6513D01*
X4244Y6512D01*
X4246Y6510D01*
X4247Y6510D01*
X4253Y6505D01*
X4258Y6500D01*
X4263Y6494D01*
X4266Y6489D01*
X4269Y6484D01*
X4271Y6480D01*
X4272Y6478D01*
X4273Y6477D01*
Y6477D01*
X4275Y6469D01*
X4278Y6459D01*
X4279Y6450D01*
X4281Y6440D01*
X4281Y6432D01*
Y6428D01*
X4281Y6425D01*
Y6419D01*
X4281Y6407D01*
X4280Y6396D01*
X4279Y6386D01*
X4277Y6378D01*
X4275Y6372D01*
X4274Y6367D01*
X4273Y6364D01*
X4272Y6364D01*
Y6363D01*
X4269Y6356D01*
X4264Y6350D01*
X4260Y6344D01*
X4256Y6340D01*
X4252Y6337D01*
X4250Y6334D01*
X4248Y6332D01*
X4247Y6332D01*
X4240Y6328D01*
X4233Y6325D01*
X4225Y6323D01*
X4218Y6320D01*
X4211Y6319D01*
X4206Y6318D01*
X4203Y6318D01*
X4202Y6317D01*
X4201D01*
X4201D01*
X4195Y6388D01*
X4202Y6389D01*
X4209Y6391D01*
X4214Y6392D01*
X4218Y6394D01*
X4221Y6396D01*
X4223Y6397D01*
X4224Y6398D01*
X4225Y6399D01*
X4227Y6403D01*
X4230Y6406D01*
X4231Y6410D01*
X4233Y6413D01*
X4233Y6416D01*
X4233Y6419D01*
Y6421D01*
X4233Y6426D01*
X4232Y6430D01*
X4231Y6434D01*
X4229Y6437D01*
X4228Y6440D01*
X4227Y6441D01*
X4226Y6442D01*
X4225Y6443D01*
X4222Y6446D01*
X4219Y6448D01*
X4215Y6449D01*
X4212Y6451D01*
X4209Y6451D01*
X4207Y6452D01*
X4206D01*
X4205D01*
X4201Y6451D01*
X4197Y6450D01*
X4193Y6449D01*
X4190Y6447D01*
X4187Y6446D01*
X4184Y6444D01*
X4183Y6443D01*
X4183Y6443D01*
X4180Y6441D01*
X4178Y6439D01*
X4172Y6433D01*
X4166Y6426D01*
X4160Y6420D01*
X4155Y6413D01*
X4151Y6408D01*
X4150Y6406D01*
X4148Y6404D01*
X4148Y6403D01*
X4148Y6403D01*
X4141Y6394D01*
X4134Y6385D01*
X4128Y6378D01*
X4122Y6371D01*
X4116Y6364D01*
X4111Y6359D01*
X4105Y6354D01*
X4101Y6349D01*
X4097Y6346D01*
X4093Y6342D01*
X4090Y6340D01*
X4087Y6337D01*
X4085Y6336D01*
X4084Y6335D01*
X4083Y6334D01*
X4082Y6334D01*
X4072Y6328D01*
X4062Y6323D01*
X4052Y6319D01*
X4043Y6316D01*
X4035Y6314D01*
X4032Y6313D01*
X4029Y6313D01*
X4027Y6312D01*
X4026Y6312D01*
X4025D01*
X4024D01*
Y6524D01*
X4081D01*
Y6413D01*
D02*
G37*
G36*
X660Y8471D02*
X648Y8464D01*
X637Y8457D01*
X627Y8450D01*
X619Y8443D01*
X612Y8437D01*
X607Y8431D01*
X605Y8428D01*
X603Y8427D01*
Y8427D01*
X595Y8416D01*
X588Y8403D01*
X581Y8390D01*
X575Y8378D01*
X571Y8367D01*
X569Y8361D01*
X567Y8357D01*
X566Y8354D01*
X565Y8351D01*
X564Y8350D01*
Y8349D01*
X484D01*
X488Y8361D01*
X491Y8372D01*
X495Y8381D01*
X498Y8390D01*
X501Y8396D01*
X503Y8402D01*
X504Y8404D01*
X505Y8405D01*
X509Y8414D01*
X515Y8422D01*
X520Y8431D01*
X524Y8438D01*
X529Y8444D01*
X532Y8449D01*
X535Y8451D01*
X535Y8453D01*
X299D01*
Y8553D01*
X660D01*
Y8471D01*
D02*
G37*
G36*
X399Y8173D02*
X299D01*
Y8278D01*
X399D01*
Y8173D01*
D02*
G37*
G36*
X495Y8122D02*
X511Y8122D01*
X524Y8120D01*
X537Y8118D01*
X547Y8116D01*
X551Y8115D01*
X555Y8114D01*
X558Y8114D01*
X560Y8113D01*
X561Y8113D01*
X562D01*
X570Y8111D01*
X576Y8108D01*
X583Y8106D01*
X588Y8104D01*
X592Y8102D01*
X596Y8100D01*
X597Y8100D01*
X598Y8099D01*
X610Y8092D01*
X615Y8088D01*
X619Y8084D01*
X623Y8081D01*
X625Y8078D01*
X627Y8076D01*
X628Y8076D01*
X633Y8070D01*
X638Y8064D01*
X642Y8057D01*
X645Y8052D01*
X647Y8046D01*
X650Y8042D01*
X651Y8039D01*
X651Y8038D01*
X654Y8029D01*
X656Y8019D01*
X658Y8010D01*
X659Y8000D01*
X660Y7992D01*
X660Y7986D01*
Y7980D01*
X660Y7966D01*
X658Y7953D01*
X656Y7941D01*
X654Y7930D01*
X651Y7921D01*
X647Y7912D01*
X643Y7903D01*
X640Y7896D01*
X636Y7890D01*
X632Y7884D01*
X629Y7879D01*
X626Y7875D01*
X623Y7872D01*
X621Y7870D01*
X620Y7869D01*
X619Y7868D01*
X611Y7862D01*
X602Y7857D01*
X592Y7851D01*
X581Y7848D01*
X557Y7841D01*
X534Y7836D01*
X523Y7835D01*
X513Y7834D01*
X503Y7833D01*
X494Y7833D01*
X488Y7832D01*
X483D01*
X480D01*
X478D01*
X463Y7833D01*
X449Y7833D01*
X436Y7835D01*
X425Y7836D01*
X415Y7837D01*
X408Y7838D01*
X406Y7838D01*
X404Y7839D01*
X403D01*
X402D01*
X391Y7842D01*
X380Y7845D01*
X371Y7848D01*
X364Y7851D01*
X357Y7854D01*
X353Y7857D01*
X350Y7858D01*
X349Y7859D01*
X340Y7866D01*
X331Y7873D01*
X324Y7881D01*
X318Y7888D01*
X314Y7894D01*
X310Y7899D01*
X308Y7903D01*
X308Y7904D01*
X303Y7915D01*
X299Y7927D01*
X297Y7940D01*
X295Y7951D01*
X294Y7962D01*
Y7965D01*
X294Y7969D01*
Y7977D01*
X294Y7991D01*
X295Y8005D01*
X297Y8017D01*
X301Y8028D01*
X304Y8039D01*
X308Y8048D01*
X312Y8056D01*
X316Y8063D01*
X320Y8070D01*
X324Y8075D01*
X328Y8079D01*
X331Y8083D01*
X334Y8087D01*
X336Y8089D01*
X338Y8089D01*
X338Y8090D01*
X347Y8096D01*
X357Y8101D01*
X368Y8105D01*
X379Y8109D01*
X402Y8115D01*
X426Y8119D01*
X437Y8120D01*
X446Y8121D01*
X456Y8122D01*
X464Y8122D01*
X470Y8123D01*
X475D01*
X478D01*
X480D01*
X495Y8122D01*
D02*
G37*
G36*
X399Y7676D02*
X299D01*
Y7782D01*
X399D01*
Y7676D01*
D02*
G37*
G36*
X380Y7470D02*
X388Y7480D01*
X395Y7487D01*
X397Y7490D01*
X399Y7492D01*
X400Y7493D01*
X400Y7494D01*
X404Y7498D01*
X409Y7504D01*
X413Y7511D01*
X418Y7518D01*
X423Y7524D01*
X426Y7529D01*
X429Y7533D01*
X430Y7534D01*
X436Y7543D01*
X443Y7551D01*
X449Y7559D01*
X455Y7566D01*
X461Y7572D01*
X466Y7578D01*
X476Y7588D01*
X483Y7595D01*
X489Y7599D01*
X493Y7603D01*
X494Y7603D01*
X505Y7610D01*
X516Y7614D01*
X527Y7618D01*
X537Y7620D01*
X545Y7621D01*
X551Y7623D01*
X553D01*
X555D01*
X556D01*
X557D01*
X568Y7622D01*
X578Y7620D01*
X588Y7617D01*
X596Y7614D01*
X603Y7611D01*
X607Y7608D01*
X610Y7606D01*
X612Y7606D01*
X620Y7599D01*
X628Y7592D01*
X634Y7584D01*
X639Y7577D01*
X643Y7570D01*
X646Y7564D01*
X647Y7561D01*
X648Y7560D01*
Y7560D01*
X652Y7548D01*
X655Y7535D01*
X657Y7522D01*
X659Y7509D01*
X660Y7497D01*
Y7492D01*
X660Y7487D01*
Y7479D01*
X660Y7461D01*
X658Y7446D01*
X656Y7432D01*
X654Y7421D01*
X651Y7412D01*
X649Y7406D01*
X648Y7402D01*
X647Y7401D01*
Y7400D01*
X642Y7390D01*
X636Y7382D01*
X631Y7374D01*
X625Y7368D01*
X619Y7363D01*
X616Y7359D01*
X613Y7357D01*
X612Y7356D01*
X602Y7351D01*
X592Y7347D01*
X581Y7343D01*
X571Y7340D01*
X561Y7338D01*
X554Y7337D01*
X551Y7336D01*
X549Y7336D01*
X548D01*
X547D01*
X539Y7435D01*
X550Y7437D01*
X558Y7439D01*
X565Y7441D01*
X571Y7444D01*
X575Y7446D01*
X579Y7448D01*
X580Y7450D01*
X581Y7450D01*
X585Y7455D01*
X588Y7461D01*
X590Y7466D01*
X592Y7470D01*
X592Y7475D01*
X593Y7478D01*
Y7481D01*
X592Y7488D01*
X591Y7494D01*
X589Y7499D01*
X587Y7503D01*
X585Y7507D01*
X583Y7510D01*
X582Y7511D01*
X581Y7512D01*
X577Y7516D01*
X572Y7519D01*
X568Y7521D01*
X563Y7523D01*
X559Y7524D01*
X556Y7524D01*
X554D01*
X553D01*
X548Y7524D01*
X542Y7522D01*
X537Y7520D01*
X532Y7518D01*
X527Y7516D01*
X524Y7514D01*
X522Y7512D01*
X522Y7512D01*
X518Y7509D01*
X515Y7506D01*
X507Y7498D01*
X499Y7489D01*
X491Y7479D01*
X483Y7470D01*
X478Y7463D01*
X476Y7460D01*
X474Y7458D01*
X473Y7457D01*
X472Y7456D01*
X463Y7443D01*
X454Y7431D01*
X445Y7420D01*
X436Y7411D01*
X428Y7402D01*
X421Y7394D01*
X413Y7387D01*
X407Y7381D01*
X401Y7376D01*
X396Y7371D01*
X391Y7367D01*
X388Y7364D01*
X385Y7362D01*
X383Y7360D01*
X382Y7360D01*
X381Y7359D01*
X367Y7350D01*
X352Y7343D01*
X338Y7338D01*
X326Y7334D01*
X315Y7331D01*
X310Y7330D01*
X307Y7330D01*
X304Y7329D01*
X301Y7328D01*
X300D01*
X299D01*
Y7625D01*
X380D01*
Y7470D01*
D02*
G37*
G36*
X553Y7319D02*
X557Y7310D01*
X559Y7303D01*
X561Y7295D01*
X562Y7290D01*
X562Y7285D01*
Y7281D01*
X562Y7273D01*
X561Y7267D01*
X559Y7260D01*
X557Y7255D01*
X555Y7251D01*
X554Y7248D01*
X553Y7246D01*
X552Y7246D01*
X548Y7240D01*
X542Y7236D01*
X529Y7227D01*
X524Y7223D01*
X519Y7221D01*
X516Y7219D01*
X515Y7218D01*
X557D01*
Y7126D01*
X299D01*
Y7225D01*
X386D01*
X397D01*
X407Y7226D01*
X416Y7227D01*
X424Y7228D01*
X432Y7229D01*
X439Y7230D01*
X445Y7231D01*
X451Y7233D01*
X456Y7235D01*
X459Y7236D01*
X463Y7237D01*
X465Y7238D01*
X469Y7240D01*
X470Y7240D01*
X475Y7245D01*
X479Y7250D01*
X482Y7255D01*
X484Y7260D01*
X485Y7264D01*
X486Y7268D01*
Y7275D01*
X485Y7279D01*
X482Y7288D01*
X481Y7292D01*
X480Y7295D01*
X479Y7297D01*
X478Y7298D01*
X549Y7329D01*
X553Y7319D01*
D02*
G37*
G36*
X467Y6941D02*
X391D01*
Y7084D01*
X467D01*
Y6941D01*
D02*
G37*
G36*
X660Y6761D02*
X648Y6755D01*
X637Y6748D01*
X627Y6741D01*
X619Y6734D01*
X612Y6727D01*
X607Y6722D01*
X605Y6719D01*
X603Y6718D01*
Y6717D01*
X595Y6706D01*
X588Y6693D01*
X581Y6680D01*
X575Y6668D01*
X571Y6657D01*
X569Y6652D01*
X567Y6648D01*
X566Y6644D01*
X565Y6642D01*
X564Y6640D01*
Y6640D01*
X484D01*
X488Y6652D01*
X491Y6663D01*
X495Y6672D01*
X498Y6680D01*
X501Y6687D01*
X503Y6692D01*
X504Y6695D01*
X505Y6696D01*
X509Y6704D01*
X515Y6713D01*
X520Y6721D01*
X524Y6728D01*
X529Y6734D01*
X532Y6739D01*
X535Y6742D01*
X535Y6743D01*
X299D01*
Y6843D01*
X660D01*
Y6761D01*
D02*
G37*
G36*
X654Y6487D02*
X399Y6408D01*
X654Y6329D01*
Y6214D01*
X299Y6348D01*
Y6467D01*
X654Y6599D01*
Y6487D01*
D02*
G37*
G36*
X4617Y8720D02*
Y8634D01*
X4364Y8540D01*
Y8619D01*
X4406Y8632D01*
Y8721D01*
X4364Y8733D01*
Y8815D01*
X4617Y8720D01*
D02*
G37*
G36*
Y8291D02*
X4555D01*
Y8371D01*
X4364D01*
Y8449D01*
X4555D01*
Y8529D01*
X4617D01*
Y8291D01*
D02*
G37*
G36*
X4454Y8270D02*
X4461Y8269D01*
X4467Y8267D01*
X4473Y8265D01*
X4477Y8263D01*
X4481Y8261D01*
X4483Y8260D01*
X4484Y8260D01*
X4490Y8256D01*
X4495Y8251D01*
X4500Y8245D01*
X4504Y8240D01*
X4507Y8235D01*
X4510Y8231D01*
X4511Y8229D01*
X4512Y8228D01*
Y8228D01*
X4514Y8223D01*
X4516Y8218D01*
X4520Y8207D01*
X4524Y8194D01*
X4527Y8182D01*
X4529Y8177D01*
X4530Y8171D01*
X4531Y8166D01*
X4532Y8162D01*
X4533Y8159D01*
X4534Y8156D01*
X4534Y8154D01*
Y8154D01*
X4536Y8147D01*
X4537Y8141D01*
X4539Y8137D01*
X4540Y8133D01*
X4542Y8131D01*
X4542Y8129D01*
X4543Y8128D01*
Y8128D01*
X4545Y8126D01*
X4547Y8125D01*
X4551Y8123D01*
X4554Y8122D01*
X4554D01*
X4554D01*
X4557Y8123D01*
X4560Y8123D01*
X4565Y8126D01*
X4567Y8128D01*
X4568Y8128D01*
X4568Y8129D01*
X4570Y8132D01*
X4572Y8135D01*
X4573Y8142D01*
X4574Y8145D01*
X4574Y8147D01*
Y8150D01*
X4574Y8156D01*
X4573Y8161D01*
X4572Y8165D01*
X4571Y8169D01*
X4569Y8172D01*
X4568Y8174D01*
X4567Y8175D01*
X4567Y8175D01*
X4563Y8179D01*
X4559Y8181D01*
X4555Y8183D01*
X4551Y8185D01*
X4548Y8187D01*
X4544Y8188D01*
X4542Y8188D01*
X4542D01*
X4546Y8262D01*
X4553Y8260D01*
X4560Y8259D01*
X4566Y8257D01*
X4571Y8255D01*
X4576Y8253D01*
X4581Y8250D01*
X4585Y8248D01*
X4589Y8245D01*
X4595Y8240D01*
X4600Y8236D01*
X4602Y8232D01*
X4603Y8232D01*
Y8231D01*
X4606Y8226D01*
X4609Y8221D01*
X4614Y8209D01*
X4617Y8197D01*
X4619Y8185D01*
X4620Y8179D01*
X4621Y8174D01*
X4621Y8169D01*
Y8165D01*
X4621Y8162D01*
Y8157D01*
X4621Y8144D01*
X4620Y8131D01*
X4618Y8121D01*
X4617Y8115D01*
X4616Y8111D01*
X4615Y8108D01*
X4615Y8104D01*
X4614Y8102D01*
X4613Y8099D01*
X4612Y8097D01*
X4612Y8096D01*
X4611Y8096D01*
Y8095D01*
X4607Y8087D01*
X4603Y8080D01*
X4598Y8074D01*
X4594Y8070D01*
X4590Y8066D01*
X4587Y8063D01*
X4585Y8061D01*
X4584Y8061D01*
X4578Y8057D01*
X4571Y8054D01*
X4565Y8053D01*
X4559Y8051D01*
X4554Y8050D01*
X4550Y8050D01*
X4548D01*
X4548D01*
X4547D01*
X4542Y8050D01*
X4536Y8051D01*
X4527Y8053D01*
X4519Y8057D01*
X4512Y8061D01*
X4506Y8065D01*
X4502Y8068D01*
X4500Y8071D01*
X4499Y8072D01*
X4499D01*
X4495Y8076D01*
X4492Y8081D01*
X4486Y8092D01*
X4481Y8104D01*
X4476Y8117D01*
X4474Y8122D01*
X4473Y8127D01*
X4471Y8133D01*
X4470Y8137D01*
X4469Y8140D01*
X4469Y8143D01*
X4468Y8145D01*
Y8145D01*
X4467Y8151D01*
X4465Y8156D01*
X4464Y8160D01*
X4463Y8164D01*
X4460Y8171D01*
X4458Y8177D01*
X4456Y8181D01*
X4455Y8183D01*
X4454Y8185D01*
X4453Y8185D01*
X4451Y8188D01*
X4447Y8190D01*
X4445Y8192D01*
X4442Y8193D01*
X4439Y8194D01*
X4438Y8194D01*
X4436D01*
X4436D01*
X4432Y8194D01*
X4428Y8193D01*
X4425Y8191D01*
X4422Y8189D01*
X4421Y8188D01*
X4419Y8186D01*
X4418Y8185D01*
X4417Y8185D01*
X4415Y8181D01*
X4413Y8177D01*
X4412Y8173D01*
X4411Y8169D01*
X4410Y8164D01*
X4410Y8162D01*
Y8159D01*
X4410Y8151D01*
X4412Y8144D01*
X4415Y8138D01*
X4418Y8133D01*
X4421Y8129D01*
X4423Y8127D01*
X4425Y8125D01*
X4425Y8124D01*
X4429Y8122D01*
X4433Y8120D01*
X4443Y8117D01*
X4446Y8115D01*
X4450Y8115D01*
X4452Y8115D01*
X4453D01*
X4448Y8040D01*
X4441Y8041D01*
X4434Y8042D01*
X4422Y8046D01*
X4411Y8050D01*
X4402Y8055D01*
X4398Y8058D01*
X4394Y8060D01*
X4391Y8062D01*
X4389Y8064D01*
X4387Y8066D01*
X4386Y8067D01*
X4385Y8067D01*
X4384Y8068D01*
X4380Y8073D01*
X4377Y8079D01*
X4373Y8085D01*
X4370Y8092D01*
X4366Y8107D01*
X4363Y8122D01*
X4362Y8129D01*
X4361Y8136D01*
X4361Y8142D01*
X4360Y8147D01*
X4360Y8151D01*
Y8157D01*
X4360Y8171D01*
X4361Y8182D01*
X4363Y8193D01*
X4365Y8202D01*
X4366Y8206D01*
X4367Y8209D01*
X4368Y8212D01*
X4369Y8214D01*
X4369Y8216D01*
X4370Y8218D01*
X4370Y8218D01*
Y8218D01*
X4375Y8227D01*
X4379Y8235D01*
X4384Y8241D01*
X4390Y8247D01*
X4394Y8251D01*
X4398Y8254D01*
X4400Y8256D01*
X4401Y8256D01*
X4409Y8261D01*
X4417Y8264D01*
X4425Y8267D01*
X4432Y8268D01*
X4438Y8269D01*
X4442Y8270D01*
X4444D01*
X4445D01*
X4446D01*
X4446D01*
X4454Y8270D01*
D02*
G37*
G36*
X4617Y7901D02*
X4463Y7861D01*
X4617Y7822D01*
Y7719D01*
X4364D01*
Y7783D01*
X4557D01*
X4364Y7832D01*
Y7890D01*
X4557Y7940D01*
X4364D01*
Y8004D01*
X4617D01*
Y7901D01*
D02*
G37*
G36*
X4504Y7677D02*
X4514Y7677D01*
X4524Y7675D01*
X4533Y7672D01*
X4542Y7670D01*
X4549Y7667D01*
X4556Y7664D01*
X4563Y7661D01*
X4568Y7658D01*
X4573Y7654D01*
X4578Y7651D01*
X4581Y7649D01*
X4584Y7646D01*
X4586Y7645D01*
X4587Y7644D01*
X4587Y7643D01*
X4593Y7636D01*
X4598Y7629D01*
X4603Y7622D01*
X4607Y7614D01*
X4610Y7606D01*
X4613Y7598D01*
X4615Y7590D01*
X4617Y7582D01*
X4619Y7575D01*
X4620Y7568D01*
X4621Y7562D01*
X4621Y7556D01*
X4621Y7552D01*
Y7546D01*
X4621Y7535D01*
X4620Y7525D01*
X4618Y7514D01*
X4616Y7505D01*
X4614Y7496D01*
X4610Y7488D01*
X4608Y7481D01*
X4604Y7475D01*
X4601Y7469D01*
X4598Y7464D01*
X4595Y7460D01*
X4592Y7456D01*
X4590Y7453D01*
X4588Y7452D01*
X4587Y7450D01*
X4587Y7450D01*
X4580Y7444D01*
X4573Y7439D01*
X4565Y7434D01*
X4557Y7430D01*
X4549Y7427D01*
X4541Y7424D01*
X4533Y7422D01*
X4525Y7420D01*
X4518Y7418D01*
X4512Y7417D01*
X4506Y7416D01*
X4500Y7416D01*
X4496D01*
X4493Y7416D01*
X4491D01*
X4490D01*
X4475Y7416D01*
X4460Y7418D01*
X4453Y7420D01*
X4447Y7421D01*
X4442Y7422D01*
X4437Y7424D01*
X4432Y7426D01*
X4428Y7427D01*
X4425Y7428D01*
X4422Y7430D01*
X4420Y7431D01*
X4418Y7432D01*
X4417Y7433D01*
X4416D01*
X4406Y7440D01*
X4397Y7447D01*
X4390Y7455D01*
X4384Y7462D01*
X4379Y7469D01*
X4376Y7474D01*
X4375Y7476D01*
X4374Y7477D01*
X4373Y7478D01*
Y7478D01*
X4369Y7489D01*
X4366Y7501D01*
X4363Y7513D01*
X4362Y7524D01*
X4361Y7530D01*
Y7534D01*
X4360Y7538D01*
X4360Y7542D01*
Y7549D01*
X4360Y7564D01*
X4362Y7578D01*
X4365Y7590D01*
X4366Y7595D01*
X4368Y7600D01*
X4369Y7605D01*
X4371Y7609D01*
X4372Y7612D01*
X4373Y7615D01*
X4374Y7617D01*
X4375Y7618D01*
X4376Y7619D01*
Y7620D01*
X4382Y7630D01*
X4389Y7638D01*
X4396Y7646D01*
X4403Y7652D01*
X4410Y7657D01*
X4415Y7660D01*
X4417Y7661D01*
X4418Y7662D01*
X4419Y7663D01*
X4420D01*
X4431Y7668D01*
X4443Y7671D01*
X4455Y7674D01*
X4467Y7676D01*
X4472Y7677D01*
X4477Y7677D01*
X4482Y7677D01*
X4485Y7678D01*
X4488D01*
X4491D01*
X4492D01*
X4493D01*
X4504Y7677D01*
D02*
G37*
G36*
X4445Y7384D02*
X4452Y7382D01*
X4459Y7380D01*
X4465Y7378D01*
X4469Y7375D01*
X4473Y7373D01*
X4475Y7372D01*
X4476Y7371D01*
X4482Y7366D01*
X4486Y7360D01*
X4490Y7353D01*
X4494Y7346D01*
X4496Y7340D01*
X4497Y7336D01*
X4498Y7334D01*
Y7332D01*
X4499Y7331D01*
Y7331D01*
X4501Y7337D01*
X4504Y7343D01*
X4507Y7348D01*
X4510Y7351D01*
X4512Y7355D01*
X4514Y7356D01*
X4515Y7358D01*
X4516Y7358D01*
X4522Y7363D01*
X4529Y7367D01*
X4535Y7369D01*
X4541Y7371D01*
X4546Y7372D01*
X4550Y7373D01*
X4553D01*
X4554D01*
X4554D01*
X4559D01*
X4564Y7372D01*
X4573Y7369D01*
X4580Y7366D01*
X4586Y7363D01*
X4592Y7359D01*
X4596Y7356D01*
X4598Y7354D01*
X4599Y7353D01*
Y7353D01*
X4605Y7344D01*
X4609Y7336D01*
X4613Y7326D01*
X4615Y7317D01*
X4616Y7309D01*
X4617Y7306D01*
Y7302D01*
X4617Y7300D01*
Y7150D01*
X4364D01*
Y7289D01*
X4365Y7294D01*
X4365Y7300D01*
X4366Y7306D01*
X4366Y7311D01*
X4367Y7316D01*
Y7318D01*
X4367Y7319D01*
Y7320D01*
X4369Y7327D01*
X4370Y7333D01*
X4371Y7338D01*
X4372Y7342D01*
X4374Y7345D01*
X4375Y7348D01*
X4376Y7349D01*
Y7349D01*
X4379Y7355D01*
X4384Y7360D01*
X4388Y7365D01*
X4392Y7368D01*
X4395Y7371D01*
X4398Y7373D01*
X4400Y7374D01*
X4401Y7375D01*
X4407Y7378D01*
X4413Y7380D01*
X4419Y7382D01*
X4424Y7383D01*
X4429Y7384D01*
X4433Y7384D01*
X4435D01*
X4436D01*
X4445Y7384D01*
D02*
G37*
G36*
X4522Y6909D02*
X4617Y7002D01*
Y6898D01*
X4521Y6816D01*
X4617D01*
Y6738D01*
X4364D01*
Y6816D01*
X4426D01*
X4468Y6856D01*
X4364Y6910D01*
Y7006D01*
X4522Y6909D01*
D02*
G37*
G36*
X4468Y6631D02*
X4459Y6629D01*
X4452Y6626D01*
X4445Y6623D01*
X4440Y6620D01*
X4436Y6618D01*
X4433Y6616D01*
X4432Y6614D01*
X4431Y6614D01*
X4427Y6609D01*
X4424Y6604D01*
X4422Y6598D01*
X4420Y6593D01*
X4419Y6588D01*
X4419Y6583D01*
Y6580D01*
X4419Y6571D01*
X4421Y6564D01*
X4423Y6558D01*
X4427Y6553D01*
X4429Y6549D01*
X4432Y6546D01*
X4433Y6544D01*
X4434Y6544D01*
X4437Y6541D01*
X4441Y6540D01*
X4450Y6536D01*
X4459Y6534D01*
X4469Y6533D01*
X4477Y6532D01*
X4482D01*
X4485Y6531D01*
X4488D01*
X4490D01*
X4491D01*
X4492D01*
X4504Y6532D01*
X4514Y6533D01*
X4522Y6534D01*
X4529Y6537D01*
X4534Y6539D01*
X4538Y6540D01*
X4540Y6541D01*
X4541Y6542D01*
X4545Y6545D01*
X4548Y6547D01*
X4554Y6554D01*
X4558Y6561D01*
X4560Y6567D01*
X4562Y6573D01*
X4562Y6578D01*
X4563Y6580D01*
Y6587D01*
X4562Y6591D01*
X4561Y6595D01*
X4561Y6598D01*
X4560Y6600D01*
X4559Y6602D01*
X4558Y6603D01*
X4558Y6604D01*
X4554Y6610D01*
X4549Y6615D01*
X4547Y6617D01*
X4545Y6619D01*
X4544Y6619D01*
X4544Y6620D01*
X4542Y6621D01*
X4539Y6623D01*
X4534Y6625D01*
X4531Y6626D01*
X4529Y6627D01*
X4528Y6628D01*
X4527D01*
X4542Y6697D01*
X4550Y6694D01*
X4557Y6692D01*
X4563Y6688D01*
X4569Y6685D01*
X4574Y6682D01*
X4579Y6678D01*
X4584Y6675D01*
X4587Y6672D01*
X4591Y6668D01*
X4594Y6666D01*
X4597Y6663D01*
X4598Y6661D01*
X4600Y6659D01*
X4601Y6657D01*
X4602Y6656D01*
Y6656D01*
X4605Y6650D01*
X4609Y6645D01*
X4613Y6633D01*
X4617Y6620D01*
X4619Y6608D01*
X4620Y6602D01*
X4621Y6597D01*
X4621Y6593D01*
Y6589D01*
X4621Y6585D01*
Y6581D01*
X4621Y6570D01*
X4620Y6559D01*
X4618Y6549D01*
X4616Y6540D01*
X4614Y6532D01*
X4611Y6524D01*
X4608Y6516D01*
X4605Y6510D01*
X4602Y6504D01*
X4598Y6500D01*
X4596Y6496D01*
X4593Y6492D01*
X4591Y6490D01*
X4589Y6487D01*
X4588Y6486D01*
X4588Y6486D01*
X4581Y6480D01*
X4574Y6475D01*
X4567Y6471D01*
X4559Y6467D01*
X4550Y6463D01*
X4542Y6461D01*
X4535Y6459D01*
X4527Y6457D01*
X4519Y6455D01*
X4513Y6455D01*
X4507Y6454D01*
X4501Y6453D01*
X4497D01*
X4494Y6453D01*
X4492D01*
X4491D01*
X4475Y6454D01*
X4467Y6455D01*
X4459Y6455D01*
X4452Y6457D01*
X4446Y6459D01*
X4440Y6461D01*
X4435Y6462D01*
X4430Y6464D01*
X4426Y6466D01*
X4422Y6467D01*
X4419Y6469D01*
X4417Y6470D01*
X4415Y6471D01*
X4414Y6472D01*
X4414D01*
X4403Y6479D01*
X4394Y6486D01*
X4387Y6494D01*
X4381Y6501D01*
X4377Y6507D01*
X4374Y6512D01*
X4373Y6514D01*
X4372Y6516D01*
X4372Y6516D01*
Y6516D01*
X4368Y6527D01*
X4365Y6538D01*
X4363Y6550D01*
X4361Y6560D01*
X4361Y6565D01*
X4360Y6570D01*
Y6574D01*
X4360Y6577D01*
Y6584D01*
X4360Y6596D01*
X4361Y6607D01*
X4363Y6617D01*
X4365Y6625D01*
X4366Y6631D01*
X4368Y6637D01*
X4369Y6638D01*
X4369Y6639D01*
X4370Y6640D01*
Y6640D01*
X4374Y6648D01*
X4378Y6656D01*
X4383Y6662D01*
X4388Y6667D01*
X4392Y6671D01*
X4396Y6674D01*
X4398Y6677D01*
X4399Y6677D01*
X4407Y6683D01*
X4415Y6687D01*
X4422Y6691D01*
X4430Y6694D01*
X4437Y6697D01*
X4442Y6698D01*
X4444Y6698D01*
X4445Y6699D01*
X4446Y6699D01*
X4447D01*
X4468Y6631D01*
D02*
G37*
G36*
X4617Y6342D02*
Y6256D01*
X4364Y6161D01*
Y6241D01*
X4406Y6254D01*
Y6342D01*
X4364Y6355D01*
Y6437D01*
X4617Y6342D01*
D02*
G37*
G36*
X4419Y6004D02*
X4567Y6146D01*
X4617D01*
Y5925D01*
X4563D01*
Y6052D01*
X4416Y5911D01*
X4364D01*
Y6151D01*
X4419D01*
Y6004D01*
D02*
G37*
G36*
X2509Y8336D02*
X2392D01*
Y8490D01*
X2263D01*
Y8336D01*
X2145D01*
Y8715D01*
X2263D01*
Y8583D01*
X2392D01*
Y8715D01*
X2509D01*
Y8336D01*
D02*
G37*
G36*
X2068D02*
X1859D01*
X1852Y8337D01*
X1844Y8338D01*
X1835Y8339D01*
X1826Y8340D01*
X1819Y8340D01*
X1817D01*
X1814Y8341D01*
X1813D01*
X1803Y8343D01*
X1794Y8345D01*
X1786Y8347D01*
X1780Y8349D01*
X1775Y8351D01*
X1772Y8352D01*
X1769Y8354D01*
X1769D01*
X1760Y8359D01*
X1753Y8365D01*
X1746Y8372D01*
X1740Y8378D01*
X1736Y8383D01*
X1734Y8387D01*
X1731Y8390D01*
X1731Y8391D01*
X1726Y8400D01*
X1722Y8409D01*
X1720Y8418D01*
X1718Y8426D01*
X1718Y8433D01*
X1717Y8439D01*
Y8442D01*
Y8443D01*
X1718Y8457D01*
X1720Y8468D01*
X1723Y8479D01*
X1727Y8487D01*
X1730Y8494D01*
X1734Y8500D01*
X1736Y8502D01*
X1736Y8504D01*
X1745Y8512D01*
X1754Y8519D01*
X1764Y8525D01*
X1774Y8530D01*
X1783Y8533D01*
X1790Y8536D01*
X1792Y8537D01*
X1794D01*
X1796Y8538D01*
X1796D01*
X1787Y8542D01*
X1778Y8546D01*
X1772Y8550D01*
X1766Y8554D01*
X1761Y8558D01*
X1758Y8560D01*
X1756Y8563D01*
X1756Y8563D01*
X1749Y8573D01*
X1743Y8583D01*
X1740Y8592D01*
X1737Y8601D01*
X1736Y8609D01*
X1734Y8615D01*
Y8619D01*
Y8620D01*
Y8621D01*
Y8628D01*
X1736Y8635D01*
X1739Y8648D01*
X1744Y8659D01*
X1749Y8669D01*
X1754Y8677D01*
X1759Y8683D01*
X1763Y8686D01*
X1763Y8688D01*
X1764D01*
X1776Y8697D01*
X1790Y8704D01*
X1803Y8709D01*
X1817Y8712D01*
X1830Y8714D01*
X1835Y8715D01*
X1839D01*
X1843Y8715D01*
X2068D01*
Y8336D01*
D02*
G37*
G36*
X1521Y8721D02*
X1540Y8720D01*
X1556Y8717D01*
X1563Y8715D01*
X1569Y8714D01*
X1575Y8713D01*
X1580Y8711D01*
X1584Y8710D01*
X1587Y8709D01*
X1590Y8708D01*
X1592Y8707D01*
X1593Y8706D01*
X1594D01*
X1605Y8700D01*
X1616Y8694D01*
X1625Y8687D01*
X1632Y8681D01*
X1637Y8675D01*
X1641Y8670D01*
X1644Y8667D01*
X1645Y8666D01*
X1650Y8656D01*
X1655Y8646D01*
X1657Y8637D01*
X1659Y8628D01*
X1661Y8621D01*
X1662Y8615D01*
Y8612D01*
Y8611D01*
Y8610D01*
X1661Y8602D01*
X1660Y8594D01*
X1657Y8580D01*
X1651Y8568D01*
X1645Y8558D01*
X1639Y8549D01*
X1634Y8542D01*
X1630Y8539D01*
X1629Y8538D01*
Y8538D01*
X1622Y8532D01*
X1614Y8527D01*
X1598Y8518D01*
X1580Y8511D01*
X1561Y8504D01*
X1553Y8501D01*
X1545Y8499D01*
X1538Y8497D01*
X1531Y8495D01*
X1527Y8494D01*
X1522Y8493D01*
X1520Y8492D01*
X1519D01*
X1511Y8490D01*
X1503Y8488D01*
X1496Y8486D01*
X1490Y8484D01*
X1480Y8480D01*
X1471Y8477D01*
X1466Y8474D01*
X1462Y8472D01*
X1459Y8470D01*
X1459Y8470D01*
X1455Y8466D01*
X1451Y8461D01*
X1449Y8457D01*
X1447Y8452D01*
X1446Y8449D01*
X1446Y8446D01*
Y8444D01*
Y8443D01*
X1446Y8438D01*
X1448Y8432D01*
X1450Y8428D01*
X1453Y8423D01*
X1455Y8421D01*
X1457Y8418D01*
X1459Y8417D01*
X1459Y8416D01*
X1465Y8412D01*
X1471Y8410D01*
X1477Y8407D01*
X1484Y8406D01*
X1490Y8405D01*
X1494Y8405D01*
X1498D01*
X1510Y8405D01*
X1520Y8408D01*
X1529Y8412D01*
X1537Y8417D01*
X1543Y8421D01*
X1547Y8424D01*
X1549Y8427D01*
X1550Y8428D01*
X1554Y8433D01*
X1557Y8440D01*
X1561Y8454D01*
X1563Y8459D01*
X1564Y8464D01*
X1565Y8468D01*
Y8469D01*
X1676Y8461D01*
X1675Y8451D01*
X1673Y8441D01*
X1668Y8423D01*
X1661Y8406D01*
X1653Y8392D01*
X1650Y8387D01*
X1646Y8381D01*
X1643Y8377D01*
X1640Y8374D01*
X1638Y8371D01*
X1636Y8369D01*
X1635Y8367D01*
X1635Y8367D01*
X1627Y8360D01*
X1618Y8355D01*
X1608Y8349D01*
X1598Y8345D01*
X1576Y8339D01*
X1554Y8335D01*
X1543Y8333D01*
X1533Y8332D01*
X1524Y8331D01*
X1516Y8331D01*
X1509Y8330D01*
X1500D01*
X1480Y8331D01*
X1463Y8332D01*
X1447Y8335D01*
X1434Y8338D01*
X1428Y8339D01*
X1423Y8340D01*
X1419Y8342D01*
X1415Y8343D01*
X1412Y8344D01*
X1410Y8345D01*
X1410Y8345D01*
X1409D01*
X1396Y8352D01*
X1385Y8359D01*
X1375Y8367D01*
X1367Y8374D01*
X1361Y8381D01*
X1356Y8387D01*
X1353Y8390D01*
X1352Y8392D01*
X1345Y8403D01*
X1340Y8415D01*
X1336Y8427D01*
X1334Y8437D01*
X1333Y8446D01*
X1331Y8453D01*
Y8456D01*
Y8458D01*
Y8459D01*
Y8459D01*
X1332Y8470D01*
X1334Y8482D01*
X1336Y8491D01*
X1339Y8499D01*
X1342Y8506D01*
X1345Y8511D01*
X1346Y8514D01*
X1347Y8515D01*
X1353Y8524D01*
X1361Y8533D01*
X1369Y8540D01*
X1376Y8546D01*
X1384Y8551D01*
X1390Y8554D01*
X1394Y8556D01*
X1394Y8557D01*
X1395D01*
X1402Y8560D01*
X1410Y8563D01*
X1426Y8569D01*
X1445Y8576D01*
X1463Y8580D01*
X1471Y8583D01*
X1480Y8585D01*
X1487Y8587D01*
X1493Y8588D01*
X1498Y8590D01*
X1502Y8590D01*
X1505Y8591D01*
X1506D01*
X1516Y8593D01*
X1525Y8596D01*
X1531Y8598D01*
X1536Y8600D01*
X1540Y8602D01*
X1543Y8603D01*
X1544Y8605D01*
X1545D01*
X1547Y8607D01*
X1549Y8610D01*
X1552Y8616D01*
X1553Y8620D01*
Y8621D01*
Y8621D01*
X1552Y8625D01*
X1552Y8630D01*
X1548Y8637D01*
X1545Y8641D01*
X1544Y8641D01*
X1543Y8642D01*
X1539Y8645D01*
X1534Y8648D01*
X1524Y8650D01*
X1519Y8650D01*
X1516Y8651D01*
X1512D01*
X1503Y8650D01*
X1495Y8649D01*
X1489Y8648D01*
X1483Y8646D01*
X1479Y8643D01*
X1476Y8641D01*
X1474Y8640D01*
X1473Y8639D01*
X1468Y8634D01*
X1464Y8628D01*
X1462Y8622D01*
X1459Y8616D01*
X1457Y8611D01*
X1455Y8606D01*
X1455Y8603D01*
Y8602D01*
X1344Y8608D01*
X1346Y8619D01*
X1348Y8629D01*
X1351Y8638D01*
X1354Y8646D01*
X1358Y8654D01*
X1362Y8661D01*
X1365Y8668D01*
X1370Y8673D01*
X1377Y8682D01*
X1383Y8689D01*
X1388Y8693D01*
X1389Y8694D01*
X1390D01*
X1397Y8699D01*
X1406Y8703D01*
X1423Y8710D01*
X1441Y8715D01*
X1459Y8718D01*
X1468Y8720D01*
X1475Y8720D01*
X1482Y8721D01*
X1489D01*
X1493Y8722D01*
X1500D01*
X1521Y8721D01*
D02*
G37*
%LPC*%
G36*
X6916Y8106D02*
X6911Y8104D01*
X6910Y8102D01*
X6910Y8032D01*
X6911Y8027D01*
X6913Y8026D01*
X6916Y8024D01*
X6923Y8026D01*
X6935Y8027D01*
X6937Y8028D01*
X6947Y8028D01*
X6951Y8030D01*
X6954Y8031D01*
X6960Y8032D01*
X6967Y8033D01*
X6974Y8033D01*
X6982Y8034D01*
X6990Y8036D01*
X6996Y8037D01*
X7000Y8038D01*
X7002Y8039D01*
X7009Y8039D01*
X7025Y8041D01*
X7029Y8042D01*
X7036Y8044D01*
X7040Y8045D01*
X7048Y8045D01*
X7054Y8046D01*
X7062Y8047D01*
X7065Y8047D01*
X7070Y8049D01*
X7073Y8050D01*
X7082Y8051D01*
X7084Y8051D01*
X7092Y8052D01*
X7098Y8052D01*
X7105Y8055D01*
X7112Y8055D01*
X7117Y8057D01*
X7121Y8057D01*
X7131Y8058D01*
X7144Y8059D01*
X7147Y8060D01*
X7148Y8062D01*
X7143Y8066D01*
X7141Y8067D01*
X7137Y8068D01*
X7128Y8069D01*
X7121Y8070D01*
X7111Y8071D01*
X7107Y8072D01*
X7102Y8074D01*
X7098Y8074D01*
X7093Y8075D01*
X7084Y8076D01*
X7081Y8077D01*
X7077Y8077D01*
X7076D01*
X7073Y8078D01*
X7070Y8078D01*
X7063Y8081D01*
X7058Y8081D01*
X7050Y8082D01*
X7046Y8083D01*
X7039Y8084D01*
X7033Y8085D01*
X7031Y8086D01*
X7027Y8087D01*
X7025Y8087D01*
X7015Y8088D01*
X7006Y8089D01*
X7001Y8090D01*
X6998Y8091D01*
X6996Y8092D01*
X6991Y8093D01*
X6985Y8094D01*
X6983Y8094D01*
X6971Y8095D01*
X6967Y8096D01*
X6963Y8097D01*
X6961Y8098D01*
X6956Y8099D01*
X6954Y8099D01*
X6946Y8100D01*
X6944Y8101D01*
X6937Y8101D01*
X6933Y8102D01*
X6927Y8103D01*
X6922Y8105D01*
X6916Y8106D01*
D02*
G37*
G36*
X7218Y7230D02*
X6760D01*
X6757Y7229D01*
X6755Y7225D01*
X6754Y7216D01*
X6753Y7211D01*
X6752Y7209D01*
X6752Y7203D01*
X6752Y7165D01*
X6753Y7163D01*
X6752Y7162D01*
X6752Y7155D01*
X6753Y7151D01*
X6754Y7145D01*
X6755Y7144D01*
X6754Y7140D01*
X6755Y7135D01*
X6756Y7134D01*
X7238Y7134D01*
X7241Y7134D01*
X7242Y7136D01*
X7243Y7144D01*
X7243Y7149D01*
X7244Y7151D01*
X7245Y7209D01*
X7244Y7211D01*
X7243Y7213D01*
X7243Y7221D01*
X7242Y7227D01*
X7240Y7229D01*
X7218Y7230D01*
D02*
G37*
G36*
X1918Y6981D02*
X1915Y6981D01*
X1913Y6977D01*
X1910Y6974D01*
X1899Y6975D01*
X1896Y6974D01*
X1894Y6970D01*
X1892Y6969D01*
X1885Y6968D01*
X1882Y6967D01*
X1879Y6963D01*
X1878Y6962D01*
X1874Y6961D01*
X1867Y6962D01*
X1862Y6961D01*
X1859Y6955D01*
X1849Y6955D01*
X1848Y6954D01*
X1846Y6950D01*
X1844Y6948D01*
X1835Y6947D01*
X1833Y6944D01*
X1829Y6940D01*
X1818Y6941D01*
X1814Y6940D01*
X1812Y6937D01*
X1810Y6934D01*
X1801Y6934D01*
X1799Y6930D01*
X1796Y6927D01*
X1784Y6928D01*
X1781Y6927D01*
X1778Y6923D01*
X1777Y6921D01*
X1770Y6921D01*
X1767Y6920D01*
X1764Y6915D01*
X1761Y6914D01*
X1750Y6914D01*
X1746Y6913D01*
X1745Y6911D01*
X1745Y6910D01*
X1742Y6907D01*
X1737Y6907D01*
X1735Y6907D01*
X1718Y6907D01*
X1709Y6907D01*
X1706Y6907D01*
X1704Y6903D01*
X1702Y6901D01*
X1700Y6900D01*
X1698Y6898D01*
X1697Y6896D01*
X1695Y6894D01*
X1692Y6893D01*
X1689Y6894D01*
X1686Y6893D01*
X1685Y6892D01*
X1683Y6889D01*
X1682Y6887D01*
X1680Y6886D01*
X1666Y6887D01*
X1665Y6885D01*
X1663Y6881D01*
X1659Y6880D01*
X1648Y6880D01*
X1645Y6879D01*
X1644Y6877D01*
X1643Y6876D01*
X1642Y6875D01*
X1639Y6873D01*
X1628Y6873D01*
X1624Y6872D01*
X1622Y6869D01*
X1621Y6867D01*
X1598Y6866D01*
X1596Y6867D01*
X1592Y6866D01*
X1588Y6862D01*
X1588Y6861D01*
X1585Y6859D01*
X1584Y6859D01*
X1582Y6857D01*
X1581Y6853D01*
X1583Y6848D01*
X1585Y6847D01*
X1594Y6846D01*
X1604Y6847D01*
X1606Y6846D01*
X1608Y6845D01*
X1610Y6841D01*
X1611Y6840D01*
X1613Y6839D01*
X1618Y6839D01*
X1621Y6838D01*
X1623Y6835D01*
X1625Y6833D01*
X1629Y6832D01*
X1633Y6832D01*
X1635Y6833D01*
X1640Y6832D01*
X1641Y6831D01*
X1644Y6828D01*
X1647Y6825D01*
X1652Y6826D01*
X1655Y6825D01*
X1657Y6821D01*
X1659Y6820D01*
X1661Y6819D01*
X1672Y6819D01*
X1675Y6818D01*
X1677Y6814D01*
X1679Y6813D01*
X1685Y6812D01*
X1690Y6813D01*
X1695Y6812D01*
X1696Y6811D01*
X1698Y6807D01*
X1699Y6806D01*
X1706Y6806D01*
X1709Y6805D01*
X1711Y6802D01*
X1713Y6799D01*
X1716Y6798D01*
X1721Y6798D01*
X1724Y6799D01*
X1729Y6798D01*
X1731Y6795D01*
X1732Y6794D01*
X1735Y6791D01*
X1736Y6791D01*
X1737Y6789D01*
X1738Y6788D01*
X1740Y6786D01*
X1742Y6785D01*
X1755Y6785D01*
X1757Y6784D01*
X1759Y6780D01*
X1761Y6778D01*
X1770Y6778D01*
X1773Y6773D01*
X1776Y6771D01*
X1782Y6772D01*
X1785Y6769D01*
X1785Y6768D01*
X1788Y6765D01*
X1789Y6765D01*
X1791Y6763D01*
X1792Y6761D01*
X1795Y6758D01*
X1796Y6758D01*
X1797Y6756D01*
X1800Y6753D01*
X1803Y6751D01*
X1837Y6751D01*
X1840Y6747D01*
X1841Y6746D01*
X1843Y6744D01*
X1855Y6745D01*
X1859Y6743D01*
X1860Y6740D01*
X1861Y6739D01*
X1864Y6737D01*
X1876Y6738D01*
X1878Y6737D01*
X1882Y6731D01*
X1890Y6731D01*
X1892Y6730D01*
X1894Y6726D01*
X1897Y6724D01*
X1909Y6724D01*
X1912Y6724D01*
X1915Y6720D01*
X1915Y6718D01*
X1919Y6717D01*
X1930Y6717D01*
X1935Y6717D01*
X1940Y6718D01*
X1941Y6720D01*
X1942Y6721D01*
X1945Y6724D01*
X1957Y6724D01*
X1960Y6725D01*
X1962Y6728D01*
X1964Y6730D01*
X1971Y6731D01*
X1974Y6731D01*
X1976Y6736D01*
X1979Y6738D01*
X1991Y6737D01*
X1994Y6738D01*
X1997Y6743D01*
X2006Y6744D01*
X2007Y6745D01*
X2009Y6749D01*
X2011Y6750D01*
X2019Y6751D01*
X2022Y6750D01*
X2027Y6751D01*
X2028Y6752D01*
X2030Y6756D01*
X2033Y6758D01*
X2038Y6758D01*
X2041Y6759D01*
X2043Y6762D01*
X2045Y6764D01*
X2048Y6765D01*
X2081Y6765D01*
X2084Y6768D01*
X2084Y6769D01*
X2087Y6772D01*
X2089Y6772D01*
X2091Y6776D01*
X2092Y6777D01*
X2099Y6778D01*
X2102Y6779D01*
X2106Y6784D01*
X2109Y6785D01*
X2119Y6784D01*
X2122Y6785D01*
X2125Y6789D01*
X2128Y6792D01*
X2133Y6791D01*
X2135Y6792D01*
X2137Y6793D01*
X2139Y6797D01*
X2143Y6799D01*
X2150Y6798D01*
X2152Y6798D01*
X2154Y6798D01*
X2157Y6799D01*
X2159Y6804D01*
X2162Y6806D01*
X2167Y6805D01*
X2169Y6806D01*
X2170Y6807D01*
X2173Y6810D01*
X2174Y6811D01*
X2176Y6812D01*
X2189Y6812D01*
X2191Y6814D01*
X2193Y6817D01*
X2194Y6818D01*
X2199Y6819D01*
X2206Y6818D01*
X2211Y6820D01*
X2213Y6824D01*
X2217Y6826D01*
X2221Y6825D01*
X2224Y6826D01*
X2226Y6829D01*
X2227Y6831D01*
X2228Y6832D01*
X2231Y6833D01*
X2248Y6832D01*
X2251Y6833D01*
X2253Y6836D01*
X2254Y6837D01*
X2255Y6838D01*
X2256Y6839D01*
X2262Y6844D01*
X2266Y6847D01*
X2266Y6852D01*
X2263Y6854D01*
X2261Y6853D01*
X2255Y6853D01*
X2253Y6857D01*
X2249Y6860D01*
X2238Y6859D01*
X2235Y6860D01*
X2233Y6864D01*
X2232Y6865D01*
X2228Y6867D01*
X2222Y6866D01*
X2220Y6866D01*
X2215Y6866D01*
X2214Y6867D01*
X2212Y6871D01*
X2210Y6873D01*
X2207Y6873D01*
X2205Y6873D01*
X2201Y6873D01*
X2199Y6876D01*
X2199Y6877D01*
X2197Y6879D01*
X2195Y6880D01*
X2193Y6882D01*
X2191Y6886D01*
X2181Y6887D01*
X2180Y6888D01*
X2178Y6891D01*
X2176Y6893D01*
X2171Y6894D01*
X2169Y6893D01*
X2152Y6893D01*
X2145Y6893D01*
X2143D01*
X2140Y6894D01*
X2139Y6895D01*
X2137Y6898D01*
X2136Y6900D01*
X2127Y6901D01*
X2125Y6904D01*
X2122Y6907D01*
X2119Y6907D01*
X2116Y6907D01*
X2113Y6907D01*
X2110Y6912D01*
X2107Y6914D01*
X2095Y6914D01*
X2092Y6914D01*
X2089Y6920D01*
X2080Y6921D01*
X2079Y6922D01*
X2076Y6925D01*
X2075Y6927D01*
X2069Y6928D01*
X2067Y6927D01*
X2063Y6927D01*
X2055Y6927D01*
X2052Y6928D01*
X2050Y6931D01*
X2049Y6932D01*
X2045Y6935D01*
X2043Y6939D01*
X2041Y6940D01*
X2034Y6941D01*
X2032Y6940D01*
X2031Y6941D01*
X2021Y6940D01*
X2018Y6942D01*
X2016Y6945D01*
X2014Y6947D01*
X2007Y6948D01*
X2004Y6948D01*
X2002Y6953D01*
X2001Y6954D01*
X1991Y6955D01*
X1990Y6956D01*
X1988Y6959D01*
X1986Y6961D01*
X1981Y6962D01*
X1979Y6961D01*
X1975Y6961D01*
X1967Y6961D01*
X1963Y6962D01*
X1961Y6966D01*
X1960Y6967D01*
X1953Y6968D01*
X1950Y6969D01*
X1947Y6973D01*
X1946Y6974D01*
X1938Y6975D01*
X1936Y6974D01*
X1936Y6975D01*
X1926Y6974D01*
X1924Y6975D01*
X1921Y6980D01*
X1920Y6981D01*
X1918Y6981D01*
D02*
G37*
G36*
X1048Y7133D02*
X1046Y7133D01*
X1046Y7132D01*
Y7132D01*
X1047Y7131D01*
X1048Y7132D01*
X1048Y7133D01*
D02*
G37*
G36*
X994Y7006D02*
X994Y7004D01*
X995Y7003D01*
X995Y7003D01*
X995Y7003D01*
X996Y7005D01*
X994Y7006D01*
D02*
G37*
G36*
X6278Y6998D02*
X6274Y6997D01*
X6265Y6996D01*
X6259Y6995D01*
X6257Y6994D01*
X6252Y6994D01*
X6250Y6993D01*
X6247Y6992D01*
X6245Y6991D01*
X6243Y6989D01*
X6237Y6987D01*
X6233Y6984D01*
X6230Y6982D01*
X6226Y6978D01*
X6225Y6977D01*
X6224Y6976D01*
X6223Y6975D01*
X6223Y6975D01*
X6222Y6973D01*
X6221Y6972D01*
X6220Y6971D01*
X6219Y6969D01*
X6218Y6969D01*
X6217Y6968D01*
X6215Y6964D01*
X6212Y6957D01*
X6211Y6956D01*
X6209Y6951D01*
X6209Y6948D01*
X6208Y6944D01*
X6205Y6938D01*
X6203Y6934D01*
X6203Y6931D01*
X6202Y6924D01*
X6202Y6902D01*
X6202Y6774D01*
X6201Y6772D01*
X6202Y6762D01*
X6203Y6759D01*
X6206Y6758D01*
X6352Y6758D01*
X6354Y6759D01*
X6356Y6762D01*
X6357Y6786D01*
Y6902D01*
X6356Y6905D01*
X6356Y6917D01*
X6355Y6923D01*
X6354Y6931D01*
X6354Y6936D01*
X6353Y6942D01*
X6350Y6949D01*
X6348Y6955D01*
X6348Y6957D01*
X6345Y6961D01*
X6341Y6968D01*
X6341Y6969D01*
X6339Y6971D01*
X6339Y6972D01*
X6337Y6973D01*
X6337Y6975D01*
X6331Y6981D01*
X6329Y6981D01*
X6328Y6983D01*
X6326Y6984D01*
X6325Y6985D01*
X6324Y6986D01*
X6323Y6987D01*
X6317Y6989D01*
X6316Y6990D01*
X6314Y6991D01*
X6313Y6992D01*
X6310Y6994D01*
X6303Y6995D01*
X6299Y6995D01*
X6294Y6996D01*
X6292Y6997D01*
X6278Y6998D01*
D02*
G37*
G36*
X6012Y7017D02*
X5989Y7017D01*
X5984Y7016D01*
X5981Y7016D01*
X5978Y7015D01*
X5975Y7014D01*
X5970Y7013D01*
X5965Y7012D01*
X5963Y7012D01*
X5960Y7010D01*
X5958Y7008D01*
X5952Y7005D01*
X5951Y7005D01*
X5949Y7003D01*
X5946Y7000D01*
X5944Y7000D01*
X5941Y6996D01*
X5940Y6995D01*
X5938Y6992D01*
X5935Y6987D01*
X5933Y6985D01*
X5933Y6984D01*
X5932Y6983D01*
X5928Y6978D01*
X5927Y6975D01*
X5925Y6972D01*
X5924Y6968D01*
X5923Y6962D01*
X5922Y6958D01*
X5921Y6955D01*
X5920Y6952D01*
X5919Y6949D01*
X5918Y6945D01*
X5918Y6944D01*
X5917Y6764D01*
X5918Y6760D01*
X5919Y6759D01*
X5921Y6758D01*
X6077Y6758D01*
X6079Y6759D01*
X6081Y6761D01*
X6082Y6918D01*
X6081Y6934D01*
Y6935D01*
X6080Y6942D01*
X6080Y6950D01*
X6078Y6955D01*
X6076Y6962D01*
X6075Y6967D01*
X6072Y6973D01*
X6071Y6974D01*
X6070Y6975D01*
X6069Y6980D01*
X6068Y6983D01*
X6066Y6985D01*
X6066Y6986D01*
X6064Y6987D01*
X6061Y6993D01*
X6058Y6995D01*
X6057Y6997D01*
X6054Y7000D01*
X6053Y7000D01*
X6049Y7004D01*
X6045Y7006D01*
X6041Y7009D01*
X6039Y7011D01*
X6035Y7012D01*
X6033Y7013D01*
X6030Y7013D01*
X6027Y7014D01*
X6023Y7015D01*
X6020Y7016D01*
X6014Y7017D01*
X6012Y7017D01*
D02*
G37*
G36*
X7023Y6011D02*
X7018Y6009D01*
X7016Y6006D01*
X7015Y5999D01*
Y5922D01*
X7016Y5916D01*
X7018Y5914D01*
X7237Y5913D01*
X7241Y5914D01*
X7244Y5917D01*
X7245Y5987D01*
X7244Y5991D01*
X7243Y5993D01*
X7243Y6005D01*
X7242Y6008D01*
X7241Y6009D01*
X7239Y6010D01*
X7023Y6011D01*
D02*
G37*
G36*
X6181Y5526D02*
X6178Y5525D01*
X6177D01*
X6175Y5524D01*
X6173Y5521D01*
X6172Y5433D01*
X6173Y5430D01*
X6176Y5429D01*
X6184Y5429D01*
X6186Y5429D01*
X6385Y5429D01*
X6392Y5429D01*
X6397Y5429D01*
X6399Y5430D01*
X6401Y5432D01*
X6402Y5516D01*
X6401Y5521D01*
X6398Y5524D01*
X6397Y5524D01*
X6395Y5526D01*
X6181Y5526D01*
D02*
G37*
G36*
X4109Y8348D02*
X4106D01*
X4106D01*
X4105D01*
X4098Y8348D01*
X4092Y8347D01*
X4087Y8345D01*
X4082Y8343D01*
X4079Y8342D01*
X4076Y8340D01*
X4075Y8339D01*
X4074Y8338D01*
X4071Y8335D01*
X4068Y8331D01*
X4066Y8327D01*
X4065Y8324D01*
X4064Y8320D01*
X4064Y8318D01*
Y8315D01*
X4064Y8310D01*
X4066Y8305D01*
X4068Y8300D01*
X4070Y8297D01*
X4072Y8294D01*
X4074Y8291D01*
X4075Y8290D01*
X4075Y8289D01*
X4080Y8286D01*
X4085Y8283D01*
X4091Y8282D01*
X4096Y8281D01*
X4100Y8280D01*
X4104Y8279D01*
X4106D01*
X4107D01*
X4115Y8280D01*
X4121Y8281D01*
X4126Y8282D01*
X4130Y8284D01*
X4134Y8286D01*
X4136Y8288D01*
X4138Y8288D01*
X4138Y8289D01*
X4142Y8293D01*
X4145Y8297D01*
X4147Y8301D01*
X4148Y8305D01*
X4149Y8309D01*
X4149Y8312D01*
Y8314D01*
X4149Y8319D01*
X4148Y8324D01*
X4146Y8328D01*
X4144Y8331D01*
X4142Y8334D01*
X4140Y8336D01*
X4138Y8337D01*
X4138Y8338D01*
X4133Y8341D01*
X4128Y8344D01*
X4123Y8346D01*
X4117Y8347D01*
X4113Y8348D01*
X4109Y8348D01*
D02*
G37*
G36*
X4158Y8107D02*
X4154D01*
X4152D01*
X4150D01*
X4149D01*
X4137D01*
X4127Y8106D01*
X4118Y8105D01*
X4111Y8105D01*
X4106Y8104D01*
X4102Y8103D01*
X4100Y8103D01*
X4099D01*
X4093Y8101D01*
X4088Y8099D01*
X4085Y8098D01*
X4081Y8096D01*
X4079Y8094D01*
X4077Y8093D01*
X4076Y8092D01*
X4075Y8091D01*
X4073Y8088D01*
X4071Y8085D01*
X4070Y8082D01*
X4069Y8079D01*
X4069Y8076D01*
X4068Y8074D01*
Y8072D01*
X4069Y8067D01*
X4071Y8062D01*
X4074Y8057D01*
X4077Y8054D01*
X4080Y8051D01*
X4083Y8049D01*
X4085Y8048D01*
X4086Y8047D01*
X4089Y8046D01*
X4093Y8045D01*
X4098Y8044D01*
X4103Y8043D01*
X4114Y8041D01*
X4125Y8040D01*
X4135Y8039D01*
X4140D01*
X4144Y8039D01*
X4147D01*
X4149D01*
X4151D01*
X4152D01*
X4160D01*
X4168Y8039D01*
X4175Y8040D01*
X4182Y8040D01*
X4188Y8041D01*
X4193Y8041D01*
X4198Y8042D01*
X4202Y8043D01*
X4206Y8044D01*
X4209Y8045D01*
X4211Y8045D01*
X4213Y8045D01*
X4215Y8046D01*
X4216Y8046D01*
X4217Y8047D01*
X4223Y8050D01*
X4227Y8054D01*
X4231Y8058D01*
X4233Y8063D01*
X4234Y8066D01*
X4234Y8069D01*
X4235Y8071D01*
Y8072D01*
X4234Y8078D01*
X4232Y8083D01*
X4229Y8088D01*
X4226Y8092D01*
X4223Y8094D01*
X4220Y8096D01*
X4218Y8098D01*
X4217Y8098D01*
X4214Y8099D01*
X4209Y8101D01*
X4204Y8102D01*
X4199Y8103D01*
X4188Y8105D01*
X4177Y8106D01*
X4166Y8106D01*
X4161D01*
X4158Y8107D01*
D02*
G37*
G36*
Y7517D02*
X4154D01*
X4152D01*
X4150D01*
X4149D01*
X4137D01*
X4127Y7516D01*
X4118Y7516D01*
X4111Y7515D01*
X4106Y7514D01*
X4102Y7513D01*
X4100Y7513D01*
X4099D01*
X4093Y7511D01*
X4088Y7510D01*
X4085Y7508D01*
X4081Y7506D01*
X4079Y7504D01*
X4077Y7503D01*
X4076Y7502D01*
X4075Y7501D01*
X4073Y7498D01*
X4071Y7495D01*
X4070Y7492D01*
X4069Y7489D01*
X4069Y7486D01*
X4068Y7484D01*
Y7482D01*
X4069Y7477D01*
X4071Y7472D01*
X4074Y7467D01*
X4077Y7464D01*
X4080Y7461D01*
X4083Y7459D01*
X4085Y7458D01*
X4086Y7457D01*
X4089Y7456D01*
X4093Y7455D01*
X4098Y7454D01*
X4103Y7453D01*
X4114Y7451D01*
X4125Y7450D01*
X4135Y7449D01*
X4140D01*
X4144Y7449D01*
X4147D01*
X4149D01*
X4151D01*
X4152D01*
X4160D01*
X4168Y7449D01*
X4175Y7450D01*
X4182Y7450D01*
X4188Y7451D01*
X4193Y7451D01*
X4198Y7452D01*
X4202Y7453D01*
X4206Y7454D01*
X4209Y7455D01*
X4211Y7455D01*
X4213Y7455D01*
X4215Y7456D01*
X4216Y7456D01*
X4217Y7457D01*
X4223Y7460D01*
X4227Y7464D01*
X4231Y7468D01*
X4233Y7473D01*
X4234Y7476D01*
X4234Y7479D01*
X4235Y7481D01*
Y7482D01*
X4234Y7488D01*
X4232Y7493D01*
X4229Y7498D01*
X4226Y7502D01*
X4223Y7504D01*
X4220Y7506D01*
X4218Y7508D01*
X4217Y7508D01*
X4214Y7510D01*
X4209Y7511D01*
X4204Y7512D01*
X4199Y7513D01*
X4188Y7515D01*
X4177Y7516D01*
X4166Y7516D01*
X4161D01*
X4158Y7517D01*
D02*
G37*
G36*
Y6691D02*
X4154D01*
X4152D01*
X4150D01*
X4149D01*
X4137D01*
X4127Y6690D01*
X4118Y6689D01*
X4111Y6689D01*
X4106Y6688D01*
X4102Y6687D01*
X4100Y6687D01*
X4099D01*
X4093Y6685D01*
X4088Y6683D01*
X4085Y6682D01*
X4081Y6680D01*
X4079Y6678D01*
X4077Y6677D01*
X4076Y6676D01*
X4075Y6675D01*
X4073Y6672D01*
X4071Y6669D01*
X4070Y6666D01*
X4069Y6663D01*
X4069Y6660D01*
X4068Y6658D01*
Y6656D01*
X4069Y6651D01*
X4071Y6646D01*
X4074Y6641D01*
X4077Y6638D01*
X4080Y6635D01*
X4083Y6633D01*
X4085Y6632D01*
X4086Y6631D01*
X4089Y6630D01*
X4093Y6628D01*
X4098Y6628D01*
X4103Y6627D01*
X4114Y6625D01*
X4125Y6624D01*
X4135Y6623D01*
X4140D01*
X4144Y6623D01*
X4147D01*
X4149D01*
X4151D01*
X4152D01*
X4160D01*
X4168Y6623D01*
X4175Y6624D01*
X4182Y6624D01*
X4188Y6625D01*
X4193Y6625D01*
X4198Y6626D01*
X4202Y6627D01*
X4206Y6628D01*
X4209Y6628D01*
X4211Y6629D01*
X4213Y6629D01*
X4215Y6630D01*
X4216Y6630D01*
X4217Y6631D01*
X4223Y6634D01*
X4227Y6638D01*
X4231Y6642D01*
X4233Y6647D01*
X4234Y6650D01*
X4234Y6653D01*
X4235Y6655D01*
Y6656D01*
X4234Y6662D01*
X4232Y6667D01*
X4229Y6672D01*
X4226Y6676D01*
X4223Y6678D01*
X4220Y6680D01*
X4218Y6682D01*
X4217Y6682D01*
X4214Y6683D01*
X4209Y6685D01*
X4204Y6686D01*
X4199Y6687D01*
X4188Y6689D01*
X4177Y6690D01*
X4166Y6690D01*
X4161D01*
X4158Y6691D01*
D02*
G37*
G36*
X487Y8025D02*
X481D01*
X478D01*
X476D01*
X475D01*
X458D01*
X444Y8024D01*
X432Y8023D01*
X422Y8022D01*
X414Y8021D01*
X409Y8020D01*
X406Y8019D01*
X404D01*
X397Y8017D01*
X389Y8015D01*
X384Y8012D01*
X379Y8010D01*
X376Y8007D01*
X373Y8005D01*
X372Y8004D01*
X371Y8003D01*
X368Y7998D01*
X365Y7994D01*
X364Y7990D01*
X362Y7986D01*
X362Y7982D01*
X361Y7979D01*
Y7976D01*
X362Y7969D01*
X365Y7962D01*
X369Y7956D01*
X373Y7951D01*
X378Y7947D01*
X382Y7944D01*
X384Y7942D01*
X386Y7941D01*
X391Y7940D01*
X397Y7938D01*
X403Y7936D01*
X410Y7935D01*
X426Y7932D01*
X441Y7931D01*
X456Y7930D01*
X462D01*
X467Y7930D01*
X472D01*
X475D01*
X478D01*
X478D01*
X491D01*
X502Y7930D01*
X511Y7931D01*
X521Y7932D01*
X529Y7932D01*
X537Y7933D01*
X543Y7934D01*
X549Y7936D01*
X554Y7936D01*
X559Y7938D01*
X562Y7938D01*
X564Y7939D01*
X567Y7940D01*
X568Y7940D01*
X570Y7941D01*
X578Y7945D01*
X585Y7951D01*
X589Y7957D01*
X592Y7963D01*
X594Y7968D01*
X594Y7973D01*
X595Y7975D01*
Y7976D01*
X594Y7985D01*
X591Y7992D01*
X587Y7998D01*
X583Y8004D01*
X578Y8008D01*
X574Y8010D01*
X572Y8012D01*
X570Y8013D01*
X565Y8015D01*
X559Y8017D01*
X552Y8019D01*
X545Y8020D01*
X529Y8022D01*
X513Y8024D01*
X499Y8024D01*
X492D01*
X487Y8025D01*
D02*
G37*
G36*
X4461Y8704D02*
Y8649D01*
X4551Y8676D01*
X4461Y8704D01*
D02*
G37*
G36*
X4500Y7600D02*
X4497D01*
X4495D01*
X4494D01*
X4494D01*
X4486D01*
X4479Y7599D01*
X4472Y7598D01*
X4466Y7598D01*
X4461Y7597D01*
X4456Y7595D01*
X4452Y7594D01*
X4448Y7593D01*
X4445Y7592D01*
X4442Y7590D01*
X4440Y7589D01*
X4438Y7588D01*
X4436Y7586D01*
X4435Y7586D01*
X4429Y7580D01*
X4426Y7574D01*
X4423Y7567D01*
X4421Y7561D01*
X4420Y7555D01*
X4419Y7551D01*
X4419Y7549D01*
Y7547D01*
X4420Y7538D01*
X4421Y7530D01*
X4424Y7523D01*
X4427Y7518D01*
X4430Y7513D01*
X4433Y7510D01*
X4434Y7508D01*
X4435Y7507D01*
X4439Y7505D01*
X4442Y7503D01*
X4451Y7500D01*
X4460Y7497D01*
X4469Y7495D01*
X4477Y7495D01*
X4481Y7494D01*
X4484D01*
X4487Y7494D01*
X4488D01*
X4490D01*
X4490D01*
X4497D01*
X4504Y7494D01*
X4510Y7495D01*
X4515Y7496D01*
X4520Y7497D01*
X4524Y7498D01*
X4529Y7500D01*
X4532Y7501D01*
X4538Y7503D01*
X4542Y7506D01*
X4544Y7507D01*
X4545Y7508D01*
X4551Y7513D01*
X4555Y7520D01*
X4558Y7526D01*
X4560Y7532D01*
X4561Y7537D01*
X4562Y7542D01*
X4562Y7545D01*
Y7546D01*
X4561Y7555D01*
X4560Y7562D01*
X4557Y7569D01*
X4554Y7575D01*
X4551Y7579D01*
X4548Y7582D01*
X4547Y7585D01*
X4546Y7585D01*
X4539Y7590D01*
X4530Y7594D01*
X4522Y7596D01*
X4513Y7598D01*
X4506Y7599D01*
X4502Y7599D01*
X4500Y7600D01*
D02*
G37*
G36*
X4544Y7296D02*
X4543D01*
X4542D01*
X4538Y7295D01*
X4535Y7295D01*
X4531Y7294D01*
X4529Y7292D01*
X4527Y7291D01*
X4525Y7290D01*
X4524Y7289D01*
X4524Y7288D01*
X4522Y7285D01*
X4521Y7282D01*
X4519Y7273D01*
X4518Y7269D01*
X4518Y7266D01*
Y7229D01*
X4566D01*
Y7264D01*
X4566Y7270D01*
X4565Y7275D01*
X4564Y7279D01*
X4563Y7282D01*
X4561Y7285D01*
X4561Y7287D01*
X4560Y7288D01*
X4560Y7288D01*
X4557Y7291D01*
X4554Y7293D01*
X4552Y7294D01*
X4549Y7295D01*
X4546Y7295D01*
X4544Y7296D01*
D02*
G37*
G36*
X4447Y7306D02*
X4445D01*
X4445D01*
X4441Y7305D01*
X4437Y7304D01*
X4433Y7303D01*
X4431Y7301D01*
X4428Y7300D01*
X4427Y7299D01*
X4426Y7298D01*
X4426Y7297D01*
X4423Y7294D01*
X4421Y7289D01*
X4421Y7285D01*
X4420Y7280D01*
X4419Y7276D01*
X4419Y7272D01*
Y7229D01*
X4470D01*
Y7268D01*
X4469Y7276D01*
X4469Y7282D01*
X4468Y7287D01*
X4467Y7290D01*
X4465Y7294D01*
X4464Y7296D01*
X4463Y7297D01*
X4463Y7297D01*
X4460Y7300D01*
X4457Y7302D01*
X4454Y7304D01*
X4451Y7305D01*
X4449Y7305D01*
X4447Y7306D01*
D02*
G37*
G36*
X4461Y6326D02*
Y6270D01*
X4551Y6298D01*
X4461Y6326D01*
D02*
G37*
G36*
X1949Y8639D02*
X1898D01*
X1889Y8638D01*
X1880Y8637D01*
X1874Y8636D01*
X1869Y8634D01*
X1865Y8632D01*
X1862Y8630D01*
X1861Y8630D01*
X1860Y8629D01*
X1857Y8625D01*
X1854Y8621D01*
X1852Y8617D01*
X1850Y8613D01*
X1850Y8609D01*
X1849Y8606D01*
Y8604D01*
Y8603D01*
X1850Y8597D01*
X1850Y8592D01*
X1853Y8587D01*
X1855Y8583D01*
X1857Y8580D01*
X1858Y8578D01*
X1859Y8576D01*
X1860Y8576D01*
X1865Y8573D01*
X1871Y8571D01*
X1883Y8568D01*
X1889Y8567D01*
X1894Y8567D01*
X1949D01*
Y8639D01*
D02*
G37*
G36*
Y8495D02*
X1891D01*
X1880Y8494D01*
X1871Y8493D01*
X1863Y8491D01*
X1857Y8490D01*
X1853Y8488D01*
X1849Y8486D01*
X1848Y8485D01*
X1847Y8484D01*
X1843Y8480D01*
X1840Y8476D01*
X1837Y8471D01*
X1836Y8467D01*
X1835Y8463D01*
X1835Y8460D01*
Y8458D01*
Y8457D01*
X1835Y8451D01*
X1837Y8446D01*
X1839Y8440D01*
X1841Y8436D01*
X1843Y8432D01*
X1845Y8430D01*
X1846Y8429D01*
X1847Y8428D01*
X1853Y8425D01*
X1859Y8422D01*
X1866Y8421D01*
X1873Y8419D01*
X1880Y8419D01*
X1885Y8418D01*
X1949D01*
Y8495D01*
D02*
G37*
%LPD*%
D29*
X1677Y3938D02*
D03*
X677D02*
D03*
D30*
X6988Y886D02*
D03*
X6201D02*
D03*
X5413D02*
D03*
X4626D02*
D03*
X3839D02*
D03*
X3051D02*
D03*
X2264D02*
D03*
X1476D02*
D03*
X689D02*
D03*
X6988Y1673D02*
D03*
X6201D02*
D03*
X5413D02*
D03*
X4626D02*
D03*
X3839D02*
D03*
X3051D02*
D03*
X2264D02*
D03*
X1476D02*
D03*
X689D02*
D03*
Y12795D02*
D03*
X1476D02*
D03*
X2264D02*
D03*
X3051D02*
D03*
X3839D02*
D03*
X4626D02*
D03*
X5413D02*
D03*
X6201D02*
D03*
X6988D02*
D03*
X689Y13583D02*
D03*
X1476D02*
D03*
X2264D02*
D03*
X3051D02*
D03*
X3839D02*
D03*
X4626D02*
D03*
X5413D02*
D03*
X6201D02*
D03*
X6988D02*
D03*
D31*
X664Y11713D02*
D03*
X1664D02*
D03*
X7014D02*
D03*
X6014D02*
D03*
X5014D02*
D03*
X4014D02*
D03*
D32*
X3839Y4405D02*
D03*
M02*
