M48
;Layer_Color=9474304
;FILE_FORMAT=2:4
INCH,LZ
;TYPE=PLATED
T1F00S00C0.0100
T2F00S00C0.0315
T3F00S00C0.0400
T4F00S00C0.0420
T5F00S00C0.1181
%
T01
X00243Y00545
X00627Y00731
X00574Y0089
X00554Y0084
X00498Y009815
X00409Y00944
X00352Y00853
Y00813
X00326Y00776
X00236Y01034
X00206Y01076
X00253Y010925
X00085Y01083
X00118Y00922
X001Y0058
X00557Y00641
X0054Y01091
T02
X000689Y000886
X001476
X002264
X003051
X003839
X004626
X005413
Y001673
X004626
X003839
X003051
X002264
X001476
X000689
X006201
X006988
Y000886
X006201
Y012795
X006988
Y013583
X006201
X005413
X004626
X003839
X003051
X002264
X001476
X000689
Y012795
X001476
X002264
X003051
X003839
X004626
X005413
T03
X000677Y003938
X001677
T04
X006014Y011713
X007014
X005014
X004014
X001664
X000664
T05
X003839Y004405
M30
