G04*
G04 #@! TF.GenerationSoftware,Altium Limited,Altium Designer,23.0.1 (38)*
G04*
G04 Layer_Color=8388736*
%FSLAX24Y24*%
%MOIN*%
G70*
G04*
G04 #@! TF.SameCoordinates,212204B1-6FDB-4007-BCD0-930B6937FDD8*
G04*
G04*
G04 #@! TF.FilePolarity,Negative*
G04*
G01*
G75*
%ADD24R,0.0316X0.0394*%
%ADD25R,0.0276X0.0276*%
%ADD26R,0.0276X0.0276*%
G04:AMPARAMS|DCode=27|XSize=63.1mil|YSize=17.8mil|CornerRadius=5.4mil|HoleSize=0mil|Usage=FLASHONLY|Rotation=180.000|XOffset=0mil|YOffset=0mil|HoleType=Round|Shape=RoundedRectangle|*
%AMROUNDEDRECTD27*
21,1,0.0631,0.0069,0,0,180.0*
21,1,0.0522,0.0178,0,0,180.0*
1,1,0.0109,-0.0261,0.0034*
1,1,0.0109,0.0261,0.0034*
1,1,0.0109,0.0261,-0.0034*
1,1,0.0109,-0.0261,-0.0034*
%
%ADD27ROUNDEDRECTD27*%
%ADD28R,0.0257X0.0197*%
%ADD29C,0.0720*%
%ADD30C,0.0540*%
%ADD31C,0.0735*%
%ADD32C,0.1812*%
G36*
X5846Y7151D02*
X5889Y7127D01*
X5904Y7093D01*
X5907Y7065D01*
X5901Y7041D01*
X5886Y7019D01*
X5858Y6992D01*
X5834Y6986D01*
X5815D01*
X5778Y6992D01*
X5739Y7032D01*
X5732Y7075D01*
X5742Y7121D01*
X5754Y7133D01*
X5785Y7151D01*
X5815Y7164D01*
X5846Y7151D01*
D02*
G37*
G36*
X5901Y7391D02*
X5910Y7382D01*
X5917Y7357D01*
X5941Y7320D01*
X5972Y7259D01*
Y7253D01*
X5984Y7240D01*
X5990Y7228D01*
X6015Y7185D01*
X6045Y7130D01*
X6082Y7056D01*
X6015Y6927D01*
X5996Y6884D01*
X5978Y6854D01*
X5966Y6823D01*
X5960Y6811D01*
X5941Y6780D01*
X5910Y6712D01*
X5904Y6688D01*
X5914Y6482D01*
X5917Y6406D01*
X5904Y6375D01*
X5910Y6338D01*
X5917Y6320D01*
X5910Y6277D01*
X5904Y6258D01*
X5910Y6240D01*
X5920Y6089D01*
X5926Y6003D01*
X5932Y5967D01*
X5938Y5856D01*
X5944Y5740D01*
X5950Y5660D01*
X5963Y5525D01*
X5969Y5445D01*
X5975Y5310D01*
X5981Y5242D01*
X5987Y5193D01*
X5993Y5132D01*
X6018Y5120D01*
X6049Y5132D01*
X6079Y5138D01*
X6134Y5163D01*
X6159Y5169D01*
X6202Y5187D01*
X6251Y5199D01*
X6306Y5224D01*
X6340Y5233D01*
X6383Y5258D01*
X6395Y5337D01*
X6408Y5368D01*
X6417Y5433D01*
X6429Y5463D01*
X6448Y5531D01*
X6494Y5620D01*
X6503Y5629D01*
X6527Y5623D01*
X6552Y5598D01*
X6564Y5592D01*
X6576Y5580D01*
X6635Y5558D01*
X6644Y5549D01*
X6693Y5537D01*
X6736Y5519D01*
X6761Y5512D01*
X6828Y5506D01*
X6859Y5494D01*
X6939Y5488D01*
X7058Y5485D01*
X7181Y5491D01*
X7206Y5497D01*
X7258Y5512D01*
X7338Y5519D01*
X7356Y5537D01*
X7381Y5531D01*
X7384Y4859D01*
X7374Y4843D01*
X7242Y4840D01*
X7163Y4846D01*
X7141Y4868D01*
X7129Y4874D01*
X7120Y4883D01*
X7117Y4892D01*
X7104Y4899D01*
X7089Y4914D01*
X7083Y4926D01*
X7058Y4945D01*
X7052Y4957D01*
X7018Y4960D01*
X7003Y4951D01*
X6997Y4938D01*
X6988Y4929D01*
X6975Y4923D01*
X6942Y4889D01*
X6936Y4877D01*
X6926Y4868D01*
X6914Y4862D01*
X6896Y4843D01*
X6822Y4837D01*
X6804Y4843D01*
X6681Y4849D01*
X6672Y4877D01*
X6669Y5353D01*
X6675Y5408D01*
X6678Y5430D01*
X6662Y5457D01*
X6653Y5448D01*
X6647Y5423D01*
X6622Y5368D01*
X6616Y5344D01*
X6610Y5295D01*
X6604Y5276D01*
X6598Y5252D01*
X6592Y5190D01*
X6583Y5132D01*
X6567Y5110D01*
X6555Y5098D01*
X6549Y5086D01*
X6515Y5070D01*
X6472Y5052D01*
X6448Y5046D01*
X6368Y5015D01*
X6328Y5006D01*
X6276Y4985D01*
X6150Y4938D01*
X6098Y4923D01*
X6073Y4917D01*
X6061Y4905D01*
X6012Y4886D01*
X6009Y4834D01*
X6015Y4816D01*
X6024Y4678D01*
X6030Y4549D01*
X6036Y4463D01*
X6042Y4401D01*
X6049Y4334D01*
X6058Y4153D01*
X6067Y4039D01*
X6073Y3984D01*
X6079Y3923D01*
X6085Y3812D01*
X6092Y3708D01*
X6098Y3622D01*
X6104Y3560D01*
X6110Y3487D01*
X6116Y3401D01*
X6122Y3284D01*
X6125Y3269D01*
X6119Y3250D01*
X6113Y3238D01*
X6085Y3229D01*
X6070Y3238D01*
X6064Y3263D01*
X6055Y3425D01*
X6049Y3493D01*
X6042Y3554D01*
X6036Y3628D01*
X6030Y3732D01*
X6024Y3861D01*
X6018Y3929D01*
X6012Y3978D01*
X6006Y4051D01*
X5999Y4180D01*
X5987Y4340D01*
X5981Y4401D01*
X5975Y4481D01*
X5969Y4616D01*
X5963Y4690D01*
X5950Y4813D01*
X5944Y4880D01*
X5935Y4902D01*
X5892Y4945D01*
X5886Y4969D01*
X5892Y5043D01*
X5920Y5077D01*
X5929Y5104D01*
X5923Y5245D01*
X5917Y5264D01*
X5907Y5451D01*
X5901Y5525D01*
X5889Y5660D01*
X5877Y5868D01*
X5871Y5967D01*
X5864Y5997D01*
X5858Y6083D01*
X5852Y6200D01*
X5846Y6274D01*
X5831Y6301D01*
X5825Y6320D01*
X5837Y6350D01*
X5831Y6387D01*
X5818Y6399D01*
X5812Y6424D01*
X5806Y6522D01*
X5800Y6565D01*
X5791Y6691D01*
X5775Y6712D01*
X5732Y6774D01*
X5714Y6805D01*
X5702Y6817D01*
X5696Y6829D01*
X5683Y6841D01*
X5677Y6854D01*
X5646Y6897D01*
X5628Y6927D01*
X5616Y6940D01*
X5610Y6952D01*
X5597Y6964D01*
X5591Y6976D01*
X5567Y7019D01*
X5561Y7044D01*
X5585Y7081D01*
X5591Y7118D01*
X5616Y7173D01*
X5646Y7253D01*
X5671Y7314D01*
X5680Y7348D01*
X5696Y7369D01*
X5705Y7378D01*
X5714Y7369D01*
X5708Y7345D01*
X5702Y7228D01*
X5696Y7210D01*
X5689Y7136D01*
X5683Y7118D01*
X5680Y7053D01*
X5693Y7022D01*
X5763Y6872D01*
X5825Y6755D01*
X5840Y6746D01*
X5867Y6768D01*
X5880Y6811D01*
X5886Y6835D01*
X5901Y6875D01*
X5910Y6909D01*
X5923Y6958D01*
X5941Y7019D01*
X5956Y7059D01*
X5960Y7087D01*
X5947Y7118D01*
X5932Y7188D01*
X5917Y7222D01*
X5907Y7274D01*
X5889Y7323D01*
X5883Y7348D01*
X5880Y7388D01*
X5889Y7397D01*
X5901Y7391D01*
D02*
G37*
G36*
X6834Y6194D02*
X6890Y6188D01*
X6945Y6163D01*
X7025Y6157D01*
X7110Y6163D01*
X7129Y6169D01*
X7150Y6178D01*
X7153Y6181D01*
X7172Y6188D01*
X7218Y6197D01*
X7239Y6200D01*
X7249Y6191D01*
X7242Y6154D01*
X7236Y6135D01*
X7206Y6068D01*
X7199Y6043D01*
X7181Y6000D01*
X7175Y5976D01*
X7169Y5964D01*
X7144Y5927D01*
X7138Y5914D01*
X7129Y5905D01*
X7086Y5899D01*
X7006Y5893D01*
X6982Y5899D01*
X6932Y5905D01*
X6923Y5914D01*
X6917Y5927D01*
X6893Y5951D01*
X6883Y5991D01*
X6877Y6016D01*
X6856Y6056D01*
X6850Y6080D01*
X6825Y6135D01*
X6807Y6203D01*
X6822Y6206D01*
X6834Y6194D01*
D02*
G37*
G36*
X6509Y5862D02*
X6644Y5856D01*
X6669Y5850D01*
X6712Y5844D01*
X6797Y5838D01*
X6831Y5810D01*
X6840Y5801D01*
X6853Y5795D01*
X6871Y5776D01*
X6890Y5770D01*
X6902Y5758D01*
X6963Y5727D01*
X6979Y5736D01*
X6969Y5776D01*
X6954Y5804D01*
X6960Y5822D01*
X6969Y5832D01*
X7028Y5829D01*
X7098Y5832D01*
X7107Y5822D01*
X7101Y5804D01*
X7089Y5773D01*
X7083Y5749D01*
X7077Y5736D01*
X7086Y5727D01*
X7129Y5746D01*
X7172Y5770D01*
X7206Y5798D01*
X7239Y5819D01*
X7252Y5832D01*
X7282Y5844D01*
X7371Y5847D01*
X7384Y5835D01*
X7377Y5577D01*
X7338Y5555D01*
X7313Y5549D01*
X7258Y5543D01*
X7239Y5537D01*
X7169Y5522D01*
X6883Y5519D01*
X6865Y5525D01*
X6840Y5531D01*
X6797Y5543D01*
X6733Y5552D01*
X6681Y5574D01*
X6647Y5583D01*
X6632Y5598D01*
X6592Y5614D01*
X6583Y5623D01*
X6570Y5629D01*
X6540Y5647D01*
X6537Y5651D01*
X6515Y5672D01*
X6506Y5675D01*
X6500Y5687D01*
X6478Y5703D01*
X6454Y5740D01*
X6444Y5749D01*
X6432Y5779D01*
X6420Y5792D01*
X6408Y5835D01*
X6414Y5859D01*
X6423Y5868D01*
X6481Y5865D01*
X6491Y5868D01*
X6509Y5862D01*
D02*
G37*
G36*
X6761Y7237D02*
X6764Y7234D01*
X6739Y7197D01*
X6733Y7185D01*
X6721Y7173D01*
X6715Y7161D01*
X6708Y7142D01*
X6702Y7118D01*
X6690Y7105D01*
X6678Y7062D01*
X6653Y6983D01*
X6647Y6866D01*
X6653Y6786D01*
X6659Y6768D01*
X6672Y6737D01*
X6678Y6694D01*
X6708Y6639D01*
Y6633D01*
X6721Y6602D01*
X6739Y6584D01*
X6751Y6553D01*
X6773Y6519D01*
X6797Y6513D01*
X6828Y6531D01*
X6840Y6544D01*
X6853Y6550D01*
X6890Y6574D01*
X6926Y6580D01*
X6957Y6593D01*
X7037Y6630D01*
X7058Y6620D01*
X7064Y6608D01*
X7092Y6599D01*
X7135Y6580D01*
X7160Y6574D01*
X7246Y6525D01*
X7276Y6513D01*
X7289Y6519D01*
X7298Y6528D01*
X7353Y6645D01*
X7368Y6673D01*
X7377Y6669D01*
X7384Y6645D01*
X7377Y6479D01*
X7365Y6467D01*
X7359Y6455D01*
X7353Y6436D01*
X7359Y6277D01*
X7353Y6258D01*
X7344Y6212D01*
X7331Y6163D01*
X7322Y6129D01*
X7328Y6074D01*
X7353Y6019D01*
X7347Y5982D01*
X7335Y5970D01*
X7322Y5939D01*
X7258Y5875D01*
X7246Y5868D01*
X7236Y5859D01*
X7230Y5847D01*
X7193Y5829D01*
X7187Y5816D01*
X7178Y5807D01*
X7144Y5810D01*
X7150Y5847D01*
X7181Y5914D01*
X7187Y5939D01*
X7199Y5951D01*
X7218Y6025D01*
X7236Y6043D01*
X7249Y6099D01*
X7261Y6111D01*
X7270Y6145D01*
X7282Y6175D01*
X7289Y6206D01*
X7292Y6234D01*
X7276Y6249D01*
X7239Y6243D01*
X7196Y6224D01*
X7157Y6215D01*
X7126Y6203D01*
X7098Y6194D01*
X7000Y6188D01*
X6948Y6197D01*
X6923Y6203D01*
X6914Y6212D01*
X6865Y6224D01*
X6834Y6231D01*
X6816Y6249D01*
X6779Y6243D01*
X6770Y6234D01*
X6776Y6185D01*
X6788Y6154D01*
X6797Y6114D01*
X6819Y6074D01*
X6831Y6025D01*
X6843Y6013D01*
X6856Y5964D01*
X6874Y5933D01*
X6880Y5914D01*
X6886Y5890D01*
X6911Y5835D01*
X6917Y5810D01*
X6908Y5801D01*
X6883Y5807D01*
X6856Y5829D01*
X6853Y5838D01*
X6840Y5844D01*
X6825Y5853D01*
X6819Y5865D01*
X6785Y5887D01*
X6770Y5902D01*
X6764Y5914D01*
X6754Y5924D01*
X6745Y5927D01*
X6739Y5939D01*
X6708Y5988D01*
X6715Y6050D01*
X6733Y6092D01*
X6739Y6117D01*
X6733Y6160D01*
X6721Y6191D01*
X6708Y6234D01*
X6702Y6350D01*
X6708Y6393D01*
X6715Y6418D01*
X6708Y6436D01*
X6690Y6467D01*
X6665Y6510D01*
X6629Y6577D01*
X6616Y6608D01*
X6607Y6642D01*
X6592Y6676D01*
X6570Y6771D01*
X6564Y6826D01*
X6561Y6866D01*
X6567Y6884D01*
X6573Y6940D01*
X6580Y6958D01*
X6589Y6998D01*
X6595Y7022D01*
X6644Y7121D01*
X6659Y7136D01*
X6684Y7179D01*
X6748Y7243D01*
X6761Y7237D01*
D02*
G37*
G36*
X7331Y4776D02*
X7371Y4779D01*
X7384Y4767D01*
X7377Y3312D01*
X7335Y3257D01*
X7325Y3247D01*
X7258Y3217D01*
X7172Y3223D01*
X7135Y3247D01*
X7123Y3254D01*
X7107Y3263D01*
X7101Y3275D01*
X7071Y3318D01*
X7064Y3355D01*
Y3361D01*
X7058Y3379D01*
X7052Y4478D01*
X7025Y4487D01*
X6997Y4466D01*
X7003Y4423D01*
X7000Y4340D01*
X7003Y3361D01*
X6979Y3306D01*
X6960Y3275D01*
X6945Y3260D01*
X6932Y3254D01*
X6920Y3241D01*
X6908Y3235D01*
X6877Y3223D01*
X6834Y3217D01*
X6785Y3223D01*
X6767Y3229D01*
X6736Y3247D01*
X6724Y3260D01*
X6715Y3263D01*
X6708Y3275D01*
X6696Y3287D01*
X6690Y3300D01*
X6678Y3330D01*
X6672Y3373D01*
X6678Y4767D01*
X6693Y4782D01*
X6736Y4776D01*
X6754Y4782D01*
X6794Y4779D01*
X6883Y4782D01*
X6911Y4767D01*
X6917Y4754D01*
X6939Y4739D01*
X6954Y4718D01*
X6975Y4702D01*
X7003Y4675D01*
X7006Y4665D01*
X7031Y4659D01*
X7049Y4665D01*
X7064Y4687D01*
X7089Y4699D01*
X7095Y4711D01*
X7110Y4733D01*
X7123Y4739D01*
X7144Y4754D01*
X7150Y4767D01*
X7160Y4776D01*
X7221Y4782D01*
X7285Y4779D01*
X7313Y4782D01*
X7331Y4776D01*
D02*
G37*
G36*
X7043Y4917D02*
X7068Y4892D01*
X7080Y4886D01*
X7095Y4865D01*
X7114Y4853D01*
Y4846D01*
X7129Y4831D01*
X7138Y4828D01*
X7144Y4810D01*
X7117Y4776D01*
X7104Y4770D01*
X7095Y4760D01*
X7089Y4748D01*
X7068Y4727D01*
X7058Y4724D01*
X7052Y4711D01*
X7025Y4702D01*
X6994Y4721D01*
X6985Y4730D01*
X6979Y4742D01*
X6969Y4751D01*
X6957Y4757D01*
X6948Y4767D01*
X6942Y4779D01*
X6932Y4788D01*
X6923Y4791D01*
X6917Y4816D01*
X6923Y4828D01*
X6932Y4837D01*
X6942Y4840D01*
X6948Y4853D01*
X6957Y4862D01*
X6969Y4868D01*
X6979Y4877D01*
X6985Y4889D01*
X7003Y4902D01*
X7009Y4914D01*
X7018Y4923D01*
X7043Y4917D01*
D02*
G37*
G36*
X6619Y5089D02*
X6629Y5080D01*
X6632Y5052D01*
X6626Y5021D01*
X6622Y5000D01*
X6629Y4981D01*
X6622Y4920D01*
X6629Y4902D01*
X6626Y4659D01*
X6629Y4619D01*
X6622Y4601D01*
X6629Y4503D01*
X6626Y3413D01*
X6629Y3373D01*
X6619Y3364D01*
X6592Y3361D01*
X6524Y3367D01*
X6475Y3373D01*
X6444Y3379D01*
X6420Y3385D01*
X6383Y3392D01*
X6316Y3404D01*
X6291Y3410D01*
X6270Y3419D01*
X6260Y3428D01*
X6254Y3459D01*
X6260Y3478D01*
X6263Y3591D01*
X6260Y3619D01*
X6266Y3637D01*
X6273Y3858D01*
X6279Y3877D01*
X6288Y3984D01*
X6294Y4094D01*
X6300Y4211D01*
X6306Y4272D01*
X6313Y4328D01*
X6322Y4361D01*
X6328Y4539D01*
X6334Y4558D01*
X6340Y4613D01*
Y4619D01*
X6346Y4644D01*
X6352Y4724D01*
X6359Y4785D01*
X6365Y4834D01*
X6377Y4865D01*
X6386Y4966D01*
X6392Y4978D01*
X6423Y4991D01*
X6466Y5009D01*
X6500Y5018D01*
X6533Y5034D01*
X6576Y5058D01*
X6592Y5074D01*
X6598Y5086D01*
X6607Y5095D01*
X6619Y5089D01*
D02*
G37*
G36*
X6675Y11178D02*
X6680D01*
X6685Y11178D01*
X6691Y11177D01*
X6698Y11176D01*
X6712Y11174D01*
X6727Y11170D01*
X6740Y11164D01*
X6747Y11161D01*
X6753Y11157D01*
X6753D01*
X6754Y11156D01*
X6758Y11153D01*
X6763Y11148D01*
X6769Y11141D01*
X6772Y11136D01*
X6775Y11132D01*
X6778Y11126D01*
X6781Y11120D01*
X6783Y11113D01*
X6786Y11106D01*
X6787Y11098D01*
X6789Y11089D01*
X6702Y11085D01*
Y11086D01*
X6701Y11088D01*
X6700Y11092D01*
X6698Y11096D01*
X6696Y11100D01*
X6694Y11105D01*
X6691Y11110D01*
X6687Y11114D01*
X6686Y11115D01*
X6685Y11116D01*
X6682Y11117D01*
X6679Y11119D01*
X6675Y11121D01*
X6669Y11122D01*
X6663Y11123D01*
X6656Y11123D01*
X6654D01*
X6651Y11123D01*
X6647Y11122D01*
X6639Y11121D01*
X6635Y11118D01*
X6632Y11116D01*
X6631Y11116D01*
X6631Y11115D01*
X6628Y11112D01*
X6625Y11106D01*
X6625Y11103D01*
X6624Y11100D01*
Y11099D01*
Y11099D01*
X6625Y11095D01*
X6627Y11091D01*
X6628Y11089D01*
X6631Y11087D01*
X6631D01*
X6632Y11086D01*
X6634Y11085D01*
X6637Y11083D01*
X6641Y11081D01*
X6646Y11080D01*
X6653Y11077D01*
X6661Y11076D01*
X6662D01*
X6664Y11075D01*
X6667Y11075D01*
X6671Y11074D01*
X6676Y11073D01*
X6682Y11071D01*
X6688Y11069D01*
X6695Y11068D01*
X6709Y11064D01*
X6724Y11059D01*
X6737Y11054D01*
X6743Y11052D01*
X6749Y11049D01*
X6749D01*
X6750Y11049D01*
X6753Y11047D01*
X6757Y11044D01*
X6763Y11040D01*
X6769Y11035D01*
X6776Y11030D01*
X6782Y11023D01*
X6787Y11016D01*
X6787Y11015D01*
X6788Y11013D01*
X6791Y11009D01*
X6793Y11003D01*
X6795Y10997D01*
X6797Y10990D01*
X6798Y10981D01*
X6799Y10972D01*
Y10972D01*
Y10971D01*
Y10969D01*
Y10967D01*
X6798Y10962D01*
X6797Y10955D01*
X6795Y10946D01*
X6792Y10937D01*
X6788Y10928D01*
X6782Y10919D01*
X6782Y10918D01*
X6780Y10915D01*
X6776Y10910D01*
X6771Y10905D01*
X6764Y10899D01*
X6757Y10893D01*
X6748Y10887D01*
X6738Y10882D01*
X6737D01*
X6737Y10881D01*
X6735Y10881D01*
X6733Y10880D01*
X6730Y10879D01*
X6726Y10878D01*
X6722Y10877D01*
X6718Y10876D01*
X6708Y10874D01*
X6695Y10872D01*
X6681Y10871D01*
X6666Y10870D01*
X6658D01*
X6653Y10871D01*
X6647Y10871D01*
X6640Y10872D01*
X6632Y10872D01*
X6623Y10874D01*
X6606Y10877D01*
X6589Y10882D01*
X6580Y10885D01*
X6573Y10890D01*
X6566Y10894D01*
X6560Y10899D01*
X6559Y10899D01*
X6559Y10901D01*
X6557Y10902D01*
X6555Y10904D01*
X6553Y10907D01*
X6550Y10910D01*
X6548Y10915D01*
X6545Y10919D01*
X6539Y10930D01*
X6533Y10943D01*
X6530Y10957D01*
X6528Y10966D01*
X6527Y10974D01*
X6615Y10980D01*
Y10979D01*
X6615Y10976D01*
X6616Y10972D01*
X6617Y10968D01*
X6621Y10957D01*
X6623Y10951D01*
X6626Y10947D01*
X6627Y10946D01*
X6629Y10944D01*
X6632Y10942D01*
X6637Y10938D01*
X6643Y10934D01*
X6650Y10932D01*
X6658Y10930D01*
X6667Y10929D01*
X6670D01*
X6674Y10930D01*
X6679Y10930D01*
X6684Y10931D01*
X6688Y10933D01*
X6693Y10935D01*
X6698Y10938D01*
X6698Y10938D01*
X6699Y10939D01*
X6701Y10942D01*
X6703Y10944D01*
X6705Y10947D01*
X6707Y10951D01*
X6708Y10955D01*
X6709Y10960D01*
Y10960D01*
Y10962D01*
X6708Y10964D01*
X6708Y10967D01*
X6706Y10970D01*
X6704Y10973D01*
X6702Y10977D01*
X6698Y10980D01*
X6698Y10981D01*
X6696Y10982D01*
X6693Y10984D01*
X6688Y10986D01*
X6682Y10988D01*
X6674Y10992D01*
X6669Y10993D01*
X6663Y10994D01*
X6657Y10996D01*
X6651Y10998D01*
X6650D01*
X6648Y10998D01*
X6645Y10999D01*
X6641Y11000D01*
X6636Y11002D01*
X6630Y11003D01*
X6624Y11005D01*
X6617Y11007D01*
X6603Y11013D01*
X6589Y11019D01*
X6575Y11026D01*
X6569Y11029D01*
X6564Y11034D01*
Y11034D01*
X6563Y11035D01*
X6560Y11038D01*
X6556Y11043D01*
X6551Y11050D01*
X6546Y11058D01*
X6542Y11068D01*
X6539Y11079D01*
X6539Y11085D01*
X6538Y11091D01*
Y11092D01*
Y11092D01*
Y11095D01*
X6539Y11100D01*
X6540Y11105D01*
X6542Y11112D01*
X6544Y11120D01*
X6547Y11127D01*
X6551Y11135D01*
X6552Y11136D01*
X6554Y11138D01*
X6557Y11142D01*
X6562Y11147D01*
X6567Y11152D01*
X6574Y11157D01*
X6583Y11162D01*
X6592Y11167D01*
X6592D01*
X6593Y11168D01*
X6595Y11168D01*
X6597Y11169D01*
X6599Y11170D01*
X6603Y11171D01*
X6607Y11172D01*
X6611Y11173D01*
X6616Y11174D01*
X6622Y11175D01*
X6634Y11177D01*
X6649Y11178D01*
X6666Y11179D01*
X6671D01*
X6675Y11178D01*
D02*
G37*
G36*
X7132Y10875D02*
X7040D01*
Y10996D01*
X6938D01*
Y10875D01*
X6846D01*
Y11174D01*
X6938D01*
Y11070D01*
X7040D01*
Y11174D01*
X7132D01*
Y10875D01*
D02*
G37*
G36*
X6157D02*
X6064D01*
Y10996D01*
X5962D01*
Y10875D01*
X5870D01*
Y11174D01*
X5962D01*
Y11070D01*
X6064D01*
Y11174D01*
X6157D01*
Y10875D01*
D02*
G37*
G36*
X6514D02*
X6417D01*
X6402Y10924D01*
X6297D01*
X6282Y10875D01*
X6188D01*
X6300Y11174D01*
X6401D01*
X6514Y10875D01*
D02*
G37*
G36*
X6625Y8610D02*
X6533D01*
X6481Y8798D01*
X6429Y8610D01*
X6338D01*
X6272Y8909D01*
X6359D01*
X6391Y8742D01*
X6437Y8909D01*
X6525D01*
X6571Y8742D01*
X6603Y8909D01*
X6691D01*
X6625Y8610D01*
D02*
G37*
G36*
X6891Y8909D02*
X6900Y8908D01*
X6911Y8908D01*
X6922Y8906D01*
X6932Y8904D01*
X6941Y8902D01*
X6942Y8901D01*
X6945Y8900D01*
X6949Y8898D01*
X6954Y8896D01*
X6960Y8892D01*
X6966Y8887D01*
X6972Y8881D01*
X6978Y8874D01*
X6978Y8873D01*
X6980Y8871D01*
X6982Y8867D01*
X6985Y8861D01*
X6988Y8854D01*
X6990Y8845D01*
X6992Y8836D01*
X6992Y8826D01*
Y8825D01*
Y8821D01*
X6992Y8817D01*
X6991Y8811D01*
X6989Y8804D01*
X6988Y8797D01*
X6985Y8790D01*
X6981Y8783D01*
X6981Y8782D01*
X6980Y8780D01*
X6977Y8777D01*
X6974Y8772D01*
X6969Y8768D01*
X6964Y8763D01*
X6958Y8758D01*
X6952Y8754D01*
X6951Y8753D01*
X6949Y8753D01*
X6947Y8751D01*
X6943Y8749D01*
X6939Y8748D01*
X6933Y8745D01*
X6927Y8744D01*
X6919Y8742D01*
X6920D01*
X6922Y8740D01*
X6925Y8739D01*
X6929Y8738D01*
X6936Y8734D01*
X6940Y8733D01*
X6943Y8731D01*
X6945Y8730D01*
X6946Y8729D01*
X6947Y8727D01*
X6949Y8725D01*
X6952Y8722D01*
X6955Y8719D01*
X6958Y8715D01*
X6959Y8714D01*
X6960Y8713D01*
X6962Y8710D01*
X6964Y8708D01*
X6968Y8702D01*
X6970Y8699D01*
X6971Y8696D01*
X7017Y8610D01*
X6912D01*
X6862Y8701D01*
X6862Y8702D01*
X6860Y8704D01*
X6859Y8707D01*
X6857Y8710D01*
X6851Y8718D01*
X6848Y8721D01*
X6845Y8724D01*
X6845Y8725D01*
X6844Y8725D01*
X6841Y8726D01*
X6839Y8728D01*
X6835Y8729D01*
X6832Y8730D01*
X6827Y8731D01*
X6822Y8731D01*
X6815D01*
Y8610D01*
X6722D01*
Y8909D01*
X6887D01*
X6891Y8909D01*
D02*
G37*
G36*
X6162D02*
X6166D01*
X6171Y8908D01*
X6182Y8906D01*
X6194Y8903D01*
X6206Y8899D01*
X6218Y8893D01*
X6224Y8890D01*
X6229Y8885D01*
X6229D01*
X6230Y8884D01*
X6231Y8882D01*
X6233Y8881D01*
X6237Y8875D01*
X6241Y8868D01*
X6246Y8858D01*
X6250Y8846D01*
X6253Y8833D01*
X6254Y8826D01*
Y8817D01*
Y8817D01*
Y8815D01*
Y8813D01*
X6253Y8810D01*
Y8806D01*
X6252Y8802D01*
X6251Y8792D01*
X6247Y8780D01*
X6242Y8768D01*
X6239Y8762D01*
X6236Y8757D01*
X6231Y8751D01*
X6227Y8747D01*
X6226D01*
X6226Y8745D01*
X6224Y8744D01*
X6222Y8743D01*
X6218Y8740D01*
X6215Y8738D01*
X6211Y8736D01*
X6206Y8734D01*
X6200Y8732D01*
X6194Y8730D01*
X6187Y8727D01*
X6180Y8725D01*
X6171Y8724D01*
X6163Y8722D01*
X6153Y8722D01*
X6143Y8721D01*
X6093D01*
Y8610D01*
X6000D01*
Y8909D01*
X6158D01*
X6162Y8909D01*
D02*
G37*
G36*
X1494Y7193D02*
X1502Y7192D01*
X1511Y7190D01*
X1521Y7187D01*
X1531Y7183D01*
X1542Y7177D01*
X1543Y7177D01*
X1546Y7174D01*
X1552Y7171D01*
X1558Y7166D01*
X1565Y7159D01*
X1572Y7151D01*
X1579Y7142D01*
X1585Y7131D01*
Y7131D01*
X1586Y7130D01*
X1587Y7128D01*
X1588Y7126D01*
X1589Y7123D01*
X1590Y7119D01*
X1592Y7110D01*
X1596Y7099D01*
X1597Y7085D01*
X1599Y7070D01*
X1600Y7052D01*
Y7045D01*
X1599Y7041D01*
Y7036D01*
X1599Y7026D01*
X1597Y7013D01*
X1596Y7001D01*
X1593Y6989D01*
X1589Y6977D01*
X1589Y6976D01*
X1587Y6973D01*
X1585Y6968D01*
X1581Y6961D01*
X1576Y6954D01*
X1571Y6947D01*
X1564Y6939D01*
X1557Y6932D01*
X1555Y6931D01*
X1553Y6929D01*
X1548Y6926D01*
X1542Y6922D01*
X1534Y6917D01*
X1525Y6913D01*
X1514Y6909D01*
X1503Y6905D01*
X1489Y7002D01*
X1490D01*
X1494Y7003D01*
X1499Y7005D01*
X1505Y7006D01*
X1518Y7012D01*
X1525Y7015D01*
X1530Y7019D01*
X1531Y7020D01*
X1532Y7021D01*
X1533Y7024D01*
X1535Y7027D01*
X1538Y7032D01*
X1539Y7038D01*
X1540Y7043D01*
X1541Y7050D01*
Y7054D01*
X1540Y7057D01*
X1539Y7062D01*
X1538Y7067D01*
X1535Y7073D01*
X1531Y7078D01*
X1527Y7083D01*
X1526Y7084D01*
X1524Y7085D01*
X1521Y7087D01*
X1517Y7090D01*
X1511Y7092D01*
X1504Y7094D01*
X1497Y7096D01*
X1489Y7096D01*
X1487D01*
X1485D01*
X1480Y7096D01*
X1475Y7095D01*
X1469Y7093D01*
X1462Y7091D01*
X1457Y7088D01*
X1451Y7084D01*
X1450Y7083D01*
X1449Y7081D01*
X1446Y7078D01*
X1444Y7075D01*
X1442Y7070D01*
X1439Y7064D01*
X1438Y7057D01*
X1438Y7049D01*
Y7045D01*
X1438Y7041D01*
X1439Y7036D01*
X1440Y7031D01*
X1441Y7025D01*
X1443Y7018D01*
X1374Y7022D01*
Y7027D01*
X1375Y7031D01*
Y7038D01*
X1374Y7042D01*
X1374Y7047D01*
X1373Y7051D01*
X1370Y7057D01*
X1367Y7062D01*
X1364Y7067D01*
X1363Y7068D01*
X1362Y7069D01*
X1359Y7071D01*
X1355Y7074D01*
X1352Y7076D01*
X1346Y7078D01*
X1341Y7080D01*
X1335Y7080D01*
X1334D01*
X1332D01*
X1329Y7080D01*
X1326Y7079D01*
X1322Y7078D01*
X1318Y7077D01*
X1313Y7074D01*
X1310Y7071D01*
X1309Y7070D01*
X1308Y7069D01*
X1306Y7067D01*
X1304Y7064D01*
X1303Y7060D01*
X1301Y7055D01*
X1301Y7050D01*
X1300Y7044D01*
Y7041D01*
X1301Y7038D01*
X1301Y7034D01*
X1303Y7029D01*
X1304Y7025D01*
X1307Y7020D01*
X1311Y7016D01*
X1311Y7015D01*
X1313Y7014D01*
X1315Y7013D01*
X1319Y7010D01*
X1324Y7008D01*
X1330Y7006D01*
X1338Y7004D01*
X1346Y7002D01*
X1331Y6910D01*
X1330D01*
X1329Y6911D01*
X1326Y6912D01*
X1324Y6912D01*
X1320Y6914D01*
X1315Y6915D01*
X1306Y6920D01*
X1295Y6926D01*
X1283Y6933D01*
X1273Y6942D01*
X1263Y6954D01*
Y6954D01*
X1262Y6955D01*
X1261Y6957D01*
X1259Y6960D01*
X1257Y6963D01*
X1255Y6967D01*
X1253Y6972D01*
X1251Y6978D01*
X1249Y6984D01*
X1247Y6991D01*
X1245Y6998D01*
X1243Y7006D01*
X1241Y7015D01*
X1241Y7025D01*
X1239Y7046D01*
Y7052D01*
X1240Y7057D01*
Y7063D01*
X1241Y7070D01*
X1241Y7077D01*
X1243Y7084D01*
X1246Y7101D01*
X1250Y7117D01*
X1257Y7133D01*
X1260Y7139D01*
X1265Y7145D01*
Y7146D01*
X1266Y7147D01*
X1269Y7150D01*
X1275Y7155D01*
X1283Y7161D01*
X1292Y7166D01*
X1303Y7171D01*
X1315Y7175D01*
X1322Y7175D01*
X1329Y7176D01*
X1331D01*
X1333D01*
X1338Y7175D01*
X1343Y7175D01*
X1349Y7173D01*
X1356Y7171D01*
X1363Y7168D01*
X1370Y7163D01*
X1371Y7163D01*
X1373Y7161D01*
X1376Y7158D01*
X1381Y7154D01*
X1385Y7149D01*
X1391Y7143D01*
X1397Y7135D01*
X1402Y7126D01*
Y7127D01*
X1403Y7129D01*
X1404Y7133D01*
X1405Y7138D01*
X1409Y7147D01*
X1411Y7152D01*
X1413Y7157D01*
X1414Y7157D01*
X1415Y7159D01*
X1418Y7163D01*
X1421Y7166D01*
X1425Y7171D01*
X1430Y7175D01*
X1436Y7180D01*
X1442Y7184D01*
X1443Y7184D01*
X1445Y7185D01*
X1449Y7187D01*
X1453Y7189D01*
X1460Y7191D01*
X1467Y7192D01*
X1475Y7193D01*
X1483Y7194D01*
X1484D01*
X1485D01*
X1489D01*
X1494Y7193D01*
D02*
G37*
G36*
X1594Y6758D02*
Y6641D01*
X1245Y6510D01*
Y6622D01*
X1497Y6701D01*
X1245Y6778D01*
Y6888D01*
X1594Y6758D01*
D02*
G37*
G36*
X1494Y6488D02*
X1502Y6487D01*
X1511Y6485D01*
X1521Y6482D01*
X1531Y6478D01*
X1542Y6472D01*
X1543Y6471D01*
X1546Y6469D01*
X1552Y6466D01*
X1558Y6461D01*
X1565Y6454D01*
X1572Y6446D01*
X1579Y6437D01*
X1585Y6426D01*
Y6425D01*
X1586Y6425D01*
X1587Y6423D01*
X1588Y6420D01*
X1589Y6418D01*
X1590Y6414D01*
X1592Y6405D01*
X1596Y6394D01*
X1597Y6380D01*
X1599Y6364D01*
X1600Y6347D01*
Y6339D01*
X1599Y6336D01*
Y6331D01*
X1599Y6320D01*
X1597Y6308D01*
X1596Y6296D01*
X1593Y6283D01*
X1589Y6272D01*
X1589Y6271D01*
X1587Y6268D01*
X1585Y6262D01*
X1581Y6256D01*
X1576Y6249D01*
X1571Y6241D01*
X1564Y6234D01*
X1557Y6227D01*
X1555Y6226D01*
X1553Y6224D01*
X1548Y6220D01*
X1542Y6217D01*
X1534Y6212D01*
X1525Y6208D01*
X1514Y6204D01*
X1503Y6200D01*
X1489Y6297D01*
X1490D01*
X1494Y6298D01*
X1499Y6299D01*
X1505Y6301D01*
X1518Y6306D01*
X1525Y6310D01*
X1530Y6314D01*
X1531Y6315D01*
X1532Y6316D01*
X1533Y6319D01*
X1535Y6322D01*
X1538Y6327D01*
X1539Y6332D01*
X1540Y6338D01*
X1541Y6345D01*
Y6348D01*
X1540Y6352D01*
X1539Y6357D01*
X1538Y6362D01*
X1535Y6368D01*
X1531Y6373D01*
X1527Y6378D01*
X1526Y6378D01*
X1524Y6380D01*
X1521Y6382D01*
X1517Y6385D01*
X1511Y6387D01*
X1504Y6389D01*
X1497Y6390D01*
X1489Y6391D01*
X1487D01*
X1485D01*
X1480Y6390D01*
X1475Y6390D01*
X1469Y6388D01*
X1462Y6386D01*
X1457Y6383D01*
X1451Y6378D01*
X1450Y6378D01*
X1449Y6376D01*
X1446Y6373D01*
X1444Y6369D01*
X1442Y6364D01*
X1439Y6359D01*
X1438Y6352D01*
X1438Y6344D01*
Y6339D01*
X1438Y6336D01*
X1439Y6331D01*
X1440Y6326D01*
X1441Y6320D01*
X1443Y6313D01*
X1374Y6317D01*
Y6322D01*
X1375Y6326D01*
Y6333D01*
X1374Y6337D01*
X1374Y6341D01*
X1373Y6346D01*
X1370Y6352D01*
X1367Y6357D01*
X1364Y6362D01*
X1363Y6362D01*
X1362Y6364D01*
X1359Y6366D01*
X1355Y6369D01*
X1352Y6371D01*
X1346Y6373D01*
X1341Y6375D01*
X1335Y6375D01*
X1334D01*
X1332D01*
X1329Y6375D01*
X1326Y6374D01*
X1322Y6373D01*
X1318Y6371D01*
X1313Y6369D01*
X1310Y6366D01*
X1309Y6365D01*
X1308Y6364D01*
X1306Y6362D01*
X1304Y6359D01*
X1303Y6355D01*
X1301Y6350D01*
X1301Y6345D01*
X1300Y6339D01*
Y6336D01*
X1301Y6333D01*
X1301Y6329D01*
X1303Y6324D01*
X1304Y6320D01*
X1307Y6315D01*
X1311Y6311D01*
X1311Y6310D01*
X1313Y6309D01*
X1315Y6308D01*
X1319Y6305D01*
X1324Y6303D01*
X1330Y6301D01*
X1338Y6299D01*
X1346Y6297D01*
X1331Y6205D01*
X1330D01*
X1329Y6206D01*
X1326Y6206D01*
X1324Y6207D01*
X1320Y6209D01*
X1315Y6210D01*
X1306Y6215D01*
X1295Y6220D01*
X1283Y6228D01*
X1273Y6237D01*
X1263Y6248D01*
Y6249D01*
X1262Y6250D01*
X1261Y6252D01*
X1259Y6255D01*
X1257Y6258D01*
X1255Y6262D01*
X1253Y6267D01*
X1251Y6273D01*
X1249Y6278D01*
X1247Y6285D01*
X1245Y6293D01*
X1243Y6301D01*
X1241Y6310D01*
X1241Y6320D01*
X1239Y6341D01*
Y6347D01*
X1240Y6352D01*
Y6358D01*
X1241Y6364D01*
X1241Y6371D01*
X1243Y6379D01*
X1246Y6396D01*
X1250Y6411D01*
X1257Y6427D01*
X1260Y6434D01*
X1265Y6440D01*
Y6441D01*
X1266Y6441D01*
X1269Y6445D01*
X1275Y6450D01*
X1283Y6455D01*
X1292Y6461D01*
X1303Y6466D01*
X1315Y6469D01*
X1322Y6470D01*
X1329Y6471D01*
X1331D01*
X1333D01*
X1338Y6470D01*
X1343Y6469D01*
X1349Y6468D01*
X1356Y6466D01*
X1363Y6462D01*
X1370Y6458D01*
X1371Y6457D01*
X1373Y6455D01*
X1376Y6453D01*
X1381Y6449D01*
X1385Y6444D01*
X1391Y6438D01*
X1397Y6430D01*
X1402Y6421D01*
Y6422D01*
X1403Y6424D01*
X1404Y6428D01*
X1405Y6432D01*
X1409Y6442D01*
X1411Y6447D01*
X1413Y6452D01*
X1414Y6452D01*
X1415Y6454D01*
X1418Y6457D01*
X1421Y6461D01*
X1425Y6466D01*
X1430Y6470D01*
X1436Y6475D01*
X1442Y6478D01*
X1443Y6479D01*
X1445Y6480D01*
X1449Y6482D01*
X1453Y6483D01*
X1460Y6485D01*
X1467Y6487D01*
X1475Y6488D01*
X1483Y6489D01*
X1484D01*
X1485D01*
X1489D01*
X1494Y6488D01*
D02*
G37*
G36*
X630Y7312D02*
X573Y7295D01*
Y7173D01*
X630Y7155D01*
Y7045D01*
X281Y7176D01*
Y7294D01*
X630Y7426D01*
Y7312D01*
D02*
G37*
G36*
X367Y6921D02*
X630D01*
Y6813D01*
X367D01*
Y6703D01*
X281D01*
Y7031D01*
X367D01*
Y6921D01*
D02*
G37*
G36*
X630Y6580D02*
X573Y6563D01*
Y6441D01*
X630Y6424D01*
Y6313D01*
X281Y6444D01*
Y6562D01*
X630Y6694D01*
Y6580D01*
D02*
G37*
G36*
X469Y6291D02*
X474D01*
X487Y6290D01*
X500Y6288D01*
X515Y6286D01*
X529Y6283D01*
X541Y6278D01*
X542D01*
X543Y6278D01*
X547Y6276D01*
X552Y6273D01*
X559Y6269D01*
X568Y6264D01*
X576Y6258D01*
X585Y6251D01*
X593Y6243D01*
X594Y6241D01*
X596Y6239D01*
X600Y6234D01*
X605Y6229D01*
X609Y6221D01*
X613Y6213D01*
X618Y6204D01*
X621Y6195D01*
Y6194D01*
X622Y6194D01*
Y6192D01*
X622Y6189D01*
X624Y6182D01*
X626Y6173D01*
X627Y6164D01*
X629Y6152D01*
X629Y6141D01*
X630Y6130D01*
Y5970D01*
X281D01*
Y6138D01*
X282Y6142D01*
Y6146D01*
X283Y6157D01*
X284Y6170D01*
X287Y6183D01*
X290Y6195D01*
X294Y6207D01*
Y6208D01*
X295Y6208D01*
X297Y6212D01*
X299Y6217D01*
X304Y6224D01*
X309Y6232D01*
X315Y6240D01*
X323Y6248D01*
X331Y6255D01*
X333Y6256D01*
X336Y6259D01*
X340Y6262D01*
X347Y6266D01*
X355Y6271D01*
X365Y6275D01*
X376Y6279D01*
X387Y6283D01*
X388D01*
X389Y6283D01*
X390D01*
X393Y6284D01*
X399Y6285D01*
X408Y6287D01*
X418Y6289D01*
X429Y6290D01*
X441Y6291D01*
X455Y6292D01*
X455D01*
X457D01*
X460D01*
X464D01*
X469Y6291D01*
D02*
G37*
G36*
X1922Y3080D02*
X1811D01*
Y3156D01*
X1922D01*
Y3080D01*
D02*
G37*
G36*
X6179Y3052D02*
X6187Y3051D01*
X6198Y3049D01*
X6210Y3046D01*
X6221Y3041D01*
X6233Y3034D01*
X6244Y3025D01*
X6245Y3023D01*
X6248Y3020D01*
X6252Y3013D01*
X6257Y3004D01*
X6262Y2991D01*
X6266Y2977D01*
X6269Y2958D01*
X6270Y2949D01*
Y2938D01*
Y2757D01*
X6159D01*
Y2921D01*
Y2922D01*
Y2924D01*
X6158Y2928D01*
Y2932D01*
X6155Y2942D01*
X6153Y2947D01*
X6151Y2950D01*
X6150Y2951D01*
X6148Y2953D01*
X6146Y2956D01*
X6143Y2958D01*
X6139Y2961D01*
X6135Y2964D01*
X6129Y2965D01*
X6123Y2966D01*
X6120D01*
X6116Y2965D01*
X6112Y2964D01*
X6107Y2962D01*
X6102Y2960D01*
X6096Y2956D01*
X6092Y2951D01*
X6091Y2950D01*
X6090Y2948D01*
X6088Y2945D01*
X6086Y2940D01*
X6083Y2934D01*
X6082Y2926D01*
X6081Y2917D01*
X6080Y2906D01*
Y2757D01*
X5968D01*
Y2915D01*
Y2916D01*
Y2918D01*
Y2922D01*
Y2926D01*
X5968Y2934D01*
X5967Y2938D01*
X5966Y2941D01*
Y2942D01*
X5965Y2943D01*
X5963Y2948D01*
X5960Y2953D01*
X5954Y2958D01*
X5953D01*
X5952Y2960D01*
X5948Y2962D01*
X5941Y2964D01*
X5933Y2966D01*
X5930D01*
X5927Y2965D01*
X5922Y2964D01*
X5917Y2962D01*
X5911Y2960D01*
X5906Y2956D01*
X5901Y2951D01*
X5901Y2950D01*
X5900Y2948D01*
X5898Y2945D01*
X5895Y2940D01*
X5893Y2933D01*
X5892Y2925D01*
X5890Y2915D01*
X5890Y2904D01*
Y2757D01*
X5778D01*
Y3046D01*
X5882D01*
Y3003D01*
X5882Y3004D01*
X5885Y3007D01*
X5890Y3012D01*
X5895Y3018D01*
X5903Y3024D01*
X5910Y3031D01*
X5918Y3036D01*
X5927Y3041D01*
X5927Y3042D01*
X5931Y3043D01*
X5936Y3045D01*
X5942Y3047D01*
X5950Y3049D01*
X5960Y3051D01*
X5971Y3052D01*
X5982Y3053D01*
X5988D01*
X5994Y3052D01*
X6002Y3051D01*
X6011Y3050D01*
X6020Y3047D01*
X6029Y3045D01*
X6037Y3040D01*
X6038Y3039D01*
X6040Y3038D01*
X6044Y3035D01*
X6049Y3031D01*
X6054Y3026D01*
X6059Y3019D01*
X6065Y3012D01*
X6070Y3003D01*
X6071Y3004D01*
X6074Y3007D01*
X6079Y3012D01*
X6086Y3018D01*
X6093Y3025D01*
X6101Y3031D01*
X6109Y3037D01*
X6117Y3042D01*
X6118Y3042D01*
X6121Y3043D01*
X6126Y3045D01*
X6132Y3047D01*
X6140Y3049D01*
X6149Y3051D01*
X6159Y3052D01*
X6171Y3053D01*
X6175D01*
X6179Y3052D01*
D02*
G37*
G36*
X5199D02*
X5205D01*
X5212Y3051D01*
X5220Y3050D01*
X5228Y3050D01*
X5245Y3046D01*
X5263Y3042D01*
X5280Y3036D01*
X5288Y3031D01*
X5295Y3027D01*
X5296D01*
X5297Y3026D01*
X5301Y3023D01*
X5308Y3016D01*
X5316Y3008D01*
X5325Y2998D01*
X5333Y2985D01*
X5341Y2970D01*
X5348Y2953D01*
X5244Y2939D01*
Y2940D01*
X5243Y2942D01*
X5242Y2945D01*
X5239Y2949D01*
X5234Y2958D01*
X5230Y2963D01*
X5225Y2967D01*
X5225Y2967D01*
X5223Y2968D01*
X5220Y2969D01*
X5216Y2972D01*
X5211Y2974D01*
X5205Y2975D01*
X5198Y2976D01*
X5190Y2977D01*
X5186D01*
X5181Y2976D01*
X5174Y2975D01*
X5167Y2972D01*
X5160Y2969D01*
X5153Y2964D01*
X5146Y2957D01*
X5145Y2956D01*
X5143Y2953D01*
X5141Y2949D01*
X5138Y2942D01*
X5134Y2934D01*
X5132Y2923D01*
X5130Y2911D01*
X5129Y2897D01*
Y2897D01*
Y2896D01*
Y2891D01*
X5130Y2885D01*
X5131Y2877D01*
X5134Y2868D01*
X5137Y2859D01*
X5140Y2851D01*
X5146Y2843D01*
X5147Y2843D01*
X5149Y2840D01*
X5153Y2837D01*
X5158Y2835D01*
X5164Y2831D01*
X5172Y2828D01*
X5180Y2826D01*
X5189Y2825D01*
X5193D01*
X5197Y2826D01*
X5202Y2827D01*
X5207Y2828D01*
X5214Y2829D01*
X5220Y2832D01*
X5225Y2836D01*
X5226Y2837D01*
X5228Y2838D01*
X5231Y2840D01*
X5233Y2845D01*
X5237Y2849D01*
X5242Y2855D01*
X5245Y2862D01*
X5248Y2870D01*
X5354Y2859D01*
X5353Y2857D01*
X5352Y2853D01*
X5350Y2847D01*
X5347Y2839D01*
X5343Y2829D01*
X5338Y2820D01*
X5332Y2810D01*
X5325Y2800D01*
X5324Y2800D01*
X5321Y2797D01*
X5317Y2792D01*
X5311Y2786D01*
X5303Y2781D01*
X5295Y2775D01*
X5285Y2768D01*
X5274Y2763D01*
X5272Y2762D01*
X5268Y2761D01*
X5261Y2759D01*
X5252Y2757D01*
X5241Y2754D01*
X5228Y2752D01*
X5212Y2751D01*
X5196Y2750D01*
X5188D01*
X5180Y2751D01*
X5169D01*
X5156Y2752D01*
X5144Y2754D01*
X5131Y2755D01*
X5118Y2758D01*
X5117Y2759D01*
X5113Y2759D01*
X5107Y2762D01*
X5100Y2765D01*
X5092Y2769D01*
X5083Y2773D01*
X5075Y2779D01*
X5066Y2786D01*
X5065Y2786D01*
X5062Y2789D01*
X5059Y2793D01*
X5053Y2799D01*
X5048Y2805D01*
X5042Y2813D01*
X5037Y2821D01*
X5032Y2831D01*
X5031Y2832D01*
X5029Y2836D01*
X5028Y2841D01*
X5026Y2849D01*
X5023Y2859D01*
X5021Y2871D01*
X5020Y2884D01*
X5019Y2899D01*
Y2900D01*
Y2902D01*
Y2904D01*
Y2907D01*
X5020Y2915D01*
X5021Y2926D01*
X5023Y2937D01*
X5025Y2950D01*
X5029Y2962D01*
X5034Y2974D01*
X5034Y2975D01*
X5036Y2977D01*
X5038Y2982D01*
X5042Y2987D01*
X5046Y2993D01*
X5052Y2999D01*
X5058Y3007D01*
X5064Y3013D01*
X5065Y3014D01*
X5068Y3016D01*
X5072Y3019D01*
X5077Y3023D01*
X5083Y3027D01*
X5090Y3031D01*
X5097Y3035D01*
X5104Y3039D01*
X5105D01*
X5106Y3039D01*
X5110Y3041D01*
X5118Y3043D01*
X5127Y3046D01*
X5139Y3048D01*
X5153Y3050D01*
X5169Y3052D01*
X5188Y3053D01*
X5194D01*
X5199Y3052D01*
D02*
G37*
G36*
X2178Y2757D02*
X2080D01*
X1960Y3046D01*
X2075D01*
X2131Y2862D01*
X2189Y3046D01*
X2301D01*
X2178Y2757D01*
D02*
G37*
G36*
X4965Y2757D02*
X4846D01*
Y2868D01*
X4965D01*
Y2757D01*
D02*
G37*
G36*
X4031Y2757D02*
X3919D01*
Y3156D01*
X4031D01*
Y2757D01*
D02*
G37*
G36*
X3735Y3155D02*
X3740D01*
X3747Y3155D01*
X3762Y3152D01*
X3778Y3148D01*
X3794Y3142D01*
X3810Y3135D01*
X3818Y3130D01*
X3824Y3124D01*
X3825D01*
X3826Y3123D01*
X3827Y3120D01*
X3829Y3118D01*
X3835Y3111D01*
X3841Y3101D01*
X3847Y3088D01*
X3853Y3072D01*
X3856Y3054D01*
X3858Y3045D01*
Y3034D01*
Y3033D01*
Y3031D01*
Y3028D01*
X3857Y3023D01*
Y3018D01*
X3856Y3012D01*
X3853Y2999D01*
X3849Y2984D01*
X3843Y2968D01*
X3838Y2960D01*
X3834Y2953D01*
X3828Y2945D01*
X3821Y2939D01*
X3821D01*
X3820Y2937D01*
X3818Y2936D01*
X3815Y2934D01*
X3810Y2931D01*
X3806Y2928D01*
X3800Y2925D01*
X3794Y2922D01*
X3786Y2919D01*
X3778Y2916D01*
X3769Y2913D01*
X3759Y2910D01*
X3748Y2908D01*
X3736Y2907D01*
X3724Y2906D01*
X3710Y2905D01*
X3643D01*
Y2757D01*
X3519D01*
Y3156D01*
X3730D01*
X3735Y3155D01*
D02*
G37*
G36*
X3442Y2757D02*
X3330D01*
Y3156D01*
X3442D01*
Y2757D01*
D02*
G37*
G36*
X3127Y3052D02*
X3140Y3051D01*
X3154Y3050D01*
X3167Y3049D01*
X3178Y3047D01*
X3180D01*
X3184Y3045D01*
X3189Y3044D01*
X3197Y3042D01*
X3205Y3039D01*
X3213Y3034D01*
X3221Y3029D01*
X3229Y3023D01*
X3230Y3023D01*
X3232Y3021D01*
X3235Y3018D01*
X3237Y3015D01*
X3241Y3010D01*
X3245Y3004D01*
X3248Y2996D01*
X3251Y2988D01*
X3252Y2988D01*
X3253Y2985D01*
X3254Y2980D01*
X3256Y2975D01*
X3257Y2968D01*
X3259Y2961D01*
X3260Y2953D01*
Y2945D01*
Y2818D01*
Y2817D01*
Y2814D01*
Y2811D01*
Y2806D01*
X3261Y2796D01*
X3262Y2791D01*
X3262Y2786D01*
Y2785D01*
X3263Y2784D01*
X3264Y2781D01*
X3265Y2778D01*
X3267Y2773D01*
X3268Y2768D01*
X3274Y2757D01*
X3170D01*
Y2757D01*
X3169Y2759D01*
X3166Y2763D01*
X3163Y2768D01*
X3161Y2773D01*
Y2775D01*
X3160Y2778D01*
X3159Y2784D01*
X3157Y2792D01*
X3157Y2791D01*
X3154Y2788D01*
X3149Y2784D01*
X3143Y2780D01*
X3137Y2775D01*
X3130Y2770D01*
X3122Y2765D01*
X3114Y2762D01*
X3113Y2761D01*
X3109Y2760D01*
X3103Y2758D01*
X3095Y2756D01*
X3084Y2754D01*
X3073Y2752D01*
X3060Y2751D01*
X3046Y2750D01*
X3041D01*
X3037Y2751D01*
X3033D01*
X3028Y2751D01*
X3016Y2753D01*
X3003Y2756D01*
X2990Y2760D01*
X2977Y2765D01*
X2966Y2773D01*
X2965Y2775D01*
X2962Y2778D01*
X2958Y2783D01*
X2953Y2790D01*
X2948Y2799D01*
X2944Y2809D01*
X2942Y2820D01*
X2940Y2833D01*
Y2834D01*
Y2835D01*
Y2839D01*
X2941Y2845D01*
X2942Y2852D01*
X2944Y2861D01*
X2948Y2870D01*
X2952Y2879D01*
X2959Y2887D01*
X2960Y2888D01*
X2963Y2891D01*
X2968Y2894D01*
X2975Y2899D01*
X2985Y2904D01*
X2998Y2909D01*
X3012Y2914D01*
X3021Y2916D01*
X3030Y2918D01*
X3031D01*
X3033Y2919D01*
X3036Y2920D01*
X3041Y2921D01*
X3046Y2921D01*
X3052Y2923D01*
X3064Y2925D01*
X3078Y2928D01*
X3091Y2931D01*
X3103Y2934D01*
X3108Y2935D01*
X3111Y2936D01*
X3112D01*
X3115Y2937D01*
X3119Y2938D01*
X3124Y2940D01*
X3130Y2942D01*
X3136Y2944D01*
X3151Y2950D01*
Y2950D01*
Y2953D01*
X3151Y2956D01*
Y2961D01*
X3148Y2969D01*
X3146Y2974D01*
X3143Y2977D01*
X3142Y2978D01*
X3141Y2979D01*
X3139Y2980D01*
X3135Y2982D01*
X3132Y2983D01*
X3127Y2985D01*
X3120Y2986D01*
X3108D01*
X3103Y2985D01*
X3098D01*
X3084Y2983D01*
X3078Y2980D01*
X3072Y2977D01*
X3071D01*
X3071Y2976D01*
X3068Y2975D01*
X3066Y2972D01*
X3063Y2968D01*
X3060Y2964D01*
X3057Y2958D01*
X3055Y2952D01*
X2949Y2963D01*
Y2964D01*
X2950Y2967D01*
X2951Y2972D01*
X2953Y2979D01*
X2955Y2985D01*
X2958Y2993D01*
X2962Y3000D01*
X2966Y3007D01*
X2966Y3007D01*
X2968Y3010D01*
X2971Y3012D01*
X2974Y3016D01*
X2979Y3020D01*
X2985Y3025D01*
X2991Y3030D01*
X2998Y3034D01*
X2999Y3035D01*
X3001Y3036D01*
X3005Y3037D01*
X3009Y3039D01*
X3015Y3042D01*
X3022Y3044D01*
X3030Y3046D01*
X3040Y3047D01*
X3041D01*
X3044Y3048D01*
X3050Y3049D01*
X3057Y3050D01*
X3066Y3051D01*
X3076Y3052D01*
X3087Y3053D01*
X3116D01*
X3127Y3052D01*
D02*
G37*
G36*
X1922Y2757D02*
X1811D01*
Y3046D01*
X1922D01*
Y2757D01*
D02*
G37*
G36*
X1626Y3155D02*
X1631D01*
X1638Y3155D01*
X1653Y3152D01*
X1669Y3148D01*
X1685Y3142D01*
X1701Y3135D01*
X1709Y3130D01*
X1715Y3124D01*
X1716D01*
X1717Y3123D01*
X1718Y3120D01*
X1720Y3118D01*
X1726Y3111D01*
X1732Y3101D01*
X1738Y3088D01*
X1744Y3072D01*
X1747Y3054D01*
X1749Y3045D01*
Y3034D01*
Y3033D01*
Y3031D01*
Y3028D01*
X1748Y3023D01*
Y3018D01*
X1747Y3012D01*
X1744Y2999D01*
X1740Y2984D01*
X1734Y2968D01*
X1729Y2960D01*
X1725Y2953D01*
X1719Y2945D01*
X1712Y2939D01*
X1712D01*
X1711Y2937D01*
X1709Y2936D01*
X1706Y2934D01*
X1701Y2931D01*
X1697Y2928D01*
X1691Y2925D01*
X1685Y2922D01*
X1677Y2919D01*
X1669Y2916D01*
X1660Y2913D01*
X1650Y2910D01*
X1639Y2908D01*
X1627Y2907D01*
X1615Y2906D01*
X1601Y2905D01*
X1534D01*
Y2757D01*
X1410D01*
Y3156D01*
X1621D01*
X1626Y3155D01*
D02*
G37*
G36*
X5571Y3052D02*
X5578Y3051D01*
X5586Y3050D01*
X5596Y3048D01*
X5605Y3046D01*
X5615Y3044D01*
X5626Y3040D01*
X5637Y3036D01*
X5648Y3031D01*
X5659Y3025D01*
X5669Y3018D01*
X5679Y3010D01*
X5688Y3002D01*
X5688Y3001D01*
X5689Y3000D01*
X5691Y2997D01*
X5693Y2994D01*
X5696Y2991D01*
X5699Y2985D01*
X5702Y2980D01*
X5706Y2974D01*
X5712Y2959D01*
X5718Y2942D01*
X5723Y2923D01*
X5723Y2913D01*
X5724Y2902D01*
Y2901D01*
Y2899D01*
Y2895D01*
X5723Y2891D01*
X5723Y2885D01*
X5722Y2878D01*
X5720Y2871D01*
X5718Y2863D01*
X5713Y2846D01*
X5710Y2837D01*
X5705Y2827D01*
X5700Y2819D01*
X5694Y2809D01*
X5688Y2800D01*
X5680Y2792D01*
X5679Y2792D01*
X5677Y2791D01*
X5675Y2789D01*
X5672Y2786D01*
X5667Y2783D01*
X5661Y2779D01*
X5655Y2775D01*
X5648Y2771D01*
X5640Y2767D01*
X5630Y2763D01*
X5620Y2759D01*
X5609Y2757D01*
X5597Y2754D01*
X5584Y2752D01*
X5571Y2751D01*
X5556Y2750D01*
X5550D01*
X5545Y2751D01*
X5539D01*
X5532Y2752D01*
X5524Y2753D01*
X5516Y2754D01*
X5498Y2759D01*
X5479Y2765D01*
X5461Y2773D01*
X5451Y2779D01*
X5443Y2785D01*
X5443Y2786D01*
X5441Y2787D01*
X5438Y2789D01*
X5435Y2793D01*
X5431Y2797D01*
X5427Y2802D01*
X5422Y2809D01*
X5417Y2816D01*
X5412Y2824D01*
X5408Y2832D01*
X5403Y2842D01*
X5399Y2852D01*
X5396Y2863D01*
X5393Y2875D01*
X5392Y2887D01*
X5391Y2900D01*
Y2901D01*
Y2903D01*
Y2907D01*
X5392Y2911D01*
X5392Y2917D01*
X5393Y2923D01*
X5395Y2931D01*
X5397Y2939D01*
X5402Y2956D01*
X5406Y2965D01*
X5410Y2975D01*
X5415Y2983D01*
X5421Y2993D01*
X5427Y3002D01*
X5435Y3010D01*
X5436Y3010D01*
X5438Y3012D01*
X5440Y3013D01*
X5443Y3016D01*
X5448Y3020D01*
X5454Y3023D01*
X5460Y3027D01*
X5467Y3031D01*
X5476Y3035D01*
X5484Y3039D01*
X5494Y3042D01*
X5505Y3046D01*
X5517Y3049D01*
X5529Y3050D01*
X5543Y3052D01*
X5556Y3053D01*
X5564D01*
X5571Y3052D01*
D02*
G37*
G36*
X4587Y3018D02*
X4588Y3018D01*
X4590Y3020D01*
X4593Y3023D01*
X4598Y3028D01*
X4603Y3031D01*
X4609Y3036D01*
X4617Y3040D01*
X4624Y3044D01*
X4625Y3045D01*
X4628Y3045D01*
X4632Y3047D01*
X4638Y3048D01*
X4644Y3050D01*
X4652Y3051D01*
X4661Y3053D01*
X4676D01*
X4679Y3052D01*
X4684Y3051D01*
X4690Y3050D01*
X4701Y3047D01*
X4715Y3043D01*
X4730Y3036D01*
X4738Y3032D01*
X4744Y3027D01*
X4752Y3020D01*
X4758Y3014D01*
X4759Y3013D01*
X4760Y3012D01*
X4761Y3010D01*
X4764Y3007D01*
X4766Y3003D01*
X4769Y2998D01*
X4773Y2993D01*
X4776Y2986D01*
X4779Y2979D01*
X4782Y2971D01*
X4785Y2962D01*
X4788Y2952D01*
X4790Y2942D01*
X4792Y2930D01*
X4792Y2918D01*
X4793Y2905D01*
Y2905D01*
Y2903D01*
Y2901D01*
Y2897D01*
X4792Y2893D01*
Y2889D01*
X4791Y2877D01*
X4790Y2864D01*
X4787Y2850D01*
X4782Y2835D01*
X4777Y2821D01*
Y2821D01*
X4776Y2820D01*
X4774Y2816D01*
X4771Y2809D01*
X4765Y2801D01*
X4760Y2792D01*
X4752Y2784D01*
X4744Y2775D01*
X4733Y2767D01*
X4732Y2767D01*
X4728Y2765D01*
X4723Y2762D01*
X4715Y2759D01*
X4706Y2756D01*
X4695Y2753D01*
X4684Y2751D01*
X4671Y2750D01*
X4666D01*
X4661Y2751D01*
X4654Y2751D01*
X4646Y2753D01*
X4636Y2755D01*
X4628Y2758D01*
X4618Y2762D01*
X4617Y2763D01*
X4615Y2765D01*
X4612Y2767D01*
X4607Y2770D01*
X4601Y2776D01*
X4593Y2782D01*
X4586Y2789D01*
X4578Y2799D01*
Y2757D01*
X4475D01*
Y3156D01*
X4587D01*
Y3018D01*
D02*
G37*
G36*
X4266Y3052D02*
X4273Y3052D01*
X4287Y3050D01*
X4302Y3048D01*
X4318Y3045D01*
X4334Y3040D01*
X4348Y3034D01*
X4349D01*
X4350Y3033D01*
X4354Y3030D01*
X4361Y3026D01*
X4369Y3020D01*
X4378Y3012D01*
X4387Y3002D01*
X4396Y2991D01*
X4404Y2979D01*
Y2978D01*
X4405Y2977D01*
X4405Y2975D01*
X4407Y2972D01*
X4408Y2969D01*
X4410Y2964D01*
X4413Y2954D01*
X4417Y2940D01*
X4420Y2925D01*
X4422Y2907D01*
X4423Y2886D01*
Y2874D01*
X4200Y2874D01*
Y2872D01*
X4201Y2870D01*
X4202Y2864D01*
X4203Y2859D01*
X4208Y2846D01*
X4211Y2840D01*
X4214Y2834D01*
X4215Y2833D01*
X4217Y2831D01*
X4221Y2828D01*
X4226Y2824D01*
X4232Y2821D01*
X4239Y2818D01*
X4247Y2816D01*
X4257Y2815D01*
X4260D01*
X4262Y2816D01*
X4267D01*
X4276Y2819D01*
X4281Y2820D01*
X4287Y2823D01*
X4288D01*
X4289Y2824D01*
X4293Y2827D01*
X4296Y2829D01*
X4299Y2833D01*
X4303Y2837D01*
X4307Y2842D01*
X4416Y2832D01*
Y2831D01*
X4415Y2829D01*
X4413Y2827D01*
X4412Y2824D01*
X4406Y2817D01*
X4399Y2808D01*
X4390Y2797D01*
X4380Y2786D01*
X4368Y2777D01*
X4355Y2769D01*
X4354D01*
X4354Y2768D01*
X4351Y2767D01*
X4348Y2766D01*
X4345Y2765D01*
X4340Y2763D01*
X4335Y2761D01*
X4330Y2759D01*
X4322Y2758D01*
X4315Y2756D01*
X4307Y2754D01*
X4297Y2753D01*
X4288Y2751D01*
X4277Y2751D01*
X4266Y2750D01*
X4244D01*
X4239Y2751D01*
X4234D01*
X4221Y2752D01*
X4206Y2754D01*
X4191Y2757D01*
X4176Y2761D01*
X4163Y2766D01*
X4162Y2767D01*
X4158Y2769D01*
X4152Y2773D01*
X4144Y2778D01*
X4136Y2786D01*
X4126Y2794D01*
X4117Y2805D01*
X4109Y2817D01*
Y2818D01*
X4108Y2819D01*
X4106Y2821D01*
X4106Y2824D01*
X4102Y2831D01*
X4098Y2841D01*
X4094Y2853D01*
X4091Y2867D01*
X4088Y2883D01*
X4087Y2900D01*
Y2901D01*
Y2903D01*
Y2907D01*
X4088Y2911D01*
X4089Y2917D01*
X4090Y2924D01*
X4091Y2932D01*
X4093Y2940D01*
X4098Y2957D01*
X4101Y2966D01*
X4106Y2975D01*
X4111Y2985D01*
X4117Y2993D01*
X4123Y3002D01*
X4131Y3010D01*
X4131Y3011D01*
X4133Y3012D01*
X4135Y3014D01*
X4139Y3017D01*
X4143Y3020D01*
X4149Y3023D01*
X4155Y3028D01*
X4162Y3031D01*
X4170Y3035D01*
X4179Y3039D01*
X4189Y3043D01*
X4200Y3046D01*
X4211Y3049D01*
X4224Y3051D01*
X4237Y3052D01*
X4251Y3053D01*
X4261D01*
X4266Y3052D01*
D02*
G37*
G36*
X2840Y3046D02*
X2901D01*
Y2965D01*
X2840D01*
Y2862D01*
Y2862D01*
Y2859D01*
Y2856D01*
X2841Y2852D01*
X2842Y2844D01*
X2842Y2840D01*
X2843Y2837D01*
X2845Y2836D01*
X2847Y2833D01*
X2853Y2830D01*
X2858Y2829D01*
X2862Y2829D01*
X2864D01*
X2867Y2829D01*
X2871D01*
X2876Y2830D01*
X2882Y2832D01*
X2888Y2833D01*
X2896Y2835D01*
X2905Y2759D01*
X2903D01*
X2901Y2758D01*
X2898Y2757D01*
X2890Y2756D01*
X2880Y2754D01*
X2868Y2753D01*
X2855Y2751D01*
X2842Y2751D01*
X2828Y2750D01*
X2821D01*
X2814Y2751D01*
X2804Y2751D01*
X2794Y2752D01*
X2785Y2754D01*
X2775Y2757D01*
X2767Y2760D01*
X2766Y2761D01*
X2764Y2762D01*
X2760Y2765D01*
X2756Y2768D01*
X2751Y2773D01*
X2746Y2778D01*
X2741Y2785D01*
X2737Y2792D01*
Y2793D01*
X2736Y2797D01*
X2734Y2802D01*
X2733Y2809D01*
X2732Y2819D01*
X2730Y2832D01*
X2729Y2846D01*
X2729Y2863D01*
Y2965D01*
X2688D01*
Y3046D01*
X2729D01*
Y3098D01*
X2840Y3156D01*
Y3046D01*
D02*
G37*
G36*
X2500Y3052D02*
X2506Y3051D01*
X2515Y3050D01*
X2525Y3048D01*
X2534Y3046D01*
X2544Y3044D01*
X2555Y3040D01*
X2566Y3036D01*
X2577Y3031D01*
X2588Y3025D01*
X2598Y3018D01*
X2608Y3010D01*
X2616Y3002D01*
X2617Y3001D01*
X2618Y3000D01*
X2620Y2997D01*
X2622Y2994D01*
X2625Y2991D01*
X2628Y2985D01*
X2631Y2980D01*
X2635Y2974D01*
X2641Y2959D01*
X2647Y2942D01*
X2651Y2923D01*
X2652Y2913D01*
X2653Y2902D01*
Y2901D01*
Y2899D01*
Y2895D01*
X2652Y2891D01*
X2651Y2885D01*
X2651Y2878D01*
X2649Y2871D01*
X2647Y2863D01*
X2642Y2846D01*
X2638Y2837D01*
X2634Y2827D01*
X2629Y2819D01*
X2623Y2809D01*
X2616Y2800D01*
X2608Y2792D01*
X2608Y2792D01*
X2606Y2791D01*
X2604Y2789D01*
X2600Y2786D01*
X2596Y2783D01*
X2590Y2779D01*
X2584Y2775D01*
X2576Y2771D01*
X2568Y2767D01*
X2559Y2763D01*
X2549Y2759D01*
X2538Y2757D01*
X2526Y2754D01*
X2513Y2752D01*
X2500Y2751D01*
X2485Y2750D01*
X2479D01*
X2473Y2751D01*
X2468D01*
X2461Y2752D01*
X2453Y2753D01*
X2445Y2754D01*
X2427Y2759D01*
X2408Y2765D01*
X2390Y2773D01*
X2380Y2779D01*
X2372Y2785D01*
X2371Y2786D01*
X2370Y2787D01*
X2367Y2789D01*
X2364Y2793D01*
X2360Y2797D01*
X2355Y2802D01*
X2351Y2809D01*
X2346Y2816D01*
X2341Y2824D01*
X2336Y2832D01*
X2332Y2842D01*
X2328Y2852D01*
X2325Y2863D01*
X2322Y2875D01*
X2320Y2887D01*
X2320Y2900D01*
Y2901D01*
Y2903D01*
Y2907D01*
X2320Y2911D01*
X2321Y2917D01*
X2322Y2923D01*
X2323Y2931D01*
X2325Y2939D01*
X2331Y2956D01*
X2334Y2965D01*
X2339Y2975D01*
X2344Y2983D01*
X2350Y2993D01*
X2356Y3002D01*
X2364Y3010D01*
X2365Y3010D01*
X2366Y3012D01*
X2369Y3013D01*
X2372Y3016D01*
X2377Y3020D01*
X2382Y3023D01*
X2389Y3027D01*
X2396Y3031D01*
X2404Y3035D01*
X2413Y3039D01*
X2423Y3042D01*
X2434Y3046D01*
X2446Y3049D01*
X2458Y3050D01*
X2471Y3052D01*
X2485Y3053D01*
X2493D01*
X2500Y3052D01*
D02*
G37*
%LPC*%
G36*
X6349Y11096D02*
X6317Y10989D01*
X6382D01*
X6349Y11096D01*
D02*
G37*
G36*
X6855Y8849D02*
X6815D01*
Y8788D01*
X6857D01*
X6859Y8789D01*
X6862Y8789D01*
X6866Y8790D01*
X6872Y8791D01*
X6878Y8792D01*
X6879D01*
X6880Y8792D01*
X6881Y8793D01*
X6883Y8793D01*
X6888Y8796D01*
X6891Y8798D01*
X6893Y8801D01*
X6894Y8802D01*
X6894Y8803D01*
X6895Y8804D01*
X6897Y8806D01*
X6898Y8811D01*
X6899Y8815D01*
Y8819D01*
Y8819D01*
Y8821D01*
X6899Y8823D01*
X6898Y8827D01*
X6897Y8830D01*
X6895Y8834D01*
X6893Y8837D01*
X6890Y8840D01*
X6889Y8841D01*
X6888Y8842D01*
X6886Y8843D01*
X6882Y8845D01*
X6877Y8846D01*
X6871Y8848D01*
X6864Y8848D01*
X6855Y8849D01*
D02*
G37*
G36*
X6119D02*
X6093D01*
Y8782D01*
X6120D01*
X6124Y8783D01*
X6130Y8783D01*
X6136Y8784D01*
X6143Y8786D01*
X6148Y8788D01*
X6153Y8791D01*
X6153Y8791D01*
X6155Y8792D01*
X6156Y8795D01*
X6158Y8797D01*
X6161Y8801D01*
X6162Y8805D01*
X6163Y8809D01*
X6164Y8815D01*
Y8815D01*
Y8817D01*
X6163Y8820D01*
X6163Y8823D01*
X6162Y8827D01*
X6159Y8831D01*
X6157Y8835D01*
X6154Y8839D01*
X6153Y8839D01*
X6152Y8840D01*
X6150Y8842D01*
X6146Y8844D01*
X6141Y8845D01*
X6135Y8847D01*
X6128Y8848D01*
X6119Y8849D01*
D02*
G37*
G36*
X497Y7272D02*
X372Y7234D01*
X497Y7196D01*
Y7272D01*
D02*
G37*
G36*
Y6540D02*
X372Y6502D01*
X497Y6464D01*
Y6540D01*
D02*
G37*
G36*
X457Y6183D02*
X456D01*
X454D01*
X452D01*
X448D01*
X443Y6183D01*
X438D01*
X426Y6181D01*
X414Y6179D01*
X401Y6176D01*
X390Y6171D01*
X385Y6168D01*
X381Y6165D01*
X380Y6164D01*
X378Y6161D01*
X375Y6157D01*
X370Y6150D01*
X366Y6142D01*
X363Y6132D01*
X361Y6119D01*
X360Y6104D01*
Y6078D01*
X550D01*
Y6109D01*
X550Y6115D01*
Y6123D01*
X548Y6131D01*
X547Y6139D01*
X546Y6146D01*
X543Y6152D01*
X543Y6153D01*
X542Y6155D01*
X540Y6157D01*
X537Y6160D01*
X534Y6164D01*
X529Y6168D01*
X524Y6172D01*
X517Y6175D01*
X517Y6176D01*
X513Y6176D01*
X509Y6178D01*
X503Y6180D01*
X494Y6181D01*
X483Y6182D01*
X471Y6183D01*
X457Y6183D01*
D02*
G37*
G36*
X3678Y3075D02*
X3643D01*
Y2986D01*
X3679D01*
X3685Y2987D01*
X3692Y2988D01*
X3700Y2989D01*
X3709Y2991D01*
X3716Y2994D01*
X3723Y2998D01*
X3724Y2999D01*
X3725Y3000D01*
X3727Y3003D01*
X3730Y3007D01*
X3733Y3011D01*
X3735Y3017D01*
X3737Y3023D01*
X3738Y3030D01*
Y3031D01*
Y3033D01*
X3737Y3036D01*
X3736Y3041D01*
X3735Y3046D01*
X3732Y3052D01*
X3729Y3057D01*
X3724Y3062D01*
X3724Y3063D01*
X3722Y3064D01*
X3719Y3066D01*
X3714Y3069D01*
X3708Y3071D01*
X3700Y3073D01*
X3689Y3074D01*
X3678Y3075D01*
D02*
G37*
G36*
X3151Y2894D02*
X3151D01*
X3148Y2892D01*
X3143Y2891D01*
X3137Y2889D01*
X3130Y2886D01*
X3122Y2884D01*
X3103Y2879D01*
X3102Y2878D01*
X3098Y2878D01*
X3092Y2876D01*
X3085Y2874D01*
X3078Y2871D01*
X3071Y2868D01*
X3065Y2865D01*
X3060Y2862D01*
Y2861D01*
X3059Y2860D01*
X3056Y2856D01*
X3053Y2849D01*
X3052Y2846D01*
X3052Y2841D01*
Y2840D01*
Y2839D01*
X3052Y2837D01*
X3053Y2834D01*
X3055Y2827D01*
X3057Y2823D01*
X3060Y2820D01*
X3061D01*
X3062Y2819D01*
X3064Y2818D01*
X3068Y2816D01*
X3071Y2815D01*
X3076Y2813D01*
X3081Y2813D01*
X3087Y2812D01*
X3090D01*
X3094Y2813D01*
X3098Y2813D01*
X3103Y2814D01*
X3109Y2816D01*
X3116Y2818D01*
X3122Y2821D01*
X3122Y2821D01*
X3124Y2822D01*
X3127Y2824D01*
X3130Y2827D01*
X3138Y2833D01*
X3141Y2837D01*
X3144Y2842D01*
Y2843D01*
X3146Y2844D01*
X3146Y2847D01*
X3148Y2851D01*
X3149Y2856D01*
X3150Y2862D01*
X3151Y2868D01*
Y2875D01*
Y2894D01*
D02*
G37*
G36*
X1569Y3075D02*
X1534D01*
Y2986D01*
X1570D01*
X1576Y2987D01*
X1583Y2988D01*
X1591Y2989D01*
X1600Y2991D01*
X1607Y2994D01*
X1614Y2998D01*
X1615Y2999D01*
X1616Y3000D01*
X1618Y3003D01*
X1621Y3007D01*
X1624Y3011D01*
X1626Y3017D01*
X1628Y3023D01*
X1629Y3030D01*
Y3031D01*
Y3033D01*
X1628Y3036D01*
X1627Y3041D01*
X1626Y3046D01*
X1623Y3052D01*
X1620Y3057D01*
X1615Y3062D01*
X1615Y3063D01*
X1613Y3064D01*
X1610Y3066D01*
X1605Y3069D01*
X1599Y3071D01*
X1591Y3073D01*
X1580Y3074D01*
X1569Y3075D01*
D02*
G37*
G36*
X5558Y2976D02*
X5554D01*
X5549Y2975D01*
X5544Y2974D01*
X5537Y2972D01*
X5531Y2968D01*
X5524Y2964D01*
X5518Y2957D01*
X5517Y2956D01*
X5516Y2953D01*
X5513Y2949D01*
X5511Y2943D01*
X5508Y2935D01*
X5505Y2925D01*
X5503Y2913D01*
X5502Y2900D01*
Y2899D01*
Y2899D01*
Y2897D01*
Y2894D01*
X5503Y2887D01*
X5505Y2878D01*
X5506Y2870D01*
X5509Y2860D01*
X5513Y2851D01*
X5518Y2843D01*
X5519Y2843D01*
X5521Y2840D01*
X5524Y2837D01*
X5529Y2835D01*
X5535Y2831D01*
X5541Y2828D01*
X5549Y2826D01*
X5557Y2825D01*
X5562D01*
X5566Y2826D01*
X5571Y2827D01*
X5578Y2829D01*
X5584Y2832D01*
X5591Y2837D01*
X5597Y2843D01*
X5597Y2843D01*
X5599Y2846D01*
X5602Y2851D01*
X5605Y2857D01*
X5607Y2865D01*
X5610Y2875D01*
X5612Y2887D01*
X5613Y2902D01*
Y2902D01*
Y2903D01*
Y2907D01*
X5612Y2914D01*
X5610Y2923D01*
X5609Y2932D01*
X5606Y2941D01*
X5602Y2950D01*
X5597Y2957D01*
X5596Y2958D01*
X5594Y2960D01*
X5591Y2963D01*
X5586Y2967D01*
X5580Y2970D01*
X5574Y2973D01*
X5566Y2975D01*
X5558Y2976D01*
D02*
G37*
G36*
X4637Y2969D02*
X4634D01*
X4629Y2969D01*
X4624Y2967D01*
X4618Y2965D01*
X4612Y2962D01*
X4606Y2958D01*
X4600Y2953D01*
X4599Y2952D01*
X4598Y2950D01*
X4596Y2945D01*
X4593Y2940D01*
X4590Y2933D01*
X4588Y2924D01*
X4586Y2914D01*
X4585Y2902D01*
Y2901D01*
Y2900D01*
Y2896D01*
X4586Y2889D01*
X4587Y2881D01*
X4589Y2872D01*
X4591Y2863D01*
X4595Y2855D01*
X4599Y2848D01*
X4600Y2847D01*
X4602Y2845D01*
X4605Y2843D01*
X4609Y2840D01*
X4615Y2836D01*
X4620Y2834D01*
X4628Y2832D01*
X4635Y2831D01*
X4639D01*
X4642Y2832D01*
X4647Y2833D01*
X4652Y2835D01*
X4658Y2837D01*
X4663Y2842D01*
X4669Y2847D01*
X4669Y2848D01*
X4671Y2850D01*
X4673Y2854D01*
X4676Y2860D01*
X4678Y2868D01*
X4680Y2878D01*
X4682Y2889D01*
X4682Y2902D01*
Y2903D01*
Y2904D01*
Y2908D01*
X4682Y2914D01*
X4681Y2921D01*
X4679Y2930D01*
X4677Y2938D01*
X4673Y2946D01*
X4669Y2953D01*
X4668Y2953D01*
X4666Y2956D01*
X4663Y2958D01*
X4660Y2961D01*
X4655Y2964D01*
X4650Y2967D01*
X4644Y2969D01*
X4637Y2969D01*
D02*
G37*
G36*
X4255Y2987D02*
X4251D01*
X4246Y2986D01*
X4240Y2984D01*
X4233Y2982D01*
X4226Y2978D01*
X4219Y2973D01*
X4213Y2966D01*
X4212Y2965D01*
X4211Y2964D01*
X4210Y2960D01*
X4208Y2956D01*
X4206Y2950D01*
X4203Y2944D01*
X4202Y2936D01*
X4200Y2927D01*
X4310Y2927D01*
Y2928D01*
Y2929D01*
X4309Y2932D01*
X4308Y2938D01*
X4306Y2945D01*
X4304Y2952D01*
X4301Y2959D01*
X4297Y2967D01*
X4292Y2972D01*
X4292Y2973D01*
X4290Y2975D01*
X4287Y2977D01*
X4283Y2980D01*
X4277Y2983D01*
X4271Y2985D01*
X4263Y2986D01*
X4255Y2987D01*
D02*
G37*
G36*
X2487Y2976D02*
X2483D01*
X2478Y2975D01*
X2473Y2974D01*
X2466Y2972D01*
X2460Y2968D01*
X2453Y2964D01*
X2447Y2957D01*
X2446Y2956D01*
X2444Y2953D01*
X2441Y2949D01*
X2439Y2943D01*
X2436Y2935D01*
X2433Y2925D01*
X2432Y2913D01*
X2431Y2900D01*
Y2899D01*
Y2899D01*
Y2897D01*
Y2894D01*
X2432Y2887D01*
X2433Y2878D01*
X2435Y2870D01*
X2438Y2860D01*
X2441Y2851D01*
X2447Y2843D01*
X2447Y2843D01*
X2449Y2840D01*
X2453Y2837D01*
X2457Y2835D01*
X2463Y2831D01*
X2470Y2828D01*
X2478Y2826D01*
X2486Y2825D01*
X2490D01*
X2495Y2826D01*
X2500Y2827D01*
X2506Y2829D01*
X2513Y2832D01*
X2519Y2837D01*
X2525Y2843D01*
X2526Y2843D01*
X2527Y2846D01*
X2530Y2851D01*
X2533Y2857D01*
X2536Y2865D01*
X2539Y2875D01*
X2541Y2887D01*
X2541Y2902D01*
Y2902D01*
Y2903D01*
Y2907D01*
X2541Y2914D01*
X2539Y2923D01*
X2538Y2932D01*
X2535Y2941D01*
X2530Y2950D01*
X2525Y2957D01*
X2525Y2958D01*
X2522Y2960D01*
X2519Y2963D01*
X2515Y2967D01*
X2509Y2970D01*
X2503Y2973D01*
X2495Y2975D01*
X2487Y2976D01*
D02*
G37*
%LPD*%
D24*
X6205Y9190D02*
D03*
X6795D02*
D03*
Y10610D02*
D03*
X6205D02*
D03*
D25*
X6288Y10160D02*
D03*
X6712D02*
D03*
X6288Y9650D02*
D03*
X6712D02*
D03*
D26*
X1176Y9967D02*
D03*
Y9543D02*
D03*
X7000Y7798D02*
D03*
Y8222D02*
D03*
X4690Y10272D02*
D03*
Y10696D02*
D03*
X3070Y10272D02*
D03*
Y10696D02*
D03*
X1180Y10822D02*
D03*
Y10398D02*
D03*
X6000Y7798D02*
D03*
Y8222D02*
D03*
X6500Y8217D02*
D03*
Y7793D02*
D03*
D27*
X4980Y9172D02*
D03*
Y9428D02*
D03*
Y8660D02*
D03*
Y8916D02*
D03*
Y8149D02*
D03*
Y8404D02*
D03*
Y7637D02*
D03*
Y7893D02*
D03*
Y7125D02*
D03*
Y7381D02*
D03*
X2697Y6101D02*
D03*
Y6357D02*
D03*
Y6613D02*
D03*
Y6869D02*
D03*
X4980Y6101D02*
D03*
Y6357D02*
D03*
Y6613D02*
D03*
Y6869D02*
D03*
X2697Y7125D02*
D03*
Y7381D02*
D03*
Y7637D02*
D03*
Y7893D02*
D03*
Y8149D02*
D03*
Y8404D02*
D03*
Y8660D02*
D03*
Y8916D02*
D03*
Y9172D02*
D03*
Y9428D02*
D03*
D28*
X3516Y10740D02*
D03*
Y10484D02*
D03*
Y10228D02*
D03*
X4244D02*
D03*
Y10484D02*
D03*
Y10740D02*
D03*
D29*
X1677Y3938D02*
D03*
X677D02*
D03*
D30*
X6988Y886D02*
D03*
X6201D02*
D03*
X5413D02*
D03*
X4626D02*
D03*
X3839D02*
D03*
X3051D02*
D03*
X2264D02*
D03*
X1476D02*
D03*
X689D02*
D03*
X6988Y1673D02*
D03*
X6201D02*
D03*
X5413D02*
D03*
X4626D02*
D03*
X3839D02*
D03*
X3051D02*
D03*
X2264D02*
D03*
X1476D02*
D03*
X689D02*
D03*
Y12795D02*
D03*
X1476D02*
D03*
X2264D02*
D03*
X3051D02*
D03*
X3839D02*
D03*
X4626D02*
D03*
X5413D02*
D03*
X6201D02*
D03*
X6988D02*
D03*
X689Y13583D02*
D03*
X1476D02*
D03*
X2264D02*
D03*
X3051D02*
D03*
X3839D02*
D03*
X4626D02*
D03*
X5413D02*
D03*
X6201D02*
D03*
X6988D02*
D03*
D31*
X664Y11713D02*
D03*
X1664D02*
D03*
X7014D02*
D03*
X6014D02*
D03*
X5014D02*
D03*
X4014D02*
D03*
D32*
X3839Y4405D02*
D03*
M02*
